G04*
G04 #@! TF.GenerationSoftware,Altium Limited,Altium Designer,24.1.2 (44)*
G04*
G04 Layer_Physical_Order=3*
G04 Layer_Color=16440176*
%FSLAX44Y44*%
%MOMM*%
G71*
G04*
G04 #@! TF.SameCoordinates,594C4E7E-5880-4872-9B90-1EBF5E6123A4*
G04*
G04*
G04 #@! TF.FilePolarity,Positive*
G04*
G01*
G75*
%ADD15C,0.2540*%
%ADD16C,0.5080*%
%ADD20C,0.3810*%
%ADD133C,1.0000*%
%ADD140R,4.5759X4.5772*%
%ADD141R,4.5898X4.6031*%
%ADD142R,4.5498X4.5450*%
%ADD143R,4.5846X4.5929*%
%ADD144C,1.4580*%
%ADD145C,0.9500*%
%ADD147C,1.0000*%
%ADD148C,6.3500*%
%ADD150C,0.8500*%
%ADD151R,1.6000X1.6000*%
%ADD152C,1.6000*%
%ADD153C,0.4000*%
%ADD154C,1.5240*%
%ADD155R,2.9718X0.9841*%
%ADD156R,3.0226X3.2154*%
%ADD157R,3.0251X3.2004*%
%ADD158R,1.6591X2.6605*%
G36*
X798187Y833528D02*
X797361D01*
X792149Y832702D01*
X787130Y831072D01*
X782428Y828676D01*
X778158Y825574D01*
X774426Y821842D01*
X771324Y817572D01*
X768928Y812870D01*
X767298Y807851D01*
X766472Y802639D01*
Y797361D01*
X767298Y792149D01*
X768928Y787130D01*
X771324Y782428D01*
X774426Y778158D01*
X778158Y774426D01*
X782428Y771324D01*
X787130Y768928D01*
X792149Y767298D01*
X797361Y766472D01*
X802639D01*
X807851Y767298D01*
X812870Y768928D01*
X817572Y771324D01*
X821842Y774426D01*
X825574Y778158D01*
X828676Y782428D01*
X831072Y787130D01*
X832702Y792149D01*
X833528Y797361D01*
Y798187D01*
X843140D01*
Y51813D01*
X833528D01*
Y52639D01*
X832702Y57851D01*
X831072Y62870D01*
X828676Y67572D01*
X825574Y71842D01*
X821842Y75574D01*
X817572Y78676D01*
X812870Y81072D01*
X807851Y82703D01*
X802639Y83528D01*
X797361D01*
X792149Y82703D01*
X787130Y81072D01*
X782428Y78676D01*
X778158Y75574D01*
X774426Y71842D01*
X771324Y67572D01*
X768928Y62870D01*
X767298Y57851D01*
X766472Y52639D01*
Y47361D01*
X767298Y42149D01*
X768928Y37130D01*
X771324Y32427D01*
X774426Y28158D01*
X778158Y24426D01*
X782428Y21324D01*
X787130Y18928D01*
X792149Y17298D01*
X797361Y16472D01*
X798187D01*
Y6921D01*
X582382D01*
X581896Y8094D01*
X598810Y25008D01*
X599896Y26423D01*
X600579Y28072D01*
X600812Y29842D01*
Y114330D01*
X605028D01*
X605722Y114468D01*
X606310Y114861D01*
X606703Y115449D01*
X606841Y116143D01*
Y125984D01*
X606703Y126678D01*
X606310Y127266D01*
X605722Y127659D01*
X605028Y127797D01*
X587553D01*
Y138965D01*
X595188Y146601D01*
X596434Y146353D01*
X596491Y146215D01*
X597554Y145152D01*
X598942Y144577D01*
X600446D01*
X601834Y145152D01*
X602897Y146215D01*
X603472Y147603D01*
Y149106D01*
X602897Y150495D01*
X602804Y150587D01*
X603330Y151857D01*
X616721D01*
X617247Y150587D01*
X617155Y150495D01*
X616579Y149106D01*
Y147603D01*
X617155Y146215D01*
X618217Y145152D01*
X619606Y144577D01*
X621109D01*
X622497Y145152D01*
X623560Y146215D01*
X624135Y147603D01*
Y149106D01*
X623560Y150495D01*
X623468Y150587D01*
X623994Y151857D01*
X637107D01*
X637307Y151484D01*
X637496Y150587D01*
X636623Y149714D01*
X636048Y148326D01*
Y146823D01*
X636623Y145434D01*
X637686Y144371D01*
X639075Y143796D01*
X640577D01*
X641966Y144371D01*
X643029Y145434D01*
X643604Y146823D01*
Y148326D01*
X643029Y149714D01*
X642156Y150587D01*
X642345Y151484D01*
X642545Y151857D01*
X676487D01*
Y150760D01*
X677062Y149372D01*
X678125Y148309D01*
X679513Y147734D01*
X681016D01*
X682405Y148309D01*
X683468Y149372D01*
X684043Y150760D01*
Y151857D01*
X730150D01*
X730636Y150684D01*
X725730Y145777D01*
X725595D01*
X724207Y145202D01*
X723144Y144139D01*
X722569Y142751D01*
Y141248D01*
X723144Y139859D01*
X724207Y138796D01*
X725595Y138221D01*
X727098D01*
X728487Y138796D01*
X729549Y139859D01*
X730125Y141248D01*
Y141382D01*
X736287Y147544D01*
X763300D01*
X764490Y147781D01*
X765498Y148455D01*
X769587Y152544D01*
X769915Y152595D01*
X771090Y152388D01*
X771679Y151995D01*
X772372Y151857D01*
X772395D01*
X772921Y150587D01*
X772565Y150231D01*
X771990Y148842D01*
Y147339D01*
X772565Y145951D01*
X773628Y144888D01*
X775016Y144313D01*
X776519D01*
X777908Y144888D01*
X778971Y145951D01*
X779546Y147339D01*
Y148842D01*
X778971Y150231D01*
X778344Y150858D01*
X778327Y150904D01*
X778444Y152280D01*
X778493Y152368D01*
X778522Y152388D01*
X803191Y177057D01*
X803584Y177645D01*
X803722Y178339D01*
Y598438D01*
X803687Y598613D01*
Y598791D01*
X803619Y598956D01*
X803584Y599132D01*
X803485Y599280D01*
X803417Y599445D01*
X803290Y599571D01*
X803191Y599720D01*
X803043Y599819D01*
X802916Y599945D01*
X802008Y600552D01*
X801573Y601202D01*
X801421Y601969D01*
X801573Y602736D01*
X802008Y603386D01*
X802916Y603993D01*
X803043Y604119D01*
X803191Y604219D01*
X803290Y604367D01*
X803417Y604493D01*
X803485Y604658D01*
X803584Y604807D01*
X803619Y604982D01*
X803687Y605147D01*
Y605325D01*
X803722Y605500D01*
Y626646D01*
X803584Y627340D01*
X803191Y627928D01*
X775243Y655877D01*
Y728980D01*
X775105Y729674D01*
X774712Y730262D01*
X774124Y730655D01*
X773430Y730793D01*
X741680D01*
X740986Y730655D01*
X740398Y730262D01*
X740005Y729674D01*
X739867Y728980D01*
Y659606D01*
X739405D01*
X738016Y659031D01*
X736953Y657968D01*
X736378Y656580D01*
Y655077D01*
X736953Y653688D01*
X738016Y652625D01*
X739405Y652050D01*
X739867D01*
Y629920D01*
X740005Y629226D01*
X740398Y628638D01*
X764251Y604785D01*
Y520501D01*
X764303Y520240D01*
X764329Y519975D01*
X764372Y519896D01*
X764389Y519807D01*
X764537Y519586D01*
X764663Y519351D01*
X764732Y519294D01*
X764782Y519219D01*
X765004Y519071D01*
X765210Y518902D01*
X765333Y518836D01*
X765419Y518810D01*
X765492Y518761D01*
X766638Y518285D01*
X766815Y518249D01*
X766980Y518181D01*
X767158D01*
X767332Y518146D01*
X767508Y518181D01*
X767688D01*
X768622Y518367D01*
X769389Y518214D01*
X770039Y517780D01*
X770473Y517130D01*
X770626Y516363D01*
X770473Y515596D01*
X770039Y514946D01*
X769389Y514512D01*
X768622Y514359D01*
X767688Y514545D01*
X767508D01*
X767332Y514580D01*
X767158Y514545D01*
X766980D01*
X766815Y514477D01*
X766638Y514441D01*
X765492Y513965D01*
X765418Y513916D01*
X765333Y513890D01*
X765210Y513824D01*
X765004Y513655D01*
X764782Y513507D01*
X764732Y513432D01*
X764663Y513375D01*
X764537Y513140D01*
X764389Y512919D01*
X764372Y512830D01*
X764329Y512751D01*
X764303Y512486D01*
X764251Y512225D01*
Y354365D01*
X587432D01*
X587046Y355635D01*
X587579Y356432D01*
X587816Y357621D01*
Y394164D01*
X628275Y434624D01*
X628949Y435632D01*
X629186Y436821D01*
Y442245D01*
X628949Y443435D01*
X628275Y444443D01*
X623618Y449100D01*
Y462191D01*
X623713Y462287D01*
X624289Y463675D01*
Y465178D01*
X623713Y466567D01*
X622651Y467629D01*
X621262Y468205D01*
X619759D01*
X618371Y467629D01*
X617308Y466567D01*
X616733Y465178D01*
Y463675D01*
X617308Y462287D01*
X617403Y462191D01*
Y447813D01*
X617639Y446623D01*
X618313Y445615D01*
X620065Y443863D01*
X619687Y442445D01*
X618890Y442115D01*
X617827Y441052D01*
X617252Y439664D01*
Y439529D01*
X579566Y401843D01*
X578393Y402329D01*
Y436250D01*
X578372Y436353D01*
X578381Y436457D01*
X578304Y436697D01*
X578255Y436944D01*
X578197Y437031D01*
X578165Y437130D01*
X578002Y437323D01*
X577862Y437532D01*
X577887Y438764D01*
X577990Y438867D01*
X578565Y440256D01*
Y441759D01*
X577990Y443147D01*
X577887Y443251D01*
X577862Y444483D01*
X578002Y444692D01*
X578165Y444885D01*
X578197Y444984D01*
X578255Y445071D01*
X578304Y445318D01*
X578381Y445558D01*
X578372Y445662D01*
X578393Y445764D01*
Y591225D01*
X731468D01*
X732162Y591363D01*
X732750Y591756D01*
X732802Y591808D01*
X733195Y592396D01*
X733333Y593090D01*
Y619760D01*
X733195Y620454D01*
X732802Y621042D01*
X732214Y621435D01*
X731520Y621573D01*
X469698D01*
X469004Y621435D01*
X468416Y621042D01*
X468023Y620454D01*
X467885Y619760D01*
Y602746D01*
X467920Y602570D01*
Y602392D01*
X467988Y602227D01*
X468023Y602052D01*
X468122Y601903D01*
X468191Y601738D01*
X468317Y601612D01*
X468416Y601464D01*
X468565Y601365D01*
X468691Y601238D01*
X468856Y601170D01*
X469004Y601071D01*
X469179Y601036D01*
X469344Y600968D01*
X470465Y600745D01*
X471115Y600310D01*
X471549Y599660D01*
X471702Y598894D01*
X471549Y598127D01*
X471115Y597477D01*
X470465Y597042D01*
X469344Y596819D01*
X469179Y596751D01*
X469004Y596716D01*
X468856Y596617D01*
X468691Y596549D01*
X468565Y596423D01*
X468416Y596323D01*
X468317Y596175D01*
X468191Y596049D01*
X468122Y595884D01*
X468023Y595735D01*
X467988Y595560D01*
X467920Y595395D01*
Y595217D01*
X467885Y595042D01*
Y593048D01*
X468023Y592354D01*
X468416Y591766D01*
X468426Y591756D01*
X469014Y591363D01*
X469708Y591225D01*
X535397D01*
Y563311D01*
X535432Y563136D01*
X535432Y562957D01*
X535500Y562792D01*
X535535Y562617D01*
X535634Y562469D01*
X535703Y562304D01*
X535727Y562280D01*
X536352Y561345D01*
X536504Y560578D01*
X536352Y559811D01*
X535727Y558876D01*
X535703Y558852D01*
X535634Y558687D01*
X535535Y558539D01*
X535500Y558364D01*
X535432Y558199D01*
X535432Y558020D01*
X535397Y557845D01*
Y444785D01*
X534564D01*
X533176Y444210D01*
X532113Y443147D01*
X531538Y441759D01*
Y440256D01*
X532113Y438867D01*
X533176Y437805D01*
X534564Y437229D01*
X535397D01*
Y395263D01*
X534224Y394777D01*
X529635Y399365D01*
X528627Y400039D01*
X527438Y400275D01*
X415234D01*
X415139Y400370D01*
X413750Y400946D01*
X412247D01*
X410858Y400370D01*
X409796Y399308D01*
X409700Y399076D01*
X408202Y398778D01*
X403896Y403083D01*
Y403218D01*
X403321Y404607D01*
X402258Y405669D01*
X400870Y406245D01*
X399367D01*
X397978Y405669D01*
X396916Y404607D01*
X396340Y403218D01*
Y401715D01*
X396916Y400326D01*
X397978Y399264D01*
X399367Y398689D01*
X399501D01*
X408268Y389922D01*
X409276Y389249D01*
X410465Y389012D01*
X524331D01*
X526031Y387311D01*
Y357678D01*
X526268Y356489D01*
X526839Y355635D01*
X526537Y354506D01*
X526479Y354365D01*
X506719D01*
X484006Y377077D01*
X483418Y377470D01*
X482724Y377608D01*
X440749D01*
X440407Y377541D01*
X440062Y377473D01*
X440059Y377471D01*
X440055Y377470D01*
X439764Y377276D01*
X439472Y377083D01*
X439470Y377080D01*
X439467Y377077D01*
X439273Y376787D01*
X439077Y376496D01*
X439076Y376493D01*
X439074Y376489D01*
X439005Y376146D01*
X438936Y375803D01*
X438881Y362858D01*
X438881Y362856D01*
X438881Y362854D01*
X438949Y362509D01*
X439016Y362163D01*
X439017Y362162D01*
X439017Y362160D01*
X439212Y361867D01*
X439407Y361573D01*
X439408Y361572D01*
X439409Y361571D01*
X440305Y360671D01*
X440307Y360670D01*
X440308Y360668D01*
X440596Y360476D01*
X440893Y360277D01*
X440895Y360276D01*
X440896Y360275D01*
X441239Y360207D01*
X441586Y360137D01*
X441588Y360138D01*
X441590Y360137D01*
X442140D01*
X442315Y360172D01*
X442387D01*
X442562Y360137D01*
X455162D01*
X455337Y360172D01*
X455410D01*
X455585Y360137D01*
X468895D01*
X479464Y349569D01*
X479612Y349469D01*
X479738Y349343D01*
X479903Y349275D01*
X480052Y349176D01*
X480227Y349141D01*
X480392Y349072D01*
X480548D01*
X481590Y348865D01*
X482240Y348431D01*
X482675Y347781D01*
X482882Y346738D01*
Y346582D01*
X482950Y346417D01*
X482985Y346242D01*
X483084Y346094D01*
X483153Y345929D01*
X483279Y345803D01*
X483378Y345654D01*
X502654Y326378D01*
X503242Y325985D01*
X503936Y325847D01*
X733342D01*
X733430Y325865D01*
X733520Y325856D01*
X733775Y325933D01*
X734036Y325985D01*
X734110Y326035D01*
X734197Y326061D01*
X734402Y326230D01*
X734624Y326378D01*
X734674Y326453D01*
X734743Y326510D01*
X734869Y326745D01*
X735017Y326966D01*
X735594Y327946D01*
X737097D01*
X737675Y326966D01*
X737823Y326745D01*
X737949Y326510D01*
X738018Y326453D01*
X738068Y326378D01*
X738290Y326230D01*
X738495Y326061D01*
X738581Y326035D01*
X738656Y325985D01*
X738917Y325933D01*
X739172Y325856D01*
X739262Y325865D01*
X739350Y325847D01*
X764251D01*
Y192313D01*
X707933D01*
Y250995D01*
X707915Y251083D01*
X707924Y251173D01*
X707847Y251428D01*
X707795Y251689D01*
X707745Y251764D01*
X707719Y251850D01*
X707550Y252056D01*
X707402Y252277D01*
X707327Y252327D01*
X707270Y252397D01*
X706288Y253202D01*
X706209Y253245D01*
X706145Y253308D01*
X705899Y253410D01*
X705665Y253536D01*
X705575Y253545D01*
X705492Y253579D01*
X705226D01*
X704961Y253605D01*
X704875Y253579D01*
X704785D01*
X704679Y253558D01*
X703912Y253710D01*
X703262Y254145D01*
X702828Y254795D01*
X702663Y255624D01*
X702595Y255789D01*
X702560Y255964D01*
X702460Y256112D01*
X702392Y256277D01*
X702266Y256403D01*
X702167Y256552D01*
X702018Y256651D01*
X701892Y256777D01*
X701727Y256846D01*
X701579Y256945D01*
X701404Y256980D01*
X701239Y257048D01*
X701060D01*
X700885Y257083D01*
X669975D01*
X669281Y256945D01*
X668693Y256552D01*
X668300Y255964D01*
X668162Y255270D01*
Y192313D01*
X630333D01*
X630158Y192278D01*
X629979D01*
X629814Y192210D01*
X629639Y192175D01*
X629491Y192076D01*
X629326Y192007D01*
X629200Y191881D01*
X629051Y191782D01*
X628952Y191633D01*
X628826Y191507D01*
X628757Y191342D01*
X628658Y191194D01*
X628652Y191161D01*
X628167Y190435D01*
X627517Y190001D01*
X626750Y189848D01*
X625983Y190001D01*
X625333Y190435D01*
X624848Y191161D01*
X624842Y191194D01*
X624743Y191342D01*
X624674Y191507D01*
X624548Y191633D01*
X624449Y191782D01*
X624300Y191881D01*
X624174Y192007D01*
X624009Y192076D01*
X623861Y192175D01*
X623686Y192210D01*
X623521Y192278D01*
X623342D01*
X623167Y192313D01*
X580644D01*
X579950Y192175D01*
X579362Y191782D01*
X542527Y154946D01*
X542480Y154877D01*
X541612Y155456D01*
X540175Y155742D01*
X374664D01*
X373226Y155456D01*
X372008Y154642D01*
X371345Y153979D01*
X371202Y153920D01*
X370140Y152857D01*
X369564Y151469D01*
Y149966D01*
X369682Y149681D01*
X368977Y148625D01*
X184263D01*
X184001Y148573D01*
X183736Y148547D01*
X183657Y148504D01*
X183569Y148487D01*
X183347Y148339D01*
X183113Y148213D01*
X183056Y148144D01*
X182981Y148094D01*
X182833Y147872D01*
X182664Y147667D01*
X181985Y146397D01*
X181908Y146142D01*
X181806Y145896D01*
Y145806D01*
X181780Y145720D01*
X181806Y145455D01*
Y145188D01*
X181840Y145105D01*
X181849Y145016D01*
X181975Y144781D01*
X182003Y144712D01*
X182175Y143849D01*
X182022Y143082D01*
X181588Y142432D01*
X180938Y141998D01*
X180171Y141846D01*
X179404Y141998D01*
X178754Y142432D01*
X178320Y143082D01*
X178167Y143849D01*
X178339Y144712D01*
X178368Y144781D01*
X178493Y145016D01*
X178502Y145105D01*
X178536Y145188D01*
Y145455D01*
X178563Y145720D01*
X178536Y145806D01*
Y145896D01*
X178435Y146142D01*
X178357Y146397D01*
X177678Y147667D01*
X177509Y147872D01*
X177362Y148094D01*
X177287Y148144D01*
X177230Y148213D01*
X176995Y148339D01*
X176773Y148487D01*
X176685Y148504D01*
X176606Y148547D01*
X176341Y148573D01*
X176080Y148625D01*
X109209D01*
X109115Y148719D01*
X108966Y148818D01*
X108840Y148944D01*
X108675Y149013D01*
X108527Y149112D01*
X108351Y149147D01*
X108187Y149215D01*
X108008D01*
X107833Y149250D01*
X107658Y149215D01*
X107479D01*
X107405Y149200D01*
X106638Y149353D01*
X105988Y149787D01*
X105554Y150437D01*
X105401Y151204D01*
X105416Y151278D01*
Y151457D01*
X105451Y151632D01*
X105416Y151807D01*
Y151985D01*
X105348Y152150D01*
X105313Y152325D01*
X105214Y152474D01*
X105146Y152639D01*
X105019Y152765D01*
X104920Y152914D01*
X82077Y175757D01*
Y304355D01*
X82042Y304531D01*
Y304709D01*
X81974Y304874D01*
X81939Y305049D01*
X81840Y305198D01*
X81771Y305362D01*
X81645Y305489D01*
X81546Y305637D01*
X81397Y305736D01*
X81385Y305749D01*
X80905Y306467D01*
X80752Y307234D01*
X80905Y308001D01*
X81385Y308719D01*
X81397Y308732D01*
X81546Y308831D01*
X81645Y308979D01*
X81771Y309105D01*
X81840Y309270D01*
X81939Y309419D01*
X81974Y309594D01*
X82042Y309759D01*
Y309938D01*
X82077Y310113D01*
Y466291D01*
X82042Y466466D01*
Y466645D01*
X81974Y466810D01*
X81939Y466985D01*
X81840Y467134D01*
X81771Y467299D01*
X81645Y467425D01*
X81546Y467573D01*
X81438Y467645D01*
X80953Y468371D01*
X80800Y469138D01*
X80953Y469905D01*
X81438Y470630D01*
X81546Y470703D01*
X81645Y470851D01*
X81771Y470978D01*
X81840Y471142D01*
X83040Y471470D01*
X83099Y471470D01*
X83237Y471449D01*
X92110Y462576D01*
Y452739D01*
X91054Y452033D01*
X90921Y452088D01*
X89418D01*
X88030Y451513D01*
X86967Y450450D01*
X86392Y449062D01*
Y447559D01*
X86967Y446170D01*
X88030Y445107D01*
X89418Y444532D01*
X90921D01*
X91054Y444587D01*
X92110Y443881D01*
Y316262D01*
X92347Y315073D01*
X93020Y314065D01*
X117169Y289916D01*
X118178Y289242D01*
X119367Y289005D01*
X253910D01*
X254005Y288910D01*
X255393Y288335D01*
X256896D01*
X258285Y288910D01*
X259348Y289973D01*
X259923Y291362D01*
Y292865D01*
X259348Y294253D01*
X258285Y295316D01*
X256896Y295891D01*
X255393D01*
X254005Y295316D01*
X253910Y295221D01*
X120654D01*
X98326Y317549D01*
Y463863D01*
X98089Y465052D01*
X97416Y466060D01*
X85658Y477818D01*
Y572929D01*
X85674Y572952D01*
X86928Y573673D01*
X87735Y573338D01*
X89238D01*
X90627Y573914D01*
X91689Y574976D01*
X92264Y576365D01*
Y577868D01*
X91689Y579256D01*
X90627Y580319D01*
X89238Y580894D01*
X87735D01*
X86347Y580319D01*
X85284Y579256D01*
X84708Y577868D01*
Y577863D01*
X83439Y577337D01*
X80738Y580038D01*
X80775Y581001D01*
X80783Y581036D01*
X80871Y581240D01*
X81061Y581510D01*
X81179Y581589D01*
X81414Y581714D01*
X81471Y581784D01*
X81546Y581834D01*
X81694Y582055D01*
X81863Y582261D01*
X81889Y582347D01*
X81939Y582422D01*
X81991Y582683D01*
X82068Y582938D01*
X82059Y583027D01*
X82077Y583116D01*
Y639583D01*
X98431Y655938D01*
X100478Y653891D01*
Y641002D01*
X100519Y640795D01*
Y640187D01*
X100752Y639625D01*
X100764Y639565D01*
X100797Y639515D01*
X101094Y638798D01*
X102157Y637735D01*
X103546Y637160D01*
X105049D01*
X106437Y637735D01*
X107500Y638798D01*
X108075Y640187D01*
Y641690D01*
X107988Y641899D01*
Y654421D01*
X108075Y654631D01*
Y656134D01*
X107500Y657522D01*
X106437Y658585D01*
X106382Y658608D01*
X103742Y661248D01*
X110806Y668312D01*
X111979Y667826D01*
Y610362D01*
X112117Y609668D01*
X112510Y609080D01*
X113098Y608687D01*
X113792Y608549D01*
X121777D01*
Y607792D01*
X122353Y606404D01*
X123415Y605341D01*
X124804Y604766D01*
X126307D01*
X126345Y604781D01*
X127377Y603979D01*
X127412Y603849D01*
X126796Y602927D01*
X126667Y602275D01*
X124455Y600063D01*
X123803Y599934D01*
X122795Y599260D01*
X102958Y579424D01*
X102285Y578416D01*
X102048Y577226D01*
Y544685D01*
X101953Y544590D01*
X101378Y543202D01*
Y541699D01*
X101953Y540310D01*
X103016Y539247D01*
X104404Y538672D01*
X105907D01*
X107296Y539247D01*
X108359Y540310D01*
X108934Y541699D01*
Y543202D01*
X108359Y544590D01*
X108264Y544685D01*
Y575939D01*
X126386Y594062D01*
X127038Y594191D01*
X128046Y594865D01*
X130767Y597586D01*
X132265Y597288D01*
X132316Y597165D01*
X133379Y596103D01*
X134768Y595528D01*
X135947D01*
X136514Y594572D01*
X136569Y594354D01*
X112578Y570363D01*
X111905Y569355D01*
X111668Y568166D01*
Y459264D01*
X111905Y458075D01*
X112578Y457067D01*
X139848Y429797D01*
X140856Y429123D01*
X142045Y428887D01*
X196292D01*
X196545Y427617D01*
X195980Y427383D01*
X194917Y426320D01*
X194342Y424931D01*
Y423428D01*
X194917Y422040D01*
X195980Y420977D01*
X197369Y420402D01*
X198871D01*
X200260Y420977D01*
X201323Y422040D01*
X201898Y423428D01*
Y424931D01*
X201323Y426320D01*
X200260Y427383D01*
X199695Y427617D01*
X199948Y428887D01*
X238470D01*
X238565Y428792D01*
X239954Y428217D01*
X241457D01*
X242845Y428792D01*
X243908Y429855D01*
X244483Y431243D01*
Y432746D01*
X244428Y432879D01*
X245134Y433935D01*
X250956D01*
X252027Y432864D01*
Y432729D01*
X252602Y431341D01*
X253665Y430278D01*
X255053Y429703D01*
X256556D01*
X257945Y430278D01*
X259008Y431341D01*
X259583Y432729D01*
Y434232D01*
X259008Y435621D01*
X257945Y436684D01*
X256556Y437259D01*
X256422D01*
X254440Y439240D01*
X253432Y439914D01*
X252243Y440150D01*
X240834D01*
X239985Y441420D01*
X240203Y441945D01*
Y443448D01*
X239786Y444455D01*
X240399Y445725D01*
X253617D01*
X266479Y432864D01*
Y432729D01*
X267054Y431341D01*
X268116Y430278D01*
X269505Y429703D01*
X271008D01*
X272397Y430278D01*
X273459Y431341D01*
X274035Y432729D01*
Y434232D01*
X273459Y435621D01*
X272397Y436684D01*
X271008Y437259D01*
X270874D01*
X257102Y451030D01*
X256094Y451704D01*
X254905Y451940D01*
X196854D01*
X192809Y455986D01*
Y491934D01*
X193865Y492640D01*
X193998Y492585D01*
X195501D01*
X196889Y493160D01*
X197952Y494223D01*
X198527Y495611D01*
Y496069D01*
X305620Y603161D01*
X306686Y603603D01*
X307749Y604666D01*
X308324Y606054D01*
Y607557D01*
X308987Y608549D01*
X331992D01*
Y607412D01*
X332567Y606023D01*
X333629Y604961D01*
X335018Y604385D01*
X336521D01*
X337910Y604961D01*
X338972Y606023D01*
X339548Y607412D01*
Y608549D01*
X342617D01*
X343102Y607376D01*
X340555Y604828D01*
X339882Y603820D01*
X339645Y602631D01*
Y546616D01*
X339882Y545426D01*
X340555Y544418D01*
X342761Y542212D01*
Y542077D01*
X343337Y540689D01*
X344399Y539626D01*
X345788Y539051D01*
X347291D01*
X348680Y539626D01*
X348974Y539920D01*
X350244Y539394D01*
Y503639D01*
X283863Y437259D01*
X283729D01*
X282340Y436684D01*
X281277Y435621D01*
X280702Y434232D01*
Y432729D01*
X281277Y431341D01*
X282340Y430278D01*
X283729Y429703D01*
X285231D01*
X286620Y430278D01*
X287683Y431341D01*
X288258Y432729D01*
Y432864D01*
X355549Y500155D01*
X356223Y501163D01*
X356459Y502352D01*
Y544369D01*
X357729Y544494D01*
X357809Y544094D01*
X358483Y543086D01*
X359356Y542212D01*
Y542077D01*
X359931Y540689D01*
X360994Y539626D01*
X362383Y539051D01*
X363886D01*
X365274Y539626D01*
X366337Y540689D01*
X366912Y542077D01*
Y543580D01*
X366337Y544969D01*
X365274Y546032D01*
X363886Y546607D01*
X363788D01*
Y571638D01*
X364844Y572344D01*
X364977Y572289D01*
X366479D01*
X367868Y572864D01*
X368931Y573927D01*
X369506Y575315D01*
Y576818D01*
X368931Y578207D01*
X367868Y579270D01*
X366479Y579845D01*
X364977D01*
X364844Y579790D01*
X363788Y580495D01*
Y590795D01*
X376025Y603032D01*
X376160D01*
X377548Y603607D01*
X378611Y604670D01*
X379186Y606059D01*
Y607562D01*
X379846Y608549D01*
X401107D01*
X401914Y608215D01*
X403417D01*
X404224Y608549D01*
X404876D01*
X405570Y608687D01*
X406158Y609080D01*
X406551Y609668D01*
X406689Y610362D01*
Y627380D01*
X406551Y628074D01*
X406158Y628662D01*
X405570Y629055D01*
X404876Y629193D01*
X388195D01*
X388019Y629158D01*
X387841D01*
X387676Y629090D01*
X387501Y629055D01*
X387352Y628956D01*
X387187Y628887D01*
X387061Y628761D01*
X386913Y628662D01*
X386814Y628513D01*
X386687Y628387D01*
X386375Y627920D01*
X385725Y627486D01*
X384958Y627333D01*
X384192Y627486D01*
X383542Y627920D01*
X383230Y628387D01*
X383103Y628513D01*
X383004Y628662D01*
X382856Y628761D01*
X382729Y628887D01*
X382565Y628956D01*
X382416Y629055D01*
X382241Y629090D01*
X382076Y629158D01*
X381897D01*
X381722Y629193D01*
X359795D01*
X359620Y629158D01*
X359441D01*
X359276Y629090D01*
X359101Y629055D01*
X358952Y628956D01*
X358787Y628887D01*
X358661Y628761D01*
X358513Y628662D01*
X358414Y628513D01*
X358287Y628387D01*
X357952Y627885D01*
X357302Y627451D01*
X356535Y627299D01*
X355768Y627451D01*
X355118Y627885D01*
X354783Y628387D01*
X354657Y628513D01*
X354558Y628662D01*
X354409Y628761D01*
X354283Y628887D01*
X354118Y628956D01*
X353969Y629055D01*
X353795Y629090D01*
X353629Y629158D01*
X353451D01*
X353276Y629193D01*
X317335D01*
X317160Y629158D01*
X316982D01*
X316817Y629090D01*
X316642Y629055D01*
X316493Y628956D01*
X316328Y628887D01*
X316202Y628761D01*
X316053Y628662D01*
X315954Y628513D01*
X315828Y628387D01*
X315513Y627916D01*
X314863Y627482D01*
X314096Y627329D01*
X313329Y627482D01*
X312679Y627916D01*
X312365Y628387D01*
X312238Y628513D01*
X312139Y628662D01*
X311991Y628761D01*
X311864Y628887D01*
X311699Y628956D01*
X311551Y629055D01*
X311376Y629090D01*
X311211Y629158D01*
X311032D01*
X310857Y629193D01*
X309654D01*
Y630172D01*
X309079Y631560D01*
X308016Y632623D01*
X306628Y633198D01*
X305125D01*
X303736Y632623D01*
X302674Y631560D01*
X302099Y630172D01*
Y629193D01*
X288935D01*
X288760Y629158D01*
X288582D01*
X288417Y629090D01*
X288242Y629055D01*
X288093Y628956D01*
X287928Y628887D01*
X287802Y628761D01*
X287653Y628662D01*
X287554Y628513D01*
X287428Y628387D01*
X287090Y627881D01*
X286440Y627447D01*
X285673Y627294D01*
X284906Y627447D01*
X284256Y627881D01*
X283918Y628387D01*
X283792Y628513D01*
X283692Y628662D01*
X283544Y628761D01*
X283418Y628887D01*
X283253Y628956D01*
X283104Y629055D01*
X282929Y629090D01*
X282764Y629158D01*
X282586D01*
X282411Y629193D01*
X246480D01*
X246304Y629158D01*
X246126D01*
X245961Y629090D01*
X245786Y629055D01*
X245637Y628956D01*
X245472Y628887D01*
X245346Y628761D01*
X245198Y628662D01*
X245098Y628513D01*
X244972Y628387D01*
X244657Y627916D01*
X244007Y627482D01*
X243241Y627329D01*
X242474Y627482D01*
X241824Y627916D01*
X241509Y628387D01*
X241383Y628513D01*
X241283Y628662D01*
X241135Y628761D01*
X241009Y628887D01*
X240844Y628956D01*
X240695Y629055D01*
X240520Y629090D01*
X240355Y629158D01*
X240177D01*
X240002Y629193D01*
X237980D01*
Y630084D01*
X237405Y631473D01*
X236342Y632536D01*
X234954Y633111D01*
X233451D01*
X232062Y632536D01*
X230999Y631473D01*
X230424Y630084D01*
Y629193D01*
X218080D01*
X217904Y629158D01*
X217726D01*
X217561Y629090D01*
X217386Y629055D01*
X217237Y628956D01*
X217073Y628887D01*
X216946Y628761D01*
X216798Y628662D01*
X216699Y628513D01*
X216572Y628387D01*
X216234Y627881D01*
X215584Y627447D01*
X214817Y627294D01*
X214051Y627447D01*
X213400Y627881D01*
X213062Y628387D01*
X212936Y628513D01*
X212837Y628662D01*
X212688Y628761D01*
X212562Y628887D01*
X212397Y628956D01*
X212249Y629055D01*
X212074Y629090D01*
X211909Y629158D01*
X211730D01*
X211555Y629193D01*
X175705D01*
X175530Y629158D01*
X175351D01*
X175186Y629090D01*
X175011Y629055D01*
X174863Y628956D01*
X174698Y628887D01*
X174572Y628761D01*
X174423Y628662D01*
X174324Y628513D01*
X174198Y628387D01*
X173883Y627916D01*
X173233Y627482D01*
X172466Y627329D01*
X171699Y627482D01*
X171049Y627916D01*
X170734Y628387D01*
X170608Y628513D01*
X170509Y628662D01*
X170360Y628761D01*
X170234Y628887D01*
X170069Y628956D01*
X169921Y629055D01*
X169746Y629090D01*
X169581Y629158D01*
X169402D01*
X169227Y629193D01*
X167206D01*
Y630084D01*
X166630Y631473D01*
X165568Y632536D01*
X164179Y633111D01*
X162676D01*
X161287Y632536D01*
X160225Y631473D01*
X159649Y630084D01*
Y629193D01*
X152105D01*
X152028Y629212D01*
X150911Y629759D01*
Y671143D01*
X150773Y671836D01*
X150380Y672424D01*
X147152Y675652D01*
X146564Y676045D01*
X145871Y676183D01*
X145386D01*
X144663Y676482D01*
X143160D01*
X142437Y676183D01*
X120072D01*
X119161Y677418D01*
Y700278D01*
X119023Y700972D01*
X118630Y701560D01*
X118630Y701560D01*
X115582Y704608D01*
X114994Y705001D01*
X114300Y705139D01*
X102362D01*
X101668Y705001D01*
X101080Y704608D01*
X101080Y704608D01*
X97778Y701306D01*
X97385Y700718D01*
X97247Y700024D01*
Y684011D01*
X43797Y630561D01*
X43681Y630387D01*
X43539Y630235D01*
X43487Y630096D01*
X43404Y629973D01*
X43364Y629768D01*
X43290Y629573D01*
X43295Y629425D01*
X43266Y629279D01*
X43307Y629074D01*
X43314Y628866D01*
X43632Y627508D01*
X43766Y627213D01*
X43890Y626914D01*
X43912Y626892D01*
X43924Y626864D01*
X44161Y626643D01*
X44390Y626414D01*
X44418Y626402D01*
X44441Y626381D01*
X44744Y626267D01*
X45043Y626143D01*
X45450Y626062D01*
X46100Y625628D01*
X46534Y624978D01*
X46686Y624211D01*
X46534Y623444D01*
X46100Y622794D01*
X45450Y622360D01*
X44350Y622141D01*
X44185Y622073D01*
X44010Y622038D01*
X43862Y621939D01*
X43697Y621870D01*
X43571Y621744D01*
X43422Y621645D01*
X43323Y621497D01*
X43197Y621370D01*
X43128Y621205D01*
X43029Y621057D01*
X42994Y620882D01*
X42926Y620717D01*
Y620538D01*
X42891Y620363D01*
Y614343D01*
X42926Y614168D01*
Y613989D01*
X42994Y613824D01*
X43029Y613649D01*
X43128Y613501D01*
X43197Y613336D01*
X43323Y613209D01*
X43422Y613061D01*
X43571Y612962D01*
X43697Y612835D01*
X43862Y612767D01*
X44010Y612668D01*
X44185Y612633D01*
X44350Y612565D01*
X45450Y612346D01*
X46100Y611912D01*
X46534Y611262D01*
X46686Y610495D01*
X46534Y609728D01*
X46100Y609078D01*
X45450Y608644D01*
X44350Y608425D01*
X44185Y608357D01*
X44010Y608322D01*
X43862Y608223D01*
X43697Y608154D01*
X43571Y608028D01*
X43422Y607929D01*
X43323Y607781D01*
X43197Y607654D01*
X43128Y607489D01*
X43029Y607341D01*
X42994Y607166D01*
X42926Y607001D01*
Y606822D01*
X42891Y606647D01*
Y435581D01*
X41621Y435013D01*
X40537Y435462D01*
X39034D01*
X37645Y434887D01*
X36583Y433824D01*
X36007Y432435D01*
Y430933D01*
X36583Y429544D01*
X37645Y428481D01*
X39034Y427906D01*
X40537D01*
X41621Y428355D01*
X42891Y427788D01*
Y418242D01*
X41621Y417716D01*
X41510Y417827D01*
X40121Y418402D01*
X38619D01*
X37230Y417827D01*
X36167Y416764D01*
X35592Y415376D01*
Y413873D01*
X36167Y412484D01*
X37230Y411422D01*
X38619Y410846D01*
X40121D01*
X41510Y411422D01*
X41621Y411533D01*
X42891Y411007D01*
X42891Y143510D01*
X43029Y142816D01*
X43422Y142228D01*
X66671Y118979D01*
X66820Y118880D01*
X66946Y118754D01*
X67111Y118685D01*
X67259Y118586D01*
X67434Y118551D01*
X67599Y118483D01*
X67778D01*
X67953Y118448D01*
X68128Y118483D01*
X68307D01*
X68472Y118551D01*
X68647Y118586D01*
X68795Y118685D01*
X68960Y118754D01*
X69335Y119004D01*
X70101Y119156D01*
X70868Y119004D01*
X71518Y118569D01*
X71953Y117919D01*
X72105Y117153D01*
X71953Y116386D01*
X71702Y116011D01*
X71634Y115847D01*
X71535Y115698D01*
X71500Y115523D01*
X71432Y115358D01*
Y115179D01*
X71397Y115004D01*
X71432Y114829D01*
Y114651D01*
X71500Y114486D01*
X71535Y114311D01*
X71634Y114162D01*
X71702Y113997D01*
X71829Y113871D01*
X71928Y113722D01*
X76633Y109018D01*
X77221Y108625D01*
X77915Y108487D01*
X85173D01*
Y18219D01*
X85409Y17029D01*
X86083Y16021D01*
X87571Y14533D01*
X88579Y13859D01*
X89768Y13623D01*
X97750D01*
X98940Y13859D01*
X99948Y14533D01*
X101436Y16021D01*
X102109Y17029D01*
X102346Y18219D01*
Y20166D01*
X102362Y20182D01*
X102937Y21570D01*
Y23073D01*
X102362Y24462D01*
X101299Y25524D01*
X99910Y26100D01*
X98407D01*
X97019Y25524D01*
X95956Y24462D01*
X95381Y23073D01*
Y21570D01*
X95572Y21108D01*
X94724Y19838D01*
X91388D01*
Y108487D01*
X110016D01*
X110865Y107217D01*
X110776Y107001D01*
Y105498D01*
X111351Y104110D01*
X112414Y103047D01*
X113802Y102472D01*
X115306D01*
X116694Y103047D01*
X117757Y104110D01*
X118332Y105498D01*
Y107001D01*
X118243Y107217D01*
X119092Y108487D01*
X253418D01*
X254203Y107217D01*
X253908Y106504D01*
Y105001D01*
X254483Y103612D01*
X255546Y102550D01*
X256935Y101974D01*
X258438D01*
X259826Y102550D01*
X260889Y103612D01*
X261464Y105001D01*
Y106504D01*
X261169Y107217D01*
X261502Y107984D01*
X261831Y108435D01*
X261919Y108521D01*
X262073D01*
X262238Y108590D01*
X262413Y108625D01*
X262561Y108724D01*
X262726Y108792D01*
X262853Y108918D01*
X263001Y109018D01*
X263100Y109166D01*
X263227Y109292D01*
X263295Y109457D01*
X263394Y109606D01*
X263429Y109781D01*
X263497Y109946D01*
X263567Y110297D01*
X264002Y110947D01*
X264652Y111382D01*
X265418Y111534D01*
X266185Y111382D01*
X266835Y110947D01*
X267269Y110297D01*
X267339Y109946D01*
X267408Y109781D01*
X267442Y109606D01*
X267542Y109457D01*
X267610Y109292D01*
X267736Y109166D01*
X267836Y109018D01*
X267984Y108918D01*
X268110Y108792D01*
X268275Y108724D01*
X268424Y108625D01*
X268599Y108590D01*
X269050Y108046D01*
X269208Y107784D01*
X269243Y107687D01*
X269317Y107217D01*
X269058Y106592D01*
Y105089D01*
X269633Y103700D01*
X270696Y102638D01*
X272085Y102062D01*
X272506D01*
X273185Y100792D01*
X273170Y100770D01*
X273032Y100076D01*
Y91051D01*
X249203D01*
X247433Y90818D01*
X245784Y90135D01*
X244368Y89048D01*
X226115Y70794D01*
X225028Y69378D01*
X224628Y68413D01*
X224345Y67730D01*
X224112Y65960D01*
Y28450D01*
X224345Y26680D01*
X224628Y25997D01*
X225028Y25032D01*
X226115Y23616D01*
X241636Y8094D01*
X241150Y6921D01*
X51813D01*
Y16472D01*
X52639D01*
X57851Y17298D01*
X62870Y18928D01*
X67572Y21324D01*
X71842Y24426D01*
X75574Y28158D01*
X78676Y32427D01*
X81072Y37130D01*
X82703Y42149D01*
X83528Y47361D01*
Y52639D01*
X82703Y57851D01*
X81072Y62870D01*
X78676Y67572D01*
X75574Y71842D01*
X71842Y75574D01*
X67572Y78676D01*
X62870Y81072D01*
X57851Y82703D01*
X52639Y83528D01*
X47361D01*
X42149Y82703D01*
X37130Y81072D01*
X32427Y78676D01*
X28158Y75574D01*
X24426Y71842D01*
X21324Y67572D01*
X18928Y62870D01*
X17298Y57851D01*
X16472Y52639D01*
Y51813D01*
X6920D01*
X6920Y713918D01*
X6948Y714060D01*
Y798187D01*
X16472D01*
Y797361D01*
X17298Y792149D01*
X18928Y787130D01*
X21324Y782428D01*
X24426Y778158D01*
X28158Y774426D01*
X32427Y771324D01*
X37130Y768928D01*
X42149Y767298D01*
X47361Y766472D01*
X52639D01*
X57851Y767298D01*
X62870Y768928D01*
X67572Y771324D01*
X71842Y774426D01*
X75574Y778158D01*
X78676Y782428D01*
X81072Y787130D01*
X82703Y792149D01*
X83528Y797361D01*
Y802639D01*
X82703Y807851D01*
X81072Y812870D01*
X78676Y817572D01*
X75574Y821842D01*
X71842Y825574D01*
X67572Y828676D01*
X62870Y831072D01*
X57851Y832702D01*
X52639Y833528D01*
X51813D01*
Y843056D01*
X64411D01*
X64441Y843062D01*
X798187D01*
Y833528D01*
D02*
G37*
G36*
X149098Y671143D02*
Y629759D01*
X147828Y629634D01*
X147724Y630157D01*
X147602Y630772D01*
X146767Y632022D01*
X145517Y632857D01*
X144043Y633150D01*
X142569Y632857D01*
X141319Y632022D01*
X140484Y630772D01*
X140191Y629298D01*
X140484Y627824D01*
X141319Y626574D01*
X142569Y625739D01*
X144043Y625446D01*
X145517Y625739D01*
X146767Y626574D01*
X147602Y627824D01*
X147828Y628962D01*
X149098Y628837D01*
Y627380D01*
X160189D01*
X160704Y626609D01*
X161953Y625774D01*
X163428Y625481D01*
X164902Y625774D01*
X166151Y626609D01*
X166667Y627380D01*
X169227D01*
X169742Y626609D01*
X170992Y625774D01*
X172466Y625481D01*
X173940Y625774D01*
X175190Y626609D01*
X175705Y627380D01*
X211555D01*
X212094Y626574D01*
X213343Y625739D01*
X214817Y625446D01*
X216291Y625739D01*
X217541Y626574D01*
X218080Y627380D01*
X230963D01*
X231478Y626609D01*
X232728Y625774D01*
X234202Y625481D01*
X235676Y625774D01*
X236926Y626609D01*
X237441Y627380D01*
X240002D01*
X240517Y626609D01*
X241766Y625774D01*
X243241Y625481D01*
X244715Y625774D01*
X245964Y626609D01*
X246480Y627380D01*
X282411D01*
X282949Y626574D01*
X284199Y625739D01*
X285673Y625446D01*
X287147Y625739D01*
X288397Y626574D01*
X288935Y627380D01*
X302696D01*
X303153Y626697D01*
X304402Y625862D01*
X305877Y625568D01*
X307351Y625862D01*
X308600Y626697D01*
X309057Y627380D01*
X310857D01*
X311372Y626609D01*
X312622Y625774D01*
X314096Y625481D01*
X315570Y625774D01*
X316820Y626609D01*
X317335Y627380D01*
X353276D01*
X353811Y626578D01*
X355061Y625743D01*
X356535Y625450D01*
X358009Y625743D01*
X359259Y626578D01*
X359795Y627380D01*
X381722D01*
X382235Y626613D01*
X383484Y625778D01*
X384958Y625485D01*
X386433Y625778D01*
X387682Y626613D01*
X388195Y627380D01*
X404876D01*
Y610362D01*
X376893D01*
X376882Y610369D01*
X375408Y610662D01*
X373934Y610369D01*
X373923Y610362D01*
X367393D01*
X367383Y610369D01*
X365909Y610662D01*
X364434Y610369D01*
X364424Y610362D01*
X351659D01*
X351188Y611066D01*
X349938Y611901D01*
X348464Y612195D01*
X346990Y611901D01*
X345740Y611066D01*
X345270Y610362D01*
X338844D01*
X338493Y610887D01*
X337244Y611722D01*
X335770Y612015D01*
X334295Y611722D01*
X333046Y610887D01*
X332695Y610362D01*
X306024D01*
X306020Y610365D01*
X304546Y610658D01*
X303072Y610365D01*
X303068Y610362D01*
X296525D01*
X296520Y610365D01*
X295046Y610658D01*
X293572Y610365D01*
X293568Y610362D01*
X282117D01*
X281654Y611055D01*
X280404Y611890D01*
X278930Y612183D01*
X277456Y611890D01*
X276206Y611055D01*
X275744Y610362D01*
X272061D01*
X271710Y610887D01*
X270460Y611722D01*
X268986Y612015D01*
X267512Y611722D01*
X266262Y610887D01*
X265911Y610362D01*
X235169D01*
X235165Y610365D01*
X233690Y610658D01*
X232216Y610365D01*
X232212Y610362D01*
X225669D01*
X225665Y610365D01*
X224191Y610658D01*
X222717Y610365D01*
X222712Y610362D01*
X210077D01*
X209726Y610887D01*
X208476Y611722D01*
X207002Y612015D01*
X205528Y611722D01*
X204278Y610887D01*
X203927Y610362D01*
X201400D01*
X201365Y610536D01*
X200530Y611785D01*
X199280Y612620D01*
X197806Y612913D01*
X196332Y612620D01*
X195083Y611785D01*
X194248Y610536D01*
X194213Y610362D01*
X164394D01*
X164390Y610365D01*
X162916Y610658D01*
X161442Y610365D01*
X161437Y610362D01*
X154894D01*
X154890Y610365D01*
X153416Y610658D01*
X151942Y610365D01*
X151938Y610362D01*
X139168D01*
X138817Y610887D01*
X137567Y611722D01*
X136093Y612015D01*
X134619Y611722D01*
X133369Y610887D01*
X133018Y610362D01*
X128884D01*
X128279Y611267D01*
X127030Y612102D01*
X125555Y612396D01*
X124081Y612102D01*
X122832Y611267D01*
X122227Y610362D01*
X113792D01*
Y670818D01*
X117344Y674370D01*
X145871D01*
X149098Y671143D01*
D02*
G37*
G36*
X348444Y606343D02*
X348401Y606334D01*
X348345Y606310D01*
X348276Y606268D01*
X348193Y606209D01*
X347989Y606041D01*
X347731Y605806D01*
X347421Y605504D01*
X345625Y607299D01*
X345785Y607461D01*
X346390Y608154D01*
X346431Y608223D01*
X346456Y608279D01*
X346464Y608322D01*
X348444Y606343D01*
D02*
G37*
G36*
X278910Y606331D02*
X278867Y606323D01*
X278811Y606298D01*
X278742Y606256D01*
X278659Y606198D01*
X278455Y606030D01*
X278197Y605794D01*
X277887Y605492D01*
X276091Y607288D01*
X276251Y607449D01*
X276856Y608142D01*
X276897Y608212D01*
X276922Y608268D01*
X276930Y608311D01*
X278910Y606331D01*
D02*
G37*
G36*
X206982Y606164D02*
X206939Y606156D01*
X206883Y606131D01*
X206813Y606089D01*
X206731Y606030D01*
X206526Y605862D01*
X206269Y605627D01*
X205959Y605325D01*
X204163Y607121D01*
X204323Y607282D01*
X204927Y607975D01*
X204969Y608044D01*
X204994Y608101D01*
X205002Y608144D01*
X206982Y606164D01*
D02*
G37*
G36*
X136073D02*
X136030Y606156D01*
X135974Y606131D01*
X135905Y606089D01*
X135822Y606030D01*
X135618Y605862D01*
X135360Y605627D01*
X135050Y605325D01*
X133254Y607121D01*
X133414Y607282D01*
X134018Y607975D01*
X134060Y608044D01*
X134085Y608101D01*
X134093Y608144D01*
X136073Y606164D01*
D02*
G37*
G36*
X375388Y604810D02*
X375345Y604802D01*
X375289Y604777D01*
X375220Y604736D01*
X375137Y604677D01*
X374933Y604509D01*
X374675Y604274D01*
X374365Y603971D01*
X372569Y605767D01*
X372729Y605929D01*
X373334Y606622D01*
X373375Y606691D01*
X373400Y606747D01*
X373408Y606790D01*
X375388Y604810D01*
D02*
G37*
G36*
X365888D02*
X365845Y604802D01*
X365789Y604777D01*
X365720Y604736D01*
X365637Y604677D01*
X365433Y604509D01*
X365176Y604274D01*
X364865Y603971D01*
X363069Y605767D01*
X363229Y605929D01*
X363834Y606622D01*
X363876Y606691D01*
X363900Y606747D01*
X363909Y606790D01*
X365888Y604810D01*
D02*
G37*
G36*
X295026Y604806D02*
X294983Y604798D01*
X294927Y604773D01*
X294858Y604731D01*
X294775Y604673D01*
X294571Y604505D01*
X294313Y604270D01*
X294003Y603967D01*
X292207Y605763D01*
X292367Y605925D01*
X292972Y606618D01*
X293013Y606687D01*
X293038Y606743D01*
X293046Y606786D01*
X295026Y604806D01*
D02*
G37*
G36*
X233670D02*
X233627Y604798D01*
X233571Y604773D01*
X233502Y604731D01*
X233419Y604673D01*
X233215Y604505D01*
X232957Y604270D01*
X232647Y603967D01*
X230851Y605763D01*
X231011Y605925D01*
X231616Y606618D01*
X231658Y606687D01*
X231682Y606743D01*
X231691Y606786D01*
X233670Y604806D01*
D02*
G37*
G36*
X224171D02*
X224128Y604798D01*
X224071Y604773D01*
X224002Y604731D01*
X223920Y604673D01*
X223715Y604505D01*
X223458Y604270D01*
X223148Y603967D01*
X221352Y605763D01*
X221511Y605925D01*
X222116Y606618D01*
X222158Y606687D01*
X222183Y606743D01*
X222191Y606786D01*
X224171Y604806D01*
D02*
G37*
G36*
X162896D02*
X162853Y604798D01*
X162797Y604773D01*
X162727Y604731D01*
X162645Y604673D01*
X162440Y604505D01*
X162183Y604270D01*
X161873Y603967D01*
X160077Y605763D01*
X160236Y605925D01*
X160841Y606618D01*
X160883Y606687D01*
X160908Y606743D01*
X160916Y606786D01*
X162896Y604806D01*
D02*
G37*
G36*
X153396D02*
X153353Y604798D01*
X153297Y604773D01*
X153228Y604731D01*
X153145Y604673D01*
X152940Y604505D01*
X152683Y604270D01*
X152373Y603967D01*
X150577Y605763D01*
X150737Y605925D01*
X151341Y606618D01*
X151383Y606687D01*
X151408Y606743D01*
X151416Y606786D01*
X153396Y604806D01*
D02*
G37*
G36*
X304755Y604817D02*
X304729Y604807D01*
X304689Y604780D01*
X304634Y604736D01*
X304477Y604598D01*
X303820Y603961D01*
X301754Y605487D01*
X301912Y605648D01*
X302374Y606173D01*
X302446Y606274D01*
X302501Y606363D01*
X302539Y606440D01*
X302559Y606505D01*
X302561Y606558D01*
X304755Y604817D01*
D02*
G37*
G36*
X265208Y607412D02*
X265783Y606023D01*
X266846Y604961D01*
X268235Y604385D01*
X268831D01*
X269509Y603116D01*
X269217Y602678D01*
X268981Y601489D01*
Y593416D01*
X262641Y587076D01*
X261396Y587324D01*
X261277Y587610D01*
X260214Y588673D01*
X258826Y589248D01*
X257323D01*
X255934Y588673D01*
X254872Y587610D01*
X254296Y586222D01*
Y584719D01*
X254872Y583330D01*
X255934Y582267D01*
X256220Y582149D01*
X256468Y580903D01*
X246039Y570474D01*
X244769Y571000D01*
Y571917D01*
X244194Y573306D01*
X243131Y574369D01*
X241743Y574944D01*
X240240D01*
X238851Y574369D01*
X237788Y573306D01*
X237213Y571917D01*
Y570414D01*
X237788Y569026D01*
X238851Y567963D01*
X240240Y567388D01*
X241157D01*
X241683Y566118D01*
X239259Y563694D01*
X196633D01*
X196147Y564867D01*
X234307Y603028D01*
X234442D01*
X235830Y603603D01*
X236893Y604666D01*
X237468Y606054D01*
Y607557D01*
X238131Y608549D01*
X265208D01*
Y607412D01*
D02*
G37*
G36*
X773430Y655126D02*
X801909Y626646D01*
Y605500D01*
X800701Y604693D01*
X799866Y603443D01*
X799572Y601969D01*
X799866Y600495D01*
X800701Y599245D01*
X801909Y598438D01*
Y178339D01*
X777240Y153670D01*
X772372D01*
X771886Y154843D01*
X773600Y156557D01*
X774396Y156715D01*
X775646Y157550D01*
X776481Y158800D01*
X776774Y160274D01*
X776481Y161748D01*
X775646Y162998D01*
X774396Y163833D01*
X772922Y164126D01*
X771448Y163833D01*
X770198Y162998D01*
X769363Y161748D01*
X769207Y160963D01*
X769146Y160893D01*
X762013Y153760D01*
X735000D01*
X734548Y153670D01*
X683367D01*
X682989Y154236D01*
X681739Y155071D01*
X680265Y155364D01*
X678791Y155071D01*
X677541Y154236D01*
X677163Y153670D01*
X599694D01*
X597369Y151345D01*
X596970Y151079D01*
X596704Y150680D01*
X585740Y139716D01*
Y127797D01*
X575310D01*
X574616Y127659D01*
X574028Y127266D01*
X573635Y126678D01*
X573497Y125984D01*
Y116143D01*
X573635Y115449D01*
X574028Y114861D01*
X574616Y114468D01*
X575310Y114330D01*
X585740D01*
Y33036D01*
X572461Y19757D01*
X320339D01*
X314781Y25840D01*
X315064Y27260D01*
X314771Y28734D01*
X314701Y28837D01*
X315199Y70475D01*
X316373Y70747D01*
X316472Y70727D01*
X317276Y69524D01*
X318526Y68689D01*
X320000Y68396D01*
X321474Y68689D01*
X322724Y69524D01*
X323559Y70774D01*
X323852Y72248D01*
X323559Y73722D01*
X322724Y74972D01*
X321474Y75807D01*
X320000Y76100D01*
X318526Y75807D01*
X317276Y74972D01*
X317170Y74813D01*
X315443Y74479D01*
X315249Y74612D01*
X315603Y104247D01*
X309550Y110299D01*
X269117D01*
X268977Y111004D01*
X268142Y112254D01*
X266892Y113089D01*
X265418Y113383D01*
X263944Y113089D01*
X262694Y112254D01*
X261859Y111004D01*
X261719Y110299D01*
X77915D01*
X73210Y115004D01*
X73660Y115679D01*
X73953Y117153D01*
X73660Y118627D01*
X72825Y119876D01*
X71575Y120711D01*
X70101Y121005D01*
X68627Y120711D01*
X67953Y120261D01*
X44704Y143510D01*
X44704Y606647D01*
X46157Y606936D01*
X47407Y607771D01*
X48242Y609021D01*
X48535Y610495D01*
X48242Y611969D01*
X47407Y613219D01*
X46157Y614054D01*
X44704Y614343D01*
Y620363D01*
X46157Y620652D01*
X47407Y621487D01*
X48242Y622737D01*
X48535Y624211D01*
X48242Y625685D01*
X47407Y626935D01*
X46157Y627770D01*
X45397Y627921D01*
X45079Y629279D01*
X99060Y683260D01*
Y700024D01*
X102362Y703326D01*
X114300D01*
X117348Y700278D01*
Y677418D01*
X80264Y640334D01*
Y583116D01*
X78994Y582730D01*
X78785Y583043D01*
X77535Y583878D01*
X76061Y584171D01*
X74587Y583878D01*
X73337Y583043D01*
X72502Y581793D01*
X72209Y580319D01*
X72502Y578845D01*
X73337Y577595D01*
X74587Y576760D01*
X75372Y576604D01*
X75442Y576543D01*
X79442Y572543D01*
Y476531D01*
X79679Y475342D01*
X80264Y474466D01*
Y471985D01*
X80080Y471862D01*
X79245Y470612D01*
X78952Y469138D01*
X79245Y467664D01*
X80080Y466414D01*
X80264Y466291D01*
Y310113D01*
X80032Y309958D01*
X79197Y308708D01*
X78904Y307234D01*
X79197Y305760D01*
X80032Y304510D01*
X80264Y304355D01*
Y175006D01*
X103638Y151632D01*
X103553Y151204D01*
X103846Y149730D01*
X104681Y148480D01*
X105931Y147645D01*
X107405Y147352D01*
X107833Y147437D01*
X108458Y146812D01*
X176080D01*
X176758Y145542D01*
X176612Y145323D01*
X176319Y143849D01*
X176612Y142375D01*
X177447Y141125D01*
X178697Y140290D01*
X180171Y139997D01*
X181645Y140290D01*
X182895Y141125D01*
X183730Y142375D01*
X184023Y143849D01*
X183730Y145323D01*
X183584Y145542D01*
X184263Y146812D01*
X387096D01*
X409702Y124206D01*
Y58531D01*
X416418Y51816D01*
X416565D01*
Y49829D01*
X416468Y49342D01*
X416761Y47868D01*
X417596Y46618D01*
X418846Y45783D01*
X420320Y45490D01*
X421794Y45783D01*
X423044Y46618D01*
X423879Y47868D01*
X424172Y49342D01*
X424075Y49829D01*
Y51816D01*
X527304Y51816D01*
X533200Y57712D01*
Y137372D01*
X534276Y137586D01*
X535526Y138421D01*
X536361Y139671D01*
X536654Y141145D01*
X536361Y142619D01*
X535526Y143868D01*
X535451Y143919D01*
X535326Y145183D01*
X537650Y147506D01*
X539345D01*
X544160Y142692D01*
X544435Y142279D01*
X545685Y141444D01*
X547159Y141151D01*
X548633Y141444D01*
X549883Y142279D01*
X550718Y143529D01*
X551011Y145003D01*
X550718Y146477D01*
X549883Y147727D01*
X549470Y148003D01*
X543809Y153665D01*
X580644Y190500D01*
X623167D01*
X623191Y190378D01*
X624026Y189128D01*
X625276Y188293D01*
X626750Y188000D01*
X628224Y188293D01*
X629474Y189128D01*
X630309Y190378D01*
X630333Y190500D01*
X669975D01*
Y255270D01*
X700885D01*
X701120Y254088D01*
X701955Y252838D01*
X703205Y252003D01*
X704679Y251710D01*
X705138Y251801D01*
X706120Y250995D01*
Y190500D01*
X766064D01*
Y327660D01*
X739350D01*
X738965Y328930D01*
X739070Y329000D01*
X739905Y330250D01*
X740198Y331724D01*
X739905Y333198D01*
X739070Y334448D01*
X737820Y335283D01*
X736346Y335576D01*
X734872Y335283D01*
X733622Y334448D01*
X732787Y333198D01*
X732494Y331724D01*
X732787Y330250D01*
X733622Y329000D01*
X733727Y328930D01*
X733342Y327660D01*
X503936D01*
X484660Y346936D01*
X484676Y347014D01*
X484382Y348488D01*
X483547Y349738D01*
X482298Y350573D01*
X480824Y350866D01*
X480746Y350850D01*
X469646Y361950D01*
X455585D01*
X455373Y361992D01*
X455162Y361950D01*
X442562D01*
X442351Y361992D01*
X442140Y361950D01*
X441590D01*
X440694Y362850D01*
X440749Y375796D01*
X482724D01*
X505968Y352552D01*
X529870D01*
X532068Y350354D01*
X533076Y349681D01*
X534265Y349444D01*
X555486D01*
X556196Y348174D01*
X555965Y347014D01*
X556259Y345540D01*
X557094Y344290D01*
X558344Y343455D01*
X559818Y343162D01*
X561292Y343455D01*
X562541Y344290D01*
X563376Y345540D01*
X563670Y347014D01*
X563439Y348174D01*
X564149Y349444D01*
X569202D01*
X569912Y348174D01*
X569682Y347014D01*
X569975Y345540D01*
X570810Y344290D01*
X572060Y343455D01*
X573534Y343162D01*
X575008Y343455D01*
X576257Y344290D01*
X577092Y345540D01*
X577386Y347014D01*
X577155Y348174D01*
X577865Y349444D01*
X579639D01*
X580828Y349681D01*
X581836Y350354D01*
X584034Y352552D01*
X766064D01*
Y512225D01*
X766188Y512291D01*
X767334Y512767D01*
X768622Y512511D01*
X770096Y512804D01*
X771346Y513639D01*
X772181Y514889D01*
X772474Y516363D01*
X772181Y517837D01*
X771346Y519087D01*
X770096Y519922D01*
X768622Y520215D01*
X767334Y519959D01*
X766188Y520435D01*
X766064Y520501D01*
Y605536D01*
X741680Y629920D01*
Y652303D01*
X742880Y653104D01*
X743715Y654354D01*
X744008Y655828D01*
X743715Y657302D01*
X742880Y658552D01*
X741680Y659353D01*
Y728980D01*
X773430D01*
Y655126D01*
D02*
G37*
G36*
X78069Y580256D02*
X78094Y580200D01*
X78136Y580131D01*
X78195Y580048D01*
X78362Y579844D01*
X78598Y579586D01*
X78900Y579276D01*
X77104Y577480D01*
X76943Y577640D01*
X76250Y578245D01*
X76181Y578286D01*
X76124Y578311D01*
X76081Y578319D01*
X78061Y580299D01*
X78069Y580256D01*
D02*
G37*
G36*
X161082Y549041D02*
X160923Y548879D01*
X160318Y548186D01*
X160276Y548117D01*
X160251Y548061D01*
X160243Y548018D01*
X158263Y549998D01*
X158306Y550006D01*
X158363Y550031D01*
X158432Y550073D01*
X158514Y550131D01*
X158719Y550299D01*
X158976Y550534D01*
X159286Y550837D01*
X161082Y549041D01*
D02*
G37*
G36*
X347732Y595528D02*
X349235D01*
X350312Y594599D01*
X350244Y594253D01*
Y546264D01*
X348974Y545738D01*
X348680Y546032D01*
X347291Y546607D01*
X347156D01*
X345860Y547903D01*
Y594928D01*
X347130Y595777D01*
X347732Y595528D01*
D02*
G37*
G36*
X106427Y544968D02*
X106490Y544050D01*
X106509Y543972D01*
X106531Y543914D01*
X106556Y543878D01*
X103756D01*
X103781Y543914D01*
X103803Y543972D01*
X103822Y544050D01*
X103839Y544150D01*
X103865Y544414D01*
X103881Y544762D01*
X103886Y545195D01*
X106426D01*
X106427Y544968D01*
D02*
G37*
G36*
X362253Y545508D02*
X362946Y544904D01*
X363015Y544862D01*
X363071Y544837D01*
X363114Y544829D01*
X361134Y542849D01*
X361126Y542892D01*
X361101Y542948D01*
X361059Y543018D01*
X361001Y543100D01*
X360833Y543305D01*
X360598Y543562D01*
X360295Y543872D01*
X362091Y545668D01*
X362253Y545508D01*
D02*
G37*
G36*
X345658D02*
X346351Y544904D01*
X346420Y544862D01*
X346477Y544837D01*
X346520Y544829D01*
X344540Y542849D01*
X344532Y542892D01*
X344507Y542948D01*
X344465Y543018D01*
X344406Y543100D01*
X344238Y543305D01*
X344003Y543562D01*
X343700Y543872D01*
X345496Y545668D01*
X345658Y545508D01*
D02*
G37*
G36*
X179571Y543493D02*
X179412Y543331D01*
X178807Y542639D01*
X178765Y542569D01*
X178740Y542513D01*
X178732Y542470D01*
X176752Y544450D01*
X176795Y544458D01*
X176852Y544483D01*
X176921Y544525D01*
X177003Y544583D01*
X177208Y544751D01*
X177465Y544986D01*
X177775Y545289D01*
X179571Y543493D01*
D02*
G37*
G36*
X240054Y556208D02*
X187504Y503658D01*
X186830Y502650D01*
X186593Y501461D01*
Y454699D01*
X186830Y453509D01*
X187504Y452501D01*
X193370Y446635D01*
X194378Y445961D01*
X195567Y445725D01*
X232451D01*
X233064Y444455D01*
X232647Y443448D01*
Y441945D01*
X232865Y441420D01*
X232016Y440150D01*
X173080D01*
X156898Y456332D01*
Y492172D01*
X157954Y492878D01*
X158087Y492823D01*
X159590D01*
X160978Y493398D01*
X162041Y494461D01*
X162616Y495849D01*
Y497352D01*
X162041Y498741D01*
X161946Y498836D01*
Y530666D01*
X172153Y540874D01*
X173399Y540626D01*
X173530Y540310D01*
X174592Y539247D01*
X175981Y538672D01*
X177484D01*
X178873Y539247D01*
X179935Y540310D01*
X180510Y541699D01*
Y541833D01*
X196156Y557478D01*
X239528D01*
X240054Y556208D01*
D02*
G37*
G36*
X160109Y499119D02*
X160172Y498201D01*
X160191Y498123D01*
X160213Y498065D01*
X160238Y498029D01*
X157438D01*
X157463Y498065D01*
X157485Y498123D01*
X157504Y498201D01*
X157521Y498301D01*
X157547Y498564D01*
X157563Y498913D01*
X157568Y499346D01*
X160108D01*
X160109Y499119D01*
D02*
G37*
G36*
X124320D02*
X124383Y498201D01*
X124402Y498123D01*
X124424Y498065D01*
X124449Y498029D01*
X121649D01*
X121674Y498065D01*
X121696Y498123D01*
X121715Y498201D01*
X121732Y498301D01*
X121758Y498564D01*
X121774Y498913D01*
X121779Y499346D01*
X124319D01*
X124320Y499119D01*
D02*
G37*
G36*
X197542Y497682D02*
X197383Y497521D01*
X196921Y496996D01*
X196849Y496895D01*
X196794Y496806D01*
X196757Y496729D01*
X196737Y496664D01*
X196734Y496611D01*
X194541Y498352D01*
X194566Y498362D01*
X194606Y498389D01*
X194661Y498433D01*
X194818Y498570D01*
X195475Y499207D01*
X197542Y497682D01*
D02*
G37*
G36*
X194028Y608310D02*
X194604Y606921D01*
X195666Y605858D01*
X197055Y605283D01*
X198128D01*
X198832Y604258D01*
X198871Y604110D01*
X198837Y604059D01*
X198600Y602870D01*
Y592750D01*
X157626Y551776D01*
X157492D01*
X156103Y551201D01*
X155041Y550138D01*
X154466Y548749D01*
Y547246D01*
X155041Y545858D01*
X156103Y544795D01*
X156236Y544740D01*
X156484Y543494D01*
X151593Y538603D01*
X150919Y537595D01*
X150682Y536405D01*
Y455045D01*
X150919Y453856D01*
X151593Y452848D01*
X168165Y436276D01*
X167679Y435102D01*
X143333D01*
X117884Y460551D01*
Y566879D01*
X118821Y567816D01*
X119991Y567190D01*
X119942Y566939D01*
Y498836D01*
X119846Y498741D01*
X119271Y497352D01*
Y495849D01*
X119846Y494461D01*
X120909Y493398D01*
X122298Y492823D01*
X123801D01*
X125189Y493398D01*
X126252Y494461D01*
X126827Y495849D01*
Y497352D01*
X126252Y498741D01*
X126157Y498836D01*
Y565652D01*
X163533Y603028D01*
X163667D01*
X165056Y603603D01*
X166119Y604666D01*
X166694Y606054D01*
Y607557D01*
X167356Y608549D01*
X194028D01*
Y608310D01*
D02*
G37*
G36*
X621886Y462962D02*
X621864Y462905D01*
X621844Y462826D01*
X621827Y462727D01*
X621801Y462463D01*
X621786Y462115D01*
X621781Y461682D01*
X619241D01*
X619239Y461909D01*
X619177Y462826D01*
X619157Y462905D01*
X619135Y462962D01*
X619111Y462998D01*
X621911D01*
X621886Y462962D01*
D02*
G37*
G36*
X731520Y593090D02*
X731468Y593038D01*
X576580D01*
Y445764D01*
X575310Y444755D01*
X574787Y444859D01*
X573313Y444566D01*
X572063Y443731D01*
X571228Y442481D01*
X570935Y441007D01*
X571228Y439533D01*
X572063Y438284D01*
X573313Y437449D01*
X574787Y437155D01*
X575310Y437259D01*
X576580Y436250D01*
Y393700D01*
X576941Y393339D01*
Y360949D01*
X537210D01*
Y437729D01*
X538040Y438284D01*
X538875Y439533D01*
X539168Y441007D01*
X538875Y442481D01*
X538040Y443731D01*
X537210Y444286D01*
Y557845D01*
X537224Y557854D01*
X538059Y559104D01*
X538352Y560578D01*
X538059Y562052D01*
X537224Y563302D01*
X537210Y563311D01*
Y593038D01*
X469708D01*
X469698Y593048D01*
Y595042D01*
X471172Y595335D01*
X472422Y596170D01*
X473257Y597420D01*
X473550Y598894D01*
X473257Y600368D01*
X472422Y601617D01*
X471172Y602452D01*
X469698Y602746D01*
Y619760D01*
X731520D01*
Y593090D01*
D02*
G37*
G36*
X621010Y436912D02*
X620967Y436904D01*
X620911Y436879D01*
X620841Y436837D01*
X620759Y436779D01*
X620554Y436611D01*
X620297Y436376D01*
X619987Y436073D01*
X618191Y437869D01*
X618351Y438031D01*
X618955Y438723D01*
X618997Y438793D01*
X619022Y438849D01*
X619030Y438892D01*
X621010Y436912D01*
D02*
G37*
G36*
X287319Y434524D02*
X287159Y434362D01*
X286555Y433669D01*
X286513Y433600D01*
X286488Y433544D01*
X286480Y433501D01*
X284500Y435481D01*
X284543Y435489D01*
X284599Y435514D01*
X284669Y435555D01*
X284751Y435614D01*
X284956Y435782D01*
X285213Y436017D01*
X285523Y436320D01*
X287319Y434524D01*
D02*
G37*
G36*
X269375Y436160D02*
X270068Y435555D01*
X270137Y435514D01*
X270194Y435489D01*
X270237Y435481D01*
X268257Y433501D01*
X268249Y433544D01*
X268224Y433600D01*
X268182Y433669D01*
X268123Y433752D01*
X267955Y433956D01*
X267720Y434214D01*
X267418Y434524D01*
X269214Y436320D01*
X269375Y436160D01*
D02*
G37*
G36*
X254923D02*
X255616Y435555D01*
X255686Y435514D01*
X255742Y435489D01*
X255785Y435481D01*
X253805Y433501D01*
X253797Y433544D01*
X253772Y433600D01*
X253730Y433669D01*
X253671Y433752D01*
X253504Y433956D01*
X253268Y434214D01*
X252966Y434524D01*
X254762Y436320D01*
X254923Y436160D01*
D02*
G37*
G36*
X239277Y430595D02*
X239241Y430619D01*
X239184Y430641D01*
X239105Y430661D01*
X239005Y430678D01*
X238742Y430704D01*
X238394Y430719D01*
X237960Y430725D01*
Y433265D01*
X238188Y433266D01*
X239105Y433328D01*
X239184Y433348D01*
X239241Y433370D01*
X239277Y433395D01*
Y430595D01*
D02*
G37*
G36*
X402126Y402403D02*
X402151Y402347D01*
X402193Y402278D01*
X402252Y402195D01*
X402420Y401991D01*
X402655Y401734D01*
X402957Y401423D01*
X401161Y399627D01*
X401000Y399787D01*
X400307Y400392D01*
X400238Y400434D01*
X400181Y400458D01*
X400138Y400467D01*
X402118Y402447D01*
X402126Y402403D01*
D02*
G37*
G36*
X414463Y398543D02*
X414520Y398521D01*
X414599Y398501D01*
X414699Y398484D01*
X414962Y398459D01*
X415310Y398443D01*
X415743Y398438D01*
Y395898D01*
X415516Y395896D01*
X414599Y395834D01*
X414520Y395815D01*
X414463Y395792D01*
X414427Y395768D01*
Y398568D01*
X414463Y398543D01*
D02*
G37*
G36*
X254717Y290713D02*
X254681Y290738D01*
X254623Y290760D01*
X254545Y290779D01*
X254445Y290796D01*
X254181Y290822D01*
X253833Y290838D01*
X253400Y290843D01*
Y293383D01*
X253627Y293384D01*
X254545Y293447D01*
X254623Y293466D01*
X254681Y293489D01*
X254717Y293513D01*
Y290713D01*
D02*
G37*
G36*
X772902Y158274D02*
X772859Y158266D01*
X772803Y158241D01*
X772734Y158199D01*
X772651Y158141D01*
X772446Y157973D01*
X772189Y157738D01*
X771879Y157435D01*
X770083Y159231D01*
X770243Y159393D01*
X770847Y160086D01*
X770889Y160155D01*
X770914Y160211D01*
X770922Y160254D01*
X772902Y158274D01*
D02*
G37*
G36*
X534639Y147058D02*
X534045Y146464D01*
X533995Y146390D01*
X533925Y146333D01*
X533800Y146098D01*
X533652Y145876D01*
X533634Y145788D01*
X533592Y145709D01*
X533566Y145444D01*
X533514Y145183D01*
X533531Y145094D01*
X533522Y145005D01*
X533647Y143741D01*
X533673Y143655D01*
Y143565D01*
X533775Y143319D01*
X533852Y143064D01*
X533909Y142995D01*
X533944Y142912D01*
X534069Y142786D01*
X534654Y141911D01*
X534806Y141145D01*
X534654Y140378D01*
X534219Y139728D01*
X533569Y139293D01*
X532846Y139150D01*
X532681Y139081D01*
X532506Y139046D01*
X532357Y138947D01*
X532193Y138879D01*
X532066Y138753D01*
X531918Y138653D01*
X531819Y138505D01*
X531692Y138379D01*
X531624Y138214D01*
X531525Y138065D01*
X531490Y137890D01*
X531422Y137725D01*
Y137547D01*
X531387Y137372D01*
Y58463D01*
X526553Y53629D01*
X424075Y53629D01*
Y54307D01*
X423789Y55744D01*
X422975Y56962D01*
X418188Y61749D01*
Y87768D01*
X419244Y88474D01*
X419365Y88424D01*
X420868D01*
X422256Y88999D01*
X423319Y90062D01*
X423894Y91451D01*
Y92954D01*
X423871Y93009D01*
Y101787D01*
X453331Y131247D01*
X454145Y132465D01*
X454430Y133902D01*
Y142517D01*
X454463Y142549D01*
X456399D01*
X456454Y142526D01*
X457957D01*
X458012Y142549D01*
X480825D01*
X480880Y142526D01*
X482383D01*
X482659Y142640D01*
X493507D01*
X515929Y120219D01*
Y84607D01*
X515906Y84551D01*
Y83048D01*
X516481Y81660D01*
X517544Y80597D01*
X518932Y80022D01*
X520435D01*
X521824Y80597D01*
X522887Y81660D01*
X523462Y83048D01*
Y84551D01*
X523439Y84607D01*
Y121774D01*
X523153Y123211D01*
X522339Y124430D01*
X505144Y141625D01*
X505863Y142702D01*
X506782Y142321D01*
X508284D01*
X509673Y142896D01*
X510736Y143959D01*
X511311Y145348D01*
Y146851D01*
X511176Y147176D01*
X511882Y148232D01*
X534153D01*
X534639Y147058D01*
D02*
G37*
G36*
X729186Y143042D02*
X729026Y142881D01*
X728421Y142188D01*
X728380Y142118D01*
X728355Y142062D01*
X728347Y142019D01*
X726367Y143999D01*
X726410Y144007D01*
X726466Y144032D01*
X726535Y144074D01*
X726618Y144132D01*
X726822Y144300D01*
X727080Y144536D01*
X727390Y144838D01*
X729186Y143042D01*
D02*
G37*
G36*
X440074Y137064D02*
X412785Y109775D01*
X411515Y110301D01*
Y124206D01*
X411377Y124900D01*
X410984Y125488D01*
X389510Y146962D01*
X390036Y148232D01*
X440074D01*
Y137064D01*
D02*
G37*
G36*
X313781Y103505D02*
X313436Y74633D01*
X313469Y74454D01*
X313468Y74272D01*
X313533Y74110D01*
X313566Y73938D01*
X313665Y73785D01*
X313734Y73616D01*
X313856Y73492D01*
X313951Y73345D01*
X314068Y73266D01*
X314139Y72948D01*
X314142Y72467D01*
X314095Y72123D01*
X313967Y71794D01*
X313933Y71772D01*
X313810Y71592D01*
X313661Y71434D01*
X313612Y71303D01*
X313533Y71188D01*
X313488Y70975D01*
X313411Y70772D01*
X313415Y70633D01*
X313386Y70496D01*
X312922Y31670D01*
X311963Y31038D01*
X310460D01*
X309072Y30463D01*
X308166Y29557D01*
X307426Y29686D01*
X306896Y29946D01*
Y52220D01*
X306758Y52914D01*
X306365Y53502D01*
X305777Y53895D01*
X305083Y54033D01*
X274857D01*
X274163Y53895D01*
X273575Y53502D01*
X273182Y52914D01*
X273044Y52220D01*
Y20066D01*
X273124Y19665D01*
X272611Y18734D01*
X272308Y18395D01*
X250672D01*
X237785Y31282D01*
Y32584D01*
X239055Y33433D01*
X239201Y33372D01*
X240704D01*
X242092Y33947D01*
X243155Y35010D01*
X243730Y36399D01*
Y37902D01*
X243155Y39290D01*
X242092Y40353D01*
X240704Y40928D01*
X239201D01*
X239055Y40868D01*
X237785Y41716D01*
Y63128D01*
X252034Y77378D01*
X273032D01*
Y68072D01*
X273170Y67378D01*
X273563Y66790D01*
X274151Y66397D01*
X274845Y66259D01*
X305095D01*
X305789Y66397D01*
X306377Y66790D01*
X306770Y67378D01*
X306908Y68072D01*
Y100076D01*
X306770Y100770D01*
X306377Y101358D01*
X305789Y101751D01*
X305095Y101889D01*
X276023D01*
X275497Y103159D01*
X276039Y103700D01*
X276614Y105089D01*
Y106592D01*
X276355Y107217D01*
X277192Y108487D01*
X308799D01*
X313781Y103505D01*
D02*
G37*
G36*
X100594Y20917D02*
X100576Y20862D01*
X100560Y20785D01*
X100547Y20687D01*
X100525Y20426D01*
X100509Y19873D01*
X100508Y19645D01*
X97968Y19515D01*
X97967Y19742D01*
X97914Y20561D01*
X97894Y20662D01*
X97871Y20742D01*
X97845Y20801D01*
X97817Y20839D01*
X100615Y20950D01*
X100594Y20917D01*
D02*
G37*
%LPC*%
G36*
X693691Y799066D02*
X691304D01*
X688997Y798448D01*
X686930Y797255D01*
X685241Y795566D01*
X684047Y793499D01*
X683429Y791192D01*
Y788805D01*
X684047Y786498D01*
X685241Y784430D01*
X686930Y782742D01*
X688997Y781548D01*
X691304Y780930D01*
X693691D01*
X695998Y781548D01*
X698065Y782742D01*
X699754Y784430D01*
X700948Y786498D01*
X701566Y788805D01*
Y791192D01*
X700948Y793499D01*
X699754Y795566D01*
X698065Y797255D01*
X695998Y798448D01*
X693691Y799066D01*
D02*
G37*
G36*
X508691D02*
X506304D01*
X503997Y798448D01*
X501930Y797255D01*
X500241Y795566D01*
X499048Y793499D01*
X498430Y791192D01*
Y788805D01*
X499048Y786498D01*
X500241Y784430D01*
X501930Y782742D01*
X503997Y781548D01*
X506304Y780930D01*
X508691D01*
X510998Y781548D01*
X513065Y782742D01*
X514754Y784430D01*
X515948Y786498D01*
X516566Y788805D01*
Y791192D01*
X515948Y793499D01*
X514754Y795566D01*
X513065Y797255D01*
X510998Y798448D01*
X508691Y799066D01*
D02*
G37*
G36*
X343691D02*
X341304D01*
X338997Y798448D01*
X336930Y797255D01*
X335241Y795566D01*
X334048Y793499D01*
X333430Y791192D01*
Y788805D01*
X334048Y786498D01*
X335241Y784430D01*
X336930Y782742D01*
X338997Y781548D01*
X341304Y780930D01*
X343691D01*
X345998Y781548D01*
X348065Y782742D01*
X349754Y784430D01*
X350948Y786498D01*
X351566Y788805D01*
Y791192D01*
X350948Y793499D01*
X349754Y795566D01*
X348065Y797255D01*
X345998Y798448D01*
X343691Y799066D01*
D02*
G37*
G36*
X158691D02*
X156304D01*
X153997Y798448D01*
X151930Y797255D01*
X150241Y795566D01*
X149047Y793499D01*
X148430Y791192D01*
Y788805D01*
X149047Y786498D01*
X150241Y784430D01*
X151930Y782742D01*
X153997Y781548D01*
X156304Y780930D01*
X158691D01*
X160998Y781548D01*
X163065Y782742D01*
X164754Y784430D01*
X165948Y786498D01*
X166566Y788805D01*
Y791192D01*
X165948Y793499D01*
X164754Y795566D01*
X163065Y797255D01*
X160998Y798448D01*
X158691Y799066D01*
D02*
G37*
G36*
X693691Y751566D02*
X691304D01*
X688997Y750948D01*
X686930Y749755D01*
X685241Y748066D01*
X684047Y745999D01*
X683429Y743692D01*
Y741305D01*
X684047Y738998D01*
X685241Y736930D01*
X686930Y735242D01*
X688997Y734048D01*
X691304Y733430D01*
X693691D01*
X695998Y734048D01*
X698065Y735242D01*
X699754Y736930D01*
X700948Y738998D01*
X701566Y741305D01*
Y743692D01*
X700948Y745999D01*
X699754Y748066D01*
X698065Y749755D01*
X695998Y750948D01*
X693691Y751566D01*
D02*
G37*
G36*
X508691D02*
X506304D01*
X503997Y750948D01*
X501930Y749755D01*
X500241Y748066D01*
X499048Y745999D01*
X498430Y743692D01*
Y741305D01*
X499048Y738998D01*
X500241Y736930D01*
X501930Y735242D01*
X503997Y734048D01*
X506304Y733430D01*
X508691D01*
X510998Y734048D01*
X513065Y735242D01*
X514754Y736930D01*
X515948Y738998D01*
X516566Y741305D01*
Y743692D01*
X515948Y745999D01*
X514754Y748066D01*
X513065Y749755D01*
X510998Y750948D01*
X508691Y751566D01*
D02*
G37*
G36*
X343691D02*
X341304D01*
X338997Y750948D01*
X336930Y749755D01*
X335241Y748066D01*
X334048Y745999D01*
X333430Y743692D01*
Y741305D01*
X334048Y738998D01*
X335241Y736930D01*
X336930Y735242D01*
X338997Y734048D01*
X341304Y733430D01*
X343691D01*
X345998Y734048D01*
X348065Y735242D01*
X349754Y736930D01*
X350948Y738998D01*
X351566Y741305D01*
Y743692D01*
X350948Y745999D01*
X349754Y748066D01*
X348065Y749755D01*
X345998Y750948D01*
X343691Y751566D01*
D02*
G37*
G36*
X158691D02*
X156304D01*
X153997Y750948D01*
X151930Y749755D01*
X150241Y748066D01*
X149047Y745999D01*
X148430Y743692D01*
Y741305D01*
X149047Y738998D01*
X150241Y736930D01*
X151930Y735242D01*
X153997Y734048D01*
X156304Y733430D01*
X158691D01*
X160998Y734048D01*
X163065Y735242D01*
X164754Y736930D01*
X165948Y738998D01*
X166566Y741305D01*
Y743692D01*
X165948Y745999D01*
X164754Y748066D01*
X163065Y749755D01*
X160998Y750948D01*
X158691Y751566D01*
D02*
G37*
G36*
X242052Y735298D02*
X240548D01*
X239160Y734723D01*
X238097Y733660D01*
X237522Y732271D01*
Y730769D01*
X238097Y729380D01*
X239160Y728317D01*
X240548Y727742D01*
X242052D01*
X243440Y728317D01*
X244503Y729380D01*
X245078Y730769D01*
Y732271D01*
X244503Y733660D01*
X243440Y734723D01*
X242052Y735298D01*
D02*
G37*
G36*
X551344Y730871D02*
X549841D01*
X548452Y730296D01*
X547390Y729233D01*
X546815Y727845D01*
Y726342D01*
X547390Y724953D01*
X548452Y723891D01*
X549841Y723315D01*
X551344D01*
X552733Y723891D01*
X553795Y724953D01*
X554371Y726342D01*
Y727845D01*
X553795Y729233D01*
X552733Y730296D01*
X551344Y730871D01*
D02*
G37*
G36*
X793427Y729421D02*
X791924D01*
X790536Y728846D01*
X789473Y727783D01*
X788898Y726395D01*
Y724892D01*
X789473Y723503D01*
X790536Y722440D01*
X791924Y721865D01*
X793427D01*
X794816Y722440D01*
X795878Y723503D01*
X796454Y724892D01*
Y726395D01*
X795878Y727783D01*
X794816Y728846D01*
X793427Y729421D01*
D02*
G37*
G36*
X781743D02*
X780240D01*
X778852Y728846D01*
X777789Y727783D01*
X777214Y726395D01*
Y724892D01*
X777789Y723503D01*
X778852Y722440D01*
X780240Y721865D01*
X781743D01*
X783132Y722440D01*
X784194Y723503D01*
X784770Y724892D01*
Y726395D01*
X784194Y727783D01*
X783132Y728846D01*
X781743Y729421D01*
D02*
G37*
G36*
X201411Y728948D02*
X199909D01*
X198520Y728373D01*
X197457Y727310D01*
X196882Y725921D01*
Y724418D01*
X197457Y723030D01*
X198520Y721967D01*
X199909Y721392D01*
X201411D01*
X202800Y721967D01*
X203863Y723030D01*
X204438Y724418D01*
Y725921D01*
X203863Y727310D01*
X202800Y728373D01*
X201411Y728948D01*
D02*
G37*
G36*
X530749Y725855D02*
X529246D01*
X527857Y725280D01*
X526794Y724217D01*
X526219Y722829D01*
Y721326D01*
X526794Y719937D01*
X527857Y718875D01*
X529246Y718299D01*
X530749D01*
X532137Y718875D01*
X533200Y719937D01*
X533775Y721326D01*
Y722829D01*
X533200Y724217D01*
X532137Y725280D01*
X530749Y725855D01*
D02*
G37*
G36*
X610891Y725316D02*
X609388D01*
X607999Y724741D01*
X606937Y723678D01*
X606362Y722289D01*
Y720786D01*
X606937Y719398D01*
X607999Y718335D01*
X609388Y717760D01*
X610891D01*
X612280Y718335D01*
X613342Y719398D01*
X613918Y720786D01*
Y722289D01*
X613342Y723678D01*
X612280Y724741D01*
X610891Y725316D01*
D02*
G37*
G36*
X570814Y725225D02*
X569311D01*
X567923Y724650D01*
X566860Y723587D01*
X566285Y722199D01*
Y720696D01*
X566860Y719307D01*
X567923Y718244D01*
X569311Y717669D01*
X570814D01*
X572203Y718244D01*
X573266Y719307D01*
X573841Y720696D01*
Y722199D01*
X573266Y723587D01*
X572203Y724650D01*
X570814Y725225D01*
D02*
G37*
G36*
X650774Y725105D02*
X649271D01*
X647882Y724530D01*
X646819Y723467D01*
X646244Y722078D01*
Y720575D01*
X646819Y719187D01*
X647882Y718124D01*
X649271Y717549D01*
X650774D01*
X652162Y718124D01*
X653225Y719187D01*
X653800Y720575D01*
Y722078D01*
X653225Y723467D01*
X652162Y724530D01*
X650774Y725105D01*
D02*
G37*
G36*
X220598Y719792D02*
X219095D01*
X217707Y719217D01*
X216644Y718154D01*
X216069Y716766D01*
Y715263D01*
X216644Y713874D01*
X217707Y712812D01*
X219095Y712236D01*
X220598D01*
X221987Y712812D01*
X223050Y713874D01*
X223625Y715263D01*
Y716766D01*
X223050Y718154D01*
X221987Y719217D01*
X220598Y719792D01*
D02*
G37*
G36*
X261008Y719712D02*
X259506D01*
X258117Y719137D01*
X257054Y718074D01*
X256479Y716686D01*
Y715183D01*
X257054Y713794D01*
X258117Y712731D01*
X259506Y712156D01*
X261008D01*
X262397Y712731D01*
X263460Y713794D01*
X264035Y715183D01*
Y716686D01*
X263460Y718074D01*
X262397Y719137D01*
X261008Y719712D01*
D02*
G37*
G36*
X301045Y718920D02*
X299542D01*
X298154Y718345D01*
X297091Y717282D01*
X296516Y715893D01*
Y714390D01*
X297091Y713002D01*
X298154Y711939D01*
X299542Y711364D01*
X301045D01*
X302434Y711939D01*
X303497Y713002D01*
X304072Y714390D01*
Y715893D01*
X303497Y717282D01*
X302434Y718345D01*
X301045Y718920D01*
D02*
G37*
G36*
X181091Y718788D02*
X179589D01*
X178200Y718213D01*
X177137Y717150D01*
X176562Y715761D01*
Y714258D01*
X177137Y712870D01*
X178200Y711807D01*
X179589Y711232D01*
X181091D01*
X182480Y711807D01*
X183543Y712870D01*
X184118Y714258D01*
Y715761D01*
X183543Y717150D01*
X182480Y718213D01*
X181091Y718788D01*
D02*
G37*
G36*
X793427Y715832D02*
X791924D01*
X790536Y715257D01*
X789473Y714194D01*
X788898Y712805D01*
Y711302D01*
X789473Y709914D01*
X790536Y708851D01*
X791924Y708276D01*
X793427D01*
X794816Y708851D01*
X795878Y709914D01*
X796454Y711302D01*
Y712805D01*
X795878Y714194D01*
X794816Y715257D01*
X793427Y715832D01*
D02*
G37*
G36*
X781743D02*
X780240D01*
X778852Y715257D01*
X777789Y714194D01*
X777214Y712805D01*
Y711302D01*
X777789Y709914D01*
X778852Y708851D01*
X780240Y708276D01*
X781743D01*
X783132Y708851D01*
X784194Y709914D01*
X784770Y711302D01*
Y712805D01*
X784194Y714194D01*
X783132Y715257D01*
X781743Y715832D01*
D02*
G37*
G36*
X531104Y709390D02*
X529600D01*
X528212Y708815D01*
X527149Y707752D01*
X526574Y706364D01*
Y704861D01*
X527149Y703472D01*
X528212Y702409D01*
X529600Y701834D01*
X531104D01*
X532492Y702409D01*
X533555Y703472D01*
X534130Y704861D01*
Y706364D01*
X533555Y707752D01*
X532492Y708815D01*
X531104Y709390D01*
D02*
G37*
G36*
X670144Y709238D02*
X668641D01*
X667252Y708663D01*
X666189Y707600D01*
X665614Y706211D01*
Y704708D01*
X666189Y703320D01*
X667252Y702257D01*
X668641Y701682D01*
X670144D01*
X671532Y702257D01*
X672595Y703320D01*
X673170Y704708D01*
Y706211D01*
X672595Y707600D01*
X671532Y708663D01*
X670144Y709238D01*
D02*
G37*
G36*
X651143D02*
X649641D01*
X648252Y708663D01*
X647189Y707600D01*
X646614Y706211D01*
Y704708D01*
X647189Y703320D01*
X648252Y702257D01*
X649641Y701682D01*
X651143D01*
X652532Y702257D01*
X653595Y703320D01*
X654170Y704708D01*
Y706211D01*
X653595Y707600D01*
X652532Y708663D01*
X651143Y709238D01*
D02*
G37*
G36*
X630266D02*
X628763D01*
X627374Y708663D01*
X626311Y707600D01*
X625736Y706211D01*
Y704708D01*
X626311Y703320D01*
X627374Y702257D01*
X628763Y701682D01*
X630266D01*
X631654Y702257D01*
X632717Y703320D01*
X633292Y704708D01*
Y706211D01*
X632717Y707600D01*
X631654Y708663D01*
X630266Y709238D01*
D02*
G37*
G36*
X611265D02*
X609762D01*
X608374Y708663D01*
X607311Y707600D01*
X606736Y706211D01*
Y704708D01*
X607311Y703320D01*
X608374Y702257D01*
X609762Y701682D01*
X611265D01*
X612654Y702257D01*
X613717Y703320D01*
X614292Y704708D01*
Y706211D01*
X613717Y707600D01*
X612654Y708663D01*
X611265Y709238D01*
D02*
G37*
G36*
X590134D02*
X588630D01*
X587242Y708663D01*
X586179Y707600D01*
X585604Y706211D01*
Y704708D01*
X586179Y703320D01*
X587242Y702257D01*
X588630Y701682D01*
X590134D01*
X591522Y702257D01*
X592585Y703320D01*
X593160Y704708D01*
Y706211D01*
X592585Y707600D01*
X591522Y708663D01*
X590134Y709238D01*
D02*
G37*
G36*
X571133D02*
X569631D01*
X568242Y708663D01*
X567179Y707600D01*
X566604Y706211D01*
Y704708D01*
X567179Y703320D01*
X568242Y702257D01*
X569631Y701682D01*
X571133D01*
X572522Y702257D01*
X573585Y703320D01*
X574160Y704708D01*
Y706211D01*
X573585Y707600D01*
X572522Y708663D01*
X571133Y709238D01*
D02*
G37*
G36*
X550256D02*
X548753D01*
X547364Y708663D01*
X546301Y707600D01*
X545726Y706211D01*
Y704708D01*
X546301Y703320D01*
X547364Y702257D01*
X548753Y701682D01*
X550256D01*
X551644Y702257D01*
X552707Y703320D01*
X553282Y704708D01*
Y706211D01*
X552707Y707600D01*
X551644Y708663D01*
X550256Y709238D01*
D02*
G37*
G36*
X793427Y702243D02*
X791924D01*
X790536Y701668D01*
X789473Y700605D01*
X788898Y699217D01*
Y697713D01*
X789473Y696325D01*
X790536Y695262D01*
X791924Y694687D01*
X793427D01*
X794816Y695262D01*
X795878Y696325D01*
X796454Y697713D01*
Y699217D01*
X795878Y700605D01*
X794816Y701668D01*
X793427Y702243D01*
D02*
G37*
G36*
X781743D02*
X780240D01*
X778852Y701668D01*
X777789Y700605D01*
X777214Y699217D01*
Y697713D01*
X777789Y696325D01*
X778852Y695262D01*
X780240Y694687D01*
X781743D01*
X783132Y695262D01*
X784194Y696325D01*
X784770Y697713D01*
Y699217D01*
X784194Y700605D01*
X783132Y701668D01*
X781743Y702243D01*
D02*
G37*
G36*
X319714Y700039D02*
X318211D01*
X316823Y699464D01*
X315760Y698401D01*
X315185Y697012D01*
Y695509D01*
X315760Y694121D01*
X316823Y693058D01*
X318211Y692483D01*
X319714D01*
X321103Y693058D01*
X322166Y694121D01*
X322741Y695509D01*
Y697012D01*
X322166Y698401D01*
X321103Y699464D01*
X319714Y700039D01*
D02*
G37*
G36*
X280386Y699488D02*
X278883D01*
X277495Y698913D01*
X276432Y697850D01*
X275857Y696461D01*
Y694958D01*
X276432Y693570D01*
X277495Y692507D01*
X278883Y691932D01*
X280386D01*
X281775Y692507D01*
X282837Y693570D01*
X283413Y694958D01*
Y696461D01*
X282837Y697850D01*
X281775Y698913D01*
X280386Y699488D01*
D02*
G37*
G36*
X240019Y698468D02*
X238517D01*
X237128Y697893D01*
X236065Y696830D01*
X235490Y695442D01*
Y693939D01*
X236065Y692550D01*
X237128Y691487D01*
X238517Y690912D01*
X240019D01*
X241408Y691487D01*
X242471Y692550D01*
X243046Y693939D01*
Y695442D01*
X242471Y696830D01*
X241408Y697893D01*
X240019Y698468D01*
D02*
G37*
G36*
X200142Y697960D02*
X198638D01*
X197250Y697385D01*
X196187Y696322D01*
X195612Y694933D01*
Y693430D01*
X196187Y692042D01*
X197250Y690979D01*
X198638Y690404D01*
X200142D01*
X201530Y690979D01*
X202593Y692042D01*
X203168Y693430D01*
Y694933D01*
X202593Y696322D01*
X201530Y697385D01*
X200142Y697960D01*
D02*
G37*
G36*
X65195Y681335D02*
X63692D01*
X62303Y680760D01*
X61241Y679697D01*
X60665Y678308D01*
Y676805D01*
X61241Y675417D01*
X62303Y674354D01*
X63692Y673779D01*
X65195D01*
X66583Y674354D01*
X67646Y675417D01*
X68221Y676805D01*
Y678308D01*
X67646Y679697D01*
X66583Y680760D01*
X65195Y681335D01*
D02*
G37*
G36*
X749581Y602438D02*
X748078D01*
X746690Y601863D01*
X745627Y600801D01*
X745052Y599412D01*
Y597909D01*
X745627Y596520D01*
X746690Y595458D01*
X748078Y594882D01*
X749581D01*
X750970Y595458D01*
X752033Y596520D01*
X752608Y597909D01*
Y599412D01*
X752033Y600801D01*
X750970Y601863D01*
X749581Y602438D01*
D02*
G37*
G36*
X379184Y594785D02*
X377681D01*
X376292Y594210D01*
X375229Y593147D01*
X374654Y591759D01*
Y590256D01*
X375229Y588867D01*
X376292Y587804D01*
X377681Y587229D01*
X379184D01*
X380572Y587804D01*
X381635Y588867D01*
X382210Y590256D01*
Y591759D01*
X381635Y593147D01*
X380572Y594210D01*
X379184Y594785D01*
D02*
G37*
G36*
X308227Y594781D02*
X306724D01*
X305335Y594206D01*
X304272Y593143D01*
X303697Y591754D01*
Y590252D01*
X304272Y588863D01*
X305335Y587800D01*
X306724Y587225D01*
X308227D01*
X309615Y587800D01*
X310678Y588863D01*
X311253Y590252D01*
Y591754D01*
X310678Y593143D01*
X309615Y594206D01*
X308227Y594781D01*
D02*
G37*
G36*
X329682Y589248D02*
X328178D01*
X326790Y588673D01*
X325727Y587610D01*
X325152Y586222D01*
Y584719D01*
X325727Y583330D01*
X326790Y582267D01*
X328178Y581692D01*
X329682D01*
X331070Y582267D01*
X332133Y583330D01*
X332708Y584719D01*
Y586222D01*
X332133Y587610D01*
X331070Y588673D01*
X329682Y589248D01*
D02*
G37*
G36*
X373958Y586502D02*
X372455D01*
X371066Y585927D01*
X370003Y584864D01*
X369428Y583475D01*
Y581972D01*
X370003Y580584D01*
X371066Y579521D01*
X372455Y578946D01*
X373958D01*
X375346Y579521D01*
X376409Y580584D01*
X376984Y581972D01*
Y583475D01*
X376409Y584864D01*
X375346Y585927D01*
X373958Y586502D01*
D02*
G37*
G36*
X297768Y579604D02*
X296265D01*
X294877Y579029D01*
X293814Y577966D01*
X293239Y576578D01*
Y575075D01*
X293814Y573686D01*
X294877Y572624D01*
X296265Y572048D01*
X297768D01*
X299157Y572624D01*
X300220Y573686D01*
X300795Y575075D01*
Y576578D01*
X300220Y577966D01*
X299157Y579029D01*
X297768Y579604D01*
D02*
G37*
G36*
X313989Y575438D02*
X312486D01*
X311098Y574863D01*
X310035Y573801D01*
X309460Y572412D01*
Y570909D01*
X310035Y569520D01*
X311098Y568458D01*
X312486Y567882D01*
X313989D01*
X315378Y568458D01*
X316441Y569520D01*
X317016Y570909D01*
Y572412D01*
X316441Y573801D01*
X315378Y574863D01*
X313989Y575438D01*
D02*
G37*
G36*
X391262Y572667D02*
X389759D01*
X388370Y572092D01*
X387308Y571029D01*
X386732Y569640D01*
Y568137D01*
X387308Y566749D01*
X388370Y565686D01*
X389759Y565111D01*
X391262D01*
X392650Y565686D01*
X393713Y566749D01*
X394288Y568137D01*
Y569640D01*
X393713Y571029D01*
X392650Y572092D01*
X391262Y572667D01*
D02*
G37*
G36*
X25526Y568929D02*
X24023D01*
X22634Y568354D01*
X21572Y567291D01*
X20997Y565902D01*
Y564399D01*
X21572Y563011D01*
X22634Y561948D01*
X24023Y561373D01*
X25526D01*
X26915Y561948D01*
X27977Y563011D01*
X28553Y564399D01*
Y565902D01*
X27977Y567291D01*
X26915Y568354D01*
X25526Y568929D01*
D02*
G37*
G36*
X758941Y563848D02*
X757439D01*
X756050Y563273D01*
X754987Y562210D01*
X754412Y560821D01*
Y559319D01*
X754987Y557930D01*
X756050Y556867D01*
X757439Y556292D01*
X758941D01*
X760330Y556867D01*
X761393Y557930D01*
X761968Y559319D01*
Y560821D01*
X761393Y562210D01*
X760330Y563273D01*
X758941Y563848D01*
D02*
G37*
G36*
X274657Y545379D02*
X273154D01*
X271765Y544804D01*
X270703Y543741D01*
X270127Y542353D01*
Y540850D01*
X270703Y539461D01*
X271765Y538398D01*
X273154Y537823D01*
X274657D01*
X276045Y538398D01*
X277108Y539461D01*
X277683Y540850D01*
Y542353D01*
X277108Y543741D01*
X276045Y544804D01*
X274657Y545379D01*
D02*
G37*
G36*
X470593Y542760D02*
X469090D01*
X467702Y542184D01*
X466639Y541122D01*
X466064Y539733D01*
Y538230D01*
X466639Y536842D01*
X467702Y535779D01*
X469090Y535204D01*
X470593D01*
X471982Y535779D01*
X473045Y536842D01*
X473620Y538230D01*
Y539733D01*
X473045Y541122D01*
X471982Y542184D01*
X470593Y542760D01*
D02*
G37*
G36*
X711385Y542587D02*
X709882D01*
X708493Y542012D01*
X707430Y540949D01*
X706855Y539561D01*
Y538058D01*
X707430Y536669D01*
X708493Y535606D01*
X709882Y535031D01*
X711385D01*
X712773Y535606D01*
X713836Y536669D01*
X714411Y538058D01*
Y539561D01*
X713836Y540949D01*
X712773Y542012D01*
X711385Y542587D01*
D02*
G37*
G36*
X650235Y541929D02*
X648732D01*
X647344Y541354D01*
X646281Y540291D01*
X645706Y538903D01*
Y537400D01*
X646281Y536011D01*
X647344Y534948D01*
X648732Y534373D01*
X650235D01*
X651624Y534948D01*
X652686Y536011D01*
X653262Y537400D01*
Y538903D01*
X652686Y540291D01*
X651624Y541354D01*
X650235Y541929D01*
D02*
G37*
G36*
X594987Y509478D02*
X593484D01*
X592095Y508903D01*
X591033Y507840D01*
X590457Y506452D01*
Y504949D01*
X591033Y503560D01*
X592095Y502497D01*
X593484Y501922D01*
X594987D01*
X596376Y502497D01*
X597438Y503560D01*
X598013Y504949D01*
Y506452D01*
X597438Y507840D01*
X596376Y508903D01*
X594987Y509478D01*
D02*
G37*
G36*
X515827Y509328D02*
X514324D01*
X512936Y508752D01*
X511873Y507690D01*
X511298Y506301D01*
Y504798D01*
X511873Y503410D01*
X512936Y502347D01*
X514324Y501772D01*
X515827D01*
X517216Y502347D01*
X518279Y503410D01*
X518854Y504798D01*
Y506301D01*
X518279Y507690D01*
X517216Y508752D01*
X515827Y509328D01*
D02*
G37*
G36*
X474941Y508273D02*
X473439D01*
X472050Y507698D01*
X470987Y506635D01*
X470412Y505246D01*
Y503743D01*
X470987Y502355D01*
X472050Y501292D01*
X473439Y500717D01*
X474941D01*
X476330Y501292D01*
X477393Y502355D01*
X477968Y503743D01*
Y505246D01*
X477393Y506635D01*
X476330Y507698D01*
X474941Y508273D01*
D02*
G37*
G36*
X233501Y499063D02*
X231998D01*
X230609Y498488D01*
X229547Y497425D01*
X228972Y496036D01*
Y494533D01*
X229547Y493145D01*
X230609Y492082D01*
X231998Y491507D01*
X233501D01*
X234890Y492082D01*
X235952Y493145D01*
X236528Y494533D01*
Y496036D01*
X235952Y497425D01*
X234890Y498488D01*
X233501Y499063D01*
D02*
G37*
G36*
X395830Y480593D02*
X394327D01*
X392938Y480018D01*
X391876Y478955D01*
X391300Y477566D01*
Y476063D01*
X391876Y474675D01*
X392938Y473612D01*
X394327Y473037D01*
X395830D01*
X397219Y473612D01*
X398281Y474675D01*
X398856Y476063D01*
Y477566D01*
X398281Y478955D01*
X397219Y480018D01*
X395830Y480593D01*
D02*
G37*
G36*
X742441Y485061D02*
X739867D01*
X737380Y484395D01*
X735150Y483108D01*
X733329Y481287D01*
X732042Y479058D01*
X731376Y476571D01*
Y473996D01*
X732042Y471509D01*
X733329Y469280D01*
X735150Y467459D01*
X737380Y466172D01*
X739867Y465505D01*
X742441D01*
X744928Y466172D01*
X747158Y467459D01*
X748978Y469280D01*
X750266Y471509D01*
X750932Y473996D01*
Y476571D01*
X750266Y479058D01*
X748978Y481287D01*
X747158Y483108D01*
X744928Y484395D01*
X742441Y485061D01*
D02*
G37*
G36*
X281336Y472074D02*
X279833D01*
X278444Y471499D01*
X277382Y470436D01*
X276806Y469048D01*
Y467545D01*
X277382Y466156D01*
X278444Y465093D01*
X279833Y464518D01*
X281336D01*
X282724Y465093D01*
X283787Y466156D01*
X284362Y467545D01*
Y469048D01*
X283787Y470436D01*
X282724Y471499D01*
X281336Y472074D01*
D02*
G37*
G36*
X276341Y463518D02*
X274839D01*
X273450Y462943D01*
X272387Y461880D01*
X271812Y460491D01*
Y458988D01*
X272387Y457600D01*
X273450Y456537D01*
X274839Y455962D01*
X276341D01*
X277730Y456537D01*
X278793Y457600D01*
X279368Y458988D01*
Y460491D01*
X278793Y461880D01*
X277730Y462943D01*
X276341Y463518D01*
D02*
G37*
G36*
X742441Y459661D02*
X739867D01*
X737380Y458995D01*
X735150Y457708D01*
X733329Y455887D01*
X732042Y453658D01*
X731376Y451171D01*
Y448596D01*
X732042Y446109D01*
X733329Y443880D01*
X735150Y442059D01*
X737380Y440772D01*
X739867Y440105D01*
X742441D01*
X744928Y440772D01*
X747158Y442059D01*
X748978Y443880D01*
X750266Y446109D01*
X750932Y448596D01*
Y451171D01*
X750266Y453658D01*
X748978Y455887D01*
X747158Y457708D01*
X744928Y458995D01*
X742441Y459661D01*
D02*
G37*
G36*
X496596Y444785D02*
X495093D01*
X493704Y444210D01*
X492641Y443147D01*
X492066Y441759D01*
Y440256D01*
X492641Y438867D01*
X493704Y437805D01*
X495093Y437229D01*
X496596D01*
X497984Y437805D01*
X499047Y438867D01*
X499622Y440256D01*
Y441759D01*
X499047Y443147D01*
X497984Y444210D01*
X496596Y444785D01*
D02*
G37*
G36*
X457124Y444652D02*
X455621D01*
X454233Y444077D01*
X453170Y443014D01*
X452595Y441625D01*
Y440122D01*
X453170Y438734D01*
X454233Y437671D01*
X455621Y437096D01*
X457124D01*
X458513Y437671D01*
X459576Y438734D01*
X460151Y440122D01*
Y441625D01*
X459576Y443014D01*
X458513Y444077D01*
X457124Y444652D01*
D02*
G37*
G36*
X26229Y435454D02*
X24726D01*
X23338Y434879D01*
X22275Y433816D01*
X21700Y432427D01*
Y430924D01*
X22275Y429536D01*
X23338Y428473D01*
X24726Y427898D01*
X26229D01*
X27618Y428473D01*
X28681Y429536D01*
X29256Y430924D01*
Y432427D01*
X28681Y433816D01*
X27618Y434879D01*
X26229Y435454D01*
D02*
G37*
G36*
X424597Y427142D02*
X423094D01*
X421706Y426567D01*
X420643Y425505D01*
X420068Y424116D01*
Y422613D01*
X420643Y421225D01*
X421706Y420162D01*
X423094Y419586D01*
X424597D01*
X425986Y420162D01*
X427048Y421225D01*
X427624Y422613D01*
Y424116D01*
X427048Y425505D01*
X425986Y426567D01*
X424597Y427142D01*
D02*
G37*
G36*
X742441Y434261D02*
X739867D01*
X737380Y433595D01*
X735150Y432308D01*
X733329Y430487D01*
X732042Y428258D01*
X731376Y425771D01*
Y423196D01*
X732042Y420709D01*
X733329Y418480D01*
X735150Y416659D01*
X737380Y415372D01*
X739867Y414705D01*
X742441D01*
X744928Y415372D01*
X747158Y416659D01*
X748978Y418480D01*
X750266Y420709D01*
X750932Y423196D01*
Y425771D01*
X750266Y428258D01*
X748978Y430487D01*
X747158Y432308D01*
X744928Y433595D01*
X742441Y434261D01*
D02*
G37*
G36*
X411423Y421399D02*
X409920D01*
X408531Y420824D01*
X407469Y419761D01*
X406893Y418373D01*
Y416870D01*
X407469Y415481D01*
X408531Y414418D01*
X409920Y413843D01*
X411423D01*
X412812Y414418D01*
X413874Y415481D01*
X414449Y416870D01*
Y418373D01*
X413874Y419761D01*
X412812Y420824D01*
X411423Y421399D01*
D02*
G37*
G36*
X398556Y416666D02*
X397053D01*
X395665Y416091D01*
X394602Y415028D01*
X394027Y413640D01*
Y412137D01*
X394602Y410748D01*
X395665Y409686D01*
X397053Y409110D01*
X398556D01*
X399945Y409686D01*
X401008Y410748D01*
X401583Y412137D01*
Y413640D01*
X401008Y415028D01*
X399945Y416091D01*
X398556Y416666D01*
D02*
G37*
G36*
X662318Y414225D02*
Y408805D01*
X667737D01*
X667375Y410156D01*
X666481Y411705D01*
X665217Y412969D01*
X663669Y413863D01*
X662318Y414225D01*
D02*
G37*
G36*
X659778D02*
X658427Y413863D01*
X656879Y412969D01*
X655614Y411705D01*
X654721Y410156D01*
X654359Y408805D01*
X659778D01*
Y414225D01*
D02*
G37*
G36*
X391229Y411447D02*
X389726D01*
X388338Y410872D01*
X387275Y409809D01*
X386700Y408421D01*
Y406918D01*
X387275Y405529D01*
X388338Y404466D01*
X389726Y403891D01*
X391229D01*
X392618Y404466D01*
X393681Y405529D01*
X394256Y406918D01*
Y408421D01*
X393681Y409809D01*
X392618Y410872D01*
X391229Y411447D01*
D02*
G37*
G36*
X742542Y409623D02*
X742424D01*
Y400353D01*
X751694D01*
Y400471D01*
X750976Y403152D01*
X749588Y405555D01*
X747626Y407518D01*
X745222Y408905D01*
X742542Y409623D01*
D02*
G37*
G36*
X739884D02*
X739766D01*
X737086Y408905D01*
X734682Y407518D01*
X732720Y405555D01*
X731332Y403152D01*
X730614Y400471D01*
Y400353D01*
X739884D01*
Y409623D01*
D02*
G37*
G36*
X276568Y401686D02*
X275065D01*
X273676Y401111D01*
X272614Y400048D01*
X272038Y398660D01*
Y397157D01*
X272614Y395768D01*
X273676Y394706D01*
X275065Y394131D01*
X276568D01*
X277956Y394706D01*
X279019Y395768D01*
X279594Y397157D01*
Y398660D01*
X279019Y400048D01*
X277956Y401111D01*
X276568Y401686D01*
D02*
G37*
G36*
X263061Y396481D02*
X261558D01*
X260169Y395906D01*
X259106Y394843D01*
X258531Y393455D01*
Y391952D01*
X259106Y390563D01*
X260169Y389501D01*
X261558Y388925D01*
X263061D01*
X264449Y389501D01*
X265512Y390563D01*
X266087Y391952D01*
Y393455D01*
X265512Y394843D01*
X264449Y395906D01*
X263061Y396481D01*
D02*
G37*
G36*
X751694Y397813D02*
X742424D01*
Y388543D01*
X742542D01*
X745222Y389262D01*
X747626Y390649D01*
X749588Y392612D01*
X750976Y395015D01*
X751694Y397696D01*
Y397813D01*
D02*
G37*
G36*
X739884D02*
X730614D01*
Y397696D01*
X731332Y395015D01*
X732720Y392612D01*
X734682Y390649D01*
X737086Y389262D01*
X739766Y388543D01*
X739884D01*
Y397813D01*
D02*
G37*
G36*
X251563Y391438D02*
X250060D01*
X248671Y390863D01*
X247608Y389800D01*
X247033Y388411D01*
Y386908D01*
X247608Y385520D01*
X248671Y384457D01*
X250060Y383882D01*
X251563D01*
X252951Y384457D01*
X254014Y385520D01*
X254589Y386908D01*
Y388411D01*
X254014Y389800D01*
X252951Y390863D01*
X251563Y391438D01*
D02*
G37*
G36*
X182821Y389145D02*
X181318D01*
X179930Y388570D01*
X178867Y387507D01*
X178292Y386119D01*
Y384616D01*
X178867Y383227D01*
X179930Y382164D01*
X181318Y381589D01*
X182821D01*
X184210Y382164D01*
X185273Y383227D01*
X185848Y384616D01*
Y386119D01*
X185273Y387507D01*
X184210Y388570D01*
X182821Y389145D01*
D02*
G37*
G36*
X236649Y386286D02*
X235146D01*
X233757Y385710D01*
X232695Y384648D01*
X232120Y383259D01*
Y381756D01*
X232695Y380368D01*
X233757Y379305D01*
X235146Y378730D01*
X236649D01*
X238038Y379305D01*
X239100Y380368D01*
X239676Y381756D01*
Y383259D01*
X239100Y384648D01*
X238038Y385710D01*
X236649Y386286D01*
D02*
G37*
G36*
X667737Y406265D02*
X661048D01*
X654359D01*
X654721Y404915D01*
X655614Y403366D01*
X656879Y402102D01*
X657781Y401581D01*
X657688Y400168D01*
X657633Y400146D01*
X655938Y398450D01*
X655020Y396235D01*
Y393836D01*
X655938Y391621D01*
X657633Y389925D01*
X658725Y389473D01*
Y388098D01*
X657633Y387646D01*
X655938Y385950D01*
X655020Y383735D01*
Y381336D01*
X655938Y379121D01*
X657633Y377425D01*
X659849Y376507D01*
X662247D01*
X664462Y377425D01*
X666158Y379121D01*
X667076Y381336D01*
Y383735D01*
X666158Y385950D01*
X664462Y387646D01*
X663370Y388098D01*
Y389473D01*
X664462Y389925D01*
X666158Y391621D01*
X667076Y393836D01*
Y396235D01*
X666158Y398450D01*
X664462Y400146D01*
X664408Y400168D01*
X664315Y401581D01*
X665217Y402102D01*
X666481Y403366D01*
X667375Y404915D01*
X667737Y406265D01*
D02*
G37*
G36*
X750932Y383461D02*
X731376D01*
Y363905D01*
X750932D01*
Y383461D01*
D02*
G37*
G36*
X276341Y365728D02*
X274839D01*
X273450Y365153D01*
X272387Y364090D01*
X271812Y362701D01*
Y361199D01*
X272387Y359810D01*
X273450Y358747D01*
X274839Y358172D01*
X276341D01*
X277730Y358747D01*
X278793Y359810D01*
X279368Y361199D01*
Y362701D01*
X278793Y364090D01*
X277730Y365153D01*
X276341Y365728D01*
D02*
G37*
G36*
X312837Y360533D02*
X311334D01*
X309945Y359958D01*
X308882Y358895D01*
X308307Y357507D01*
Y356004D01*
X308882Y354615D01*
X309945Y353553D01*
X311334Y352977D01*
X312837D01*
X314225Y353553D01*
X315288Y354615D01*
X315863Y356004D01*
Y357507D01*
X315288Y358895D01*
X314225Y359958D01*
X312837Y360533D01*
D02*
G37*
G36*
X277296Y351475D02*
X275793D01*
X274405Y350899D01*
X273342Y349837D01*
X272767Y348448D01*
Y346945D01*
X273342Y345556D01*
X274405Y344494D01*
X275793Y343919D01*
X277296D01*
X278685Y344494D01*
X279747Y345556D01*
X280323Y346945D01*
Y348448D01*
X279747Y349837D01*
X278685Y350899D01*
X277296Y351475D01*
D02*
G37*
G36*
X317046Y351308D02*
X315543D01*
X314155Y350733D01*
X313092Y349670D01*
X312517Y348282D01*
Y346778D01*
X313092Y345390D01*
X314155Y344327D01*
X315543Y343752D01*
X317046D01*
X318435Y344327D01*
X319498Y345390D01*
X320073Y346778D01*
Y348282D01*
X319498Y349670D01*
X318435Y350733D01*
X317046Y351308D01*
D02*
G37*
G36*
X813859Y338282D02*
X812141D01*
X810480Y337837D01*
X808992Y336978D01*
X807776Y335762D01*
X806917Y334274D01*
X806472Y332613D01*
Y330895D01*
X806917Y329234D01*
X807776Y327746D01*
X808992Y326530D01*
X810480Y325671D01*
X812141Y325226D01*
X813859D01*
X815520Y325671D01*
X817008Y326530D01*
X818224Y327746D01*
X819083Y329234D01*
X819528Y330895D01*
Y332613D01*
X819083Y334274D01*
X818224Y335762D01*
X817008Y336978D01*
X815520Y337837D01*
X813859Y338282D01*
D02*
G37*
G36*
X737107Y313903D02*
X735604D01*
X734215Y313328D01*
X733152Y312265D01*
X732577Y310876D01*
Y309373D01*
X733152Y307985D01*
X734215Y306922D01*
X735604Y306347D01*
X737107D01*
X738495Y306922D01*
X739558Y307985D01*
X740133Y309373D01*
Y310876D01*
X739558Y312265D01*
X738495Y313328D01*
X737107Y313903D01*
D02*
G37*
G36*
X296781Y417678D02*
X295278D01*
X293890Y417103D01*
X292827Y416040D01*
X292252Y414651D01*
Y413149D01*
X292827Y411760D01*
X293890Y410697D01*
X295278Y410122D01*
X296781D01*
X298170Y410697D01*
X298265Y410792D01*
X302363D01*
X413450Y299705D01*
X412924Y298435D01*
X390072D01*
X365609Y322898D01*
X360844Y327663D01*
X359416Y328617D01*
X357731Y328952D01*
X233663D01*
X227923Y334692D01*
Y375920D01*
X227923Y375920D01*
X227588Y377605D01*
X226633Y379033D01*
X226633Y379033D01*
X220790Y384876D01*
X219362Y385830D01*
X217677Y386166D01*
X210341D01*
X210159Y386202D01*
X208474Y385867D01*
X207045Y384912D01*
X206091Y383484D01*
X205756Y381799D01*
X206091Y380115D01*
X207045Y378686D01*
X207082Y378650D01*
X208510Y377696D01*
X210195Y377360D01*
X215853D01*
X219117Y374096D01*
Y332869D01*
X219452Y331184D01*
X220407Y329756D01*
X228726Y321436D01*
X230155Y320482D01*
X231840Y320147D01*
X246188D01*
Y319667D01*
X246523Y317982D01*
X247478Y316554D01*
X248906Y315599D01*
X250591Y315264D01*
X252276Y315599D01*
X253704Y316554D01*
X254658Y317982D01*
X254993Y319667D01*
Y320147D01*
X355908D01*
X359383Y316672D01*
X384721Y291333D01*
X384706Y291071D01*
X384432Y290261D01*
X384305Y290063D01*
X379845D01*
X354362Y315547D01*
X353354Y316220D01*
X352164Y316457D01*
X275404D01*
X275308Y316552D01*
X273920Y317127D01*
X272417D01*
X271028Y316552D01*
X269966Y315489D01*
X269391Y314101D01*
Y312598D01*
X269966Y311209D01*
X271028Y310146D01*
X272417Y309571D01*
X273920D01*
X275308Y310146D01*
X275404Y310241D01*
X350877D01*
X375500Y285618D01*
X374974Y284348D01*
X349768D01*
X329618Y304498D01*
X328610Y305172D01*
X327421Y305408D01*
X291660D01*
X291616Y305400D01*
X287504D01*
X287460Y305408D01*
X267892D01*
X267699Y305601D01*
X266311Y306176D01*
X264808D01*
X263419Y305601D01*
X262356Y304538D01*
X261781Y303149D01*
Y301646D01*
X262356Y300258D01*
X263419Y299195D01*
X264808Y298620D01*
X266311D01*
X267694Y299193D01*
X287425D01*
X287469Y299184D01*
X291651D01*
X291695Y299193D01*
X310008D01*
X310857Y297923D01*
X310761Y297691D01*
Y296188D01*
X311336Y294799D01*
X312399Y293736D01*
X313787Y293161D01*
X315290D01*
X316679Y293736D01*
X317742Y294799D01*
X318317Y296188D01*
Y297691D01*
X318221Y297923D01*
X319069Y299193D01*
X326133D01*
X346283Y279043D01*
X347291Y278369D01*
X348481Y278133D01*
X490493D01*
X490558Y278068D01*
X491946Y277493D01*
X493449D01*
X494838Y278068D01*
X495901Y279131D01*
X496476Y280519D01*
Y282022D01*
X495901Y283411D01*
X494838Y284474D01*
X493449Y285049D01*
X491946D01*
X490558Y284474D01*
X490432Y284348D01*
X485649D01*
X484801Y285618D01*
X485043Y286204D01*
Y287707D01*
X484773Y288360D01*
X485593Y289630D01*
X544158D01*
X547224Y286564D01*
Y233662D01*
X546055Y232494D01*
X452203D01*
Y248150D01*
X451868Y249835D01*
X450914Y251263D01*
X449486Y252217D01*
X447801Y252553D01*
X446116Y252217D01*
X444688Y251263D01*
X443733Y249835D01*
X443398Y248150D01*
Y229914D01*
X432406Y218921D01*
X348241D01*
X341868Y225295D01*
X341868Y225295D01*
X329257Y237906D01*
X327828Y238860D01*
X326144Y239195D01*
X309880D01*
X309880Y239195D01*
X309765Y239172D01*
X242640D01*
X240956Y238837D01*
X239527Y237883D01*
X238573Y236454D01*
X238238Y234770D01*
X238573Y233085D01*
X239527Y231656D01*
X240956Y230702D01*
X242640Y230367D01*
X309857D01*
X309972Y230390D01*
X324320D01*
X335641Y219069D01*
X335641Y219069D01*
X343304Y211406D01*
X344733Y210451D01*
X346418Y210116D01*
X434230D01*
X435914Y210451D01*
X437343Y211406D01*
X449626Y223689D01*
X547515D01*
X547819Y223628D01*
X549503Y223963D01*
X550932Y224918D01*
X554739Y228725D01*
X555694Y230154D01*
X556029Y231838D01*
Y282528D01*
X672830D01*
X674515Y282863D01*
X675943Y283817D01*
X678701Y286575D01*
X690370D01*
X691064Y286713D01*
X691652Y287106D01*
X692045Y287694D01*
X692183Y288388D01*
Y314992D01*
X692045Y315686D01*
X691652Y316274D01*
X691064Y316667D01*
X690370Y316805D01*
X673779D01*
X673086Y316667D01*
X672497Y316274D01*
X672104Y315686D01*
X671967Y314992D01*
Y292293D01*
X671006Y291333D01*
X554852D01*
X554739Y291501D01*
X549095Y297146D01*
X547666Y298100D01*
X545981Y298435D01*
X509866D01*
X509017Y299705D01*
X509238Y300238D01*
Y301742D01*
X508663Y303130D01*
X507600Y304193D01*
X506212Y304768D01*
X504709D01*
X503320Y304193D01*
X503225Y304098D01*
X417847D01*
X305847Y416097D01*
X304839Y416771D01*
X303650Y417008D01*
X298265D01*
X298170Y417103D01*
X296781Y417678D01*
D02*
G37*
G36*
X320792Y293338D02*
X319289D01*
X317900Y292763D01*
X316837Y291700D01*
X316262Y290312D01*
Y288808D01*
X316837Y287420D01*
X317900Y286357D01*
X319289Y285782D01*
X320792D01*
X322180Y286357D01*
X323243Y287420D01*
X323818Y288808D01*
Y290312D01*
X323243Y291700D01*
X322180Y292763D01*
X320792Y293338D01*
D02*
G37*
G36*
X306282Y288258D02*
X304779D01*
X303391Y287683D01*
X302328Y286620D01*
X301753Y285231D01*
Y283729D01*
X302328Y282340D01*
X303391Y281277D01*
X304779Y280702D01*
X306282D01*
X307671Y281277D01*
X308734Y282340D01*
X309309Y283729D01*
Y285231D01*
X308734Y286620D01*
X307671Y287683D01*
X306282Y288258D01*
D02*
G37*
G36*
X331111Y284496D02*
X329608D01*
X328220Y283921D01*
X327157Y282858D01*
X326582Y281469D01*
Y279967D01*
X327157Y278578D01*
X328220Y277515D01*
X329608Y276940D01*
X331111D01*
X332500Y277515D01*
X333563Y278578D01*
X334138Y279967D01*
Y281469D01*
X333563Y282858D01*
X332500Y283921D01*
X331111Y284496D01*
D02*
G37*
G36*
X336281Y275294D02*
X334778D01*
X333390Y274719D01*
X332327Y273656D01*
X331752Y272268D01*
Y270765D01*
X332327Y269376D01*
X333390Y268313D01*
X334778Y267738D01*
X336281D01*
X337670Y268313D01*
X338732Y269376D01*
X339308Y270765D01*
Y272268D01*
X338732Y273656D01*
X337670Y274719D01*
X336281Y275294D01*
D02*
G37*
G36*
X301282Y274288D02*
X299779D01*
X298391Y273713D01*
X297328Y272650D01*
X296753Y271262D01*
Y269758D01*
X297328Y268370D01*
X298391Y267307D01*
X299779Y266732D01*
X301282D01*
X302671Y267307D01*
X303734Y268370D01*
X304309Y269758D01*
Y271262D01*
X303734Y272650D01*
X302671Y273713D01*
X301282Y274288D01*
D02*
G37*
G36*
X25341Y273551D02*
X23839D01*
X22450Y272976D01*
X21387Y271913D01*
X20812Y270525D01*
Y269022D01*
X21387Y267633D01*
X22450Y266570D01*
X23839Y265995D01*
X25341D01*
X26730Y266570D01*
X27793Y267633D01*
X28368Y269022D01*
Y270525D01*
X27793Y271913D01*
X26730Y272976D01*
X25341Y273551D01*
D02*
G37*
G36*
X270604Y254620D02*
X269102D01*
X267713Y254045D01*
X266650Y252982D01*
X266075Y251594D01*
Y250091D01*
X266650Y248702D01*
X267713Y247639D01*
X269102Y247064D01*
X270604D01*
X271993Y247639D01*
X273056Y248702D01*
X273631Y250091D01*
Y251594D01*
X273056Y252982D01*
X271993Y254045D01*
X270604Y254620D01*
D02*
G37*
G36*
X288284Y254512D02*
X286781D01*
X285393Y253937D01*
X284330Y252874D01*
X283755Y251486D01*
Y249982D01*
X284330Y248594D01*
X285393Y247531D01*
X286781Y246956D01*
X288284D01*
X289673Y247531D01*
X290736Y248594D01*
X291311Y249982D01*
Y251486D01*
X290736Y252874D01*
X289673Y253937D01*
X288284Y254512D01*
D02*
G37*
G36*
X214280Y226669D02*
X212777D01*
X211389Y226094D01*
X210326Y225031D01*
X209751Y223642D01*
Y222139D01*
X210326Y220751D01*
X211389Y219688D01*
X212777Y219113D01*
X214280D01*
X215669Y219688D01*
X216732Y220751D01*
X217307Y222139D01*
Y223642D01*
X216732Y225031D01*
X215669Y226094D01*
X214280Y226669D01*
D02*
G37*
G36*
X813859Y229782D02*
X812141D01*
X810480Y229337D01*
X808992Y228478D01*
X807776Y227262D01*
X806917Y225774D01*
X806472Y224114D01*
Y222395D01*
X806917Y220734D01*
X807776Y219246D01*
X808992Y218030D01*
X810480Y217171D01*
X812141Y216726D01*
X813859D01*
X815520Y217171D01*
X817008Y218030D01*
X818224Y219246D01*
X819083Y220734D01*
X819528Y222395D01*
Y224114D01*
X819083Y225774D01*
X818224Y227262D01*
X817008Y228478D01*
X815520Y229337D01*
X813859Y229782D01*
D02*
G37*
G36*
X92291Y218000D02*
X90788D01*
X89400Y217425D01*
X88337Y216362D01*
X87762Y214974D01*
Y213470D01*
X88337Y212082D01*
X89400Y211019D01*
X90788Y210444D01*
X92291D01*
X93680Y211019D01*
X94743Y212082D01*
X95318Y213470D01*
Y214974D01*
X94743Y216362D01*
X93680Y217425D01*
X92291Y218000D01*
D02*
G37*
G36*
X117741Y213986D02*
X116238D01*
X114850Y213411D01*
X113787Y212348D01*
X113212Y210959D01*
Y209457D01*
X113787Y208068D01*
X114850Y207005D01*
X116238Y206430D01*
X117741D01*
X119130Y207005D01*
X120193Y208068D01*
X120768Y209457D01*
Y210959D01*
X120193Y212348D01*
X119130Y213411D01*
X117741Y213986D01*
D02*
G37*
G36*
X223156Y212349D02*
X221653D01*
X220264Y211774D01*
X219201Y210711D01*
X218626Y209322D01*
Y207819D01*
X219201Y206431D01*
X220264Y205368D01*
X221653Y204793D01*
X223156D01*
X224544Y205368D01*
X225607Y206431D01*
X226182Y207819D01*
Y209322D01*
X225607Y210711D01*
X224544Y211774D01*
X223156Y212349D01*
D02*
G37*
G36*
X113783Y190723D02*
X112280D01*
X110891Y190148D01*
X109828Y189085D01*
X109253Y187697D01*
Y186194D01*
X109828Y184805D01*
X110891Y183742D01*
X112280Y183167D01*
X113783D01*
X115171Y183742D01*
X116234Y184805D01*
X116809Y186194D01*
Y187697D01*
X116234Y189085D01*
X115171Y190148D01*
X113783Y190723D01*
D02*
G37*
G36*
X169223Y187419D02*
X167721D01*
X166332Y186844D01*
X165269Y185781D01*
X164694Y184392D01*
Y182889D01*
X165269Y181501D01*
X166332Y180438D01*
X167721Y179863D01*
X169223D01*
X170612Y180438D01*
X171675Y181501D01*
X172250Y182889D01*
Y184392D01*
X171675Y185781D01*
X170612Y186844D01*
X169223Y187419D01*
D02*
G37*
G36*
X189032Y172410D02*
X187528D01*
X186140Y171835D01*
X185077Y170772D01*
X184502Y169383D01*
Y167880D01*
X185077Y166492D01*
X186140Y165429D01*
X187528Y164854D01*
X189032D01*
X190420Y165429D01*
X191483Y166492D01*
X192058Y167880D01*
Y169383D01*
X191483Y170772D01*
X190420Y171835D01*
X189032Y172410D01*
D02*
G37*
G36*
X214636Y172369D02*
X213133D01*
X211744Y171794D01*
X210682Y170731D01*
X210106Y169343D01*
Y167840D01*
X210682Y166451D01*
X211744Y165388D01*
X213133Y164813D01*
X214636D01*
X216024Y165388D01*
X217087Y166451D01*
X217662Y167840D01*
Y169343D01*
X217087Y170731D01*
X216024Y171794D01*
X214636Y172369D01*
D02*
G37*
G36*
X813859Y177777D02*
X812141D01*
X810480Y177332D01*
X808992Y176473D01*
X807776Y175257D01*
X806917Y173769D01*
X806472Y172109D01*
Y170390D01*
X806917Y168729D01*
X807776Y167241D01*
X808992Y166026D01*
X810480Y165166D01*
X812141Y164721D01*
X813859D01*
X815520Y165166D01*
X817008Y166026D01*
X818224Y167241D01*
X819083Y168729D01*
X819528Y170390D01*
Y172109D01*
X819083Y173769D01*
X818224Y175257D01*
X817008Y176473D01*
X815520Y177332D01*
X813859Y177777D01*
D02*
G37*
G36*
X754403Y145777D02*
X752900D01*
X751512Y145202D01*
X750449Y144139D01*
X749874Y142751D01*
Y141248D01*
X750449Y139859D01*
X751512Y138796D01*
X752900Y138221D01*
X754403D01*
X755792Y138796D01*
X756854Y139859D01*
X757430Y141248D01*
Y142751D01*
X756854Y144139D01*
X755792Y145202D01*
X754403Y145777D01*
D02*
G37*
G36*
X680203Y140558D02*
X678700D01*
X677312Y139983D01*
X676249Y138920D01*
X675674Y137531D01*
Y136028D01*
X676249Y134640D01*
X677312Y133577D01*
X678700Y133002D01*
X680203D01*
X681592Y133577D01*
X682654Y134640D01*
X683230Y136028D01*
Y137531D01*
X682654Y138920D01*
X681592Y139983D01*
X680203Y140558D01*
D02*
G37*
G36*
X775892Y139685D02*
X774389D01*
X773000Y139110D01*
X771937Y138047D01*
X771362Y136659D01*
Y135156D01*
X771937Y133767D01*
X773000Y132704D01*
X774389Y132129D01*
X775892D01*
X777280Y132704D01*
X778343Y133767D01*
X778918Y135156D01*
Y136659D01*
X778343Y138047D01*
X777280Y139110D01*
X775892Y139685D01*
D02*
G37*
G36*
X813859Y119277D02*
X812141D01*
X810480Y118832D01*
X808992Y117973D01*
X807776Y116757D01*
X806917Y115269D01*
X806472Y113609D01*
Y111890D01*
X806917Y110230D01*
X807776Y108741D01*
X808992Y107526D01*
X810480Y106666D01*
X812141Y106221D01*
X813859D01*
X815520Y106666D01*
X817008Y107526D01*
X818224Y108741D01*
X819083Y110230D01*
X819528Y111890D01*
Y113609D01*
X819083Y115269D01*
X818224Y116757D01*
X817008Y117973D01*
X815520Y118832D01*
X813859Y119277D01*
D02*
G37*
G36*
X723695Y116570D02*
X721308D01*
X719001Y115953D01*
X716934Y114759D01*
X715245Y113070D01*
X714052Y111003D01*
X713434Y108696D01*
Y106309D01*
X714052Y104002D01*
X715245Y101934D01*
X716934Y100246D01*
X719001Y99052D01*
X721308Y98434D01*
X723695D01*
X726002Y99052D01*
X728070Y100246D01*
X729758Y101934D01*
X730952Y104002D01*
X731570Y106309D01*
Y108696D01*
X730952Y111003D01*
X729758Y113070D01*
X728070Y114759D01*
X726002Y115953D01*
X723695Y116570D01*
D02*
G37*
G36*
X211063Y102330D02*
X209561D01*
X208172Y101755D01*
X207109Y100692D01*
X206534Y99304D01*
Y97801D01*
X207109Y96412D01*
X208172Y95349D01*
X209561Y94774D01*
X211063D01*
X212452Y95349D01*
X213515Y96412D01*
X214090Y97801D01*
Y99304D01*
X213515Y100692D01*
X212452Y101755D01*
X211063Y102330D01*
D02*
G37*
G36*
X650738Y101314D02*
X649234D01*
X647846Y100739D01*
X646783Y99676D01*
X646208Y98287D01*
Y96784D01*
X646783Y95396D01*
X647846Y94333D01*
X649234Y93758D01*
X650738D01*
X652126Y94333D01*
X653189Y95396D01*
X653764Y96784D01*
Y98287D01*
X653189Y99676D01*
X652126Y100739D01*
X650738Y101314D01*
D02*
G37*
G36*
X178359Y90328D02*
X176641D01*
X174980Y89883D01*
X173492Y89024D01*
X172276Y87808D01*
X171417Y86320D01*
X170972Y84659D01*
Y82941D01*
X171417Y81280D01*
X172276Y79792D01*
X173492Y78576D01*
X174980Y77717D01*
X176641Y77272D01*
X178359D01*
X180020Y77717D01*
X181508Y78576D01*
X182724Y79792D01*
X183583Y81280D01*
X184028Y82941D01*
Y84659D01*
X183583Y86320D01*
X182724Y87808D01*
X181508Y89024D01*
X180020Y89883D01*
X178359Y90328D01*
D02*
G37*
G36*
X201252Y77634D02*
X199748D01*
X198360Y77059D01*
X197297Y75996D01*
X196722Y74608D01*
Y73105D01*
X197297Y71716D01*
X198360Y70653D01*
X199748Y70078D01*
X201252D01*
X202640Y70653D01*
X203703Y71716D01*
X204278Y73105D01*
Y74608D01*
X203703Y75996D01*
X202640Y77059D01*
X201252Y77634D01*
D02*
G37*
G36*
X220252Y77384D02*
X218748D01*
X217360Y76809D01*
X216297Y75746D01*
X215722Y74358D01*
Y72854D01*
X216297Y71466D01*
X217360Y70403D01*
X218748Y69828D01*
X220252D01*
X221640Y70403D01*
X222703Y71466D01*
X223278Y72854D01*
Y74358D01*
X222703Y75746D01*
X221640Y76809D01*
X220252Y77384D01*
D02*
G37*
G36*
X723695Y69070D02*
X721308D01*
X719001Y68453D01*
X716934Y67259D01*
X715245Y65570D01*
X714052Y63502D01*
X713434Y61196D01*
Y58809D01*
X714052Y56502D01*
X715245Y54434D01*
X716934Y52746D01*
X719001Y51552D01*
X721308Y50934D01*
X723695D01*
X726002Y51552D01*
X728070Y52746D01*
X729758Y54434D01*
X730952Y56502D01*
X731570Y58809D01*
Y61196D01*
X730952Y63502D01*
X729758Y65570D01*
X728070Y67259D01*
X726002Y68453D01*
X723695Y69070D01*
D02*
G37*
G36*
X211063Y53816D02*
X209561D01*
X208172Y53241D01*
X207109Y52178D01*
X206534Y50789D01*
Y49286D01*
X207109Y47898D01*
X208172Y46835D01*
X209561Y46260D01*
X211063D01*
X212452Y46835D01*
X213515Y47898D01*
X214090Y49286D01*
Y50789D01*
X213515Y52178D01*
X212452Y53241D01*
X211063Y53816D01*
D02*
G37*
G36*
X670092Y39192D02*
X668589D01*
X667200Y38617D01*
X666137Y37554D01*
X665562Y36165D01*
Y34662D01*
X666137Y33274D01*
X667200Y32211D01*
X668589Y31636D01*
X670092D01*
X671480Y32211D01*
X672543Y33274D01*
X673118Y34662D01*
Y36165D01*
X672543Y37554D01*
X671480Y38617D01*
X670092Y39192D01*
D02*
G37*
G36*
X650143D02*
X648640D01*
X647251Y38617D01*
X646188Y37554D01*
X645613Y36165D01*
Y34662D01*
X646188Y33274D01*
X647251Y32211D01*
X648640Y31636D01*
X650143D01*
X651531Y32211D01*
X652594Y33274D01*
X653169Y34662D01*
Y36165D01*
X652594Y37554D01*
X651531Y38617D01*
X650143Y39192D01*
D02*
G37*
G36*
X630193D02*
X628690D01*
X627302Y38617D01*
X626239Y37554D01*
X625664Y36165D01*
Y34662D01*
X626239Y33274D01*
X627302Y32211D01*
X628690Y31636D01*
X630193D01*
X631582Y32211D01*
X632645Y33274D01*
X633220Y34662D01*
Y36165D01*
X632645Y37554D01*
X631582Y38617D01*
X630193Y39192D01*
D02*
G37*
G36*
X610244D02*
X608741D01*
X607352Y38617D01*
X606290Y37554D01*
X605714Y36165D01*
Y34662D01*
X606290Y33274D01*
X607352Y32211D01*
X608741Y31636D01*
X610244D01*
X611632Y32211D01*
X612695Y33274D01*
X613270Y34662D01*
Y36165D01*
X612695Y37554D01*
X611632Y38617D01*
X610244Y39192D01*
D02*
G37*
G36*
X690604Y38973D02*
X689101D01*
X687712Y38398D01*
X686650Y37335D01*
X686075Y35947D01*
Y34444D01*
X686650Y33055D01*
X687712Y31992D01*
X689101Y31417D01*
X690604D01*
X691993Y31992D01*
X693055Y33055D01*
X693631Y34444D01*
Y35947D01*
X693055Y37335D01*
X691993Y38398D01*
X690604Y38973D01*
D02*
G37*
G36*
X178359Y42728D02*
X176641D01*
X174980Y42283D01*
X173492Y41424D01*
X172276Y40208D01*
X171417Y38720D01*
X170972Y37059D01*
Y35341D01*
X171417Y33680D01*
X172276Y32192D01*
X173492Y30976D01*
X174980Y30117D01*
X176641Y29672D01*
X178359D01*
X180020Y30117D01*
X181508Y30976D01*
X182724Y32192D01*
X183583Y33680D01*
X184028Y35341D01*
Y37059D01*
X183583Y38720D01*
X182724Y40208D01*
X181508Y41424D01*
X180020Y42283D01*
X178359Y42728D01*
D02*
G37*
G36*
X762862Y36193D02*
X761359D01*
X759970Y35617D01*
X758907Y34555D01*
X758332Y33166D01*
Y31663D01*
X758907Y30275D01*
X759970Y29212D01*
X761359Y28637D01*
X762862D01*
X764250Y29212D01*
X765313Y30275D01*
X765888Y31663D01*
Y33166D01*
X765313Y34555D01*
X764250Y35617D01*
X762862Y36193D01*
D02*
G37*
G36*
X220252Y28870D02*
X218748D01*
X217360Y28295D01*
X216297Y27232D01*
X215722Y25844D01*
Y24341D01*
X216297Y22952D01*
X217360Y21889D01*
X218748Y21314D01*
X220252D01*
X221640Y21889D01*
X222703Y22952D01*
X223278Y24341D01*
Y25844D01*
X222703Y27232D01*
X221640Y28295D01*
X220252Y28870D01*
D02*
G37*
G36*
X201252D02*
X199748D01*
X198360Y28295D01*
X197297Y27232D01*
X196722Y25844D01*
Y24341D01*
X197297Y22952D01*
X198360Y21889D01*
X199748Y21314D01*
X201252D01*
X202640Y21889D01*
X203703Y22952D01*
X204278Y24341D01*
Y25844D01*
X203703Y27232D01*
X202640Y28295D01*
X201252Y28870D01*
D02*
G37*
G36*
X139980Y26100D02*
X138477D01*
X137088Y25524D01*
X136025Y24462D01*
X135450Y23073D01*
Y21570D01*
X136025Y20182D01*
X137088Y19119D01*
X138477Y18544D01*
X139980D01*
X141368Y19119D01*
X142431Y20182D01*
X143006Y21570D01*
Y23073D01*
X142431Y24462D01*
X141368Y25524D01*
X139980Y26100D01*
D02*
G37*
G36*
X120007Y26038D02*
X118504D01*
X117115Y25463D01*
X116052Y24400D01*
X115477Y23012D01*
Y21509D01*
X116052Y20120D01*
X117115Y19057D01*
X118504Y18482D01*
X120007D01*
X121395Y19057D01*
X122458Y20120D01*
X123033Y21509D01*
Y23012D01*
X122458Y24400D01*
X121395Y25463D01*
X120007Y26038D01*
D02*
G37*
G36*
X160009Y25622D02*
X158506D01*
X157118Y25047D01*
X156055Y23984D01*
X155480Y22596D01*
Y21093D01*
X156055Y19704D01*
X157118Y18641D01*
X158506Y18066D01*
X160009D01*
X161398Y18641D01*
X162461Y19704D01*
X163036Y21093D01*
Y22596D01*
X162461Y23984D01*
X161398Y25047D01*
X160009Y25622D01*
D02*
G37*
%LPD*%
G36*
X297494Y415275D02*
X297552Y415253D01*
X297630Y415234D01*
X297730Y415217D01*
X297993Y415191D01*
X298342Y415175D01*
X298775Y415170D01*
Y412630D01*
X298548Y412629D01*
X297630Y412566D01*
X297552Y412547D01*
X297494Y412525D01*
X297458Y412500D01*
Y415300D01*
X297494Y415275D01*
D02*
G37*
G36*
X274633Y314724D02*
X274690Y314702D01*
X274769Y314683D01*
X274869Y314666D01*
X275132Y314640D01*
X275480Y314624D01*
X275914Y314619D01*
Y312079D01*
X275686Y312078D01*
X274769Y312015D01*
X274690Y311996D01*
X274633Y311974D01*
X274597Y311949D01*
Y314749D01*
X274633Y314724D01*
D02*
G37*
G36*
X267092Y303697D02*
X267151Y303671D01*
X267231Y303647D01*
X267332Y303627D01*
X267455Y303610D01*
X267762Y303585D01*
X268379Y303571D01*
X268219Y301031D01*
X267991Y301030D01*
X267005Y300966D01*
X266950Y300949D01*
X266918Y300930D01*
X267054Y303727D01*
X267092Y303697D01*
D02*
G37*
G36*
X504032Y299590D02*
X503996Y299615D01*
X503938Y299637D01*
X503860Y299656D01*
X503760Y299673D01*
X503497Y299699D01*
X503148Y299715D01*
X502715Y299720D01*
Y302260D01*
X502942Y302261D01*
X503860Y302324D01*
X503938Y302343D01*
X503996Y302365D01*
X504032Y302390D01*
Y299590D01*
D02*
G37*
G36*
X679177Y296322D02*
X679308Y296306D01*
X679783Y296280D01*
X682921Y296246D01*
Y292436D01*
X679117Y292342D01*
Y296340D01*
X679177Y296322D01*
D02*
G37*
G36*
X479837Y285555D02*
X479801Y285580D01*
X479744Y285602D01*
X479665Y285622D01*
X479565Y285639D01*
X479302Y285665D01*
X478954Y285680D01*
X478521Y285686D01*
Y288225D01*
X478748Y288227D01*
X479665Y288289D01*
X479744Y288309D01*
X479801Y288331D01*
X479837Y288356D01*
Y285555D01*
D02*
G37*
G36*
X491291Y279849D02*
X491256Y279872D01*
X491199Y279893D01*
X491121Y279911D01*
X491022Y279927D01*
X490760Y279951D01*
X490205Y279969D01*
X489978Y279970D01*
X489928Y282511D01*
X490155Y282512D01*
X490974Y282560D01*
X491074Y282578D01*
X491153Y282599D01*
X491211Y282623D01*
X491248Y282649D01*
X491291Y279849D01*
D02*
G37*
%LPC*%
G36*
X141638Y648914D02*
X140164Y648621D01*
X138915Y647785D01*
X138080Y646536D01*
X137786Y645062D01*
X138080Y643588D01*
X138915Y642338D01*
X140164Y641503D01*
X141638Y641210D01*
X143112Y641503D01*
X144362Y642338D01*
X145197Y643588D01*
X145490Y645062D01*
X145197Y646536D01*
X144362Y647785D01*
X143112Y648621D01*
X141638Y648914D01*
D02*
G37*
G36*
X135637Y638340D02*
X134163Y638047D01*
X132914Y637212D01*
X132079Y635962D01*
X131967Y635400D01*
X130672D01*
X130560Y635962D01*
X129725Y637212D01*
X128475Y638047D01*
X127001Y638340D01*
X125527Y638047D01*
X124277Y637212D01*
X123442Y635962D01*
X123149Y634488D01*
X123442Y633014D01*
X124277Y631764D01*
X125527Y630929D01*
X127001Y630636D01*
X128475Y630929D01*
X129725Y631764D01*
X130560Y633014D01*
X130672Y633576D01*
X131967D01*
X132079Y633014D01*
X132914Y631764D01*
X134163Y630929D01*
X135637Y630636D01*
X137111Y630929D01*
X138361Y631764D01*
X139196Y633014D01*
X139489Y634488D01*
X139196Y635962D01*
X138361Y637212D01*
X137111Y638047D01*
X135637Y638340D01*
D02*
G37*
G36*
X375158Y620165D02*
X373684Y619871D01*
X372435Y619036D01*
X371600Y617787D01*
X371306Y616313D01*
X371600Y614839D01*
X372435Y613589D01*
X373684Y612754D01*
X375158Y612461D01*
X376632Y612754D01*
X377882Y613589D01*
X378717Y614839D01*
X379010Y616313D01*
X378717Y617787D01*
X377882Y619036D01*
X376632Y619871D01*
X375158Y620165D01*
D02*
G37*
G36*
X366158D02*
X364684Y619871D01*
X363434Y619036D01*
X362599Y617787D01*
X362306Y616313D01*
X362599Y614839D01*
X363434Y613589D01*
X364684Y612754D01*
X366158Y612461D01*
X367632Y612754D01*
X368882Y613589D01*
X369717Y614839D01*
X370010Y616313D01*
X369717Y617787D01*
X368882Y619036D01*
X367632Y619871D01*
X366158Y620165D01*
D02*
G37*
G36*
X304296Y620160D02*
X302822Y619867D01*
X301572Y619032D01*
X300737Y617783D01*
X300444Y616308D01*
X300737Y614834D01*
X301572Y613585D01*
X302822Y612750D01*
X304296Y612456D01*
X305770Y612750D01*
X307020Y613585D01*
X307855Y614834D01*
X308148Y616308D01*
X307855Y617783D01*
X307020Y619032D01*
X305770Y619867D01*
X304296Y620160D01*
D02*
G37*
G36*
X295296D02*
X293822Y619867D01*
X292572Y619032D01*
X291737Y617783D01*
X291444Y616308D01*
X291737Y614834D01*
X292572Y613585D01*
X293822Y612750D01*
X295296Y612456D01*
X296770Y612750D01*
X298020Y613585D01*
X298855Y614834D01*
X299148Y616308D01*
X298855Y617783D01*
X298020Y619032D01*
X296770Y619867D01*
X295296Y620160D01*
D02*
G37*
G36*
X233440D02*
X231966Y619867D01*
X230717Y619032D01*
X229882Y617783D01*
X229588Y616308D01*
X229882Y614834D01*
X230717Y613585D01*
X231966Y612750D01*
X233440Y612456D01*
X234914Y612750D01*
X236164Y613585D01*
X236999Y614834D01*
X237292Y616308D01*
X236999Y617783D01*
X236164Y619032D01*
X234914Y619867D01*
X233440Y620160D01*
D02*
G37*
G36*
X224440D02*
X222966Y619867D01*
X221717Y619032D01*
X220882Y617783D01*
X220588Y616308D01*
X220882Y614834D01*
X221717Y613585D01*
X222966Y612750D01*
X224440Y612456D01*
X225914Y612750D01*
X227164Y613585D01*
X227999Y614834D01*
X228292Y616308D01*
X227999Y617783D01*
X227164Y619032D01*
X225914Y619867D01*
X224440Y620160D01*
D02*
G37*
G36*
X162666D02*
X161192Y619867D01*
X159942Y619032D01*
X159107Y617783D01*
X158814Y616308D01*
X159107Y614834D01*
X159942Y613585D01*
X161192Y612750D01*
X162666Y612456D01*
X164140Y612750D01*
X165390Y613585D01*
X166225Y614834D01*
X166518Y616308D01*
X166225Y617783D01*
X165390Y619032D01*
X164140Y619867D01*
X162666Y620160D01*
D02*
G37*
G36*
X153666D02*
X152192Y619867D01*
X150942Y619032D01*
X150107Y617783D01*
X149814Y616308D01*
X150107Y614834D01*
X150942Y613585D01*
X152192Y612750D01*
X153666Y612456D01*
X155140Y612750D01*
X156390Y613585D01*
X157225Y614834D01*
X157518Y616308D01*
X157225Y617783D01*
X156390Y619032D01*
X155140Y619867D01*
X153666Y620160D01*
D02*
G37*
G36*
X237371Y594781D02*
X235868D01*
X234480Y594206D01*
X233417Y593143D01*
X232842Y591754D01*
Y590252D01*
X233417Y588863D01*
X234480Y587800D01*
X235868Y587225D01*
X237371D01*
X238760Y587800D01*
X239823Y588863D01*
X240398Y590252D01*
Y591754D01*
X239823Y593143D01*
X238760Y594206D01*
X237371Y594781D01*
D02*
G37*
G36*
X227262Y579380D02*
X225759D01*
X224371Y578805D01*
X223308Y577742D01*
X222733Y576354D01*
Y574851D01*
X223308Y573462D01*
X224371Y572399D01*
X225759Y571824D01*
X227262D01*
X228651Y572399D01*
X229713Y573462D01*
X230289Y574851D01*
Y576354D01*
X229713Y577742D01*
X228651Y578805D01*
X227262Y579380D01*
D02*
G37*
G36*
X749548Y683980D02*
X748074Y683687D01*
X746825Y682852D01*
X745990Y681602D01*
X745696Y680128D01*
X745990Y678654D01*
X746825Y677405D01*
X748074Y676570D01*
X749548Y676276D01*
X751023Y676570D01*
X752272Y677405D01*
X753107Y678654D01*
X753400Y680128D01*
X753107Y681602D01*
X752272Y682852D01*
X751023Y683687D01*
X749548Y683980D01*
D02*
G37*
G36*
Y655055D02*
X748074Y654762D01*
X746825Y653927D01*
X745990Y652677D01*
X745696Y651203D01*
X745990Y649729D01*
X746825Y648479D01*
X748074Y647644D01*
X749548Y647351D01*
X751023Y647644D01*
X752272Y648479D01*
X753107Y649729D01*
X753400Y651203D01*
X753107Y652677D01*
X752272Y653927D01*
X751023Y654762D01*
X749548Y655055D01*
D02*
G37*
G36*
X795804Y612044D02*
X794330Y611751D01*
X793081Y610916D01*
X792246Y609666D01*
X791952Y608192D01*
X792246Y606718D01*
X793081Y605468D01*
X794330Y604633D01*
X795804Y604340D01*
X797279Y604633D01*
X798528Y605468D01*
X799363Y606718D01*
X799656Y608192D01*
X799363Y609666D01*
X798528Y610916D01*
X797279Y611751D01*
X795804Y612044D01*
D02*
G37*
G36*
X58746Y602258D02*
X57272Y601965D01*
X56022Y601130D01*
X55187Y599880D01*
X54894Y598406D01*
X55187Y596932D01*
X56022Y595682D01*
X57272Y594847D01*
X58746Y594554D01*
X60220Y594847D01*
X61470Y595682D01*
X62305Y596932D01*
X62598Y598406D01*
X62305Y599880D01*
X61470Y601130D01*
X60220Y601965D01*
X58746Y602258D01*
D02*
G37*
G36*
X795804Y599598D02*
X794330Y599305D01*
X793081Y598470D01*
X792246Y597220D01*
X791952Y595746D01*
X792246Y594272D01*
X793081Y593022D01*
X794330Y592187D01*
X795804Y591894D01*
X797279Y592187D01*
X798528Y593022D01*
X799363Y594272D01*
X799656Y595746D01*
X799363Y597220D01*
X798528Y598470D01*
X797279Y599305D01*
X795804Y599598D01*
D02*
G37*
G36*
X52070Y596180D02*
X50596Y595887D01*
X49346Y595052D01*
X48511Y593802D01*
X48218Y592328D01*
X48511Y590854D01*
X49346Y589604D01*
X50596Y588769D01*
X52070Y588476D01*
X53544Y588769D01*
X54794Y589604D01*
X55629Y590854D01*
X55922Y592328D01*
X55629Y593802D01*
X54794Y595052D01*
X53544Y595887D01*
X52070Y596180D01*
D02*
G37*
G36*
X58746Y589812D02*
X57272Y589519D01*
X56022Y588684D01*
X55187Y587434D01*
X54894Y585960D01*
X55187Y584486D01*
X56022Y583236D01*
X57272Y582401D01*
X58746Y582108D01*
X60220Y582401D01*
X61470Y583236D01*
X62305Y584486D01*
X62598Y585960D01*
X62305Y587434D01*
X61470Y588684D01*
X60220Y589519D01*
X58746Y589812D01*
D02*
G37*
G36*
X66845Y564526D02*
X65371Y564233D01*
X64121Y563398D01*
X63286Y562149D01*
X62993Y560675D01*
X63286Y559200D01*
X64121Y557951D01*
X65371Y557116D01*
X66845Y556823D01*
X68319Y557116D01*
X69569Y557951D01*
X70404Y559200D01*
X70697Y560675D01*
X70404Y562149D01*
X69569Y563398D01*
X68319Y564233D01*
X66845Y564526D01*
D02*
G37*
G36*
X57273Y544815D02*
X55799Y544521D01*
X54549Y543686D01*
X53714Y542437D01*
X53421Y540962D01*
X53714Y539488D01*
X54549Y538239D01*
X55799Y537404D01*
X57273Y537110D01*
X58747Y537404D01*
X59997Y538239D01*
X60832Y539488D01*
X61125Y540962D01*
X60832Y542437D01*
X59997Y543686D01*
X58747Y544521D01*
X57273Y544815D01*
D02*
G37*
G36*
X66836Y504425D02*
X65362Y504131D01*
X64112Y503296D01*
X63277Y502047D01*
X62984Y500573D01*
X63277Y499099D01*
X64112Y497849D01*
X65362Y497014D01*
X66836Y496721D01*
X68310Y497014D01*
X69559Y497849D01*
X70395Y499099D01*
X70688Y500573D01*
X70395Y502047D01*
X69559Y503296D01*
X68310Y504131D01*
X66836Y504425D01*
D02*
G37*
G36*
X66802Y440732D02*
X65328Y440439D01*
X64078Y439604D01*
X63243Y438354D01*
X62950Y436880D01*
X63243Y435406D01*
X64078Y434156D01*
X65328Y433321D01*
X66802Y433028D01*
X68276Y433321D01*
X69526Y434156D01*
X70361Y435406D01*
X70654Y436880D01*
X70361Y438354D01*
X69526Y439604D01*
X68276Y440439D01*
X66802Y440732D01*
D02*
G37*
G36*
X54563Y418476D02*
X53089Y418183D01*
X51839Y417348D01*
X51004Y416099D01*
X50711Y414624D01*
X51004Y413150D01*
X51839Y411901D01*
X53089Y411066D01*
X54563Y410772D01*
X56037Y411066D01*
X57287Y411901D01*
X58122Y413150D01*
X58415Y414624D01*
X58122Y416099D01*
X57287Y417348D01*
X56037Y418183D01*
X54563Y418476D01*
D02*
G37*
G36*
X66869Y401550D02*
X65395Y401257D01*
X64145Y400422D01*
X63310Y399173D01*
X63017Y397698D01*
X63310Y396224D01*
X64145Y394975D01*
X65395Y394140D01*
X66869Y393846D01*
X68343Y394140D01*
X69593Y394975D01*
X70428Y396224D01*
X70721Y397698D01*
X70428Y399173D01*
X69593Y400422D01*
X68343Y401257D01*
X66869Y401550D01*
D02*
G37*
G36*
X56971Y382910D02*
X55497Y382617D01*
X54247Y381782D01*
X53412Y380533D01*
X53119Y379058D01*
X53412Y377584D01*
X54247Y376335D01*
X55497Y375500D01*
X56971Y375206D01*
X58445Y375500D01*
X59695Y376335D01*
X60530Y377584D01*
X60823Y379058D01*
X60530Y380533D01*
X59695Y381782D01*
X58445Y382617D01*
X56971Y382910D01*
D02*
G37*
G36*
X573534Y340960D02*
X572060Y340667D01*
X570810Y339832D01*
X569975Y338582D01*
X569682Y337108D01*
X569975Y335634D01*
X570810Y334384D01*
X572060Y333549D01*
X573534Y333256D01*
X575008Y333549D01*
X576257Y334384D01*
X577092Y335634D01*
X577386Y337108D01*
X577092Y338582D01*
X576257Y339832D01*
X575008Y340667D01*
X573534Y340960D01*
D02*
G37*
G36*
X559818D02*
X558344Y340667D01*
X557094Y339832D01*
X556259Y338582D01*
X555965Y337108D01*
X556259Y335634D01*
X557094Y334384D01*
X558344Y333549D01*
X559818Y333256D01*
X561292Y333549D01*
X562541Y334384D01*
X563376Y335634D01*
X563670Y337108D01*
X563376Y338582D01*
X562541Y339832D01*
X561292Y340667D01*
X559818Y340960D01*
D02*
G37*
G36*
X515874Y339261D02*
X514400Y338968D01*
X513150Y338133D01*
X512315Y336883D01*
X512022Y335409D01*
X512315Y333935D01*
X513150Y332686D01*
X514400Y331851D01*
X515874Y331557D01*
X517348Y331851D01*
X518598Y332686D01*
X519433Y333935D01*
X519726Y335409D01*
X519433Y336883D01*
X518598Y338133D01*
X517348Y338968D01*
X515874Y339261D01*
D02*
G37*
G36*
X544328Y338866D02*
X542854Y338573D01*
X541605Y337738D01*
X540770Y336488D01*
X540476Y335014D01*
X540770Y333540D01*
X541605Y332290D01*
X542854Y331455D01*
X544328Y331162D01*
X545802Y331455D01*
X547052Y332290D01*
X547887Y333540D01*
X548180Y335014D01*
X547887Y336488D01*
X547052Y337738D01*
X545802Y338573D01*
X544328Y338866D01*
D02*
G37*
G36*
X530612D02*
X529138Y338573D01*
X527889Y337738D01*
X527054Y336488D01*
X526760Y335014D01*
X527054Y333540D01*
X527889Y332290D01*
X529138Y331455D01*
X530612Y331162D01*
X532086Y331455D01*
X533336Y332290D01*
X534171Y333540D01*
X534464Y335014D01*
X534171Y336488D01*
X533336Y337738D01*
X532086Y338573D01*
X530612Y338866D01*
D02*
G37*
G36*
X66754Y278828D02*
X65280Y278535D01*
X64030Y277700D01*
X63195Y276450D01*
X62902Y274976D01*
X63195Y273502D01*
X64030Y272252D01*
X65280Y271417D01*
X66754Y271124D01*
X68228Y271417D01*
X69478Y272252D01*
X70313Y273502D01*
X70606Y274976D01*
X70313Y276450D01*
X69478Y277700D01*
X68228Y278535D01*
X66754Y278828D01*
D02*
G37*
G36*
X59210Y189525D02*
X57736Y189231D01*
X56486Y188396D01*
X55651Y187147D01*
X55358Y185673D01*
X55651Y184199D01*
X56486Y182949D01*
X57736Y182114D01*
X59210Y181821D01*
X60684Y182114D01*
X61933Y182949D01*
X62768Y184199D01*
X63062Y185673D01*
X62768Y187147D01*
X61933Y188396D01*
X60684Y189231D01*
X59210Y189525D01*
D02*
G37*
G36*
X579819Y152207D02*
X578345Y151914D01*
X577096Y151079D01*
X576261Y149829D01*
X575967Y148355D01*
X576261Y146881D01*
X577096Y145631D01*
X578345Y144796D01*
X579819Y144503D01*
X581293Y144796D01*
X582543Y145631D01*
X583378Y146881D01*
X583671Y148355D01*
X583378Y149829D01*
X582543Y151079D01*
X581293Y151914D01*
X579819Y152207D01*
D02*
G37*
G36*
X90613Y136116D02*
X89139Y135823D01*
X87890Y134988D01*
X87055Y133738D01*
X86762Y132264D01*
X87055Y130790D01*
X87890Y129540D01*
X89139Y128705D01*
X90613Y128412D01*
X92088Y128705D01*
X93337Y129540D01*
X94172Y130790D01*
X94466Y132264D01*
X94172Y133738D01*
X93337Y134988D01*
X92088Y135823D01*
X90613Y136116D01*
D02*
G37*
G36*
X146112Y135788D02*
X144638Y135495D01*
X143389Y134660D01*
X142554Y133410D01*
X142260Y131936D01*
X142554Y130462D01*
X143389Y129212D01*
X144638Y128377D01*
X146112Y128084D01*
X147586Y128377D01*
X148836Y129212D01*
X149671Y130462D01*
X149964Y131936D01*
X149671Y133410D01*
X148836Y134660D01*
X147586Y135495D01*
X146112Y135788D01*
D02*
G37*
G36*
X111438Y135751D02*
X109964Y135458D01*
X108715Y134623D01*
X107879Y133373D01*
X107586Y131899D01*
X107879Y130425D01*
X108715Y129176D01*
X109964Y128341D01*
X111438Y128047D01*
X112912Y128341D01*
X114162Y129176D01*
X114997Y130425D01*
X115290Y131899D01*
X114997Y133373D01*
X114162Y134623D01*
X112912Y135458D01*
X111438Y135751D01*
D02*
G37*
G36*
X566130Y127092D02*
X564656Y126799D01*
X563406Y125964D01*
X562571Y124714D01*
X562278Y123240D01*
X562571Y121766D01*
X563406Y120516D01*
X564656Y119681D01*
X566130Y119388D01*
X567604Y119681D01*
X568853Y120516D01*
X569688Y121766D01*
X569982Y123240D01*
X569688Y124714D01*
X568853Y125964D01*
X567604Y126799D01*
X566130Y127092D01*
D02*
G37*
G36*
X340206Y107630D02*
X338732Y107337D01*
X337482Y106502D01*
X336647Y105252D01*
X336354Y103778D01*
X336647Y102304D01*
X337482Y101054D01*
X338732Y100219D01*
X340206Y99926D01*
X341680Y100219D01*
X342930Y101054D01*
X343765Y102304D01*
X344058Y103778D01*
X343765Y105252D01*
X342930Y106502D01*
X341680Y107337D01*
X340206Y107630D01*
D02*
G37*
G36*
X557502Y116649D02*
X555134Y116337D01*
X552929Y115423D01*
X551034Y113970D01*
X549581Y112076D01*
X548667Y109870D01*
X548355Y107502D01*
X548667Y105135D01*
X549581Y102929D01*
X551034Y101035D01*
X552929Y99581D01*
X555134Y98668D01*
X557502Y98356D01*
X559869Y98668D01*
X562075Y99581D01*
X563969Y101035D01*
X565423Y102929D01*
X566336Y105135D01*
X566648Y107502D01*
X566336Y109870D01*
X565423Y112076D01*
X563969Y113970D01*
X562075Y115423D01*
X559869Y116337D01*
X557502Y116649D01*
D02*
G37*
G36*
X345334Y100112D02*
X343860Y99819D01*
X342610Y98984D01*
X341775Y97734D01*
X341482Y96260D01*
X341775Y94786D01*
X342610Y93536D01*
X343860Y92701D01*
X345334Y92408D01*
X346808Y92701D01*
X348058Y93536D01*
X348893Y94786D01*
X349186Y96260D01*
X348893Y97734D01*
X348058Y98984D01*
X346808Y99819D01*
X345334Y100112D01*
D02*
G37*
G36*
X321270Y99858D02*
X319796Y99565D01*
X318546Y98730D01*
X317711Y97480D01*
X317418Y96006D01*
X317711Y94532D01*
X318546Y93282D01*
X319796Y92447D01*
X321270Y92154D01*
X322744Y92447D01*
X323994Y93282D01*
X324829Y94532D01*
X325122Y96006D01*
X324829Y97480D01*
X323994Y98730D01*
X322744Y99565D01*
X321270Y99858D01*
D02*
G37*
G36*
X380000Y99604D02*
X378526Y99311D01*
X377276Y98476D01*
X376441Y97226D01*
X376148Y95752D01*
X376441Y94278D01*
X377276Y93028D01*
X378526Y92193D01*
X380000Y91900D01*
X381474Y92193D01*
X382724Y93028D01*
X383559Y94278D01*
X383852Y95752D01*
X383559Y97226D01*
X382724Y98476D01*
X381474Y99311D01*
X380000Y99604D01*
D02*
G37*
G36*
X549465Y98938D02*
X547991Y98645D01*
X546741Y97810D01*
X545906Y96560D01*
X545613Y95086D01*
X545906Y93612D01*
X546741Y92363D01*
X547991Y91528D01*
X549465Y91234D01*
X550939Y91528D01*
X552189Y92363D01*
X553024Y93612D01*
X553317Y95086D01*
X553024Y96560D01*
X552189Y97810D01*
X550939Y98645D01*
X549465Y98938D01*
D02*
G37*
G36*
X389651Y94798D02*
X388177Y94505D01*
X386927Y93670D01*
X386092Y92420D01*
X385799Y90946D01*
X386092Y89472D01*
X386927Y88223D01*
X388177Y87388D01*
X389651Y87094D01*
X391125Y87388D01*
X392374Y88223D01*
X393209Y89472D01*
X393503Y90946D01*
X393209Y92420D01*
X392374Y93670D01*
X391125Y94505D01*
X389651Y94798D01*
D02*
G37*
G36*
X400000Y87852D02*
X398526Y87559D01*
X397276Y86724D01*
X396441Y85474D01*
X396148Y84000D01*
X396441Y82526D01*
X397276Y81276D01*
X398526Y80441D01*
X400000Y80148D01*
X401474Y80441D01*
X402724Y81276D01*
X403559Y82526D01*
X403852Y84000D01*
X403559Y85474D01*
X402724Y86724D01*
X401474Y87559D01*
X400000Y87852D01*
D02*
G37*
G36*
X380000D02*
X378526Y87559D01*
X377276Y86724D01*
X376441Y85474D01*
X376148Y84000D01*
X376441Y82526D01*
X377276Y81276D01*
X378526Y80441D01*
X380000Y80148D01*
X381474Y80441D01*
X382724Y81276D01*
X383559Y82526D01*
X383852Y84000D01*
X383559Y85474D01*
X382724Y86724D01*
X381474Y87559D01*
X380000Y87852D01*
D02*
G37*
G36*
X355428D02*
X353954Y87559D01*
X352704Y86724D01*
X351869Y85474D01*
X351576Y84000D01*
X351869Y82526D01*
X352704Y81276D01*
X353954Y80441D01*
X355428Y80148D01*
X356902Y80441D01*
X358152Y81276D01*
X358987Y82526D01*
X359280Y84000D01*
X358987Y85474D01*
X358152Y86724D01*
X356902Y87559D01*
X355428Y87852D01*
D02*
G37*
G36*
X542500Y90384D02*
X540796Y90160D01*
X539208Y89502D01*
X537844Y88456D01*
X536798Y87092D01*
X536140Y85504D01*
X535916Y83800D01*
X536140Y82096D01*
X536798Y80508D01*
X537844Y79144D01*
X539208Y78098D01*
X540796Y77440D01*
X542500Y77216D01*
X544204Y77440D01*
X545792Y78098D01*
X547156Y79144D01*
X548202Y80508D01*
X548860Y82096D01*
X549084Y83800D01*
X548860Y85504D01*
X548202Y87092D01*
X547156Y88456D01*
X545792Y89502D01*
X544204Y90160D01*
X542500Y90384D01*
D02*
G37*
G36*
X389890Y81576D02*
X388416Y81283D01*
X387166Y80448D01*
X386331Y79198D01*
X386038Y77724D01*
X386331Y76250D01*
X387166Y75000D01*
X388416Y74165D01*
X389890Y73872D01*
X391364Y74165D01*
X392614Y75000D01*
X393449Y76250D01*
X393742Y77724D01*
X393449Y79198D01*
X392614Y80448D01*
X391364Y81283D01*
X389890Y81576D01*
D02*
G37*
G36*
X330349Y80906D02*
X328875Y80612D01*
X327626Y79777D01*
X326791Y78528D01*
X326497Y77054D01*
X326791Y75580D01*
X327626Y74330D01*
X328875Y73495D01*
X330349Y73202D01*
X331823Y73495D01*
X333073Y74330D01*
X333908Y75580D01*
X334201Y77054D01*
X333908Y78528D01*
X333073Y79777D01*
X331823Y80612D01*
X330349Y80906D01*
D02*
G37*
G36*
X400000Y76100D02*
X398526Y75807D01*
X397276Y74972D01*
X396441Y73722D01*
X396148Y72248D01*
X396441Y70774D01*
X397276Y69524D01*
X398526Y68689D01*
X400000Y68396D01*
X401474Y68689D01*
X402724Y69524D01*
X403559Y70774D01*
X403852Y72248D01*
X403559Y73722D01*
X402724Y74972D01*
X401474Y75807D01*
X400000Y76100D01*
D02*
G37*
G36*
X380000D02*
X378526Y75807D01*
X377276Y74972D01*
X376441Y73722D01*
X376148Y72248D01*
X376441Y70774D01*
X377276Y69524D01*
X378526Y68689D01*
X380000Y68396D01*
X381474Y68689D01*
X382724Y69524D01*
X383559Y70774D01*
X383852Y72248D01*
X383559Y73722D01*
X382724Y74972D01*
X381474Y75807D01*
X380000Y76100D01*
D02*
G37*
G36*
X345080D02*
X343606Y75807D01*
X342356Y74972D01*
X341521Y73722D01*
X341228Y72248D01*
X341521Y70774D01*
X342356Y69524D01*
X343606Y68689D01*
X345080Y68396D01*
X346554Y68689D01*
X347804Y69524D01*
X348639Y70774D01*
X348932Y72248D01*
X348639Y73722D01*
X347804Y74972D01*
X346554Y75807D01*
X345080Y76100D01*
D02*
G37*
G36*
X557502Y69149D02*
X555134Y68837D01*
X552929Y67923D01*
X551034Y66470D01*
X549581Y64576D01*
X548667Y62370D01*
X548355Y60002D01*
X548667Y57635D01*
X549581Y55429D01*
X551034Y53535D01*
X552929Y52081D01*
X555134Y51168D01*
X557502Y50856D01*
X559869Y51168D01*
X562075Y52081D01*
X563969Y53535D01*
X565423Y55429D01*
X566336Y57635D01*
X566648Y60002D01*
X566336Y62370D01*
X565423Y64576D01*
X563969Y66470D01*
X562075Y67923D01*
X559869Y68837D01*
X557502Y69149D01*
D02*
G37*
G36*
X355428Y76100D02*
X353954Y75807D01*
X352704Y74972D01*
X351869Y73722D01*
X351576Y72248D01*
X351869Y70774D01*
X352704Y69524D01*
X353954Y68689D01*
X355428Y68396D01*
X355634Y68437D01*
X356172Y67249D01*
X355369Y66633D01*
X353761Y64537D01*
X352750Y62097D01*
X352406Y59478D01*
X352750Y56859D01*
X353761Y54418D01*
X355369Y52322D01*
X357465Y50714D01*
X359906Y49703D01*
X362525Y49358D01*
X365144Y49703D01*
X367585Y50714D01*
X369681Y52322D01*
X371289Y54418D01*
X372300Y56859D01*
X372645Y59478D01*
X372300Y62097D01*
X371289Y64537D01*
X369681Y66633D01*
X367585Y68241D01*
X365144Y69252D01*
X362525Y69597D01*
X359906Y69252D01*
X359341Y69019D01*
X358499Y70044D01*
X358987Y70774D01*
X359280Y72248D01*
X358987Y73722D01*
X358152Y74972D01*
X356902Y75807D01*
X355428Y76100D01*
D02*
G37*
G36*
X420320Y41442D02*
X418846Y41149D01*
X417596Y40314D01*
X416761Y39064D01*
X416468Y37590D01*
X416761Y36116D01*
X417596Y34866D01*
X418846Y34031D01*
X420320Y33738D01*
X421794Y34031D01*
X423044Y34866D01*
X423879Y36116D01*
X424172Y37590D01*
X423879Y39064D01*
X423044Y40314D01*
X421794Y41149D01*
X420320Y41442D01*
D02*
G37*
G36*
X519934Y39852D02*
X518460Y39559D01*
X517210Y38724D01*
X516375Y37474D01*
X516082Y36000D01*
X516375Y34526D01*
X517210Y33276D01*
X518460Y32441D01*
X519934Y32148D01*
X521408Y32441D01*
X522658Y33276D01*
X523493Y34526D01*
X523786Y36000D01*
X523493Y37474D01*
X522658Y38724D01*
X521408Y39559D01*
X519934Y39852D01*
D02*
G37*
G36*
X542500Y42784D02*
X540796Y42560D01*
X539208Y41902D01*
X537844Y40856D01*
X536798Y39492D01*
X536140Y37904D01*
X535916Y36200D01*
X536140Y34496D01*
X536798Y32908D01*
X537844Y31544D01*
X539208Y30498D01*
X540796Y29840D01*
X542500Y29616D01*
X544204Y29840D01*
X545792Y30498D01*
X547156Y31544D01*
X548202Y32908D01*
X548860Y34496D01*
X549084Y36200D01*
X548860Y37904D01*
X548202Y39492D01*
X547156Y40856D01*
X545792Y41902D01*
X544204Y42560D01*
X542500Y42784D01*
D02*
G37*
G36*
X166597Y594781D02*
X165094D01*
X163705Y594206D01*
X162642Y593143D01*
X162067Y591754D01*
Y590252D01*
X162642Y588863D01*
X163705Y587800D01*
X165094Y587225D01*
X166597D01*
X167985Y587800D01*
X169048Y588863D01*
X169623Y590252D01*
Y591754D01*
X169048Y593143D01*
X167985Y594206D01*
X166597Y594781D01*
D02*
G37*
G36*
X184532Y589047D02*
X183029D01*
X181640Y588472D01*
X180578Y587409D01*
X180002Y586021D01*
Y584518D01*
X180578Y583129D01*
X181640Y582066D01*
X183029Y581491D01*
X184532D01*
X185921Y582066D01*
X186983Y583129D01*
X187558Y584518D01*
Y586021D01*
X186983Y587409D01*
X185921Y588472D01*
X184532Y589047D01*
D02*
G37*
G36*
X156505Y579119D02*
X155002D01*
X153614Y578544D01*
X152551Y577481D01*
X151976Y576092D01*
Y574590D01*
X152551Y573201D01*
X153614Y572138D01*
X155002Y571563D01*
X156505D01*
X157894Y572138D01*
X158956Y573201D01*
X159532Y574590D01*
Y576092D01*
X158956Y577481D01*
X157894Y578544D01*
X156505Y579119D01*
D02*
G37*
G36*
X170902Y575397D02*
X169399D01*
X168010Y574822D01*
X166948Y573759D01*
X166372Y572371D01*
Y570868D01*
X166948Y569479D01*
X168010Y568417D01*
X169399Y567841D01*
X170902D01*
X172290Y568417D01*
X173353Y569479D01*
X173928Y570868D01*
Y572371D01*
X173353Y573759D01*
X172290Y574822D01*
X170902Y575397D01*
D02*
G37*
G36*
X630514Y603670D02*
X629040Y603376D01*
X627790Y602541D01*
X626955Y601292D01*
X626662Y599818D01*
X626955Y598344D01*
X627790Y597094D01*
X629040Y596259D01*
X630514Y595966D01*
X631988Y596259D01*
X633238Y597094D01*
X634073Y598344D01*
X634366Y599818D01*
X634073Y601292D01*
X633238Y602541D01*
X631988Y603376D01*
X630514Y603670D01*
D02*
G37*
G36*
X711102Y603160D02*
X709628Y602867D01*
X708378Y602032D01*
X707543Y600782D01*
X707250Y599308D01*
X707543Y597834D01*
X708378Y596584D01*
X709628Y595749D01*
X711102Y595456D01*
X712576Y595749D01*
X713826Y596584D01*
X714661Y597834D01*
X714954Y599308D01*
X714661Y600782D01*
X713826Y602032D01*
X712576Y602867D01*
X711102Y603160D01*
D02*
G37*
G36*
X550160Y603088D02*
X548686Y602795D01*
X547437Y601960D01*
X546602Y600710D01*
X546309Y599236D01*
X546602Y597762D01*
X547437Y596513D01*
X548686Y595678D01*
X550160Y595384D01*
X551635Y595678D01*
X552884Y596513D01*
X553719Y597762D01*
X554012Y599236D01*
X553719Y600710D01*
X552884Y601960D01*
X551635Y602795D01*
X550160Y603088D01*
D02*
G37*
G36*
X557481Y589034D02*
X556007Y588741D01*
X554757Y587906D01*
X553922Y586656D01*
X553629Y585182D01*
X553922Y583708D01*
X554757Y582458D01*
X556007Y581623D01*
X557481Y581330D01*
X558955Y581623D01*
X560204Y582458D01*
X561039Y583708D01*
X561333Y585182D01*
X561039Y586656D01*
X560204Y587906D01*
X558955Y588741D01*
X557481Y589034D01*
D02*
G37*
G36*
X568559Y584307D02*
X567085Y584013D01*
X565835Y583178D01*
X565000Y581929D01*
X564707Y580455D01*
X565000Y578981D01*
X565835Y577731D01*
X567085Y576896D01*
X568559Y576603D01*
X570033Y576896D01*
X571283Y577731D01*
X572118Y578981D01*
X572411Y580455D01*
X572118Y581929D01*
X571283Y583178D01*
X570033Y584013D01*
X568559Y584307D01*
D02*
G37*
G36*
X548864Y563921D02*
X547390Y563627D01*
X546140Y562792D01*
X545305Y561543D01*
X545012Y560069D01*
X545305Y558594D01*
X546140Y557345D01*
X547390Y556510D01*
X548864Y556217D01*
X550338Y556510D01*
X551588Y557345D01*
X552423Y558594D01*
X552716Y560069D01*
X552423Y561543D01*
X551588Y562792D01*
X550338Y563627D01*
X548864Y563921D01*
D02*
G37*
G36*
X550386Y543360D02*
X548912Y543067D01*
X547662Y542232D01*
X546827Y540982D01*
X546534Y539508D01*
X546827Y538034D01*
X547662Y536784D01*
X548912Y535949D01*
X550386Y535656D01*
X551860Y535949D01*
X553110Y536784D01*
X553945Y538034D01*
X554238Y539508D01*
X553945Y540982D01*
X553110Y542232D01*
X551860Y543067D01*
X550386Y543360D01*
D02*
G37*
G36*
X565374Y533330D02*
X563900Y533036D01*
X562650Y532201D01*
X561815Y530952D01*
X561522Y529478D01*
X561815Y528004D01*
X562650Y526754D01*
X563900Y525919D01*
X565374Y525626D01*
X566848Y525919D01*
X568098Y526754D01*
X568933Y528004D01*
X569226Y529478D01*
X568933Y530952D01*
X568098Y532201D01*
X566848Y533036D01*
X565374Y533330D01*
D02*
G37*
G36*
X545358Y518299D02*
X543884Y518006D01*
X542634Y517171D01*
X541799Y515921D01*
X541506Y514447D01*
X541799Y512973D01*
X542634Y511723D01*
X543884Y510888D01*
X545358Y510595D01*
X546832Y510888D01*
X548082Y511723D01*
X548917Y512973D01*
X549210Y514447D01*
X548917Y515921D01*
X548082Y517171D01*
X546832Y518006D01*
X545358Y518299D01*
D02*
G37*
G36*
X554656Y509452D02*
X553182Y509159D01*
X551932Y508324D01*
X551097Y507074D01*
X550804Y505600D01*
X551097Y504126D01*
X551932Y502876D01*
X553182Y502041D01*
X554656Y501748D01*
X556130Y502041D01*
X557379Y502876D01*
X558214Y504126D01*
X558508Y505600D01*
X558214Y507074D01*
X557379Y508324D01*
X556130Y509159D01*
X554656Y509452D01*
D02*
G37*
G36*
X554512Y477854D02*
X553038Y477560D01*
X551788Y476725D01*
X550953Y475476D01*
X550660Y474002D01*
X550953Y472528D01*
X551788Y471278D01*
X553038Y470443D01*
X554512Y470150D01*
X555986Y470443D01*
X557236Y471278D01*
X558071Y472528D01*
X558364Y474002D01*
X558071Y475476D01*
X557236Y476725D01*
X555986Y477560D01*
X554512Y477854D01*
D02*
G37*
G36*
X555051Y444859D02*
X553577Y444566D01*
X552328Y443731D01*
X551493Y442481D01*
X551199Y441007D01*
X551493Y439533D01*
X552328Y438284D01*
X553577Y437449D01*
X555051Y437155D01*
X556526Y437449D01*
X557775Y438284D01*
X558610Y439533D01*
X558904Y441007D01*
X558610Y442481D01*
X557775Y443731D01*
X556526Y444566D01*
X555051Y444859D01*
D02*
G37*
G36*
X500500Y128500D02*
X498997D01*
X497608Y127925D01*
X496545Y126862D01*
X495970Y125473D01*
Y123970D01*
X496545Y122582D01*
X497608Y121519D01*
X498997Y120944D01*
X500500D01*
X501888Y121519D01*
X502951Y122582D01*
X503526Y123970D01*
Y125473D01*
X502951Y126862D01*
X501888Y127925D01*
X500500Y128500D01*
D02*
G37*
G36*
X500252Y98828D02*
X498749D01*
X497360Y98253D01*
X496297Y97190D01*
X495722Y95801D01*
Y94298D01*
X496297Y92910D01*
X497360Y91847D01*
X498749Y91272D01*
X500252D01*
X501640Y91847D01*
X502703Y92910D01*
X503278Y94298D01*
Y95801D01*
X502703Y97190D01*
X501640Y98253D01*
X500252Y98828D01*
D02*
G37*
G36*
X481251D02*
X479748D01*
X478360Y98253D01*
X477297Y97190D01*
X476722Y95801D01*
Y94298D01*
X477297Y92910D01*
X478360Y91847D01*
X479748Y91272D01*
X481251D01*
X482640Y91847D01*
X483703Y92910D01*
X484278Y94298D01*
Y95801D01*
X483703Y97190D01*
X482640Y98253D01*
X481251Y98828D01*
D02*
G37*
G36*
X460121D02*
X458619D01*
X457230Y98253D01*
X456167Y97190D01*
X455592Y95801D01*
Y94298D01*
X456167Y92910D01*
X457230Y91847D01*
X458619Y91272D01*
X460121D01*
X461510Y91847D01*
X462573Y92910D01*
X463148Y94298D01*
Y95801D01*
X462573Y97190D01*
X461510Y98253D01*
X460121Y98828D01*
D02*
G37*
G36*
X441121D02*
X439618D01*
X438230Y98253D01*
X437167Y97190D01*
X436592Y95801D01*
Y94298D01*
X437167Y92910D01*
X438230Y91847D01*
X439618Y91272D01*
X441121D01*
X442510Y91847D01*
X443573Y92910D01*
X444148Y94298D01*
Y95801D01*
X443573Y97190D01*
X442510Y98253D01*
X441121Y98828D01*
D02*
G37*
G36*
X256146Y69511D02*
X253504D01*
X250952Y68827D01*
X248665Y67506D01*
X246797Y65638D01*
X245476Y63350D01*
X244792Y60799D01*
Y58157D01*
X245476Y55605D01*
X246797Y53317D01*
X248665Y51449D01*
X250952Y50128D01*
X253504Y49445D01*
X256146D01*
X258698Y50128D01*
X260986Y51449D01*
X262854Y53317D01*
X264174Y55605D01*
X264858Y58157D01*
Y60799D01*
X264174Y63350D01*
X262854Y65638D01*
X260986Y67506D01*
X258698Y68827D01*
X256146Y69511D01*
D02*
G37*
%LPD*%
D15*
X176732Y542450D02*
X194869Y560586D01*
X240546D02*
X272089Y592128D01*
X194869Y560586D02*
X240546D01*
X82550Y476531D02*
Y573830D01*
Y476531D02*
X95218Y463863D01*
X76061Y580319D02*
X82550Y573830D01*
X492667Y281241D02*
X492698Y281271D01*
X348481Y281241D02*
X492667D01*
X124992Y597063D02*
X125849D01*
X129668Y600881D02*
Y601738D01*
X125849Y597063D02*
X129668Y600881D01*
X105156Y542450D02*
Y577226D01*
X124992Y597063D01*
X129668Y601738D02*
X136093Y608163D01*
X88280Y18219D02*
Y115458D01*
X97771Y124949D01*
X327421Y302301D02*
X348481Y281241D01*
X99238Y18219D02*
Y22242D01*
X97750Y16731D02*
X99238Y18219D01*
X89768Y16731D02*
X97750D01*
X88280Y18219D02*
X89768Y16731D01*
X735000Y150652D02*
X763300D01*
X726347Y141999D02*
X735000Y150652D01*
X763300D02*
X772922Y160274D01*
X529139Y357678D02*
Y388599D01*
X533457Y359467D02*
Y391149D01*
X626078Y436821D02*
Y442245D01*
X620511Y447813D02*
Y464427D01*
Y447813D02*
X626078Y442245D01*
X584708Y395451D02*
X626078Y436821D01*
X416560Y300990D02*
X505460D01*
X303650Y413900D02*
X416560Y300990D01*
X410465Y392120D02*
X525618D01*
X400118Y402467D02*
X410465Y392120D01*
X412999Y397168D02*
X527438D01*
X533457Y391149D01*
X584708Y357621D02*
Y395451D01*
X579639Y352552D02*
X584708Y357621D01*
X534265Y352552D02*
X579639D01*
X529139Y357678D02*
X534265Y352552D01*
X525618Y392120D02*
X529139Y388599D01*
X580390Y398272D02*
X621030Y438912D01*
X580390Y359410D02*
Y398272D01*
X577850Y356870D02*
X580390Y359410D01*
X533457Y359467D02*
X536054Y356870D01*
X577850D01*
X296030Y413900D02*
X303650D01*
X378558Y286956D02*
X481265D01*
X352164Y313349D02*
X378558Y286956D01*
X119367Y292113D02*
X256145D01*
X95218Y316262D02*
Y463863D01*
Y316262D02*
X119367Y292113D01*
X273169Y313349D02*
X352164D01*
X265559Y302398D02*
X265656Y302301D01*
X287460D01*
X291660D02*
X327421D01*
X287469Y302292D02*
X291651D01*
X287460Y302301D02*
X287469Y302292D01*
X291651D02*
X291660Y302301D01*
X360680Y592082D02*
X375408Y606810D01*
X360680Y545283D02*
Y592082D01*
Y545283D02*
X363134Y542829D01*
X342753Y546616D02*
X346539Y542829D01*
X342753Y546616D02*
Y602631D01*
X158243Y547998D02*
X201708Y591462D01*
Y602870D01*
X123049Y566939D02*
X162916Y606806D01*
X123049Y496601D02*
Y566939D01*
X114776Y459264D02*
Y568166D01*
X153416Y606806D01*
X114776Y459264D02*
X142045Y431995D01*
X194749Y496686D02*
X304373Y606310D01*
X194749Y496363D02*
Y496686D01*
X304373Y606310D02*
Y606633D01*
X158838Y531954D02*
X233690Y606806D01*
X158838Y496601D02*
Y531954D01*
X272089Y601489D02*
X278930Y608331D01*
X272089Y592128D02*
Y601489D01*
X201708Y602870D02*
X207002Y608163D01*
X153790Y455045D02*
X171793Y437043D01*
X153790Y536405D02*
X224191Y606806D01*
X189701Y454699D02*
X195567Y448833D01*
X189701Y501461D02*
X287020Y598780D01*
X189701Y454699D02*
Y501461D01*
X153790Y455045D02*
Y536405D01*
X342753Y602631D02*
X348464Y608343D01*
X254905Y448833D02*
X270257Y433481D01*
X195567Y448833D02*
X254905D01*
X171793Y437043D02*
X252243D01*
X284480Y433481D02*
X353351Y502352D01*
Y594253D01*
X365909Y606810D01*
X287020Y598780D02*
Y598780D01*
X295046Y606806D01*
X142045Y431995D02*
X240705D01*
X252243Y437043D02*
X255805Y433481D01*
X121189Y658493D02*
X125739Y653942D01*
D16*
X12537Y847459D02*
G03*
X4888Y844291I0J-10818D01*
G01*
X2517Y12098D02*
G03*
X5386Y5173I9794J0D01*
G01*
X844550Y844930D02*
G03*
X838430Y847465I-6120J-6120D01*
G01*
X847542Y837706D02*
G03*
X844550Y844930I-10216J0D01*
G01*
X844685Y5254D02*
G03*
X847542Y12153I-6899J6899D01*
G01*
X838080Y2518D02*
G03*
X844685Y5254I0J9341D01*
G01*
X4888Y844291D02*
G03*
X2517Y838567I5723J-5723D01*
G01*
X5386Y5173D02*
G03*
X11795Y2518I6409J6409D01*
G01*
X5386Y5173D02*
G03*
X11795Y2518I6409J6409D01*
G01*
X4888Y844291D02*
G03*
X2517Y838567I5723J-5723D01*
G01*
X838080Y2518D02*
G03*
X844685Y5254I0J9341D01*
G01*
D02*
G03*
X847542Y12153I-6899J6899D01*
G01*
Y837706D02*
G03*
X844550Y844930I-10216J0D01*
G01*
D02*
G03*
X838430Y847465I-6120J-6120D01*
G01*
X2517Y12098D02*
G03*
X5386Y5173I9794J0D01*
G01*
X12537Y847459D02*
G03*
X4888Y844291I0J-10818D01*
G01*
X447802Y228091D02*
X547758D01*
X551626Y231838D02*
Y286930D01*
X547819Y228031D02*
X551626Y231838D01*
X547758Y228091D02*
X547819Y228031D01*
X551626Y286930D02*
Y288388D01*
X338755Y222182D02*
X346418Y214519D01*
X326144Y234792D02*
X338755Y222182D01*
X242640Y234770D02*
X309857D01*
X391715Y214519D02*
X434230D01*
X346418D02*
X391715D01*
X434230D02*
X447802Y228091D01*
X551626Y286930D02*
X672830D01*
X677550Y291650D02*
Y294341D01*
X672830Y286930D02*
X677550Y291650D01*
X545981Y294033D02*
X551626Y288388D01*
X309857Y234770D02*
X309880Y234792D01*
X326144D01*
X447801Y228092D02*
X447802Y228091D01*
X447801Y228092D02*
Y248150D01*
X388248Y294033D02*
X545981D01*
X362496Y319785D02*
X387889Y294392D01*
X357731Y324549D02*
X362496Y319785D01*
X250402Y324549D02*
X357731D01*
X250591Y319667D02*
Y324397D01*
X231840Y324549D02*
X250402D01*
X250555Y324397D01*
X223520Y332869D02*
X231840Y324549D01*
X223520Y332869D02*
Y375920D01*
X217677Y381763D02*
X223520Y375920D01*
X210195Y381763D02*
X217677D01*
X210159Y381799D02*
X210195Y381763D01*
X847542Y12153D02*
Y837706D01*
X847090Y12605D02*
Y23622D01*
X847542Y12153D02*
Y837706D01*
X2517Y834390D02*
X2517Y12098D01*
X2517Y834390D02*
X2517Y12098D01*
X2545Y714060D02*
Y834362D01*
Y714060D02*
Y834362D01*
X11795Y2518D02*
X838080D01*
X11795D02*
X838080D01*
X11817Y2540D02*
X22098D01*
X12537Y847459D02*
X64411D01*
X12537D02*
X64411D01*
X64417Y847465D02*
X838430D01*
X64417D02*
X838430D01*
X847090Y12605D02*
X847542Y12153D01*
X847090Y12605D02*
X847542Y12153D01*
X11795Y2518D02*
X11817Y2540D01*
X2517Y834390D02*
X2545Y834362D01*
X2517Y834390D02*
X2545Y834362D01*
X64411Y847459D02*
X64417Y847465D01*
X2517Y834390D02*
Y838567D01*
Y834390D02*
Y838567D01*
X64411Y847459D02*
X64417Y847465D01*
D20*
X540175Y151987D02*
X547159Y145003D01*
X374664Y151987D02*
X540175D01*
X677550Y304882D02*
X685506Y296926D01*
X519684Y83800D02*
Y121774D01*
X495063Y146395D02*
X519684Y121774D01*
X481774Y146395D02*
X495063D01*
X452907Y146304D02*
X481683D01*
X450675Y133902D02*
Y144072D01*
X452907Y146304D01*
X373342Y150717D02*
X373394D01*
X374664Y151987D01*
X443829Y135509D02*
Y150717D01*
X414433Y60194D02*
Y105971D01*
X420320Y49342D02*
Y54307D01*
X414433Y60194D02*
X420320Y54307D01*
X414433Y105971D02*
X414673Y106211D01*
Y106353D02*
X443829Y135509D01*
X414673Y106211D02*
Y106353D01*
X420116Y92202D02*
Y103343D01*
X450675Y133902D01*
X677550Y294341D02*
X682921D01*
X685506Y296926D01*
X481683Y146304D02*
X481774Y146395D01*
X103886Y684479D02*
X104297Y684068D01*
X103886Y684479D02*
Y684530D01*
X94742Y664210D02*
X95469D01*
X104297Y655382D01*
X104233Y641002D02*
Y655318D01*
D133*
X249203Y84214D02*
X289830D01*
X230949Y28450D02*
Y65960D01*
X249203Y84214D01*
X247840Y11558D02*
X575692D01*
X230949Y28450D02*
X247840Y11558D01*
X575692D02*
X593976Y29842D01*
Y117907D02*
X596857Y120789D01*
X593976Y29842D02*
Y117907D01*
D140*
X27120Y822886D02*
D03*
D03*
D141*
X822949Y823016D02*
D03*
D03*
D142*
X822749Y27275D02*
D03*
D03*
D143*
X27077Y27036D02*
D03*
D03*
D144*
X692497Y742498D02*
D03*
X507498D02*
D03*
X692497Y789998D02*
D03*
X507498D02*
D03*
X342498Y742498D02*
D03*
X157498D02*
D03*
X342498Y789998D02*
D03*
X157498D02*
D03*
X722502Y60002D02*
D03*
X557502D02*
D03*
X722502Y107502D02*
D03*
X557502D02*
D03*
D145*
X813000Y171249D02*
D03*
Y112749D02*
D03*
X542500Y36200D02*
D03*
X177500Y83800D02*
D03*
X542500D02*
D03*
X177500Y36200D02*
D03*
X813000Y223254D02*
D03*
Y331754D02*
D03*
D147*
X816164Y783836D02*
D03*
X783836D02*
D03*
Y816164D02*
D03*
X816164D02*
D03*
X822860Y800000D02*
D03*
X800000Y777140D02*
D03*
X777140Y800000D02*
D03*
X800000Y822860D02*
D03*
X816164Y33835D02*
D03*
X783836D02*
D03*
Y66164D02*
D03*
X816164D02*
D03*
X822860Y50000D02*
D03*
X800000Y27140D02*
D03*
X777140Y50000D02*
D03*
X800000Y72860D02*
D03*
X50000D02*
D03*
X27140Y50000D02*
D03*
X50000Y27140D02*
D03*
X72860Y50000D02*
D03*
X66164Y66164D02*
D03*
X33835D02*
D03*
Y33835D02*
D03*
X66164D02*
D03*
X50000Y822860D02*
D03*
X27140Y800000D02*
D03*
X50000Y777140D02*
D03*
X72860Y800000D02*
D03*
X66164Y816164D02*
D03*
X33835D02*
D03*
Y783836D02*
D03*
X66164D02*
D03*
D148*
X800000Y800000D02*
D03*
Y50000D02*
D03*
X50000D02*
D03*
Y800000D02*
D03*
D150*
X661048Y407535D02*
D03*
Y395035D02*
D03*
Y382535D02*
D03*
D151*
X741154Y373683D02*
D03*
D152*
Y399083D02*
D03*
Y424483D02*
D03*
Y449883D02*
D03*
Y475283D02*
D03*
D153*
X566130Y123240D02*
D03*
X549465Y95086D02*
D03*
X822613Y654477D02*
D03*
X90613Y132264D02*
D03*
X20828Y551355D02*
D03*
X66869Y397698D02*
D03*
X532802Y141145D02*
D03*
X747196Y233790D02*
D03*
X746985Y255306D02*
D03*
X746715Y276183D02*
D03*
X760440Y218893D02*
D03*
X673205Y109222D02*
D03*
X631673Y106039D02*
D03*
X125317Y106245D02*
D03*
X146112Y131936D02*
D03*
X213884Y168591D02*
D03*
X168472Y183641D02*
D03*
X213529Y222891D02*
D03*
X206544Y222985D02*
D03*
X222404Y200209D02*
D03*
Y208571D02*
D03*
X547819Y228031D02*
D03*
X547159Y145003D02*
D03*
X391715Y214519D02*
D03*
X111438Y131899D02*
D03*
X111475Y259159D02*
D03*
X133261Y259088D02*
D03*
X180171Y143849D02*
D03*
X107405Y151204D02*
D03*
X168472Y153513D02*
D03*
X169224Y229073D02*
D03*
X180306Y222029D02*
D03*
X736355Y310125D02*
D03*
X775768Y148091D02*
D03*
X775140Y135907D02*
D03*
X59210Y185673D02*
D03*
X188280Y168632D02*
D03*
X91540Y214222D02*
D03*
X116990Y210208D02*
D03*
X85701Y179328D02*
D03*
X107751Y232595D02*
D03*
X113031Y186945D02*
D03*
X73914Y106172D02*
D03*
X70101Y117153D02*
D03*
X114554Y106250D02*
D03*
X385114Y597889D02*
D03*
X390510Y568889D02*
D03*
X384861Y591526D02*
D03*
X379071Y582807D02*
D03*
X378432Y591007D02*
D03*
X337636Y585470D02*
D03*
X365745Y569739D02*
D03*
X396511Y568699D02*
D03*
X307475Y583330D02*
D03*
X312608Y578078D02*
D03*
X296306Y569343D02*
D03*
X313238Y571660D02*
D03*
X240991Y571166D02*
D03*
X241373Y578806D02*
D03*
X236914Y583299D02*
D03*
X226685Y568379D02*
D03*
X170150Y571619D02*
D03*
X170638Y578341D02*
D03*
X155556Y567190D02*
D03*
X165757Y583351D02*
D03*
X423846Y423364D02*
D03*
X410671Y417621D02*
D03*
X419726Y306488D02*
D03*
X427346Y313600D02*
D03*
X386198Y271944D02*
D03*
X378070Y263816D02*
D03*
X354802Y249718D02*
D03*
X429774Y95434D02*
D03*
X470024Y94403D02*
D03*
X490000Y94800D02*
D03*
X510188Y95050D02*
D03*
X309765Y249718D02*
D03*
X320792D02*
D03*
X308439Y271737D02*
D03*
X313658Y266222D02*
D03*
X462739Y547533D02*
D03*
X706930Y547495D02*
D03*
X639967Y538524D02*
D03*
X265418Y109530D02*
D03*
X267955Y459794D02*
D03*
X288578Y468347D02*
D03*
X281989Y265490D02*
D03*
X288211Y270765D02*
D03*
X639750Y703258D02*
D03*
X600030Y702978D02*
D03*
X600230Y694288D02*
D03*
X559750Y705758D02*
D03*
X539750D02*
D03*
X539949Y697068D02*
D03*
X641109Y731565D02*
D03*
X620380Y721680D02*
D03*
X599856Y732125D02*
D03*
X560346D02*
D03*
X579957Y721800D02*
D03*
X539949Y722068D02*
D03*
X641109Y721680D02*
D03*
X599703Y721637D02*
D03*
X560134Y721800D02*
D03*
X585069Y514447D02*
D03*
X545358D02*
D03*
X505647D02*
D03*
X465937Y513309D02*
D03*
X602913Y440316D02*
D03*
X584698Y441452D02*
D03*
X525491D02*
D03*
X505755D02*
D03*
X447905Y438571D02*
D03*
X485902Y441452D02*
D03*
X465700Y438290D02*
D03*
X284480Y416040D02*
D03*
X269917Y416560D02*
D03*
X256293D02*
D03*
X241300D02*
D03*
X76061Y580319D02*
D03*
X226511Y575602D02*
D03*
X408197Y402534D02*
D03*
X418750Y408048D02*
D03*
X411904Y408234D02*
D03*
X405828Y412647D02*
D03*
X418750Y417435D02*
D03*
X492698Y281271D02*
D03*
X345334Y96260D02*
D03*
X300000Y84000D02*
D03*
Y95752D02*
D03*
Y72248D02*
D03*
X280000Y84000D02*
D03*
Y95752D02*
D03*
Y72248D02*
D03*
X300000Y36000D02*
D03*
Y47752D02*
D03*
Y24248D02*
D03*
X280000Y36000D02*
D03*
Y47752D02*
D03*
Y24248D02*
D03*
X290110Y90276D02*
D03*
X290349Y77054D02*
D03*
X290110Y42276D02*
D03*
X290349Y29054D02*
D03*
X330349Y77054D02*
D03*
X389651Y90946D02*
D03*
X389890Y77724D02*
D03*
X400000Y72248D02*
D03*
Y84000D02*
D03*
X380000Y72248D02*
D03*
Y95752D02*
D03*
Y84000D02*
D03*
X355428Y72248D02*
D03*
Y84000D02*
D03*
X345080Y72248D02*
D03*
X320000D02*
D03*
X321270Y96006D02*
D03*
X704679Y255562D02*
D03*
X174014Y297161D02*
D03*
X158774D02*
D03*
X312084Y289757D02*
D03*
X317241Y280754D02*
D03*
X349468Y291882D02*
D03*
X658762Y422035D02*
D03*
X648762D02*
D03*
X678762D02*
D03*
X688762D02*
D03*
X668762D02*
D03*
X160638Y688584D02*
D03*
X11938Y119960D02*
D03*
Y99960D02*
D03*
Y69960D02*
D03*
Y109960D02*
D03*
Y79960D02*
D03*
Y129960D02*
D03*
Y89960D02*
D03*
X669366Y14224D02*
D03*
X649366D02*
D03*
X619366D02*
D03*
X659366D02*
D03*
X629366D02*
D03*
X679366D02*
D03*
X639366D02*
D03*
X758980D02*
D03*
X768980D02*
D03*
X738980D02*
D03*
X718980D02*
D03*
X688980D02*
D03*
X728980D02*
D03*
X698980D02*
D03*
X748980D02*
D03*
X708980D02*
D03*
X830326Y569960D02*
D03*
Y559960D02*
D03*
Y589960D02*
D03*
Y609960D02*
D03*
Y639960D02*
D03*
Y599960D02*
D03*
Y629960D02*
D03*
Y579960D02*
D03*
Y619960D02*
D03*
X833882Y279960D02*
D03*
Y269960D02*
D03*
Y299960D02*
D03*
Y319960D02*
D03*
Y309960D02*
D03*
Y339960D02*
D03*
Y289960D02*
D03*
Y329960D02*
D03*
Y99960D02*
D03*
Y89960D02*
D03*
Y119960D02*
D03*
Y139960D02*
D03*
Y169960D02*
D03*
Y129960D02*
D03*
Y159960D02*
D03*
Y109960D02*
D03*
Y149960D02*
D03*
Y189960D02*
D03*
Y179960D02*
D03*
Y209960D02*
D03*
Y229960D02*
D03*
Y259960D02*
D03*
Y219960D02*
D03*
Y249960D02*
D03*
Y199960D02*
D03*
Y239960D02*
D03*
X762110Y32415D02*
D03*
X762053Y82858D02*
D03*
X159144Y89662D02*
D03*
X139110D02*
D03*
X119075D02*
D03*
X99041D02*
D03*
X519934Y36000D02*
D03*
X311212Y27260D02*
D03*
X420320Y49342D02*
D03*
Y37590D02*
D03*
X309880Y234792D02*
D03*
X139228Y22322D02*
D03*
X99159D02*
D03*
X64443Y677557D02*
D03*
X22482Y642619D02*
D03*
X119255Y22260D02*
D03*
X159258Y21844D02*
D03*
X420116Y92202D02*
D03*
X519684Y83800D02*
D03*
X443829Y135509D02*
D03*
X331978Y41402D02*
D03*
X321202Y22673D02*
D03*
X355428Y36000D02*
D03*
Y47752D02*
D03*
Y24248D02*
D03*
X320000Y47752D02*
D03*
X400000Y36000D02*
D03*
Y47752D02*
D03*
Y24248D02*
D03*
X380000D02*
D03*
Y47752D02*
D03*
Y36000D02*
D03*
X257686Y105752D02*
D03*
X272836Y105840D02*
D03*
X239952Y37150D02*
D03*
X499748Y124722D02*
D03*
X507533Y146099D02*
D03*
X599694Y121063D02*
D03*
X579819Y120789D02*
D03*
X680265Y151512D02*
D03*
X373342Y150717D02*
D03*
X210312Y50038D02*
D03*
Y98552D02*
D03*
X772922Y160274D02*
D03*
X649986Y97536D02*
D03*
X689853Y35195D02*
D03*
X753652Y141999D02*
D03*
X726347D02*
D03*
X669340Y35414D02*
D03*
X649391D02*
D03*
X629442D02*
D03*
X609492D02*
D03*
X736346Y331724D02*
D03*
X679452Y136780D02*
D03*
X440370Y95050D02*
D03*
X459370D02*
D03*
X499500D02*
D03*
X480500D02*
D03*
X219500Y25092D02*
D03*
X200500D02*
D03*
X219500Y73606D02*
D03*
X200500Y73856D02*
D03*
X639826Y147574D02*
D03*
X620357Y148355D02*
D03*
X599694D02*
D03*
X579819D02*
D03*
X340206Y103778D02*
D03*
X330202Y2550D02*
D03*
X320227D02*
D03*
X619467D02*
D03*
X609492D02*
D03*
X390050D02*
D03*
X380075D02*
D03*
X300278D02*
D03*
X310253D02*
D03*
X340177D02*
D03*
X370101D02*
D03*
X360126D02*
D03*
X350151D02*
D03*
X280329D02*
D03*
X270354D02*
D03*
X847450Y9960D02*
D03*
X838910Y10512D02*
D03*
X839356Y40483D02*
D03*
Y20483D02*
D03*
Y30483D02*
D03*
X847450Y19960D02*
D03*
Y49960D02*
D03*
Y39960D02*
D03*
Y29960D02*
D03*
X815340Y379960D02*
D03*
X545442Y366145D02*
D03*
X429949Y2550D02*
D03*
X242640Y234770D02*
D03*
X257805Y204406D02*
D03*
X329176Y218778D02*
D03*
X272426Y234792D02*
D03*
X287533Y250734D02*
D03*
X269853Y250842D02*
D03*
X457206Y146304D02*
D03*
X333756Y197104D02*
D03*
X444624Y205052D02*
D03*
X457380Y214831D02*
D03*
X338755Y222182D02*
D03*
X447801Y248150D02*
D03*
X364446Y248634D02*
D03*
X481632Y146304D02*
D03*
X481721Y214741D02*
D03*
X494792Y217424D02*
D03*
X613923Y243414D02*
D03*
X626750Y191852D02*
D03*
X675264Y198965D02*
D03*
X690250D02*
D03*
X626496Y205822D02*
D03*
X675264Y213231D02*
D03*
X690250D02*
D03*
X630869Y215745D02*
D03*
X675264Y227497D02*
D03*
X690250D02*
D03*
X675264Y241763D02*
D03*
X690250D02*
D03*
X629925Y243414D02*
D03*
X40937Y9960D02*
D03*
X30962D02*
D03*
X400025Y2550D02*
D03*
X409999D02*
D03*
X419974D02*
D03*
X290303D02*
D03*
X24590Y269773D02*
D03*
X598297Y343455D02*
D03*
Y332618D02*
D03*
X555051Y441007D02*
D03*
X535316D02*
D03*
X495844D02*
D03*
X456373Y440874D02*
D03*
X574787Y441007D02*
D03*
X476109Y440874D02*
D03*
X515580Y441007D02*
D03*
X594235D02*
D03*
X515076Y505550D02*
D03*
X570063Y721447D02*
D03*
X320040Y289560D02*
D03*
X514802Y474002D02*
D03*
X554656Y505600D02*
D03*
X610140Y721538D02*
D03*
X330360Y280718D02*
D03*
X554512Y474002D02*
D03*
X594235Y505700D02*
D03*
X650022Y721327D02*
D03*
X335530Y271516D02*
D03*
X594223Y474002D02*
D03*
X613923Y267290D02*
D03*
X18928Y758420D02*
D03*
X689009Y464612D02*
D03*
X525470Y287020D02*
D03*
X505470D02*
D03*
X515470D02*
D03*
X394970Y384810D02*
D03*
X441973Y741458D02*
D03*
X401973D02*
D03*
X451973D02*
D03*
X421973D02*
D03*
X461973D02*
D03*
X431973D02*
D03*
X411973D02*
D03*
X381973D02*
D03*
X391973D02*
D03*
X106680Y370433D02*
D03*
Y410433D02*
D03*
Y390433D02*
D03*
Y346710D02*
D03*
Y380433D02*
D03*
Y400433D02*
D03*
Y430433D02*
D03*
Y420433D02*
D03*
X362153Y366726D02*
D03*
X363024Y390764D02*
D03*
X344428Y391097D02*
D03*
X305470Y391859D02*
D03*
X339248Y445388D02*
D03*
X364719Y471097D02*
D03*
X325403Y465093D02*
D03*
X350038Y457723D02*
D03*
X312178Y443842D02*
D03*
X815340Y399960D02*
D03*
Y439960D02*
D03*
Y389960D02*
D03*
Y419960D02*
D03*
Y409960D02*
D03*
Y429960D02*
D03*
Y459960D02*
D03*
Y449960D02*
D03*
X467108Y337108D02*
D03*
X581660Y519430D02*
D03*
X514802D02*
D03*
X500380D02*
D03*
X498501Y407956D02*
D03*
X632366Y529534D02*
D03*
X565374Y529478D02*
D03*
X350024Y304199D02*
D03*
X24798Y581673D02*
D03*
X25478Y448814D02*
D03*
X54563Y414624D02*
D03*
X290921Y352431D02*
D03*
X302001D02*
D03*
X290876Y366939D02*
D03*
X301956Y366936D02*
D03*
X286779Y382754D02*
D03*
X265171Y383514D02*
D03*
X256293Y374163D02*
D03*
X243805Y366826D02*
D03*
X270467Y287063D02*
D03*
X279992Y297223D02*
D03*
X289560Y307340D02*
D03*
X346553Y511439D02*
D03*
X379742D02*
D03*
X176746D02*
D03*
X140424Y511060D02*
D03*
X105169D02*
D03*
X201602Y472197D02*
D03*
X105169Y464832D02*
D03*
X140970Y464820D02*
D03*
X212512Y422717D02*
D03*
X24535Y393908D02*
D03*
X56971Y379058D02*
D03*
X82756Y307234D02*
D03*
X24590Y317140D02*
D03*
X66754Y274976D02*
D03*
X82804Y469138D02*
D03*
X24638Y479044D02*
D03*
X66802Y436880D02*
D03*
X57273Y540962D02*
D03*
X66845Y560675D02*
D03*
X285205Y542035D02*
D03*
X269277Y448615D02*
D03*
X185647Y412331D02*
D03*
X158777Y408089D02*
D03*
X147229Y400250D02*
D03*
X149272Y417743D02*
D03*
X442351Y342213D02*
D03*
X455373Y342059D02*
D03*
X448946Y354634D02*
D03*
X455373Y358140D02*
D03*
X442351D02*
D03*
X607390Y394766D02*
D03*
X239618Y314526D02*
D03*
X201232Y837367D02*
D03*
X629925Y267290D02*
D03*
Y255665D02*
D03*
X544322Y323596D02*
D03*
X530606D02*
D03*
X530612Y335014D02*
D03*
X544328D02*
D03*
X573534Y337108D02*
D03*
X559818D02*
D03*
X573534Y347014D02*
D03*
X559818D02*
D03*
X490474Y335409D02*
D03*
X515874D02*
D03*
X480824Y337108D02*
D03*
X467108Y347014D02*
D03*
X480824D02*
D03*
X527106Y407956D02*
D03*
X475091Y472864D02*
D03*
X633746Y319374D02*
D03*
X688762Y394000D02*
D03*
X680270Y464428D02*
D03*
X680989Y447222D02*
D03*
X809774Y726556D02*
D03*
Y712840D02*
D03*
X749548Y680128D02*
D03*
Y651203D02*
D03*
X809774Y620133D02*
D03*
Y633849D02*
D03*
X795804Y608192D02*
D03*
X819680Y726556D02*
D03*
Y633849D02*
D03*
X821379Y643497D02*
D03*
X821774Y697351D02*
D03*
X819680Y620133D02*
D03*
X821379Y668897D02*
D03*
X819680Y712840D02*
D03*
X821774Y683635D02*
D03*
X814934Y595628D02*
D03*
X795804Y595746D02*
D03*
X803424Y601969D02*
D03*
X814934Y608628D02*
D03*
X277271Y641057D02*
D03*
X340915Y640814D02*
D03*
X287115Y685799D02*
D03*
X349250Y688340D02*
D03*
X253571Y685799D02*
D03*
X245539D02*
D03*
X261080Y837367D02*
D03*
X251105D02*
D03*
X241130D02*
D03*
X231155D02*
D03*
X221181D02*
D03*
X211206D02*
D03*
X191257D02*
D03*
X181282D02*
D03*
X171308D02*
D03*
X161333D02*
D03*
X151358D02*
D03*
X141384D02*
D03*
X131409D02*
D03*
X121434D02*
D03*
X111460D02*
D03*
X101485D02*
D03*
X91510D02*
D03*
X81536D02*
D03*
X281029D02*
D03*
X271054D02*
D03*
X310953D02*
D03*
X300978D02*
D03*
X291003D02*
D03*
X619760Y730758D02*
D03*
X659892Y724408D02*
D03*
X645640Y657982D02*
D03*
X566166Y658368D02*
D03*
X153666Y616308D02*
D03*
X709698Y560202D02*
D03*
X468516Y559815D02*
D03*
X548864Y560069D02*
D03*
X629318Y560434D02*
D03*
X540370Y837367D02*
D03*
X490497D02*
D03*
X480522D02*
D03*
X470547D02*
D03*
X530395D02*
D03*
X520421D02*
D03*
X510446D02*
D03*
X500471D02*
D03*
X460573D02*
D03*
X330902D02*
D03*
X320928D02*
D03*
X450598D02*
D03*
X340877D02*
D03*
X350851D02*
D03*
X360826D02*
D03*
X380775D02*
D03*
X390750D02*
D03*
X400725D02*
D03*
X410699D02*
D03*
X420674D02*
D03*
X430649D02*
D03*
X440623D02*
D03*
X370801D02*
D03*
X630142D02*
D03*
X580269D02*
D03*
X560319D02*
D03*
X570294D02*
D03*
X620167D02*
D03*
X590243D02*
D03*
X600218D02*
D03*
X610192D02*
D03*
X550345D02*
D03*
X719914D02*
D03*
X729888D02*
D03*
X749838D02*
D03*
X739863D02*
D03*
X709939D02*
D03*
X689990D02*
D03*
X670040D02*
D03*
X660066D02*
D03*
X699964D02*
D03*
X650091D02*
D03*
X680015D02*
D03*
X640116D02*
D03*
X759812D02*
D03*
X659638Y731212D02*
D03*
X579628Y730758D02*
D03*
X539750D02*
D03*
X46902Y650147D02*
D03*
X389971Y462605D02*
D03*
X172466Y629333D02*
D03*
X171704Y346710D02*
D03*
X160020D02*
D03*
X210843Y389151D02*
D03*
X405130Y448564D02*
D03*
X372998Y319622D02*
D03*
X626242Y307168D02*
D03*
X626364Y296164D02*
D03*
X52070Y592328D02*
D03*
X123758Y602111D02*
D03*
X469698Y598894D02*
D03*
X196596Y602234D02*
D03*
X337636D02*
D03*
X267041Y602255D02*
D03*
X324394Y634644D02*
D03*
X768622Y516363D02*
D03*
X245328Y495648D02*
D03*
X214817Y629298D02*
D03*
X206502Y634492D02*
D03*
X613923Y255352D02*
D03*
X729426Y580658D02*
D03*
X711102Y599308D02*
D03*
X713328Y528852D02*
D03*
X648874Y580241D02*
D03*
X630514Y599818D02*
D03*
X568559Y580455D02*
D03*
X550160Y599236D02*
D03*
X487295Y580849D02*
D03*
X141638Y645062D02*
D03*
X253243Y634599D02*
D03*
X212296Y645465D02*
D03*
X403456Y634492D02*
D03*
X182484Y634488D02*
D03*
X190490Y634492D02*
D03*
X198496D02*
D03*
X210058Y372618D02*
D03*
X40743Y585663D02*
D03*
Y598699D02*
D03*
X293529Y685799D02*
D03*
X213853D02*
D03*
X207185D02*
D03*
X637668Y585442D02*
D03*
X718348Y585155D02*
D03*
X557481Y585182D02*
D03*
X433894Y519430D02*
D03*
X421194D02*
D03*
X36047Y714060D02*
D03*
Y700343D02*
D03*
X45953Y714060D02*
D03*
Y700343D02*
D03*
X22738Y683772D02*
D03*
Y672596D02*
D03*
X33914Y683772D02*
D03*
Y672596D02*
D03*
X34777Y624211D02*
D03*
Y610495D02*
D03*
X44683Y624211D02*
D03*
Y610495D02*
D03*
X58746Y598406D02*
D03*
Y585960D02*
D03*
X33099Y631191D02*
D03*
Y656591D02*
D03*
X104676Y597608D02*
D03*
Y626496D02*
D03*
X468106Y529101D02*
D03*
X690258Y551941D02*
D03*
X662380Y519430D02*
D03*
X681736Y560578D02*
D03*
X690258Y569721D02*
D03*
X675018Y551941D02*
D03*
X667398Y560578D02*
D03*
X675018Y569721D02*
D03*
X675080Y519430D02*
D03*
X695338Y560578D02*
D03*
X609740Y552195D02*
D03*
X601218Y560831D02*
D03*
X609740Y569975D02*
D03*
X594500Y552195D02*
D03*
X586880Y560831D02*
D03*
X594500Y569975D02*
D03*
X594562Y519430D02*
D03*
X614820Y560831D02*
D03*
X529420Y551941D02*
D03*
X520899Y560578D02*
D03*
X529420Y569721D02*
D03*
X514180Y551941D02*
D03*
X506560Y560578D02*
D03*
X514180Y569721D02*
D03*
X534500Y560578D02*
D03*
X340915Y634492D02*
D03*
X384958Y629337D02*
D03*
X375158Y616313D02*
D03*
X366158D02*
D03*
X393085Y592393D02*
D03*
X394626Y634492D02*
D03*
X356535Y629302D02*
D03*
X243241Y629333D02*
D03*
X233440Y616308D02*
D03*
X224440D02*
D03*
X251367Y592389D02*
D03*
X261251Y634492D02*
D03*
X269259D02*
D03*
X314096Y629333D02*
D03*
X304296Y616308D02*
D03*
X295296D02*
D03*
X322223Y592389D02*
D03*
X332416Y634492D02*
D03*
X277267D02*
D03*
X285673Y629298D02*
D03*
X180592Y592389D02*
D03*
X127001Y634488D02*
D03*
X162666Y616308D02*
D03*
X144043Y629298D02*
D03*
X135637Y634488D02*
D03*
X449072Y551688D02*
D03*
X433832D02*
D03*
Y569468D02*
D03*
X449072D02*
D03*
X454152Y560325D02*
D03*
X426212D02*
D03*
X440550D02*
D03*
X478452Y584963D02*
D03*
X103886Y684530D02*
D03*
X113538Y684271D02*
D03*
Y698715D02*
D03*
X103886Y698974D02*
D03*
X847450Y179960D02*
D03*
Y169960D02*
D03*
X373206Y582724D02*
D03*
X365728Y576067D02*
D03*
X312085Y356755D02*
D03*
X314539Y296939D02*
D03*
X677550Y294341D02*
D03*
X505460Y300990D02*
D03*
X400118Y402467D02*
D03*
X412999Y397168D02*
D03*
X620511Y464427D02*
D03*
X481265Y286956D02*
D03*
X758190Y560070D02*
D03*
X66836Y500573D02*
D03*
X550593Y727093D02*
D03*
X296030Y413900D02*
D03*
X621030Y438912D02*
D03*
X265559Y302398D02*
D03*
X88486Y577116D02*
D03*
X469842Y538982D02*
D03*
X550386Y539508D02*
D03*
X710633Y538809D02*
D03*
X649484Y538151D02*
D03*
X397805Y412888D02*
D03*
X740156Y655828D02*
D03*
X748830Y598660D02*
D03*
X390478Y407669D02*
D03*
X305531Y284480D02*
D03*
X300531Y270510D02*
D03*
X362496Y319785D02*
D03*
X24775Y565151D02*
D03*
X25478Y431676D02*
D03*
X2545Y269960D02*
D03*
Y259960D02*
D03*
Y199960D02*
D03*
Y209960D02*
D03*
X39370Y414624D02*
D03*
X39785Y431684D02*
D03*
X280584Y468296D02*
D03*
X275590Y459740D02*
D03*
X200660Y725170D02*
D03*
X241300Y731520D02*
D03*
X90170Y448310D02*
D03*
X316295Y347530D02*
D03*
X275590Y361950D02*
D03*
X276545Y347697D02*
D03*
X273169Y313349D02*
D03*
X256145Y292113D02*
D03*
X250591Y319667D02*
D03*
X158243Y547998D02*
D03*
X176732Y542450D02*
D03*
X194749Y496363D02*
D03*
X198120Y424180D02*
D03*
X346539Y542829D02*
D03*
X363134D02*
D03*
X123049Y496601D02*
D03*
X158838D02*
D03*
X105156Y542450D02*
D03*
X240705Y431995D02*
D03*
X236425Y442697D02*
D03*
X232750Y495285D02*
D03*
X273905Y541601D02*
D03*
X155754Y575341D02*
D03*
X284480Y433481D02*
D03*
X270257D02*
D03*
X255805D02*
D03*
X474190Y504495D02*
D03*
X182070Y385367D02*
D03*
X135519Y599306D02*
D03*
X262309Y392703D02*
D03*
X275816Y397908D02*
D03*
X250811Y387660D02*
D03*
X235898Y382508D02*
D03*
X847896Y839931D02*
D03*
X839610Y839379D02*
D03*
X840056Y819408D02*
D03*
Y809408D02*
D03*
Y829408D02*
D03*
X847450Y829960D02*
D03*
Y809960D02*
D03*
Y819960D02*
D03*
Y799960D02*
D03*
X839610Y846789D02*
D03*
X829635Y847341D02*
D03*
X819660D02*
D03*
X809686D02*
D03*
X799711D02*
D03*
X829635Y839379D02*
D03*
X819660D02*
D03*
X809686D02*
D03*
X792676Y725643D02*
D03*
X847450Y509960D02*
D03*
X529997Y722077D02*
D03*
X545442Y377829D02*
D03*
X572620D02*
D03*
X559031Y389513D02*
D03*
Y366145D02*
D03*
X572620Y389513D02*
D03*
X586491Y339275D02*
D03*
Y350112D02*
D03*
X473456Y371602D02*
D03*
X453649Y371194D02*
D03*
X443489D02*
D03*
X463809D02*
D03*
X559031Y377829D02*
D03*
X297017Y575826D02*
D03*
X847450Y309960D02*
D03*
Y329960D02*
D03*
Y319960D02*
D03*
X768350Y725643D02*
D03*
X780992Y698465D02*
D03*
X792676Y712054D02*
D03*
Y698465D02*
D03*
X780992Y712054D02*
D03*
X757513Y725643D02*
D03*
X746675D02*
D03*
X780992D02*
D03*
X785594Y606671D02*
D03*
Y626991D02*
D03*
Y616831D02*
D03*
X847450Y479960D02*
D03*
Y489960D02*
D03*
Y589960D02*
D03*
Y499960D02*
D03*
Y519960D02*
D03*
Y529960D02*
D03*
Y539960D02*
D03*
Y549960D02*
D03*
Y559960D02*
D03*
Y569960D02*
D03*
Y579960D02*
D03*
Y459960D02*
D03*
Y439960D02*
D03*
Y409960D02*
D03*
Y449960D02*
D03*
Y419960D02*
D03*
Y469960D02*
D03*
Y429960D02*
D03*
X785594Y596511D02*
D03*
X847450Y759960D02*
D03*
Y739960D02*
D03*
Y749960D02*
D03*
Y599960D02*
D03*
Y609960D02*
D03*
Y619960D02*
D03*
Y629960D02*
D03*
Y639960D02*
D03*
Y649960D02*
D03*
Y659960D02*
D03*
Y669960D02*
D03*
Y679960D02*
D03*
Y689960D02*
D03*
Y699960D02*
D03*
Y709960D02*
D03*
Y729960D02*
D03*
Y719960D02*
D03*
X239268Y694690D02*
D03*
X318963Y696261D02*
D03*
X847450Y189960D02*
D03*
Y199960D02*
D03*
Y209960D02*
D03*
Y219960D02*
D03*
Y229960D02*
D03*
Y239960D02*
D03*
Y249960D02*
D03*
Y259960D02*
D03*
Y269960D02*
D03*
Y279960D02*
D03*
Y289960D02*
D03*
Y299960D02*
D03*
X686948Y299611D02*
D03*
Y310152D02*
D03*
X847450Y59960D02*
D03*
Y69960D02*
D03*
Y79960D02*
D03*
Y89960D02*
D03*
Y159960D02*
D03*
Y149960D02*
D03*
Y139960D02*
D03*
Y129960D02*
D03*
Y119960D02*
D03*
Y109960D02*
D03*
Y99960D02*
D03*
X61586Y847341D02*
D03*
X11713D02*
D03*
Y839931D02*
D03*
X51612Y847341D02*
D03*
X41637D02*
D03*
X31662D02*
D03*
Y839931D02*
D03*
X21688Y847341D02*
D03*
Y839931D02*
D03*
X41637D02*
D03*
X650392Y705460D02*
D03*
X669392D02*
D03*
X629514D02*
D03*
X530352Y705612D02*
D03*
X610514Y705460D02*
D03*
X136093Y608163D02*
D03*
X10567Y19931D02*
D03*
X20542D02*
D03*
X30516D02*
D03*
X10567Y29931D02*
D03*
X20542D02*
D03*
X10567Y39931D02*
D03*
X20988Y9960D02*
D03*
X11013D02*
D03*
X829381Y20483D02*
D03*
X819406D02*
D03*
X829381Y30483D02*
D03*
X818960Y10512D02*
D03*
X828935D02*
D03*
X808986D02*
D03*
X830081Y829408D02*
D03*
X820106D02*
D03*
X830081Y819408D02*
D03*
X11267Y809960D02*
D03*
X21242Y819960D02*
D03*
X11267D02*
D03*
X31216Y829960D02*
D03*
X21242D02*
D03*
X11267D02*
D03*
X640116Y847341D02*
D03*
X680015D02*
D03*
X650091D02*
D03*
X699964D02*
D03*
X660066D02*
D03*
X670040D02*
D03*
X689990D02*
D03*
X709939D02*
D03*
X739863D02*
D03*
X749838D02*
D03*
X729888D02*
D03*
X719914D02*
D03*
X550345D02*
D03*
X610192D02*
D03*
X600218D02*
D03*
X590243D02*
D03*
X620167D02*
D03*
X570294D02*
D03*
X560319D02*
D03*
X580269D02*
D03*
X630142D02*
D03*
X370801D02*
D03*
X440623D02*
D03*
X430649D02*
D03*
X420674D02*
D03*
X410699D02*
D03*
X400725D02*
D03*
X390750D02*
D03*
X380775D02*
D03*
X360826D02*
D03*
X350851D02*
D03*
X340877D02*
D03*
X450598D02*
D03*
X300978D02*
D03*
X310953D02*
D03*
X320928D02*
D03*
X330902D02*
D03*
X460573D02*
D03*
X500471D02*
D03*
X510446D02*
D03*
X520421D02*
D03*
X530395D02*
D03*
X470547D02*
D03*
X480522D02*
D03*
X490497D02*
D03*
X540370D02*
D03*
X759812D02*
D03*
X769787D02*
D03*
X779762D02*
D03*
X789736D02*
D03*
X281029D02*
D03*
X241130D02*
D03*
X291003D02*
D03*
X271054D02*
D03*
X261080D02*
D03*
X251105D02*
D03*
X231155D02*
D03*
X211206D02*
D03*
X221181D02*
D03*
X191257D02*
D03*
X201232D02*
D03*
X141384D02*
D03*
X161333D02*
D03*
X181282D02*
D03*
X171308D02*
D03*
X151358D02*
D03*
X131409D02*
D03*
X121434D02*
D03*
X81536D02*
D03*
X101485D02*
D03*
X91510D02*
D03*
X71561D02*
D03*
X111460D02*
D03*
X847450Y399960D02*
D03*
Y389960D02*
D03*
Y379960D02*
D03*
Y339960D02*
D03*
Y369960D02*
D03*
Y359960D02*
D03*
Y349960D02*
D03*
Y769960D02*
D03*
Y779960D02*
D03*
Y789960D02*
D03*
X838910Y3102D02*
D03*
X828935Y2550D02*
D03*
X110760D02*
D03*
X20988D02*
D03*
X30962D02*
D03*
X40937D02*
D03*
X50912D02*
D03*
X60886D02*
D03*
X70861D02*
D03*
X90810D02*
D03*
X100785D02*
D03*
X80836D02*
D03*
X120734D02*
D03*
X130709D02*
D03*
X150658D02*
D03*
X170608D02*
D03*
X180582D02*
D03*
X160633D02*
D03*
X140684D02*
D03*
X200532D02*
D03*
X190557D02*
D03*
X220481D02*
D03*
X210506D02*
D03*
X230455D02*
D03*
X250405D02*
D03*
X260380D02*
D03*
X240430D02*
D03*
X799011D02*
D03*
X818960D02*
D03*
X789036D02*
D03*
X779062D02*
D03*
X769087D02*
D03*
X808986D02*
D03*
X759112D02*
D03*
X539670D02*
D03*
X489797D02*
D03*
X479822D02*
D03*
X469847D02*
D03*
X529695D02*
D03*
X519720D02*
D03*
X509746D02*
D03*
X499771D02*
D03*
X459873D02*
D03*
X449898D02*
D03*
X439923D02*
D03*
X629442D02*
D03*
X579568D02*
D03*
X559619D02*
D03*
X569594D02*
D03*
X589543D02*
D03*
X599518D02*
D03*
X549645D02*
D03*
X719214D02*
D03*
X729188D02*
D03*
X749138D02*
D03*
X739163D02*
D03*
X709239D02*
D03*
X689290D02*
D03*
X669340D02*
D03*
X659366D02*
D03*
X699264D02*
D03*
X649391D02*
D03*
X679315D02*
D03*
X639416D02*
D03*
X11013D02*
D03*
X2991Y839931D02*
D03*
X2545Y729960D02*
D03*
Y819960D02*
D03*
Y809960D02*
D03*
Y799960D02*
D03*
Y789960D02*
D03*
Y779960D02*
D03*
Y769960D02*
D03*
Y749960D02*
D03*
Y739960D02*
D03*
Y759960D02*
D03*
Y829960D02*
D03*
Y719960D02*
D03*
Y709960D02*
D03*
Y689960D02*
D03*
Y669960D02*
D03*
Y659960D02*
D03*
Y679960D02*
D03*
Y699960D02*
D03*
Y639960D02*
D03*
Y649960D02*
D03*
Y619960D02*
D03*
Y629960D02*
D03*
Y609960D02*
D03*
Y589960D02*
D03*
Y579960D02*
D03*
Y569960D02*
D03*
Y549960D02*
D03*
Y599960D02*
D03*
Y559960D02*
D03*
Y39960D02*
D03*
Y19960D02*
D03*
Y49960D02*
D03*
Y59960D02*
D03*
Y69960D02*
D03*
Y29960D02*
D03*
Y79960D02*
D03*
Y299960D02*
D03*
Y349960D02*
D03*
Y359960D02*
D03*
Y369960D02*
D03*
Y309960D02*
D03*
Y319960D02*
D03*
Y329960D02*
D03*
Y339960D02*
D03*
Y379960D02*
D03*
Y509960D02*
D03*
Y519960D02*
D03*
Y529960D02*
D03*
Y539960D02*
D03*
Y389960D02*
D03*
Y499960D02*
D03*
Y489960D02*
D03*
Y479960D02*
D03*
Y459960D02*
D03*
Y449960D02*
D03*
Y439960D02*
D03*
Y429960D02*
D03*
Y419960D02*
D03*
Y409960D02*
D03*
Y399960D02*
D03*
Y469960D02*
D03*
Y279960D02*
D03*
Y219960D02*
D03*
Y249960D02*
D03*
Y239960D02*
D03*
Y229960D02*
D03*
Y289960D02*
D03*
Y119960D02*
D03*
Y109960D02*
D03*
Y89960D02*
D03*
Y99960D02*
D03*
Y129960D02*
D03*
Y149960D02*
D03*
Y169960D02*
D03*
Y179960D02*
D03*
Y139960D02*
D03*
Y189960D02*
D03*
Y159960D02*
D03*
Y9960D02*
D03*
X219847Y716014D02*
D03*
X300294Y715142D02*
D03*
X260257Y715934D02*
D03*
X180340Y715010D02*
D03*
X68884Y586640D02*
D03*
Y596800D02*
D03*
Y606960D02*
D03*
Y617120D02*
D03*
X183780Y585269D02*
D03*
X677550Y304882D02*
D03*
X722267Y597022D02*
D03*
Y615878D02*
D03*
X716960Y606450D02*
D03*
X727573D02*
D03*
X641678Y597532D02*
D03*
Y616388D02*
D03*
X636372Y606960D02*
D03*
X646985D02*
D03*
X561325Y596950D02*
D03*
Y615807D02*
D03*
X556019Y606379D02*
D03*
X566631D02*
D03*
X480863Y596608D02*
D03*
Y615464D02*
D03*
X475556Y606036D02*
D03*
X486169D02*
D03*
X207002Y608163D02*
D03*
X197806Y609061D02*
D03*
X165845Y591003D02*
D03*
X236620D02*
D03*
X307475D02*
D03*
X401574Y623171D02*
D03*
X392684D02*
D03*
X348384D02*
D03*
X322567D02*
D03*
X335371D02*
D03*
X335770Y608163D02*
D03*
X268986D02*
D03*
X278930Y608331D02*
D03*
X348484Y599306D02*
D03*
X206756D02*
D03*
X136071Y619930D02*
D03*
X127181D02*
D03*
X206666Y623167D02*
D03*
X180849D02*
D03*
X188482Y615692D02*
D03*
X193653Y623167D02*
D03*
X277521D02*
D03*
X251705D02*
D03*
X259084Y615696D02*
D03*
X264508Y623167D02*
D03*
X330200Y615696D02*
D03*
X402665Y611993D02*
D03*
X143911Y672704D02*
D03*
X125739Y653942D02*
D03*
X134751Y663448D02*
D03*
X143764D02*
D03*
X277640Y599306D02*
D03*
X589382Y705460D02*
D03*
X570382D02*
D03*
X549504D02*
D03*
X134751Y654050D02*
D03*
X143764D02*
D03*
X304546Y606806D02*
D03*
X125555Y608544D02*
D03*
X395078Y476815D02*
D03*
X305877Y629420D02*
D03*
X279635Y695710D02*
D03*
X199390Y694182D02*
D03*
X348464Y608343D02*
D03*
X210159Y381799D02*
D03*
X104297Y655382D02*
D03*
Y640938D02*
D03*
X163428Y629333D02*
D03*
X234202D02*
D03*
X258074Y585470D02*
D03*
X328930D02*
D03*
X365909Y606810D02*
D03*
X375408D02*
D03*
X224191Y606806D02*
D03*
X233690D02*
D03*
X295046D02*
D03*
X162916D02*
D03*
X153416D02*
D03*
D154*
X254825Y59478D02*
D03*
X362525D02*
D03*
D155*
X590169Y121063D02*
D03*
D156*
X289970Y36143D02*
D03*
D157*
X289970Y84074D02*
D03*
D158*
X682075Y301690D02*
D03*
M02*
