G04*
G04 #@! TF.GenerationSoftware,Altium Limited,Altium Designer,24.1.2 (44)*
G04*
G04 Layer_Physical_Order=2*
G04 Layer_Color=15724527*
%FSLAX44Y44*%
%MOMM*%
G71*
G04*
G04 #@! TF.SameCoordinates,1E1B0E3F-32AE-4E86-94FA-F8EE38DC9C5D*
G04*
G04*
G04 #@! TF.FilePolarity,Positive*
G04*
G01*
G75*
%ADD25C,1.2300*%
%ADD122R,1.6000X1.6000*%
%ADD123C,1.6000*%
%ADD124C,1.4580*%
%ADD125C,0.3000*%
%ADD126C,1.3700*%
%ADD127R,1.3700X1.3700*%
%ADD128C,1.0000*%
%ADD129C,6.0000*%
%ADD130C,0.4000*%
%ADD131R,2.0320X2.3114*%
G36*
X789064Y835648D02*
X789529Y834378D01*
X786822Y830653D01*
X784551Y826196D01*
X783006Y821439D01*
X782223Y816498D01*
Y811496D01*
X783006Y806555D01*
X784551Y801797D01*
X786822Y797340D01*
X789763Y793294D01*
X793300Y789756D01*
X797347Y786816D01*
X801804Y784545D01*
X806561Y782999D01*
X811502Y782217D01*
X816504D01*
X821445Y782999D01*
X826202Y784545D01*
X830659Y786816D01*
X834384Y789522D01*
X835654Y789058D01*
X835654Y60936D01*
X834384Y60471D01*
X830659Y63177D01*
X826202Y65448D01*
X821445Y66994D01*
X816504Y67777D01*
X811502D01*
X806561Y66994D01*
X801804Y65448D01*
X797347Y63177D01*
X793300Y60237D01*
X789763Y56700D01*
X786822Y52653D01*
X784551Y48196D01*
X783006Y43439D01*
X782223Y38498D01*
Y33496D01*
X783006Y28555D01*
X784551Y23798D01*
X786822Y19340D01*
X789529Y15616D01*
X789064Y14346D01*
X60942Y14346D01*
X60477Y15616D01*
X63184Y19340D01*
X65455Y23798D01*
X67000Y28555D01*
X67783Y33496D01*
Y38498D01*
X67000Y43439D01*
X65455Y48196D01*
X63184Y52653D01*
X60244Y56700D01*
X56706Y60237D01*
X52659Y63177D01*
X48202Y65448D01*
X43445Y66994D01*
X38504Y67777D01*
X33502D01*
X28561Y66994D01*
X23804Y65448D01*
X19347Y63177D01*
X15622Y60471D01*
X14352Y60936D01*
X14352Y789058D01*
X15622Y789522D01*
X19347Y786816D01*
X23804Y784545D01*
X28561Y782999D01*
X33502Y782217D01*
X38504D01*
X43445Y782999D01*
X48202Y784545D01*
X52659Y786816D01*
X56706Y789756D01*
X60244Y793294D01*
X63184Y797340D01*
X65455Y801797D01*
X67000Y806555D01*
X67783Y811496D01*
Y816498D01*
X67000Y821439D01*
X65455Y826196D01*
X63184Y830653D01*
X60477Y834378D01*
X60942Y835648D01*
X789064Y835648D01*
D02*
G37*
%LPC*%
G36*
X147402Y776575D02*
X145898D01*
X144509Y775999D01*
X143445Y774936D01*
X142870Y773547D01*
Y772043D01*
X143445Y770653D01*
X144509Y769590D01*
X145898Y769015D01*
X147402D01*
X148791Y769590D01*
X149854Y770653D01*
X150430Y772043D01*
Y773547D01*
X149854Y774936D01*
X148791Y775999D01*
X147402Y776575D01*
D02*
G37*
G36*
X132556Y776469D02*
X131052D01*
X129663Y775894D01*
X128600Y774830D01*
X128024Y773441D01*
Y771937D01*
X128600Y770548D01*
X129663Y769485D01*
X131052Y768909D01*
X132556D01*
X133945Y769485D01*
X135009Y770548D01*
X135584Y771937D01*
Y773441D01*
X135009Y774830D01*
X133945Y775894D01*
X132556Y776469D01*
D02*
G37*
G36*
X95115Y775198D02*
X93611D01*
X92222Y774622D01*
X91159Y773559D01*
X90583Y772170D01*
Y770666D01*
X91159Y769277D01*
X92222Y768213D01*
X93611Y767638D01*
X95115D01*
X96504Y768213D01*
X97568Y769277D01*
X98143Y770666D01*
Y772170D01*
X97568Y773559D01*
X96504Y774622D01*
X95115Y775198D01*
D02*
G37*
G36*
X74034D02*
X72530D01*
X71141Y774622D01*
X70078Y773559D01*
X69502Y772170D01*
Y770666D01*
X70078Y769277D01*
X71141Y768213D01*
X72530Y767638D01*
X74034D01*
X75423Y768213D01*
X76487Y769277D01*
X77062Y770666D01*
Y772170D01*
X76487Y773559D01*
X75423Y774622D01*
X74034Y775198D01*
D02*
G37*
G36*
X139926Y769731D02*
X138422D01*
X137033Y769155D01*
X135970Y768092D01*
X135394Y766703D01*
Y765199D01*
X135970Y763810D01*
X137033Y762746D01*
X138422Y762171D01*
X139926D01*
X141315Y762746D01*
X142379Y763810D01*
X142954Y765199D01*
Y766703D01*
X142379Y768092D01*
X141315Y769155D01*
X139926Y769731D01*
D02*
G37*
G36*
X84574Y768354D02*
X83071D01*
X81681Y767778D01*
X80618Y766715D01*
X80043Y765326D01*
Y763822D01*
X80618Y762433D01*
X81681Y761369D01*
X83071Y760794D01*
X84574D01*
X85964Y761369D01*
X87027Y762433D01*
X87603Y763822D01*
Y765326D01*
X87027Y766715D01*
X85964Y767778D01*
X84574Y768354D01*
D02*
G37*
G36*
X132767Y762308D02*
X131263D01*
X129874Y761732D01*
X128810Y760669D01*
X128235Y759280D01*
Y757776D01*
X128810Y756387D01*
X129874Y755323D01*
X131263Y754748D01*
X132767D01*
X134156Y755323D01*
X135219Y756387D01*
X135795Y757776D01*
Y759280D01*
X135219Y760669D01*
X134156Y761732D01*
X132767Y762308D01*
D02*
G37*
G36*
X147191Y762255D02*
X145687D01*
X144298Y761680D01*
X143235Y760617D01*
X142659Y759227D01*
Y757723D01*
X143235Y756334D01*
X144298Y755271D01*
X145687Y754695D01*
X147191D01*
X148581Y755271D01*
X149644Y756334D01*
X150219Y757723D01*
Y759227D01*
X149644Y760617D01*
X148581Y761680D01*
X147191Y762255D01*
D02*
G37*
G36*
X74034Y760931D02*
X72530D01*
X71141Y760356D01*
X70078Y759292D01*
X69502Y757903D01*
Y756399D01*
X70078Y755010D01*
X71141Y753946D01*
X72530Y753371D01*
X74034D01*
X75423Y753946D01*
X76487Y755010D01*
X77062Y756399D01*
Y757903D01*
X76487Y759292D01*
X75423Y760356D01*
X74034Y760931D01*
D02*
G37*
G36*
X95115Y760878D02*
X93611D01*
X92222Y760303D01*
X91159Y759240D01*
X90583Y757850D01*
Y756347D01*
X91159Y754957D01*
X92222Y753894D01*
X93611Y753318D01*
X95115D01*
X96504Y753894D01*
X97568Y754957D01*
X98143Y756347D01*
Y757850D01*
X97568Y759240D01*
X96504Y760303D01*
X95115Y760878D01*
D02*
G37*
G36*
X84574Y754087D02*
X83071D01*
X81681Y753512D01*
X80618Y752448D01*
X80043Y751059D01*
Y749555D01*
X80618Y748166D01*
X81681Y747103D01*
X83071Y746527D01*
X84574D01*
X85964Y747103D01*
X87027Y748166D01*
X87603Y749555D01*
Y751059D01*
X87027Y752448D01*
X85964Y753512D01*
X84574Y754087D01*
D02*
G37*
G36*
X140751Y748777D02*
X139248D01*
X137858Y748201D01*
X136795Y747138D01*
X136219Y745749D01*
Y744245D01*
X136795Y742856D01*
X137858Y741792D01*
X139248Y741217D01*
X140751D01*
X142141Y741792D01*
X143204Y742856D01*
X143779Y744245D01*
Y745749D01*
X143204Y747138D01*
X142141Y748201D01*
X140751Y748777D01*
D02*
G37*
G36*
X74034Y746664D02*
X72530D01*
X71141Y746089D01*
X70078Y745025D01*
X69502Y743636D01*
Y742132D01*
X70078Y740743D01*
X71141Y739680D01*
X72530Y739104D01*
X74034D01*
X75423Y739680D01*
X76487Y740743D01*
X77062Y742132D01*
Y743636D01*
X76487Y745025D01*
X75423Y746089D01*
X74034Y746664D01*
D02*
G37*
G36*
X95115Y746612D02*
X93611D01*
X92222Y746036D01*
X91159Y744973D01*
X90583Y743584D01*
Y742080D01*
X91159Y740690D01*
X92222Y739627D01*
X93611Y739052D01*
X95115D01*
X96504Y739627D01*
X97568Y740690D01*
X98143Y742080D01*
Y743584D01*
X97568Y744973D01*
X96504Y746036D01*
X95115Y746612D01*
D02*
G37*
G36*
X735891Y753545D02*
X733316D01*
X730828Y752879D01*
X728598Y751591D01*
X726777Y749771D01*
X725490Y747540D01*
X724823Y745053D01*
Y742478D01*
X725490Y739990D01*
X726777Y737760D01*
X728598Y735939D01*
X730828Y734652D01*
X733316Y733985D01*
X735891D01*
X738378Y734652D01*
X740608Y735939D01*
X742429Y737760D01*
X743717Y739990D01*
X744383Y742478D01*
Y745053D01*
X743717Y747540D01*
X742429Y749771D01*
X740608Y751591D01*
X738378Y752879D01*
X735891Y753545D01*
D02*
G37*
G36*
X84574Y739820D02*
X83071D01*
X81681Y739245D01*
X80618Y738182D01*
X80043Y736792D01*
Y735288D01*
X80618Y733899D01*
X81681Y732836D01*
X83071Y732260D01*
X84574D01*
X85964Y732836D01*
X87027Y733899D01*
X87603Y735288D01*
Y736792D01*
X87027Y738182D01*
X85964Y739245D01*
X84574Y739820D01*
D02*
G37*
G36*
X663697Y749067D02*
X661309D01*
X659002Y748449D01*
X656934Y747255D01*
X655245Y745566D01*
X654051Y743498D01*
X653433Y741191D01*
Y738803D01*
X654051Y736496D01*
X655245Y734428D01*
X656934Y732739D01*
X659002Y731545D01*
X661309Y730927D01*
X663697D01*
X666004Y731545D01*
X668072Y732739D01*
X669761Y734428D01*
X670955Y736496D01*
X671573Y738803D01*
Y741191D01*
X670955Y743498D01*
X669761Y745566D01*
X668072Y747255D01*
X666004Y748449D01*
X663697Y749067D01*
D02*
G37*
G36*
X478697D02*
X476309D01*
X474002Y748449D01*
X471934Y747255D01*
X470245Y745566D01*
X469051Y743498D01*
X468433Y741191D01*
Y738803D01*
X469051Y736496D01*
X470245Y734428D01*
X471934Y732739D01*
X474002Y731545D01*
X476309Y730927D01*
X478697D01*
X481004Y731545D01*
X483072Y732739D01*
X484761Y734428D01*
X485955Y736496D01*
X486573Y738803D01*
Y741191D01*
X485955Y743498D01*
X484761Y745566D01*
X483072Y747255D01*
X481004Y748449D01*
X478697Y749067D01*
D02*
G37*
G36*
X353697Y749067D02*
X351309D01*
X349002Y748449D01*
X346934Y747255D01*
X345245Y745566D01*
X344051Y743498D01*
X343433Y741191D01*
Y738803D01*
X344051Y736496D01*
X345245Y734428D01*
X346934Y732739D01*
X349002Y731545D01*
X351309Y730927D01*
X353697D01*
X356004Y731545D01*
X358072Y732739D01*
X359761Y734428D01*
X360955Y736496D01*
X361573Y738803D01*
Y741191D01*
X360955Y743498D01*
X359761Y745566D01*
X358072Y747255D01*
X356004Y748449D01*
X353697Y749067D01*
D02*
G37*
G36*
X168697D02*
X166309D01*
X164002Y748449D01*
X161934Y747255D01*
X160245Y745566D01*
X159051Y743498D01*
X158433Y741191D01*
Y738803D01*
X159051Y736496D01*
X160245Y734428D01*
X161934Y732739D01*
X164002Y731545D01*
X166309Y730927D01*
X168697D01*
X171004Y731545D01*
X173072Y732739D01*
X174761Y734428D01*
X175955Y736496D01*
X176573Y738803D01*
Y741191D01*
X175955Y743498D01*
X174761Y745566D01*
X173072Y747255D01*
X171004Y748449D01*
X168697Y749067D01*
D02*
G37*
G36*
X74034Y732398D02*
X72530D01*
X71141Y731822D01*
X70078Y730759D01*
X69502Y729369D01*
Y727866D01*
X70078Y726476D01*
X71141Y725413D01*
X72530Y724837D01*
X74034D01*
X75423Y725413D01*
X76487Y726476D01*
X77062Y727866D01*
Y729369D01*
X76487Y730759D01*
X75423Y731822D01*
X74034Y732398D01*
D02*
G37*
G36*
X141407Y729193D02*
X139903D01*
X138514Y728618D01*
X137451Y727554D01*
X136875Y726165D01*
Y724661D01*
X137451Y723272D01*
X138514Y722209D01*
X139903Y721633D01*
X141407D01*
X142797Y722209D01*
X143860Y723272D01*
X144435Y724661D01*
Y726165D01*
X143860Y727554D01*
X142797Y728618D01*
X141407Y729193D01*
D02*
G37*
G36*
X206400Y725052D02*
X204896D01*
X203507Y724477D01*
X202443Y723413D01*
X201868Y722024D01*
Y720520D01*
X202443Y719131D01*
X203507Y718068D01*
X204896Y717492D01*
X206400D01*
X207789Y718068D01*
X208852Y719131D01*
X209428Y720520D01*
Y722024D01*
X208852Y723413D01*
X207789Y724477D01*
X206400Y725052D01*
D02*
G37*
G36*
Y712945D02*
X204896D01*
X203507Y712369D01*
X202443Y711306D01*
X201868Y709917D01*
Y708413D01*
X202443Y707024D01*
X203507Y705960D01*
X204896Y705385D01*
X206400D01*
X207789Y705960D01*
X208852Y707024D01*
X209428Y708413D01*
Y709917D01*
X208852Y711306D01*
X207789Y712369D01*
X206400Y712945D01*
D02*
G37*
G36*
Y700837D02*
X204896D01*
X203507Y700262D01*
X202443Y699199D01*
X201868Y697809D01*
Y696306D01*
X202443Y694916D01*
X203507Y693853D01*
X204896Y693278D01*
X206400D01*
X207789Y693853D01*
X208852Y694916D01*
X209428Y696306D01*
Y697809D01*
X208852Y699199D01*
X207789Y700262D01*
X206400Y700837D01*
D02*
G37*
G36*
X464801Y691324D02*
X463297D01*
X461908Y690748D01*
X460844Y689685D01*
X460269Y688296D01*
Y686792D01*
X460844Y685403D01*
X461908Y684339D01*
X463297Y683764D01*
X464801D01*
X466190Y684339D01*
X467253Y685403D01*
X467829Y686792D01*
Y688296D01*
X467253Y689685D01*
X466190Y690748D01*
X464801Y691324D01*
D02*
G37*
G36*
X663697Y701567D02*
X661309D01*
X659002Y700949D01*
X656934Y699755D01*
X655245Y698066D01*
X654051Y695998D01*
X653433Y693691D01*
Y691303D01*
X654051Y688996D01*
X655245Y686928D01*
X656934Y685239D01*
X659002Y684045D01*
X661309Y683427D01*
X663697D01*
X666004Y684045D01*
X668072Y685239D01*
X669761Y686928D01*
X670955Y688996D01*
X671573Y691303D01*
Y693691D01*
X670955Y695998D01*
X669761Y698066D01*
X668072Y699755D01*
X666004Y700949D01*
X663697Y701567D01*
D02*
G37*
G36*
X478697D02*
X476309D01*
X474002Y700949D01*
X471934Y699755D01*
X470245Y698066D01*
X469051Y695998D01*
X468433Y693691D01*
Y691303D01*
X469051Y688996D01*
X470245Y686928D01*
X471934Y685239D01*
X474002Y684045D01*
X476309Y683427D01*
X478697D01*
X481004Y684045D01*
X483072Y685239D01*
X484761Y686928D01*
X485955Y688996D01*
X486573Y691303D01*
Y693691D01*
X485955Y695998D01*
X484761Y698066D01*
X483072Y699755D01*
X481004Y700949D01*
X478697Y701567D01*
D02*
G37*
G36*
X353697Y701567D02*
X351309D01*
X349002Y700949D01*
X346934Y699755D01*
X345245Y698066D01*
X344051Y695998D01*
X343433Y693691D01*
Y691303D01*
X344051Y688996D01*
X345245Y686928D01*
X346934Y685239D01*
X349002Y684045D01*
X351309Y683427D01*
X353697D01*
X356004Y684045D01*
X358072Y685239D01*
X359761Y686928D01*
X360955Y688996D01*
X361573Y691303D01*
Y693691D01*
X360955Y695998D01*
X359761Y698066D01*
X358072Y699755D01*
X356004Y700949D01*
X353697Y701567D01*
D02*
G37*
G36*
X168697D02*
X166309D01*
X164002Y700949D01*
X161934Y699755D01*
X160245Y698066D01*
X159051Y695998D01*
X158433Y693691D01*
Y691303D01*
X159051Y688996D01*
X160245Y686928D01*
X161934Y685239D01*
X164002Y684045D01*
X166309Y683427D01*
X168697D01*
X171004Y684045D01*
X173072Y685239D01*
X174761Y686928D01*
X175955Y688996D01*
X176573Y691303D01*
Y693691D01*
X175955Y695998D01*
X174761Y698066D01*
X173072Y699755D01*
X171004Y700949D01*
X168697Y701567D01*
D02*
G37*
G36*
X735891Y702745D02*
X733316D01*
X730828Y702079D01*
X728598Y700791D01*
X726777Y698970D01*
X725490Y696740D01*
X724823Y694253D01*
Y691678D01*
X725490Y689191D01*
X726777Y686960D01*
X728598Y685139D01*
X730828Y683852D01*
X733316Y683185D01*
X735891D01*
X738378Y683852D01*
X740608Y685139D01*
X742429Y686960D01*
X743717Y689191D01*
X744383Y691678D01*
Y694253D01*
X743717Y696740D01*
X742429Y698970D01*
X740608Y700791D01*
X738378Y702079D01*
X735891Y702745D01*
D02*
G37*
G36*
X206400Y688730D02*
X204896D01*
X203507Y688155D01*
X202443Y687091D01*
X201868Y685702D01*
Y684198D01*
X202443Y682809D01*
X203507Y681746D01*
X204896Y681170D01*
X206400D01*
X207789Y681746D01*
X208852Y682809D01*
X209428Y684198D01*
Y685702D01*
X208852Y687091D01*
X207789Y688155D01*
X206400Y688730D01*
D02*
G37*
G36*
X520693Y680941D02*
X519189D01*
X517800Y680365D01*
X516736Y679302D01*
X516161Y677913D01*
Y676409D01*
X516736Y675020D01*
X517800Y673956D01*
X519189Y673381D01*
X520693D01*
X522082Y673956D01*
X523146Y675020D01*
X523721Y676409D01*
Y677913D01*
X523146Y679302D01*
X522082Y680365D01*
X520693Y680941D01*
D02*
G37*
G36*
X601211Y680179D02*
X599707D01*
X598318Y679603D01*
X597254Y678540D01*
X596679Y677151D01*
Y675647D01*
X597254Y674258D01*
X598318Y673194D01*
X599707Y672619D01*
X601211D01*
X602600Y673194D01*
X603664Y674258D01*
X604239Y675647D01*
Y677151D01*
X603664Y678540D01*
X602600Y679603D01*
X601211Y680179D01*
D02*
G37*
G36*
X206400Y676623D02*
X204896D01*
X203507Y676047D01*
X202443Y674984D01*
X201868Y673595D01*
Y672091D01*
X202443Y670702D01*
X203507Y669638D01*
X204896Y669063D01*
X206400D01*
X207789Y669638D01*
X208852Y670702D01*
X209428Y672091D01*
Y673595D01*
X208852Y674984D01*
X207789Y676047D01*
X206400Y676623D01*
D02*
G37*
G36*
X470790Y675826D02*
X469286D01*
X467897Y675250D01*
X466833Y674187D01*
X466258Y672798D01*
Y671294D01*
X466833Y669905D01*
X467897Y668841D01*
X469286Y668266D01*
X470790D01*
X472179Y668841D01*
X473242Y669905D01*
X473818Y671294D01*
Y672798D01*
X473242Y674187D01*
X472179Y675250D01*
X470790Y675826D01*
D02*
G37*
G36*
X141531Y671976D02*
X140027D01*
X138638Y671400D01*
X137575Y670337D01*
X136999Y668948D01*
Y667444D01*
X137575Y666054D01*
X138638Y664991D01*
X140027Y664416D01*
X141531D01*
X142921Y664991D01*
X143984Y666054D01*
X144559Y667444D01*
Y668948D01*
X143984Y670337D01*
X142921Y671400D01*
X141531Y671976D01*
D02*
G37*
G36*
X735891Y677345D02*
X733316D01*
X730828Y676679D01*
X728598Y675391D01*
X726777Y673570D01*
X725490Y671340D01*
X724823Y668853D01*
Y666278D01*
X725490Y663791D01*
X726777Y661560D01*
X728598Y659740D01*
X730828Y658452D01*
X733316Y657785D01*
X735891D01*
X738378Y658452D01*
X740608Y659740D01*
X742429Y661560D01*
X743717Y663791D01*
X744383Y666278D01*
Y668853D01*
X743717Y671340D01*
X742429Y673570D01*
X740608Y675391D01*
X738378Y676679D01*
X735891Y677345D01*
D02*
G37*
G36*
X476837Y658732D02*
X475333D01*
X473944Y658157D01*
X472881Y657093D01*
X472305Y655704D01*
Y654200D01*
X472881Y652811D01*
X473944Y651748D01*
X475333Y651172D01*
X476837D01*
X478227Y651748D01*
X479290Y652811D01*
X479865Y654200D01*
Y655704D01*
X479290Y657093D01*
X478227Y658157D01*
X476837Y658732D01*
D02*
G37*
G36*
X210814Y657650D02*
X209310D01*
X207921Y657074D01*
X206858Y656011D01*
X206282Y654621D01*
Y653118D01*
X206858Y651728D01*
X207921Y650665D01*
X209310Y650089D01*
X210814D01*
X212204Y650665D01*
X213267Y651728D01*
X213842Y653118D01*
Y654621D01*
X213267Y656011D01*
X212204Y657074D01*
X210814Y657650D01*
D02*
G37*
G36*
X250945Y656303D02*
X249441D01*
X248052Y655727D01*
X246989Y654664D01*
X246413Y653275D01*
Y651771D01*
X246989Y650382D01*
X248052Y649318D01*
X249441Y648743D01*
X250945D01*
X252334Y649318D01*
X253398Y650382D01*
X253973Y651771D01*
Y653275D01*
X253398Y654664D01*
X252334Y655727D01*
X250945Y656303D01*
D02*
G37*
G36*
X290480Y655780D02*
X288976D01*
X287587Y655204D01*
X286524Y654141D01*
X285948Y652752D01*
Y651248D01*
X286524Y649859D01*
X287587Y648795D01*
X288976Y648220D01*
X290480D01*
X291869Y648795D01*
X292933Y649859D01*
X293508Y651248D01*
Y652752D01*
X292933Y654141D01*
X291869Y655204D01*
X290480Y655780D01*
D02*
G37*
G36*
X580755Y655277D02*
X579251D01*
X577862Y654701D01*
X576799Y653638D01*
X576223Y652249D01*
Y650745D01*
X576799Y649356D01*
X577862Y648292D01*
X579251Y647717D01*
X580755D01*
X582144Y648292D01*
X583208Y649356D01*
X583783Y650745D01*
Y652249D01*
X583208Y653638D01*
X582144Y654701D01*
X580755Y655277D01*
D02*
G37*
G36*
X540755D02*
X539251D01*
X537862Y654701D01*
X536799Y653638D01*
X536223Y652249D01*
Y650745D01*
X536799Y649356D01*
X537862Y648292D01*
X539251Y647717D01*
X540755D01*
X542144Y648292D01*
X543208Y649356D01*
X543783Y650745D01*
Y652249D01*
X543208Y653638D01*
X542144Y654701D01*
X540755Y655277D01*
D02*
G37*
G36*
X520755D02*
X519251D01*
X517862Y654701D01*
X516799Y653638D01*
X516223Y652249D01*
Y650745D01*
X516799Y649356D01*
X517862Y648292D01*
X519251Y647717D01*
X520755D01*
X522144Y648292D01*
X523208Y649356D01*
X523783Y650745D01*
Y652249D01*
X523208Y653638D01*
X522144Y654701D01*
X520755Y655277D01*
D02*
G37*
G36*
X601538Y655204D02*
X600034D01*
X598645Y654628D01*
X597581Y653565D01*
X597006Y652176D01*
Y650672D01*
X597581Y649282D01*
X598645Y648219D01*
X600034Y647644D01*
X601538D01*
X602927Y648219D01*
X603991Y649282D01*
X604566Y650672D01*
Y652176D01*
X603991Y653565D01*
X602927Y654628D01*
X601538Y655204D01*
D02*
G37*
G36*
X331255Y654734D02*
X329751D01*
X328362Y654158D01*
X327299Y653095D01*
X326723Y651706D01*
Y650202D01*
X327299Y648813D01*
X328362Y647749D01*
X329751Y647174D01*
X331255D01*
X332644Y647749D01*
X333708Y648813D01*
X334283Y650202D01*
Y651706D01*
X333708Y653095D01*
X332644Y654158D01*
X331255Y654734D01*
D02*
G37*
G36*
X86647Y652132D02*
X85144D01*
X83754Y651556D01*
X82691Y650493D01*
X82115Y649104D01*
Y647600D01*
X82691Y646210D01*
X83754Y645147D01*
X85144Y644572D01*
X86647D01*
X88037Y645147D01*
X89100Y646210D01*
X89676Y647600D01*
Y649104D01*
X89100Y650493D01*
X88037Y651556D01*
X86647Y652132D01*
D02*
G37*
G36*
X78096Y643568D02*
X76592D01*
X75203Y642993D01*
X74139Y641930D01*
X73564Y640540D01*
Y639036D01*
X74139Y637647D01*
X75203Y636584D01*
X76592Y636008D01*
X78096D01*
X79485Y636584D01*
X80549Y637647D01*
X81124Y639036D01*
Y640540D01*
X80549Y641930D01*
X79485Y642993D01*
X78096Y643568D01*
D02*
G37*
G36*
X570477Y643349D02*
X568973D01*
X567584Y642773D01*
X566521Y641710D01*
X565945Y640321D01*
Y638817D01*
X566521Y637428D01*
X567584Y636364D01*
X568973Y635789D01*
X570477D01*
X571866Y636364D01*
X572930Y637428D01*
X573505Y638817D01*
Y640321D01*
X572930Y641710D01*
X571866Y642773D01*
X570477Y643349D01*
D02*
G37*
G36*
X650502Y642841D02*
X648998D01*
X647609Y642265D01*
X646545Y641202D01*
X645970Y639813D01*
Y638309D01*
X646545Y636920D01*
X647609Y635856D01*
X648998Y635281D01*
X650502D01*
X651891Y635856D01*
X652955Y636920D01*
X653530Y638309D01*
Y639813D01*
X652955Y641202D01*
X651891Y642265D01*
X650502Y642841D01*
D02*
G37*
G36*
X482020Y642045D02*
X480516D01*
X479127Y641469D01*
X478064Y640406D01*
X477488Y639016D01*
Y637513D01*
X478064Y636123D01*
X479127Y635060D01*
X480516Y634484D01*
X482020D01*
X483409Y635060D01*
X484473Y636123D01*
X485048Y637513D01*
Y639016D01*
X484473Y640406D01*
X483409Y641469D01*
X482020Y642045D01*
D02*
G37*
G36*
X744383Y651945D02*
X724823D01*
Y632385D01*
X744383D01*
Y651945D01*
D02*
G37*
G36*
X86647Y635005D02*
X85144D01*
X83754Y634430D01*
X82691Y633366D01*
X82115Y631977D01*
Y630473D01*
X82691Y629084D01*
X83754Y628021D01*
X85144Y627445D01*
X86647D01*
X88037Y628021D01*
X89100Y629084D01*
X89676Y630473D01*
Y631977D01*
X89100Y633366D01*
X88037Y634430D01*
X86647Y635005D01*
D02*
G37*
G36*
X69545D02*
X68041D01*
X66652Y634430D01*
X65588Y633366D01*
X65013Y631977D01*
Y630473D01*
X65588Y629084D01*
X66652Y628021D01*
X68041Y627445D01*
X69545D01*
X70934Y628021D01*
X71997Y629084D01*
X72573Y630473D01*
Y631977D01*
X71997Y633366D01*
X70934Y634430D01*
X69545Y635005D01*
D02*
G37*
G36*
X78096Y626442D02*
X76592D01*
X75203Y625866D01*
X74139Y624803D01*
X73564Y623414D01*
Y621910D01*
X74139Y620521D01*
X75203Y619457D01*
X76592Y618882D01*
X78096D01*
X79485Y619457D01*
X80549Y620521D01*
X81124Y621910D01*
Y623414D01*
X80549Y624803D01*
X79485Y625866D01*
X78096Y626442D01*
D02*
G37*
G36*
X540624Y624809D02*
X539120D01*
X537731Y624234D01*
X536668Y623171D01*
X536092Y621781D01*
Y620278D01*
X536668Y618888D01*
X537731Y617825D01*
X539120Y617249D01*
X540624D01*
X542013Y617825D01*
X543077Y618888D01*
X543652Y620278D01*
Y621781D01*
X543077Y623171D01*
X542013Y624234D01*
X540624Y624809D01*
D02*
G37*
G36*
X650995Y624553D02*
X649491D01*
X648102Y623977D01*
X647038Y622914D01*
X646463Y621525D01*
Y620021D01*
X647038Y618632D01*
X648102Y617568D01*
X649491Y616993D01*
X650995D01*
X652384Y617568D01*
X653448Y618632D01*
X654023Y620021D01*
Y621525D01*
X653448Y622914D01*
X652384Y623977D01*
X650995Y624553D01*
D02*
G37*
G36*
X632099Y624457D02*
X630595D01*
X629206Y623882D01*
X628142Y622819D01*
X627567Y621429D01*
Y619925D01*
X628142Y618536D01*
X629206Y617473D01*
X630595Y616897D01*
X632099D01*
X633488Y617473D01*
X634552Y618536D01*
X635127Y619925D01*
Y621429D01*
X634552Y622819D01*
X633488Y623882D01*
X632099Y624457D01*
D02*
G37*
G36*
X69545Y617878D02*
X68041D01*
X66652Y617303D01*
X65588Y616240D01*
X65013Y614850D01*
Y613346D01*
X65588Y611957D01*
X66652Y610894D01*
X68041Y610318D01*
X69545D01*
X70934Y610894D01*
X71997Y611957D01*
X72573Y613346D01*
Y614850D01*
X71997Y616240D01*
X70934Y617303D01*
X69545Y617878D01*
D02*
G37*
G36*
X153577Y585777D02*
X152073D01*
X150683Y585202D01*
X149620Y584138D01*
X149045Y582749D01*
Y581245D01*
X149620Y579856D01*
X150683Y578793D01*
X152073Y578217D01*
X153577D01*
X154966Y578793D01*
X156029Y579856D01*
X156605Y581245D01*
Y582749D01*
X156029Y584138D01*
X154966Y585202D01*
X153577Y585777D01*
D02*
G37*
G36*
X224783Y569943D02*
X223279D01*
X221890Y569367D01*
X220826Y568304D01*
X220251Y566915D01*
Y565411D01*
X220826Y564022D01*
X221890Y562958D01*
X223279Y562383D01*
X224783D01*
X226172Y562958D01*
X227236Y564022D01*
X227811Y565411D01*
Y566915D01*
X227236Y568304D01*
X226172Y569367D01*
X224783Y569943D01*
D02*
G37*
G36*
X456685Y569689D02*
X455181D01*
X453792Y569113D01*
X452729Y568050D01*
X452153Y566661D01*
Y565157D01*
X452729Y563768D01*
X453792Y562704D01*
X455181Y562129D01*
X456685D01*
X458074Y562704D01*
X459138Y563768D01*
X459713Y565157D01*
Y566661D01*
X459138Y568050D01*
X458074Y569113D01*
X456685Y569689D01*
D02*
G37*
G36*
X340607Y569181D02*
X339103D01*
X337714Y568605D01*
X336651Y567542D01*
X336075Y566153D01*
Y564649D01*
X336651Y563260D01*
X337714Y562196D01*
X339103Y561621D01*
X340607D01*
X341996Y562196D01*
X343060Y563260D01*
X343635Y564649D01*
Y566153D01*
X343060Y567542D01*
X341996Y568605D01*
X340607Y569181D01*
D02*
G37*
G36*
X735891Y579777D02*
X733316D01*
X730828Y579110D01*
X728598Y577823D01*
X726777Y576002D01*
X725490Y573772D01*
X724823Y571284D01*
Y568709D01*
X725490Y566222D01*
X726777Y563992D01*
X728598Y562171D01*
X730828Y560883D01*
X733316Y560217D01*
X735891D01*
X738378Y560883D01*
X740608Y562171D01*
X742429Y563992D01*
X743717Y566222D01*
X744383Y568709D01*
Y571284D01*
X743717Y573772D01*
X742429Y576002D01*
X740608Y577823D01*
X738378Y579110D01*
X735891Y579777D01*
D02*
G37*
G36*
X108628Y567171D02*
X107124D01*
X105734Y566595D01*
X104671Y565532D01*
X104096Y564143D01*
Y562639D01*
X104671Y561250D01*
X105734Y560186D01*
X107124Y559611D01*
X108628D01*
X110017Y560186D01*
X111080Y561250D01*
X111656Y562639D01*
Y564143D01*
X111080Y565532D01*
X110017Y566595D01*
X108628Y567171D01*
D02*
G37*
G36*
X649688Y558700D02*
X648184D01*
X646795Y558125D01*
X645731Y557061D01*
X645156Y555672D01*
Y554168D01*
X645731Y552779D01*
X646795Y551716D01*
X648184Y551140D01*
X649688D01*
X651077Y551716D01*
X652140Y552779D01*
X652716Y554168D01*
Y555672D01*
X652140Y557061D01*
X651077Y558125D01*
X649688Y558700D01*
D02*
G37*
G36*
X523410Y557798D02*
X521906D01*
X520517Y557222D01*
X519453Y556159D01*
X518878Y554769D01*
Y553266D01*
X519453Y551876D01*
X520517Y550813D01*
X521906Y550238D01*
X523410D01*
X524799Y550813D01*
X525862Y551876D01*
X526438Y553266D01*
Y554769D01*
X525862Y556159D01*
X524799Y557222D01*
X523410Y557798D01*
D02*
G37*
G36*
X493206Y550642D02*
X491703D01*
X490313Y550067D01*
X489250Y549003D01*
X488675Y547614D01*
Y546110D01*
X489250Y544721D01*
X490313Y543658D01*
X491703Y543082D01*
X493206D01*
X494596Y543658D01*
X495659Y544721D01*
X496235Y546110D01*
Y547614D01*
X495659Y549003D01*
X494596Y550067D01*
X493206Y550642D01*
D02*
G37*
G36*
X482457D02*
X480953D01*
X479564Y550067D01*
X478501Y549003D01*
X477925Y547614D01*
Y546110D01*
X478501Y544721D01*
X479564Y543658D01*
X480953Y543082D01*
X482457D01*
X483847Y543658D01*
X484910Y544721D01*
X485485Y546110D01*
Y547614D01*
X484910Y549003D01*
X483847Y550067D01*
X482457Y550642D01*
D02*
G37*
G36*
X471708D02*
X470205D01*
X468815Y550067D01*
X467752Y549003D01*
X467176Y547614D01*
Y546110D01*
X467752Y544721D01*
X468815Y543658D01*
X470205Y543082D01*
X471708D01*
X473098Y543658D01*
X474161Y544721D01*
X474736Y546110D01*
Y547614D01*
X474161Y549003D01*
X473098Y550067D01*
X471708Y550642D01*
D02*
G37*
G36*
X408590D02*
X407086D01*
X405697Y550067D01*
X404634Y549003D01*
X404058Y547614D01*
Y546110D01*
X404634Y544721D01*
X405697Y543658D01*
X407086Y543082D01*
X408590D01*
X409980Y543658D01*
X411043Y544721D01*
X411618Y546110D01*
Y547614D01*
X411043Y549003D01*
X409980Y550067D01*
X408590Y550642D01*
D02*
G37*
G36*
X398041D02*
X396537D01*
X395148Y550067D01*
X394084Y549003D01*
X393509Y547614D01*
Y546110D01*
X394084Y544721D01*
X395148Y543658D01*
X396537Y543082D01*
X398041D01*
X399430Y543658D01*
X400494Y544721D01*
X401069Y546110D01*
Y547614D01*
X400494Y549003D01*
X399430Y550067D01*
X398041Y550642D01*
D02*
G37*
G36*
X387492D02*
X385988D01*
X384599Y550067D01*
X383535Y549003D01*
X382960Y547614D01*
Y546110D01*
X383535Y544721D01*
X384599Y543658D01*
X385988Y543082D01*
X387492D01*
X388881Y543658D01*
X389944Y544721D01*
X390520Y546110D01*
Y547614D01*
X389944Y549003D01*
X388881Y550067D01*
X387492Y550642D01*
D02*
G37*
G36*
X376942D02*
X375438D01*
X374049Y550067D01*
X372986Y549003D01*
X372410Y547614D01*
Y546110D01*
X372986Y544721D01*
X374049Y543658D01*
X375438Y543082D01*
X376942D01*
X378332Y543658D01*
X379395Y544721D01*
X379970Y546110D01*
Y547614D01*
X379395Y549003D01*
X378332Y550067D01*
X376942Y550642D01*
D02*
G37*
G36*
X366393D02*
X364889D01*
X363500Y550067D01*
X362436Y549003D01*
X361861Y547614D01*
Y546110D01*
X362436Y544721D01*
X363500Y543658D01*
X364889Y543082D01*
X366393D01*
X367782Y543658D01*
X368846Y544721D01*
X369421Y546110D01*
Y547614D01*
X368846Y549003D01*
X367782Y550067D01*
X366393Y550642D01*
D02*
G37*
G36*
X355844D02*
X354340D01*
X352951Y550067D01*
X351887Y549003D01*
X351312Y547614D01*
Y546110D01*
X351887Y544721D01*
X352951Y543658D01*
X354340Y543082D01*
X355844D01*
X357233Y543658D01*
X358296Y544721D01*
X358872Y546110D01*
Y547614D01*
X358296Y549003D01*
X357233Y550067D01*
X355844Y550642D01*
D02*
G37*
G36*
X282010D02*
X280506D01*
X279116Y550067D01*
X278053Y549003D01*
X277478Y547614D01*
Y546110D01*
X278053Y544721D01*
X279116Y543658D01*
X280506Y543082D01*
X282010D01*
X283399Y543658D01*
X284462Y544721D01*
X285038Y546110D01*
Y547614D01*
X284462Y549003D01*
X283399Y550067D01*
X282010Y550642D01*
D02*
G37*
G36*
X271460D02*
X269956D01*
X268567Y550067D01*
X267504Y549003D01*
X266928Y547614D01*
Y546110D01*
X267504Y544721D01*
X268567Y543658D01*
X269956Y543082D01*
X271460D01*
X272850Y543658D01*
X273913Y544721D01*
X274488Y546110D01*
Y547614D01*
X273913Y549003D01*
X272850Y550067D01*
X271460Y550642D01*
D02*
G37*
G36*
X260911D02*
X259407D01*
X258018Y550067D01*
X256954Y549003D01*
X256379Y547614D01*
Y546110D01*
X256954Y544721D01*
X258018Y543658D01*
X259407Y543082D01*
X260911D01*
X262300Y543658D01*
X263364Y544721D01*
X263939Y546110D01*
Y547614D01*
X263364Y549003D01*
X262300Y550067D01*
X260911Y550642D01*
D02*
G37*
G36*
X250362D02*
X248858D01*
X247469Y550067D01*
X246405Y549003D01*
X245830Y547614D01*
Y546110D01*
X246405Y544721D01*
X247469Y543658D01*
X248858Y543082D01*
X250362D01*
X251751Y543658D01*
X252814Y544721D01*
X253390Y546110D01*
Y547614D01*
X252814Y549003D01*
X251751Y550067D01*
X250362Y550642D01*
D02*
G37*
G36*
X239812D02*
X238309D01*
X236919Y550067D01*
X235856Y549003D01*
X235280Y547614D01*
Y546110D01*
X235856Y544721D01*
X236919Y543658D01*
X238309Y543082D01*
X239812D01*
X241202Y543658D01*
X242265Y544721D01*
X242840Y546110D01*
Y547614D01*
X242265Y549003D01*
X241202Y550067D01*
X239812Y550642D01*
D02*
G37*
G36*
X176528D02*
X175024D01*
X173634Y550067D01*
X172571Y549003D01*
X171996Y547614D01*
Y546110D01*
X172571Y544721D01*
X173634Y543658D01*
X175024Y543082D01*
X176528D01*
X177917Y543658D01*
X178980Y544721D01*
X179556Y546110D01*
Y547614D01*
X178980Y549003D01*
X177917Y550067D01*
X176528Y550642D01*
D02*
G37*
G36*
X165978D02*
X164475D01*
X163085Y550067D01*
X162022Y549003D01*
X161446Y547614D01*
Y546110D01*
X162022Y544721D01*
X163085Y543658D01*
X164475Y543082D01*
X165978D01*
X167368Y543658D01*
X168431Y544721D01*
X169006Y546110D01*
Y547614D01*
X168431Y549003D01*
X167368Y550067D01*
X165978Y550642D01*
D02*
G37*
G36*
X155429D02*
X153925D01*
X152536Y550067D01*
X151473Y549003D01*
X150897Y547614D01*
Y546110D01*
X151473Y544721D01*
X152536Y543658D01*
X153925Y543082D01*
X155429D01*
X156818Y543658D01*
X157882Y544721D01*
X158457Y546110D01*
Y547614D01*
X157882Y549003D01*
X156818Y550067D01*
X155429Y550642D01*
D02*
G37*
G36*
X144880D02*
X143376D01*
X141987Y550067D01*
X140923Y549003D01*
X140348Y547614D01*
Y546110D01*
X140923Y544721D01*
X141987Y543658D01*
X143376Y543082D01*
X144880D01*
X146269Y543658D01*
X147332Y544721D01*
X147908Y546110D01*
Y547614D01*
X147332Y549003D01*
X146269Y550067D01*
X144880Y550642D01*
D02*
G37*
G36*
X134330D02*
X132827D01*
X131437Y550067D01*
X130374Y549003D01*
X129798Y547614D01*
Y546110D01*
X130374Y544721D01*
X131437Y543658D01*
X132827Y543082D01*
X134330D01*
X135720Y543658D01*
X136783Y544721D01*
X137359Y546110D01*
Y547614D01*
X136783Y549003D01*
X135720Y550067D01*
X134330Y550642D01*
D02*
G37*
G36*
X123781D02*
X122277D01*
X120888Y550067D01*
X119825Y549003D01*
X119249Y547614D01*
Y546110D01*
X119825Y544721D01*
X120888Y543658D01*
X122277Y543082D01*
X123781D01*
X125170Y543658D01*
X126234Y544721D01*
X126809Y546110D01*
Y547614D01*
X126234Y549003D01*
X125170Y550067D01*
X123781Y550642D01*
D02*
G37*
G36*
X68278D02*
X66775D01*
X65385Y550067D01*
X64322Y549003D01*
X63747Y547614D01*
Y546110D01*
X64322Y544721D01*
X65385Y543658D01*
X66775Y543082D01*
X68278D01*
X69668Y543658D01*
X70731Y544721D01*
X71307Y546110D01*
Y547614D01*
X70731Y549003D01*
X69668Y550067D01*
X68278Y550642D01*
D02*
G37*
G36*
X46780D02*
X45277D01*
X43887Y550067D01*
X42824Y549003D01*
X42249Y547614D01*
Y546110D01*
X42824Y544721D01*
X43887Y543658D01*
X45277Y543082D01*
X46780D01*
X48170Y543658D01*
X49233Y544721D01*
X49809Y546110D01*
Y547614D01*
X49233Y549003D01*
X48170Y550067D01*
X46780Y550642D01*
D02*
G37*
G36*
X293123Y550573D02*
X291619D01*
X290230Y549997D01*
X289167Y548934D01*
X288591Y547545D01*
Y546041D01*
X289167Y544651D01*
X290230Y543588D01*
X291619Y543013D01*
X293123D01*
X294512Y543588D01*
X295576Y544651D01*
X296151Y546041D01*
Y547545D01*
X295576Y548934D01*
X294512Y549997D01*
X293123Y550573D01*
D02*
G37*
G36*
X744383Y554377D02*
X724823D01*
Y534817D01*
X744383D01*
Y554377D01*
D02*
G37*
G36*
X181362Y542083D02*
X179858D01*
X178469Y541507D01*
X177405Y540444D01*
X176830Y539055D01*
Y537551D01*
X177405Y536162D01*
X178469Y535098D01*
X179858Y534523D01*
X181362D01*
X182751Y535098D01*
X183814Y536162D01*
X184390Y537551D01*
Y539055D01*
X183814Y540444D01*
X182751Y541507D01*
X181362Y542083D01*
D02*
G37*
G36*
X415518Y542035D02*
X414015D01*
X412625Y541459D01*
X411562Y540396D01*
X410987Y539007D01*
Y537503D01*
X411562Y536114D01*
X412625Y535050D01*
X414015Y534475D01*
X415518D01*
X416908Y535050D01*
X417971Y536114D01*
X418547Y537503D01*
Y539007D01*
X417971Y540396D01*
X416908Y541459D01*
X415518Y542035D01*
D02*
G37*
G36*
X296855Y542031D02*
X295351D01*
X293962Y541455D01*
X292898Y540392D01*
X292323Y539003D01*
Y537499D01*
X292898Y536110D01*
X293962Y535046D01*
X295351Y534471D01*
X296855D01*
X298244Y535046D01*
X299307Y536110D01*
X299883Y537499D01*
Y539003D01*
X299307Y540392D01*
X298244Y541455D01*
X296855Y542031D01*
D02*
G37*
G36*
X63884Y541862D02*
X62380D01*
X60991Y541287D01*
X59928Y540224D01*
X59352Y538834D01*
Y537330D01*
X59928Y535941D01*
X60991Y534878D01*
X62380Y534302D01*
X63884D01*
X65274Y534878D01*
X66337Y535941D01*
X66912Y537330D01*
Y538834D01*
X66337Y540224D01*
X65274Y541287D01*
X63884Y541862D01*
D02*
G37*
G36*
X404139Y541717D02*
X402635D01*
X401246Y541142D01*
X400182Y540078D01*
X399607Y538689D01*
Y537185D01*
X400182Y535796D01*
X401246Y534733D01*
X402635Y534157D01*
X404139D01*
X405528Y534733D01*
X406592Y535796D01*
X407167Y537185D01*
Y538689D01*
X406592Y540078D01*
X405528Y541142D01*
X404139Y541717D01*
D02*
G37*
G36*
X287521Y541495D02*
X286017D01*
X284628Y540919D01*
X283564Y539856D01*
X282989Y538467D01*
Y536963D01*
X283564Y535574D01*
X284628Y534510D01*
X286017Y533935D01*
X287521D01*
X288910Y534510D01*
X289974Y535574D01*
X290549Y536963D01*
Y538467D01*
X289974Y539856D01*
X288910Y540919D01*
X287521Y541495D01*
D02*
G37*
G36*
X171476Y541285D02*
X169972D01*
X168583Y540709D01*
X167519Y539646D01*
X166944Y538257D01*
Y536753D01*
X167519Y535364D01*
X168583Y534300D01*
X169972Y533725D01*
X171476D01*
X172865Y534300D01*
X173929Y535364D01*
X174504Y536753D01*
Y538257D01*
X173929Y539646D01*
X172865Y540709D01*
X171476Y541285D01*
D02*
G37*
G36*
X423090Y537165D02*
X421586D01*
X420197Y536589D01*
X419134Y535526D01*
X418558Y534137D01*
Y532633D01*
X419134Y531244D01*
X420197Y530180D01*
X421586Y529605D01*
X423090D01*
X424479Y530180D01*
X425543Y531244D01*
X426118Y532633D01*
Y534137D01*
X425543Y535526D01*
X424479Y536589D01*
X423090Y537165D01*
D02*
G37*
G36*
X307059D02*
X305555D01*
X304166Y536589D01*
X303102Y535526D01*
X302527Y534137D01*
Y532633D01*
X303102Y531244D01*
X304166Y530180D01*
X305555Y529605D01*
X307059D01*
X308448Y530180D01*
X309511Y531244D01*
X310087Y532633D01*
Y534137D01*
X309511Y535526D01*
X308448Y536589D01*
X307059Y537165D01*
D02*
G37*
G36*
X191281D02*
X189778D01*
X188388Y536589D01*
X187325Y535526D01*
X186749Y534137D01*
Y532633D01*
X187325Y531244D01*
X188388Y530180D01*
X189778Y529605D01*
X191281D01*
X192671Y530180D01*
X193734Y531244D01*
X194310Y532633D01*
Y534137D01*
X193734Y535526D01*
X192671Y536589D01*
X191281Y537165D01*
D02*
G37*
G36*
X74996D02*
X73492D01*
X72103Y536589D01*
X71040Y535526D01*
X70464Y534137D01*
Y532633D01*
X71040Y531244D01*
X72103Y530180D01*
X73492Y529605D01*
X74996D01*
X76385Y530180D01*
X77449Y531244D01*
X78024Y532633D01*
Y534137D01*
X77449Y535526D01*
X76385Y536589D01*
X74996Y537165D01*
D02*
G37*
G36*
X451421Y535614D02*
X449918D01*
X448528Y535039D01*
X447465Y533976D01*
X446889Y532586D01*
Y531082D01*
X447465Y529693D01*
X448528Y528630D01*
X449918Y528054D01*
X451421D01*
X452811Y528630D01*
X453874Y529693D01*
X454450Y531082D01*
Y532586D01*
X453874Y533976D01*
X452811Y535039D01*
X451421Y535614D01*
D02*
G37*
G36*
X441922D02*
X440418D01*
X439029Y535039D01*
X437965Y533976D01*
X437390Y532586D01*
Y531082D01*
X437965Y529693D01*
X439029Y528630D01*
X440418Y528054D01*
X441922D01*
X443311Y528630D01*
X444374Y529693D01*
X444950Y531082D01*
Y532586D01*
X444374Y533976D01*
X443311Y535039D01*
X441922Y535614D01*
D02*
G37*
G36*
X335390D02*
X333886D01*
X332497Y535039D01*
X331434Y533976D01*
X330858Y532586D01*
Y531082D01*
X331434Y529693D01*
X332497Y528630D01*
X333886Y528054D01*
X335390D01*
X336779Y528630D01*
X337843Y529693D01*
X338418Y531082D01*
Y532586D01*
X337843Y533976D01*
X336779Y535039D01*
X335390Y535614D01*
D02*
G37*
G36*
X325890D02*
X324386D01*
X322997Y535039D01*
X321934Y533976D01*
X321358Y532586D01*
Y531082D01*
X321934Y529693D01*
X322997Y528630D01*
X324386Y528054D01*
X325890D01*
X327280Y528630D01*
X328343Y529693D01*
X328918Y531082D01*
Y532586D01*
X328343Y533976D01*
X327280Y535039D01*
X325890Y535614D01*
D02*
G37*
G36*
X219359D02*
X217855D01*
X216466Y535039D01*
X215402Y533976D01*
X214827Y532586D01*
Y531082D01*
X215402Y529693D01*
X216466Y528630D01*
X217855Y528054D01*
X219359D01*
X220748Y528630D01*
X221812Y529693D01*
X222387Y531082D01*
Y532586D01*
X221812Y533976D01*
X220748Y535039D01*
X219359Y535614D01*
D02*
G37*
G36*
X209859D02*
X208355D01*
X206966Y535039D01*
X205903Y533976D01*
X205327Y532586D01*
Y531082D01*
X205903Y529693D01*
X206966Y528630D01*
X208355Y528054D01*
X209859D01*
X211248Y528630D01*
X212312Y529693D01*
X212887Y531082D01*
Y532586D01*
X212312Y533976D01*
X211248Y535039D01*
X209859Y535614D01*
D02*
G37*
G36*
X103328D02*
X101824D01*
X100435Y535039D01*
X99371Y533976D01*
X98796Y532586D01*
Y531082D01*
X99371Y529693D01*
X100435Y528630D01*
X101824Y528054D01*
X103328D01*
X104717Y528630D01*
X105780Y529693D01*
X106356Y531082D01*
Y532586D01*
X105780Y533976D01*
X104717Y535039D01*
X103328Y535614D01*
D02*
G37*
G36*
X93828D02*
X92324D01*
X90935Y535039D01*
X89871Y533976D01*
X89296Y532586D01*
Y531082D01*
X89871Y529693D01*
X90935Y528630D01*
X92324Y528054D01*
X93828D01*
X95217Y528630D01*
X96280Y529693D01*
X96856Y531082D01*
Y532586D01*
X96280Y533976D01*
X95217Y535039D01*
X93828Y535614D01*
D02*
G37*
G36*
X55296Y525319D02*
X53792D01*
X52403Y524744D01*
X51340Y523680D01*
X50764Y522291D01*
Y520787D01*
X51340Y519398D01*
X52403Y518335D01*
X53792Y517759D01*
X55296D01*
X56686Y518335D01*
X57749Y519398D01*
X58324Y520787D01*
Y522291D01*
X57749Y523680D01*
X56686Y524744D01*
X55296Y525319D01*
D02*
G37*
G36*
X209859Y520015D02*
X208355D01*
X206966Y519439D01*
X205903Y518376D01*
X205327Y516987D01*
Y515483D01*
X205903Y514094D01*
X206966Y513030D01*
X208355Y512455D01*
X209859D01*
X211248Y513030D01*
X212312Y514094D01*
X212887Y515483D01*
Y516987D01*
X212312Y518376D01*
X211248Y519439D01*
X209859Y520015D01*
D02*
G37*
G36*
X93828D02*
X92324D01*
X90935Y519439D01*
X89871Y518376D01*
X89296Y516987D01*
Y515483D01*
X89871Y514094D01*
X90935Y513030D01*
X92324Y512455D01*
X93828D01*
X95217Y513030D01*
X96280Y514094D01*
X96856Y515483D01*
Y516987D01*
X96280Y518376D01*
X95217Y519439D01*
X93828Y520015D01*
D02*
G37*
G36*
X325890Y519761D02*
X324386D01*
X322997Y519185D01*
X321934Y518122D01*
X321358Y516732D01*
Y515229D01*
X321934Y513839D01*
X322997Y512776D01*
X324386Y512201D01*
X325890D01*
X327280Y512776D01*
X328343Y513839D01*
X328918Y515229D01*
Y516732D01*
X328343Y518122D01*
X327280Y519185D01*
X325890Y519761D01*
D02*
G37*
G36*
X452308Y518629D02*
X450804D01*
X449415Y518054D01*
X448352Y516990D01*
X447776Y515601D01*
Y514097D01*
X448352Y512708D01*
X449415Y511645D01*
X450804Y511069D01*
X452308D01*
X453698Y511645D01*
X454761Y512708D01*
X455336Y514097D01*
Y515601D01*
X454761Y516990D01*
X453698Y518054D01*
X452308Y518629D01*
D02*
G37*
G36*
X335802Y517519D02*
X334298D01*
X332908Y516944D01*
X331845Y515880D01*
X331270Y514491D01*
Y512987D01*
X331845Y511598D01*
X332908Y510535D01*
X334298Y509959D01*
X335802D01*
X337191Y510535D01*
X338254Y511598D01*
X338830Y512987D01*
Y514491D01*
X338254Y515880D01*
X337191Y516944D01*
X335802Y517519D01*
D02*
G37*
G36*
X219770D02*
X218266D01*
X216877Y516944D01*
X215814Y515880D01*
X215238Y514491D01*
Y512987D01*
X215814Y511598D01*
X216877Y510535D01*
X218266Y509959D01*
X219770D01*
X221159Y510535D01*
X222223Y511598D01*
X222798Y512987D01*
Y514491D01*
X222223Y515880D01*
X221159Y516944D01*
X219770Y517519D01*
D02*
G37*
G36*
X103739D02*
X102235D01*
X100846Y516944D01*
X99782Y515880D01*
X99207Y514491D01*
Y512987D01*
X99782Y511598D01*
X100846Y510535D01*
X102235Y509959D01*
X103739D01*
X105128Y510535D01*
X106192Y511598D01*
X106767Y512987D01*
Y514491D01*
X106192Y515880D01*
X105128Y516944D01*
X103739Y517519D01*
D02*
G37*
G36*
X263462Y517472D02*
X261958D01*
X260569Y516896D01*
X259505Y515833D01*
X258930Y514444D01*
Y512940D01*
X259505Y511550D01*
X260569Y510487D01*
X261958Y509912D01*
X263462D01*
X264851Y510487D01*
X265914Y511550D01*
X266490Y512940D01*
Y514444D01*
X265914Y515833D01*
X264851Y516896D01*
X263462Y517472D01*
D02*
G37*
G36*
X379593Y517097D02*
X378089D01*
X376700Y516521D01*
X375637Y515458D01*
X375061Y514069D01*
Y512565D01*
X375637Y511176D01*
X376700Y510112D01*
X378089Y509537D01*
X379593D01*
X380982Y510112D01*
X382046Y511176D01*
X382621Y512565D01*
Y514069D01*
X382046Y515458D01*
X380982Y516521D01*
X379593Y517097D01*
D02*
G37*
G36*
X147030D02*
X145527D01*
X144137Y516521D01*
X143074Y515458D01*
X142499Y514069D01*
Y512565D01*
X143074Y511176D01*
X144137Y510112D01*
X145527Y509537D01*
X147030D01*
X148420Y510112D01*
X149483Y511176D01*
X150059Y512565D01*
Y514069D01*
X149483Y515458D01*
X148420Y516521D01*
X147030Y517097D01*
D02*
G37*
G36*
X493206Y517065D02*
X491703D01*
X490313Y516489D01*
X489250Y515426D01*
X488675Y514036D01*
Y512533D01*
X489250Y511143D01*
X490313Y510080D01*
X491703Y509505D01*
X493206D01*
X494596Y510080D01*
X495659Y511143D01*
X496235Y512533D01*
Y514036D01*
X495659Y515426D01*
X494596Y516489D01*
X493206Y517065D01*
D02*
G37*
G36*
X348310Y513047D02*
X346806D01*
X345417Y512472D01*
X344354Y511409D01*
X343778Y510019D01*
Y508516D01*
X344354Y507126D01*
X345417Y506063D01*
X346806Y505487D01*
X348310D01*
X349700Y506063D01*
X350763Y507126D01*
X351338Y508516D01*
Y510019D01*
X350763Y511409D01*
X349700Y512472D01*
X348310Y513047D01*
D02*
G37*
G36*
X232279D02*
X230775D01*
X229386Y512472D01*
X228323Y511409D01*
X227747Y510019D01*
Y508516D01*
X228323Y507126D01*
X229386Y506063D01*
X230775Y505487D01*
X232279D01*
X233668Y506063D01*
X234732Y507126D01*
X235307Y508516D01*
Y510019D01*
X234732Y511409D01*
X233668Y512472D01*
X232279Y513047D01*
D02*
G37*
G36*
X116248D02*
X114744D01*
X113355Y512472D01*
X112291Y511409D01*
X111716Y510019D01*
Y508516D01*
X112291Y507126D01*
X113355Y506063D01*
X114744Y505487D01*
X116248D01*
X117637Y506063D01*
X118700Y507126D01*
X119276Y508516D01*
Y510019D01*
X118700Y511409D01*
X117637Y512472D01*
X116248Y513047D01*
D02*
G37*
G36*
X194153Y512158D02*
X192649D01*
X191260Y511582D01*
X190196Y510519D01*
X189621Y509130D01*
Y507626D01*
X190196Y506237D01*
X191260Y505173D01*
X192649Y504598D01*
X194153D01*
X195542Y505173D01*
X196605Y506237D01*
X197181Y507626D01*
Y509130D01*
X196605Y510519D01*
X195542Y511582D01*
X194153Y512158D01*
D02*
G37*
G36*
X695337Y511807D02*
X693833D01*
X692443Y511231D01*
X691380Y510168D01*
X690805Y508779D01*
Y507275D01*
X691380Y505886D01*
X692443Y504822D01*
X693833Y504247D01*
X695337D01*
X696726Y504822D01*
X697789Y505886D01*
X698365Y507275D01*
Y508779D01*
X697789Y510168D01*
X696726Y511231D01*
X695337Y511807D01*
D02*
G37*
G36*
X315933Y511332D02*
X314429D01*
X313040Y510756D01*
X311976Y509693D01*
X311401Y508304D01*
Y506800D01*
X311976Y505411D01*
X313040Y504347D01*
X314429Y503772D01*
X315933D01*
X317322Y504347D01*
X318385Y505411D01*
X318961Y506800D01*
Y508304D01*
X318385Y509693D01*
X317322Y510756D01*
X315933Y511332D01*
D02*
G37*
G36*
X446943Y511218D02*
X445439D01*
X444050Y510643D01*
X442986Y509579D01*
X442411Y508190D01*
Y506686D01*
X442986Y505297D01*
X444050Y504234D01*
X445439Y503658D01*
X446943D01*
X448332Y504234D01*
X449395Y505297D01*
X449971Y506686D01*
Y508190D01*
X449395Y509579D01*
X448332Y510643D01*
X446943Y511218D01*
D02*
G37*
G36*
X441751Y503716D02*
X440247D01*
X438858Y503141D01*
X437794Y502078D01*
X437219Y500688D01*
Y499184D01*
X437794Y497795D01*
X438858Y496732D01*
X440247Y496156D01*
X441751D01*
X443140Y496732D01*
X444204Y497795D01*
X444779Y499184D01*
Y500688D01*
X444204Y502078D01*
X443140Y503141D01*
X441751Y503716D01*
D02*
G37*
G36*
X81135Y499772D02*
X79631D01*
X78242Y499196D01*
X77179Y498133D01*
X76603Y496744D01*
Y495240D01*
X77179Y493850D01*
X78242Y492787D01*
X79631Y492212D01*
X81135D01*
X82524Y492787D01*
X83588Y493850D01*
X84163Y495240D01*
Y496744D01*
X83588Y498133D01*
X82524Y499196D01*
X81135Y499772D01*
D02*
G37*
G36*
X457219Y499502D02*
X455715D01*
X454326Y498927D01*
X453262Y497863D01*
X452687Y496474D01*
Y494970D01*
X453262Y493581D01*
X454326Y492518D01*
X455715Y491942D01*
X457219D01*
X458608Y492518D01*
X459671Y493581D01*
X460247Y494970D01*
Y496474D01*
X459671Y497863D01*
X458608Y498927D01*
X457219Y499502D01*
D02*
G37*
G36*
X421786Y494948D02*
X420282D01*
X418893Y494373D01*
X417829Y493310D01*
X417254Y491920D01*
Y490416D01*
X417829Y489027D01*
X418893Y487964D01*
X420282Y487388D01*
X421786D01*
X423175Y487964D01*
X424238Y489027D01*
X424814Y490416D01*
Y491920D01*
X424238Y493310D01*
X423175Y494373D01*
X421786Y494948D01*
D02*
G37*
G36*
X138624Y493494D02*
X137120D01*
X135731Y492919D01*
X134668Y491855D01*
X134092Y490466D01*
Y488962D01*
X134668Y487573D01*
X135731Y486510D01*
X137120Y485934D01*
X138624D01*
X140013Y486510D01*
X141077Y487573D01*
X141652Y488962D01*
Y490466D01*
X141077Y491855D01*
X140013Y492919D01*
X138624Y493494D01*
D02*
G37*
G36*
X633141Y492402D02*
X631637D01*
X630248Y491827D01*
X629185Y490763D01*
X628609Y489374D01*
Y487870D01*
X629185Y486481D01*
X630248Y485418D01*
X631637Y484842D01*
X633141D01*
X634530Y485418D01*
X635594Y486481D01*
X636169Y487870D01*
Y489374D01*
X635594Y490763D01*
X634530Y491827D01*
X633141Y492402D01*
D02*
G37*
G36*
X312667Y482821D02*
X311163D01*
X309774Y482245D01*
X308710Y481182D01*
X308135Y479793D01*
Y478289D01*
X308710Y476900D01*
X309774Y475836D01*
X311163Y475261D01*
X312667D01*
X314056Y475836D01*
X315120Y476900D01*
X315695Y478289D01*
Y479793D01*
X315120Y481182D01*
X314056Y482245D01*
X312667Y482821D01*
D02*
G37*
G36*
X294152Y482795D02*
X292648D01*
X291259Y482220D01*
X290196Y481157D01*
X289620Y479767D01*
Y478264D01*
X290196Y476874D01*
X291259Y475811D01*
X292648Y475235D01*
X294152D01*
X295541Y475811D01*
X296604Y476874D01*
X297180Y478264D01*
Y479767D01*
X296604Y481157D01*
X295541Y482220D01*
X294152Y482795D01*
D02*
G37*
G36*
X275615D02*
X274111D01*
X272722Y482220D01*
X271658Y481157D01*
X271083Y479767D01*
Y478264D01*
X271658Y476874D01*
X272722Y475811D01*
X274111Y475235D01*
X275615D01*
X277004Y475811D01*
X278067Y476874D01*
X278643Y478264D01*
Y479767D01*
X278067Y481157D01*
X277004Y482220D01*
X275615Y482795D01*
D02*
G37*
G36*
X257077D02*
X255574D01*
X254184Y482220D01*
X253121Y481157D01*
X252546Y479767D01*
Y478264D01*
X253121Y476874D01*
X254184Y475811D01*
X255574Y475235D01*
X257077D01*
X258467Y475811D01*
X259530Y476874D01*
X260106Y478264D01*
Y479767D01*
X259530Y481157D01*
X258467Y482220D01*
X257077Y482795D01*
D02*
G37*
G36*
X224590Y481583D02*
X223086D01*
X221697Y481007D01*
X220634Y479944D01*
X220058Y478555D01*
Y477051D01*
X220634Y475662D01*
X221697Y474598D01*
X223086Y474023D01*
X224590D01*
X225979Y474598D01*
X227043Y475662D01*
X227618Y477051D01*
Y478555D01*
X227043Y479944D01*
X225979Y481007D01*
X224590Y481583D01*
D02*
G37*
G36*
X212516Y479837D02*
X211012D01*
X209623Y479262D01*
X208559Y478198D01*
X207984Y476809D01*
Y475305D01*
X208559Y473916D01*
X209623Y472853D01*
X211012Y472277D01*
X212516D01*
X213905Y472853D01*
X214968Y473916D01*
X215544Y475305D01*
Y476809D01*
X214968Y478198D01*
X213905Y479262D01*
X212516Y479837D01*
D02*
G37*
G36*
X139235Y476336D02*
X137731D01*
X136342Y475760D01*
X135279Y474697D01*
X134703Y473308D01*
Y471804D01*
X135279Y470415D01*
X136342Y469351D01*
X137731Y468776D01*
X139235D01*
X140624Y469351D01*
X141688Y470415D01*
X142263Y471804D01*
Y473308D01*
X141688Y474697D01*
X140624Y475760D01*
X139235Y476336D01*
D02*
G37*
G36*
X529583Y475427D02*
X528079D01*
X526690Y474852D01*
X525626Y473788D01*
X525051Y472399D01*
Y470895D01*
X525626Y469506D01*
X526690Y468443D01*
X528079Y467867D01*
X529583D01*
X530972Y468443D01*
X532036Y469506D01*
X532611Y470895D01*
Y472399D01*
X532036Y473788D01*
X530972Y474852D01*
X529583Y475427D01*
D02*
G37*
G36*
X632009Y474557D02*
X630505D01*
X629116Y473982D01*
X628052Y472919D01*
X627477Y471529D01*
Y470025D01*
X628052Y468636D01*
X629116Y467573D01*
X630505Y466997D01*
X632009D01*
X633398Y467573D01*
X634461Y468636D01*
X635037Y470025D01*
Y471529D01*
X634461Y472919D01*
X633398Y473982D01*
X632009Y474557D01*
D02*
G37*
G36*
X654653Y473423D02*
X653149D01*
X651760Y472847D01*
X650696Y471784D01*
X650121Y470395D01*
Y468891D01*
X650696Y467502D01*
X651760Y466438D01*
X653149Y465863D01*
X654653D01*
X656042Y466438D01*
X657105Y467502D01*
X657681Y468891D01*
Y470395D01*
X657105Y471784D01*
X656042Y472847D01*
X654653Y473423D01*
D02*
G37*
G36*
X380143Y472673D02*
X378639D01*
X377250Y472097D01*
X376186Y471034D01*
X375611Y469645D01*
Y468141D01*
X376186Y466751D01*
X377250Y465688D01*
X378639Y465113D01*
X380143D01*
X381532Y465688D01*
X382595Y466751D01*
X383171Y468141D01*
Y469645D01*
X382595Y471034D01*
X381532Y472097D01*
X380143Y472673D01*
D02*
G37*
G36*
X497387Y470549D02*
X495883D01*
X494493Y469973D01*
X493430Y468910D01*
X492855Y467520D01*
Y466017D01*
X493430Y464627D01*
X494493Y463564D01*
X495883Y462989D01*
X497387D01*
X498776Y463564D01*
X499839Y464627D01*
X500415Y466017D01*
Y467520D01*
X499839Y468910D01*
X498776Y469973D01*
X497387Y470549D01*
D02*
G37*
G36*
X431342Y470299D02*
X429839D01*
X428449Y469724D01*
X427386Y468660D01*
X426810Y467271D01*
Y465767D01*
X427386Y464378D01*
X428449Y463315D01*
X429839Y462739D01*
X431342D01*
X432732Y463315D01*
X433795Y464378D01*
X434370Y465767D01*
Y467271D01*
X433795Y468660D01*
X432732Y469724D01*
X431342Y470299D01*
D02*
G37*
G36*
X237013Y469536D02*
X235509D01*
X234119Y468960D01*
X233056Y467897D01*
X232481Y466508D01*
Y465004D01*
X233056Y463615D01*
X234119Y462551D01*
X235509Y461976D01*
X237013D01*
X238402Y462551D01*
X239465Y463615D01*
X240041Y465004D01*
Y466508D01*
X239465Y467897D01*
X238402Y468960D01*
X237013Y469536D01*
D02*
G37*
G36*
X81681Y467835D02*
X80177D01*
X78788Y467259D01*
X77725Y466196D01*
X77149Y464807D01*
Y463303D01*
X77725Y461914D01*
X78788Y460850D01*
X80177Y460275D01*
X81681D01*
X83070Y460850D01*
X84134Y461914D01*
X84709Y463303D01*
Y464807D01*
X84134Y466196D01*
X83070Y467259D01*
X81681Y467835D01*
D02*
G37*
G36*
X284473Y466565D02*
X282969D01*
X281580Y465989D01*
X280516Y464926D01*
X279941Y463537D01*
Y462033D01*
X280516Y460644D01*
X281580Y459580D01*
X282969Y459005D01*
X284473D01*
X285862Y459580D01*
X286926Y460644D01*
X287501Y462033D01*
Y463537D01*
X286926Y464926D01*
X285862Y465989D01*
X284473Y466565D01*
D02*
G37*
G36*
X529583Y465295D02*
X528079D01*
X526690Y464719D01*
X525626Y463656D01*
X525051Y462267D01*
Y460763D01*
X525626Y459374D01*
X526690Y458310D01*
X528079Y457735D01*
X529583D01*
X530972Y458310D01*
X532036Y459374D01*
X532611Y460763D01*
Y462267D01*
X532036Y463656D01*
X530972Y464719D01*
X529583Y465295D01*
D02*
G37*
G36*
X485984Y465193D02*
X484480D01*
X483091Y464618D01*
X482028Y463554D01*
X481452Y462165D01*
Y460661D01*
X482028Y459272D01*
X483091Y458209D01*
X484480Y457633D01*
X485984D01*
X487373Y458209D01*
X488437Y459272D01*
X489012Y460661D01*
Y462165D01*
X488437Y463554D01*
X487373Y464618D01*
X485984Y465193D01*
D02*
G37*
G36*
X431790Y458440D02*
X430286D01*
X428897Y457864D01*
X427834Y456801D01*
X427258Y455412D01*
Y453908D01*
X427834Y452519D01*
X428897Y451455D01*
X430286Y450880D01*
X431790D01*
X433179Y451455D01*
X434243Y452519D01*
X434818Y453908D01*
Y455412D01*
X434243Y456801D01*
X433179Y457864D01*
X431790Y458440D01*
D02*
G37*
G36*
X417058D02*
X415554D01*
X414165Y457864D01*
X413102Y456801D01*
X412526Y455412D01*
Y453908D01*
X413102Y452519D01*
X414165Y451455D01*
X415554Y450880D01*
X417058D01*
X418447Y451455D01*
X419510Y452519D01*
X420086Y453908D01*
Y455412D01*
X419510Y456801D01*
X418447Y457864D01*
X417058Y458440D01*
D02*
G37*
G36*
X81003Y457353D02*
X79499D01*
X78110Y456777D01*
X77047Y455714D01*
X76471Y454325D01*
Y452821D01*
X77047Y451432D01*
X78110Y450368D01*
X79499Y449793D01*
X81003D01*
X82392Y450368D01*
X83456Y451432D01*
X84031Y452821D01*
Y454325D01*
X83456Y455714D01*
X82392Y456777D01*
X81003Y457353D01*
D02*
G37*
G36*
X163914Y456865D02*
X162410D01*
X161021Y456289D01*
X159958Y455226D01*
X159382Y453837D01*
Y452333D01*
X159958Y450944D01*
X161021Y449880D01*
X162410Y449305D01*
X163914D01*
X165303Y449880D01*
X166367Y450944D01*
X166942Y452333D01*
Y453837D01*
X166367Y455226D01*
X165303Y456289D01*
X163914Y456865D01*
D02*
G37*
G36*
X340355Y451064D02*
X338852D01*
X337462Y450489D01*
X336399Y449426D01*
X335824Y448036D01*
Y446533D01*
X336399Y445143D01*
X337462Y444080D01*
X338852Y443504D01*
X340355D01*
X341745Y444080D01*
X342808Y445143D01*
X343384Y446533D01*
Y448036D01*
X342808Y449426D01*
X341745Y450489D01*
X340355Y451064D01*
D02*
G37*
G36*
X266101Y448854D02*
X264598D01*
X263208Y448278D01*
X262145Y447215D01*
X261570Y445826D01*
Y444322D01*
X262145Y442933D01*
X263208Y441869D01*
X264598Y441294D01*
X266101D01*
X267491Y441869D01*
X268554Y442933D01*
X269130Y444322D01*
Y445826D01*
X268554Y447215D01*
X267491Y448278D01*
X266101Y448854D01*
D02*
G37*
G36*
X62876Y447943D02*
X61372D01*
X59983Y447368D01*
X58919Y446304D01*
X58344Y444915D01*
Y443411D01*
X58919Y442022D01*
X59983Y440959D01*
X61372Y440383D01*
X62876D01*
X64265Y440959D01*
X65328Y442022D01*
X65904Y443411D01*
Y444915D01*
X65328Y446304D01*
X64265Y447368D01*
X62876Y447943D01*
D02*
G37*
G36*
X789209Y447930D02*
X787705D01*
X786316Y447354D01*
X785253Y446291D01*
X784677Y444902D01*
Y443398D01*
X785253Y442009D01*
X786316Y440945D01*
X787705Y440370D01*
X789209D01*
X790598Y440945D01*
X791662Y442009D01*
X792237Y443398D01*
Y444902D01*
X791662Y446291D01*
X790598Y447354D01*
X789209Y447930D01*
D02*
G37*
G36*
X245337Y446944D02*
X243833D01*
X242444Y446368D01*
X241380Y445305D01*
X240805Y443916D01*
Y442412D01*
X241380Y441023D01*
X242444Y439959D01*
X243833Y439384D01*
X245337D01*
X246726Y439959D01*
X247789Y441023D01*
X248365Y442412D01*
Y443916D01*
X247789Y445305D01*
X246726Y446368D01*
X245337Y446944D01*
D02*
G37*
G36*
X185410Y446817D02*
X183906D01*
X182517Y446241D01*
X181453Y445178D01*
X180878Y443789D01*
Y442285D01*
X181453Y440896D01*
X182517Y439832D01*
X183906Y439257D01*
X185410D01*
X186799Y439832D01*
X187862Y440896D01*
X188438Y442285D01*
Y443789D01*
X187862Y445178D01*
X186799Y446241D01*
X185410Y446817D01*
D02*
G37*
G36*
X479988Y444814D02*
X478484D01*
X477095Y444239D01*
X476032Y443176D01*
X475456Y441786D01*
Y440283D01*
X476032Y438893D01*
X477095Y437830D01*
X478484Y437254D01*
X479988D01*
X481377Y437830D01*
X482441Y438893D01*
X483016Y440283D01*
X484277Y440260D01*
Y440189D01*
X484852Y438800D01*
X485916Y437736D01*
X487305Y437161D01*
X488809D01*
X490198Y437736D01*
X491261Y438800D01*
X491837Y440189D01*
Y441693D01*
X491261Y443082D01*
X490198Y444145D01*
X488809Y444721D01*
X487305D01*
X485916Y444145D01*
X484852Y443082D01*
X484277Y441693D01*
X483016Y441715D01*
Y441786D01*
X482441Y443176D01*
X481377Y444239D01*
X479988Y444814D01*
D02*
G37*
G36*
X143549Y442613D02*
X142045D01*
X140656Y442038D01*
X139593Y440974D01*
X139017Y439585D01*
Y438081D01*
X139593Y436692D01*
X140656Y435629D01*
X142045Y435053D01*
X143549D01*
X144938Y435629D01*
X146002Y436692D01*
X146577Y438081D01*
Y439585D01*
X146002Y440974D01*
X144938Y442038D01*
X143549Y442613D01*
D02*
G37*
G36*
X312350Y439658D02*
X310846D01*
X309457Y439082D01*
X308394Y438019D01*
X307818Y436630D01*
Y435126D01*
X308394Y433737D01*
X309457Y432673D01*
X310846Y432098D01*
X312350D01*
X313739Y432673D01*
X314803Y433737D01*
X315378Y435126D01*
Y436630D01*
X314803Y438019D01*
X313739Y439082D01*
X312350Y439658D01*
D02*
G37*
G36*
X294152D02*
X292648D01*
X291259Y439082D01*
X290196Y438019D01*
X289620Y436630D01*
Y435126D01*
X290196Y433737D01*
X291259Y432673D01*
X292648Y432098D01*
X294152D01*
X295541Y432673D01*
X296604Y433737D01*
X297180Y435126D01*
Y436630D01*
X296604Y438019D01*
X295541Y439082D01*
X294152Y439658D01*
D02*
G37*
G36*
X275615D02*
X274111D01*
X272722Y439082D01*
X271658Y438019D01*
X271083Y436630D01*
Y435126D01*
X271658Y433737D01*
X272722Y432673D01*
X274111Y432098D01*
X275615D01*
X277004Y432673D01*
X278067Y433737D01*
X278643Y435126D01*
Y436630D01*
X278067Y438019D01*
X277004Y439082D01*
X275615Y439658D01*
D02*
G37*
G36*
X257077D02*
X255574D01*
X254184Y439082D01*
X253121Y438019D01*
X252546Y436630D01*
Y435126D01*
X253121Y433737D01*
X254184Y432673D01*
X255574Y432098D01*
X257077D01*
X258467Y432673D01*
X259530Y433737D01*
X260106Y435126D01*
Y436630D01*
X259530Y438019D01*
X258467Y439082D01*
X257077Y439658D01*
D02*
G37*
G36*
X526006Y437101D02*
X524502D01*
X523113Y436525D01*
X522049Y435462D01*
X521474Y434073D01*
Y432569D01*
X522049Y431180D01*
X523113Y430116D01*
X524502Y429541D01*
X526006D01*
X527395Y430116D01*
X528458Y431180D01*
X529034Y432569D01*
Y434073D01*
X528458Y435462D01*
X527395Y436525D01*
X526006Y437101D01*
D02*
G37*
G36*
X486826Y433502D02*
X485322D01*
X483933Y432927D01*
X482869Y431864D01*
X482294Y430474D01*
Y428970D01*
X482869Y427581D01*
X483933Y426518D01*
X485322Y425942D01*
X486826D01*
X488215Y426518D01*
X489278Y427581D01*
X489854Y428970D01*
Y430474D01*
X489278Y431864D01*
X488215Y432927D01*
X486826Y433502D01*
D02*
G37*
G36*
X654297Y428719D02*
X652793D01*
X651404Y428143D01*
X650340Y427080D01*
X649765Y425691D01*
Y424187D01*
X650340Y422798D01*
X651404Y421734D01*
X652793Y421159D01*
X654297D01*
X655686Y421734D01*
X656750Y422798D01*
X657325Y424187D01*
Y425691D01*
X656750Y427080D01*
X655686Y428143D01*
X654297Y428719D01*
D02*
G37*
G36*
X462502Y427140D02*
X460998D01*
X459609Y426564D01*
X458546Y425501D01*
X457970Y424112D01*
Y422608D01*
X458546Y421219D01*
X459609Y420155D01*
X460998Y419580D01*
X462502D01*
X463892Y420155D01*
X464955Y421219D01*
X465530Y422608D01*
Y424112D01*
X464955Y425501D01*
X463892Y426564D01*
X462502Y427140D01*
D02*
G37*
G36*
X593216Y421743D02*
X591712D01*
X590323Y421168D01*
X589259Y420104D01*
X588684Y418715D01*
Y417211D01*
X589259Y415822D01*
X590323Y414759D01*
X591712Y414183D01*
X593216D01*
X594605Y414759D01*
X595668Y415822D01*
X596244Y417211D01*
Y418715D01*
X595668Y420104D01*
X594605Y421168D01*
X593216Y421743D01*
D02*
G37*
G36*
X682435Y419049D02*
X680931D01*
X679542Y418473D01*
X678479Y417410D01*
X677903Y416021D01*
Y414517D01*
X678479Y413128D01*
X679542Y412064D01*
X680931Y411489D01*
X682435D01*
X683824Y412064D01*
X684888Y413128D01*
X685463Y414517D01*
Y416021D01*
X684888Y417410D01*
X683824Y418473D01*
X682435Y419049D01*
D02*
G37*
G36*
X159138Y417609D02*
X157634D01*
X156245Y417034D01*
X155181Y415971D01*
X154606Y414581D01*
Y413078D01*
X155181Y411688D01*
X156245Y410625D01*
X157634Y410050D01*
X159138D01*
X160527Y410625D01*
X161590Y411688D01*
X162166Y413078D01*
Y414581D01*
X161590Y415971D01*
X160527Y417034D01*
X159138Y417609D01*
D02*
G37*
G36*
X223256Y415757D02*
X221752D01*
X220363Y415181D01*
X219300Y414118D01*
X218724Y412729D01*
Y411225D01*
X219300Y409836D01*
X220363Y408772D01*
X221752Y408197D01*
X223256D01*
X224645Y408772D01*
X225709Y409836D01*
X226284Y411225D01*
Y412729D01*
X225709Y414118D01*
X224645Y415181D01*
X223256Y415757D01*
D02*
G37*
G36*
X340268Y421127D02*
X338764D01*
X337375Y420551D01*
X336312Y419488D01*
X335736Y418098D01*
Y416595D01*
X336312Y415205D01*
X337375Y414142D01*
X338764Y413567D01*
X340268D01*
X341093Y413908D01*
X341812Y412831D01*
X341730Y412750D01*
X341155Y411361D01*
Y409857D01*
X341730Y408467D01*
X342794Y407404D01*
X344183Y406829D01*
X345687D01*
X347076Y407404D01*
X348140Y408467D01*
X348715Y409857D01*
Y411361D01*
X348140Y412750D01*
X347076Y413813D01*
X345687Y414389D01*
X344183D01*
X343359Y414047D01*
X342639Y415124D01*
X342721Y415205D01*
X343296Y416595D01*
Y418098D01*
X342721Y419488D01*
X341658Y420551D01*
X340268Y421127D01*
D02*
G37*
G36*
X457777Y414196D02*
X456274D01*
X454884Y413620D01*
X453821Y412557D01*
X453246Y411167D01*
Y409664D01*
X453821Y408274D01*
X454884Y407211D01*
X456274Y406636D01*
X457777D01*
X459167Y407211D01*
X460230Y408274D01*
X460806Y409664D01*
Y411167D01*
X460230Y412557D01*
X459167Y413620D01*
X457777Y414196D01*
D02*
G37*
G36*
X466921Y413595D02*
X465417D01*
X464027Y413019D01*
X462964Y411956D01*
X462389Y410567D01*
Y409063D01*
X462964Y407674D01*
X464027Y406610D01*
X465417Y406035D01*
X466921D01*
X468310Y406610D01*
X469373Y407674D01*
X469949Y409063D01*
Y410567D01*
X469373Y411956D01*
X468310Y413019D01*
X466921Y413595D01*
D02*
G37*
G36*
X672506Y410479D02*
X671002D01*
X669613Y409903D01*
X668549Y408840D01*
X667974Y407451D01*
Y405947D01*
X668549Y404558D01*
X669613Y403494D01*
X671002Y402919D01*
X672506D01*
X673895Y403494D01*
X674959Y404558D01*
X675534Y405947D01*
Y407451D01*
X674959Y408840D01*
X673895Y409903D01*
X672506Y410479D01*
D02*
G37*
G36*
X256403Y408946D02*
X254899D01*
X253510Y408371D01*
X252446Y407307D01*
X251871Y405918D01*
Y404414D01*
X252446Y403025D01*
X253510Y401961D01*
X254899Y401386D01*
X256403D01*
X257792Y401961D01*
X258855Y403025D01*
X259431Y404414D01*
Y405918D01*
X258855Y407307D01*
X257792Y408371D01*
X256403Y408946D01*
D02*
G37*
G36*
X391049Y408902D02*
X389546D01*
X388156Y408326D01*
X387093Y407263D01*
X386517Y405874D01*
Y404370D01*
X387093Y402980D01*
X388156Y401917D01*
X389546Y401342D01*
X391049D01*
X392439Y401917D01*
X393502Y402980D01*
X394077Y404370D01*
Y405874D01*
X393502Y407263D01*
X392439Y408326D01*
X391049Y408902D01*
D02*
G37*
G36*
X500638Y408681D02*
X499135D01*
X497745Y408106D01*
X496682Y407042D01*
X496107Y405653D01*
Y404149D01*
X496682Y402760D01*
X497745Y401697D01*
X499135Y401121D01*
X500638D01*
X502028Y401697D01*
X503091Y402760D01*
X503667Y404149D01*
Y405653D01*
X503091Y407042D01*
X502028Y408106D01*
X500638Y408681D01*
D02*
G37*
G36*
X133135Y408551D02*
X131631D01*
X130242Y407976D01*
X129178Y406912D01*
X128603Y405523D01*
Y404019D01*
X129178Y402630D01*
X130242Y401567D01*
X131631Y400991D01*
X133135D01*
X134524Y401567D01*
X135588Y402630D01*
X136163Y404019D01*
Y405523D01*
X135588Y406912D01*
X134524Y407976D01*
X133135Y408551D01*
D02*
G37*
G36*
X789294Y407205D02*
X787790D01*
X786401Y406630D01*
X785338Y405566D01*
X784762Y404177D01*
Y402673D01*
X785338Y401284D01*
X786401Y400221D01*
X787790Y399645D01*
X789294D01*
X790683Y400221D01*
X791747Y401284D01*
X792322Y402673D01*
Y404177D01*
X791747Y405566D01*
X790683Y406630D01*
X789294Y407205D01*
D02*
G37*
G36*
X371456Y403858D02*
X369953D01*
X368563Y403282D01*
X367500Y402219D01*
X366924Y400830D01*
Y399326D01*
X367500Y397937D01*
X368563Y396873D01*
X369953Y396298D01*
X371456D01*
X372846Y396873D01*
X373909Y397937D01*
X374484Y399326D01*
Y400830D01*
X373909Y402219D01*
X372846Y403282D01*
X371456Y403858D01*
D02*
G37*
G36*
X275758Y403810D02*
X274254D01*
X272864Y403234D01*
X271801Y402171D01*
X271226Y400782D01*
Y399278D01*
X271801Y397889D01*
X272864Y396825D01*
X274254Y396250D01*
X275758D01*
X277147Y396825D01*
X278210Y397889D01*
X278786Y399278D01*
Y400782D01*
X278210Y402171D01*
X277147Y403234D01*
X275758Y403810D01*
D02*
G37*
G36*
X680796Y402155D02*
X679292D01*
X677903Y401579D01*
X676839Y400516D01*
X676264Y399127D01*
Y397623D01*
X676839Y396233D01*
X677903Y395170D01*
X679292Y394595D01*
X680796D01*
X682185Y395170D01*
X683248Y396233D01*
X683824Y397623D01*
Y399127D01*
X683248Y400516D01*
X682185Y401579D01*
X680796Y402155D01*
D02*
G37*
G36*
X158585Y399779D02*
X157081D01*
X155692Y399203D01*
X154628Y398140D01*
X154053Y396751D01*
Y395247D01*
X154628Y393858D01*
X155692Y392794D01*
X157081Y392219D01*
X158585D01*
X159974Y392794D01*
X161038Y393858D01*
X161613Y395247D01*
Y396751D01*
X161038Y398140D01*
X159974Y399203D01*
X158585Y399779D01*
D02*
G37*
G36*
X393757Y399621D02*
X392253D01*
X390864Y399046D01*
X389800Y397983D01*
X389225Y396593D01*
Y395089D01*
X389800Y393700D01*
X390864Y392637D01*
X392253Y392061D01*
X393757D01*
X395146Y392637D01*
X396209Y393700D01*
X396785Y395089D01*
Y396593D01*
X396209Y397983D01*
X395146Y399046D01*
X393757Y399621D01*
D02*
G37*
G36*
X449688Y399523D02*
X448184D01*
X446795Y398947D01*
X445731Y397884D01*
X445156Y396495D01*
Y394991D01*
X445731Y393601D01*
X446795Y392538D01*
X448184Y391963D01*
X449688D01*
X451077Y392538D01*
X452141Y393601D01*
X452716Y394991D01*
Y396495D01*
X452141Y397884D01*
X451077Y398947D01*
X449688Y399523D01*
D02*
G37*
G36*
X361492Y398653D02*
X359988D01*
X358599Y398078D01*
X357535Y397014D01*
X356960Y395625D01*
Y394121D01*
X357535Y392732D01*
X358599Y391669D01*
X359988Y391093D01*
X361492D01*
X362881Y391669D01*
X363944Y392732D01*
X364520Y394121D01*
Y395625D01*
X363944Y397014D01*
X362881Y398078D01*
X361492Y398653D01*
D02*
G37*
G36*
X265148Y398594D02*
X263644D01*
X262255Y398019D01*
X261192Y396955D01*
X260616Y395566D01*
Y394062D01*
X261192Y392673D01*
X262255Y391610D01*
X263644Y391034D01*
X265148D01*
X266537Y391610D01*
X267601Y392673D01*
X268176Y394062D01*
Y395566D01*
X267601Y396955D01*
X266537Y398019D01*
X265148Y398594D01*
D02*
G37*
G36*
X437502Y393128D02*
X435998D01*
X434609Y392553D01*
X433545Y391490D01*
X432970Y390100D01*
Y388597D01*
X433545Y387207D01*
X434609Y386144D01*
X435998Y385568D01*
X437502D01*
X438891Y386144D01*
X439954Y387207D01*
X440530Y388597D01*
Y390100D01*
X439954Y391490D01*
X438891Y392553D01*
X437502Y393128D01*
D02*
G37*
G36*
X316997Y392336D02*
X315493D01*
X314104Y391760D01*
X313041Y390697D01*
X312465Y389308D01*
Y387804D01*
X313041Y386414D01*
X314104Y385351D01*
X315493Y384776D01*
X316997D01*
X318386Y385351D01*
X319450Y386414D01*
X320025Y387804D01*
Y389308D01*
X319450Y390697D01*
X318386Y391760D01*
X316997Y392336D01*
D02*
G37*
G36*
X687201Y385539D02*
X685697D01*
X684308Y384964D01*
X683245Y383900D01*
X682669Y382511D01*
Y381007D01*
X683245Y379618D01*
X684308Y378554D01*
X685697Y377979D01*
X687201D01*
X688590Y378554D01*
X689654Y379618D01*
X690229Y381007D01*
Y382511D01*
X689654Y383900D01*
X688590Y384964D01*
X687201Y385539D01*
D02*
G37*
G36*
X81318Y384133D02*
X79814D01*
X78425Y383558D01*
X77362Y382494D01*
X76786Y381105D01*
Y379601D01*
X77362Y378212D01*
X78425Y377148D01*
X79814Y376573D01*
X81318D01*
X82708Y377148D01*
X83771Y378212D01*
X84346Y379601D01*
Y381105D01*
X83771Y382494D01*
X82708Y383558D01*
X81318Y384133D01*
D02*
G37*
G36*
X443942Y384093D02*
X442439D01*
X441049Y383518D01*
X439986Y382454D01*
X439410Y381065D01*
Y379561D01*
X439986Y378172D01*
X441049Y377108D01*
X442439Y376533D01*
X443942D01*
X445332Y377108D01*
X446395Y378172D01*
X446970Y379561D01*
Y381065D01*
X446395Y382454D01*
X445332Y383518D01*
X443942Y384093D01*
D02*
G37*
G36*
X431663Y382332D02*
X430160D01*
X428770Y381757D01*
X427707Y380694D01*
X427132Y379304D01*
Y377800D01*
X427707Y376411D01*
X428770Y375348D01*
X430160Y374772D01*
X431663D01*
X433053Y375348D01*
X434116Y376411D01*
X434692Y377800D01*
Y379304D01*
X434116Y380694D01*
X433053Y381757D01*
X431663Y382332D01*
D02*
G37*
G36*
X692802Y375582D02*
X691298D01*
X689909Y375006D01*
X688846Y373943D01*
X688270Y372554D01*
Y371050D01*
X688846Y369661D01*
X689909Y368597D01*
X691298Y368022D01*
X692802D01*
X694192Y368597D01*
X695255Y369661D01*
X695830Y371050D01*
Y372554D01*
X695255Y373943D01*
X694192Y375006D01*
X692802Y375582D01*
D02*
G37*
G36*
X310092Y373920D02*
X308589D01*
X307199Y373345D01*
X306136Y372281D01*
X305561Y370892D01*
Y369388D01*
X306136Y367999D01*
X307199Y366936D01*
X308589Y366360D01*
X310092D01*
X311482Y366936D01*
X312545Y367999D01*
X313121Y369388D01*
Y370892D01*
X312545Y372281D01*
X311482Y373345D01*
X310092Y373920D01*
D02*
G37*
G36*
X81047Y372292D02*
X79543D01*
X78154Y371717D01*
X77090Y370653D01*
X76515Y369264D01*
Y367760D01*
X77090Y366371D01*
X78154Y365308D01*
X79543Y364732D01*
X81047D01*
X82436Y365308D01*
X83499Y366371D01*
X84075Y367760D01*
Y369264D01*
X83499Y370653D01*
X82436Y371717D01*
X81047Y372292D01*
D02*
G37*
G36*
X675949Y369445D02*
X674445D01*
X673056Y368870D01*
X671993Y367807D01*
X671417Y366417D01*
Y364913D01*
X671993Y363524D01*
X673056Y362461D01*
X674445Y361885D01*
X675949D01*
X677338Y362461D01*
X678402Y363524D01*
X678977Y364913D01*
Y366417D01*
X678402Y367807D01*
X677338Y368870D01*
X675949Y369445D01*
D02*
G37*
G36*
X789331Y367255D02*
X787827D01*
X786438Y366679D01*
X785375Y365616D01*
X784799Y364227D01*
Y362723D01*
X785375Y361334D01*
X786438Y360270D01*
X787827Y359695D01*
X789331D01*
X790720Y360270D01*
X791784Y361334D01*
X792359Y362723D01*
Y364227D01*
X791784Y365616D01*
X790720Y366679D01*
X789331Y367255D01*
D02*
G37*
G36*
X508725Y366536D02*
X507221D01*
X505832Y365960D01*
X504768Y364897D01*
X504193Y363508D01*
Y362004D01*
X504768Y360615D01*
X505832Y359551D01*
X507221Y358976D01*
X508725D01*
X510114Y359551D01*
X511178Y360615D01*
X511753Y362004D01*
Y363508D01*
X511178Y364897D01*
X510114Y365960D01*
X508725Y366536D01*
D02*
G37*
G36*
X687289Y364379D02*
X685785D01*
X684396Y363803D01*
X683333Y362740D01*
X682757Y361351D01*
Y359847D01*
X683333Y358458D01*
X684396Y357394D01*
X685785Y356819D01*
X687289D01*
X688678Y357394D01*
X689742Y358458D01*
X690317Y359847D01*
Y361351D01*
X689742Y362740D01*
X688678Y363803D01*
X687289Y364379D01*
D02*
G37*
G36*
X230356Y363227D02*
X228853D01*
X227463Y362652D01*
X226400Y361589D01*
X225824Y360199D01*
Y358695D01*
X226400Y357306D01*
X227463Y356243D01*
X228853Y355667D01*
X230356D01*
X231746Y356243D01*
X232809Y357306D01*
X233384Y358695D01*
Y360199D01*
X232809Y361589D01*
X231746Y362652D01*
X230356Y363227D01*
D02*
G37*
G36*
X62985Y363187D02*
X61481D01*
X60092Y362611D01*
X59029Y361548D01*
X58453Y360159D01*
Y358655D01*
X59029Y357266D01*
X60092Y356202D01*
X61481Y355627D01*
X62985D01*
X64374Y356202D01*
X65438Y357266D01*
X66013Y358655D01*
Y360159D01*
X65438Y361548D01*
X64374Y362611D01*
X62985Y363187D01*
D02*
G37*
G36*
X156633Y361651D02*
X155129D01*
X153740Y361076D01*
X152677Y360012D01*
X152101Y358623D01*
Y357119D01*
X152677Y355730D01*
X153740Y354666D01*
X155129Y354091D01*
X156633D01*
X158022Y354666D01*
X159086Y355730D01*
X159661Y357119D01*
Y358623D01*
X159086Y360012D01*
X158022Y361076D01*
X156633Y361651D01*
D02*
G37*
G36*
X133151Y357138D02*
X131647D01*
X130258Y356562D01*
X129194Y355499D01*
X128619Y354109D01*
Y352606D01*
X129194Y351216D01*
X130258Y350153D01*
X131647Y349578D01*
X133151D01*
X134540Y350153D01*
X135604Y351216D01*
X136179Y352606D01*
Y354109D01*
X135604Y355499D01*
X134540Y356562D01*
X133151Y357138D01*
D02*
G37*
G36*
X657528Y403949D02*
X571864D01*
X571779Y337685D01*
X657528D01*
Y348368D01*
X658798Y349216D01*
X659363Y348982D01*
X660867D01*
X662256Y349558D01*
X663320Y350621D01*
X663895Y352010D01*
Y353514D01*
X663320Y354903D01*
X662256Y355967D01*
X660867Y356542D01*
X659363D01*
X658798Y356308D01*
X657528Y357157D01*
Y403949D01*
D02*
G37*
G36*
X150395Y355291D02*
X148891D01*
X147502Y354715D01*
X146439Y353652D01*
X145863Y352263D01*
Y350759D01*
X146439Y349370D01*
X147502Y348306D01*
X148891Y347731D01*
X150395D01*
X151784Y348306D01*
X152848Y349370D01*
X153423Y350759D01*
Y352263D01*
X152848Y353652D01*
X151784Y354715D01*
X150395Y355291D01*
D02*
G37*
G36*
X509492Y352706D02*
X507988D01*
X506599Y352130D01*
X505536Y351067D01*
X504960Y349678D01*
Y348174D01*
X505536Y346785D01*
X506599Y345721D01*
X507988Y345146D01*
X509492D01*
X510881Y345721D01*
X511945Y346785D01*
X512520Y348174D01*
Y349678D01*
X511945Y351067D01*
X510881Y352130D01*
X509492Y352706D01*
D02*
G37*
G36*
X364904Y350319D02*
X363400D01*
X362011Y349744D01*
X360948Y348680D01*
X360372Y347291D01*
Y345787D01*
X360948Y344398D01*
X362011Y343335D01*
X363400Y342759D01*
X364904D01*
X366293Y343335D01*
X367357Y344398D01*
X367932Y345787D01*
Y347291D01*
X367357Y348680D01*
X366293Y349744D01*
X364904Y350319D01*
D02*
G37*
G36*
X399708Y349555D02*
X398205D01*
X396815Y348980D01*
X395752Y347916D01*
X395177Y346527D01*
Y345023D01*
X395752Y343634D01*
X396815Y342571D01*
X398205Y341995D01*
X399708D01*
X401098Y342571D01*
X402161Y343634D01*
X402737Y345023D01*
Y346527D01*
X402161Y347916D01*
X401098Y348980D01*
X399708Y349555D01*
D02*
G37*
G36*
X416863Y349483D02*
X415359D01*
X413970Y348908D01*
X412906Y347844D01*
X412331Y346455D01*
Y344951D01*
X412906Y343562D01*
X413970Y342499D01*
X415359Y341923D01*
X416863D01*
X418252Y342499D01*
X419316Y343562D01*
X419891Y344951D01*
Y346455D01*
X419316Y347844D01*
X418252Y348908D01*
X416863Y349483D01*
D02*
G37*
G36*
X381798D02*
X380294D01*
X378905Y348908D01*
X377841Y347844D01*
X377266Y346455D01*
Y344951D01*
X377841Y343562D01*
X378905Y342499D01*
X380294Y341923D01*
X381798D01*
X383187Y342499D01*
X384250Y343562D01*
X384826Y344951D01*
Y346455D01*
X384250Y347844D01*
X383187Y348908D01*
X381798Y349483D01*
D02*
G37*
G36*
X310047Y343581D02*
X308543D01*
X307154Y343005D01*
X306090Y341942D01*
X305515Y340553D01*
Y339049D01*
X306090Y337660D01*
X307154Y336596D01*
X308543Y336021D01*
X310047D01*
X311436Y336596D01*
X312499Y337660D01*
X313075Y339049D01*
Y340553D01*
X312499Y341942D01*
X311436Y343005D01*
X310047Y343581D01*
D02*
G37*
G36*
X508725Y343501D02*
X507221D01*
X505832Y342925D01*
X504768Y341862D01*
X504193Y340473D01*
Y338969D01*
X504768Y337580D01*
X505832Y336516D01*
X507221Y335941D01*
X508725D01*
X510114Y336516D01*
X511178Y337580D01*
X511753Y338969D01*
Y340473D01*
X511178Y341862D01*
X510114Y342925D01*
X508725Y343501D01*
D02*
G37*
G36*
X687797Y343121D02*
X686293D01*
X684904Y342545D01*
X683840Y341482D01*
X683265Y340093D01*
Y338589D01*
X683840Y337200D01*
X684904Y336136D01*
X686293Y335561D01*
X687797D01*
X689186Y336136D01*
X690249Y337200D01*
X690825Y338589D01*
Y340093D01*
X690249Y341482D01*
X689186Y342545D01*
X687797Y343121D01*
D02*
G37*
G36*
X525069Y342144D02*
X523566D01*
X522176Y341569D01*
X521113Y340505D01*
X520537Y339116D01*
Y337612D01*
X521113Y336223D01*
X522176Y335160D01*
X523566Y334584D01*
X525069D01*
X526459Y335160D01*
X527522Y336223D01*
X528097Y337612D01*
Y339116D01*
X527522Y340505D01*
X526459Y341569D01*
X525069Y342144D01*
D02*
G37*
G36*
X806694Y336266D02*
X805190D01*
X803801Y335690D01*
X802738Y334627D01*
X802162Y333238D01*
Y331734D01*
X802738Y330345D01*
X803801Y329282D01*
X805190Y328706D01*
X806694D01*
X808083Y329282D01*
X809146Y330345D01*
X809722Y331734D01*
Y333238D01*
X809146Y334627D01*
X808083Y335690D01*
X806694Y336266D01*
D02*
G37*
G36*
X558459Y334269D02*
X556955D01*
X555566Y333694D01*
X554503Y332630D01*
X553927Y331241D01*
Y329737D01*
X554503Y328348D01*
X555566Y327285D01*
X556955Y326709D01*
X558459D01*
X559848Y327285D01*
X560912Y328348D01*
X561487Y329737D01*
Y331241D01*
X560912Y332630D01*
X559848Y333694D01*
X558459Y334269D01*
D02*
G37*
G36*
X752316Y332677D02*
X750812D01*
X749423Y332102D01*
X748359Y331039D01*
X747784Y329649D01*
Y328146D01*
X748359Y326756D01*
X749423Y325693D01*
X750812Y325117D01*
X752316D01*
X753705Y325693D01*
X754769Y326756D01*
X755344Y328146D01*
Y329649D01*
X754769Y331039D01*
X753705Y332102D01*
X752316Y332677D01*
D02*
G37*
G36*
X738049D02*
X736545D01*
X735156Y332102D01*
X734093Y331039D01*
X733517Y329649D01*
Y328146D01*
X734093Y326756D01*
X735156Y325693D01*
X736545Y325117D01*
X738049D01*
X739438Y325693D01*
X740502Y326756D01*
X741077Y328146D01*
Y329649D01*
X740502Y331039D01*
X739438Y332102D01*
X738049Y332677D01*
D02*
G37*
G36*
X723782D02*
X722279D01*
X720889Y332102D01*
X719826Y331039D01*
X719250Y329649D01*
Y328146D01*
X719826Y326756D01*
X720889Y325693D01*
X722279Y325117D01*
X723782D01*
X725172Y325693D01*
X726235Y326756D01*
X726811Y328146D01*
Y329649D01*
X726235Y331039D01*
X725172Y332102D01*
X723782Y332677D01*
D02*
G37*
G36*
X509150Y332422D02*
X507646D01*
X506257Y331847D01*
X505194Y330783D01*
X504618Y329394D01*
Y327890D01*
X505194Y326501D01*
X506257Y325438D01*
X507646Y324862D01*
X509150D01*
X510540Y325438D01*
X511603Y326501D01*
X512178Y327890D01*
Y329394D01*
X511603Y330783D01*
X510540Y331847D01*
X509150Y332422D01*
D02*
G37*
G36*
X505199Y324325D02*
X503695D01*
X502306Y323749D01*
X501242Y322686D01*
X500667Y321297D01*
Y319793D01*
X501242Y318404D01*
X502306Y317340D01*
X503695Y316765D01*
X505199D01*
X506588Y317340D01*
X507652Y318404D01*
X508227Y319793D01*
Y321297D01*
X507652Y322686D01*
X506588Y323749D01*
X505199Y324325D01*
D02*
G37*
G36*
X522384Y324064D02*
X520880D01*
X519491Y323489D01*
X518427Y322425D01*
X517852Y321036D01*
Y319532D01*
X518427Y318143D01*
X519491Y317080D01*
X520880Y316504D01*
X522384D01*
X523773Y317080D01*
X524837Y318143D01*
X525412Y319532D01*
Y321036D01*
X524837Y322425D01*
X523773Y323489D01*
X522384Y324064D01*
D02*
G37*
G36*
X311451Y323827D02*
X309948D01*
X308558Y323251D01*
X307495Y322188D01*
X306919Y320799D01*
Y319295D01*
X307495Y317906D01*
X308558Y316842D01*
X309948Y316267D01*
X311451D01*
X312841Y316842D01*
X313904Y317906D01*
X314480Y319295D01*
Y320799D01*
X313904Y322188D01*
X312841Y323251D01*
X311451Y323827D01*
D02*
G37*
G36*
X94224Y322550D02*
X92720D01*
X91331Y321974D01*
X90267Y320911D01*
X89692Y319522D01*
Y318018D01*
X90267Y316629D01*
X91331Y315565D01*
X92720Y314990D01*
X94224D01*
X95613Y315565D01*
X96677Y316629D01*
X97252Y318018D01*
Y319522D01*
X96677Y320911D01*
X95613Y321974D01*
X94224Y322550D01*
D02*
G37*
G36*
X688051Y321785D02*
X686547D01*
X685158Y321209D01*
X684094Y320146D01*
X683519Y318757D01*
Y317253D01*
X684094Y315864D01*
X685158Y314800D01*
X686547Y314225D01*
X688051D01*
X689440Y314800D01*
X690503Y315864D01*
X691079Y317253D01*
Y318757D01*
X690503Y320146D01*
X689440Y321209D01*
X688051Y321785D01*
D02*
G37*
G36*
X497325Y318991D02*
X495821D01*
X494432Y318415D01*
X493368Y317352D01*
X492793Y315963D01*
Y314459D01*
X493368Y313070D01*
X494432Y312006D01*
X495821Y311431D01*
X497325D01*
X498714Y312006D01*
X499778Y313070D01*
X500353Y314459D01*
Y315963D01*
X499778Y317352D01*
X498714Y318415D01*
X497325Y318991D01*
D02*
G37*
G36*
X257263Y316938D02*
X255759D01*
X254370Y316362D01*
X253306Y315299D01*
X252731Y313909D01*
Y312406D01*
X253306Y311016D01*
X254370Y309953D01*
X255759Y309378D01*
X257263D01*
X258652Y309953D01*
X259715Y311016D01*
X260291Y312406D01*
Y313909D01*
X259715Y315299D01*
X258652Y316362D01*
X257263Y316938D01*
D02*
G37*
G36*
X505961Y313911D02*
X504457D01*
X503068Y313335D01*
X502005Y312272D01*
X501429Y310883D01*
Y309379D01*
X501496Y309217D01*
X500524Y308245D01*
X500033Y308449D01*
X498529D01*
X497139Y307873D01*
X496076Y306810D01*
X495501Y305421D01*
Y303917D01*
X496076Y302528D01*
X497139Y301464D01*
X498529Y300889D01*
X500033D01*
X501422Y301464D01*
X502485Y302528D01*
X503061Y303917D01*
Y305421D01*
X502994Y305582D01*
X503966Y306554D01*
X504457Y306351D01*
X505961D01*
X507350Y306926D01*
X508414Y307990D01*
X508989Y309379D01*
Y310883D01*
X508414Y312272D01*
X507350Y313335D01*
X505961Y313911D01*
D02*
G37*
G36*
X436893Y313568D02*
X435389D01*
X434000Y312993D01*
X432936Y311929D01*
X432361Y310540D01*
Y309036D01*
X432936Y307647D01*
X434000Y306584D01*
X435389Y306008D01*
X436893D01*
X438282Y306584D01*
X439346Y307647D01*
X439921Y309036D01*
Y310540D01*
X439346Y311929D01*
X438282Y312993D01*
X436893Y313568D01*
D02*
G37*
G36*
X154038Y312730D02*
X152535D01*
X151145Y312154D01*
X150082Y311091D01*
X149507Y309702D01*
Y308198D01*
X150082Y306808D01*
X151145Y305745D01*
X152535Y305170D01*
X154038D01*
X155428Y305745D01*
X156491Y306808D01*
X157067Y308198D01*
Y309702D01*
X156491Y311091D01*
X155428Y312154D01*
X154038Y312730D01*
D02*
G37*
G36*
X682237Y308323D02*
X680733D01*
X679344Y307747D01*
X678280Y306684D01*
X677705Y305295D01*
Y303791D01*
X678280Y302402D01*
X679344Y301338D01*
X680733Y300763D01*
X682237D01*
X683626Y301338D01*
X684690Y302402D01*
X685265Y303791D01*
Y305295D01*
X684690Y306684D01*
X683626Y307747D01*
X682237Y308323D01*
D02*
G37*
G36*
X560642Y303484D02*
X559138D01*
X557749Y302908D01*
X556686Y301845D01*
X556110Y300455D01*
Y298952D01*
X556686Y297562D01*
X557749Y296499D01*
X559138Y295924D01*
X560642D01*
X562032Y296499D01*
X563095Y297562D01*
X563670Y298952D01*
Y300455D01*
X563095Y301845D01*
X562032Y302908D01*
X560642Y303484D01*
D02*
G37*
G36*
X154038Y303372D02*
X152535D01*
X151145Y302797D01*
X150082Y301733D01*
X149507Y300344D01*
Y298840D01*
X150082Y297451D01*
X151145Y296388D01*
X152535Y295812D01*
X154038D01*
X155428Y296388D01*
X156491Y297451D01*
X157067Y298840D01*
Y300344D01*
X156491Y301733D01*
X155428Y302797D01*
X154038Y303372D01*
D02*
G37*
G36*
X381311Y302355D02*
X379807D01*
X378418Y301779D01*
X377354Y300716D01*
X376779Y299326D01*
Y297823D01*
X377354Y296433D01*
X378418Y295370D01*
X379807Y294795D01*
X381311D01*
X382700Y295370D01*
X383763Y296433D01*
X384339Y297823D01*
Y299326D01*
X383763Y300716D01*
X382700Y301779D01*
X381311Y302355D01*
D02*
G37*
G36*
X397246Y302099D02*
X395743D01*
X394353Y301523D01*
X393290Y300460D01*
X392715Y299071D01*
Y297567D01*
X393290Y296178D01*
X394353Y295114D01*
X395743Y294539D01*
X397246D01*
X398636Y295114D01*
X399699Y296178D01*
X400275Y297567D01*
Y299071D01*
X399699Y300460D01*
X398636Y301523D01*
X397246Y302099D01*
D02*
G37*
G36*
X347316Y301931D02*
X345813D01*
X344423Y301355D01*
X343360Y300292D01*
X342785Y298902D01*
Y297399D01*
X343360Y296009D01*
X344423Y294946D01*
X345813Y294370D01*
X347316D01*
X348706Y294946D01*
X349769Y296009D01*
X350345Y297399D01*
Y298902D01*
X349769Y300292D01*
X348706Y301355D01*
X347316Y301931D01*
D02*
G37*
G36*
X432142Y301344D02*
X430639D01*
X429249Y300768D01*
X428186Y299705D01*
X427610Y298316D01*
Y296812D01*
X428186Y295422D01*
X429249Y294359D01*
X430639Y293784D01*
X432142D01*
X433531Y294359D01*
X434595Y295422D01*
X435170Y296812D01*
Y298316D01*
X434595Y299705D01*
X433531Y300768D01*
X432142Y301344D01*
D02*
G37*
G36*
X416863Y300777D02*
X415359D01*
X413970Y300201D01*
X412906Y299138D01*
X412331Y297749D01*
Y296245D01*
X412906Y294856D01*
X413970Y293792D01*
X415359Y293217D01*
X416863D01*
X418252Y293792D01*
X419316Y294856D01*
X419891Y296245D01*
Y297749D01*
X419316Y299138D01*
X418252Y300201D01*
X416863Y300777D01*
D02*
G37*
G36*
X364286Y300725D02*
X362782D01*
X361393Y300149D01*
X360330Y299086D01*
X359754Y297696D01*
Y296193D01*
X360330Y294803D01*
X361393Y293740D01*
X362782Y293165D01*
X364286D01*
X365675Y293740D01*
X366739Y294803D01*
X367314Y296193D01*
Y297696D01*
X366739Y299086D01*
X365675Y300149D01*
X364286Y300725D01*
D02*
G37*
G36*
X668775Y294947D02*
X667271D01*
X665882Y294371D01*
X664818Y293308D01*
X664243Y291919D01*
Y290415D01*
X664818Y289026D01*
X665882Y287962D01*
X667271Y287387D01*
X668775D01*
X670164Y287962D01*
X671228Y289026D01*
X671803Y290415D01*
Y291919D01*
X671228Y293308D01*
X670164Y294371D01*
X668775Y294947D01*
D02*
G37*
G36*
X93755Y290797D02*
X92251D01*
X90862Y290221D01*
X89798Y289158D01*
X89223Y287769D01*
Y286265D01*
X89798Y284876D01*
X90862Y283812D01*
X92251Y283237D01*
X93755D01*
X95144Y283812D01*
X96208Y284876D01*
X96783Y286265D01*
Y287769D01*
X96208Y289158D01*
X95144Y290221D01*
X93755Y290797D01*
D02*
G37*
G36*
X789221Y288088D02*
X787718D01*
X786328Y287512D01*
X785265Y286449D01*
X784690Y285060D01*
Y283556D01*
X785265Y282166D01*
X786328Y281103D01*
X787718Y280528D01*
X789221D01*
X790611Y281103D01*
X791674Y282166D01*
X792250Y283556D01*
Y285060D01*
X791674Y286449D01*
X790611Y287512D01*
X789221Y288088D01*
D02*
G37*
G36*
X93755Y279731D02*
X92251D01*
X90862Y279156D01*
X89798Y278093D01*
X89223Y276703D01*
Y275200D01*
X89798Y273810D01*
X90862Y272747D01*
X92251Y272171D01*
X93755D01*
X95144Y272747D01*
X96208Y273810D01*
X96783Y275200D01*
Y276703D01*
X96208Y278093D01*
X95144Y279156D01*
X93755Y279731D01*
D02*
G37*
G36*
X475885Y279677D02*
X474381D01*
X472991Y279101D01*
X471928Y278038D01*
X471353Y276649D01*
Y275145D01*
X471928Y273756D01*
X472991Y272692D01*
X474381Y272117D01*
X475885D01*
X477274Y272692D01*
X478337Y273756D01*
X478913Y275145D01*
Y276649D01*
X478337Y278038D01*
X477274Y279101D01*
X475885Y279677D01*
D02*
G37*
G36*
X397142Y275191D02*
X395639D01*
X394249Y274615D01*
X393186Y273552D01*
X392610Y272162D01*
Y270659D01*
X393186Y269269D01*
X394249Y268206D01*
X395639Y267631D01*
X397142D01*
X398532Y268206D01*
X399595Y269269D01*
X400170Y270659D01*
Y272162D01*
X399595Y273552D01*
X398532Y274615D01*
X397142Y275191D01*
D02*
G37*
G36*
X509675Y272173D02*
X508171D01*
X506782Y271598D01*
X505718Y270535D01*
X505143Y269145D01*
Y267642D01*
X505718Y266252D01*
X506782Y265189D01*
X508171Y264613D01*
X509675D01*
X511064Y265189D01*
X512127Y266252D01*
X512703Y267642D01*
Y269145D01*
X512127Y270535D01*
X511064Y271598D01*
X509675Y272173D01*
D02*
G37*
G36*
X524616Y270409D02*
X523112D01*
X521723Y269833D01*
X520659Y268770D01*
X520084Y267381D01*
Y265877D01*
X520659Y264487D01*
X521723Y263424D01*
X523112Y262849D01*
X524616D01*
X526005Y263424D01*
X527068Y264487D01*
X527644Y265877D01*
Y267381D01*
X527068Y268770D01*
X526005Y269833D01*
X524616Y270409D01*
D02*
G37*
G36*
X661452Y270334D02*
X659948D01*
X658559Y269759D01*
X657495Y268695D01*
X656920Y267306D01*
Y265802D01*
X657495Y264413D01*
X658559Y263350D01*
X659948Y262774D01*
X661452D01*
X662841Y263350D01*
X663904Y264413D01*
X664480Y265802D01*
Y267306D01*
X663904Y268695D01*
X662841Y269759D01*
X661452Y270334D01*
D02*
G37*
G36*
X386428Y270043D02*
X384924D01*
X383535Y269467D01*
X382471Y268404D01*
X381896Y267015D01*
Y265511D01*
X382471Y264122D01*
X383535Y263058D01*
X384924Y262483D01*
X386428D01*
X387817Y263058D01*
X388881Y264122D01*
X389456Y265511D01*
Y267015D01*
X388881Y268404D01*
X387817Y269467D01*
X386428Y270043D01*
D02*
G37*
G36*
X357223Y268882D02*
X355719D01*
X354330Y268307D01*
X353267Y267243D01*
X352691Y265854D01*
Y264350D01*
X353267Y262961D01*
X354330Y261897D01*
X355719Y261322D01*
X357223D01*
X358612Y261897D01*
X359676Y262961D01*
X360251Y264350D01*
Y265854D01*
X359676Y267243D01*
X358612Y268307D01*
X357223Y268882D01*
D02*
G37*
G36*
X687662Y267696D02*
X686159D01*
X684769Y267121D01*
X683706Y266058D01*
X683130Y264668D01*
Y263165D01*
X683706Y261775D01*
X684769Y260712D01*
X686159Y260136D01*
X687662D01*
X689052Y260712D01*
X690115Y261775D01*
X690690Y263165D01*
Y264668D01*
X690115Y266058D01*
X689052Y267121D01*
X687662Y267696D01*
D02*
G37*
G36*
X93755Y266339D02*
X92251D01*
X90862Y265764D01*
X89798Y264701D01*
X89223Y263311D01*
Y261808D01*
X89798Y260418D01*
X90862Y259355D01*
X92251Y258780D01*
X93755D01*
X95144Y259355D01*
X96208Y260418D01*
X96783Y261808D01*
Y263311D01*
X96208Y264701D01*
X95144Y265764D01*
X93755Y266339D01*
D02*
G37*
G36*
X189379Y266336D02*
X187875D01*
X186486Y265761D01*
X185422Y264697D01*
X184847Y263308D01*
Y261804D01*
X185422Y260415D01*
X186486Y259352D01*
X187875Y258776D01*
X189379D01*
X190768Y259352D01*
X191831Y260415D01*
X192407Y261804D01*
Y263308D01*
X191831Y264697D01*
X190768Y265761D01*
X189379Y266336D01*
D02*
G37*
G36*
X763839Y274827D02*
X761567D01*
X759372Y274239D01*
X757404Y273103D01*
X755797Y271496D01*
X754661Y269528D01*
X754073Y267333D01*
Y265061D01*
X754661Y262866D01*
X755797Y260898D01*
X757404Y259291D01*
X759372Y258155D01*
X761567Y257567D01*
X763839D01*
X766034Y258155D01*
X768002Y259291D01*
X769609Y260898D01*
X770745Y262866D01*
X771333Y265061D01*
Y267333D01*
X770745Y269528D01*
X769609Y271496D01*
X768002Y273103D01*
X766034Y274239D01*
X763839Y274827D01*
D02*
G37*
G36*
X738439D02*
X736167D01*
X733972Y274239D01*
X732004Y273103D01*
X730397Y271496D01*
X729261Y269528D01*
X728673Y267333D01*
Y265061D01*
X729261Y262866D01*
X730397Y260898D01*
X732004Y259291D01*
X733972Y258155D01*
X736167Y257567D01*
X738439D01*
X740634Y258155D01*
X742602Y259291D01*
X744209Y260898D01*
X745345Y262866D01*
X745933Y265061D01*
Y267333D01*
X745345Y269528D01*
X744209Y271496D01*
X742602Y273103D01*
X740634Y274239D01*
X738439Y274827D01*
D02*
G37*
G36*
X376224Y264901D02*
X374720D01*
X373331Y264326D01*
X372267Y263263D01*
X371692Y261873D01*
Y260369D01*
X372267Y258980D01*
X373331Y257917D01*
X374720Y257341D01*
X376224D01*
X377613Y257917D01*
X378676Y258980D01*
X379252Y260369D01*
Y261873D01*
X378676Y263263D01*
X377613Y264326D01*
X376224Y264901D01*
D02*
G37*
G36*
X365802Y259739D02*
X364298D01*
X362909Y259163D01*
X361845Y258100D01*
X361270Y256711D01*
Y255207D01*
X361845Y253818D01*
X362909Y252754D01*
X364298Y252179D01*
X365802D01*
X367191Y252754D01*
X368255Y253818D01*
X368830Y255207D01*
Y256711D01*
X368255Y258100D01*
X367191Y259163D01*
X365802Y259739D01*
D02*
G37*
G36*
X523893Y257908D02*
X522389D01*
X521000Y257332D01*
X519936Y256269D01*
X519361Y254880D01*
Y253376D01*
X519936Y251987D01*
X521000Y250923D01*
X522389Y250348D01*
X523893D01*
X525282Y250923D01*
X526345Y251987D01*
X526921Y253376D01*
Y254880D01*
X526345Y256269D01*
X525282Y257332D01*
X523893Y257908D01*
D02*
G37*
G36*
X661643Y256297D02*
X660139D01*
X658750Y255722D01*
X657687Y254659D01*
X657111Y253269D01*
Y251766D01*
X657687Y250376D01*
X658750Y249313D01*
X660139Y248738D01*
X661643D01*
X663032Y249313D01*
X664096Y250376D01*
X664671Y251766D01*
Y253269D01*
X664096Y254659D01*
X663032Y255722D01*
X661643Y256297D01*
D02*
G37*
G36*
X381038Y254537D02*
X379534D01*
X378145Y253961D01*
X377082Y252898D01*
X376506Y251509D01*
Y250005D01*
X377082Y248616D01*
X378145Y247552D01*
X379534Y246977D01*
X381038D01*
X382427Y247552D01*
X383491Y248616D01*
X384066Y250005D01*
Y251509D01*
X383491Y252898D01*
X382427Y253961D01*
X381038Y254537D01*
D02*
G37*
G36*
X790319Y253842D02*
X788816D01*
X787426Y253267D01*
X786363Y252204D01*
X785788Y250814D01*
Y249310D01*
X786363Y247921D01*
X787426Y246858D01*
X788816Y246282D01*
X790319D01*
X791709Y246858D01*
X792772Y247921D01*
X793347Y249310D01*
Y250814D01*
X792772Y252204D01*
X791709Y253267D01*
X790319Y253842D01*
D02*
G37*
G36*
X401865Y249513D02*
X400361D01*
X398971Y248937D01*
X397908Y247874D01*
X397333Y246485D01*
Y244981D01*
X397908Y243592D01*
X398971Y242528D01*
X400361Y241953D01*
X401865D01*
X403254Y242528D01*
X404317Y243592D01*
X404893Y244981D01*
Y246485D01*
X404317Y247874D01*
X403254Y248937D01*
X401865Y249513D01*
D02*
G37*
G36*
X390095Y247325D02*
X388592D01*
X387202Y246749D01*
X386139Y245686D01*
X385564Y244297D01*
Y242793D01*
X386139Y241404D01*
X387202Y240340D01*
X388592Y239765D01*
X390095D01*
X391485Y240340D01*
X392548Y241404D01*
X393124Y242793D01*
Y244297D01*
X392548Y245686D01*
X391485Y246749D01*
X390095Y247325D01*
D02*
G37*
G36*
X161638Y245414D02*
X160135D01*
X158745Y244839D01*
X157682Y243775D01*
X157106Y242386D01*
Y240882D01*
X157682Y239493D01*
X158745Y238430D01*
X160135Y237854D01*
X161638D01*
X163028Y238430D01*
X164091Y239493D01*
X164666Y240882D01*
Y242386D01*
X164091Y243775D01*
X163028Y244839D01*
X161638Y245414D01*
D02*
G37*
G36*
X145009Y245182D02*
X143505D01*
X142115Y244607D01*
X141052Y243544D01*
X140477Y242154D01*
Y240651D01*
X141052Y239261D01*
X142115Y238198D01*
X143505Y237623D01*
X145009D01*
X146398Y238198D01*
X147461Y239261D01*
X148037Y240651D01*
Y242154D01*
X147461Y243544D01*
X146398Y244607D01*
X145009Y245182D01*
D02*
G37*
G36*
X661643Y244326D02*
X660139D01*
X658750Y243751D01*
X657687Y242688D01*
X657111Y241298D01*
Y239795D01*
X657687Y238405D01*
X658750Y237342D01*
X660139Y236766D01*
X661643D01*
X663032Y237342D01*
X664096Y238405D01*
X664671Y239795D01*
Y241298D01*
X664096Y242688D01*
X663032Y243751D01*
X661643Y244326D01*
D02*
G37*
G36*
X763839Y249427D02*
X761567D01*
X759372Y248839D01*
X757404Y247703D01*
X755797Y246096D01*
X754661Y244128D01*
X754073Y241933D01*
Y239661D01*
X754661Y237466D01*
X755797Y235498D01*
X757404Y233891D01*
X759372Y232755D01*
X761567Y232167D01*
X763839D01*
X766034Y232755D01*
X768002Y233891D01*
X769609Y235498D01*
X770745Y237466D01*
X771333Y239661D01*
Y241933D01*
X770745Y244128D01*
X769609Y246096D01*
X768002Y247703D01*
X766034Y248839D01*
X763839Y249427D01*
D02*
G37*
G36*
X738439D02*
X736167D01*
X733972Y248839D01*
X732004Y247703D01*
X730397Y246096D01*
X729261Y244128D01*
X728673Y241933D01*
Y239661D01*
X729261Y237466D01*
X730397Y235498D01*
X732004Y233891D01*
X733972Y232755D01*
X736167Y232167D01*
X738439D01*
X740634Y232755D01*
X742602Y233891D01*
X744209Y235498D01*
X745345Y237466D01*
X745933Y239661D01*
Y241933D01*
X745345Y244128D01*
X744209Y246096D01*
X742602Y247703D01*
X740634Y248839D01*
X738439Y249427D01*
D02*
G37*
G36*
X204996Y237756D02*
X203492D01*
X202103Y237181D01*
X201040Y236117D01*
X200464Y234728D01*
Y233224D01*
X201040Y231835D01*
X202103Y230771D01*
X203492Y230196D01*
X204996D01*
X206385Y230771D01*
X207449Y231835D01*
X208024Y233224D01*
Y234728D01*
X207449Y236117D01*
X206385Y237181D01*
X204996Y237756D01*
D02*
G37*
G36*
X806108Y232812D02*
X804604D01*
X803215Y232236D01*
X802152Y231173D01*
X801576Y229784D01*
Y228280D01*
X802152Y226891D01*
X803215Y225827D01*
X804604Y225252D01*
X806108D01*
X807497Y225827D01*
X808561Y226891D01*
X809136Y228280D01*
Y229784D01*
X808561Y231173D01*
X807497Y232236D01*
X806108Y232812D01*
D02*
G37*
G36*
X434344Y232417D02*
X432841D01*
X431451Y231842D01*
X430388Y230778D01*
X429813Y229389D01*
Y227885D01*
X430388Y226496D01*
X431451Y225432D01*
X432841Y224857D01*
X434344D01*
X435734Y225432D01*
X436797Y226496D01*
X437373Y227885D01*
Y229389D01*
X436797Y230778D01*
X435734Y231842D01*
X434344Y232417D01*
D02*
G37*
G36*
X446539Y232342D02*
X445035D01*
X443646Y231767D01*
X442582Y230704D01*
X442007Y229314D01*
Y227811D01*
X442582Y226421D01*
X443646Y225358D01*
X445035Y224783D01*
X446539D01*
X447928Y225358D01*
X448992Y226421D01*
X449567Y227811D01*
Y229314D01*
X448992Y230704D01*
X447928Y231767D01*
X446539Y232342D01*
D02*
G37*
G36*
X285489Y231361D02*
X283985D01*
X282596Y230785D01*
X281532Y229722D01*
X280957Y228333D01*
Y226829D01*
X281532Y225440D01*
X282596Y224376D01*
X283985Y223801D01*
X285489D01*
X286878Y224376D01*
X287942Y225440D01*
X288517Y226829D01*
Y228333D01*
X287942Y229722D01*
X286878Y230785D01*
X285489Y231361D01*
D02*
G37*
G36*
X274940D02*
X273436D01*
X272047Y230785D01*
X270983Y229722D01*
X270408Y228333D01*
Y226829D01*
X270983Y225440D01*
X272047Y224376D01*
X273436Y223801D01*
X274940D01*
X276329Y224376D01*
X277392Y225440D01*
X277968Y226829D01*
Y228333D01*
X277392Y229722D01*
X276329Y230785D01*
X274940Y231361D01*
D02*
G37*
G36*
X264390D02*
X262887D01*
X261497Y230785D01*
X260434Y229722D01*
X259858Y228333D01*
Y226829D01*
X260434Y225440D01*
X261497Y224376D01*
X262887Y223801D01*
X264390D01*
X265780Y224376D01*
X266843Y225440D01*
X267418Y226829D01*
Y228333D01*
X266843Y229722D01*
X265780Y230785D01*
X264390Y231361D01*
D02*
G37*
G36*
X253841D02*
X252337D01*
X250948Y230785D01*
X249885Y229722D01*
X249309Y228333D01*
Y226829D01*
X249885Y225440D01*
X250948Y224376D01*
X252337Y223801D01*
X253841D01*
X255230Y224376D01*
X256294Y225440D01*
X256869Y226829D01*
Y228333D01*
X256294Y229722D01*
X255230Y230785D01*
X253841Y231361D01*
D02*
G37*
G36*
X243292D02*
X241788D01*
X240399Y230785D01*
X239335Y229722D01*
X238760Y228333D01*
Y226829D01*
X239335Y225440D01*
X240399Y224376D01*
X241788Y223801D01*
X243292D01*
X244681Y224376D01*
X245744Y225440D01*
X246320Y226829D01*
Y228333D01*
X245744Y229722D01*
X244681Y230785D01*
X243292Y231361D01*
D02*
G37*
G36*
X232742D02*
X231239D01*
X229849Y230785D01*
X228786Y229722D01*
X228211Y228333D01*
Y226829D01*
X228786Y225440D01*
X229849Y224376D01*
X231239Y223801D01*
X232742D01*
X234132Y224376D01*
X235195Y225440D01*
X235770Y226829D01*
Y228333D01*
X235195Y229722D01*
X234132Y230785D01*
X232742Y231361D01*
D02*
G37*
G36*
X661642Y231248D02*
X660138D01*
X658749Y230672D01*
X657685Y229609D01*
X657110Y228219D01*
Y226716D01*
X657685Y225326D01*
X658749Y224263D01*
X660138Y223687D01*
X661642D01*
X663031Y224263D01*
X664094Y225326D01*
X664670Y226716D01*
Y228219D01*
X664094Y229609D01*
X663031Y230672D01*
X661642Y231248D01*
D02*
G37*
G36*
X524366Y222478D02*
X522862D01*
X521473Y221902D01*
X520409Y220839D01*
X519834Y219450D01*
Y217946D01*
X520409Y216556D01*
X521473Y215493D01*
X522862Y214918D01*
X524366D01*
X525755Y215493D01*
X526819Y216556D01*
X527394Y217946D01*
Y219450D01*
X526819Y220839D01*
X525755Y221902D01*
X524366Y222478D01*
D02*
G37*
G36*
X469893Y218915D02*
X468389D01*
X467000Y218339D01*
X465937Y217276D01*
X465361Y215887D01*
Y214383D01*
X465937Y212994D01*
X467000Y211930D01*
X468389Y211355D01*
X469893D01*
X471282Y211930D01*
X472346Y212994D01*
X472921Y214383D01*
Y215887D01*
X472346Y217276D01*
X471282Y218339D01*
X469893Y218915D01*
D02*
G37*
G36*
X805640Y215665D02*
X804137D01*
X802747Y215089D01*
X801684Y214026D01*
X801108Y212637D01*
Y211133D01*
X801684Y209744D01*
X802747Y208680D01*
X804137Y208105D01*
X805640D01*
X807030Y208680D01*
X808093Y209744D01*
X808668Y211133D01*
Y212637D01*
X808093Y214026D01*
X807030Y215089D01*
X805640Y215665D01*
D02*
G37*
G36*
X481069Y215359D02*
X479565D01*
X478176Y214783D01*
X477113Y213720D01*
X476537Y212331D01*
Y210827D01*
X477113Y209438D01*
X478176Y208374D01*
X479565Y207799D01*
X481069D01*
X482458Y208374D01*
X483522Y209438D01*
X484097Y210827D01*
Y212331D01*
X483522Y213720D01*
X482458Y214783D01*
X481069Y215359D01*
D02*
G37*
G36*
X763839Y224027D02*
X761567D01*
X759372Y223439D01*
X757404Y222303D01*
X755797Y220696D01*
X754661Y218728D01*
X754073Y216533D01*
Y214261D01*
X754661Y212066D01*
X755797Y210098D01*
X757404Y208491D01*
X759372Y207355D01*
X761567Y206767D01*
X763839D01*
X766034Y207355D01*
X768002Y208491D01*
X769609Y210098D01*
X770745Y212066D01*
X771333Y214261D01*
Y216533D01*
X770745Y218728D01*
X769609Y220696D01*
X768002Y222303D01*
X766034Y223439D01*
X763839Y224027D01*
D02*
G37*
G36*
X738439D02*
X736167D01*
X733972Y223439D01*
X732004Y222303D01*
X730397Y220696D01*
X729261Y218728D01*
X728673Y216533D01*
Y214261D01*
X729261Y212066D01*
X730397Y210098D01*
X732004Y208491D01*
X733972Y207355D01*
X736167Y206767D01*
X738439D01*
X740634Y207355D01*
X742602Y208491D01*
X744209Y210098D01*
X745345Y212066D01*
X745933Y214261D01*
Y216533D01*
X745345Y218728D01*
X744209Y220696D01*
X742602Y222303D01*
X740634Y223439D01*
X738439Y224027D01*
D02*
G37*
G36*
X681378Y207218D02*
X679874D01*
X678485Y206642D01*
X677421Y205579D01*
X676846Y204190D01*
Y202686D01*
X677421Y201297D01*
X678485Y200233D01*
X679874Y199658D01*
X681378D01*
X682767Y200233D01*
X683830Y201297D01*
X684406Y202686D01*
Y204190D01*
X683830Y205579D01*
X682767Y206642D01*
X681378Y207218D01*
D02*
G37*
G36*
X649731Y297990D02*
X576893D01*
X576764Y198198D01*
X649731D01*
Y297990D01*
D02*
G37*
G36*
X679034Y193564D02*
X677530D01*
X676141Y192988D01*
X675077Y191925D01*
X674502Y190536D01*
Y189032D01*
X675077Y187643D01*
X676141Y186579D01*
X677530Y186004D01*
X679034D01*
X680423Y186579D01*
X681486Y187643D01*
X682062Y189032D01*
Y190536D01*
X681486Y191925D01*
X680423Y192988D01*
X679034Y193564D01*
D02*
G37*
G36*
X102230Y192983D02*
X100726D01*
X99337Y192407D01*
X98273Y191344D01*
X97698Y189955D01*
Y188451D01*
X98273Y187062D01*
X99337Y185998D01*
X100726Y185423D01*
X102230D01*
X103619Y185998D01*
X104683Y187062D01*
X105258Y188451D01*
Y189955D01*
X104683Y191344D01*
X103619Y192407D01*
X102230Y192983D01*
D02*
G37*
G36*
X91475D02*
X89971D01*
X88582Y192407D01*
X87519Y191344D01*
X86943Y189955D01*
Y188451D01*
X87519Y187062D01*
X88582Y185998D01*
X89971Y185423D01*
X91475D01*
X92864Y185998D01*
X93928Y187062D01*
X94503Y188451D01*
Y189955D01*
X93928Y191344D01*
X92864Y192407D01*
X91475Y192983D01*
D02*
G37*
G36*
X763839Y198627D02*
X761567D01*
X759372Y198039D01*
X757404Y196903D01*
X755797Y195296D01*
X754661Y193328D01*
X754073Y191133D01*
Y188861D01*
X754661Y186666D01*
X755797Y184698D01*
X757404Y183091D01*
X759372Y181955D01*
X761567Y181367D01*
X763839D01*
X766034Y181955D01*
X768002Y183091D01*
X769609Y184698D01*
X770745Y186666D01*
X771333Y188861D01*
Y191133D01*
X770745Y193328D01*
X769609Y195296D01*
X768002Y196903D01*
X766034Y198039D01*
X763839Y198627D01*
D02*
G37*
G36*
X738439D02*
X736167D01*
X733972Y198039D01*
X732004Y196903D01*
X730397Y195296D01*
X729261Y193328D01*
X728673Y191133D01*
Y188861D01*
X729261Y186666D01*
X730397Y184698D01*
X732004Y183091D01*
X733972Y181955D01*
X736167Y181367D01*
X738439D01*
X740634Y181955D01*
X742602Y183091D01*
X744209Y184698D01*
X745345Y186666D01*
X745933Y188861D01*
Y191133D01*
X745345Y193328D01*
X744209Y195296D01*
X742602Y196903D01*
X740634Y198039D01*
X738439Y198627D01*
D02*
G37*
G36*
X815088Y183626D02*
X813585D01*
X812195Y183050D01*
X811132Y181987D01*
X810556Y180598D01*
Y179094D01*
X811132Y177705D01*
X812195Y176641D01*
X813585Y176066D01*
X815088D01*
X816478Y176641D01*
X817541Y177705D01*
X818116Y179094D01*
Y180598D01*
X817541Y181987D01*
X816478Y183050D01*
X815088Y183626D01*
D02*
G37*
G36*
X524366Y182339D02*
X522862D01*
X521473Y181763D01*
X520409Y180700D01*
X519834Y179311D01*
Y177807D01*
X520409Y176418D01*
X521473Y175354D01*
X522862Y174779D01*
X524366D01*
X525755Y175354D01*
X526819Y176418D01*
X527394Y177807D01*
Y179311D01*
X526819Y180700D01*
X525755Y181763D01*
X524366Y182339D01*
D02*
G37*
G36*
X663917Y179113D02*
X662413D01*
X661024Y178537D01*
X659961Y177474D01*
X659385Y176085D01*
Y174581D01*
X659961Y173192D01*
X661024Y172128D01*
X662413Y171553D01*
X663917D01*
X665306Y172128D01*
X666370Y173192D01*
X666945Y174581D01*
Y176085D01*
X666370Y177474D01*
X665306Y178537D01*
X663917Y179113D01*
D02*
G37*
G36*
X677272Y178812D02*
X675768D01*
X674379Y178237D01*
X673316Y177173D01*
X672740Y175784D01*
Y174280D01*
X673316Y172891D01*
X674379Y171828D01*
X675768Y171252D01*
X677272D01*
X678661Y171828D01*
X679725Y172891D01*
X680300Y174280D01*
Y175784D01*
X679725Y177173D01*
X678661Y178237D01*
X677272Y178812D01*
D02*
G37*
G36*
X133091Y177529D02*
X131588D01*
X130198Y176953D01*
X129135Y175890D01*
X128560Y174500D01*
Y172997D01*
X129135Y171607D01*
X130198Y170544D01*
X131588Y169968D01*
X133091D01*
X134481Y170544D01*
X135544Y171607D01*
X136119Y172997D01*
Y174500D01*
X135544Y175890D01*
X134481Y176953D01*
X133091Y177529D01*
D02*
G37*
G36*
X456174Y177008D02*
X454670D01*
X453281Y176432D01*
X452217Y175369D01*
X451642Y173980D01*
Y172476D01*
X452217Y171087D01*
X453281Y170023D01*
X454670Y169448D01*
X456174D01*
X457563Y170023D01*
X458627Y171087D01*
X459202Y172476D01*
Y173980D01*
X458627Y175369D01*
X457563Y176432D01*
X456174Y177008D01*
D02*
G37*
G36*
X473374Y176517D02*
X471870D01*
X470481Y175942D01*
X469417Y174878D01*
X468842Y173489D01*
Y171985D01*
X469417Y170596D01*
X470481Y169533D01*
X471870Y168957D01*
X473374D01*
X474763Y169533D01*
X475827Y170596D01*
X476402Y171985D01*
Y173489D01*
X475827Y174878D01*
X474763Y175942D01*
X473374Y176517D01*
D02*
G37*
G36*
X192304Y168287D02*
X190800D01*
X189411Y167712D01*
X188347Y166649D01*
X187772Y165259D01*
Y163755D01*
X188347Y162366D01*
X189411Y161303D01*
X190800Y160727D01*
X192304D01*
X193693Y161303D01*
X194757Y162366D01*
X195332Y163755D01*
Y165259D01*
X194757Y166649D01*
X193693Y167712D01*
X192304Y168287D01*
D02*
G37*
G36*
X763839Y173227D02*
X761567D01*
X759372Y172639D01*
X757404Y171503D01*
X755797Y169896D01*
X754661Y167928D01*
X754073Y165733D01*
Y163461D01*
X754661Y161266D01*
X755797Y159298D01*
X757404Y157691D01*
X759372Y156555D01*
X761567Y155967D01*
X763839D01*
X766034Y156555D01*
X768002Y157691D01*
X769609Y159298D01*
X770745Y161266D01*
X771333Y163461D01*
Y165733D01*
X770745Y167928D01*
X769609Y169896D01*
X768002Y171503D01*
X766034Y172639D01*
X763839Y173227D01*
D02*
G37*
G36*
X738439D02*
X736167D01*
X733972Y172639D01*
X732004Y171503D01*
X730397Y169896D01*
X729261Y167928D01*
X728673Y165733D01*
Y163461D01*
X729261Y161266D01*
X730397Y159298D01*
X732004Y157691D01*
X733972Y156555D01*
X736167Y155967D01*
X738439D01*
X740634Y156555D01*
X742602Y157691D01*
X744209Y159298D01*
X745345Y161266D01*
X745933Y163461D01*
Y165733D01*
X745345Y167928D01*
X744209Y169896D01*
X742602Y171503D01*
X740634Y172639D01*
X738439Y173227D01*
D02*
G37*
G36*
X815079Y161511D02*
X813575D01*
X812186Y160935D01*
X811123Y159872D01*
X810547Y158483D01*
Y156979D01*
X811123Y155590D01*
X812186Y154526D01*
X813575Y153951D01*
X815079D01*
X816468Y154526D01*
X817532Y155590D01*
X818107Y156979D01*
Y158483D01*
X817532Y159872D01*
X816468Y160935D01*
X815079Y161511D01*
D02*
G37*
G36*
X143444Y159364D02*
X141940D01*
X140551Y158789D01*
X139488Y157725D01*
X138912Y156336D01*
Y154832D01*
X139488Y153443D01*
X140551Y152380D01*
X141940Y151804D01*
X143444D01*
X144833Y152380D01*
X145897Y153443D01*
X146472Y154832D01*
Y156336D01*
X145897Y157725D01*
X144833Y158789D01*
X143444Y159364D01*
D02*
G37*
G36*
X169366Y157216D02*
X167862D01*
X166473Y156641D01*
X165410Y155577D01*
X164834Y154188D01*
Y152684D01*
X165410Y151295D01*
X166473Y150232D01*
X167862Y149656D01*
X169366D01*
X170756Y150232D01*
X171819Y151295D01*
X172394Y152684D01*
Y154188D01*
X171819Y155577D01*
X170756Y156641D01*
X169366Y157216D01*
D02*
G37*
G36*
X657528Y154428D02*
X656024D01*
X654635Y153853D01*
X653571Y152789D01*
X652996Y151400D01*
Y149896D01*
X653571Y148507D01*
X654635Y147444D01*
X656024Y146868D01*
X657528D01*
X658917Y147444D01*
X659980Y148507D01*
X660556Y149896D01*
Y151400D01*
X659980Y152789D01*
X658917Y153853D01*
X657528Y154428D01*
D02*
G37*
G36*
X456183Y148777D02*
X454680D01*
X453290Y148201D01*
X452227Y147138D01*
X451651Y145749D01*
Y144245D01*
X452227Y142856D01*
X453290Y141792D01*
X454680Y141217D01*
X456183D01*
X457573Y141792D01*
X458636Y142856D01*
X459212Y144245D01*
Y145749D01*
X458636Y147138D01*
X457573Y148201D01*
X456183Y148777D01*
D02*
G37*
G36*
X567958Y148589D02*
X566454D01*
X565065Y148014D01*
X564001Y146951D01*
X563426Y145561D01*
Y144058D01*
X564001Y142668D01*
X565065Y141605D01*
X566454Y141030D01*
X567958D01*
X569347Y141605D01*
X570410Y142668D01*
X570986Y144058D01*
Y145561D01*
X570410Y146951D01*
X569347Y148014D01*
X567958Y148589D01*
D02*
G37*
G36*
X670710Y148570D02*
X669206D01*
X667817Y147994D01*
X666754Y146931D01*
X666178Y145541D01*
Y144038D01*
X666754Y142648D01*
X667817Y141585D01*
X669206Y141010D01*
X670710D01*
X672100Y141585D01*
X673163Y142648D01*
X673738Y144038D01*
Y145541D01*
X673163Y146931D01*
X672100Y147994D01*
X670710Y148570D01*
D02*
G37*
G36*
X496052Y148560D02*
X494548D01*
X493159Y147985D01*
X492095Y146921D01*
X491520Y145532D01*
Y144028D01*
X492095Y142639D01*
X493159Y141575D01*
X494548Y141000D01*
X496052D01*
X497441Y141575D01*
X498504Y142639D01*
X499080Y144028D01*
Y145532D01*
X498504Y146921D01*
X497441Y147985D01*
X496052Y148560D01*
D02*
G37*
G36*
X630380Y187788D02*
X596519D01*
X596457Y139349D01*
X630380D01*
Y187788D01*
D02*
G37*
G36*
X143444Y141584D02*
X141940D01*
X140551Y141009D01*
X139488Y139945D01*
X138912Y138556D01*
Y137052D01*
X139488Y135663D01*
X140551Y134600D01*
X141940Y134024D01*
X143444D01*
X144833Y134600D01*
X145897Y135663D01*
X146472Y137052D01*
Y138556D01*
X145897Y139945D01*
X144833Y141009D01*
X143444Y141584D01*
D02*
G37*
G36*
X738439Y147827D02*
X736167D01*
X733972Y147239D01*
X732004Y146103D01*
X730397Y144496D01*
X729261Y142528D01*
X728673Y140333D01*
Y138061D01*
X729261Y135866D01*
X730397Y133898D01*
X732004Y132291D01*
X733972Y131155D01*
X736167Y130567D01*
X738439D01*
X740634Y131155D01*
X742602Y132291D01*
X744209Y133898D01*
X745345Y135866D01*
X745933Y138061D01*
Y140333D01*
X745345Y142528D01*
X744209Y144496D01*
X742602Y146103D01*
X740634Y147239D01*
X738439Y147827D01*
D02*
G37*
G36*
Y122427D02*
X736167D01*
X733972Y121839D01*
X732004Y120703D01*
X730397Y119096D01*
X729261Y117128D01*
X728673Y114933D01*
Y112661D01*
X729261Y110466D01*
X730397Y108498D01*
X732004Y106891D01*
X733972Y105755D01*
X736167Y105167D01*
X738439D01*
X740634Y105755D01*
X742602Y106891D01*
X744209Y108498D01*
X745345Y110466D01*
X745933Y112661D01*
Y114933D01*
X745345Y117128D01*
X744209Y119096D01*
X742602Y120703D01*
X740634Y121839D01*
X738439Y122427D01*
D02*
G37*
G36*
X102905Y88359D02*
X101402D01*
X100012Y87783D01*
X98949Y86720D01*
X98373Y85331D01*
Y83827D01*
X98949Y82438D01*
X100012Y81374D01*
X101402Y80799D01*
X102905D01*
X104295Y81374D01*
X105358Y82438D01*
X105933Y83827D01*
Y85331D01*
X105358Y86720D01*
X104295Y87783D01*
X102905Y88359D01*
D02*
G37*
G36*
X83813D02*
X82309D01*
X80920Y87783D01*
X79857Y86720D01*
X79281Y85331D01*
Y83827D01*
X79857Y82438D01*
X80920Y81374D01*
X82309Y80799D01*
X83813D01*
X85202Y81374D01*
X86266Y82438D01*
X86841Y83827D01*
Y85331D01*
X86266Y86720D01*
X85202Y87783D01*
X83813Y88359D01*
D02*
G37*
G36*
X505707Y88105D02*
X504203D01*
X502814Y87529D01*
X501750Y86466D01*
X501175Y85077D01*
Y83573D01*
X501750Y82184D01*
X502814Y81120D01*
X504203Y80545D01*
X505707D01*
X507096Y81120D01*
X508160Y82184D01*
X508735Y83573D01*
Y85077D01*
X508160Y86466D01*
X507096Y87529D01*
X505707Y88105D01*
D02*
G37*
G36*
X525932Y87784D02*
X524428D01*
X523039Y87208D01*
X521976Y86145D01*
X521400Y84755D01*
Y83252D01*
X521976Y81862D01*
X523039Y80799D01*
X524428Y80224D01*
X525932D01*
X527321Y80799D01*
X528385Y81862D01*
X528960Y83252D01*
Y84755D01*
X528385Y86145D01*
X527321Y87208D01*
X525932Y87784D01*
D02*
G37*
G36*
X608697Y92867D02*
X606309D01*
X604002Y92249D01*
X601934Y91055D01*
X600245Y89366D01*
X599051Y87298D01*
X598433Y84991D01*
Y82603D01*
X599051Y80296D01*
X600245Y78228D01*
X601934Y76539D01*
X604002Y75345D01*
X606309Y74727D01*
X608697D01*
X611004Y75345D01*
X613072Y76539D01*
X614761Y78228D01*
X615955Y80296D01*
X616573Y82603D01*
Y84991D01*
X615955Y87298D01*
X614761Y89366D01*
X613072Y91055D01*
X611004Y92249D01*
X608697Y92867D01*
D02*
G37*
G36*
X243697D02*
X241309D01*
X239002Y92249D01*
X236934Y91055D01*
X235245Y89366D01*
X234051Y87298D01*
X233433Y84991D01*
Y82603D01*
X234051Y80296D01*
X235245Y78228D01*
X236934Y76539D01*
X239002Y75345D01*
X241309Y74727D01*
X243697D01*
X246004Y75345D01*
X248072Y76539D01*
X249761Y78228D01*
X250955Y80296D01*
X251573Y82603D01*
Y84991D01*
X250955Y87298D01*
X249761Y89366D01*
X248072Y91055D01*
X246004Y92249D01*
X243697Y92867D01*
D02*
G37*
G36*
X93359Y79784D02*
X91855D01*
X90466Y79208D01*
X89403Y78145D01*
X88827Y76755D01*
Y75252D01*
X89403Y73862D01*
X90466Y72799D01*
X91855Y72224D01*
X93359D01*
X94748Y72799D01*
X95812Y73862D01*
X96387Y75252D01*
Y76755D01*
X95812Y78145D01*
X94748Y79208D01*
X93359Y79784D01*
D02*
G37*
G36*
X74267D02*
X72763D01*
X71374Y79208D01*
X70310Y78145D01*
X69735Y76755D01*
Y75252D01*
X70310Y73862D01*
X71374Y72799D01*
X72763Y72224D01*
X74267D01*
X75656Y72799D01*
X76719Y73862D01*
X77295Y75252D01*
Y76755D01*
X76719Y78145D01*
X75656Y79208D01*
X74267Y79784D01*
D02*
G37*
G36*
X585903Y76008D02*
X584399D01*
X583010Y75432D01*
X581947Y74369D01*
X581371Y72979D01*
Y71476D01*
X581947Y70086D01*
X583010Y69023D01*
X584399Y68448D01*
X585903D01*
X587292Y69023D01*
X588356Y70086D01*
X588931Y71476D01*
Y72979D01*
X588356Y74369D01*
X587292Y75432D01*
X585903Y76008D01*
D02*
G37*
G36*
X102905Y71208D02*
X101402D01*
X100012Y70633D01*
X98949Y69569D01*
X98373Y68180D01*
Y66676D01*
X98949Y65287D01*
X100012Y64224D01*
X101402Y63648D01*
X102905D01*
X104295Y64224D01*
X105358Y65287D01*
X105933Y66676D01*
Y68180D01*
X105358Y69569D01*
X104295Y70633D01*
X102905Y71208D01*
D02*
G37*
G36*
X83813D02*
X82309D01*
X80920Y70633D01*
X79857Y69569D01*
X79281Y68180D01*
Y66676D01*
X79857Y65287D01*
X80920Y64224D01*
X82309Y63648D01*
X83813D01*
X85202Y64224D01*
X86266Y65287D01*
X86841Y66676D01*
Y68180D01*
X86266Y69569D01*
X85202Y70633D01*
X83813Y71208D01*
D02*
G37*
G36*
X93359Y62633D02*
X91855D01*
X90466Y62057D01*
X89403Y60994D01*
X88827Y59605D01*
Y58101D01*
X89403Y56712D01*
X90466Y55648D01*
X91855Y55073D01*
X93359D01*
X94748Y55648D01*
X95812Y56712D01*
X96387Y58101D01*
Y59605D01*
X95812Y60994D01*
X94748Y62057D01*
X93359Y62633D01*
D02*
G37*
G36*
X74267D02*
X72763D01*
X71374Y62057D01*
X70310Y60994D01*
X69735Y59605D01*
Y58101D01*
X70310Y56712D01*
X71374Y55648D01*
X72763Y55073D01*
X74267D01*
X75656Y55648D01*
X76719Y56712D01*
X77295Y58101D01*
Y59605D01*
X76719Y60994D01*
X75656Y62057D01*
X74267Y62633D01*
D02*
G37*
G36*
X375151Y61436D02*
X373647D01*
X372258Y60861D01*
X371194Y59798D01*
X370619Y58408D01*
Y56905D01*
X371194Y55515D01*
X372258Y54452D01*
X373647Y53876D01*
X375151D01*
X376540Y54452D01*
X377604Y55515D01*
X378179Y56905D01*
Y58408D01*
X377604Y59798D01*
X376540Y60861D01*
X375151Y61436D01*
D02*
G37*
G36*
X356059D02*
X354555D01*
X353165Y60861D01*
X352102Y59798D01*
X351527Y58408D01*
Y56905D01*
X352102Y55515D01*
X353165Y54452D01*
X354555Y53876D01*
X356059D01*
X357448Y54452D01*
X358511Y55515D01*
X359087Y56905D01*
Y58408D01*
X358511Y59798D01*
X357448Y60861D01*
X356059Y61436D01*
D02*
G37*
G36*
X336966D02*
X335462D01*
X334073Y60861D01*
X333010Y59798D01*
X332434Y58408D01*
Y56905D01*
X333010Y55515D01*
X334073Y54452D01*
X335462Y53876D01*
X336966D01*
X338355Y54452D01*
X339419Y55515D01*
X339994Y56905D01*
Y58408D01*
X339419Y59798D01*
X338355Y60861D01*
X336966Y61436D01*
D02*
G37*
G36*
X102905Y54058D02*
X101402D01*
X100012Y53482D01*
X98949Y52419D01*
X98373Y51030D01*
Y49526D01*
X98949Y48137D01*
X100012Y47073D01*
X101402Y46498D01*
X102905D01*
X104295Y47073D01*
X105358Y48137D01*
X105933Y49526D01*
Y51030D01*
X105358Y52419D01*
X104295Y53482D01*
X102905Y54058D01*
D02*
G37*
G36*
X83813D02*
X82309D01*
X80920Y53482D01*
X79857Y52419D01*
X79281Y51030D01*
Y49526D01*
X79857Y48137D01*
X80920Y47073D01*
X82309Y46498D01*
X83813D01*
X85202Y47073D01*
X86266Y48137D01*
X86841Y49526D01*
Y51030D01*
X86266Y52419D01*
X85202Y53482D01*
X83813Y54058D01*
D02*
G37*
G36*
X365605Y52861D02*
X364101D01*
X362712Y52286D01*
X361648Y51222D01*
X361073Y49833D01*
Y48329D01*
X361648Y46940D01*
X362712Y45876D01*
X364101Y45301D01*
X365605D01*
X366994Y45876D01*
X368057Y46940D01*
X368633Y48329D01*
Y49833D01*
X368057Y51222D01*
X366994Y52286D01*
X365605Y52861D01*
D02*
G37*
G36*
X346512D02*
X345009D01*
X343619Y52286D01*
X342556Y51222D01*
X341980Y49833D01*
Y48329D01*
X342556Y46940D01*
X343619Y45876D01*
X345009Y45301D01*
X346512D01*
X347902Y45876D01*
X348965Y46940D01*
X349540Y48329D01*
Y49833D01*
X348965Y51222D01*
X347902Y52286D01*
X346512Y52861D01*
D02*
G37*
G36*
X93359Y45482D02*
X91855D01*
X90466Y44907D01*
X89403Y43843D01*
X88827Y42454D01*
Y40950D01*
X89403Y39561D01*
X90466Y38498D01*
X91855Y37922D01*
X93359D01*
X94748Y38498D01*
X95812Y39561D01*
X96387Y40950D01*
Y42454D01*
X95812Y43843D01*
X94748Y44907D01*
X93359Y45482D01*
D02*
G37*
G36*
X74267D02*
X72763D01*
X71374Y44907D01*
X70310Y43843D01*
X69735Y42454D01*
Y40950D01*
X70310Y39561D01*
X71374Y38498D01*
X72763Y37922D01*
X74267D01*
X75656Y38498D01*
X76719Y39561D01*
X77295Y40950D01*
Y42454D01*
X76719Y43843D01*
X75656Y44907D01*
X74267Y45482D01*
D02*
G37*
G36*
X375151Y44286D02*
X373647D01*
X372258Y43710D01*
X371194Y42647D01*
X370619Y41258D01*
Y39754D01*
X371194Y38365D01*
X372258Y37301D01*
X373647Y36726D01*
X375151D01*
X376540Y37301D01*
X377604Y38365D01*
X378179Y39754D01*
Y41258D01*
X377604Y42647D01*
X376540Y43710D01*
X375151Y44286D01*
D02*
G37*
G36*
X356059D02*
X354555D01*
X353165Y43710D01*
X352102Y42647D01*
X351527Y41258D01*
Y39754D01*
X352102Y38365D01*
X353165Y37301D01*
X354555Y36726D01*
X356059D01*
X357448Y37301D01*
X358511Y38365D01*
X359087Y39754D01*
Y41258D01*
X358511Y42647D01*
X357448Y43710D01*
X356059Y44286D01*
D02*
G37*
G36*
X336966D02*
X335462D01*
X334073Y43710D01*
X333010Y42647D01*
X332434Y41258D01*
Y39754D01*
X333010Y38365D01*
X334073Y37301D01*
X335462Y36726D01*
X336966D01*
X338355Y37301D01*
X339419Y38365D01*
X339994Y39754D01*
Y41258D01*
X339419Y42647D01*
X338355Y43710D01*
X336966Y44286D01*
D02*
G37*
G36*
X485755Y39777D02*
X484251D01*
X482862Y39201D01*
X481799Y38138D01*
X481223Y36749D01*
Y35245D01*
X481799Y33856D01*
X482862Y32792D01*
X484251Y32217D01*
X485755D01*
X487144Y32792D01*
X488208Y33856D01*
X488783Y35245D01*
Y36749D01*
X488208Y38138D01*
X487144Y39201D01*
X485755Y39777D01*
D02*
G37*
G36*
X102905Y36907D02*
X101402D01*
X100012Y36332D01*
X98949Y35268D01*
X98373Y33879D01*
Y32375D01*
X98949Y30986D01*
X100012Y29922D01*
X101402Y29347D01*
X102905D01*
X104295Y29922D01*
X105358Y30986D01*
X105933Y32375D01*
Y33879D01*
X105358Y35268D01*
X104295Y36332D01*
X102905Y36907D01*
D02*
G37*
G36*
X83813D02*
X82309D01*
X80920Y36332D01*
X79857Y35268D01*
X79281Y33879D01*
Y32375D01*
X79857Y30986D01*
X80920Y29922D01*
X82309Y29347D01*
X83813D01*
X85202Y29922D01*
X86266Y30986D01*
X86841Y32375D01*
Y33879D01*
X86266Y35268D01*
X85202Y36332D01*
X83813Y36907D01*
D02*
G37*
G36*
X365605Y35710D02*
X364101D01*
X362712Y35135D01*
X361648Y34072D01*
X361073Y32682D01*
Y31179D01*
X361648Y29789D01*
X362712Y28726D01*
X364101Y28150D01*
X365605D01*
X366994Y28726D01*
X368057Y29789D01*
X368633Y31179D01*
Y32682D01*
X368057Y34072D01*
X366994Y35135D01*
X365605Y35710D01*
D02*
G37*
G36*
X346512D02*
X345009D01*
X343619Y35135D01*
X342556Y34072D01*
X341980Y32682D01*
Y31179D01*
X342556Y29789D01*
X343619Y28726D01*
X345009Y28150D01*
X346512D01*
X347902Y28726D01*
X348965Y29789D01*
X349540Y31179D01*
Y32682D01*
X348965Y34072D01*
X347902Y35135D01*
X346512Y35710D01*
D02*
G37*
G36*
X608697Y45267D02*
X606309D01*
X604002Y44649D01*
X601934Y43455D01*
X600245Y41766D01*
X599051Y39698D01*
X598433Y37391D01*
Y35003D01*
X599051Y32696D01*
X600245Y30628D01*
X601934Y28939D01*
X604002Y27745D01*
X606309Y27127D01*
X608697D01*
X611004Y27745D01*
X613072Y28939D01*
X614761Y30628D01*
X615955Y32696D01*
X616573Y35003D01*
Y37391D01*
X615955Y39698D01*
X614761Y41766D01*
X613072Y43455D01*
X611004Y44649D01*
X608697Y45267D01*
D02*
G37*
G36*
X243697D02*
X241309D01*
X239002Y44649D01*
X236934Y43455D01*
X235245Y41766D01*
X234051Y39698D01*
X233433Y37391D01*
Y35003D01*
X234051Y32696D01*
X235245Y30628D01*
X236934Y28939D01*
X239002Y27745D01*
X241309Y27127D01*
X243697D01*
X246004Y27745D01*
X248072Y28939D01*
X249761Y30628D01*
X250955Y32696D01*
X251573Y35003D01*
Y37391D01*
X250955Y39698D01*
X249761Y41766D01*
X248072Y43455D01*
X246004Y44649D01*
X243697Y45267D01*
D02*
G37*
G36*
X375151Y27135D02*
X373647D01*
X372258Y26560D01*
X371194Y25496D01*
X370619Y24107D01*
Y22603D01*
X371194Y21214D01*
X372258Y20151D01*
X373647Y19575D01*
X375151D01*
X376540Y20151D01*
X377604Y21214D01*
X378179Y22603D01*
Y24107D01*
X377604Y25496D01*
X376540Y26560D01*
X375151Y27135D01*
D02*
G37*
G36*
X356059D02*
X354555D01*
X353165Y26560D01*
X352102Y25496D01*
X351527Y24107D01*
Y22603D01*
X352102Y21214D01*
X353165Y20151D01*
X354555Y19575D01*
X356059D01*
X357448Y20151D01*
X358511Y21214D01*
X359087Y22603D01*
Y24107D01*
X358511Y25496D01*
X357448Y26560D01*
X356059Y27135D01*
D02*
G37*
G36*
X336966D02*
X335462D01*
X334073Y26560D01*
X333010Y25496D01*
X332434Y24107D01*
Y22603D01*
X333010Y21214D01*
X334073Y20151D01*
X335462Y19575D01*
X336966D01*
X338355Y20151D01*
X339419Y21214D01*
X339994Y22603D01*
Y24107D01*
X339419Y25496D01*
X338355Y26560D01*
X336966Y27135D01*
D02*
G37*
%LPD*%
D25*
X6353Y11997D02*
G03*
X11991Y6347I5650J0D01*
G01*
X12003Y843647D02*
G03*
X6353Y838009I0J-5650D01*
G01*
X838003Y6347D02*
G03*
X843653Y11984I0J5650D01*
G01*
X843653Y837997D02*
G03*
X838020Y843646I-5650J0D01*
G01*
X6353Y12022D02*
X6353Y837997D01*
X12003Y6347D02*
X837978Y6347D01*
X12021Y843647D02*
X838003Y843646D01*
X843653Y11997D02*
X843653Y837971D01*
D122*
X734603Y642165D02*
D03*
Y544597D02*
D03*
D123*
Y667565D02*
D03*
Y692965D02*
D03*
Y718365D02*
D03*
Y743765D02*
D03*
Y569997D02*
D03*
Y595397D02*
D03*
D124*
X477503Y739997D02*
D03*
X662503D02*
D03*
X477503Y692497D02*
D03*
X662503D02*
D03*
X352503Y692497D02*
D03*
X167503D02*
D03*
X352503Y739997D02*
D03*
X167503D02*
D03*
X607503Y36197D02*
D03*
X242503Y83797D02*
D03*
X607503D02*
D03*
X242503Y36197D02*
D03*
D125*
X207253Y177497D02*
D03*
X220253D02*
D03*
X207253Y164497D02*
D03*
X220253D02*
D03*
X207253Y151497D02*
D03*
X220253D02*
D03*
D126*
X762703Y215397D02*
D03*
Y189997D02*
D03*
X737303Y266197D02*
D03*
X762703D02*
D03*
X737303Y240797D02*
D03*
X762703D02*
D03*
X737303Y215397D02*
D03*
Y189997D02*
D03*
Y164597D02*
D03*
X762703D02*
D03*
X737303Y139197D02*
D03*
X762703D02*
D03*
X737303Y113797D02*
D03*
D127*
X762703D02*
D03*
D128*
X19563Y52437D02*
D03*
X52443Y19557D02*
D03*
X19563D02*
D03*
X52443Y52437D02*
D03*
X59253Y35997D02*
D03*
X36003Y13137D02*
D03*
X12753Y35997D02*
D03*
X36003Y59247D02*
D03*
X797563Y52437D02*
D03*
X830443Y19557D02*
D03*
X797563D02*
D03*
X830443Y52437D02*
D03*
X837253Y35997D02*
D03*
X814003Y13137D02*
D03*
X790753Y35997D02*
D03*
X814003Y59247D02*
D03*
X19563Y830437D02*
D03*
X52443Y797557D02*
D03*
X19563D02*
D03*
X52443Y830437D02*
D03*
X59253Y813997D02*
D03*
X36003Y791137D02*
D03*
X12753Y813997D02*
D03*
X36003Y837247D02*
D03*
X797563Y830437D02*
D03*
X830443Y797557D02*
D03*
X797563D02*
D03*
X830443Y830437D02*
D03*
X837253Y813997D02*
D03*
X814003Y791137D02*
D03*
X790753Y813997D02*
D03*
X814003Y837247D02*
D03*
D129*
X36003Y35997D02*
D03*
X814003D02*
D03*
X36003Y813997D02*
D03*
X814003D02*
D03*
D130*
X836321Y843614D02*
D03*
X843620Y526780D02*
D03*
X6386Y35503D02*
D03*
X843620Y586779D02*
D03*
X6386Y645502D02*
D03*
Y425503D02*
D03*
Y405503D02*
D03*
X740856Y6379D02*
D03*
X250858D02*
D03*
X460857D02*
D03*
X660857D02*
D03*
X843620Y406780D02*
D03*
X316322Y843614D02*
D03*
X26323D02*
D03*
X730856Y6379D02*
D03*
X416322Y843614D02*
D03*
X6386Y335503D02*
D03*
X400857Y6379D02*
D03*
X843620Y306780D02*
D03*
X246322Y843614D02*
D03*
X496322D02*
D03*
X6386Y715502D02*
D03*
Y385503D02*
D03*
Y255503D02*
D03*
Y835502D02*
D03*
X843620Y156780D02*
D03*
X806321Y843614D02*
D03*
X430857Y6379D02*
D03*
X100858D02*
D03*
X736321Y843614D02*
D03*
X843620Y186780D02*
D03*
X66323Y843614D02*
D03*
X160858Y6379D02*
D03*
X6386Y545503D02*
D03*
X440857Y6379D02*
D03*
X280857D02*
D03*
X843620Y216780D02*
D03*
X396322Y843614D02*
D03*
X630857Y6379D02*
D03*
X366322Y843614D02*
D03*
X326322D02*
D03*
X6386Y305503D02*
D03*
X30858Y6379D02*
D03*
X390857D02*
D03*
X6386Y775502D02*
D03*
Y735502D02*
D03*
Y665502D02*
D03*
X470857Y6379D02*
D03*
X560857D02*
D03*
X843620Y616779D02*
D03*
X6386Y635502D02*
D03*
X126323Y843614D02*
D03*
X6386Y455503D02*
D03*
X96323Y843614D02*
D03*
X843620Y176780D02*
D03*
X6386Y355503D02*
D03*
X843620Y786779D02*
D03*
X700857Y6379D02*
D03*
X600857D02*
D03*
X716321Y843614D02*
D03*
X586322D02*
D03*
X843620Y366780D02*
D03*
Y556779D02*
D03*
X556322Y843614D02*
D03*
X610857Y6379D02*
D03*
X356322Y843614D02*
D03*
X843620Y86780D02*
D03*
X6386Y525503D02*
D03*
X670857Y6379D02*
D03*
X6386Y815502D02*
D03*
X843620Y276780D02*
D03*
Y66780D02*
D03*
X686321Y843614D02*
D03*
X20858Y6379D02*
D03*
X230858D02*
D03*
X6386Y595502D02*
D03*
X650857Y6379D02*
D03*
X843620Y566779D02*
D03*
X606322Y843614D02*
D03*
X780856Y6379D02*
D03*
X526322Y843614D02*
D03*
X210858Y6379D02*
D03*
X450857D02*
D03*
X6386Y795502D02*
D03*
X150858Y6379D02*
D03*
X843620Y476780D02*
D03*
X216322Y843614D02*
D03*
X816321D02*
D03*
X6386Y465503D02*
D03*
X260857Y6379D02*
D03*
X843620Y16781D02*
D03*
X6386Y535503D02*
D03*
X843620Y426780D02*
D03*
X6386Y625502D02*
D03*
X380857Y6379D02*
D03*
X590857D02*
D03*
X12233Y843614D02*
D03*
X843620Y416780D02*
D03*
Y686779D02*
D03*
X506322Y843614D02*
D03*
X6386Y165503D02*
D03*
X843620Y316780D02*
D03*
X386322Y843614D02*
D03*
X6386Y435503D02*
D03*
X770856Y6379D02*
D03*
X320857D02*
D03*
X843620Y726779D02*
D03*
Y266780D02*
D03*
X540857Y6379D02*
D03*
X536322Y843614D02*
D03*
X170858Y6379D02*
D03*
X830856D02*
D03*
X843620Y706779D02*
D03*
X6386Y225503D02*
D03*
X240858Y6379D02*
D03*
X843620Y806779D02*
D03*
X6386Y125503D02*
D03*
X843620Y146780D02*
D03*
Y126780D02*
D03*
Y206780D02*
D03*
X6386Y825502D02*
D03*
Y565503D02*
D03*
X156323Y843614D02*
D03*
X136323D02*
D03*
X790856Y6379D02*
D03*
X86323Y843614D02*
D03*
X6386Y765502D02*
D03*
X290857Y6379D02*
D03*
X6386Y185503D02*
D03*
Y275503D02*
D03*
X436322Y843614D02*
D03*
X576322D02*
D03*
X820856Y6379D02*
D03*
X286322Y843614D02*
D03*
X843620Y356780D02*
D03*
X550857Y6379D02*
D03*
X843620Y576779D02*
D03*
X746321Y843614D02*
D03*
X546322D02*
D03*
X843620Y196780D02*
D03*
X370857Y6379D02*
D03*
X426322Y843614D02*
D03*
X6386Y785502D02*
D03*
Y745502D02*
D03*
X676322Y843614D02*
D03*
X306322D02*
D03*
X276322D02*
D03*
X186322D02*
D03*
X106323D02*
D03*
X6386Y575502D02*
D03*
X843620Y646779D02*
D03*
Y776779D02*
D03*
X330857Y6379D02*
D03*
X843620Y226780D02*
D03*
Y346780D02*
D03*
Y746779D02*
D03*
X616322Y843614D02*
D03*
X376322D02*
D03*
X796321D02*
D03*
X346322D02*
D03*
X176323D02*
D03*
X70858Y6379D02*
D03*
X6386Y615502D02*
D03*
X266322Y843614D02*
D03*
X340857Y6379D02*
D03*
X843620Y246780D02*
D03*
Y736779D02*
D03*
X110858Y6379D02*
D03*
X6386Y95503D02*
D03*
X843620Y436780D02*
D03*
X656322Y843614D02*
D03*
X480857Y6379D02*
D03*
X843620Y456780D02*
D03*
X296322Y843614D02*
D03*
X760856Y6379D02*
D03*
X510857D02*
D03*
X843620Y626779D02*
D03*
Y756779D02*
D03*
X80858Y6379D02*
D03*
X696321Y843614D02*
D03*
X46323D02*
D03*
X6386Y175503D02*
D03*
X350857Y6379D02*
D03*
X843620Y466780D02*
D03*
X776321Y843614D02*
D03*
X420857Y6379D02*
D03*
X843620Y336780D02*
D03*
X6386Y485503D02*
D03*
X843620Y166780D02*
D03*
X6386Y85503D02*
D03*
X336322Y843614D02*
D03*
X6386Y695502D02*
D03*
Y755502D02*
D03*
X486322Y843614D02*
D03*
X6386Y705502D02*
D03*
X200858Y6379D02*
D03*
X500857D02*
D03*
X6386Y585502D02*
D03*
X50858Y6379D02*
D03*
X620857D02*
D03*
X843620Y296780D02*
D03*
Y116780D02*
D03*
Y796779D02*
D03*
Y506780D02*
D03*
X726321Y843614D02*
D03*
X456322D02*
D03*
X843620Y816779D02*
D03*
Y596779D02*
D03*
X786321Y843614D02*
D03*
X636322D02*
D03*
X6386Y45504D02*
D03*
X466322Y843614D02*
D03*
X843620Y46780D02*
D03*
X490857Y6379D02*
D03*
X6386Y265503D02*
D03*
Y15504D02*
D03*
X843620Y516780D02*
D03*
X566322Y843614D02*
D03*
X166323D02*
D03*
X6386Y605502D02*
D03*
X180858Y6379D02*
D03*
X6386Y155503D02*
D03*
Y105503D02*
D03*
X843620Y36780D02*
D03*
X236322Y843614D02*
D03*
X6386Y395503D02*
D03*
Y725502D02*
D03*
Y515503D02*
D03*
Y805502D02*
D03*
Y75503D02*
D03*
X646322Y843614D02*
D03*
X6386Y135503D02*
D03*
Y145503D02*
D03*
X640857Y6379D02*
D03*
X843620Y26781D02*
D03*
X360857Y6379D02*
D03*
X6386Y445503D02*
D03*
X843620Y106780D02*
D03*
X406322Y843614D02*
D03*
X256322D02*
D03*
X6386Y365503D02*
D03*
X190858Y6379D02*
D03*
X666322Y843614D02*
D03*
X6386Y295503D02*
D03*
X843620Y396780D02*
D03*
X6386Y345503D02*
D03*
X843620Y536779D02*
D03*
X60858Y6379D02*
D03*
X843620Y666779D02*
D03*
X570857Y6379D02*
D03*
X766321Y843614D02*
D03*
X56323D02*
D03*
X6386Y505503D02*
D03*
X530857Y6379D02*
D03*
X6386Y65504D02*
D03*
X270857Y6379D02*
D03*
X196322Y843614D02*
D03*
X76323D02*
D03*
X843620Y256780D02*
D03*
X6386Y495503D02*
D03*
X843620Y286780D02*
D03*
Y326780D02*
D03*
Y376780D02*
D03*
Y446780D02*
D03*
X626322Y843614D02*
D03*
X300857Y6379D02*
D03*
X6386Y55504D02*
D03*
X690857Y6379D02*
D03*
X843620Y56780D02*
D03*
Y546779D02*
D03*
Y606779D02*
D03*
X520857Y6379D02*
D03*
X750856D02*
D03*
X840824Y7179D02*
D03*
X843620Y826779D02*
D03*
X6386Y315503D02*
D03*
X800856Y6379D02*
D03*
X706321Y843614D02*
D03*
X40858Y6379D02*
D03*
X446322Y843614D02*
D03*
X843620Y696779D02*
D03*
X410857Y6379D02*
D03*
X206322Y843614D02*
D03*
X10860Y6560D02*
D03*
X843620Y656779D02*
D03*
Y716779D02*
D03*
X680857Y6379D02*
D03*
X6386Y555503D02*
D03*
X580857Y6379D02*
D03*
X843620Y676779D02*
D03*
X826321Y843614D02*
D03*
X843620Y76780D02*
D03*
Y836779D02*
D03*
X36323Y843614D02*
D03*
X843620Y136780D02*
D03*
X6386Y285503D02*
D03*
X146323Y843614D02*
D03*
X6386Y685502D02*
D03*
X226322Y843614D02*
D03*
X310857Y6379D02*
D03*
X843620Y96780D02*
D03*
Y766779D02*
D03*
X476322Y843614D02*
D03*
X810856Y6379D02*
D03*
X843620Y636779D02*
D03*
X120858Y6379D02*
D03*
X116323Y843614D02*
D03*
X756321D02*
D03*
X6386Y325503D02*
D03*
X90858Y6379D02*
D03*
X6386Y25503D02*
D03*
X220858Y6379D02*
D03*
X843620Y386780D02*
D03*
X516322Y843614D02*
D03*
X140858Y6379D02*
D03*
X6386Y655502D02*
D03*
Y115503D02*
D03*
Y375503D02*
D03*
Y215503D02*
D03*
Y475503D02*
D03*
X843620Y236780D02*
D03*
X596322Y843614D02*
D03*
X6386Y245503D02*
D03*
Y235503D02*
D03*
Y415503D02*
D03*
Y675502D02*
D03*
Y205503D02*
D03*
Y195503D02*
D03*
X130858Y6379D02*
D03*
X710856D02*
D03*
X720856D02*
D03*
X843620Y486780D02*
D03*
Y496780D02*
D03*
X822286Y685782D02*
D03*
X797286Y635782D02*
D03*
X822286Y585782D02*
D03*
X797286Y535782D02*
D03*
X822286Y485782D02*
D03*
Y85782D02*
D03*
X772286Y785782D02*
D03*
X747286Y735782D02*
D03*
X772286Y685782D02*
D03*
X747286Y635782D02*
D03*
X772286Y585782D02*
D03*
Y485782D02*
D03*
X747286Y235782D02*
D03*
Y35782D02*
D03*
X722286Y785782D02*
D03*
Y685782D02*
D03*
X697286Y635782D02*
D03*
X722286Y485782D02*
D03*
Y85782D02*
D03*
X697286Y35782D02*
D03*
X672286Y785782D02*
D03*
X647286Y735782D02*
D03*
X672286Y685782D02*
D03*
Y85782D02*
D03*
X647286Y35782D02*
D03*
X622286Y785782D02*
D03*
X597286Y735782D02*
D03*
X622286Y85782D02*
D03*
X572286Y785782D02*
D03*
X547286Y735782D02*
D03*
X522286Y785782D02*
D03*
X497286Y735782D02*
D03*
X522286Y585782D02*
D03*
X497286Y235782D02*
D03*
X472286Y785782D02*
D03*
X422286D02*
D03*
X372286D02*
D03*
Y685782D02*
D03*
Y585782D02*
D03*
Y385782D02*
D03*
X322286Y785782D02*
D03*
X297286Y735782D02*
D03*
X322286Y585782D02*
D03*
Y185782D02*
D03*
X272286Y785782D02*
D03*
X247286Y735782D02*
D03*
X272286Y585782D02*
D03*
X247286Y135782D02*
D03*
X222286Y785782D02*
D03*
Y585782D02*
D03*
X197286Y335782D02*
D03*
Y135782D02*
D03*
X222286Y85782D02*
D03*
X172286D02*
D03*
X122286Y585782D02*
D03*
Y485782D02*
D03*
Y85782D02*
D03*
X47286Y735782D02*
D03*
X72286Y485782D02*
D03*
X47286Y435782D02*
D03*
X508923Y268393D02*
D03*
X63132Y538082D02*
D03*
X107876Y563391D02*
D03*
X190529Y533385D02*
D03*
X137872Y489714D02*
D03*
X292371Y546793D02*
D03*
X296103Y538251D02*
D03*
X606450Y331746D02*
D03*
X380286Y250757D02*
D03*
X396494Y298319D02*
D03*
X365050Y255959D02*
D03*
X562650Y345912D02*
D03*
X496635Y466769D02*
D03*
X466169Y409815D02*
D03*
X499281Y304669D02*
D03*
X508398Y328642D02*
D03*
X339604Y447284D02*
D03*
X316245Y388556D02*
D03*
X380559Y298575D02*
D03*
X610870Y663194D02*
D03*
X589534D02*
D03*
X549458D02*
D03*
X530352D02*
D03*
X784860Y463310D02*
D03*
Y423327D02*
D03*
Y383342D02*
D03*
Y342550D02*
D03*
X783844Y264414D02*
D03*
X246985Y410881D02*
D03*
X689305Y631903D02*
D03*
X494538Y206756D02*
D03*
X389343Y209296D02*
D03*
X439420Y204470D02*
D03*
X427228Y215646D02*
D03*
X446532Y114471D02*
D03*
X430528Y114419D02*
D03*
X570164Y424792D02*
D03*
X524889Y513284D02*
D03*
X650812Y488635D02*
D03*
X649732Y601218D02*
D03*
X246888Y718336D02*
D03*
Y698500D02*
D03*
X284005Y451223D02*
D03*
X215521Y445285D02*
D03*
X206970Y453176D02*
D03*
X396994Y479769D02*
D03*
X401113Y245733D02*
D03*
X389343Y243545D02*
D03*
X191552Y164507D02*
D03*
X168614Y153436D02*
D03*
X132339Y173748D02*
D03*
X379391Y468893D02*
D03*
X206879Y436123D02*
D03*
X223838Y453176D02*
D03*
Y436123D02*
D03*
X430591Y466519D02*
D03*
X431038Y454660D02*
D03*
X416306D02*
D03*
X421034Y491168D02*
D03*
X411390Y478508D02*
D03*
X405400Y491091D02*
D03*
X470956Y497615D02*
D03*
X437356Y538337D02*
D03*
X321325Y538301D02*
D03*
X98130Y538365D02*
D03*
X89873D02*
D03*
X214354Y538420D02*
D03*
X205294Y538433D02*
D03*
X399511Y660458D02*
D03*
X401066Y735934D02*
D03*
X412242Y783082D02*
D03*
X456414Y772918D02*
D03*
X455933Y656016D02*
D03*
X456414Y730564D02*
D03*
X444500Y698370D02*
D03*
X403243Y698696D02*
D03*
X586232Y541528D02*
D03*
Y567436D02*
D03*
X455933Y616907D02*
D03*
X444500Y627623D02*
D03*
X426720D02*
D03*
X490872Y620397D02*
D03*
Y602597D02*
D03*
X468828Y574413D02*
D03*
X338648Y580755D02*
D03*
X393929Y580255D02*
D03*
X362312D02*
D03*
X410096Y627623D02*
D03*
X346812Y611883D02*
D03*
X246541Y580558D02*
D03*
X261495Y580837D02*
D03*
X277966D02*
D03*
X278310Y596262D02*
D03*
X261495Y611883D02*
D03*
X326310D02*
D03*
X278310Y611177D02*
D03*
X261495Y596262D02*
D03*
X163015Y574716D02*
D03*
X169320Y583555D02*
D03*
X142779Y576255D02*
D03*
X130749Y580258D02*
D03*
X61684D02*
D03*
X46149Y571516D02*
D03*
X46013Y537147D02*
D03*
X46149Y477633D02*
D03*
X50415Y421633D02*
D03*
Y336407D02*
D03*
Y392407D02*
D03*
X168131Y338002D02*
D03*
X127533Y340746D02*
D03*
X49530Y309626D02*
D03*
X48003Y269497D02*
D03*
X283010Y160758D02*
D03*
X264873Y160722D02*
D03*
X220253Y118497D02*
D03*
X207103Y130556D02*
D03*
X741680Y354743D02*
D03*
X750915Y342550D02*
D03*
X765556Y299212D02*
D03*
X745236Y303784D02*
D03*
X763524Y455497D02*
D03*
X746252D02*
D03*
X793242Y499872D02*
D03*
X580003Y651497D02*
D03*
X472622Y172737D02*
D03*
X523614Y178559D02*
D03*
X557707Y330489D02*
D03*
X524318Y338364D02*
D03*
X54544Y521539D02*
D03*
X455432Y144997D02*
D03*
X455422Y173228D02*
D03*
X138483Y472556D02*
D03*
X132399Y353358D02*
D03*
X540003Y651497D02*
D03*
X152825Y581997D02*
D03*
X309295Y339801D02*
D03*
X393929Y529706D02*
D03*
X132383Y404771D02*
D03*
X559890Y299704D02*
D03*
X523864Y266629D02*
D03*
X475133Y275897D02*
D03*
X495300Y144780D02*
D03*
X445787Y228563D02*
D03*
X93472Y318770D02*
D03*
X101478Y189203D02*
D03*
X90723D02*
D03*
X222504Y411977D02*
D03*
X193401Y508378D02*
D03*
X315181Y507552D02*
D03*
X180610Y538303D02*
D03*
X236261Y465756D02*
D03*
X223838Y477803D02*
D03*
X244585Y443164D02*
D03*
X211764Y476057D02*
D03*
X195517Y465219D02*
D03*
X265180Y457552D02*
D03*
X184658Y443037D02*
D03*
X142797Y438833D02*
D03*
X163162Y453085D02*
D03*
X248401Y297182D02*
D03*
X566805Y471146D02*
D03*
X461390Y239800D02*
D03*
X487934Y248158D02*
D03*
X788457Y444150D02*
D03*
X788470Y284308D02*
D03*
X789567Y250062D02*
D03*
X805942Y332486D02*
D03*
X80383Y495992D02*
D03*
X72023Y434499D02*
D03*
X80566Y380353D02*
D03*
X80929Y464055D02*
D03*
X205648Y721272D02*
D03*
X805356Y229032D02*
D03*
X804888Y211885D02*
D03*
X751564Y328898D02*
D03*
X723030D02*
D03*
X737297D02*
D03*
X485003Y35997D02*
D03*
X205648Y672843D02*
D03*
Y697057D02*
D03*
Y684950D02*
D03*
Y709165D02*
D03*
X83823Y736040D02*
D03*
X73282Y728617D02*
D03*
X83823Y750307D02*
D03*
X94363Y742832D02*
D03*
X73282Y742884D02*
D03*
X94363Y771418D02*
D03*
X73282D02*
D03*
Y757151D02*
D03*
X94363Y757098D02*
D03*
X83823Y764574D02*
D03*
X131804Y772689D02*
D03*
X132015Y758528D02*
D03*
X139174Y765951D02*
D03*
X146439Y758475D02*
D03*
X146650Y772795D02*
D03*
X521632Y320284D02*
D03*
X433592Y228637D02*
D03*
X469141Y215135D02*
D03*
X480317Y211579D02*
D03*
X431390Y297564D02*
D03*
X436141Y309788D02*
D03*
X788579Y363475D02*
D03*
X788542Y403425D02*
D03*
X686449Y381759D02*
D03*
X692050Y371802D02*
D03*
X681683Y415269D02*
D03*
X653545Y424939D02*
D03*
X592464Y417963D02*
D03*
X680044Y398375D02*
D03*
X671754Y406699D02*
D03*
X675197Y365665D02*
D03*
X660115Y352762D02*
D03*
X507973Y362756D02*
D03*
Y339721D02*
D03*
X508740Y348926D02*
D03*
X678282Y189784D02*
D03*
X663165Y175333D02*
D03*
X676520Y175032D02*
D03*
X814336Y179846D02*
D03*
X814327Y157731D02*
D03*
X385676Y266263D02*
D03*
X396390Y271411D02*
D03*
X142692Y137804D02*
D03*
Y74078D02*
D03*
Y155584D02*
D03*
Y119711D02*
D03*
Y89289D02*
D03*
Y58867D02*
D03*
Y43656D02*
D03*
Y28445D02*
D03*
X35817Y755901D02*
D03*
Y740810D02*
D03*
Y725720D02*
D03*
Y710630D02*
D03*
Y604997D02*
D03*
Y620087D02*
D03*
Y635178D02*
D03*
Y650268D02*
D03*
Y665358D02*
D03*
Y680449D02*
D03*
Y695539D02*
D03*
X139633Y649709D02*
D03*
X140779Y687774D02*
D03*
Y668196D02*
D03*
X140655Y725413D02*
D03*
X139999Y744997D02*
D03*
X585151Y72228D02*
D03*
X375472Y261121D02*
D03*
X686910Y263916D02*
D03*
X329556Y256489D02*
D03*
X346564Y298151D02*
D03*
X336214Y23355D02*
D03*
X355307D02*
D03*
X374399D02*
D03*
X336214Y40506D02*
D03*
X355307D02*
D03*
X374399D02*
D03*
X345760Y31930D02*
D03*
X364853D02*
D03*
X336214Y57656D02*
D03*
X355307D02*
D03*
X374399D02*
D03*
X345760Y49081D02*
D03*
X364853D02*
D03*
X345760Y66232D02*
D03*
X364853D02*
D03*
X73515Y76003D02*
D03*
X102153Y84579D02*
D03*
X83061D02*
D03*
X102153Y67428D02*
D03*
X83061D02*
D03*
X92607Y76003D02*
D03*
X102153Y50278D02*
D03*
X83061D02*
D03*
X92607Y58853D02*
D03*
X73515D02*
D03*
X102153Y33127D02*
D03*
X83061D02*
D03*
X92607Y41702D02*
D03*
X73515D02*
D03*
X336214Y74807D02*
D03*
X355307D02*
D03*
X374399D02*
D03*
X336214Y91958D02*
D03*
X355307D02*
D03*
X374399D02*
D03*
X345760Y83382D02*
D03*
X364853D02*
D03*
Y99771D02*
D03*
X345760D02*
D03*
X374399Y109870D02*
D03*
X364853Y117683D02*
D03*
X355307Y109870D02*
D03*
X336214D02*
D03*
X345760Y117683D02*
D03*
X68793Y631225D02*
D03*
Y614098D02*
D03*
X77344Y639788D02*
D03*
Y622662D02*
D03*
X85896Y631225D02*
D03*
Y648352D02*
D03*
X144257Y241402D02*
D03*
X160886Y241634D02*
D03*
X253089Y227581D02*
D03*
X274188D02*
D03*
X231991D02*
D03*
X263638D02*
D03*
X242540D02*
D03*
X284737D02*
D03*
X153287Y299592D02*
D03*
Y308950D02*
D03*
X204244Y233976D02*
D03*
X481268Y638265D02*
D03*
X448936Y395743D02*
D03*
X443190Y380313D02*
D03*
X436750Y389348D02*
D03*
X430911Y378552D02*
D03*
X476085Y654952D02*
D03*
X470038Y672046D02*
D03*
X464049Y687544D02*
D03*
X656776Y150648D02*
D03*
X669958Y144790D02*
D03*
X631347Y620677D02*
D03*
X631257Y470777D02*
D03*
X650243Y620773D02*
D03*
X614190Y472217D02*
D03*
X499887Y404901D02*
D03*
X539872Y621030D02*
D03*
X632389Y488622D02*
D03*
X390297Y405122D02*
D03*
X370704Y400078D02*
D03*
X393005Y395841D02*
D03*
X470956Y546862D02*
D03*
X481705D02*
D03*
X492454D02*
D03*
X355092D02*
D03*
X365641D02*
D03*
X376190D02*
D03*
X386740D02*
D03*
X397289D02*
D03*
X407838D02*
D03*
X239060D02*
D03*
X249610D02*
D03*
X260159D02*
D03*
X270708D02*
D03*
X281258D02*
D03*
X175776D02*
D03*
X165226D02*
D03*
X154677D02*
D03*
X144128D02*
D03*
X133579D02*
D03*
X123029D02*
D03*
X350179Y519594D02*
D03*
X234157Y519356D02*
D03*
X67527Y546862D02*
D03*
X46028D02*
D03*
X668023Y291167D02*
D03*
X525254Y433321D02*
D03*
X36892Y104953D02*
D03*
X36624Y141300D02*
D03*
Y122952D02*
D03*
X57940Y158602D02*
D03*
X58131Y172615D02*
D03*
X41829Y172613D02*
D03*
X41638Y158600D02*
D03*
X41160Y203216D02*
D03*
X40968Y189203D02*
D03*
X130012Y213922D02*
D03*
X115999Y214114D02*
D03*
X192281Y205748D02*
D03*
Y216151D02*
D03*
X160675Y221297D02*
D03*
X142881Y216151D02*
D03*
X600786Y651424D02*
D03*
X585115Y510236D02*
D03*
X585113Y526092D02*
D03*
X585605Y582662D02*
D03*
X585105Y597852D02*
D03*
X522714Y596046D02*
D03*
X522658Y554017D02*
D03*
X648936Y554920D02*
D03*
X523614Y218698D02*
D03*
X567206Y144810D02*
D03*
X557190Y116611D02*
D03*
X567519Y178559D02*
D03*
X553215Y202181D02*
D03*
X76179Y340850D02*
D03*
X62233Y359407D02*
D03*
X62124Y444163D02*
D03*
X330503Y650954D02*
D03*
X289728Y652000D02*
D03*
X210062Y653869D02*
D03*
X250193Y652523D02*
D03*
X653901Y469643D02*
D03*
X256511Y313158D02*
D03*
X256635Y289921D02*
D03*
X238704Y256283D02*
D03*
X356471Y265102D02*
D03*
X291909Y256283D02*
D03*
X310391D02*
D03*
X228857Y340865D02*
D03*
X231651Y378457D02*
D03*
X202187Y377601D02*
D03*
X255651Y405166D02*
D03*
X229604Y359447D02*
D03*
X344935Y410609D02*
D03*
X339516Y417347D02*
D03*
X275006Y400030D02*
D03*
X264396Y394814D02*
D03*
X360740Y394873D02*
D03*
X356493Y423074D02*
D03*
X313348Y382203D02*
D03*
X115349Y556491D02*
D03*
X74826Y555354D02*
D03*
X463325Y556610D02*
D03*
X346838Y556331D02*
D03*
X230891Y555715D02*
D03*
X190858Y555354D02*
D03*
X422920D02*
D03*
X306889D02*
D03*
X695342Y481032D02*
D03*
X694585Y508027D02*
D03*
X403387Y537937D02*
D03*
X286769Y537715D02*
D03*
X274447Y537263D02*
D03*
X170724Y537505D02*
D03*
X158585D02*
D03*
X457025Y410415D02*
D03*
X461750Y423360D02*
D03*
X485232Y461413D02*
D03*
X488057Y440941D02*
D03*
X427444Y329880D02*
D03*
X355088Y321815D02*
D03*
X372532D02*
D03*
X389975D02*
D03*
X407419D02*
D03*
X309341Y370140D02*
D03*
X416111Y345703D02*
D03*
X398956Y345775D02*
D03*
X381046Y345703D02*
D03*
X364152Y346539D02*
D03*
X508511Y409001D02*
D03*
X530399Y287874D02*
D03*
X528831Y471647D02*
D03*
X547119Y471611D02*
D03*
X528831Y461515D02*
D03*
X520003Y651497D02*
D03*
X492454Y513284D02*
D03*
X519941Y677161D02*
D03*
X569725Y639569D02*
D03*
X649750Y639061D02*
D03*
X600459Y676399D02*
D03*
X455933Y565909D02*
D03*
X465844Y518596D02*
D03*
X117750D02*
D03*
X339855Y565401D02*
D03*
X224031Y566163D02*
D03*
X146278Y513317D02*
D03*
X262710Y513692D02*
D03*
X378841Y513317D02*
D03*
X681485Y304543D02*
D03*
X680626Y203438D02*
D03*
X523141Y254128D02*
D03*
X256325Y435878D02*
D03*
X274863D02*
D03*
X293400D02*
D03*
X274863Y479015D02*
D03*
X256325D02*
D03*
X293400D02*
D03*
X311915Y479041D02*
D03*
X188627Y262556D02*
D03*
X93003Y262560D02*
D03*
Y287017D02*
D03*
Y275951D02*
D03*
X504447Y320545D02*
D03*
X660891Y252518D02*
D03*
X660700Y266554D02*
D03*
X687299Y318005D02*
D03*
X687045Y339341D02*
D03*
X686537Y360599D02*
D03*
X660891Y240546D02*
D03*
X660890Y227467D02*
D03*
X496573Y315211D02*
D03*
X505209Y310131D02*
D03*
X525180Y84004D02*
D03*
X504955Y84325D02*
D03*
X479236Y441034D02*
D03*
X486074Y429722D02*
D03*
X71631Y685797D02*
D03*
X80295Y368512D02*
D03*
X158386Y413829D02*
D03*
X157833Y395999D02*
D03*
X149643Y351511D02*
D03*
X155881Y357871D02*
D03*
X80251Y453573D02*
D03*
X110959Y403235D02*
D03*
X283721Y462785D02*
D03*
X456467Y495722D02*
D03*
X414767Y538255D02*
D03*
X422338Y533385D02*
D03*
X74244D02*
D03*
X306307D02*
D03*
X93076Y516235D02*
D03*
X115496Y509267D02*
D03*
X102987Y513739D02*
D03*
X209107Y516235D02*
D03*
X231527Y509267D02*
D03*
X219018Y513739D02*
D03*
X446191Y507438D02*
D03*
X451556Y514849D02*
D03*
X440999Y499936D02*
D03*
X335050Y513739D02*
D03*
X347558Y509267D02*
D03*
X325138Y515981D02*
D03*
X441170Y531834D02*
D03*
X450670D02*
D03*
X325138D02*
D03*
X334638D02*
D03*
X209107D02*
D03*
X218607D02*
D03*
X311598Y435878D02*
D03*
X102576Y531834D02*
D03*
X93076D02*
D03*
X363534Y296945D02*
D03*
X416111Y296997D02*
D03*
X310700Y320047D02*
D03*
X265350Y445074D02*
D03*
D131*
X836210Y19065D02*
D03*
X15310Y15012D02*
D03*
X834940Y832882D02*
D03*
X20320Y829945D02*
D03*
M02*
