G04*
G04 #@! TF.GenerationSoftware,Altium Limited,Altium Designer,24.1.2 (44)*
G04*
G04 Layer_Color=128*
%FSLAX44Y44*%
%MOMM*%
G71*
G04*
G04 #@! TF.SameCoordinates,1E5C80FD-96BC-4AB1-9BEB-1594B19F9C97*
G04*
G04*
G04 #@! TF.FilePolarity,Positive*
G04*
G01*
G75*
%ADD25C,1.2700*%
%ADD28R,0.9000X0.8000*%
%ADD30R,0.9000X1.0000*%
%ADD32R,1.0000X0.9000*%
%ADD36R,0.8000X0.9000*%
%ADD38R,0.9500X0.9000*%
%ADD48O,0.6000X1.8000*%
%ADD132R,1.0000X3.2000*%
%ADD133R,1.1000X1.0000*%
%ADD135O,1.8000X0.6000*%
%ADD136R,1.2000X1.0000*%
%ADD137R,1.3000X1.1500*%
%ADD138R,1.2700X1.6510*%
%ADD139R,0.9000X0.6000*%
%ADD140R,2.6500X2.6500*%
%ADD141R,0.8048X0.2746*%
%ADD142R,0.2746X0.8048*%
G36*
X202129Y444767D02*
X213379D01*
Y433517D01*
X202129D01*
Y444767D01*
D02*
G37*
G36*
Y458017D02*
X213379D01*
Y446767D01*
X202129D01*
Y458017D01*
D02*
G37*
G36*
X215379Y444767D02*
X226629D01*
Y433517D01*
X215379D01*
Y444767D01*
D02*
G37*
G36*
Y458017D02*
X226629D01*
Y446767D01*
X215379D01*
Y458017D01*
D02*
G37*
D25*
X12006Y843650D02*
G03*
X6356Y838012I0J-5650D01*
G01*
X6356Y12000D02*
G03*
X11994Y6350I5650J0D01*
G01*
X838006Y6350D02*
G03*
X843656Y11988I0J5650D01*
G01*
X843656Y838000D02*
G03*
X838024Y843650I-5650J0D01*
G01*
X843656Y12000D02*
X843656Y837975D01*
X12024Y843650D02*
X838006Y843650D01*
X12006Y6350D02*
X837981Y6350D01*
X6356Y12025D02*
X6356Y838000D01*
D28*
X660891Y240546D02*
D03*
X660890Y222388D02*
D03*
X660891Y252518D02*
D03*
X660892Y270676D02*
D03*
X195359Y224567D02*
D03*
X195360Y242726D02*
D03*
X213151Y224567D02*
D03*
X213153Y242726D02*
D03*
X328862Y314265D02*
D03*
X328861Y296106D02*
D03*
X255987Y417964D02*
D03*
X255988Y436123D02*
D03*
X274524Y417964D02*
D03*
X274525Y436123D02*
D03*
X293062Y418343D02*
D03*
X293063Y436502D02*
D03*
X311600Y418343D02*
D03*
X311601Y436502D02*
D03*
X311600Y453680D02*
D03*
X311601Y471838D02*
D03*
X255987Y453301D02*
D03*
X255988Y471460D02*
D03*
X274524Y453301D02*
D03*
X274525Y471460D02*
D03*
X293062Y453680D02*
D03*
X293063Y471838D02*
D03*
X511605Y479835D02*
D03*
X511607Y497994D02*
D03*
X585436D02*
D03*
X585435Y479835D02*
D03*
X622155Y497994D02*
D03*
X622154Y479835D02*
D03*
X640512Y479456D02*
D03*
X640513Y497615D02*
D03*
X530865Y479456D02*
D03*
X530866Y497615D02*
D03*
X566685Y497994D02*
D03*
X566684Y479835D02*
D03*
X640514Y629916D02*
D03*
X640513Y611757D02*
D03*
X659773Y611378D02*
D03*
X659774Y629537D02*
D03*
X604694Y611378D02*
D03*
X604695Y629537D02*
D03*
X585944Y611378D02*
D03*
X585945Y629537D02*
D03*
X549226D02*
D03*
X549225Y611378D02*
D03*
X530867Y629916D02*
D03*
X530866Y611757D02*
D03*
D30*
X238765Y698518D02*
D03*
X222765D02*
D03*
X238765Y718336D02*
D03*
X222765D02*
D03*
X517324Y393513D02*
D03*
X533325D02*
D03*
X533339Y409001D02*
D03*
X517339D02*
D03*
X517339Y424490D02*
D03*
X533339D02*
D03*
X285063Y369480D02*
D03*
X301063D02*
D03*
X285063Y385972D02*
D03*
X301063D02*
D03*
D32*
X142881Y241997D02*
D03*
Y225997D02*
D03*
X160674Y241997D02*
D03*
Y225997D02*
D03*
X178467Y241997D02*
D03*
Y225997D02*
D03*
X238704Y265102D02*
D03*
Y281102D02*
D03*
X310447D02*
D03*
Y265102D02*
D03*
X291909Y281102D02*
D03*
Y265102D02*
D03*
X275172D02*
D03*
Y281102D02*
D03*
X256635Y265102D02*
D03*
Y281102D02*
D03*
X329761Y265102D02*
D03*
Y281102D02*
D03*
X346390D02*
D03*
Y265102D02*
D03*
X363834Y329817D02*
D03*
Y345817D02*
D03*
X381278Y329817D02*
D03*
Y345817D02*
D03*
X398721Y329817D02*
D03*
Y345817D02*
D03*
X416165Y329817D02*
D03*
Y345817D02*
D03*
X416165Y297282D02*
D03*
Y313282D02*
D03*
X398721Y297282D02*
D03*
Y313282D02*
D03*
X381278Y297282D02*
D03*
Y313282D02*
D03*
X363834Y297282D02*
D03*
Y313282D02*
D03*
X292162Y297282D02*
D03*
Y313282D02*
D03*
X310700Y297282D02*
D03*
Y313282D02*
D03*
X346390Y297282D02*
D03*
Y313282D02*
D03*
X238957Y297282D02*
D03*
Y313282D02*
D03*
X659773Y529455D02*
D03*
Y513455D02*
D03*
Y546436D02*
D03*
Y562436D02*
D03*
Y579416D02*
D03*
Y595416D02*
D03*
X604694Y496475D02*
D03*
Y480475D02*
D03*
X659773Y496475D02*
D03*
Y480475D02*
D03*
X549225Y496475D02*
D03*
Y480475D02*
D03*
X511607Y513517D02*
D03*
Y529517D02*
D03*
Y546559D02*
D03*
Y562559D02*
D03*
Y595601D02*
D03*
Y579601D02*
D03*
X622155Y612397D02*
D03*
Y628397D02*
D03*
X566685D02*
D03*
Y612397D02*
D03*
X511607Y628397D02*
D03*
Y612397D02*
D03*
D36*
X796443Y263391D02*
D03*
X814602Y263390D02*
D03*
X796443Y303023D02*
D03*
X814602Y303022D02*
D03*
Y343358D02*
D03*
X796443Y343359D02*
D03*
X814602Y383342D02*
D03*
X796443Y383343D02*
D03*
X814602Y423326D02*
D03*
X796443Y423327D02*
D03*
Y463311D02*
D03*
X814602Y463310D02*
D03*
X80391Y469134D02*
D03*
X62232Y469135D02*
D03*
X80251Y449676D02*
D03*
X62092Y449677D02*
D03*
X80161Y386222D02*
D03*
X62002Y386223D02*
D03*
X80161Y366764D02*
D03*
X62002Y366765D02*
D03*
X153894Y438165D02*
D03*
X172053Y438164D02*
D03*
X195263Y411977D02*
D03*
X213422Y411976D02*
D03*
D38*
X73003Y259997D02*
D03*
Y278997D02*
D03*
X48003Y269497D02*
D03*
D48*
X572075Y526219D02*
D03*
X559375D02*
D03*
X546675D02*
D03*
X533975D02*
D03*
X572075Y582719D02*
D03*
X559375D02*
D03*
X546675D02*
D03*
X533975D02*
D03*
X600015Y582719D02*
D03*
X612715D02*
D03*
X625415D02*
D03*
X638115D02*
D03*
X600015Y526219D02*
D03*
X612715D02*
D03*
X625415D02*
D03*
X638115D02*
D03*
D132*
X585003Y35997D02*
D03*
Y83997D02*
D03*
X565003Y35997D02*
D03*
Y83997D02*
D03*
X545003Y35997D02*
D03*
Y83997D02*
D03*
X525003Y35997D02*
D03*
Y83997D02*
D03*
X505003Y35997D02*
D03*
Y83997D02*
D03*
X485003Y35997D02*
D03*
Y83997D02*
D03*
X465003Y35997D02*
D03*
Y83997D02*
D03*
X445003Y35997D02*
D03*
Y83997D02*
D03*
X425003Y35997D02*
D03*
Y83997D02*
D03*
X405003Y35997D02*
D03*
Y83997D02*
D03*
X385003Y35997D02*
D03*
Y83997D02*
D03*
X365003Y35997D02*
D03*
Y83997D02*
D03*
X345003Y35997D02*
D03*
Y83997D02*
D03*
X325003Y35997D02*
D03*
Y83997D02*
D03*
X305003Y35997D02*
D03*
Y83997D02*
D03*
X285003Y35997D02*
D03*
Y83997D02*
D03*
X265003Y35997D02*
D03*
Y83997D02*
D03*
D133*
X796906Y243634D02*
D03*
X813906D02*
D03*
X797179Y284481D02*
D03*
X814179D02*
D03*
X797142Y323457D02*
D03*
X814142D02*
D03*
X814179Y363475D02*
D03*
X797179D02*
D03*
X797142Y403425D02*
D03*
X814142D02*
D03*
X797142Y443409D02*
D03*
X814142D02*
D03*
D135*
X146881Y272555D02*
D03*
Y285255D02*
D03*
Y297955D02*
D03*
Y310655D02*
D03*
X203381Y272555D02*
D03*
Y285255D02*
D03*
Y297955D02*
D03*
Y310655D02*
D03*
D136*
X93003Y253977D02*
D03*
Y287017D02*
D03*
D137*
X118003Y254997D02*
D03*
Y285997D02*
D03*
D138*
X88493Y232996D02*
D03*
X121513D02*
D03*
D139*
X275425Y297034D02*
D03*
Y313034D02*
D03*
D140*
X214379Y445767D02*
D03*
D141*
X195355Y458267D02*
D03*
Y453267D02*
D03*
Y448267D02*
D03*
Y443267D02*
D03*
Y438267D02*
D03*
Y433267D02*
D03*
X233403D02*
D03*
Y438267D02*
D03*
Y443267D02*
D03*
Y448267D02*
D03*
Y453267D02*
D03*
Y458267D02*
D03*
D142*
X201879Y426743D02*
D03*
X206879D02*
D03*
X211879D02*
D03*
X216879D02*
D03*
X221879D02*
D03*
X226879D02*
D03*
Y464791D02*
D03*
X221879D02*
D03*
X216879D02*
D03*
X211879D02*
D03*
X206879D02*
D03*
X201879D02*
D03*
M02*
