G04*
G04 #@! TF.GenerationSoftware,Altium Limited,Altium Designer,24.1.2 (44)*
G04*
G04 Layer_Color=8388736*
%FSLAX44Y44*%
%MOMM*%
G71*
G04*
G04 #@! TF.SameCoordinates,3CF5218A-9FD7-4805-B715-A3E35C90ED60*
G04*
G04*
G04 #@! TF.FilePolarity,Negative*
G04*
G01*
G75*
%ADD23C,0.5000*%
%ADD26C,1.2300*%
%ADD70R,0.9032X1.7032*%
%ADD71R,1.0032X1.7032*%
%ADD72R,1.7032X0.9032*%
%ADD73R,1.7032X1.0032*%
%ADD74R,0.3500X0.7500*%
%ADD75R,0.7500X0.4000*%
%ADD76R,0.7000X1.1000*%
%ADD77R,0.7500X0.3500*%
%ADD78R,0.7500X0.3286*%
%ADD79R,0.8032X1.2032*%
%ADD80R,0.5032X2.6032*%
%ADD81R,0.8532X0.5032*%
%ADD82R,0.4532X0.8532*%
%ADD83R,0.8532X0.4532*%
%ADD84R,0.8532X0.5032*%
%ADD85R,0.8532X0.4318*%
%ADD86R,1.6032X2.0032*%
%ADD87R,2.0032X1.6032*%
%ADD88R,2.1082X1.4986*%
%ADD89R,1.7032X1.2032*%
%ADD90R,0.9032X1.0032*%
G04:AMPARAMS|DCode=91|XSize=1.0032mm|YSize=0.9032mm|CornerRadius=0mm|HoleSize=0mm|Usage=FLASHONLY|Rotation=45.000|XOffset=0mm|YOffset=0mm|HoleType=Round|Shape=Rectangle|*
%AMROTATEDRECTD91*
4,1,4,-0.0354,-0.6740,-0.6740,-0.0354,0.0354,0.6740,0.6740,0.0354,-0.0354,-0.6740,0.0*
%
%ADD91ROTATEDRECTD91*%

G04:AMPARAMS|DCode=92|XSize=1.0032mm|YSize=0.9032mm|CornerRadius=0mm|HoleSize=0mm|Usage=FLASHONLY|Rotation=315.000|XOffset=0mm|YOffset=0mm|HoleType=Round|Shape=Rectangle|*
%AMROTATEDRECTD92*
4,1,4,-0.6740,0.0354,-0.0354,0.6740,0.6740,-0.0354,0.0354,-0.6740,-0.6740,0.0354,0.0*
%
%ADD92ROTATEDRECTD92*%

%ADD93R,1.0032X0.9032*%
%ADD94R,1.7526X0.8636*%
%ADD95R,0.9500X2.7000*%
%ADD96R,3.1524X2.2524*%
%ADD97R,1.7524X0.9524*%
G04:AMPARAMS|DCode=98|XSize=2.3632mm|YSize=0.9232mm|CornerRadius=0.2816mm|HoleSize=0mm|Usage=FLASHONLY|Rotation=0.000|XOffset=0mm|YOffset=0mm|HoleType=Round|Shape=RoundedRectangle|*
%AMROUNDEDRECTD98*
21,1,2.3632,0.3600,0,0,0.0*
21,1,1.8000,0.9232,0,0,0.0*
1,1,0.5632,0.9000,-0.1800*
1,1,0.5632,-0.9000,-0.1800*
1,1,0.5632,-0.9000,0.1800*
1,1,0.5632,0.9000,0.1800*
%
%ADD98ROUNDEDRECTD98*%
%ADD99R,1.4032X1.0032*%
%ADD100R,2.2032X4.4032*%
%ADD101R,1.1016X1.7016*%
%ADD102R,0.5516X0.4016*%
%ADD103R,2.0032X2.0032*%
%ADD104R,1.1532X1.1032*%
%ADD105R,1.2032X1.7032*%
%ADD106O,0.4500X1.5000*%
%ADD107O,0.8032X2.0032*%
%ADD108R,3.3020X2.4130*%
%ADD109R,1.9050X1.0160*%
G04:AMPARAMS|DCode=110|XSize=1.6032mm|YSize=1.4032mm|CornerRadius=0mm|HoleSize=0mm|Usage=FLASHONLY|Rotation=45.000|XOffset=0mm|YOffset=0mm|HoleType=Round|Shape=Rectangle|*
%AMROTATEDRECTD110*
4,1,4,-0.0707,-1.0629,-1.0629,-0.0707,0.0707,1.0629,1.0629,0.0707,-0.0707,-1.0629,0.0*
%
%ADD110ROTATEDRECTD110*%

G04:AMPARAMS|DCode=111|XSize=0.9032mm|YSize=2.6032mm|CornerRadius=0.1506mm|HoleSize=0mm|Usage=FLASHONLY|Rotation=180.000|XOffset=0mm|YOffset=0mm|HoleType=Round|Shape=RoundedRectangle|*
%AMROUNDEDRECTD111*
21,1,0.9032,2.3020,0,0,180.0*
21,1,0.6020,2.6032,0,0,180.0*
1,1,0.3012,-0.3010,1.1510*
1,1,0.3012,0.3010,1.1510*
1,1,0.3012,0.3010,-1.1510*
1,1,0.3012,-0.3010,-1.1510*
%
%ADD111ROUNDEDRECTD111*%
G04:AMPARAMS|DCode=112|XSize=3.4032mm|YSize=2.6032mm|CornerRadius=0.1496mm|HoleSize=0mm|Usage=FLASHONLY|Rotation=180.000|XOffset=0mm|YOffset=0mm|HoleType=Round|Shape=RoundedRectangle|*
%AMROUNDEDRECTD112*
21,1,3.4032,2.3040,0,0,180.0*
21,1,3.1040,2.6032,0,0,180.0*
1,1,0.2992,-1.5520,1.1520*
1,1,0.2992,1.5520,1.1520*
1,1,0.2992,1.5520,-1.1520*
1,1,0.2992,-1.5520,-1.1520*
%
%ADD112ROUNDEDRECTD112*%
%ADD113R,3.7032X3.1532*%
G04:AMPARAMS|DCode=114|XSize=2.1632mm|YSize=0.7732mm|CornerRadius=0.2413mm|HoleSize=0mm|Usage=FLASHONLY|Rotation=0.000|XOffset=0mm|YOffset=0mm|HoleType=Round|Shape=RoundedRectangle|*
%AMROUNDEDRECTD114*
21,1,2.1632,0.2907,0,0,0.0*
21,1,1.6807,0.7732,0,0,0.0*
1,1,0.4825,0.8404,-0.1454*
1,1,0.4825,-0.8404,-0.1454*
1,1,0.4825,-0.8404,0.1454*
1,1,0.4825,0.8404,0.1454*
%
%ADD114ROUNDEDRECTD114*%
%ADD115R,2.1571X0.7853*%
%ADD116R,1.1032X1.1532*%
%ADD117R,1.5732X1.5732*%
%ADD118C,1.5732*%
%ADD119C,6.1000*%
%ADD120C,1.1000*%
%ADD121C,1.2032*%
%ADD122C,1.0000*%
%ADD123R,1.8032X1.8032*%
%ADD124C,1.8032*%
%ADD125C,1.6612*%
%ADD126C,6.2032*%
%ADD127C,0.6032*%
G36*
X12192Y831252D02*
Y837805D01*
X12208Y837822D01*
X18762D01*
X12192Y831252D01*
D02*
G37*
G36*
X837828Y837792D02*
Y828412D01*
X828432Y837808D01*
X837812D01*
X837828Y837792D01*
D02*
G37*
G36*
X453444Y550608D02*
X462199Y550607D01*
Y526070D01*
X462190Y526061D01*
X453444D01*
X453448Y526057D01*
X453446Y519971D01*
X433919Y519972D01*
Y526070D01*
X425148Y526070D01*
X425173Y550609D01*
X433919Y550609D01*
Y556704D01*
X453444D01*
Y550608D01*
D02*
G37*
G36*
X337413D02*
X346168Y550607D01*
Y526070D01*
X346159Y526061D01*
X337413D01*
X337417Y526057D01*
X337415Y519971D01*
X317888Y519972D01*
Y526070D01*
X309117Y526070D01*
X309142Y550609D01*
X317888Y550609D01*
Y556704D01*
X337413D01*
Y550608D01*
D02*
G37*
G36*
X221381D02*
X230137Y550607D01*
Y526070D01*
X230128Y526061D01*
X221381D01*
X221385Y526057D01*
X221384Y519971D01*
X201857Y519972D01*
Y526070D01*
X193085Y526070D01*
X193111Y550609D01*
X201857Y550609D01*
Y556704D01*
X221381D01*
Y550608D01*
D02*
G37*
G36*
X105350D02*
X114105Y550607D01*
Y526070D01*
X114096Y526061D01*
X105350D01*
X105354Y526057D01*
X105352Y519971D01*
X85826Y519972D01*
Y526070D01*
X77054Y526070D01*
X77079Y550609D01*
X85826Y550609D01*
Y556704D01*
X105350D01*
Y550608D01*
D02*
G37*
G36*
X468990Y430289D02*
X343790D01*
Y444789D01*
X468990D01*
Y430289D01*
D02*
G37*
G36*
X491140Y417439D02*
Y412439D01*
Y407439D01*
X491140D01*
Y402639D01*
X491140D01*
Y397439D01*
Y392439D01*
Y387439D01*
Y382439D01*
Y377439D01*
X491140D01*
Y372439D01*
Y367639D01*
X491140D01*
Y362439D01*
Y357439D01*
Y352439D01*
Y347439D01*
Y342439D01*
X491140D01*
Y337639D01*
X491140D01*
Y332439D01*
Y327439D01*
Y322439D01*
Y317439D01*
Y312439D01*
Y307439D01*
Y302439D01*
Y297439D01*
X476640D01*
Y302439D01*
Y307439D01*
Y312439D01*
Y317439D01*
Y322439D01*
Y327439D01*
Y332439D01*
Y337439D01*
X476640D01*
Y342639D01*
X476640D01*
Y347439D01*
Y352439D01*
Y357439D01*
Y362439D01*
Y367439D01*
X476640D01*
Y372439D01*
Y377639D01*
X476640D01*
Y382439D01*
Y387439D01*
Y392439D01*
Y397439D01*
Y402439D01*
X476640D01*
Y407639D01*
X476640D01*
Y412439D01*
Y417439D01*
Y422639D01*
X491140D01*
Y417439D01*
D02*
G37*
G36*
X336140D02*
Y412439D01*
Y407439D01*
Y402439D01*
Y397439D01*
Y392439D01*
Y387439D01*
Y382439D01*
Y377439D01*
Y372439D01*
Y367439D01*
Y362439D01*
Y357439D01*
Y352439D01*
Y347439D01*
Y342439D01*
Y337439D01*
Y332439D01*
Y327439D01*
Y322439D01*
Y317439D01*
Y312439D01*
Y307439D01*
Y302439D01*
Y297439D01*
X321640D01*
Y302439D01*
Y307439D01*
Y312439D01*
Y317439D01*
Y322439D01*
Y327439D01*
Y332439D01*
Y337439D01*
Y342439D01*
Y347439D01*
Y352439D01*
Y357439D01*
Y362439D01*
Y367439D01*
Y372439D01*
Y377439D01*
Y382439D01*
Y387439D01*
Y392439D01*
Y397439D01*
Y402439D01*
Y407439D01*
Y412439D01*
Y417439D01*
Y422639D01*
X336140D01*
Y417439D01*
D02*
G37*
G36*
X428990Y289789D02*
X468990D01*
Y275289D01*
X428790D01*
Y275289D01*
X423990D01*
Y275289D01*
X398790D01*
Y275289D01*
X388990D01*
Y275289D01*
X363790D01*
Y275289D01*
X358990D01*
Y275289D01*
X343790D01*
Y289789D01*
X358790D01*
Y289789D01*
X363990D01*
Y289789D01*
X388790D01*
Y289789D01*
X398990D01*
Y289789D01*
X423790D01*
Y289789D01*
X428990D01*
Y289789D01*
D02*
G37*
G36*
X248783Y193737D02*
X248803D01*
X248833Y193727D01*
X248853D01*
X248883Y193717D01*
X248903Y193707D01*
X248933Y193697D01*
X248953Y193677D01*
X248973Y193667D01*
X248993Y193647D01*
X249013Y193637D01*
X249033Y193617D01*
X249053Y193597D01*
X249073Y193577D01*
X249093Y193557D01*
X249103Y193537D01*
X249123Y193517D01*
X249133Y193497D01*
X249153Y193477D01*
X249163Y193447D01*
X249173Y193427D01*
X249183Y193397D01*
Y193377D01*
X249193Y193347D01*
Y193327D01*
X249203Y193297D01*
Y193277D01*
Y193247D01*
Y186847D01*
Y186817D01*
Y186797D01*
X249193Y186767D01*
Y186747D01*
X249183Y186717D01*
Y186697D01*
X249173Y186667D01*
X249163Y186647D01*
X249153Y186617D01*
X249133Y186597D01*
X249123Y186577D01*
X249103Y186557D01*
X249093Y186537D01*
X249073Y186517D01*
X249053Y186497D01*
X249033Y186477D01*
X249013Y186457D01*
X248993Y186447D01*
X248973Y186427D01*
X248953Y186417D01*
X248933Y186397D01*
X248903Y186387D01*
X248883Y186377D01*
X248853Y186367D01*
X248833D01*
X248803Y186357D01*
X248783D01*
X248753Y186347D01*
X232753D01*
X232723Y186357D01*
X232703D01*
X232673Y186367D01*
X232653D01*
X232623Y186377D01*
X232603Y186387D01*
X232573Y186397D01*
X232553Y186417D01*
X232533Y186427D01*
X232513Y186447D01*
X232493Y186457D01*
X232473Y186477D01*
X232453Y186497D01*
X232433Y186517D01*
X232413Y186537D01*
X232403Y186557D01*
X232383Y186577D01*
X232373Y186597D01*
X232353Y186617D01*
X232343Y186647D01*
X232333Y186667D01*
X232323Y186697D01*
Y186717D01*
X232313Y186747D01*
Y186767D01*
X232303Y186797D01*
Y186817D01*
Y186847D01*
Y193247D01*
Y193277D01*
Y193297D01*
X232313Y193327D01*
Y193347D01*
X232323Y193377D01*
Y193397D01*
X232333Y193427D01*
X232343Y193447D01*
X232353Y193477D01*
X232373Y193497D01*
X232383Y193517D01*
X232403Y193537D01*
X232413Y193557D01*
X232433Y193577D01*
X232453Y193597D01*
X232473Y193617D01*
X232493Y193637D01*
X232513Y193647D01*
X232533Y193667D01*
X232553Y193677D01*
X232573Y193697D01*
X232603Y193707D01*
X232623Y193717D01*
X232653Y193727D01*
X232673D01*
X232703Y193737D01*
X232723D01*
X232753Y193747D01*
X248753D01*
X248783Y193737D01*
D02*
G37*
G36*
X194783D02*
X194803D01*
X194833Y193727D01*
X194853D01*
X194883Y193717D01*
X194903Y193707D01*
X194933Y193697D01*
X194953Y193677D01*
X194973Y193667D01*
X194993Y193647D01*
X195013Y193637D01*
X195033Y193617D01*
X195053Y193597D01*
X195073Y193577D01*
X195093Y193557D01*
X195103Y193537D01*
X195123Y193517D01*
X195133Y193497D01*
X195153Y193477D01*
X195163Y193447D01*
X195173Y193427D01*
X195183Y193397D01*
Y193377D01*
X195193Y193347D01*
Y193327D01*
X195203Y193297D01*
Y193277D01*
Y193247D01*
Y186847D01*
Y186817D01*
Y186797D01*
X195193Y186767D01*
Y186747D01*
X195183Y186717D01*
Y186697D01*
X195173Y186667D01*
X195163Y186647D01*
X195153Y186617D01*
X195133Y186597D01*
X195123Y186577D01*
X195103Y186557D01*
X195093Y186537D01*
X195073Y186517D01*
X195053Y186497D01*
X195033Y186477D01*
X195013Y186457D01*
X194993Y186447D01*
X194973Y186427D01*
X194953Y186417D01*
X194933Y186397D01*
X194903Y186387D01*
X194883Y186377D01*
X194853Y186367D01*
X194833D01*
X194803Y186357D01*
X194783D01*
X194753Y186347D01*
X178753D01*
X178723Y186357D01*
X178703D01*
X178673Y186367D01*
X178653D01*
X178623Y186377D01*
X178603Y186387D01*
X178573Y186397D01*
X178553Y186417D01*
X178533Y186427D01*
X178513Y186447D01*
X178493Y186457D01*
X178473Y186477D01*
X178453Y186497D01*
X178433Y186517D01*
X178413Y186537D01*
X178403Y186557D01*
X178383Y186577D01*
X178373Y186597D01*
X178353Y186617D01*
X178343Y186647D01*
X178333Y186667D01*
X178323Y186697D01*
Y186717D01*
X178313Y186747D01*
Y186767D01*
X178303Y186797D01*
Y186817D01*
Y186847D01*
Y193247D01*
Y193277D01*
Y193297D01*
X178313Y193327D01*
Y193347D01*
X178323Y193377D01*
Y193397D01*
X178333Y193427D01*
X178343Y193447D01*
X178353Y193477D01*
X178373Y193497D01*
X178383Y193517D01*
X178403Y193537D01*
X178413Y193557D01*
X178433Y193577D01*
X178453Y193597D01*
X178473Y193617D01*
X178493Y193637D01*
X178513Y193647D01*
X178533Y193667D01*
X178553Y193677D01*
X178573Y193697D01*
X178603Y193707D01*
X178623Y193717D01*
X178653Y193727D01*
X178673D01*
X178703Y193737D01*
X178723D01*
X178753Y193747D01*
X194753D01*
X194783Y193737D01*
D02*
G37*
G36*
X248783Y181037D02*
X248803D01*
X248833Y181027D01*
X248853D01*
X248883Y181017D01*
X248903Y181007D01*
X248933Y180997D01*
X248953Y180977D01*
X248973Y180967D01*
X248993Y180947D01*
X249013Y180937D01*
X249033Y180917D01*
X249053Y180897D01*
X249073Y180877D01*
X249093Y180857D01*
X249103Y180837D01*
X249123Y180817D01*
X249133Y180797D01*
X249153Y180777D01*
X249163Y180747D01*
X249173Y180727D01*
X249183Y180697D01*
Y180677D01*
X249193Y180647D01*
Y180627D01*
X249203Y180597D01*
Y180577D01*
Y180547D01*
Y174147D01*
Y174117D01*
Y174097D01*
X249193Y174067D01*
Y174047D01*
X249183Y174017D01*
Y173997D01*
X249173Y173967D01*
X249163Y173947D01*
X249153Y173917D01*
X249133Y173897D01*
X249123Y173877D01*
X249103Y173857D01*
X249093Y173837D01*
X249073Y173817D01*
X249053Y173797D01*
X249033Y173777D01*
X249013Y173757D01*
X248993Y173747D01*
X248973Y173727D01*
X248953Y173717D01*
X248933Y173697D01*
X248903Y173687D01*
X248883Y173677D01*
X248853Y173667D01*
X248833D01*
X248803Y173657D01*
X248783D01*
X248753Y173647D01*
X232753D01*
X232723Y173657D01*
X232703D01*
X232673Y173667D01*
X232653D01*
X232623Y173677D01*
X232603Y173687D01*
X232573Y173697D01*
X232553Y173717D01*
X232533Y173727D01*
X232513Y173747D01*
X232493Y173757D01*
X232473Y173777D01*
X232453Y173797D01*
X232433Y173817D01*
X232413Y173837D01*
X232403Y173857D01*
X232383Y173877D01*
X232373Y173897D01*
X232353Y173917D01*
X232343Y173947D01*
X232333Y173967D01*
X232323Y173997D01*
Y174017D01*
X232313Y174047D01*
Y174067D01*
X232303Y174097D01*
Y174117D01*
Y174147D01*
Y180547D01*
Y180577D01*
Y180597D01*
X232313Y180627D01*
Y180647D01*
X232323Y180677D01*
Y180697D01*
X232333Y180727D01*
X232343Y180747D01*
X232353Y180777D01*
X232373Y180797D01*
X232383Y180817D01*
X232403Y180837D01*
X232413Y180857D01*
X232433Y180877D01*
X232453Y180897D01*
X232473Y180917D01*
X232493Y180937D01*
X232513Y180947D01*
X232533Y180967D01*
X232553Y180977D01*
X232573Y180997D01*
X232603Y181007D01*
X232623Y181017D01*
X232653Y181027D01*
X232673D01*
X232703Y181037D01*
X232723D01*
X232753Y181047D01*
X248753D01*
X248783Y181037D01*
D02*
G37*
G36*
X194783D02*
X194803D01*
X194833Y181027D01*
X194853D01*
X194883Y181017D01*
X194903Y181007D01*
X194933Y180997D01*
X194953Y180977D01*
X194973Y180967D01*
X194993Y180947D01*
X195013Y180937D01*
X195033Y180917D01*
X195053Y180897D01*
X195073Y180877D01*
X195093Y180857D01*
X195103Y180837D01*
X195123Y180817D01*
X195133Y180797D01*
X195153Y180777D01*
X195163Y180747D01*
X195173Y180727D01*
X195183Y180697D01*
Y180677D01*
X195193Y180647D01*
Y180627D01*
X195203Y180597D01*
Y180577D01*
Y180547D01*
Y174147D01*
Y174117D01*
Y174097D01*
X195193Y174067D01*
Y174047D01*
X195183Y174017D01*
Y173997D01*
X195173Y173967D01*
X195163Y173947D01*
X195153Y173917D01*
X195133Y173897D01*
X195123Y173877D01*
X195103Y173857D01*
X195093Y173837D01*
X195073Y173817D01*
X195053Y173797D01*
X195033Y173777D01*
X195013Y173757D01*
X194993Y173747D01*
X194973Y173727D01*
X194953Y173717D01*
X194933Y173697D01*
X194903Y173687D01*
X194883Y173677D01*
X194853Y173667D01*
X194833D01*
X194803Y173657D01*
X194783D01*
X194753Y173647D01*
X178753D01*
X178723Y173657D01*
X178703D01*
X178673Y173667D01*
X178653D01*
X178623Y173677D01*
X178603Y173687D01*
X178573Y173697D01*
X178553Y173717D01*
X178533Y173727D01*
X178513Y173747D01*
X178493Y173757D01*
X178473Y173777D01*
X178453Y173797D01*
X178433Y173817D01*
X178413Y173837D01*
X178403Y173857D01*
X178383Y173877D01*
X178373Y173897D01*
X178353Y173917D01*
X178343Y173947D01*
X178333Y173967D01*
X178323Y173997D01*
Y174017D01*
X178313Y174047D01*
Y174067D01*
X178303Y174097D01*
Y174117D01*
Y174147D01*
Y180547D01*
Y180577D01*
Y180597D01*
X178313Y180627D01*
Y180647D01*
X178323Y180677D01*
Y180697D01*
X178333Y180727D01*
X178343Y180747D01*
X178353Y180777D01*
X178373Y180797D01*
X178383Y180817D01*
X178403Y180837D01*
X178413Y180857D01*
X178433Y180877D01*
X178453Y180897D01*
X178473Y180917D01*
X178493Y180937D01*
X178513Y180947D01*
X178533Y180967D01*
X178553Y180977D01*
X178573Y180997D01*
X178603Y181007D01*
X178623Y181017D01*
X178653Y181027D01*
X178673D01*
X178703Y181037D01*
X178723D01*
X178753Y181047D01*
X194753D01*
X194783Y181037D01*
D02*
G37*
G36*
X248783Y168337D02*
X248803D01*
X248833Y168327D01*
X248853D01*
X248883Y168317D01*
X248903Y168307D01*
X248933Y168297D01*
X248953Y168277D01*
X248973Y168267D01*
X248993Y168247D01*
X249013Y168237D01*
X249033Y168217D01*
X249053Y168197D01*
X249073Y168177D01*
X249093Y168157D01*
X249103Y168137D01*
X249123Y168117D01*
X249133Y168097D01*
X249153Y168077D01*
X249163Y168047D01*
X249173Y168027D01*
X249183Y167997D01*
Y167977D01*
X249193Y167947D01*
Y167927D01*
X249203Y167897D01*
Y167877D01*
Y167847D01*
Y161447D01*
Y161417D01*
Y161397D01*
X249193Y161367D01*
Y161347D01*
X249183Y161317D01*
Y161297D01*
X249173Y161267D01*
X249163Y161247D01*
X249153Y161217D01*
X249133Y161197D01*
X249123Y161177D01*
X249103Y161157D01*
X249093Y161137D01*
X249073Y161117D01*
X249053Y161097D01*
X249033Y161077D01*
X249013Y161057D01*
X248993Y161047D01*
X248973Y161027D01*
X248953Y161017D01*
X248933Y160997D01*
X248903Y160987D01*
X248883Y160977D01*
X248853Y160967D01*
X248833D01*
X248803Y160957D01*
X248783D01*
X248753Y160947D01*
X232753D01*
X232723Y160957D01*
X232703D01*
X232673Y160967D01*
X232653D01*
X232623Y160977D01*
X232603Y160987D01*
X232573Y160997D01*
X232553Y161017D01*
X232533Y161027D01*
X232513Y161047D01*
X232493Y161057D01*
X232473Y161077D01*
X232453Y161097D01*
X232433Y161117D01*
X232413Y161137D01*
X232403Y161157D01*
X232383Y161177D01*
X232373Y161197D01*
X232353Y161217D01*
X232343Y161247D01*
X232333Y161267D01*
X232323Y161297D01*
Y161317D01*
X232313Y161347D01*
Y161367D01*
X232303Y161397D01*
Y161417D01*
Y161447D01*
Y167847D01*
Y167877D01*
Y167897D01*
X232313Y167927D01*
Y167947D01*
X232323Y167977D01*
Y167997D01*
X232333Y168027D01*
X232343Y168047D01*
X232353Y168077D01*
X232373Y168097D01*
X232383Y168117D01*
X232403Y168137D01*
X232413Y168157D01*
X232433Y168177D01*
X232453Y168197D01*
X232473Y168217D01*
X232493Y168237D01*
X232513Y168247D01*
X232533Y168267D01*
X232553Y168277D01*
X232573Y168297D01*
X232603Y168307D01*
X232623Y168317D01*
X232653Y168327D01*
X232673D01*
X232703Y168337D01*
X232723D01*
X232753Y168347D01*
X248753D01*
X248783Y168337D01*
D02*
G37*
G36*
X194783D02*
X194803D01*
X194833Y168327D01*
X194853D01*
X194883Y168317D01*
X194903Y168307D01*
X194933Y168297D01*
X194953Y168277D01*
X194973Y168267D01*
X194993Y168247D01*
X195013Y168237D01*
X195033Y168217D01*
X195053Y168197D01*
X195073Y168177D01*
X195093Y168157D01*
X195103Y168137D01*
X195123Y168117D01*
X195133Y168097D01*
X195153Y168077D01*
X195163Y168047D01*
X195173Y168027D01*
X195183Y167997D01*
Y167977D01*
X195193Y167947D01*
Y167927D01*
X195203Y167897D01*
Y167877D01*
Y167847D01*
Y161447D01*
Y161417D01*
Y161397D01*
X195193Y161367D01*
Y161347D01*
X195183Y161317D01*
Y161297D01*
X195173Y161267D01*
X195163Y161247D01*
X195153Y161217D01*
X195133Y161197D01*
X195123Y161177D01*
X195103Y161157D01*
X195093Y161137D01*
X195073Y161117D01*
X195053Y161097D01*
X195033Y161077D01*
X195013Y161057D01*
X194993Y161047D01*
X194973Y161027D01*
X194953Y161017D01*
X194933Y160997D01*
X194903Y160987D01*
X194883Y160977D01*
X194853Y160967D01*
X194833D01*
X194803Y160957D01*
X194783D01*
X194753Y160947D01*
X178753D01*
X178723Y160957D01*
X178703D01*
X178673Y160967D01*
X178653D01*
X178623Y160977D01*
X178603Y160987D01*
X178573Y160997D01*
X178553Y161017D01*
X178533Y161027D01*
X178513Y161047D01*
X178493Y161057D01*
X178473Y161077D01*
X178453Y161097D01*
X178433Y161117D01*
X178413Y161137D01*
X178403Y161157D01*
X178383Y161177D01*
X178373Y161197D01*
X178353Y161217D01*
X178343Y161247D01*
X178333Y161267D01*
X178323Y161297D01*
Y161317D01*
X178313Y161347D01*
Y161367D01*
X178303Y161397D01*
Y161417D01*
Y161447D01*
Y167847D01*
Y167877D01*
Y167897D01*
X178313Y167927D01*
Y167947D01*
X178323Y167977D01*
Y167997D01*
X178333Y168027D01*
X178343Y168047D01*
X178353Y168077D01*
X178373Y168097D01*
X178383Y168117D01*
X178403Y168137D01*
X178413Y168157D01*
X178433Y168177D01*
X178453Y168197D01*
X178473Y168217D01*
X178493Y168237D01*
X178513Y168247D01*
X178533Y168267D01*
X178553Y168277D01*
X178573Y168297D01*
X178603Y168307D01*
X178623Y168317D01*
X178653Y168327D01*
X178673D01*
X178703Y168337D01*
X178723D01*
X178753Y168347D01*
X194753D01*
X194783Y168337D01*
D02*
G37*
G36*
X226753Y155497D02*
X200753D01*
Y186497D01*
X226753D01*
Y155497D01*
D02*
G37*
G36*
X248783Y155637D02*
X248803D01*
X248833Y155627D01*
X248853D01*
X248883Y155617D01*
X248903Y155607D01*
X248933Y155597D01*
X248953Y155577D01*
X248973Y155567D01*
X248993Y155547D01*
X249013Y155537D01*
X249033Y155517D01*
X249053Y155497D01*
X249073Y155477D01*
X249093Y155457D01*
X249103Y155437D01*
X249123Y155417D01*
X249133Y155397D01*
X249153Y155377D01*
X249163Y155347D01*
X249173Y155327D01*
X249183Y155297D01*
Y155277D01*
X249193Y155247D01*
Y155227D01*
X249203Y155197D01*
Y155177D01*
Y155147D01*
Y148747D01*
Y148717D01*
Y148697D01*
X249193Y148667D01*
Y148647D01*
X249183Y148617D01*
Y148597D01*
X249173Y148567D01*
X249163Y148547D01*
X249153Y148517D01*
X249133Y148497D01*
X249123Y148477D01*
X249103Y148457D01*
X249093Y148437D01*
X249073Y148417D01*
X249053Y148397D01*
X249033Y148377D01*
X249013Y148357D01*
X248993Y148347D01*
X248973Y148327D01*
X248953Y148317D01*
X248933Y148297D01*
X248903Y148287D01*
X248883Y148277D01*
X248853Y148267D01*
X248833D01*
X248803Y148257D01*
X248783D01*
X248753Y148247D01*
X232753D01*
X232723Y148257D01*
X232703D01*
X232673Y148267D01*
X232653D01*
X232623Y148277D01*
X232603Y148287D01*
X232573Y148297D01*
X232553Y148317D01*
X232533Y148327D01*
X232513Y148347D01*
X232493Y148357D01*
X232473Y148377D01*
X232453Y148397D01*
X232433Y148417D01*
X232413Y148437D01*
X232403Y148457D01*
X232383Y148477D01*
X232373Y148497D01*
X232353Y148517D01*
X232343Y148547D01*
X232333Y148567D01*
X232323Y148597D01*
Y148617D01*
X232313Y148647D01*
Y148667D01*
X232303Y148697D01*
Y148717D01*
Y148747D01*
Y155147D01*
Y155177D01*
Y155197D01*
X232313Y155227D01*
Y155247D01*
X232323Y155277D01*
Y155297D01*
X232333Y155327D01*
X232343Y155347D01*
X232353Y155377D01*
X232373Y155397D01*
X232383Y155417D01*
X232403Y155437D01*
X232413Y155457D01*
X232433Y155477D01*
X232453Y155497D01*
X232473Y155517D01*
X232493Y155537D01*
X232513Y155547D01*
X232533Y155567D01*
X232553Y155577D01*
X232573Y155597D01*
X232603Y155607D01*
X232623Y155617D01*
X232653Y155627D01*
X232673D01*
X232703Y155637D01*
X232723D01*
X232753Y155647D01*
X248753D01*
X248783Y155637D01*
D02*
G37*
G36*
X194783D02*
X194803D01*
X194833Y155627D01*
X194853D01*
X194883Y155617D01*
X194903Y155607D01*
X194933Y155597D01*
X194953Y155577D01*
X194973Y155567D01*
X194993Y155547D01*
X195013Y155537D01*
X195033Y155517D01*
X195053Y155497D01*
X195073Y155477D01*
X195093Y155457D01*
X195103Y155437D01*
X195123Y155417D01*
X195133Y155397D01*
X195153Y155377D01*
X195163Y155347D01*
X195173Y155327D01*
X195183Y155297D01*
Y155277D01*
X195193Y155247D01*
Y155227D01*
X195203Y155197D01*
Y155177D01*
Y155147D01*
Y148747D01*
Y148717D01*
Y148697D01*
X195193Y148667D01*
Y148647D01*
X195183Y148617D01*
Y148597D01*
X195173Y148567D01*
X195163Y148547D01*
X195153Y148517D01*
X195133Y148497D01*
X195123Y148477D01*
X195103Y148457D01*
X195093Y148437D01*
X195073Y148417D01*
X195053Y148397D01*
X195033Y148377D01*
X195013Y148357D01*
X194993Y148347D01*
X194973Y148327D01*
X194953Y148317D01*
X194933Y148297D01*
X194903Y148287D01*
X194883Y148277D01*
X194853Y148267D01*
X194833D01*
X194803Y148257D01*
X194783D01*
X194753Y148247D01*
X178753D01*
X178723Y148257D01*
X178703D01*
X178673Y148267D01*
X178653D01*
X178623Y148277D01*
X178603Y148287D01*
X178573Y148297D01*
X178553Y148317D01*
X178533Y148327D01*
X178513Y148347D01*
X178493Y148357D01*
X178473Y148377D01*
X178453Y148397D01*
X178433Y148417D01*
X178413Y148437D01*
X178403Y148457D01*
X178383Y148477D01*
X178373Y148497D01*
X178353Y148517D01*
X178343Y148547D01*
X178333Y148567D01*
X178323Y148597D01*
Y148617D01*
X178313Y148647D01*
Y148667D01*
X178303Y148697D01*
Y148717D01*
Y148747D01*
Y155147D01*
Y155177D01*
Y155197D01*
X178313Y155227D01*
Y155247D01*
X178323Y155277D01*
Y155297D01*
X178333Y155327D01*
X178343Y155347D01*
X178353Y155377D01*
X178373Y155397D01*
X178383Y155417D01*
X178403Y155437D01*
X178413Y155457D01*
X178433Y155477D01*
X178453Y155497D01*
X178473Y155517D01*
X178493Y155537D01*
X178513Y155547D01*
X178533Y155567D01*
X178553Y155577D01*
X178573Y155597D01*
X178603Y155607D01*
X178623Y155617D01*
X178653Y155627D01*
X178673D01*
X178703Y155637D01*
X178723D01*
X178753Y155647D01*
X194753D01*
X194783Y155637D01*
D02*
G37*
G36*
X837814Y12188D02*
X837798Y12172D01*
X832917D01*
X837814Y17069D01*
X837814Y12188D01*
D02*
G37*
G36*
X16256Y12192D02*
X16236Y12172D01*
X12208D01*
X12192Y12188D01*
Y16256D01*
X16256Y12192D01*
D02*
G37*
D23*
X431847Y503690D02*
G03*
X431847Y503690I-2000J0D01*
G01*
X101207Y501162D02*
G03*
X101207Y501162I-2000J0D01*
G01*
X212399Y505936D02*
G03*
X212399Y505936I-2000J0D01*
G01*
X327343Y507214D02*
G03*
X327343Y507214I-2000J0D01*
G01*
D26*
X843653Y837997D02*
G03*
X838020Y843646I-5650J0D01*
G01*
X838003Y6347D02*
G03*
X843653Y11984I0J5650D01*
G01*
X6353Y11997D02*
G03*
X11991Y6347I5650J0D01*
G01*
X12003Y843647D02*
G03*
X6353Y838009I0J-5650D01*
G01*
X843653Y11997D02*
X843653Y837971D01*
X12003Y6347D02*
X837978Y6347D01*
X12021Y843647D02*
X838003Y843646D01*
X6353Y12022D02*
X6353Y837997D01*
D70*
X114486Y765951D02*
D03*
D71*
X130485D02*
D03*
D72*
X98055Y197973D02*
D03*
D73*
Y213972D02*
D03*
D74*
X204120Y552437D02*
D03*
Y524237D02*
D03*
X209121D02*
D03*
X214121D02*
D03*
X219121D02*
D03*
X209121Y552437D02*
D03*
X214121D02*
D03*
X219121D02*
D03*
X320152D02*
D03*
Y524237D02*
D03*
X325152D02*
D03*
X330152D02*
D03*
X335152D02*
D03*
X325152Y552437D02*
D03*
X330152D02*
D03*
X335152D02*
D03*
X436183D02*
D03*
Y524237D02*
D03*
X441183D02*
D03*
X446183D02*
D03*
X451183D02*
D03*
X441183Y552437D02*
D03*
X446183D02*
D03*
X451183D02*
D03*
D75*
X206871Y531834D02*
D03*
X216371D02*
D03*
X322902D02*
D03*
X332402D02*
D03*
X438933D02*
D03*
X448433D02*
D03*
D76*
X207120Y541337D02*
D03*
X216120D02*
D03*
X323152D02*
D03*
X332152D02*
D03*
X439183D02*
D03*
X448183D02*
D03*
D77*
X197370Y528337D02*
D03*
Y533337D02*
D03*
Y543337D02*
D03*
Y548337D02*
D03*
X225870D02*
D03*
Y543337D02*
D03*
Y538337D02*
D03*
Y533337D02*
D03*
Y528337D02*
D03*
X313402D02*
D03*
Y533337D02*
D03*
Y543337D02*
D03*
Y548337D02*
D03*
X341902D02*
D03*
Y543337D02*
D03*
Y538337D02*
D03*
Y533337D02*
D03*
Y528337D02*
D03*
X429433D02*
D03*
Y533337D02*
D03*
Y543337D02*
D03*
Y548337D02*
D03*
X457933D02*
D03*
Y543337D02*
D03*
Y538337D02*
D03*
Y533337D02*
D03*
Y528337D02*
D03*
D78*
X197370Y538337D02*
D03*
X313402D02*
D03*
X429433D02*
D03*
D79*
X100089Y541337D02*
D03*
X91089D02*
D03*
X237849Y280824D02*
D03*
X256849D02*
D03*
X237849Y304824D02*
D03*
X247349D02*
D03*
X256849D02*
D03*
X247349Y280824D02*
D03*
D80*
X91383Y680147D02*
D03*
X86383Y680136D02*
D03*
X91263Y127418D02*
D03*
X86262Y127408D02*
D03*
D81*
X79642Y673147D02*
D03*
X98142Y687147D02*
D03*
X79642D02*
D03*
X98113Y673147D02*
D03*
X79522Y120418D02*
D03*
X98021Y134418D02*
D03*
X79522D02*
D03*
X97992Y120418D02*
D03*
D82*
X96142Y688897D02*
D03*
X81642D02*
D03*
X81642Y671397D02*
D03*
X96113D02*
D03*
X96021Y136168D02*
D03*
X81522D02*
D03*
X81522Y118668D02*
D03*
X95992D02*
D03*
X88089Y552437D02*
D03*
Y524237D02*
D03*
X93089D02*
D03*
X98089D02*
D03*
X103089D02*
D03*
X93089Y552437D02*
D03*
X98089D02*
D03*
X103089D02*
D03*
D83*
X79642Y682395D02*
D03*
Y677904D02*
D03*
X98142Y682395D02*
D03*
X98112Y677904D02*
D03*
X79522Y129666D02*
D03*
Y125175D02*
D03*
X98021Y129666D02*
D03*
X97992Y125175D02*
D03*
X81339Y528337D02*
D03*
Y533337D02*
D03*
Y543337D02*
D03*
Y548337D02*
D03*
X109839D02*
D03*
Y543337D02*
D03*
Y538337D02*
D03*
Y533337D02*
D03*
Y528337D02*
D03*
D84*
X90839Y531834D02*
D03*
X100339D02*
D03*
D85*
X81339Y538337D02*
D03*
D86*
X231983Y214248D02*
D03*
X205983D02*
D03*
X75336Y748939D02*
D03*
X49336D02*
D03*
X75215Y196210D02*
D03*
X49215D02*
D03*
X75019Y639431D02*
D03*
X49019D02*
D03*
X102007Y62085D02*
D03*
X128006D02*
D03*
D87*
X489971Y170912D02*
D03*
Y196912D02*
D03*
X389387Y170912D02*
D03*
Y196912D02*
D03*
X123005Y196169D02*
D03*
Y222169D02*
D03*
D88*
X50415Y477633D02*
D03*
Y421633D02*
D03*
Y392407D02*
D03*
Y336407D02*
D03*
D89*
X451658Y566527D02*
D03*
Y594990D02*
D03*
X219596Y566527D02*
D03*
Y594990D02*
D03*
X335627Y566527D02*
D03*
Y594990D02*
D03*
X103565Y566527D02*
D03*
Y594990D02*
D03*
D90*
X102959Y340085D02*
D03*
X118959D02*
D03*
Y357371D02*
D03*
X102959D02*
D03*
Y421891D02*
D03*
X118959D02*
D03*
X118959Y439179D02*
D03*
X102959D02*
D03*
X711332Y491167D02*
D03*
X695332D02*
D03*
X284670Y324371D02*
D03*
X300670D02*
D03*
Y338680D02*
D03*
X284670D02*
D03*
X362812Y611883D02*
D03*
X378812D02*
D03*
X229495D02*
D03*
X245495D02*
D03*
X378812Y627123D02*
D03*
X394812D02*
D03*
X245495D02*
D03*
X261495D02*
D03*
X426096Y580255D02*
D03*
X410096D02*
D03*
X194033D02*
D03*
X178033D02*
D03*
X362812Y627119D02*
D03*
X346812D02*
D03*
X229495Y627123D02*
D03*
X213495D02*
D03*
X162033Y612645D02*
D03*
X178033D02*
D03*
X294310Y611883D02*
D03*
X310310D02*
D03*
Y627119D02*
D03*
X326310D02*
D03*
X178033Y627123D02*
D03*
X194033D02*
D03*
X310065Y580255D02*
D03*
X294065D02*
D03*
X78002D02*
D03*
X62002D02*
D03*
X294310Y627123D02*
D03*
X278310D02*
D03*
X162033D02*
D03*
X146033D02*
D03*
X573136Y124958D02*
D03*
X557136D02*
D03*
X605517Y125614D02*
D03*
X589517D02*
D03*
X557490Y425006D02*
D03*
X573490D02*
D03*
X525254D02*
D03*
X541254D02*
D03*
X590029Y317502D02*
D03*
X606030D02*
D03*
X558408D02*
D03*
X574408D02*
D03*
X654543D02*
D03*
X670543D02*
D03*
X622667D02*
D03*
X638667D02*
D03*
X606303Y425006D02*
D03*
X590303D02*
D03*
X639116D02*
D03*
X623116D02*
D03*
X654281Y125614D02*
D03*
X670281D02*
D03*
X621899D02*
D03*
X637899D02*
D03*
X687770Y297596D02*
D03*
X703770D02*
D03*
X687770Y254826D02*
D03*
X703770D02*
D03*
X462644Y124958D02*
D03*
X446644D02*
D03*
X494669D02*
D03*
X478669D02*
D03*
X265709Y148747D02*
D03*
X281709D02*
D03*
X414619Y124958D02*
D03*
X430619D02*
D03*
X382594D02*
D03*
X398594D02*
D03*
X61983Y693329D02*
D03*
X45983D02*
D03*
X61863Y140600D02*
D03*
X45862D02*
D03*
X61983Y659997D02*
D03*
X45983D02*
D03*
X62003Y104997D02*
D03*
X46003D02*
D03*
X192985Y472091D02*
D03*
X176985D02*
D03*
X157075Y395815D02*
D03*
X141075D02*
D03*
X192893Y377601D02*
D03*
X176893D02*
D03*
X157075Y413809D02*
D03*
X141075D02*
D03*
X176877Y359432D02*
D03*
X192877D02*
D03*
X176893Y453997D02*
D03*
X192893D02*
D03*
X176983Y413809D02*
D03*
X192983D02*
D03*
X176983Y395578D02*
D03*
X192983D02*
D03*
X711503Y516550D02*
D03*
X695503D02*
D03*
X711329Y595397D02*
D03*
X695329D02*
D03*
X711329Y678431D02*
D03*
X695329D02*
D03*
X711329Y703374D02*
D03*
X695329D02*
D03*
X711329Y542832D02*
D03*
X695329D02*
D03*
X711329Y569114D02*
D03*
X695329D02*
D03*
X427609Y661096D02*
D03*
X443609D02*
D03*
X427609Y642459D02*
D03*
X443609D02*
D03*
X427609Y698370D02*
D03*
X443609D02*
D03*
X427609Y679733D02*
D03*
X443609D02*
D03*
X427609Y735645D02*
D03*
X443609D02*
D03*
X427609Y717007D02*
D03*
X443609D02*
D03*
X427609Y772919D02*
D03*
X443609D02*
D03*
X427609Y754282D02*
D03*
X443609D02*
D03*
X525003Y360144D02*
D03*
X541003D02*
D03*
X525003Y338823D02*
D03*
X541003D02*
D03*
X525003Y232218D02*
D03*
X541003D02*
D03*
X525003Y210898D02*
D03*
X541003D02*
D03*
X525003Y168256D02*
D03*
X541003D02*
D03*
X525003Y146935D02*
D03*
X541003D02*
D03*
X525003Y189577D02*
D03*
X541003D02*
D03*
X524495Y253539D02*
D03*
X540495D02*
D03*
X525003Y317502D02*
D03*
X541003D02*
D03*
X525003Y124959D02*
D03*
X541003D02*
D03*
X525003Y296181D02*
D03*
X541003D02*
D03*
X525003Y381465D02*
D03*
X541003D02*
D03*
X525003Y402785D02*
D03*
X541003D02*
D03*
X524495Y274860D02*
D03*
X540495D02*
D03*
X686912Y125615D02*
D03*
X702912D02*
D03*
X686912Y147000D02*
D03*
X702912D02*
D03*
X797397Y222541D02*
D03*
X813397D02*
D03*
X797397Y201156D02*
D03*
X813397D02*
D03*
X797397Y179771D02*
D03*
X813397D02*
D03*
X797399Y158385D02*
D03*
X813399D02*
D03*
X655169Y425006D02*
D03*
X671169D02*
D03*
X688003Y425006D02*
D03*
X704003D02*
D03*
X131078Y744997D02*
D03*
X115078D02*
D03*
X131003Y173997D02*
D03*
X115003D02*
D03*
X688192Y403621D02*
D03*
X704192D02*
D03*
X688192Y382236D02*
D03*
X704192D02*
D03*
X115253Y725797D02*
D03*
X131253D02*
D03*
X115132Y155901D02*
D03*
X131132D02*
D03*
X688003Y339466D02*
D03*
X704003D02*
D03*
X46232Y676441D02*
D03*
X62232D02*
D03*
X47003Y122997D02*
D03*
X63003D02*
D03*
X688003Y360851D02*
D03*
X704003D02*
D03*
X688192Y318081D02*
D03*
X704192D02*
D03*
X688019Y275311D02*
D03*
X704019D02*
D03*
X688019Y232541D02*
D03*
X704019D02*
D03*
X688019Y211156D02*
D03*
X704019D02*
D03*
X688019Y189771D02*
D03*
X704019D02*
D03*
X688019Y168386D02*
D03*
X704019D02*
D03*
X131253Y687397D02*
D03*
X115253D02*
D03*
X115253Y706597D02*
D03*
X131253D02*
D03*
X131132Y119709D02*
D03*
X115132D02*
D03*
X115132Y137805D02*
D03*
X131132D02*
D03*
X130876Y648997D02*
D03*
X114875D02*
D03*
X130755Y83518D02*
D03*
X114755D02*
D03*
X115253Y668197D02*
D03*
X131253D02*
D03*
X115132Y101614D02*
D03*
X131132D02*
D03*
D91*
X246276Y335141D02*
D03*
X234963Y346455D02*
D03*
X290902Y396397D02*
D03*
X302215Y385083D02*
D03*
X292089Y375153D02*
D03*
X280775Y386467D02*
D03*
D92*
X237914Y372340D02*
D03*
X249227Y383654D02*
D03*
D93*
X461390Y263862D02*
D03*
Y247862D02*
D03*
X346756Y471076D02*
D03*
Y455076D02*
D03*
X329600Y455074D02*
D03*
Y471074D02*
D03*
X479203Y529317D02*
D03*
Y513317D02*
D03*
X247141Y529317D02*
D03*
Y513317D02*
D03*
X494872Y529317D02*
D03*
Y513317D02*
D03*
X262810Y529317D02*
D03*
Y513317D02*
D03*
X246780Y547116D02*
D03*
Y563116D02*
D03*
X177715Y547116D02*
D03*
Y563116D02*
D03*
X394242Y513317D02*
D03*
Y529317D02*
D03*
X409778D02*
D03*
Y513317D02*
D03*
X162180D02*
D03*
Y529317D02*
D03*
X177715D02*
D03*
Y513317D02*
D03*
X262810Y547116D02*
D03*
Y563116D02*
D03*
X162060Y547116D02*
D03*
Y563116D02*
D03*
X362812Y547116D02*
D03*
Y563116D02*
D03*
X293746Y547116D02*
D03*
Y563116D02*
D03*
X378841Y547116D02*
D03*
Y563116D02*
D03*
X278091Y547116D02*
D03*
Y563116D02*
D03*
X363172Y529317D02*
D03*
Y513317D02*
D03*
X131109Y529317D02*
D03*
Y513317D02*
D03*
X378841Y529317D02*
D03*
Y513317D02*
D03*
X146778Y529317D02*
D03*
Y513317D02*
D03*
X478843Y547116D02*
D03*
Y563116D02*
D03*
X130749Y547116D02*
D03*
Y563116D02*
D03*
X278211Y513317D02*
D03*
Y529317D02*
D03*
X293746D02*
D03*
Y513317D02*
D03*
X46149D02*
D03*
Y529317D02*
D03*
X61684D02*
D03*
Y513317D02*
D03*
X409778Y547116D02*
D03*
Y563116D02*
D03*
X61684Y547116D02*
D03*
Y563116D02*
D03*
X494872Y547116D02*
D03*
Y563116D02*
D03*
X146778Y547116D02*
D03*
Y563116D02*
D03*
X394122Y547116D02*
D03*
Y563116D02*
D03*
X46028Y547116D02*
D03*
Y563116D02*
D03*
X604414Y612467D02*
D03*
Y628467D02*
D03*
X623277Y496821D02*
D03*
Y480821D02*
D03*
X549188Y612467D02*
D03*
Y628467D02*
D03*
X567383Y496821D02*
D03*
Y480821D02*
D03*
X659639Y529317D02*
D03*
Y513317D02*
D03*
X659639Y612467D02*
D03*
Y628467D02*
D03*
X659639Y580101D02*
D03*
Y596101D02*
D03*
Y563284D02*
D03*
Y547284D02*
D03*
X511489Y496821D02*
D03*
Y480821D02*
D03*
X511473Y529317D02*
D03*
Y513317D02*
D03*
Y580101D02*
D03*
Y596101D02*
D03*
Y547284D02*
D03*
Y563284D02*
D03*
X114003Y241997D02*
D03*
Y257997D02*
D03*
X131959Y241997D02*
D03*
Y257997D02*
D03*
X283010Y185997D02*
D03*
Y169997D02*
D03*
Y221748D02*
D03*
Y205748D02*
D03*
X160415D02*
D03*
Y221748D02*
D03*
X160253Y169997D02*
D03*
Y185997D02*
D03*
X477822Y264118D02*
D03*
Y248118D02*
D03*
X311600Y301189D02*
D03*
Y285189D02*
D03*
X293062Y301189D02*
D03*
Y285189D02*
D03*
X274525Y301189D02*
D03*
Y285189D02*
D03*
X200627Y301189D02*
D03*
Y285189D02*
D03*
X219450Y301189D02*
D03*
Y285189D02*
D03*
X396850Y471164D02*
D03*
Y455164D02*
D03*
X379720Y455162D02*
D03*
Y471162D02*
D03*
X311600Y470574D02*
D03*
Y454574D02*
D03*
Y434610D02*
D03*
Y418610D02*
D03*
X274525Y470570D02*
D03*
Y454571D02*
D03*
Y434610D02*
D03*
Y418610D02*
D03*
X293062Y470570D02*
D03*
Y454571D02*
D03*
Y434610D02*
D03*
Y418610D02*
D03*
X255988Y435234D02*
D03*
Y419234D02*
D03*
Y470570D02*
D03*
Y454571D02*
D03*
X640838Y628717D02*
D03*
Y612718D02*
D03*
X641009Y481589D02*
D03*
Y497589D02*
D03*
X621922Y612716D02*
D03*
Y628716D02*
D03*
X603746Y497212D02*
D03*
Y481212D02*
D03*
X585105Y612716D02*
D03*
Y628716D02*
D03*
X659640Y497212D02*
D03*
Y481212D02*
D03*
X529880Y628717D02*
D03*
Y612718D02*
D03*
X529221Y481589D02*
D03*
Y497589D02*
D03*
X566697Y612716D02*
D03*
Y628716D02*
D03*
X547852Y497212D02*
D03*
Y481212D02*
D03*
X511471Y612716D02*
D03*
Y628716D02*
D03*
X585115Y497212D02*
D03*
Y481212D02*
D03*
X265373Y169746D02*
D03*
Y185746D02*
D03*
Y205997D02*
D03*
Y221997D02*
D03*
X178467Y205997D02*
D03*
Y221997D02*
D03*
D94*
X76215Y434633D02*
D03*
Y444633D02*
D03*
Y454633D02*
D03*
Y464633D02*
D03*
Y379407D02*
D03*
Y369407D02*
D03*
Y359407D02*
D03*
Y349407D02*
D03*
D95*
X213753Y170997D02*
D03*
D96*
X755003Y304497D02*
D03*
Y455497D02*
D03*
D97*
X726003Y429997D02*
D03*
Y417497D02*
D03*
Y404997D02*
D03*
Y392497D02*
D03*
Y379997D02*
D03*
Y367497D02*
D03*
Y354997D02*
D03*
Y342497D02*
D03*
Y329997D02*
D03*
D98*
X660519Y291167D02*
D03*
Y278467D02*
D03*
Y265767D02*
D03*
Y253067D02*
D03*
Y240367D02*
D03*
Y227667D02*
D03*
Y214967D02*
D03*
Y202267D02*
D03*
X567519D02*
D03*
Y214967D02*
D03*
Y227667D02*
D03*
Y240367D02*
D03*
Y253067D02*
D03*
Y265767D02*
D03*
Y278467D02*
D03*
Y291167D02*
D03*
D99*
X805003Y499997D02*
D03*
X735003D02*
D03*
D100*
X161703Y294997D02*
D03*
X118303D02*
D03*
D101*
X123672Y34842D02*
D03*
X52753Y611497D02*
D03*
D102*
X113922Y28342D02*
D03*
Y34842D02*
D03*
Y41342D02*
D03*
X133422D02*
D03*
Y34842D02*
D03*
Y28342D02*
D03*
X62503Y617997D02*
D03*
Y611497D02*
D03*
Y604997D02*
D03*
X43003D02*
D03*
Y611497D02*
D03*
Y617997D02*
D03*
D103*
X89884Y165607D02*
D03*
X49884D02*
D03*
X50005Y718336D02*
D03*
X90005D02*
D03*
X280503Y122744D02*
D03*
X240503D02*
D03*
D104*
X411993Y661458D02*
D03*
X386993Y651958D02*
D03*
X411993Y642458D02*
D03*
Y698696D02*
D03*
X386993Y689196D02*
D03*
X411993Y679696D02*
D03*
Y735934D02*
D03*
X386993Y726434D02*
D03*
X411993Y716934D02*
D03*
Y754172D02*
D03*
X386993Y763672D02*
D03*
X411993Y773172D02*
D03*
X714305Y654403D02*
D03*
Y635403D02*
D03*
X689305Y644903D02*
D03*
X714305Y746605D02*
D03*
Y727605D02*
D03*
X689305Y737105D02*
D03*
D105*
X640003Y676497D02*
D03*
Y651497D02*
D03*
X620003Y676497D02*
D03*
Y651497D02*
D03*
X600003Y676497D02*
D03*
Y651497D02*
D03*
X580003Y676497D02*
D03*
Y651497D02*
D03*
X560003Y676497D02*
D03*
Y651497D02*
D03*
X540003Y676497D02*
D03*
Y651497D02*
D03*
X520003Y676497D02*
D03*
Y651497D02*
D03*
X500003Y676497D02*
D03*
Y651497D02*
D03*
X190003Y651497D02*
D03*
Y676497D02*
D03*
X210003Y651497D02*
D03*
Y676497D02*
D03*
X230003Y651497D02*
D03*
Y676497D02*
D03*
X250003Y651497D02*
D03*
Y676497D02*
D03*
X270003Y651497D02*
D03*
Y676497D02*
D03*
X290003Y651497D02*
D03*
Y676497D02*
D03*
X310003Y651497D02*
D03*
Y676497D02*
D03*
X330003Y651497D02*
D03*
Y676497D02*
D03*
D106*
X162381Y378871D02*
D03*
X155881D02*
D03*
X149381D02*
D03*
X142881D02*
D03*
X162381Y337871D02*
D03*
X155881D02*
D03*
X149381D02*
D03*
X142881D02*
D03*
X162381Y472525D02*
D03*
X155881D02*
D03*
X149381D02*
D03*
X142881D02*
D03*
X162381Y431525D02*
D03*
X155881D02*
D03*
X149381D02*
D03*
X142881D02*
D03*
D107*
X637981Y582592D02*
D03*
X625281D02*
D03*
X612581D02*
D03*
X599881D02*
D03*
X637981Y526092D02*
D03*
X625281D02*
D03*
X612581D02*
D03*
X599881D02*
D03*
X533841Y526092D02*
D03*
X546541D02*
D03*
X559241D02*
D03*
X571941D02*
D03*
X533841Y582592D02*
D03*
X546541D02*
D03*
X559241D02*
D03*
X571941D02*
D03*
D108*
X63048Y237937D02*
D03*
Y301437D02*
D03*
D109*
X92048Y263437D02*
D03*
Y275937D02*
D03*
D110*
X259314Y346621D02*
D03*
X274871Y362177D02*
D03*
X263557Y373491D02*
D03*
X248001Y357934D02*
D03*
D111*
X414587Y152085D02*
D03*
X427287D02*
D03*
X439987D02*
D03*
X452687D02*
D03*
X465387D02*
D03*
D112*
X439987Y212585D02*
D03*
D113*
X335001Y152997D02*
D03*
Y207497D02*
D03*
D114*
X638431Y144342D02*
D03*
Y157042D02*
D03*
Y169742D02*
D03*
Y182442D02*
D03*
X589031D02*
D03*
Y169742D02*
D03*
Y157042D02*
D03*
Y144342D02*
D03*
D115*
X562498Y391047D02*
D03*
Y378347D02*
D03*
Y365647D02*
D03*
Y352947D02*
D03*
X667508D02*
D03*
Y365647D02*
D03*
Y378347D02*
D03*
Y391047D02*
D03*
D116*
X120459Y378235D02*
D03*
X101459D02*
D03*
X110959Y403235D02*
D03*
X120459Y460715D02*
D03*
X101459D02*
D03*
X110959Y485715D02*
D03*
D117*
X762703Y113797D02*
D03*
D118*
X737303D02*
D03*
X762703Y139197D02*
D03*
X737303D02*
D03*
X762703Y164597D02*
D03*
X737303D02*
D03*
Y189997D02*
D03*
Y215397D02*
D03*
X762703Y240797D02*
D03*
X737303D02*
D03*
X762703Y266197D02*
D03*
X737303D02*
D03*
X762703Y189997D02*
D03*
Y215397D02*
D03*
D119*
X814003Y813997D02*
D03*
Y35997D02*
D03*
X36003Y813997D02*
D03*
D120*
X814003Y837247D02*
D03*
X830443Y19557D02*
D03*
X814003Y13137D02*
D03*
D121*
X790753Y813997D02*
D03*
X814003Y791137D02*
D03*
X837253Y813997D02*
D03*
X797563Y797557D02*
D03*
X830443D02*
D03*
X797563Y830437D02*
D03*
X19563Y52437D02*
D03*
X52443Y19557D02*
D03*
X19563D02*
D03*
X52443Y52437D02*
D03*
X59253Y35997D02*
D03*
X36003Y13137D02*
D03*
X12753Y35997D02*
D03*
X36003Y59247D02*
D03*
X797563Y52437D02*
D03*
Y19557D02*
D03*
X830443Y52437D02*
D03*
X837253Y35997D02*
D03*
X790753D02*
D03*
X814003Y59247D02*
D03*
X19563Y830437D02*
D03*
X52443Y797557D02*
D03*
X19563D02*
D03*
X52443Y830437D02*
D03*
X59253Y813997D02*
D03*
X36003Y791137D02*
D03*
X12753Y813997D02*
D03*
X36003Y837247D02*
D03*
D122*
X830443Y830437D02*
D03*
D123*
X734603Y642165D02*
D03*
Y544597D02*
D03*
D124*
Y667565D02*
D03*
Y692965D02*
D03*
Y718365D02*
D03*
Y743765D02*
D03*
Y569997D02*
D03*
Y595397D02*
D03*
D125*
X477503Y739997D02*
D03*
X662503D02*
D03*
X477503Y692497D02*
D03*
X662503D02*
D03*
X352503Y692497D02*
D03*
X167503D02*
D03*
X352503Y739997D02*
D03*
X167503D02*
D03*
X607503Y36197D02*
D03*
X242503Y83797D02*
D03*
X607503D02*
D03*
X242503Y36197D02*
D03*
D126*
X36003Y35997D02*
D03*
D127*
X842125Y8881D02*
D03*
X833882Y6347D02*
D03*
X822198Y6858D02*
D03*
X6021Y795118D02*
D03*
X795220Y844373D02*
D03*
X806283Y844220D02*
D03*
X844819Y795831D02*
D03*
X844804Y806704D02*
D03*
X843620Y496780D02*
D03*
Y486780D02*
D03*
X720856Y6379D02*
D03*
X710856D02*
D03*
X130858D02*
D03*
X6386Y195503D02*
D03*
Y205503D02*
D03*
Y675502D02*
D03*
Y415503D02*
D03*
Y235503D02*
D03*
Y245503D02*
D03*
X596322Y843614D02*
D03*
X843620Y236780D02*
D03*
X6386Y475503D02*
D03*
Y215503D02*
D03*
Y375503D02*
D03*
Y115503D02*
D03*
Y655502D02*
D03*
X140858Y6379D02*
D03*
X516322Y843614D02*
D03*
X843620Y386780D02*
D03*
X220858Y6379D02*
D03*
X6386Y25503D02*
D03*
X90858Y6379D02*
D03*
X6386Y325503D02*
D03*
X756321Y843614D02*
D03*
X116323D02*
D03*
X120858Y6379D02*
D03*
X843620Y636779D02*
D03*
X810856Y6379D02*
D03*
X476322Y843614D02*
D03*
X843620Y766779D02*
D03*
Y96780D02*
D03*
X310857Y6379D02*
D03*
X226322Y843614D02*
D03*
X6386Y685502D02*
D03*
X146323Y843614D02*
D03*
X6386Y285503D02*
D03*
X843620Y136780D02*
D03*
X36323Y843614D02*
D03*
X843620Y836779D02*
D03*
Y76780D02*
D03*
X826321Y843614D02*
D03*
X843620Y676779D02*
D03*
X580857Y6379D02*
D03*
X6386Y555503D02*
D03*
X680857Y6379D02*
D03*
X843620Y716779D02*
D03*
Y656779D02*
D03*
X10860Y6560D02*
D03*
X206322Y843614D02*
D03*
X410857Y6379D02*
D03*
X843620Y696779D02*
D03*
X446322Y843614D02*
D03*
X40858Y6379D02*
D03*
X706321Y843614D02*
D03*
X800856Y6379D02*
D03*
X6386Y315503D02*
D03*
X843620Y826779D02*
D03*
X750856Y6379D02*
D03*
X520857D02*
D03*
X843620Y606779D02*
D03*
Y546779D02*
D03*
Y56780D02*
D03*
X690857Y6379D02*
D03*
X6386Y55504D02*
D03*
X300857Y6379D02*
D03*
X626322Y843614D02*
D03*
X843620Y446780D02*
D03*
Y376780D02*
D03*
Y326780D02*
D03*
Y286780D02*
D03*
X6386Y495503D02*
D03*
X843620Y256780D02*
D03*
X76323Y843614D02*
D03*
X196322D02*
D03*
X270857Y6379D02*
D03*
X6386Y65504D02*
D03*
X530857Y6379D02*
D03*
X6386Y505503D02*
D03*
X56323Y843614D02*
D03*
X766321D02*
D03*
X570857Y6379D02*
D03*
X843620Y666779D02*
D03*
X60858Y6379D02*
D03*
X843620Y536779D02*
D03*
X6386Y345503D02*
D03*
X843620Y396780D02*
D03*
X6386Y295503D02*
D03*
X666322Y843614D02*
D03*
X190858Y6379D02*
D03*
X6386Y365503D02*
D03*
X256322Y843614D02*
D03*
X406322D02*
D03*
X843620Y106780D02*
D03*
X6386Y445503D02*
D03*
X360857Y6379D02*
D03*
X843620Y26781D02*
D03*
X640857Y6379D02*
D03*
X6386Y145503D02*
D03*
Y135503D02*
D03*
X646322Y843614D02*
D03*
X6386Y75503D02*
D03*
Y805502D02*
D03*
Y515503D02*
D03*
Y725502D02*
D03*
Y395503D02*
D03*
X236322Y843614D02*
D03*
X843620Y36780D02*
D03*
X6386Y105503D02*
D03*
Y155503D02*
D03*
X180858Y6379D02*
D03*
X6386Y605502D02*
D03*
X166323Y843614D02*
D03*
X566322D02*
D03*
X843620Y516780D02*
D03*
X6386Y15504D02*
D03*
Y265503D02*
D03*
X490857Y6379D02*
D03*
X843620Y46780D02*
D03*
X466322Y843614D02*
D03*
X6386Y45504D02*
D03*
X636322Y843614D02*
D03*
X786321D02*
D03*
X843620Y596779D02*
D03*
Y816779D02*
D03*
X456322Y843614D02*
D03*
X726321D02*
D03*
X843620Y506780D02*
D03*
Y116780D02*
D03*
Y296780D02*
D03*
X620857Y6379D02*
D03*
X50858D02*
D03*
X6386Y585502D02*
D03*
X500857Y6379D02*
D03*
X200858D02*
D03*
X6386Y705502D02*
D03*
X486322Y843614D02*
D03*
X6386Y755502D02*
D03*
Y695502D02*
D03*
X336322Y843614D02*
D03*
X6386Y85503D02*
D03*
X843620Y166780D02*
D03*
X6386Y485503D02*
D03*
X843620Y336780D02*
D03*
X420857Y6379D02*
D03*
X776321Y843614D02*
D03*
X843620Y466780D02*
D03*
X350857Y6379D02*
D03*
X6386Y175503D02*
D03*
X46323Y843614D02*
D03*
X696321D02*
D03*
X80858Y6379D02*
D03*
X843620Y756779D02*
D03*
Y626779D02*
D03*
X510857Y6379D02*
D03*
X760856D02*
D03*
X296322Y843614D02*
D03*
X843620Y456780D02*
D03*
X480857Y6379D02*
D03*
X656322Y843614D02*
D03*
X843620Y436780D02*
D03*
X6386Y95503D02*
D03*
X110858Y6379D02*
D03*
X843620Y736779D02*
D03*
Y246780D02*
D03*
X340857Y6379D02*
D03*
X266322Y843614D02*
D03*
X6386Y615502D02*
D03*
X70858Y6379D02*
D03*
X176323Y843614D02*
D03*
X346322D02*
D03*
X376322D02*
D03*
X616322D02*
D03*
X843620Y746779D02*
D03*
Y346780D02*
D03*
Y226780D02*
D03*
X330857Y6379D02*
D03*
X843620Y776779D02*
D03*
Y646779D02*
D03*
X6386Y575502D02*
D03*
X106323Y843614D02*
D03*
X186322D02*
D03*
X276322D02*
D03*
X306322D02*
D03*
X676322D02*
D03*
X6386Y745502D02*
D03*
Y785502D02*
D03*
X426322Y843614D02*
D03*
X370857Y6379D02*
D03*
X843620Y196780D02*
D03*
X546322Y843614D02*
D03*
X746321D02*
D03*
X843620Y576779D02*
D03*
X550857Y6379D02*
D03*
X843620Y356780D02*
D03*
X286322Y843614D02*
D03*
X576322D02*
D03*
X436322D02*
D03*
X6386Y275503D02*
D03*
Y185503D02*
D03*
X290857Y6379D02*
D03*
X6386Y765502D02*
D03*
X86323Y843614D02*
D03*
X790856Y6379D02*
D03*
X136323Y843614D02*
D03*
X156323D02*
D03*
X6386Y565503D02*
D03*
Y825502D02*
D03*
X843620Y206780D02*
D03*
Y126780D02*
D03*
Y146780D02*
D03*
X6386Y125503D02*
D03*
X240858Y6379D02*
D03*
X6386Y225503D02*
D03*
X843620Y706779D02*
D03*
X170858Y6379D02*
D03*
X536322Y843614D02*
D03*
X540857Y6379D02*
D03*
X843620Y266780D02*
D03*
Y726779D02*
D03*
X320857Y6379D02*
D03*
X770856D02*
D03*
X6386Y435503D02*
D03*
X386322Y843614D02*
D03*
X843620Y316780D02*
D03*
X6386Y165503D02*
D03*
X506322Y843614D02*
D03*
X843620Y686779D02*
D03*
Y416780D02*
D03*
X12233Y843614D02*
D03*
X590857Y6379D02*
D03*
X380857D02*
D03*
X6386Y625502D02*
D03*
X843620Y426780D02*
D03*
X6386Y535503D02*
D03*
X843620Y16781D02*
D03*
X260857Y6379D02*
D03*
X6386Y465503D02*
D03*
X816321Y843614D02*
D03*
X216322D02*
D03*
X843620Y476780D02*
D03*
X150858Y6379D02*
D03*
X450857D02*
D03*
X210858D02*
D03*
X526322Y843614D02*
D03*
X780856Y6379D02*
D03*
X606322Y843614D02*
D03*
X843620Y566779D02*
D03*
X650857Y6379D02*
D03*
X6386Y595502D02*
D03*
X230858Y6379D02*
D03*
X20858D02*
D03*
X686321Y843614D02*
D03*
X843620Y66780D02*
D03*
Y276780D02*
D03*
X6386Y815502D02*
D03*
X670857Y6379D02*
D03*
X6386Y525503D02*
D03*
X843620Y86780D02*
D03*
X356322Y843614D02*
D03*
X610857Y6379D02*
D03*
X556322Y843614D02*
D03*
X843620Y556779D02*
D03*
Y366780D02*
D03*
X586322Y843614D02*
D03*
X716321D02*
D03*
X600857Y6379D02*
D03*
X700857D02*
D03*
X843620Y786779D02*
D03*
X6386Y355503D02*
D03*
X843620Y176780D02*
D03*
X96323Y843614D02*
D03*
X6386Y455503D02*
D03*
X126323Y843614D02*
D03*
X6386Y635502D02*
D03*
X843620Y616779D02*
D03*
X560857Y6379D02*
D03*
X470857D02*
D03*
X6386Y665502D02*
D03*
Y735502D02*
D03*
Y775502D02*
D03*
X390857Y6379D02*
D03*
X30858D02*
D03*
X6386Y305503D02*
D03*
X326322Y843614D02*
D03*
X366322D02*
D03*
X630857Y6379D02*
D03*
X396322Y843614D02*
D03*
X843620Y216780D02*
D03*
X280857Y6379D02*
D03*
X440857D02*
D03*
X6386Y545503D02*
D03*
X160858Y6379D02*
D03*
X66323Y843614D02*
D03*
X843620Y186780D02*
D03*
X736321Y843614D02*
D03*
X100858Y6379D02*
D03*
X430857D02*
D03*
X843620Y156780D02*
D03*
X6386Y835502D02*
D03*
Y255503D02*
D03*
Y385503D02*
D03*
Y715502D02*
D03*
X496322Y843614D02*
D03*
X246322D02*
D03*
X843620Y306780D02*
D03*
X400857Y6379D02*
D03*
X6386Y335503D02*
D03*
X416322Y843614D02*
D03*
X730856Y6379D02*
D03*
X26323Y843614D02*
D03*
X316322D02*
D03*
X843620Y406780D02*
D03*
X660857Y6379D02*
D03*
X460857D02*
D03*
X250858D02*
D03*
X740856D02*
D03*
X6386Y405503D02*
D03*
Y425503D02*
D03*
Y645502D02*
D03*
X843620Y586779D02*
D03*
X6386Y35503D02*
D03*
X843620Y526780D02*
D03*
X836321Y843614D02*
D03*
M02*
