G04*
G04 #@! TF.GenerationSoftware,Altium Limited,Altium Designer,24.1.2 (44)*
G04*
G04 Layer_Color=16711935*
%FSLAX44Y44*%
%MOMM*%
G71*
G04*
G04 #@! TF.SameCoordinates,9C78AE07-0A78-4655-BEE4-92392129F010*
G04*
G04*
G04 #@! TF.FilePolarity,Negative*
G04*
G01*
G75*
%ADD23C,0.5000*%
%ADD26C,1.2300*%
%ADD52R,0.9500X0.9000*%
%ADD83R,0.9032X1.0032*%
%ADD86R,1.0032X0.9032*%
%ADD94R,1.1532X1.1032*%
%ADD97O,0.8032X2.0032*%
%ADD104R,1.5732X1.5732*%
%ADD105C,1.5732*%
%ADD106C,6.2032*%
%ADD107C,1.2032*%
%ADD108R,1.8032X1.8032*%
%ADD109C,1.8032*%
%ADD110C,1.6612*%
%ADD111C,0.6032*%
%ADD140C,0.3200*%
%ADD149R,2.7178X3.4036*%
%ADD154R,0.3769X0.4877*%
%ADD155R,0.8704X0.4005*%
%ADD156R,0.7127X0.4784*%
%ADD157R,0.5175X0.4406*%
%ADD158R,1.1032X0.8032*%
%ADD159R,1.5032X1.3532*%
%ADD160R,1.3000X1.2000*%
%ADD161R,1.4732X1.8542*%
%ADD162R,2.6000X2.6000*%
%ADD163R,1.2032X3.4032*%
%ADD164O,2.0032X0.8032*%
G36*
X219379Y460266D02*
X209379D01*
Y469316D01*
X219379D01*
Y460266D01*
D02*
G37*
G36*
X229379Y460767D02*
X237928D01*
Y455767D01*
Y450767D01*
X228878D01*
Y455767D01*
Y460266D01*
X219379D01*
Y469316D01*
X229379D01*
Y460767D01*
D02*
G37*
G36*
X209379Y460266D02*
X199880D01*
Y455767D01*
Y450767D01*
X190830D01*
Y455767D01*
Y460767D01*
X199379D01*
Y469316D01*
X209379D01*
Y460266D01*
D02*
G37*
G36*
X237928Y445767D02*
Y440767D01*
X228878D01*
Y445767D01*
Y450767D01*
X237928D01*
Y445767D01*
D02*
G37*
G36*
X199880D02*
Y440767D01*
X190830D01*
Y445767D01*
Y450767D01*
X199880D01*
Y445767D01*
D02*
G37*
G36*
X237928Y435767D02*
Y430767D01*
X229379D01*
Y422218D01*
X219379D01*
Y431268D01*
X228878D01*
Y435767D01*
Y440767D01*
X237928D01*
Y435767D01*
D02*
G37*
G36*
X219379Y422218D02*
X209379D01*
Y431268D01*
X219379D01*
Y422218D01*
D02*
G37*
G36*
X199880Y435767D02*
Y431268D01*
X209379D01*
Y422218D01*
X199379D01*
Y430767D01*
X190830D01*
Y435767D01*
Y440767D01*
X199880D01*
Y435767D01*
D02*
G37*
D23*
X144881Y427479D02*
G03*
X144881Y427479I-2000J0D01*
G01*
X139131Y458267D02*
G03*
X139131Y458267I-2000J0D01*
G01*
X151573Y450042D02*
G03*
X151573Y450042I-2000J0D01*
G01*
D26*
X12006Y843650D02*
G03*
X6356Y838012I0J-5650D01*
G01*
X6356Y12000D02*
G03*
X11994Y6350I5650J0D01*
G01*
X838006Y6350D02*
G03*
X843656Y11988I0J5650D01*
G01*
X843656Y838000D02*
G03*
X838024Y843650I-5650J0D01*
G01*
X843656Y12000D02*
X843656Y837975D01*
X12024Y843650D02*
X838006Y843650D01*
X12006Y6350D02*
X837981Y6350D01*
X6356Y12025D02*
X6356Y838000D01*
D52*
X73003Y259997D02*
D03*
D83*
X222765Y698518D02*
D03*
X238765D02*
D03*
X222765Y718336D02*
D03*
X238765D02*
D03*
X517324Y393513D02*
D03*
X533325D02*
D03*
X285063Y385972D02*
D03*
X301063D02*
D03*
Y369480D02*
D03*
X285063D02*
D03*
X533339Y409001D02*
D03*
X517339D02*
D03*
X517339Y424490D02*
D03*
X533339D02*
D03*
X212154Y411977D02*
D03*
X196154D02*
D03*
X78893Y386223D02*
D03*
X62893D02*
D03*
X79123Y469135D02*
D03*
X63123D02*
D03*
X78893Y366765D02*
D03*
X62893D02*
D03*
X78983Y449677D02*
D03*
X62983D02*
D03*
X797711Y423326D02*
D03*
X813711D02*
D03*
X797711Y463310D02*
D03*
X813711D02*
D03*
X155162Y438164D02*
D03*
X171162D02*
D03*
X797711Y343358D02*
D03*
X813711D02*
D03*
X797711Y263390D02*
D03*
X813711D02*
D03*
X797711Y383342D02*
D03*
X813711D02*
D03*
X797711Y303022D02*
D03*
X813711D02*
D03*
D86*
X256635Y265102D02*
D03*
Y281102D02*
D03*
X416165Y297282D02*
D03*
Y313282D02*
D03*
X398721Y297282D02*
D03*
Y313282D02*
D03*
X622155Y612397D02*
D03*
Y628397D02*
D03*
X604694Y496475D02*
D03*
Y480475D02*
D03*
X238704Y281102D02*
D03*
Y265102D02*
D03*
X238957Y313282D02*
D03*
Y297282D02*
D03*
X310447Y281102D02*
D03*
Y265102D02*
D03*
X310700Y313282D02*
D03*
Y297282D02*
D03*
X291909Y281102D02*
D03*
Y265102D02*
D03*
X292162Y313282D02*
D03*
Y297282D02*
D03*
X275172Y281102D02*
D03*
Y265102D02*
D03*
X329761Y281102D02*
D03*
Y265102D02*
D03*
X346390D02*
D03*
Y281102D02*
D03*
X381278Y297282D02*
D03*
Y313282D02*
D03*
X363834Y297282D02*
D03*
Y313282D02*
D03*
X566685Y612397D02*
D03*
Y628397D02*
D03*
X549225Y496475D02*
D03*
Y480475D02*
D03*
X416165Y345817D02*
D03*
Y329817D02*
D03*
X398721Y345817D02*
D03*
Y329817D02*
D03*
X381278Y345817D02*
D03*
Y329817D02*
D03*
X363834Y345817D02*
D03*
Y329817D02*
D03*
X659773Y579416D02*
D03*
Y595416D02*
D03*
X659773Y496475D02*
D03*
Y480475D02*
D03*
X659773Y529455D02*
D03*
Y513455D02*
D03*
Y546436D02*
D03*
Y562436D02*
D03*
X511607Y612397D02*
D03*
Y628397D02*
D03*
X511607Y579601D02*
D03*
Y595601D02*
D03*
Y529517D02*
D03*
Y513517D02*
D03*
Y562559D02*
D03*
Y546559D02*
D03*
X178467Y241997D02*
D03*
Y225997D02*
D03*
X346390Y297282D02*
D03*
Y313282D02*
D03*
X142881Y241997D02*
D03*
Y225997D02*
D03*
X160674Y241997D02*
D03*
Y225997D02*
D03*
X640513Y628648D02*
D03*
Y612648D02*
D03*
Y480724D02*
D03*
Y496724D02*
D03*
X604695Y612646D02*
D03*
Y628646D02*
D03*
X622154Y496726D02*
D03*
Y480726D02*
D03*
X585435Y496726D02*
D03*
Y480726D02*
D03*
X659774Y612646D02*
D03*
Y628646D02*
D03*
X530866Y628648D02*
D03*
Y612648D02*
D03*
Y480724D02*
D03*
Y496724D02*
D03*
X311600Y470570D02*
D03*
Y454571D02*
D03*
X274525Y454569D02*
D03*
Y470569D02*
D03*
X311600Y435234D02*
D03*
Y419234D02*
D03*
X274525Y419232D02*
D03*
Y435232D02*
D03*
X328861Y312997D02*
D03*
Y296997D02*
D03*
X293062Y470570D02*
D03*
Y454571D02*
D03*
X255988Y454569D02*
D03*
Y470569D02*
D03*
X293062Y435234D02*
D03*
Y419234D02*
D03*
X255988Y419232D02*
D03*
Y435232D02*
D03*
X660890Y239278D02*
D03*
Y223278D02*
D03*
X660891Y269408D02*
D03*
Y253408D02*
D03*
X549226Y612646D02*
D03*
Y628646D02*
D03*
X566684Y496726D02*
D03*
Y480726D02*
D03*
X585945Y612646D02*
D03*
Y628646D02*
D03*
X511605Y496726D02*
D03*
Y480726D02*
D03*
X213153Y225835D02*
D03*
Y241835D02*
D03*
X195360Y225835D02*
D03*
Y241835D02*
D03*
D94*
X73003Y278997D02*
D03*
X48003Y269497D02*
D03*
D97*
X572075Y526219D02*
D03*
X559375D02*
D03*
X546675D02*
D03*
X533975D02*
D03*
X572075Y582719D02*
D03*
X559375D02*
D03*
X546675D02*
D03*
X533975D02*
D03*
X600015Y582719D02*
D03*
X612715D02*
D03*
X625415D02*
D03*
X638115D02*
D03*
X600015Y526219D02*
D03*
X612715D02*
D03*
X625415D02*
D03*
X638115D02*
D03*
D104*
X762703Y113797D02*
D03*
D105*
X737303D02*
D03*
X762703Y139197D02*
D03*
X737303D02*
D03*
X762703Y164597D02*
D03*
X737303D02*
D03*
Y189997D02*
D03*
Y215397D02*
D03*
X762703Y240797D02*
D03*
X737303D02*
D03*
X762703Y266197D02*
D03*
X737303D02*
D03*
X762703Y189997D02*
D03*
Y215397D02*
D03*
D106*
X814003Y813997D02*
D03*
X36003Y35997D02*
D03*
X814003D02*
D03*
X36003Y813997D02*
D03*
D107*
X814003Y837247D02*
D03*
X790753Y813997D02*
D03*
X814003Y791137D02*
D03*
X837253Y813997D02*
D03*
X830443Y830437D02*
D03*
X797563Y797557D02*
D03*
X830443D02*
D03*
X797563Y830437D02*
D03*
X19563Y52437D02*
D03*
X52443Y19557D02*
D03*
X19563D02*
D03*
X52443Y52437D02*
D03*
X59253Y35997D02*
D03*
X36003Y13137D02*
D03*
X12753Y35997D02*
D03*
X36003Y59247D02*
D03*
X797563Y52437D02*
D03*
X830443Y19557D02*
D03*
X797563D02*
D03*
X830443Y52437D02*
D03*
X837253Y35997D02*
D03*
X814003Y13137D02*
D03*
X790753Y35997D02*
D03*
X814003Y59247D02*
D03*
X19563Y830437D02*
D03*
X52443Y797557D02*
D03*
X19563D02*
D03*
X52443Y830437D02*
D03*
X59253Y813997D02*
D03*
X36003Y791137D02*
D03*
X12753Y813997D02*
D03*
X36003Y837247D02*
D03*
D108*
X734603Y642165D02*
D03*
Y544597D02*
D03*
D109*
Y667565D02*
D03*
Y692965D02*
D03*
Y718365D02*
D03*
Y743765D02*
D03*
Y569997D02*
D03*
Y595397D02*
D03*
D110*
X477503Y739997D02*
D03*
X662503D02*
D03*
X477503Y692497D02*
D03*
X662503D02*
D03*
X352503Y692497D02*
D03*
X167503D02*
D03*
X352503Y739997D02*
D03*
X167503D02*
D03*
X607503Y36197D02*
D03*
X242503Y83797D02*
D03*
X607503D02*
D03*
X242503Y36197D02*
D03*
D111*
X842125Y8881D02*
D03*
X833882Y6347D02*
D03*
X822198Y6858D02*
D03*
X6021Y795118D02*
D03*
X795220Y844373D02*
D03*
X806283Y844220D02*
D03*
X844819Y795831D02*
D03*
X844804Y806704D02*
D03*
X843620Y496780D02*
D03*
Y486780D02*
D03*
X720856Y6379D02*
D03*
X710856D02*
D03*
X130858D02*
D03*
X6386Y195503D02*
D03*
Y205503D02*
D03*
Y675502D02*
D03*
Y415503D02*
D03*
Y235503D02*
D03*
Y245503D02*
D03*
X596322Y843614D02*
D03*
X843620Y236780D02*
D03*
X6386Y475503D02*
D03*
Y215503D02*
D03*
Y375503D02*
D03*
Y115503D02*
D03*
Y655502D02*
D03*
X140858Y6379D02*
D03*
X516322Y843614D02*
D03*
X843620Y386780D02*
D03*
X220858Y6379D02*
D03*
X6386Y25503D02*
D03*
X90858Y6379D02*
D03*
X6386Y325503D02*
D03*
X756321Y843614D02*
D03*
X116323D02*
D03*
X120858Y6379D02*
D03*
X843620Y636779D02*
D03*
X810856Y6379D02*
D03*
X476322Y843614D02*
D03*
X843620Y766779D02*
D03*
Y96780D02*
D03*
X310857Y6379D02*
D03*
X226322Y843614D02*
D03*
X6386Y685502D02*
D03*
X146323Y843614D02*
D03*
X6386Y285503D02*
D03*
X843620Y136780D02*
D03*
X36323Y843614D02*
D03*
X843620Y836779D02*
D03*
Y76780D02*
D03*
X826321Y843614D02*
D03*
X843620Y676779D02*
D03*
X580857Y6379D02*
D03*
X6386Y555503D02*
D03*
X680857Y6379D02*
D03*
X843620Y716779D02*
D03*
Y656779D02*
D03*
X10860Y6560D02*
D03*
X206322Y843614D02*
D03*
X410857Y6379D02*
D03*
X843620Y696779D02*
D03*
X446322Y843614D02*
D03*
X40858Y6379D02*
D03*
X706321Y843614D02*
D03*
X800856Y6379D02*
D03*
X6386Y315503D02*
D03*
X843620Y826779D02*
D03*
X750856Y6379D02*
D03*
X520857D02*
D03*
X843620Y606779D02*
D03*
Y546779D02*
D03*
Y56780D02*
D03*
X690857Y6379D02*
D03*
X6386Y55504D02*
D03*
X300857Y6379D02*
D03*
X626322Y843614D02*
D03*
X843620Y446780D02*
D03*
Y376780D02*
D03*
Y326780D02*
D03*
Y286780D02*
D03*
X6386Y495503D02*
D03*
X843620Y256780D02*
D03*
X76323Y843614D02*
D03*
X196322D02*
D03*
X270857Y6379D02*
D03*
X6386Y65504D02*
D03*
X530857Y6379D02*
D03*
X6386Y505503D02*
D03*
X56323Y843614D02*
D03*
X766321D02*
D03*
X570857Y6379D02*
D03*
X843620Y666779D02*
D03*
X60858Y6379D02*
D03*
X843620Y536779D02*
D03*
X6386Y345503D02*
D03*
X843620Y396780D02*
D03*
X6386Y295503D02*
D03*
X666322Y843614D02*
D03*
X190858Y6379D02*
D03*
X6386Y365503D02*
D03*
X256322Y843614D02*
D03*
X406322D02*
D03*
X843620Y106780D02*
D03*
X6386Y445503D02*
D03*
X360857Y6379D02*
D03*
X843620Y26781D02*
D03*
X640857Y6379D02*
D03*
X6386Y145503D02*
D03*
Y135503D02*
D03*
X646322Y843614D02*
D03*
X6386Y75503D02*
D03*
Y805502D02*
D03*
Y515503D02*
D03*
Y725502D02*
D03*
Y395503D02*
D03*
X236322Y843614D02*
D03*
X843620Y36780D02*
D03*
X6386Y105503D02*
D03*
Y155503D02*
D03*
X180858Y6379D02*
D03*
X6386Y605502D02*
D03*
X166323Y843614D02*
D03*
X566322D02*
D03*
X843620Y516780D02*
D03*
X6386Y15504D02*
D03*
Y265503D02*
D03*
X490857Y6379D02*
D03*
X843620Y46780D02*
D03*
X466322Y843614D02*
D03*
X6386Y45504D02*
D03*
X636322Y843614D02*
D03*
X786321D02*
D03*
X843620Y596779D02*
D03*
Y816779D02*
D03*
X456322Y843614D02*
D03*
X726321D02*
D03*
X843620Y506780D02*
D03*
Y116780D02*
D03*
Y296780D02*
D03*
X620857Y6379D02*
D03*
X50858D02*
D03*
X6386Y585502D02*
D03*
X500857Y6379D02*
D03*
X200858D02*
D03*
X6386Y705502D02*
D03*
X486322Y843614D02*
D03*
X6386Y755502D02*
D03*
Y695502D02*
D03*
X336322Y843614D02*
D03*
X6386Y85503D02*
D03*
X843620Y166780D02*
D03*
X6386Y485503D02*
D03*
X843620Y336780D02*
D03*
X420857Y6379D02*
D03*
X776321Y843614D02*
D03*
X843620Y466780D02*
D03*
X350857Y6379D02*
D03*
X6386Y175503D02*
D03*
X46323Y843614D02*
D03*
X696321D02*
D03*
X80858Y6379D02*
D03*
X843620Y756779D02*
D03*
Y626779D02*
D03*
X510857Y6379D02*
D03*
X760856D02*
D03*
X296322Y843614D02*
D03*
X843620Y456780D02*
D03*
X480857Y6379D02*
D03*
X656322Y843614D02*
D03*
X843620Y436780D02*
D03*
X6386Y95503D02*
D03*
X110858Y6379D02*
D03*
X843620Y736779D02*
D03*
Y246780D02*
D03*
X340857Y6379D02*
D03*
X266322Y843614D02*
D03*
X6386Y615502D02*
D03*
X70858Y6379D02*
D03*
X176323Y843614D02*
D03*
X346322D02*
D03*
X376322D02*
D03*
X616322D02*
D03*
X843620Y746779D02*
D03*
Y346780D02*
D03*
Y226780D02*
D03*
X330857Y6379D02*
D03*
X843620Y776779D02*
D03*
Y646779D02*
D03*
X6386Y575502D02*
D03*
X106323Y843614D02*
D03*
X186322D02*
D03*
X276322D02*
D03*
X306322D02*
D03*
X676322D02*
D03*
X6386Y745502D02*
D03*
Y785502D02*
D03*
X426322Y843614D02*
D03*
X370857Y6379D02*
D03*
X843620Y196780D02*
D03*
X546322Y843614D02*
D03*
X746321D02*
D03*
X843620Y576779D02*
D03*
X550857Y6379D02*
D03*
X843620Y356780D02*
D03*
X286322Y843614D02*
D03*
X576322D02*
D03*
X436322D02*
D03*
X6386Y275503D02*
D03*
Y185503D02*
D03*
X290857Y6379D02*
D03*
X6386Y765502D02*
D03*
X86323Y843614D02*
D03*
X790856Y6379D02*
D03*
X136323Y843614D02*
D03*
X156323D02*
D03*
X6386Y565503D02*
D03*
Y825502D02*
D03*
X843620Y206780D02*
D03*
Y126780D02*
D03*
Y146780D02*
D03*
X6386Y125503D02*
D03*
X240858Y6379D02*
D03*
X6386Y225503D02*
D03*
X843620Y706779D02*
D03*
X170858Y6379D02*
D03*
X536322Y843614D02*
D03*
X540857Y6379D02*
D03*
X843620Y266780D02*
D03*
Y726779D02*
D03*
X320857Y6379D02*
D03*
X770856D02*
D03*
X6386Y435503D02*
D03*
X386322Y843614D02*
D03*
X843620Y316780D02*
D03*
X6386Y165503D02*
D03*
X506322Y843614D02*
D03*
X843620Y686779D02*
D03*
Y416780D02*
D03*
X12233Y843614D02*
D03*
X590857Y6379D02*
D03*
X380857D02*
D03*
X6386Y625502D02*
D03*
X843620Y426780D02*
D03*
X6386Y535503D02*
D03*
X843620Y16781D02*
D03*
X260857Y6379D02*
D03*
X6386Y465503D02*
D03*
X816321Y843614D02*
D03*
X216322D02*
D03*
X843620Y476780D02*
D03*
X150858Y6379D02*
D03*
X450857D02*
D03*
X210858D02*
D03*
X526322Y843614D02*
D03*
X780856Y6379D02*
D03*
X606322Y843614D02*
D03*
X843620Y566779D02*
D03*
X650857Y6379D02*
D03*
X6386Y595502D02*
D03*
X230858Y6379D02*
D03*
X20858D02*
D03*
X686321Y843614D02*
D03*
X843620Y66780D02*
D03*
Y276780D02*
D03*
X6386Y815502D02*
D03*
X670857Y6379D02*
D03*
X6386Y525503D02*
D03*
X843620Y86780D02*
D03*
X356322Y843614D02*
D03*
X610857Y6379D02*
D03*
X556322Y843614D02*
D03*
X843620Y556779D02*
D03*
Y366780D02*
D03*
X586322Y843614D02*
D03*
X716321D02*
D03*
X600857Y6379D02*
D03*
X700857D02*
D03*
X843620Y786779D02*
D03*
X6386Y355503D02*
D03*
X843620Y176780D02*
D03*
X96323Y843614D02*
D03*
X6386Y455503D02*
D03*
X126323Y843614D02*
D03*
X6386Y635502D02*
D03*
X843620Y616779D02*
D03*
X560857Y6379D02*
D03*
X470857D02*
D03*
X6386Y665502D02*
D03*
Y735502D02*
D03*
Y775502D02*
D03*
X390857Y6379D02*
D03*
X30858D02*
D03*
X6386Y305503D02*
D03*
X326322Y843614D02*
D03*
X366322D02*
D03*
X630857Y6379D02*
D03*
X396322Y843614D02*
D03*
X843620Y216780D02*
D03*
X280857Y6379D02*
D03*
X440857D02*
D03*
X6386Y545503D02*
D03*
X160858Y6379D02*
D03*
X66323Y843614D02*
D03*
X843620Y186780D02*
D03*
X736321Y843614D02*
D03*
X100858Y6379D02*
D03*
X430857D02*
D03*
X843620Y156780D02*
D03*
X6386Y835502D02*
D03*
Y255503D02*
D03*
Y385503D02*
D03*
Y715502D02*
D03*
X496322Y843614D02*
D03*
X246322D02*
D03*
X843620Y306780D02*
D03*
X400857Y6379D02*
D03*
X6386Y335503D02*
D03*
X416322Y843614D02*
D03*
X730856Y6379D02*
D03*
X26323Y843614D02*
D03*
X316322D02*
D03*
X843620Y406780D02*
D03*
X660857Y6379D02*
D03*
X460857D02*
D03*
X250858D02*
D03*
X740856D02*
D03*
X6386Y405503D02*
D03*
Y425503D02*
D03*
Y645502D02*
D03*
X843620Y586779D02*
D03*
X6386Y35503D02*
D03*
X843620Y526780D02*
D03*
X836321Y843614D02*
D03*
D140*
X182186Y441939D02*
G03*
X182186Y441939I-1500J0D01*
G01*
D149*
X175134Y291299D02*
D03*
D154*
X14117Y835558D02*
D03*
D155*
X15211Y13999D02*
D03*
D156*
X834439Y14389D02*
D03*
D157*
X835453Y835831D02*
D03*
D158*
X275425Y313034D02*
D03*
Y297034D02*
D03*
D159*
X93003Y254997D02*
D03*
Y285997D02*
D03*
X118003Y254997D02*
D03*
Y285997D02*
D03*
D160*
X797143Y403424D02*
D03*
X814143D02*
D03*
X797143Y443408D02*
D03*
X814143D02*
D03*
X797180Y284480D02*
D03*
X814180D02*
D03*
X796907Y243633D02*
D03*
X813907D02*
D03*
X797143Y323456D02*
D03*
X814143D02*
D03*
X797180Y363474D02*
D03*
X814180D02*
D03*
D161*
X121513Y232996D02*
D03*
X88493D02*
D03*
D162*
X214379Y445767D02*
D03*
D163*
X585003Y35997D02*
D03*
Y83997D02*
D03*
X565003Y35997D02*
D03*
Y83997D02*
D03*
X545003Y35997D02*
D03*
Y83997D02*
D03*
X525003Y35997D02*
D03*
Y83997D02*
D03*
X505003Y35997D02*
D03*
Y83997D02*
D03*
X485003Y35997D02*
D03*
Y83997D02*
D03*
X465003Y35997D02*
D03*
Y83997D02*
D03*
X445003Y35997D02*
D03*
Y83997D02*
D03*
X425003Y35997D02*
D03*
Y83997D02*
D03*
X405003Y35997D02*
D03*
Y83997D02*
D03*
X385003Y35997D02*
D03*
Y83997D02*
D03*
X365003Y35997D02*
D03*
Y83997D02*
D03*
X345003Y35997D02*
D03*
Y83997D02*
D03*
X325003Y35997D02*
D03*
Y83997D02*
D03*
X305003Y35997D02*
D03*
Y83997D02*
D03*
X285003Y35997D02*
D03*
Y83997D02*
D03*
X265003Y35997D02*
D03*
Y83997D02*
D03*
D164*
X146881Y272555D02*
D03*
Y285255D02*
D03*
Y297955D02*
D03*
Y310655D02*
D03*
X203381Y272555D02*
D03*
Y285255D02*
D03*
Y297955D02*
D03*
Y310655D02*
D03*
M02*
