G04*
G04 #@! TF.GenerationSoftware,Altium Limited,Altium Designer,24.1.2 (44)*
G04*
G04 Layer_Color=2752767*
%FSLAX44Y44*%
%MOMM*%
G71*
G04*
G04 #@! TF.SameCoordinates,1E1B0E3F-32AE-4E86-94FA-F8EE38DC9C5D*
G04*
G04*
G04 #@! TF.FilePolarity,Positive*
G04*
G01*
G75*
%ADD19C,0.1270*%
%ADD158C,0.1693*%
D19*
X472423Y734917D02*
Y745077D01*
X482583D01*
Y734917D01*
X472423D01*
X657423D02*
Y745077D01*
X667583D01*
Y734917D01*
X657423D01*
X472423Y687417D02*
Y697577D01*
X482583D01*
Y687417D01*
X472423D01*
X657423D02*
Y697577D01*
X667583D01*
Y687417D01*
X657423D01*
X347423Y687417D02*
Y697577D01*
X357583D01*
Y687417D01*
X347423D01*
X162423D02*
Y697577D01*
X172583D01*
Y687417D01*
X162423D01*
X347423Y734917D02*
Y745077D01*
X357583D01*
Y734917D01*
X347423D01*
X162423D02*
Y745077D01*
X172583D01*
Y734917D01*
X162423D01*
X202173Y177497D02*
X207253Y182577D01*
X212333Y177497D01*
X207253Y172417D01*
X202173Y177497D01*
X215173D02*
X220253Y182577D01*
X225333Y177497D01*
X220253Y172417D01*
X215173Y177497D01*
X202173Y164497D02*
X207253Y169577D01*
X212333Y164497D01*
X207253Y159417D01*
X202173Y164497D01*
X215173D02*
X220253Y169577D01*
X225333Y164497D01*
X220253Y159417D01*
X215173Y164497D01*
X202173Y151497D02*
X207253Y156577D01*
X212333Y151497D01*
X207253Y146417D01*
X202173Y151497D01*
X215173D02*
X220253Y156577D01*
X225333Y151497D01*
X220253Y146417D01*
X215173Y151497D01*
X757623Y210317D02*
Y220477D01*
X767783D01*
Y210317D01*
X757623D01*
X759655Y212349D02*
Y218445D01*
X765751D01*
Y212349D01*
X759655D01*
X757623Y184917D02*
Y195077D01*
X767783D01*
Y184917D01*
X757623D01*
X759655Y186949D02*
Y193045D01*
X765751D01*
Y186949D01*
X759655D01*
X732223Y261117D02*
Y271277D01*
X742383D01*
Y261117D01*
X732223D01*
X734255Y263149D02*
Y269245D01*
X740351D01*
Y263149D01*
X734255D01*
X757623Y261117D02*
Y271277D01*
X767783D01*
Y261117D01*
X757623D01*
X759655Y263149D02*
Y269245D01*
X765751D01*
Y263149D01*
X759655D01*
X732223Y235717D02*
Y245877D01*
X742383D01*
Y235717D01*
X732223D01*
X734255Y237749D02*
Y243845D01*
X740351D01*
Y237749D01*
X734255D01*
X757623Y235717D02*
Y245877D01*
X767783D01*
Y235717D01*
X757623D01*
X759655Y237749D02*
Y243845D01*
X765751D01*
Y237749D01*
X759655D01*
X732223Y210317D02*
Y220477D01*
X742383D01*
Y210317D01*
X732223D01*
X734255Y212349D02*
Y218445D01*
X740351D01*
Y212349D01*
X734255D01*
X732223Y184917D02*
Y195077D01*
X742383D01*
Y184917D01*
X732223D01*
X734255Y186949D02*
Y193045D01*
X740351D01*
Y186949D01*
X734255D01*
X732223Y159517D02*
Y169677D01*
X742383D01*
Y159517D01*
X732223D01*
X734255Y161549D02*
Y167645D01*
X740351D01*
Y161549D01*
X734255D01*
X757623Y159517D02*
Y169677D01*
X767783D01*
Y159517D01*
X757623D01*
X759655Y161549D02*
Y167645D01*
X765751D01*
Y161549D01*
X759655D01*
X732223Y134117D02*
Y144277D01*
X742383D01*
Y134117D01*
X732223D01*
X734255Y136149D02*
Y142245D01*
X740351D01*
Y136149D01*
X734255D01*
X757623Y134117D02*
Y144277D01*
X767783D01*
Y134117D01*
X757623D01*
X759655Y136149D02*
Y142245D01*
X765751D01*
Y136149D01*
X759655D01*
X732223Y108717D02*
Y118877D01*
X742383D01*
Y108717D01*
X732223D01*
X734255Y110749D02*
Y116845D01*
X740351D01*
Y110749D01*
X734255D01*
X757623Y108717D02*
Y118877D01*
X767783D01*
Y108717D01*
X757623D01*
X759655Y110749D02*
Y116845D01*
X765751D01*
Y110749D01*
X759655D01*
X602423Y31117D02*
Y41277D01*
X612583D01*
Y31117D01*
X602423D01*
X237423Y78717D02*
Y88877D01*
X247583D01*
Y78717D01*
X237423D01*
X602423D02*
Y88877D01*
X612583D01*
Y78717D01*
X602423D01*
X237423Y31117D02*
Y41277D01*
X247583D01*
Y31117D01*
X237423D01*
X19563Y47357D02*
X22103Y49897D01*
X24643D01*
X22103Y52437D01*
X24643Y54977D01*
X22103D01*
X19563Y57517D01*
X17023Y54977D01*
X14483D01*
X17023Y52437D01*
X14483Y49897D01*
X17023D01*
X19563Y47357D01*
X52443Y14477D02*
X54983Y17017D01*
X57523D01*
X54983Y19557D01*
X57523Y22097D01*
X54983D01*
X52443Y24637D01*
X49903Y22097D01*
X47363D01*
X49903Y19557D01*
X47363Y17017D01*
X49903D01*
X52443Y14477D01*
X19563D02*
X22103Y17017D01*
X24643D01*
X22103Y19557D01*
X24643Y22097D01*
X22103D01*
X19563Y24637D01*
X17023Y22097D01*
X14483D01*
X17023Y19557D01*
X14483Y17017D01*
X17023D01*
X19563Y14477D01*
X52443Y47357D02*
X54983Y49897D01*
X57523D01*
X54983Y52437D01*
X57523Y54977D01*
X54983D01*
X52443Y57517D01*
X49903Y54977D01*
X47363D01*
X49903Y52437D01*
X47363Y49897D01*
X49903D01*
X52443Y47357D01*
X59253Y30917D02*
X61793Y33457D01*
X64333D01*
X61793Y35997D01*
X64333Y38537D01*
X61793D01*
X59253Y41077D01*
X56713Y38537D01*
X54173D01*
X56713Y35997D01*
X54173Y33457D01*
X56713D01*
X59253Y30917D01*
X36003Y8057D02*
X38543Y10597D01*
X41083D01*
X38543Y13137D01*
X41083Y15677D01*
X38543D01*
X36003Y18217D01*
X33463Y15677D01*
X30923D01*
X33463Y13137D01*
X30923Y10597D01*
X33463D01*
X36003Y8057D01*
X12753Y30917D02*
X15293Y33457D01*
X17833D01*
X15293Y35997D01*
X17833Y38537D01*
X15293D01*
X12753Y41077D01*
X10213Y38537D01*
X7673D01*
X10213Y35997D01*
X7673Y33457D01*
X10213D01*
X12753Y30917D01*
X36003Y54167D02*
X38543Y56707D01*
X41083D01*
X38543Y59247D01*
X41083Y61787D01*
X38543D01*
X36003Y64327D01*
X33463Y61787D01*
X30923D01*
X33463Y59247D01*
X30923Y56707D01*
X33463D01*
X36003Y54167D01*
Y30917D02*
X30923Y41077D01*
X41083D01*
X36003Y30917D01*
X797563Y47357D02*
X800103Y49897D01*
X802643D01*
X800103Y52437D01*
X802643Y54977D01*
X800103D01*
X797563Y57517D01*
X795023Y54977D01*
X792483D01*
X795023Y52437D01*
X792483Y49897D01*
X795023D01*
X797563Y47357D01*
X830443Y14477D02*
X832983Y17017D01*
X835523D01*
X832983Y19557D01*
X835523Y22097D01*
X832983D01*
X830443Y24637D01*
X827903Y22097D01*
X825363D01*
X827903Y19557D01*
X825363Y17017D01*
X827903D01*
X830443Y14477D01*
X797563D02*
X800103Y17017D01*
X802643D01*
X800103Y19557D01*
X802643Y22097D01*
X800103D01*
X797563Y24637D01*
X795023Y22097D01*
X792483D01*
X795023Y19557D01*
X792483Y17017D01*
X795023D01*
X797563Y14477D01*
X830443Y47357D02*
X832983Y49897D01*
X835523D01*
X832983Y52437D01*
X835523Y54977D01*
X832983D01*
X830443Y57517D01*
X827903Y54977D01*
X825363D01*
X827903Y52437D01*
X825363Y49897D01*
X827903D01*
X830443Y47357D01*
X837253Y30917D02*
X839793Y33457D01*
X842333D01*
X839793Y35997D01*
X842333Y38537D01*
X839793D01*
X837253Y41077D01*
X834713Y38537D01*
X832173D01*
X834713Y35997D01*
X832173Y33457D01*
X834713D01*
X837253Y30917D01*
X814003Y8057D02*
X816543Y10597D01*
X819083D01*
X816543Y13137D01*
X819083Y15677D01*
X816543D01*
X814003Y18217D01*
X811463Y15677D01*
X808923D01*
X811463Y13137D01*
X808923Y10597D01*
X811463D01*
X814003Y8057D01*
X790753Y30917D02*
X793293Y33457D01*
X795833D01*
X793293Y35997D01*
X795833Y38537D01*
X793293D01*
X790753Y41077D01*
X788213Y38537D01*
X785673D01*
X788213Y35997D01*
X785673Y33457D01*
X788213D01*
X790753Y30917D01*
X814003Y54167D02*
X816543Y56707D01*
X819083D01*
X816543Y59247D01*
X819083Y61787D01*
X816543D01*
X814003Y64327D01*
X811463Y61787D01*
X808923D01*
X811463Y59247D01*
X808923Y56707D01*
X811463D01*
X814003Y54167D01*
Y30917D02*
X808923Y41077D01*
X819083D01*
X814003Y30917D01*
X19563Y825357D02*
X22103Y827897D01*
X24643D01*
X22103Y830437D01*
X24643Y832977D01*
X22103D01*
X19563Y835517D01*
X17023Y832977D01*
X14483D01*
X17023Y830437D01*
X14483Y827897D01*
X17023D01*
X19563Y825357D01*
X52443Y792477D02*
X54983Y795017D01*
X57523D01*
X54983Y797557D01*
X57523Y800097D01*
X54983D01*
X52443Y802637D01*
X49903Y800097D01*
X47363D01*
X49903Y797557D01*
X47363Y795017D01*
X49903D01*
X52443Y792477D01*
X19563D02*
X22103Y795017D01*
X24643D01*
X22103Y797557D01*
X24643Y800097D01*
X22103D01*
X19563Y802637D01*
X17023Y800097D01*
X14483D01*
X17023Y797557D01*
X14483Y795017D01*
X17023D01*
X19563Y792477D01*
X52443Y825357D02*
X54983Y827897D01*
X57523D01*
X54983Y830437D01*
X57523Y832977D01*
X54983D01*
X52443Y835517D01*
X49903Y832977D01*
X47363D01*
X49903Y830437D01*
X47363Y827897D01*
X49903D01*
X52443Y825357D01*
X59253Y808917D02*
X61793Y811457D01*
X64333D01*
X61793Y813997D01*
X64333Y816537D01*
X61793D01*
X59253Y819077D01*
X56713Y816537D01*
X54173D01*
X56713Y813997D01*
X54173Y811457D01*
X56713D01*
X59253Y808917D01*
X36003Y786057D02*
X38543Y788597D01*
X41083D01*
X38543Y791137D01*
X41083Y793677D01*
X38543D01*
X36003Y796217D01*
X33463Y793677D01*
X30923D01*
X33463Y791137D01*
X30923Y788597D01*
X33463D01*
X36003Y786057D01*
X12753Y808917D02*
X15293Y811457D01*
X17833D01*
X15293Y813997D01*
X17833Y816537D01*
X15293D01*
X12753Y819077D01*
X10213Y816537D01*
X7673D01*
X10213Y813997D01*
X7673Y811457D01*
X10213D01*
X12753Y808917D01*
X36003Y832167D02*
X38543Y834707D01*
X41083D01*
X38543Y837247D01*
X41083Y839787D01*
X38543D01*
X36003Y842327D01*
X33463Y839787D01*
X30923D01*
X33463Y837247D01*
X30923Y834707D01*
X33463D01*
X36003Y832167D01*
Y808917D02*
X30923Y819077D01*
X41083D01*
X36003Y808917D01*
X797563Y825357D02*
X800103Y827897D01*
X802643D01*
X800103Y830437D01*
X802643Y832977D01*
X800103D01*
X797563Y835517D01*
X795023Y832977D01*
X792483D01*
X795023Y830437D01*
X792483Y827897D01*
X795023D01*
X797563Y825357D01*
X830443Y792477D02*
X832983Y795017D01*
X835523D01*
X832983Y797557D01*
X835523Y800097D01*
X832983D01*
X830443Y802637D01*
X827903Y800097D01*
X825363D01*
X827903Y797557D01*
X825363Y795017D01*
X827903D01*
X830443Y792477D01*
X797563D02*
X800103Y795017D01*
X802643D01*
X800103Y797557D01*
X802643Y800097D01*
X800103D01*
X797563Y802637D01*
X795023Y800097D01*
X792483D01*
X795023Y797557D01*
X792483Y795017D01*
X795023D01*
X797563Y792477D01*
X830443Y825357D02*
X832983Y827897D01*
X835523D01*
X832983Y830437D01*
X835523Y832977D01*
X832983D01*
X830443Y835517D01*
X827903Y832977D01*
X825363D01*
X827903Y830437D01*
X825363Y827897D01*
X827903D01*
X830443Y825357D01*
X837253Y808917D02*
X839793Y811457D01*
X842333D01*
X839793Y813997D01*
X842333Y816537D01*
X839793D01*
X837253Y819077D01*
X834713Y816537D01*
X832173D01*
X834713Y813997D01*
X832173Y811457D01*
X834713D01*
X837253Y808917D01*
X814003Y786057D02*
X816543Y788597D01*
X819083D01*
X816543Y791137D01*
X819083Y793677D01*
X816543D01*
X814003Y796217D01*
X811463Y793677D01*
X808923D01*
X811463Y791137D01*
X808923Y788597D01*
X811463D01*
X814003Y786057D01*
X790753Y808917D02*
X793293Y811457D01*
X795833D01*
X793293Y813997D01*
X795833Y816537D01*
X793293D01*
X790753Y819077D01*
X788213Y816537D01*
X785673D01*
X788213Y813997D01*
X785673Y811457D01*
X788213D01*
X790753Y808917D01*
X814003Y832167D02*
X816543Y834707D01*
X819083D01*
X816543Y837247D01*
X819083Y839787D01*
X816543D01*
X814003Y842327D01*
X811463Y839787D01*
X808923D01*
X811463Y837247D01*
X808923Y834707D01*
X811463D01*
X814003Y832167D01*
Y808917D02*
X808923Y819077D01*
X819083D01*
X814003Y808917D01*
X831241Y843614D02*
X836321Y848694D01*
X841401Y843614D01*
X836321Y838534D01*
X831241Y843614D01*
X838540Y526780D02*
X843620Y531860D01*
X848700Y526780D01*
X843620Y521699D01*
X838540Y526780D01*
X1306Y35503D02*
X6386Y40584D01*
X11466Y35503D01*
X6386Y30424D01*
X1306Y35503D01*
X838540Y586779D02*
X843620Y591859D01*
X848700Y586779D01*
X843620Y581699D01*
X838540Y586779D01*
X1306Y645502D02*
X6386Y650582D01*
X11466Y645502D01*
X6386Y640422D01*
X1306Y645502D01*
Y425503D02*
X6386Y430583D01*
X11466Y425503D01*
X6386Y420423D01*
X1306Y425503D01*
Y405503D02*
X6386Y410583D01*
X11466Y405503D01*
X6386Y400423D01*
X1306Y405503D01*
X735777Y6379D02*
X740856Y11459D01*
X745937Y6379D01*
X740856Y1299D01*
X735777Y6379D01*
X245777D02*
X250858Y11459D01*
X255938Y6379D01*
X250858Y1299D01*
X245777Y6379D01*
X455777D02*
X460857Y11459D01*
X465937Y6379D01*
X460857Y1299D01*
X455777Y6379D01*
X655777D02*
X660857Y11459D01*
X665937Y6379D01*
X660857Y1299D01*
X655777Y6379D01*
X838540Y406780D02*
X843620Y411860D01*
X848700Y406780D01*
X843620Y401700D01*
X838540Y406780D01*
X311242Y843614D02*
X316322Y848694D01*
X321402Y843614D01*
X316322Y838534D01*
X311242Y843614D01*
X21243D02*
X26323Y848694D01*
X31403Y843614D01*
X26323Y838534D01*
X21243Y843614D01*
X725777Y6379D02*
X730856Y11459D01*
X735937Y6379D01*
X730856Y1299D01*
X725777Y6379D01*
X411242Y843614D02*
X416322Y848694D01*
X421402Y843614D01*
X416322Y838534D01*
X411242Y843614D01*
X1306Y335503D02*
X6386Y340583D01*
X11466Y335503D01*
X6386Y330423D01*
X1306Y335503D01*
X395777Y6379D02*
X400857Y11459D01*
X405937Y6379D01*
X400857Y1299D01*
X395777Y6379D01*
X838540Y306780D02*
X843620Y311860D01*
X848700Y306780D01*
X843620Y301700D01*
X838540Y306780D01*
X241242Y843614D02*
X246322Y848694D01*
X251402Y843614D01*
X246322Y838534D01*
X241242Y843614D01*
X491242D02*
X496322Y848694D01*
X501402Y843614D01*
X496322Y838534D01*
X491242Y843614D01*
X1306Y715502D02*
X6386Y720582D01*
X11466Y715502D01*
X6386Y710422D01*
X1306Y715502D01*
Y385503D02*
X6386Y390583D01*
X11466Y385503D01*
X6386Y380423D01*
X1306Y385503D01*
Y255503D02*
X6386Y260583D01*
X11466Y255503D01*
X6386Y250423D01*
X1306Y255503D01*
Y835502D02*
X6386Y840582D01*
X11466Y835502D01*
X6386Y830422D01*
X1306Y835502D01*
X838540Y156780D02*
X843620Y161860D01*
X848700Y156780D01*
X843620Y151700D01*
X838540Y156780D01*
X801241Y843614D02*
X806321Y848694D01*
X811401Y843614D01*
X806321Y838534D01*
X801241Y843614D01*
X425777Y6379D02*
X430857Y11459D01*
X435937Y6379D01*
X430857Y1299D01*
X425777Y6379D01*
X95778D02*
X100858Y11459D01*
X105938Y6379D01*
X100858Y1299D01*
X95778Y6379D01*
X731241Y843614D02*
X736321Y848694D01*
X741401Y843614D01*
X736321Y838534D01*
X731241Y843614D01*
X838540Y186780D02*
X843620Y191860D01*
X848700Y186780D01*
X843620Y181700D01*
X838540Y186780D01*
X61243Y843614D02*
X66323Y848694D01*
X71403Y843614D01*
X66323Y838534D01*
X61243Y843614D01*
X155778Y6379D02*
X160858Y11459D01*
X165938Y6379D01*
X160858Y1299D01*
X155778Y6379D01*
X1306Y545503D02*
X6386Y550583D01*
X11466Y545503D01*
X6386Y540423D01*
X1306Y545503D01*
X435777Y6379D02*
X440857Y11459D01*
X445937Y6379D01*
X440857Y1299D01*
X435777Y6379D01*
X275777D02*
X280857Y11459D01*
X285937Y6379D01*
X280857Y1299D01*
X275777Y6379D01*
X838540Y216780D02*
X843620Y221860D01*
X848700Y216780D01*
X843620Y211700D01*
X838540Y216780D01*
X391242Y843614D02*
X396322Y848694D01*
X401402Y843614D01*
X396322Y838534D01*
X391242Y843614D01*
X625777Y6379D02*
X630857Y11459D01*
X635937Y6379D01*
X630857Y1299D01*
X625777Y6379D01*
X361242Y843614D02*
X366322Y848694D01*
X371402Y843614D01*
X366322Y838534D01*
X361242Y843614D01*
X321242D02*
X326322Y848694D01*
X331402Y843614D01*
X326322Y838534D01*
X321242Y843614D01*
X1306Y305503D02*
X6386Y310583D01*
X11466Y305503D01*
X6386Y300423D01*
X1306Y305503D01*
X25778Y6379D02*
X30858Y11459D01*
X35938Y6379D01*
X30858Y1299D01*
X25778Y6379D01*
X385777D02*
X390857Y11459D01*
X395937Y6379D01*
X390857Y1299D01*
X385777Y6379D01*
X1306Y775502D02*
X6386Y780582D01*
X11466Y775502D01*
X6386Y770422D01*
X1306Y775502D01*
Y735502D02*
X6386Y740582D01*
X11466Y735502D01*
X6386Y730422D01*
X1306Y735502D01*
Y665502D02*
X6386Y670582D01*
X11466Y665502D01*
X6386Y660422D01*
X1306Y665502D01*
X465777Y6379D02*
X470857Y11459D01*
X475937Y6379D01*
X470857Y1299D01*
X465777Y6379D01*
X555777D02*
X560857Y11459D01*
X565937Y6379D01*
X560857Y1299D01*
X555777Y6379D01*
X838540Y616779D02*
X843620Y621859D01*
X848700Y616779D01*
X843620Y611699D01*
X838540Y616779D01*
X1306Y635502D02*
X6386Y640582D01*
X11466Y635502D01*
X6386Y630422D01*
X1306Y635502D01*
X121243Y843614D02*
X126323Y848694D01*
X131403Y843614D01*
X126323Y838534D01*
X121243Y843614D01*
X1306Y455503D02*
X6386Y460583D01*
X11466Y455503D01*
X6386Y450423D01*
X1306Y455503D01*
X91243Y843614D02*
X96323Y848694D01*
X101403Y843614D01*
X96323Y838534D01*
X91243Y843614D01*
X838540Y176780D02*
X843620Y181860D01*
X848700Y176780D01*
X843620Y171700D01*
X838540Y176780D01*
X1306Y355503D02*
X6386Y360583D01*
X11466Y355503D01*
X6386Y350423D01*
X1306Y355503D01*
X838540Y786779D02*
X843620Y791859D01*
X848700Y786779D01*
X843620Y781699D01*
X838540Y786779D01*
X695777Y6379D02*
X700857Y11459D01*
X705937Y6379D01*
X700857Y1299D01*
X695777Y6379D01*
X595777D02*
X600857Y11459D01*
X605937Y6379D01*
X600857Y1299D01*
X595777Y6379D01*
X711242Y843614D02*
X716321Y848694D01*
X721402Y843614D01*
X716321Y838534D01*
X711242Y843614D01*
X581242D02*
X586322Y848694D01*
X591402Y843614D01*
X586322Y838534D01*
X581242Y843614D01*
X838540Y366780D02*
X843620Y371860D01*
X848700Y366780D01*
X843620Y361700D01*
X838540Y366780D01*
Y556779D02*
X843620Y561859D01*
X848700Y556779D01*
X843620Y551699D01*
X838540Y556779D01*
X551242Y843614D02*
X556322Y848694D01*
X561402Y843614D01*
X556322Y838534D01*
X551242Y843614D01*
X605777Y6379D02*
X610857Y11459D01*
X615937Y6379D01*
X610857Y1299D01*
X605777Y6379D01*
X351242Y843614D02*
X356322Y848694D01*
X361402Y843614D01*
X356322Y838534D01*
X351242Y843614D01*
X838540Y86780D02*
X843620Y91860D01*
X848700Y86780D01*
X843620Y81700D01*
X838540Y86780D01*
X1306Y525503D02*
X6386Y530583D01*
X11466Y525503D01*
X6386Y520423D01*
X1306Y525503D01*
X665777Y6379D02*
X670857Y11459D01*
X675937Y6379D01*
X670857Y1299D01*
X665777Y6379D01*
X1306Y815502D02*
X6386Y820582D01*
X11466Y815502D01*
X6386Y810422D01*
X1306Y815502D01*
X838540Y276780D02*
X843620Y281860D01*
X848700Y276780D01*
X843620Y271700D01*
X838540Y276780D01*
Y66780D02*
X843620Y71860D01*
X848700Y66780D01*
X843620Y61700D01*
X838540Y66780D01*
X681242Y843614D02*
X686321Y848694D01*
X691402Y843614D01*
X686321Y838534D01*
X681242Y843614D01*
X15778Y6379D02*
X20858Y11459D01*
X25938Y6379D01*
X20858Y1299D01*
X15778Y6379D01*
X225777D02*
X230858Y11459D01*
X235938Y6379D01*
X230858Y1299D01*
X225777Y6379D01*
X1306Y595502D02*
X6386Y600582D01*
X11466Y595502D01*
X6386Y590422D01*
X1306Y595502D01*
X645777Y6379D02*
X650857Y11459D01*
X655937Y6379D01*
X650857Y1299D01*
X645777Y6379D01*
X838540Y566779D02*
X843620Y571859D01*
X848700Y566779D01*
X843620Y561699D01*
X838540Y566779D01*
X601242Y843614D02*
X606322Y848694D01*
X611402Y843614D01*
X606322Y838534D01*
X601242Y843614D01*
X775776Y6379D02*
X780856Y11459D01*
X785936Y6379D01*
X780856Y1299D01*
X775776Y6379D01*
X521242Y843614D02*
X526322Y848694D01*
X531402Y843614D01*
X526322Y838534D01*
X521242Y843614D01*
X205777Y6379D02*
X210858Y11459D01*
X215938Y6379D01*
X210858Y1299D01*
X205777Y6379D01*
X445777D02*
X450857Y11459D01*
X455937Y6379D01*
X450857Y1299D01*
X445777Y6379D01*
X1306Y795502D02*
X6386Y800582D01*
X11466Y795502D01*
X6386Y790422D01*
X1306Y795502D01*
X145778Y6379D02*
X150858Y11459D01*
X155938Y6379D01*
X150858Y1299D01*
X145778Y6379D01*
X838540Y476780D02*
X843620Y481860D01*
X848700Y476780D01*
X843620Y471700D01*
X838540Y476780D01*
X211243Y843614D02*
X216322Y848694D01*
X221402Y843614D01*
X216322Y838534D01*
X211243Y843614D01*
X811241D02*
X816321Y848694D01*
X821401Y843614D01*
X816321Y838534D01*
X811241Y843614D01*
X1306Y465503D02*
X6386Y470583D01*
X11466Y465503D01*
X6386Y460423D01*
X1306Y465503D01*
X255777Y6379D02*
X260857Y11459D01*
X265937Y6379D01*
X260857Y1299D01*
X255777Y6379D01*
X838540Y16781D02*
X843620Y21860D01*
X848700Y16781D01*
X843620Y11701D01*
X838540Y16781D01*
X1306Y535503D02*
X6386Y540583D01*
X11466Y535503D01*
X6386Y530423D01*
X1306Y535503D01*
X838540Y426780D02*
X843620Y431860D01*
X848700Y426780D01*
X843620Y421700D01*
X838540Y426780D01*
X1306Y625502D02*
X6386Y630582D01*
X11466Y625502D01*
X6386Y620422D01*
X1306Y625502D01*
X375777Y6379D02*
X380857Y11459D01*
X385937Y6379D01*
X380857Y1299D01*
X375777Y6379D01*
X585777D02*
X590857Y11459D01*
X595937Y6379D01*
X590857Y1299D01*
X585777Y6379D01*
X7153Y843614D02*
X12233Y848694D01*
X17313Y843614D01*
X12233Y838534D01*
X7153Y843614D01*
X838540Y416780D02*
X843620Y421860D01*
X848700Y416780D01*
X843620Y411700D01*
X838540Y416780D01*
Y686779D02*
X843620Y691859D01*
X848700Y686779D01*
X843620Y681699D01*
X838540Y686779D01*
X501242Y843614D02*
X506322Y848694D01*
X511402Y843614D01*
X506322Y838534D01*
X501242Y843614D01*
X1306Y165503D02*
X6386Y170583D01*
X11466Y165503D01*
X6386Y160423D01*
X1306Y165503D01*
X838540Y316780D02*
X843620Y321860D01*
X848700Y316780D01*
X843620Y311700D01*
X838540Y316780D01*
X381242Y843614D02*
X386322Y848694D01*
X391402Y843614D01*
X386322Y838534D01*
X381242Y843614D01*
X1306Y435503D02*
X6386Y440583D01*
X11466Y435503D01*
X6386Y430423D01*
X1306Y435503D01*
X765776Y6379D02*
X770856Y11459D01*
X775936Y6379D01*
X770856Y1299D01*
X765776Y6379D01*
X315777D02*
X320857Y11459D01*
X325937Y6379D01*
X320857Y1299D01*
X315777Y6379D01*
X838540Y726779D02*
X843620Y731859D01*
X848700Y726779D01*
X843620Y721699D01*
X838540Y726779D01*
Y266780D02*
X843620Y271860D01*
X848700Y266780D01*
X843620Y261700D01*
X838540Y266780D01*
X535777Y6379D02*
X540857Y11459D01*
X545937Y6379D01*
X540857Y1299D01*
X535777Y6379D01*
X531242Y843614D02*
X536322Y848694D01*
X541402Y843614D01*
X536322Y838534D01*
X531242Y843614D01*
X165778Y6379D02*
X170858Y11459D01*
X175938Y6379D01*
X170858Y1299D01*
X165778Y6379D01*
X825776D02*
X830856Y11459D01*
X835936Y6379D01*
X830856Y1299D01*
X825776Y6379D01*
X838540Y706779D02*
X843620Y711859D01*
X848700Y706779D01*
X843620Y701699D01*
X838540Y706779D01*
X1306Y225503D02*
X6386Y230583D01*
X11466Y225503D01*
X6386Y220423D01*
X1306Y225503D01*
X235777Y6379D02*
X240858Y11459D01*
X245938Y6379D01*
X240858Y1299D01*
X235777Y6379D01*
X838540Y806779D02*
X843620Y811859D01*
X848700Y806779D01*
X843620Y801699D01*
X838540Y806779D01*
X1306Y125503D02*
X6386Y130583D01*
X11466Y125503D01*
X6386Y120423D01*
X1306Y125503D01*
X838540Y146780D02*
X843620Y151860D01*
X848700Y146780D01*
X843620Y141700D01*
X838540Y146780D01*
Y126780D02*
X843620Y131860D01*
X848700Y126780D01*
X843620Y121700D01*
X838540Y126780D01*
Y206780D02*
X843620Y211860D01*
X848700Y206780D01*
X843620Y201700D01*
X838540Y206780D01*
X1306Y825502D02*
X6386Y830582D01*
X11466Y825502D01*
X6386Y820422D01*
X1306Y825502D01*
Y565503D02*
X6386Y570583D01*
X11466Y565503D01*
X6386Y560423D01*
X1306Y565503D01*
X151243Y843614D02*
X156323Y848694D01*
X161403Y843614D01*
X156323Y838534D01*
X151243Y843614D01*
X131243D02*
X136323Y848694D01*
X141403Y843614D01*
X136323Y838534D01*
X131243Y843614D01*
X785776Y6379D02*
X790856Y11459D01*
X795936Y6379D01*
X790856Y1299D01*
X785776Y6379D01*
X81243Y843614D02*
X86323Y848694D01*
X91403Y843614D01*
X86323Y838534D01*
X81243Y843614D01*
X1306Y765502D02*
X6386Y770582D01*
X11466Y765502D01*
X6386Y760422D01*
X1306Y765502D01*
X285777Y6379D02*
X290857Y11459D01*
X295937Y6379D01*
X290857Y1299D01*
X285777Y6379D01*
X1306Y185503D02*
X6386Y190583D01*
X11466Y185503D01*
X6386Y180423D01*
X1306Y185503D01*
Y275503D02*
X6386Y280583D01*
X11466Y275503D01*
X6386Y270423D01*
X1306Y275503D01*
X431242Y843614D02*
X436322Y848694D01*
X441402Y843614D01*
X436322Y838534D01*
X431242Y843614D01*
X571242D02*
X576322Y848694D01*
X581402Y843614D01*
X576322Y838534D01*
X571242Y843614D01*
X815776Y6379D02*
X820856Y11459D01*
X825936Y6379D01*
X820856Y1299D01*
X815776Y6379D01*
X281242Y843614D02*
X286322Y848694D01*
X291402Y843614D01*
X286322Y838534D01*
X281242Y843614D01*
X838540Y356780D02*
X843620Y361860D01*
X848700Y356780D01*
X843620Y351700D01*
X838540Y356780D01*
X545777Y6379D02*
X550857Y11459D01*
X555937Y6379D01*
X550857Y1299D01*
X545777Y6379D01*
X838540Y576779D02*
X843620Y581859D01*
X848700Y576779D01*
X843620Y571699D01*
X838540Y576779D01*
X741241Y843614D02*
X746321Y848694D01*
X751401Y843614D01*
X746321Y838534D01*
X741241Y843614D01*
X541242D02*
X546322Y848694D01*
X551402Y843614D01*
X546322Y838534D01*
X541242Y843614D01*
X838540Y196780D02*
X843620Y201860D01*
X848700Y196780D01*
X843620Y191700D01*
X838540Y196780D01*
X365777Y6379D02*
X370857Y11459D01*
X375937Y6379D01*
X370857Y1299D01*
X365777Y6379D01*
X421242Y843614D02*
X426322Y848694D01*
X431402Y843614D01*
X426322Y838534D01*
X421242Y843614D01*
X1306Y785502D02*
X6386Y790582D01*
X11466Y785502D01*
X6386Y780422D01*
X1306Y785502D01*
Y745502D02*
X6386Y750582D01*
X11466Y745502D01*
X6386Y740422D01*
X1306Y745502D01*
X671242Y843614D02*
X676322Y848694D01*
X681402Y843614D01*
X676322Y838534D01*
X671242Y843614D01*
X301242D02*
X306322Y848694D01*
X311402Y843614D01*
X306322Y838534D01*
X301242Y843614D01*
X271242D02*
X276322Y848694D01*
X281402Y843614D01*
X276322Y838534D01*
X271242Y843614D01*
X181243D02*
X186322Y848694D01*
X191402Y843614D01*
X186322Y838534D01*
X181243Y843614D01*
X101243D02*
X106323Y848694D01*
X111403Y843614D01*
X106323Y838534D01*
X101243Y843614D01*
X1306Y575502D02*
X6386Y580582D01*
X11466Y575502D01*
X6386Y570422D01*
X1306Y575502D01*
X838540Y646779D02*
X843620Y651859D01*
X848700Y646779D01*
X843620Y641699D01*
X838540Y646779D01*
Y776779D02*
X843620Y781859D01*
X848700Y776779D01*
X843620Y771699D01*
X838540Y776779D01*
X325777Y6379D02*
X330857Y11459D01*
X335937Y6379D01*
X330857Y1299D01*
X325777Y6379D01*
X838540Y226780D02*
X843620Y231860D01*
X848700Y226780D01*
X843620Y221700D01*
X838540Y226780D01*
Y346780D02*
X843620Y351860D01*
X848700Y346780D01*
X843620Y341700D01*
X838540Y346780D01*
Y746779D02*
X843620Y751859D01*
X848700Y746779D01*
X843620Y741699D01*
X838540Y746779D01*
X611242Y843614D02*
X616322Y848694D01*
X621402Y843614D01*
X616322Y838534D01*
X611242Y843614D01*
X371242D02*
X376322Y848694D01*
X381402Y843614D01*
X376322Y838534D01*
X371242Y843614D01*
X791241D02*
X796321Y848694D01*
X801401Y843614D01*
X796321Y838534D01*
X791241Y843614D01*
X341242D02*
X346322Y848694D01*
X351402Y843614D01*
X346322Y838534D01*
X341242Y843614D01*
X171243D02*
X176323Y848694D01*
X181403Y843614D01*
X176323Y838534D01*
X171243Y843614D01*
X65778Y6379D02*
X70858Y11459D01*
X75938Y6379D01*
X70858Y1299D01*
X65778Y6379D01*
X1306Y615502D02*
X6386Y620582D01*
X11466Y615502D01*
X6386Y610422D01*
X1306Y615502D01*
X261242Y843614D02*
X266322Y848694D01*
X271402Y843614D01*
X266322Y838534D01*
X261242Y843614D01*
X335777Y6379D02*
X340857Y11459D01*
X345937Y6379D01*
X340857Y1299D01*
X335777Y6379D01*
X838540Y246780D02*
X843620Y251860D01*
X848700Y246780D01*
X843620Y241700D01*
X838540Y246780D01*
Y736779D02*
X843620Y741859D01*
X848700Y736779D01*
X843620Y731699D01*
X838540Y736779D01*
X105778Y6379D02*
X110858Y11459D01*
X115938Y6379D01*
X110858Y1299D01*
X105778Y6379D01*
X1306Y95503D02*
X6386Y100583D01*
X11466Y95503D01*
X6386Y90423D01*
X1306Y95503D01*
X838540Y436780D02*
X843620Y441860D01*
X848700Y436780D01*
X843620Y431700D01*
X838540Y436780D01*
X651242Y843614D02*
X656322Y848694D01*
X661402Y843614D01*
X656322Y838534D01*
X651242Y843614D01*
X475777Y6379D02*
X480857Y11459D01*
X485937Y6379D01*
X480857Y1299D01*
X475777Y6379D01*
X838540Y456780D02*
X843620Y461860D01*
X848700Y456780D01*
X843620Y451700D01*
X838540Y456780D01*
X291242Y843614D02*
X296322Y848694D01*
X301402Y843614D01*
X296322Y838534D01*
X291242Y843614D01*
X755776Y6379D02*
X760856Y11459D01*
X765936Y6379D01*
X760856Y1299D01*
X755776Y6379D01*
X505777D02*
X510857Y11459D01*
X515937Y6379D01*
X510857Y1299D01*
X505777Y6379D01*
X838540Y626779D02*
X843620Y631859D01*
X848700Y626779D01*
X843620Y621699D01*
X838540Y626779D01*
Y756779D02*
X843620Y761859D01*
X848700Y756779D01*
X843620Y751699D01*
X838540Y756779D01*
X75778Y6379D02*
X80858Y11459D01*
X85938Y6379D01*
X80858Y1299D01*
X75778Y6379D01*
X691242Y843614D02*
X696321Y848694D01*
X701402Y843614D01*
X696321Y838534D01*
X691242Y843614D01*
X41243D02*
X46323Y848694D01*
X51403Y843614D01*
X46323Y838534D01*
X41243Y843614D01*
X1306Y175503D02*
X6386Y180583D01*
X11466Y175503D01*
X6386Y170423D01*
X1306Y175503D01*
X345777Y6379D02*
X350857Y11459D01*
X355937Y6379D01*
X350857Y1299D01*
X345777Y6379D01*
X838540Y466780D02*
X843620Y471860D01*
X848700Y466780D01*
X843620Y461700D01*
X838540Y466780D01*
X771241Y843614D02*
X776321Y848694D01*
X781401Y843614D01*
X776321Y838534D01*
X771241Y843614D01*
X415777Y6379D02*
X420857Y11459D01*
X425937Y6379D01*
X420857Y1299D01*
X415777Y6379D01*
X838540Y336780D02*
X843620Y341860D01*
X848700Y336780D01*
X843620Y331700D01*
X838540Y336780D01*
X1306Y485503D02*
X6386Y490583D01*
X11466Y485503D01*
X6386Y480423D01*
X1306Y485503D01*
X838540Y166780D02*
X843620Y171860D01*
X848700Y166780D01*
X843620Y161700D01*
X838540Y166780D01*
X1306Y85503D02*
X6386Y90583D01*
X11466Y85503D01*
X6386Y80423D01*
X1306Y85503D01*
X331242Y843614D02*
X336322Y848694D01*
X341402Y843614D01*
X336322Y838534D01*
X331242Y843614D01*
X1306Y695502D02*
X6386Y700582D01*
X11466Y695502D01*
X6386Y690422D01*
X1306Y695502D01*
Y755502D02*
X6386Y760582D01*
X11466Y755502D01*
X6386Y750422D01*
X1306Y755502D01*
X481242Y843614D02*
X486322Y848694D01*
X491402Y843614D01*
X486322Y838534D01*
X481242Y843614D01*
X1306Y705502D02*
X6386Y710582D01*
X11466Y705502D01*
X6386Y700422D01*
X1306Y705502D01*
X195778Y6379D02*
X200858Y11459D01*
X205938Y6379D01*
X200858Y1299D01*
X195778Y6379D01*
X495777D02*
X500857Y11459D01*
X505937Y6379D01*
X500857Y1299D01*
X495777Y6379D01*
X1306Y585502D02*
X6386Y590582D01*
X11466Y585502D01*
X6386Y580422D01*
X1306Y585502D01*
X45778Y6379D02*
X50858Y11459D01*
X55938Y6379D01*
X50858Y1299D01*
X45778Y6379D01*
X615777D02*
X620857Y11459D01*
X625937Y6379D01*
X620857Y1299D01*
X615777Y6379D01*
X838540Y296780D02*
X843620Y301860D01*
X848700Y296780D01*
X843620Y291700D01*
X838540Y296780D01*
Y116780D02*
X843620Y121860D01*
X848700Y116780D01*
X843620Y111700D01*
X838540Y116780D01*
Y796779D02*
X843620Y801859D01*
X848700Y796779D01*
X843620Y791699D01*
X838540Y796779D01*
Y506780D02*
X843620Y511860D01*
X848700Y506780D01*
X843620Y501699D01*
X838540Y506780D01*
X721242Y843614D02*
X726321Y848694D01*
X731402Y843614D01*
X726321Y838534D01*
X721242Y843614D01*
X451242D02*
X456322Y848694D01*
X461402Y843614D01*
X456322Y838534D01*
X451242Y843614D01*
X838540Y816779D02*
X843620Y821859D01*
X848700Y816779D01*
X843620Y811699D01*
X838540Y816779D01*
Y596779D02*
X843620Y601859D01*
X848700Y596779D01*
X843620Y591699D01*
X838540Y596779D01*
X781241Y843614D02*
X786321Y848694D01*
X791401Y843614D01*
X786321Y838534D01*
X781241Y843614D01*
X631242D02*
X636322Y848694D01*
X641402Y843614D01*
X636322Y838534D01*
X631242Y843614D01*
X1306Y45504D02*
X6386Y50584D01*
X11466Y45504D01*
X6386Y40423D01*
X1306Y45504D01*
X461242Y843614D02*
X466322Y848694D01*
X471402Y843614D01*
X466322Y838534D01*
X461242Y843614D01*
X838540Y46780D02*
X843620Y51860D01*
X848700Y46780D01*
X843620Y41700D01*
X838540Y46780D01*
X485777Y6379D02*
X490857Y11459D01*
X495937Y6379D01*
X490857Y1299D01*
X485777Y6379D01*
X1306Y265503D02*
X6386Y270583D01*
X11466Y265503D01*
X6386Y260423D01*
X1306Y265503D01*
Y15504D02*
X6386Y20584D01*
X11466Y15504D01*
X6386Y10424D01*
X1306Y15504D01*
X838540Y516780D02*
X843620Y521860D01*
X848700Y516780D01*
X843620Y511699D01*
X838540Y516780D01*
X561242Y843614D02*
X566322Y848694D01*
X571402Y843614D01*
X566322Y838534D01*
X561242Y843614D01*
X161243D02*
X166323Y848694D01*
X171403Y843614D01*
X166323Y838534D01*
X161243Y843614D01*
X1306Y605502D02*
X6386Y610582D01*
X11466Y605502D01*
X6386Y600422D01*
X1306Y605502D01*
X175778Y6379D02*
X180858Y11459D01*
X185938Y6379D01*
X180858Y1299D01*
X175778Y6379D01*
X1306Y155503D02*
X6386Y160583D01*
X11466Y155503D01*
X6386Y150423D01*
X1306Y155503D01*
Y105503D02*
X6386Y110583D01*
X11466Y105503D01*
X6386Y100423D01*
X1306Y105503D01*
X838540Y36780D02*
X843620Y41860D01*
X848700Y36780D01*
X843620Y31700D01*
X838540Y36780D01*
X231242Y843614D02*
X236322Y848694D01*
X241402Y843614D01*
X236322Y838534D01*
X231242Y843614D01*
X1306Y395503D02*
X6386Y400583D01*
X11466Y395503D01*
X6386Y390423D01*
X1306Y395503D01*
Y725502D02*
X6386Y730582D01*
X11466Y725502D01*
X6386Y720422D01*
X1306Y725502D01*
Y515503D02*
X6386Y520583D01*
X11466Y515503D01*
X6386Y510423D01*
X1306Y515503D01*
Y805502D02*
X6386Y810582D01*
X11466Y805502D01*
X6386Y800422D01*
X1306Y805502D01*
Y75503D02*
X6386Y80583D01*
X11466Y75503D01*
X6386Y70423D01*
X1306Y75503D01*
X641242Y843614D02*
X646322Y848694D01*
X651402Y843614D01*
X646322Y838534D01*
X641242Y843614D01*
X1306Y135503D02*
X6386Y140583D01*
X11466Y135503D01*
X6386Y130423D01*
X1306Y135503D01*
Y145503D02*
X6386Y150583D01*
X11466Y145503D01*
X6386Y140423D01*
X1306Y145503D01*
X635777Y6379D02*
X640857Y11459D01*
X645937Y6379D01*
X640857Y1299D01*
X635777Y6379D01*
X838540Y26781D02*
X843620Y31860D01*
X848700Y26781D01*
X843620Y21700D01*
X838540Y26781D01*
X355777Y6379D02*
X360857Y11459D01*
X365937Y6379D01*
X360857Y1299D01*
X355777Y6379D01*
X1306Y445503D02*
X6386Y450583D01*
X11466Y445503D01*
X6386Y440423D01*
X1306Y445503D01*
X838540Y106780D02*
X843620Y111860D01*
X848700Y106780D01*
X843620Y101700D01*
X838540Y106780D01*
X401242Y843614D02*
X406322Y848694D01*
X411402Y843614D01*
X406322Y838534D01*
X401242Y843614D01*
X251242D02*
X256322Y848694D01*
X261402Y843614D01*
X256322Y838534D01*
X251242Y843614D01*
X1306Y365503D02*
X6386Y370583D01*
X11466Y365503D01*
X6386Y360423D01*
X1306Y365503D01*
X185778Y6379D02*
X190858Y11459D01*
X195938Y6379D01*
X190858Y1299D01*
X185778Y6379D01*
X661242Y843614D02*
X666322Y848694D01*
X671402Y843614D01*
X666322Y838534D01*
X661242Y843614D01*
X1306Y295503D02*
X6386Y300583D01*
X11466Y295503D01*
X6386Y290423D01*
X1306Y295503D01*
X838540Y396780D02*
X843620Y401860D01*
X848700Y396780D01*
X843620Y391700D01*
X838540Y396780D01*
X1306Y345503D02*
X6386Y350583D01*
X11466Y345503D01*
X6386Y340423D01*
X1306Y345503D01*
X838540Y536779D02*
X843620Y541859D01*
X848700Y536779D01*
X843620Y531699D01*
X838540Y536779D01*
X55778Y6379D02*
X60858Y11459D01*
X65938Y6379D01*
X60858Y1299D01*
X55778Y6379D01*
X838540Y666779D02*
X843620Y671859D01*
X848700Y666779D01*
X843620Y661699D01*
X838540Y666779D01*
X565777Y6379D02*
X570857Y11459D01*
X575937Y6379D01*
X570857Y1299D01*
X565777Y6379D01*
X761241Y843614D02*
X766321Y848694D01*
X771401Y843614D01*
X766321Y838534D01*
X761241Y843614D01*
X51243D02*
X56323Y848694D01*
X61403Y843614D01*
X56323Y838534D01*
X51243Y843614D01*
X1306Y505503D02*
X6386Y510583D01*
X11466Y505503D01*
X6386Y500423D01*
X1306Y505503D01*
X525777Y6379D02*
X530857Y11459D01*
X535937Y6379D01*
X530857Y1299D01*
X525777Y6379D01*
X1306Y65504D02*
X6386Y70584D01*
X11466Y65504D01*
X6386Y60423D01*
X1306Y65504D01*
X265777Y6379D02*
X270857Y11459D01*
X275937Y6379D01*
X270857Y1299D01*
X265777Y6379D01*
X191243Y843614D02*
X196322Y848694D01*
X201402Y843614D01*
X196322Y838534D01*
X191243Y843614D01*
X71243D02*
X76323Y848694D01*
X81403Y843614D01*
X76323Y838534D01*
X71243Y843614D01*
X838540Y256780D02*
X843620Y261860D01*
X848700Y256780D01*
X843620Y251700D01*
X838540Y256780D01*
X1306Y495503D02*
X6386Y500583D01*
X11466Y495503D01*
X6386Y490423D01*
X1306Y495503D01*
X838540Y286780D02*
X843620Y291860D01*
X848700Y286780D01*
X843620Y281700D01*
X838540Y286780D01*
Y326780D02*
X843620Y331860D01*
X848700Y326780D01*
X843620Y321700D01*
X838540Y326780D01*
Y376780D02*
X843620Y381860D01*
X848700Y376780D01*
X843620Y371700D01*
X838540Y376780D01*
Y446780D02*
X843620Y451860D01*
X848700Y446780D01*
X843620Y441700D01*
X838540Y446780D01*
X621242Y843614D02*
X626322Y848694D01*
X631402Y843614D01*
X626322Y838534D01*
X621242Y843614D01*
X295777Y6379D02*
X300857Y11459D01*
X305937Y6379D01*
X300857Y1299D01*
X295777Y6379D01*
X1306Y55504D02*
X6386Y60584D01*
X11466Y55504D01*
X6386Y50423D01*
X1306Y55504D01*
X685777Y6379D02*
X690857Y11459D01*
X695937Y6379D01*
X690857Y1299D01*
X685777Y6379D01*
X838540Y56780D02*
X843620Y61860D01*
X848700Y56780D01*
X843620Y51700D01*
X838540Y56780D01*
Y546779D02*
X843620Y551859D01*
X848700Y546779D01*
X843620Y541699D01*
X838540Y546779D01*
Y606779D02*
X843620Y611859D01*
X848700Y606779D01*
X843620Y601699D01*
X838540Y606779D01*
X515777Y6379D02*
X520857Y11459D01*
X525937Y6379D01*
X520857Y1299D01*
X515777Y6379D01*
X745777D02*
X750856Y11459D01*
X755937Y6379D01*
X750856Y1299D01*
X745777Y6379D01*
X835744Y7179D02*
X840824Y12259D01*
X845904Y7179D01*
X840824Y2099D01*
X835744Y7179D01*
X838540Y826779D02*
X843620Y831859D01*
X848700Y826779D01*
X843620Y821699D01*
X838540Y826779D01*
X1306Y315503D02*
X6386Y320583D01*
X11466Y315503D01*
X6386Y310423D01*
X1306Y315503D01*
X795776Y6379D02*
X800856Y11459D01*
X805936Y6379D01*
X800856Y1299D01*
X795776Y6379D01*
X701242Y843614D02*
X706321Y848694D01*
X711402Y843614D01*
X706321Y838534D01*
X701242Y843614D01*
X35778Y6379D02*
X40858Y11459D01*
X45938Y6379D01*
X40858Y1299D01*
X35778Y6379D01*
X441242Y843614D02*
X446322Y848694D01*
X451402Y843614D01*
X446322Y838534D01*
X441242Y843614D01*
X838540Y696779D02*
X843620Y701859D01*
X848700Y696779D01*
X843620Y691699D01*
X838540Y696779D01*
X405777Y6379D02*
X410857Y11459D01*
X415937Y6379D01*
X410857Y1299D01*
X405777Y6379D01*
X201243Y843614D02*
X206322Y848694D01*
X211402Y843614D01*
X206322Y838534D01*
X201243Y843614D01*
X5780Y6560D02*
X10860Y11640D01*
X15940Y6560D01*
X10860Y1480D01*
X5780Y6560D01*
X838540Y656779D02*
X843620Y661859D01*
X848700Y656779D01*
X843620Y651699D01*
X838540Y656779D01*
Y716779D02*
X843620Y721859D01*
X848700Y716779D01*
X843620Y711699D01*
X838540Y716779D01*
X675777Y6379D02*
X680857Y11459D01*
X685937Y6379D01*
X680857Y1299D01*
X675777Y6379D01*
X1306Y555503D02*
X6386Y560583D01*
X11466Y555503D01*
X6386Y550423D01*
X1306Y555503D01*
X575777Y6379D02*
X580857Y11459D01*
X585937Y6379D01*
X580857Y1299D01*
X575777Y6379D01*
X838540Y676779D02*
X843620Y681859D01*
X848700Y676779D01*
X843620Y671699D01*
X838540Y676779D01*
X821241Y843614D02*
X826321Y848694D01*
X831401Y843614D01*
X826321Y838534D01*
X821241Y843614D01*
X838540Y76780D02*
X843620Y81860D01*
X848700Y76780D01*
X843620Y71700D01*
X838540Y76780D01*
Y836779D02*
X843620Y841859D01*
X848700Y836779D01*
X843620Y831699D01*
X838540Y836779D01*
X31243Y843614D02*
X36323Y848694D01*
X41403Y843614D01*
X36323Y838534D01*
X31243Y843614D01*
X838540Y136780D02*
X843620Y141860D01*
X848700Y136780D01*
X843620Y131700D01*
X838540Y136780D01*
X1306Y285503D02*
X6386Y290583D01*
X11466Y285503D01*
X6386Y280423D01*
X1306Y285503D01*
X141243Y843614D02*
X146323Y848694D01*
X151403Y843614D01*
X146323Y838534D01*
X141243Y843614D01*
X1306Y685502D02*
X6386Y690582D01*
X11466Y685502D01*
X6386Y680422D01*
X1306Y685502D01*
X221243Y843614D02*
X226322Y848694D01*
X231402Y843614D01*
X226322Y838534D01*
X221243Y843614D01*
X305777Y6379D02*
X310857Y11459D01*
X315937Y6379D01*
X310857Y1299D01*
X305777Y6379D01*
X838540Y96780D02*
X843620Y101860D01*
X848700Y96780D01*
X843620Y91700D01*
X838540Y96780D01*
Y766779D02*
X843620Y771859D01*
X848700Y766779D01*
X843620Y761699D01*
X838540Y766779D01*
X471242Y843614D02*
X476322Y848694D01*
X481402Y843614D01*
X476322Y838534D01*
X471242Y843614D01*
X805776Y6379D02*
X810856Y11459D01*
X815936Y6379D01*
X810856Y1299D01*
X805776Y6379D01*
X838540Y636779D02*
X843620Y641859D01*
X848700Y636779D01*
X843620Y631699D01*
X838540Y636779D01*
X115778Y6379D02*
X120858Y11459D01*
X125938Y6379D01*
X120858Y1299D01*
X115778Y6379D01*
X111243Y843614D02*
X116323Y848694D01*
X121403Y843614D01*
X116323Y838534D01*
X111243Y843614D01*
X751241D02*
X756321Y848694D01*
X761401Y843614D01*
X756321Y838534D01*
X751241Y843614D01*
X1306Y325503D02*
X6386Y330583D01*
X11466Y325503D01*
X6386Y320423D01*
X1306Y325503D01*
X85778Y6379D02*
X90858Y11459D01*
X95938Y6379D01*
X90858Y1299D01*
X85778Y6379D01*
X1306Y25503D02*
X6386Y30584D01*
X11466Y25503D01*
X6386Y20424D01*
X1306Y25503D01*
X215777Y6379D02*
X220858Y11459D01*
X225938Y6379D01*
X220858Y1299D01*
X215777Y6379D01*
X838540Y386780D02*
X843620Y391860D01*
X848700Y386780D01*
X843620Y381700D01*
X838540Y386780D01*
X511242Y843614D02*
X516322Y848694D01*
X521402Y843614D01*
X516322Y838534D01*
X511242Y843614D01*
X135778Y6379D02*
X140858Y11459D01*
X145938Y6379D01*
X140858Y1299D01*
X135778Y6379D01*
X1306Y655502D02*
X6386Y660582D01*
X11466Y655502D01*
X6386Y650422D01*
X1306Y655502D01*
Y115503D02*
X6386Y120583D01*
X11466Y115503D01*
X6386Y110423D01*
X1306Y115503D01*
Y375503D02*
X6386Y380583D01*
X11466Y375503D01*
X6386Y370423D01*
X1306Y375503D01*
Y215503D02*
X6386Y220583D01*
X11466Y215503D01*
X6386Y210423D01*
X1306Y215503D01*
Y475503D02*
X6386Y480583D01*
X11466Y475503D01*
X6386Y470423D01*
X1306Y475503D01*
X838540Y236780D02*
X843620Y241860D01*
X848700Y236780D01*
X843620Y231700D01*
X838540Y236780D01*
X591242Y843614D02*
X596322Y848694D01*
X601402Y843614D01*
X596322Y838534D01*
X591242Y843614D01*
X1306Y245503D02*
X6386Y250583D01*
X11466Y245503D01*
X6386Y240423D01*
X1306Y245503D01*
Y235503D02*
X6386Y240583D01*
X11466Y235503D01*
X6386Y230423D01*
X1306Y235503D01*
Y415503D02*
X6386Y420583D01*
X11466Y415503D01*
X6386Y410423D01*
X1306Y415503D01*
Y675502D02*
X6386Y680582D01*
X11466Y675502D01*
X6386Y670422D01*
X1306Y675502D01*
Y205503D02*
X6386Y210583D01*
X11466Y205503D01*
X6386Y200423D01*
X1306Y205503D01*
Y195503D02*
X6386Y200583D01*
X11466Y195503D01*
X6386Y190423D01*
X1306Y195503D01*
X125778Y6379D02*
X130858Y11459D01*
X135938Y6379D01*
X130858Y1299D01*
X125778Y6379D01*
X705777D02*
X710856Y11459D01*
X715937Y6379D01*
X710856Y1299D01*
X705777Y6379D01*
X715777D02*
X720856Y11459D01*
X725937Y6379D01*
X720856Y1299D01*
X715777Y6379D01*
X838540Y486780D02*
X843620Y491860D01*
X848700Y486780D01*
X843620Y481699D01*
X838540Y486780D01*
Y496780D02*
X843620Y501860D01*
X848700Y496780D01*
X843620Y491699D01*
X838540Y496780D01*
X817206Y685782D02*
X822286Y690862D01*
X827366Y685782D01*
X822286Y680702D01*
X817206Y685782D01*
X792206Y635782D02*
X797286Y640862D01*
X802366Y635782D01*
X797286Y630702D01*
X792206Y635782D01*
X817206Y585782D02*
X822286Y590862D01*
X827366Y585782D01*
X822286Y580702D01*
X817206Y585782D01*
X792206Y535782D02*
X797286Y540862D01*
X802366Y535782D01*
X797286Y530702D01*
X792206Y535782D01*
X817206Y485782D02*
X822286Y490862D01*
X827366Y485782D01*
X822286Y480702D01*
X817206Y485782D01*
Y85782D02*
X822286Y90862D01*
X827366Y85782D01*
X822286Y80702D01*
X817206Y85782D01*
X767206Y785782D02*
X772286Y790862D01*
X777366Y785782D01*
X772286Y780702D01*
X767206Y785782D01*
X742206Y735782D02*
X747286Y740862D01*
X752366Y735782D01*
X747286Y730702D01*
X742206Y735782D01*
X767206Y685782D02*
X772286Y690862D01*
X777366Y685782D01*
X772286Y680702D01*
X767206Y685782D01*
X742206Y635782D02*
X747286Y640862D01*
X752366Y635782D01*
X747286Y630702D01*
X742206Y635782D01*
X767206Y585782D02*
X772286Y590862D01*
X777366Y585782D01*
X772286Y580702D01*
X767206Y585782D01*
Y485782D02*
X772286Y490862D01*
X777366Y485782D01*
X772286Y480702D01*
X767206Y485782D01*
X742206Y235782D02*
X747286Y240862D01*
X752366Y235782D01*
X747286Y230702D01*
X742206Y235782D01*
Y35782D02*
X747286Y40862D01*
X752366Y35782D01*
X747286Y30702D01*
X742206Y35782D01*
X717206Y785782D02*
X722286Y790862D01*
X727366Y785782D01*
X722286Y780702D01*
X717206Y785782D01*
Y685782D02*
X722286Y690862D01*
X727366Y685782D01*
X722286Y680702D01*
X717206Y685782D01*
X692206Y635782D02*
X697286Y640862D01*
X702366Y635782D01*
X697286Y630702D01*
X692206Y635782D01*
X717206Y485782D02*
X722286Y490862D01*
X727366Y485782D01*
X722286Y480702D01*
X717206Y485782D01*
Y85782D02*
X722286Y90862D01*
X727366Y85782D01*
X722286Y80702D01*
X717206Y85782D01*
X692206Y35782D02*
X697286Y40862D01*
X702366Y35782D01*
X697286Y30702D01*
X692206Y35782D01*
X667206Y785782D02*
X672286Y790862D01*
X677366Y785782D01*
X672286Y780702D01*
X667206Y785782D01*
X642206Y735782D02*
X647286Y740862D01*
X652366Y735782D01*
X647286Y730702D01*
X642206Y735782D01*
X667206Y685782D02*
X672286Y690862D01*
X677366Y685782D01*
X672286Y680702D01*
X667206Y685782D01*
Y85782D02*
X672286Y90862D01*
X677366Y85782D01*
X672286Y80702D01*
X667206Y85782D01*
X642206Y35782D02*
X647286Y40862D01*
X652366Y35782D01*
X647286Y30702D01*
X642206Y35782D01*
X617206Y785782D02*
X622286Y790862D01*
X627366Y785782D01*
X622286Y780702D01*
X617206Y785782D01*
X592206Y735782D02*
X597286Y740862D01*
X602366Y735782D01*
X597286Y730702D01*
X592206Y735782D01*
X617206Y85782D02*
X622286Y90862D01*
X627366Y85782D01*
X622286Y80702D01*
X617206Y85782D01*
X567206Y785782D02*
X572286Y790862D01*
X577366Y785782D01*
X572286Y780702D01*
X567206Y785782D01*
X542206Y735782D02*
X547286Y740862D01*
X552366Y735782D01*
X547286Y730702D01*
X542206Y735782D01*
X517206Y785782D02*
X522286Y790862D01*
X527366Y785782D01*
X522286Y780702D01*
X517206Y785782D01*
X492206Y735782D02*
X497286Y740862D01*
X502366Y735782D01*
X497286Y730702D01*
X492206Y735782D01*
X517206Y585782D02*
X522286Y590862D01*
X527366Y585782D01*
X522286Y580702D01*
X517206Y585782D01*
X492206Y235782D02*
X497286Y240862D01*
X502366Y235782D01*
X497286Y230702D01*
X492206Y235782D01*
X467206Y785782D02*
X472286Y790862D01*
X477366Y785782D01*
X472286Y780702D01*
X467206Y785782D01*
X417206D02*
X422286Y790862D01*
X427366Y785782D01*
X422286Y780702D01*
X417206Y785782D01*
X367206D02*
X372286Y790862D01*
X377366Y785782D01*
X372286Y780702D01*
X367206Y785782D01*
Y685782D02*
X372286Y690862D01*
X377366Y685782D01*
X372286Y680702D01*
X367206Y685782D01*
Y585782D02*
X372286Y590862D01*
X377366Y585782D01*
X372286Y580702D01*
X367206Y585782D01*
Y385782D02*
X372286Y390862D01*
X377366Y385782D01*
X372286Y380702D01*
X367206Y385782D01*
X317206Y785782D02*
X322286Y790862D01*
X327366Y785782D01*
X322286Y780702D01*
X317206Y785782D01*
X292206Y735782D02*
X297286Y740862D01*
X302366Y735782D01*
X297286Y730702D01*
X292206Y735782D01*
X317206Y585782D02*
X322286Y590862D01*
X327366Y585782D01*
X322286Y580702D01*
X317206Y585782D01*
Y185782D02*
X322286Y190862D01*
X327366Y185782D01*
X322286Y180702D01*
X317206Y185782D01*
X267206Y785782D02*
X272286Y790862D01*
X277366Y785782D01*
X272286Y780702D01*
X267206Y785782D01*
X242206Y735782D02*
X247286Y740862D01*
X252366Y735782D01*
X247286Y730702D01*
X242206Y735782D01*
X267206Y585782D02*
X272286Y590862D01*
X277366Y585782D01*
X272286Y580702D01*
X267206Y585782D01*
X242206Y135782D02*
X247286Y140862D01*
X252366Y135782D01*
X247286Y130702D01*
X242206Y135782D01*
X217206Y785782D02*
X222286Y790862D01*
X227366Y785782D01*
X222286Y780702D01*
X217206Y785782D01*
Y585782D02*
X222286Y590862D01*
X227366Y585782D01*
X222286Y580702D01*
X217206Y585782D01*
X192206Y335782D02*
X197286Y340862D01*
X202366Y335782D01*
X197286Y330702D01*
X192206Y335782D01*
Y135782D02*
X197286Y140862D01*
X202366Y135782D01*
X197286Y130702D01*
X192206Y135782D01*
X217206Y85782D02*
X222286Y90862D01*
X227366Y85782D01*
X222286Y80702D01*
X217206Y85782D01*
X167206D02*
X172286Y90862D01*
X177366Y85782D01*
X172286Y80702D01*
X167206Y85782D01*
X117206Y585782D02*
X122286Y590862D01*
X127366Y585782D01*
X122286Y580702D01*
X117206Y585782D01*
Y485782D02*
X122286Y490862D01*
X127366Y485782D01*
X122286Y480702D01*
X117206Y485782D01*
Y85782D02*
X122286Y90862D01*
X127366Y85782D01*
X122286Y80702D01*
X117206Y85782D01*
X42206Y735782D02*
X47286Y740862D01*
X52366Y735782D01*
X47286Y730702D01*
X42206Y735782D01*
X67206Y485782D02*
X72286Y490862D01*
X77366Y485782D01*
X72286Y480702D01*
X67206Y485782D01*
X42206Y435782D02*
X47286Y440862D01*
X52366Y435782D01*
X47286Y430702D01*
X42206Y435782D01*
X503843Y268393D02*
X508923Y273473D01*
X514003Y268393D01*
X508923Y263313D01*
X503843Y268393D01*
X58052Y538082D02*
X63132Y543162D01*
X68212Y538082D01*
X63132Y533002D01*
X58052Y538082D01*
X102796Y563391D02*
X107876Y568471D01*
X112956Y563391D01*
X107876Y558311D01*
X102796Y563391D01*
X185450Y533385D02*
X190529Y538465D01*
X195609Y533385D01*
X190529Y528305D01*
X185450Y533385D01*
X132792Y489714D02*
X137872Y494794D01*
X142952Y489714D01*
X137872Y484634D01*
X132792Y489714D01*
X287291Y546793D02*
X292371Y551873D01*
X297451Y546793D01*
X292371Y541713D01*
X287291Y546793D01*
X291023Y538251D02*
X296103Y543331D01*
X301183Y538251D01*
X296103Y533171D01*
X291023Y538251D01*
X601370Y331746D02*
X606450Y336827D01*
X611530Y331746D01*
X606450Y326666D01*
X601370Y331746D01*
X375206Y250757D02*
X380286Y255837D01*
X385366Y250757D01*
X380286Y245677D01*
X375206Y250757D01*
X391414Y298319D02*
X396494Y303399D01*
X401575Y298319D01*
X396494Y293239D01*
X391414Y298319D01*
X359970Y255959D02*
X365050Y261039D01*
X370130Y255959D01*
X365050Y250879D01*
X359970Y255959D01*
X557570Y345912D02*
X562650Y350992D01*
X567730Y345912D01*
X562650Y340832D01*
X557570Y345912D01*
X491555Y466769D02*
X496635Y471849D01*
X501715Y466769D01*
X496635Y461689D01*
X491555Y466769D01*
X461089Y409815D02*
X466169Y414895D01*
X471249Y409815D01*
X466169Y404735D01*
X461089Y409815D01*
X494201Y304669D02*
X499281Y309749D01*
X504361Y304669D01*
X499281Y299589D01*
X494201Y304669D01*
X503318Y328642D02*
X508398Y333722D01*
X513478Y328642D01*
X508398Y323562D01*
X503318Y328642D01*
X334524Y447284D02*
X339604Y452364D01*
X344684Y447284D01*
X339604Y442204D01*
X334524Y447284D01*
X311165Y388556D02*
X316245Y393636D01*
X321325Y388556D01*
X316245Y383476D01*
X311165Y388556D01*
X375479Y298575D02*
X380559Y303654D01*
X385639Y298575D01*
X380559Y293494D01*
X375479Y298575D01*
X605790Y663194D02*
X610870Y668274D01*
X615950Y663194D01*
X610870Y658114D01*
X605790Y663194D01*
X584454D02*
X589534Y668274D01*
X594614Y663194D01*
X589534Y658114D01*
X584454Y663194D01*
X544378D02*
X549458Y668274D01*
X554538Y663194D01*
X549458Y658114D01*
X544378Y663194D01*
X525272D02*
X530352Y668274D01*
X535432Y663194D01*
X530352Y658114D01*
X525272Y663194D01*
X779780Y463310D02*
X784860Y468390D01*
X789940Y463310D01*
X784860Y458230D01*
X779780Y463310D01*
Y423327D02*
X784860Y428407D01*
X789940Y423327D01*
X784860Y418247D01*
X779780Y423327D01*
Y383342D02*
X784860Y388422D01*
X789940Y383342D01*
X784860Y378262D01*
X779780Y383342D01*
Y342550D02*
X784860Y347630D01*
X789940Y342550D01*
X784860Y337470D01*
X779780Y342550D01*
X778764Y264414D02*
X783844Y269494D01*
X788924Y264414D01*
X783844Y259334D01*
X778764Y264414D01*
X241905Y410881D02*
X246985Y415961D01*
X252065Y410881D01*
X246985Y405801D01*
X241905Y410881D01*
X684225Y631903D02*
X689305Y636983D01*
X694385Y631903D01*
X689305Y626823D01*
X684225Y631903D01*
X489458Y206756D02*
X494538Y211836D01*
X499618Y206756D01*
X494538Y201676D01*
X489458Y206756D01*
X384263Y209296D02*
X389343Y214376D01*
X394423Y209296D01*
X389343Y204216D01*
X384263Y209296D01*
X434340Y204470D02*
X439420Y209550D01*
X444500Y204470D01*
X439420Y199390D01*
X434340Y204470D01*
X422148Y215646D02*
X427228Y220726D01*
X432308Y215646D01*
X427228Y210566D01*
X422148Y215646D01*
X441452Y114471D02*
X446532Y119551D01*
X451612Y114471D01*
X446532Y109391D01*
X441452Y114471D01*
X425448Y114419D02*
X430528Y119499D01*
X435608Y114419D01*
X430528Y109339D01*
X425448Y114419D01*
X565084Y424792D02*
X570164Y429872D01*
X575244Y424792D01*
X570164Y419712D01*
X565084Y424792D01*
X519809Y513284D02*
X524889Y518364D01*
X529969Y513284D01*
X524889Y508204D01*
X519809Y513284D01*
X645732Y488635D02*
X650812Y493716D01*
X655892Y488635D01*
X650812Y483555D01*
X645732Y488635D01*
X644652Y601218D02*
X649732Y606298D01*
X654812Y601218D01*
X649732Y596138D01*
X644652Y601218D01*
X241808Y718336D02*
X246888Y723416D01*
X251968Y718336D01*
X246888Y713256D01*
X241808Y718336D01*
Y698500D02*
X246888Y703580D01*
X251968Y698500D01*
X246888Y693420D01*
X241808Y698500D01*
X278925Y451223D02*
X284005Y456303D01*
X289085Y451223D01*
X284005Y446143D01*
X278925Y451223D01*
X210441Y445285D02*
X215521Y450365D01*
X220601Y445285D01*
X215521Y440205D01*
X210441Y445285D01*
X201890Y453176D02*
X206970Y458256D01*
X212050Y453176D01*
X206970Y448096D01*
X201890Y453176D01*
X391914Y479769D02*
X396994Y484849D01*
X402074Y479769D01*
X396994Y474689D01*
X391914Y479769D01*
X396033Y245733D02*
X401113Y250813D01*
X406193Y245733D01*
X401113Y240653D01*
X396033Y245733D01*
X384263Y243545D02*
X389343Y248625D01*
X394423Y243545D01*
X389343Y238465D01*
X384263Y243545D01*
X186472Y164507D02*
X191552Y169587D01*
X196632Y164507D01*
X191552Y159427D01*
X186472Y164507D01*
X163534Y153436D02*
X168614Y158516D01*
X173694Y153436D01*
X168614Y148356D01*
X163534Y153436D01*
X127260Y173748D02*
X132339Y178829D01*
X137420Y173748D01*
X132339Y168668D01*
X127260Y173748D01*
X374311Y468893D02*
X379391Y473973D01*
X384471Y468893D01*
X379391Y463813D01*
X374311Y468893D01*
X201799Y436123D02*
X206879Y441203D01*
X211959Y436123D01*
X206879Y431043D01*
X201799Y436123D01*
X218758Y453176D02*
X223838Y458256D01*
X228918Y453176D01*
X223838Y448096D01*
X218758Y453176D01*
Y436123D02*
X223838Y441203D01*
X228918Y436123D01*
X223838Y431043D01*
X218758Y436123D01*
X425510Y466519D02*
X430591Y471599D01*
X435671Y466519D01*
X430591Y461439D01*
X425510Y466519D01*
X425958Y454660D02*
X431038Y459740D01*
X436118Y454660D01*
X431038Y449580D01*
X425958Y454660D01*
X411226D02*
X416306Y459740D01*
X421386Y454660D01*
X416306Y449580D01*
X411226Y454660D01*
X415954Y491168D02*
X421034Y496248D01*
X426114Y491168D01*
X421034Y486088D01*
X415954Y491168D01*
X406310Y478508D02*
X411390Y483588D01*
X416470Y478508D01*
X411390Y473428D01*
X406310Y478508D01*
X400320Y491091D02*
X405400Y496171D01*
X410480Y491091D01*
X405400Y486011D01*
X400320Y491091D01*
X465876Y497615D02*
X470956Y502695D01*
X476036Y497615D01*
X470956Y492535D01*
X465876Y497615D01*
X432276Y538337D02*
X437356Y543417D01*
X442436Y538337D01*
X437356Y533257D01*
X432276Y538337D01*
X316245Y538301D02*
X321325Y543381D01*
X326405Y538301D01*
X321325Y533221D01*
X316245Y538301D01*
X93050Y538365D02*
X98130Y543445D01*
X103210Y538365D01*
X98130Y533285D01*
X93050Y538365D01*
X84792D02*
X89873Y543445D01*
X94952Y538365D01*
X89873Y533285D01*
X84792Y538365D01*
X209273Y538420D02*
X214354Y543500D01*
X219433Y538420D01*
X214354Y533340D01*
X209273Y538420D01*
X200214Y538433D02*
X205294Y543513D01*
X210374Y538433D01*
X205294Y533353D01*
X200214Y538433D01*
X394431Y660458D02*
X399511Y665538D01*
X404591Y660458D01*
X399511Y655378D01*
X394431Y660458D01*
X395986Y735934D02*
X401066Y741014D01*
X406146Y735934D01*
X401066Y730854D01*
X395986Y735934D01*
X407162Y783082D02*
X412242Y788162D01*
X417322Y783082D01*
X412242Y778002D01*
X407162Y783082D01*
X451334Y772918D02*
X456414Y777998D01*
X461494Y772918D01*
X456414Y767838D01*
X451334Y772918D01*
X450853Y656016D02*
X455933Y661096D01*
X461013Y656016D01*
X455933Y650936D01*
X450853Y656016D01*
X451334Y730564D02*
X456414Y735645D01*
X461494Y730564D01*
X456414Y725484D01*
X451334Y730564D01*
X439420Y698370D02*
X444500Y703450D01*
X449580Y698370D01*
X444500Y693290D01*
X439420Y698370D01*
X398163Y698696D02*
X403243Y703776D01*
X408323Y698696D01*
X403243Y693616D01*
X398163Y698696D01*
X581152Y541528D02*
X586232Y546608D01*
X591312Y541528D01*
X586232Y536448D01*
X581152Y541528D01*
Y567436D02*
X586232Y572516D01*
X591312Y567436D01*
X586232Y562356D01*
X581152Y567436D01*
X450853Y616907D02*
X455933Y621987D01*
X461013Y616907D01*
X455933Y611827D01*
X450853Y616907D01*
X439420Y627623D02*
X444500Y632703D01*
X449580Y627623D01*
X444500Y622543D01*
X439420Y627623D01*
X421640D02*
X426720Y632703D01*
X431800Y627623D01*
X426720Y622543D01*
X421640Y627623D01*
X485792Y620397D02*
X490872Y625477D01*
X495952Y620397D01*
X490872Y615317D01*
X485792Y620397D01*
Y602597D02*
X490872Y607677D01*
X495952Y602597D01*
X490872Y597517D01*
X485792Y602597D01*
X463748Y574413D02*
X468828Y579493D01*
X473908Y574413D01*
X468828Y569333D01*
X463748Y574413D01*
X333568Y580755D02*
X338648Y585835D01*
X343728Y580755D01*
X338648Y575675D01*
X333568Y580755D01*
X388849Y580255D02*
X393929Y585335D01*
X399009Y580255D01*
X393929Y575174D01*
X388849Y580255D01*
X357232D02*
X362312Y585335D01*
X367392Y580255D01*
X362312Y575174D01*
X357232Y580255D01*
X405016Y627623D02*
X410096Y632703D01*
X415176Y627623D01*
X410096Y622543D01*
X405016Y627623D01*
X341732Y611883D02*
X346812Y616963D01*
X351892Y611883D01*
X346812Y606803D01*
X341732Y611883D01*
X241461Y580558D02*
X246541Y585638D01*
X251621Y580558D01*
X246541Y575478D01*
X241461Y580558D01*
X256415Y580837D02*
X261495Y585917D01*
X266575Y580837D01*
X261495Y575757D01*
X256415Y580837D01*
X272886D02*
X277966Y585917D01*
X283046Y580837D01*
X277966Y575757D01*
X272886Y580837D01*
X273230Y596262D02*
X278310Y601342D01*
X283390Y596262D01*
X278310Y591182D01*
X273230Y596262D01*
X256415Y611883D02*
X261495Y616963D01*
X266575Y611883D01*
X261495Y606803D01*
X256415Y611883D01*
X321230D02*
X326310Y616963D01*
X331390Y611883D01*
X326310Y606803D01*
X321230Y611883D01*
X273230Y611177D02*
X278310Y616257D01*
X283390Y611177D01*
X278310Y606097D01*
X273230Y611177D01*
X256415Y596262D02*
X261495Y601342D01*
X266575Y596262D01*
X261495Y591182D01*
X256415Y596262D01*
X157935Y574716D02*
X163015Y579796D01*
X168095Y574716D01*
X163015Y569636D01*
X157935Y574716D01*
X164240Y583555D02*
X169320Y588635D01*
X174400Y583555D01*
X169320Y578475D01*
X164240Y583555D01*
X137698Y576255D02*
X142779Y581334D01*
X147858Y576255D01*
X142779Y571175D01*
X137698Y576255D01*
X125669Y580258D02*
X130749Y585338D01*
X135829Y580258D01*
X130749Y575178D01*
X125669Y580258D01*
X56604D02*
X61684Y585338D01*
X66764Y580258D01*
X61684Y575178D01*
X56604Y580258D01*
X41069Y571516D02*
X46149Y576596D01*
X51228Y571516D01*
X46149Y566436D01*
X41069Y571516D01*
X40933Y537147D02*
X46013Y542227D01*
X51093Y537147D01*
X46013Y532067D01*
X40933Y537147D01*
X41069Y477633D02*
X46149Y482713D01*
X51228Y477633D01*
X46149Y472553D01*
X41069Y477633D01*
X45335Y421633D02*
X50415Y426713D01*
X55495Y421633D01*
X50415Y416553D01*
X45335Y421633D01*
Y336407D02*
X50415Y341487D01*
X55495Y336407D01*
X50415Y331326D01*
X45335Y336407D01*
Y392407D02*
X50415Y397486D01*
X55495Y392407D01*
X50415Y387327D01*
X45335Y392407D01*
X163051Y338002D02*
X168131Y343082D01*
X173211Y338002D01*
X168131Y332922D01*
X163051Y338002D01*
X122453Y340746D02*
X127533Y345826D01*
X132613Y340746D01*
X127533Y335666D01*
X122453Y340746D01*
X44450Y309626D02*
X49530Y314706D01*
X54610Y309626D01*
X49530Y304546D01*
X44450Y309626D01*
X42923Y269497D02*
X48003Y274577D01*
X53083Y269497D01*
X48003Y264417D01*
X42923Y269497D01*
X277930Y160758D02*
X283010Y165839D01*
X288090Y160758D01*
X283010Y155679D01*
X277930Y160758D01*
X259793Y160722D02*
X264873Y165802D01*
X269953Y160722D01*
X264873Y155642D01*
X259793Y160722D01*
X215173Y118497D02*
X220253Y123577D01*
X225333Y118497D01*
X220253Y113417D01*
X215173Y118497D01*
X202023Y130556D02*
X207103Y135636D01*
X212183Y130556D01*
X207103Y125476D01*
X202023Y130556D01*
X736600Y354743D02*
X741680Y359823D01*
X746760Y354743D01*
X741680Y349663D01*
X736600Y354743D01*
X745835Y342550D02*
X750915Y347630D01*
X755994Y342550D01*
X750915Y337470D01*
X745835Y342550D01*
X760476Y299212D02*
X765556Y304292D01*
X770636Y299212D01*
X765556Y294132D01*
X760476Y299212D01*
X740156Y303784D02*
X745236Y308864D01*
X750316Y303784D01*
X745236Y298704D01*
X740156Y303784D01*
X758444Y455497D02*
X763524Y460577D01*
X768604Y455497D01*
X763524Y450417D01*
X758444Y455497D01*
X741172D02*
X746252Y460577D01*
X751332Y455497D01*
X746252Y450417D01*
X741172Y455497D01*
X788162Y499872D02*
X793242Y504952D01*
X798322Y499872D01*
X793242Y494792D01*
X788162Y499872D01*
X574923Y651497D02*
X580003Y656577D01*
X585083Y651497D01*
X580003Y646417D01*
X574923Y651497D01*
X467542Y172737D02*
X472622Y177817D01*
X477702Y172737D01*
X472622Y167657D01*
X467542Y172737D01*
X518534Y178559D02*
X523614Y183639D01*
X528694Y178559D01*
X523614Y173479D01*
X518534Y178559D01*
X552627Y330489D02*
X557707Y335569D01*
X562787Y330489D01*
X557707Y325409D01*
X552627Y330489D01*
X519238Y338364D02*
X524318Y343444D01*
X529398Y338364D01*
X524318Y333284D01*
X519238Y338364D01*
X49464Y521539D02*
X54544Y526619D01*
X59624Y521539D01*
X54544Y516459D01*
X49464Y521539D01*
X450352Y144997D02*
X455432Y150077D01*
X460512Y144997D01*
X455432Y139917D01*
X450352Y144997D01*
X450342Y173228D02*
X455422Y178308D01*
X460502Y173228D01*
X455422Y168148D01*
X450342Y173228D01*
X133403Y472556D02*
X138483Y477636D01*
X143563Y472556D01*
X138483Y467476D01*
X133403Y472556D01*
X127319Y353358D02*
X132399Y358438D01*
X137479Y353358D01*
X132399Y348278D01*
X127319Y353358D01*
X534923Y651497D02*
X540003Y656577D01*
X545083Y651497D01*
X540003Y646417D01*
X534923Y651497D01*
X147745Y581997D02*
X152825Y587077D01*
X157905Y581997D01*
X152825Y576917D01*
X147745Y581997D01*
X304215Y339801D02*
X309295Y344881D01*
X314375Y339801D01*
X309295Y334721D01*
X304215Y339801D01*
X388849Y529706D02*
X393929Y534786D01*
X399009Y529706D01*
X393929Y524626D01*
X388849Y529706D01*
X127303Y404771D02*
X132383Y409851D01*
X137463Y404771D01*
X132383Y399691D01*
X127303Y404771D01*
X554810Y299704D02*
X559890Y304784D01*
X564970Y299704D01*
X559890Y294624D01*
X554810Y299704D01*
X518784Y266629D02*
X523864Y271709D01*
X528944Y266629D01*
X523864Y261549D01*
X518784Y266629D01*
X470053Y275897D02*
X475133Y280977D01*
X480213Y275897D01*
X475133Y270817D01*
X470053Y275897D01*
X490220Y144780D02*
X495300Y149860D01*
X500380Y144780D01*
X495300Y139700D01*
X490220Y144780D01*
X440707Y228563D02*
X445787Y233643D01*
X450867Y228563D01*
X445787Y223482D01*
X440707Y228563D01*
X88392Y318770D02*
X93472Y323850D01*
X98552Y318770D01*
X93472Y313690D01*
X88392Y318770D01*
X96398Y189203D02*
X101478Y194283D01*
X106558Y189203D01*
X101478Y184123D01*
X96398Y189203D01*
X85643D02*
X90723Y194283D01*
X95803Y189203D01*
X90723Y184123D01*
X85643Y189203D01*
X217424Y411977D02*
X222504Y417057D01*
X227584Y411977D01*
X222504Y406897D01*
X217424Y411977D01*
X188321Y508378D02*
X193401Y513458D01*
X198481Y508378D01*
X193401Y503298D01*
X188321Y508378D01*
X310101Y507552D02*
X315181Y512632D01*
X320261Y507552D01*
X315181Y502472D01*
X310101Y507552D01*
X175530Y538303D02*
X180610Y543383D01*
X185690Y538303D01*
X180610Y533223D01*
X175530Y538303D01*
X231181Y465756D02*
X236261Y470836D01*
X241341Y465756D01*
X236261Y460676D01*
X231181Y465756D01*
X218758Y477803D02*
X223838Y482883D01*
X228918Y477803D01*
X223838Y472723D01*
X218758Y477803D01*
X239505Y443164D02*
X244585Y448244D01*
X249665Y443164D01*
X244585Y438084D01*
X239505Y443164D01*
X206684Y476057D02*
X211764Y481137D01*
X216844Y476057D01*
X211764Y470977D01*
X206684Y476057D01*
X190437Y465219D02*
X195517Y470299D01*
X200597Y465219D01*
X195517Y460139D01*
X190437Y465219D01*
X260100Y457552D02*
X265180Y462632D01*
X270260Y457552D01*
X265180Y452472D01*
X260100Y457552D01*
X179578Y443037D02*
X184658Y448117D01*
X189738Y443037D01*
X184658Y437957D01*
X179578Y443037D01*
X137717Y438833D02*
X142797Y443913D01*
X147877Y438833D01*
X142797Y433753D01*
X137717Y438833D01*
X158082Y453085D02*
X163162Y458165D01*
X168242Y453085D01*
X163162Y448005D01*
X158082Y453085D01*
X243321Y297182D02*
X248401Y302262D01*
X253481Y297182D01*
X248401Y292102D01*
X243321Y297182D01*
X561725Y471146D02*
X566805Y476226D01*
X571885Y471146D01*
X566805Y466066D01*
X561725Y471146D01*
X456310Y239800D02*
X461390Y244880D01*
X466470Y239800D01*
X461390Y234720D01*
X456310Y239800D01*
X482854Y248158D02*
X487934Y253238D01*
X493014Y248158D01*
X487934Y243078D01*
X482854Y248158D01*
X783377Y444150D02*
X788457Y449230D01*
X793537Y444150D01*
X788457Y439070D01*
X783377Y444150D01*
X783390Y284308D02*
X788470Y289388D01*
X793550Y284308D01*
X788470Y279228D01*
X783390Y284308D01*
X784488Y250062D02*
X789567Y255142D01*
X794648Y250062D01*
X789567Y244982D01*
X784488Y250062D01*
X800862Y332486D02*
X805942Y337566D01*
X811022Y332486D01*
X805942Y327406D01*
X800862Y332486D01*
X75303Y495992D02*
X80383Y501072D01*
X85463Y495992D01*
X80383Y490912D01*
X75303Y495992D01*
X66943Y434499D02*
X72023Y439579D01*
X77103Y434499D01*
X72023Y429419D01*
X66943Y434499D01*
X75486Y380353D02*
X80566Y385433D01*
X85646Y380353D01*
X80566Y375273D01*
X75486Y380353D01*
X75849Y464055D02*
X80929Y469135D01*
X86009Y464055D01*
X80929Y458975D01*
X75849Y464055D01*
X200568Y721272D02*
X205648Y726352D01*
X210728Y721272D01*
X205648Y716192D01*
X200568Y721272D01*
X800276Y229032D02*
X805356Y234112D01*
X810436Y229032D01*
X805356Y223952D01*
X800276Y229032D01*
X799808Y211885D02*
X804888Y216965D01*
X809968Y211885D01*
X804888Y206805D01*
X799808Y211885D01*
X746484Y328898D02*
X751564Y333978D01*
X756644Y328898D01*
X751564Y323817D01*
X746484Y328898D01*
X717951D02*
X723030Y333978D01*
X728111Y328898D01*
X723030Y323817D01*
X717951Y328898D01*
X732217D02*
X737297Y333978D01*
X742377Y328898D01*
X737297Y323817D01*
X732217Y328898D01*
X479923Y35997D02*
X485003Y41077D01*
X490083Y35997D01*
X485003Y30917D01*
X479923Y35997D01*
X200568Y672843D02*
X205648Y677923D01*
X210728Y672843D01*
X205648Y667763D01*
X200568Y672843D01*
Y697057D02*
X205648Y702138D01*
X210728Y697057D01*
X205648Y691977D01*
X200568Y697057D01*
Y684950D02*
X205648Y690030D01*
X210728Y684950D01*
X205648Y679870D01*
X200568Y684950D01*
Y709165D02*
X205648Y714245D01*
X210728Y709165D01*
X205648Y704085D01*
X200568Y709165D01*
X78743Y736040D02*
X83823Y741120D01*
X88903Y736040D01*
X83823Y730960D01*
X78743Y736040D01*
X68202Y728617D02*
X73282Y733698D01*
X78362Y728617D01*
X73282Y723538D01*
X68202Y728617D01*
X78743Y750307D02*
X83823Y755387D01*
X88903Y750307D01*
X83823Y745227D01*
X78743Y750307D01*
X89283Y742832D02*
X94363Y747912D01*
X99443Y742832D01*
X94363Y737752D01*
X89283Y742832D01*
X68202Y742884D02*
X73282Y747964D01*
X78362Y742884D01*
X73282Y737804D01*
X68202Y742884D01*
X89283Y771418D02*
X94363Y776498D01*
X99443Y771418D01*
X94363Y766338D01*
X89283Y771418D01*
X68202D02*
X73282Y776498D01*
X78362Y771418D01*
X73282Y766338D01*
X68202Y771418D01*
Y757151D02*
X73282Y762231D01*
X78362Y757151D01*
X73282Y752071D01*
X68202Y757151D01*
X89283Y757098D02*
X94363Y762178D01*
X99443Y757098D01*
X94363Y752018D01*
X89283Y757098D01*
X78743Y764574D02*
X83823Y769654D01*
X88903Y764574D01*
X83823Y759494D01*
X78743Y764574D01*
X126724Y772689D02*
X131804Y777769D01*
X136884Y772689D01*
X131804Y767609D01*
X126724Y772689D01*
X126935Y758528D02*
X132015Y763608D01*
X137095Y758528D01*
X132015Y753448D01*
X126935Y758528D01*
X134094Y765951D02*
X139174Y771031D01*
X144254Y765951D01*
X139174Y760871D01*
X134094Y765951D01*
X141359Y758475D02*
X146439Y763555D01*
X151519Y758475D01*
X146439Y753395D01*
X141359Y758475D01*
X141570Y772795D02*
X146650Y777875D01*
X151730Y772795D01*
X146650Y767715D01*
X141570Y772795D01*
X516552Y320284D02*
X521632Y325364D01*
X526712Y320284D01*
X521632Y315204D01*
X516552Y320284D01*
X428512Y228637D02*
X433592Y233717D01*
X438672Y228637D01*
X433592Y223557D01*
X428512Y228637D01*
X464061Y215135D02*
X469141Y220215D01*
X474221Y215135D01*
X469141Y210055D01*
X464061Y215135D01*
X475237Y211579D02*
X480317Y216659D01*
X485397Y211579D01*
X480317Y206499D01*
X475237Y211579D01*
X426310Y297564D02*
X431390Y302644D01*
X436470Y297564D01*
X431390Y292484D01*
X426310Y297564D01*
X431061Y309788D02*
X436141Y314868D01*
X441221Y309788D01*
X436141Y304708D01*
X431061Y309788D01*
X783499Y363475D02*
X788579Y368555D01*
X793659Y363475D01*
X788579Y358395D01*
X783499Y363475D01*
X783462Y403425D02*
X788542Y408505D01*
X793622Y403425D01*
X788542Y398345D01*
X783462Y403425D01*
X681369Y381759D02*
X686449Y386839D01*
X691529Y381759D01*
X686449Y376679D01*
X681369Y381759D01*
X686970Y371802D02*
X692050Y376882D01*
X697130Y371802D01*
X692050Y366722D01*
X686970Y371802D01*
X676603Y415269D02*
X681683Y420349D01*
X686763Y415269D01*
X681683Y410189D01*
X676603Y415269D01*
X648465Y424939D02*
X653545Y430019D01*
X658625Y424939D01*
X653545Y419859D01*
X648465Y424939D01*
X587384Y417963D02*
X592464Y423043D01*
X597544Y417963D01*
X592464Y412883D01*
X587384Y417963D01*
X674964Y398375D02*
X680044Y403455D01*
X685124Y398375D01*
X680044Y393295D01*
X674964Y398375D01*
X666674Y406699D02*
X671754Y411779D01*
X676834Y406699D01*
X671754Y401619D01*
X666674Y406699D01*
X670117Y365665D02*
X675197Y370745D01*
X680277Y365665D01*
X675197Y360585D01*
X670117Y365665D01*
X655035Y352762D02*
X660115Y357842D01*
X665195Y352762D01*
X660115Y347682D01*
X655035Y352762D01*
X502893Y362756D02*
X507973Y367836D01*
X513053Y362756D01*
X507973Y357676D01*
X502893Y362756D01*
Y339721D02*
X507973Y344801D01*
X513053Y339721D01*
X507973Y334641D01*
X502893Y339721D01*
X503660Y348926D02*
X508740Y354006D01*
X513820Y348926D01*
X508740Y343846D01*
X503660Y348926D01*
X673202Y189784D02*
X678282Y194864D01*
X683362Y189784D01*
X678282Y184704D01*
X673202Y189784D01*
X658085Y175333D02*
X663165Y180413D01*
X668245Y175333D01*
X663165Y170253D01*
X658085Y175333D01*
X671440Y175032D02*
X676520Y180112D01*
X681600Y175032D01*
X676520Y169952D01*
X671440Y175032D01*
X809256Y179846D02*
X814336Y184926D01*
X819416Y179846D01*
X814336Y174766D01*
X809256Y179846D01*
X809247Y157731D02*
X814327Y162811D01*
X819407Y157731D01*
X814327Y152651D01*
X809247Y157731D01*
X380596Y266263D02*
X385676Y271343D01*
X390756Y266263D01*
X385676Y261183D01*
X380596Y266263D01*
X391310Y271411D02*
X396390Y276490D01*
X401470Y271411D01*
X396390Y266331D01*
X391310Y271411D01*
X137612Y137804D02*
X142692Y142884D01*
X147772Y137804D01*
X142692Y132724D01*
X137612Y137804D01*
Y74078D02*
X142692Y79158D01*
X147772Y74078D01*
X142692Y68998D01*
X137612Y74078D01*
Y155584D02*
X142692Y160664D01*
X147772Y155584D01*
X142692Y150504D01*
X137612Y155584D01*
Y119711D02*
X142692Y124790D01*
X147772Y119711D01*
X142692Y114630D01*
X137612Y119711D01*
Y89289D02*
X142692Y94369D01*
X147772Y89289D01*
X142692Y84209D01*
X137612Y89289D01*
Y58867D02*
X142692Y63947D01*
X147772Y58867D01*
X142692Y53787D01*
X137612Y58867D01*
Y43656D02*
X142692Y48736D01*
X147772Y43656D01*
X142692Y38576D01*
X137612Y43656D01*
Y28445D02*
X142692Y33525D01*
X147772Y28445D01*
X142692Y23365D01*
X137612Y28445D01*
X30737Y755901D02*
X35817Y760981D01*
X40897Y755901D01*
X35817Y750821D01*
X30737Y755901D01*
Y740810D02*
X35817Y745890D01*
X40897Y740810D01*
X35817Y735730D01*
X30737Y740810D01*
Y725720D02*
X35817Y730800D01*
X40897Y725720D01*
X35817Y720640D01*
X30737Y725720D01*
Y710630D02*
X35817Y715710D01*
X40897Y710630D01*
X35817Y705550D01*
X30737Y710630D01*
Y604997D02*
X35817Y610077D01*
X40897Y604997D01*
X35817Y599917D01*
X30737Y604997D01*
Y620087D02*
X35817Y625167D01*
X40897Y620087D01*
X35817Y615007D01*
X30737Y620087D01*
Y635178D02*
X35817Y640258D01*
X40897Y635178D01*
X35817Y630098D01*
X30737Y635178D01*
Y650268D02*
X35817Y655348D01*
X40897Y650268D01*
X35817Y645188D01*
X30737Y650268D01*
Y665358D02*
X35817Y670438D01*
X40897Y665358D01*
X35817Y660278D01*
X30737Y665358D01*
Y680449D02*
X35817Y685529D01*
X40897Y680449D01*
X35817Y675369D01*
X30737Y680449D01*
Y695539D02*
X35817Y700619D01*
X40897Y695539D01*
X35817Y690459D01*
X30737Y695539D01*
X134553Y649709D02*
X139633Y654789D01*
X144713Y649709D01*
X139633Y644629D01*
X134553Y649709D01*
X135699Y687774D02*
X140779Y692854D01*
X145859Y687774D01*
X140779Y682694D01*
X135699Y687774D01*
Y668196D02*
X140779Y673276D01*
X145859Y668196D01*
X140779Y663116D01*
X135699Y668196D01*
X135575Y725413D02*
X140655Y730493D01*
X145735Y725413D01*
X140655Y720333D01*
X135575Y725413D01*
X134919Y744997D02*
X139999Y750077D01*
X145079Y744997D01*
X139999Y739917D01*
X134919Y744997D01*
X580071Y72228D02*
X585151Y77308D01*
X590231Y72228D01*
X585151Y67148D01*
X580071Y72228D01*
X370392Y261121D02*
X375472Y266201D01*
X380552Y261121D01*
X375472Y256041D01*
X370392Y261121D01*
X681830Y263916D02*
X686910Y268996D01*
X691990Y263916D01*
X686910Y258836D01*
X681830Y263916D01*
X324476Y256489D02*
X329556Y261569D01*
X334636Y256489D01*
X329556Y251409D01*
X324476Y256489D01*
X341484Y298151D02*
X346564Y303230D01*
X351645Y298151D01*
X346564Y293071D01*
X341484Y298151D01*
X331134Y23355D02*
X336214Y28435D01*
X341294Y23355D01*
X336214Y18275D01*
X331134Y23355D01*
X350227D02*
X355307Y28435D01*
X360387Y23355D01*
X355307Y18275D01*
X350227Y23355D01*
X369319D02*
X374399Y28435D01*
X379479Y23355D01*
X374399Y18275D01*
X369319Y23355D01*
X331134Y40506D02*
X336214Y45586D01*
X341294Y40506D01*
X336214Y35426D01*
X331134Y40506D01*
X350227D02*
X355307Y45586D01*
X360387Y40506D01*
X355307Y35426D01*
X350227Y40506D01*
X369319D02*
X374399Y45586D01*
X379479Y40506D01*
X374399Y35426D01*
X369319Y40506D01*
X340680Y31930D02*
X345760Y37011D01*
X350840Y31930D01*
X345760Y26851D01*
X340680Y31930D01*
X359773D02*
X364853Y37011D01*
X369933Y31930D01*
X364853Y26851D01*
X359773Y31930D01*
X331134Y57656D02*
X336214Y62736D01*
X341294Y57656D01*
X336214Y52576D01*
X331134Y57656D01*
X350227D02*
X355307Y62736D01*
X360387Y57656D01*
X355307Y52576D01*
X350227Y57656D01*
X369319D02*
X374399Y62736D01*
X379479Y57656D01*
X374399Y52576D01*
X369319Y57656D01*
X340680Y49081D02*
X345760Y54161D01*
X350840Y49081D01*
X345760Y44001D01*
X340680Y49081D01*
X359773D02*
X364853Y54161D01*
X369933Y49081D01*
X364853Y44001D01*
X359773Y49081D01*
X340680Y66232D02*
X345760Y71312D01*
X350840Y66232D01*
X345760Y61152D01*
X340680Y66232D01*
X359773D02*
X364853Y71312D01*
X369933Y66232D01*
X364853Y61152D01*
X359773Y66232D01*
X68435Y76003D02*
X73515Y81083D01*
X78595Y76003D01*
X73515Y70924D01*
X68435Y76003D01*
X97073Y84579D02*
X102153Y89659D01*
X107233Y84579D01*
X102153Y79499D01*
X97073Y84579D01*
X77981D02*
X83061Y89659D01*
X88141Y84579D01*
X83061Y79499D01*
X77981Y84579D01*
X97073Y67428D02*
X102153Y72508D01*
X107233Y67428D01*
X102153Y62348D01*
X97073Y67428D01*
X77981D02*
X83061Y72508D01*
X88141Y67428D01*
X83061Y62348D01*
X77981Y67428D01*
X87527Y76003D02*
X92607Y81083D01*
X97687Y76003D01*
X92607Y70924D01*
X87527Y76003D01*
X97073Y50278D02*
X102153Y55358D01*
X107233Y50278D01*
X102153Y45198D01*
X97073Y50278D01*
X77981D02*
X83061Y55358D01*
X88141Y50278D01*
X83061Y45198D01*
X77981Y50278D01*
X87527Y58853D02*
X92607Y63933D01*
X97687Y58853D01*
X92607Y53773D01*
X87527Y58853D01*
X68435D02*
X73515Y63933D01*
X78595Y58853D01*
X73515Y53773D01*
X68435Y58853D01*
X97073Y33127D02*
X102153Y38207D01*
X107233Y33127D01*
X102153Y28047D01*
X97073Y33127D01*
X77981D02*
X83061Y38207D01*
X88141Y33127D01*
X83061Y28047D01*
X77981Y33127D01*
X87527Y41702D02*
X92607Y46782D01*
X97687Y41702D01*
X92607Y36622D01*
X87527Y41702D01*
X68435D02*
X73515Y46782D01*
X78595Y41702D01*
X73515Y36622D01*
X68435Y41702D01*
X331134Y74807D02*
X336214Y79887D01*
X341294Y74807D01*
X336214Y69727D01*
X331134Y74807D01*
X350227D02*
X355307Y79887D01*
X360387Y74807D01*
X355307Y69727D01*
X350227Y74807D01*
X369319D02*
X374399Y79887D01*
X379479Y74807D01*
X374399Y69727D01*
X369319Y74807D01*
X331134Y91958D02*
X336214Y97037D01*
X341294Y91958D01*
X336214Y86877D01*
X331134Y91958D01*
X350227D02*
X355307Y97037D01*
X360387Y91958D01*
X355307Y86877D01*
X350227Y91958D01*
X369319D02*
X374399Y97037D01*
X379479Y91958D01*
X374399Y86877D01*
X369319Y91958D01*
X340680Y83382D02*
X345760Y88462D01*
X350840Y83382D01*
X345760Y78302D01*
X340680Y83382D01*
X359773D02*
X364853Y88462D01*
X369933Y83382D01*
X364853Y78302D01*
X359773Y83382D01*
Y99771D02*
X364853Y104851D01*
X369933Y99771D01*
X364853Y94691D01*
X359773Y99771D01*
X340680D02*
X345760Y104851D01*
X350840Y99771D01*
X345760Y94691D01*
X340680Y99771D01*
X369319Y109870D02*
X374399Y114950D01*
X379479Y109870D01*
X374399Y104790D01*
X369319Y109870D01*
X359773Y117683D02*
X364853Y122763D01*
X369933Y117683D01*
X364853Y112603D01*
X359773Y117683D01*
X350227Y109870D02*
X355307Y114950D01*
X360387Y109870D01*
X355307Y104790D01*
X350227Y109870D01*
X331134D02*
X336214Y114950D01*
X341294Y109870D01*
X336214Y104790D01*
X331134Y109870D01*
X340680Y117683D02*
X345760Y122763D01*
X350840Y117683D01*
X345760Y112603D01*
X340680Y117683D01*
X63713Y631225D02*
X68793Y636305D01*
X73873Y631225D01*
X68793Y626145D01*
X63713Y631225D01*
Y614098D02*
X68793Y619178D01*
X73873Y614098D01*
X68793Y609018D01*
X63713Y614098D01*
X72264Y639788D02*
X77344Y644868D01*
X82424Y639788D01*
X77344Y634708D01*
X72264Y639788D01*
Y622662D02*
X77344Y627742D01*
X82424Y622662D01*
X77344Y617582D01*
X72264Y622662D01*
X80815Y631225D02*
X85896Y636305D01*
X90976Y631225D01*
X85896Y626145D01*
X80815Y631225D01*
Y648352D02*
X85896Y653432D01*
X90976Y648352D01*
X85896Y643272D01*
X80815Y648352D01*
X139177Y241402D02*
X144257Y246483D01*
X149337Y241402D01*
X144257Y236322D01*
X139177Y241402D01*
X155806Y241634D02*
X160886Y246714D01*
X165966Y241634D01*
X160886Y236554D01*
X155806Y241634D01*
X248009Y227581D02*
X253089Y232661D01*
X258169Y227581D01*
X253089Y222501D01*
X248009Y227581D01*
X269108D02*
X274188Y232661D01*
X279268Y227581D01*
X274188Y222501D01*
X269108Y227581D01*
X226910D02*
X231991Y232661D01*
X237071Y227581D01*
X231991Y222501D01*
X226910Y227581D01*
X258558D02*
X263638Y232661D01*
X268718Y227581D01*
X263638Y222501D01*
X258558Y227581D01*
X237460D02*
X242540Y232661D01*
X247620Y227581D01*
X242540Y222501D01*
X237460Y227581D01*
X279657D02*
X284737Y232661D01*
X289817Y227581D01*
X284737Y222501D01*
X279657Y227581D01*
X148207Y299592D02*
X153287Y304672D01*
X158367Y299592D01*
X153287Y294512D01*
X148207Y299592D01*
Y308950D02*
X153287Y314030D01*
X158367Y308950D01*
X153287Y303870D01*
X148207Y308950D01*
X199164Y233976D02*
X204244Y239056D01*
X209324Y233976D01*
X204244Y228896D01*
X199164Y233976D01*
X476188Y638265D02*
X481268Y643344D01*
X486348Y638265D01*
X481268Y633185D01*
X476188Y638265D01*
X443856Y395743D02*
X448936Y400823D01*
X454016Y395743D01*
X448936Y390663D01*
X443856Y395743D01*
X438110Y380313D02*
X443190Y385393D01*
X448270Y380313D01*
X443190Y375233D01*
X438110Y380313D01*
X431670Y389348D02*
X436750Y394428D01*
X441830Y389348D01*
X436750Y384268D01*
X431670Y389348D01*
X425831Y378552D02*
X430911Y383632D01*
X435992Y378552D01*
X430911Y373472D01*
X425831Y378552D01*
X471005Y654952D02*
X476085Y660032D01*
X481165Y654952D01*
X476085Y649872D01*
X471005Y654952D01*
X464958Y672046D02*
X470038Y677126D01*
X475118Y672046D01*
X470038Y666966D01*
X464958Y672046D01*
X458969Y687544D02*
X464049Y692624D01*
X469129Y687544D01*
X464049Y682464D01*
X458969Y687544D01*
X651696Y150648D02*
X656776Y155728D01*
X661856Y150648D01*
X656776Y145568D01*
X651696Y150648D01*
X664878Y144790D02*
X669958Y149870D01*
X675038Y144790D01*
X669958Y139710D01*
X664878Y144790D01*
X626267Y620677D02*
X631347Y625757D01*
X636427Y620677D01*
X631347Y615597D01*
X626267Y620677D01*
X626177Y470777D02*
X631257Y475857D01*
X636337Y470777D01*
X631257Y465697D01*
X626177Y470777D01*
X645163Y620773D02*
X650243Y625853D01*
X655323Y620773D01*
X650243Y615693D01*
X645163Y620773D01*
X609110Y472217D02*
X614190Y477297D01*
X619270Y472217D01*
X614190Y467137D01*
X609110Y472217D01*
X494807Y404901D02*
X499887Y409981D01*
X504967Y404901D01*
X499887Y399821D01*
X494807Y404901D01*
X534792Y621030D02*
X539872Y626110D01*
X544952Y621030D01*
X539872Y615950D01*
X534792Y621030D01*
X627309Y488622D02*
X632389Y493702D01*
X637469Y488622D01*
X632389Y483542D01*
X627309Y488622D01*
X385217Y405122D02*
X390297Y410202D01*
X395377Y405122D01*
X390297Y400042D01*
X385217Y405122D01*
X365624Y400078D02*
X370704Y405158D01*
X375784Y400078D01*
X370704Y394998D01*
X365624Y400078D01*
X387925Y395841D02*
X393005Y400921D01*
X398085Y395841D01*
X393005Y390761D01*
X387925Y395841D01*
X465876Y546862D02*
X470956Y551942D01*
X476036Y546862D01*
X470956Y541782D01*
X465876Y546862D01*
X476625D02*
X481705Y551942D01*
X486785Y546862D01*
X481705Y541782D01*
X476625Y546862D01*
X487374D02*
X492454Y551942D01*
X497534Y546862D01*
X492454Y541782D01*
X487374Y546862D01*
X350012D02*
X355092Y551942D01*
X360172Y546862D01*
X355092Y541782D01*
X350012Y546862D01*
X360561D02*
X365641Y551942D01*
X370721Y546862D01*
X365641Y541782D01*
X360561Y546862D01*
X371110D02*
X376190Y551942D01*
X381270Y546862D01*
X376190Y541782D01*
X371110Y546862D01*
X381660D02*
X386740Y551942D01*
X391820Y546862D01*
X386740Y541782D01*
X381660Y546862D01*
X392209D02*
X397289Y551942D01*
X402369Y546862D01*
X397289Y541782D01*
X392209Y546862D01*
X402758D02*
X407838Y551942D01*
X412918Y546862D01*
X407838Y541782D01*
X402758Y546862D01*
X233981D02*
X239060Y551942D01*
X244140Y546862D01*
X239060Y541782D01*
X233981Y546862D01*
X244530D02*
X249610Y551942D01*
X254690Y546862D01*
X249610Y541782D01*
X244530Y546862D01*
X255079D02*
X260159Y551942D01*
X265239Y546862D01*
X260159Y541782D01*
X255079Y546862D01*
X265628D02*
X270708Y551942D01*
X275788Y546862D01*
X270708Y541782D01*
X265628Y546862D01*
X276178D02*
X281258Y551942D01*
X286338Y546862D01*
X281258Y541782D01*
X276178Y546862D01*
X170696D02*
X175776Y551942D01*
X180856Y546862D01*
X175776Y541782D01*
X170696Y546862D01*
X160146D02*
X165226Y551942D01*
X170306Y546862D01*
X165226Y541782D01*
X160146Y546862D01*
X149597D02*
X154677Y551942D01*
X159757Y546862D01*
X154677Y541782D01*
X149597Y546862D01*
X139048D02*
X144128Y551942D01*
X149208Y546862D01*
X144128Y541782D01*
X139048Y546862D01*
X128498D02*
X133579Y551942D01*
X138659Y546862D01*
X133579Y541782D01*
X128498Y546862D01*
X117949D02*
X123029Y551942D01*
X128109Y546862D01*
X123029Y541782D01*
X117949Y546862D01*
X345099Y519594D02*
X350179Y524674D01*
X355259Y519594D01*
X350179Y514514D01*
X345099Y519594D01*
X229077Y519356D02*
X234157Y524436D01*
X239237Y519356D01*
X234157Y514276D01*
X229077Y519356D01*
X62447Y546862D02*
X67527Y551942D01*
X72607Y546862D01*
X67527Y541782D01*
X62447Y546862D01*
X40949D02*
X46028Y551942D01*
X51108Y546862D01*
X46028Y541782D01*
X40949Y546862D01*
X662943Y291167D02*
X668023Y296247D01*
X673103Y291167D01*
X668023Y286087D01*
X662943Y291167D01*
X520174Y433321D02*
X525254Y438401D01*
X530334Y433321D01*
X525254Y428241D01*
X520174Y433321D01*
X31812Y104953D02*
X36892Y110033D01*
X41972Y104953D01*
X36892Y99873D01*
X31812Y104953D01*
X31544Y141300D02*
X36624Y146380D01*
X41704Y141300D01*
X36624Y136220D01*
X31544Y141300D01*
Y122952D02*
X36624Y128032D01*
X41704Y122952D01*
X36624Y117872D01*
X31544Y122952D01*
X52860Y158602D02*
X57940Y163682D01*
X63020Y158602D01*
X57940Y153522D01*
X52860Y158602D01*
X53051Y172615D02*
X58131Y177695D01*
X63211Y172615D01*
X58131Y167535D01*
X53051Y172615D01*
X36749Y172613D02*
X41829Y177693D01*
X46909Y172613D01*
X41829Y167533D01*
X36749Y172613D01*
X36558Y158600D02*
X41638Y163680D01*
X46718Y158600D01*
X41638Y153520D01*
X36558Y158600D01*
X36080Y203216D02*
X41160Y208296D01*
X46240Y203216D01*
X41160Y198136D01*
X36080Y203216D01*
X35888Y189203D02*
X40968Y194283D01*
X46048Y189203D01*
X40968Y184123D01*
X35888Y189203D01*
X124932Y213922D02*
X130012Y219002D01*
X135092Y213922D01*
X130012Y208842D01*
X124932Y213922D01*
X110919Y214114D02*
X115999Y219194D01*
X121079Y214114D01*
X115999Y209034D01*
X110919Y214114D01*
X187201Y205748D02*
X192281Y210828D01*
X197361Y205748D01*
X192281Y200668D01*
X187201Y205748D01*
Y216151D02*
X192281Y221231D01*
X197361Y216151D01*
X192281Y211071D01*
X187201Y216151D01*
X155595Y221297D02*
X160675Y226377D01*
X165755Y221297D01*
X160675Y216217D01*
X155595Y221297D01*
X137801Y216151D02*
X142881Y221231D01*
X147961Y216151D01*
X142881Y211071D01*
X137801Y216151D01*
X595706Y651424D02*
X600786Y656504D01*
X605866Y651424D01*
X600786Y646344D01*
X595706Y651424D01*
X580035Y510236D02*
X585115Y515316D01*
X590195Y510236D01*
X585115Y505156D01*
X580035Y510236D01*
X580033Y526092D02*
X585113Y531172D01*
X590193Y526092D01*
X585113Y521012D01*
X580033Y526092D01*
X580525Y582662D02*
X585605Y587742D01*
X590685Y582662D01*
X585605Y577582D01*
X580525Y582662D01*
X580025Y597852D02*
X585105Y602932D01*
X590185Y597852D01*
X585105Y592772D01*
X580025Y597852D01*
X517634Y596046D02*
X522714Y601126D01*
X527794Y596046D01*
X522714Y590966D01*
X517634Y596046D01*
X517578Y554017D02*
X522658Y559098D01*
X527738Y554017D01*
X522658Y548937D01*
X517578Y554017D01*
X643856Y554920D02*
X648936Y560000D01*
X654016Y554920D01*
X648936Y549840D01*
X643856Y554920D01*
X518534Y218698D02*
X523614Y223778D01*
X528694Y218698D01*
X523614Y213618D01*
X518534Y218698D01*
X562126Y144810D02*
X567206Y149889D01*
X572286Y144810D01*
X567206Y139729D01*
X562126Y144810D01*
X552110Y116611D02*
X557190Y121691D01*
X562270Y116611D01*
X557190Y111531D01*
X552110Y116611D01*
X562439Y178559D02*
X567519Y183639D01*
X572599Y178559D01*
X567519Y173479D01*
X562439Y178559D01*
X548135Y202181D02*
X553215Y207261D01*
X558295Y202181D01*
X553215Y197101D01*
X548135Y202181D01*
X71100Y340850D02*
X76179Y345930D01*
X81259Y340850D01*
X76179Y335770D01*
X71100Y340850D01*
X57153Y359407D02*
X62233Y364487D01*
X67313Y359407D01*
X62233Y354327D01*
X57153Y359407D01*
X57044Y444163D02*
X62124Y449243D01*
X67204Y444163D01*
X62124Y439083D01*
X57044Y444163D01*
X325423Y650954D02*
X330503Y656034D01*
X335583Y650954D01*
X330503Y645874D01*
X325423Y650954D01*
X284648Y652000D02*
X289728Y657080D01*
X294808Y652000D01*
X289728Y646920D01*
X284648Y652000D01*
X204982Y653869D02*
X210062Y658950D01*
X215142Y653869D01*
X210062Y648790D01*
X204982Y653869D01*
X245113Y652523D02*
X250193Y657603D01*
X255273Y652523D01*
X250193Y647443D01*
X245113Y652523D01*
X648821Y469643D02*
X653901Y474723D01*
X658981Y469643D01*
X653901Y464563D01*
X648821Y469643D01*
X251431Y313158D02*
X256511Y318238D01*
X261591Y313158D01*
X256511Y308078D01*
X251431Y313158D01*
X251555Y289921D02*
X256635Y295001D01*
X261715Y289921D01*
X256635Y284841D01*
X251555Y289921D01*
X233624Y256283D02*
X238704Y261363D01*
X243784Y256283D01*
X238704Y251203D01*
X233624Y256283D01*
X351391Y265102D02*
X356471Y270182D01*
X361551Y265102D01*
X356471Y260022D01*
X351391Y265102D01*
X286829Y256283D02*
X291909Y261363D01*
X296989Y256283D01*
X291909Y251203D01*
X286829Y256283D01*
X305311D02*
X310391Y261363D01*
X315471Y256283D01*
X310391Y251203D01*
X305311Y256283D01*
X223777Y340865D02*
X228857Y345945D01*
X233937Y340865D01*
X228857Y335785D01*
X223777Y340865D01*
X226571Y378457D02*
X231651Y383537D01*
X236731Y378457D01*
X231651Y373377D01*
X226571Y378457D01*
X197107Y377601D02*
X202187Y382681D01*
X207267Y377601D01*
X202187Y372521D01*
X197107Y377601D01*
X250571Y405166D02*
X255651Y410246D01*
X260731Y405166D01*
X255651Y400086D01*
X250571Y405166D01*
X224524Y359447D02*
X229604Y364527D01*
X234684Y359447D01*
X229604Y354367D01*
X224524Y359447D01*
X339855Y410609D02*
X344935Y415689D01*
X350015Y410609D01*
X344935Y405529D01*
X339855Y410609D01*
X334436Y417347D02*
X339516Y422427D01*
X344596Y417347D01*
X339516Y412267D01*
X334436Y417347D01*
X269926Y400030D02*
X275006Y405110D01*
X280086Y400030D01*
X275006Y394950D01*
X269926Y400030D01*
X259316Y394814D02*
X264396Y399894D01*
X269476Y394814D01*
X264396Y389734D01*
X259316Y394814D01*
X355660Y394873D02*
X360740Y399953D01*
X365820Y394873D01*
X360740Y389793D01*
X355660Y394873D01*
X351413Y423074D02*
X356493Y428154D01*
X361572Y423074D01*
X356493Y417994D01*
X351413Y423074D01*
X308268Y382203D02*
X313348Y387283D01*
X318428Y382203D01*
X313348Y377123D01*
X308268Y382203D01*
X110269Y556491D02*
X115349Y561571D01*
X120429Y556491D01*
X115349Y551411D01*
X110269Y556491D01*
X69746Y555354D02*
X74826Y560434D01*
X79906Y555354D01*
X74826Y550274D01*
X69746Y555354D01*
X458245Y556610D02*
X463325Y561690D01*
X468405Y556610D01*
X463325Y551530D01*
X458245Y556610D01*
X341758Y556331D02*
X346838Y561411D01*
X351918Y556331D01*
X346838Y551251D01*
X341758Y556331D01*
X225811Y555715D02*
X230891Y560795D01*
X235971Y555715D01*
X230891Y550635D01*
X225811Y555715D01*
X185778Y555354D02*
X190858Y560434D01*
X195938Y555354D01*
X190858Y550274D01*
X185778Y555354D01*
X417840D02*
X422920Y560434D01*
X428000Y555354D01*
X422920Y550274D01*
X417840Y555354D01*
X301809D02*
X306889Y560434D01*
X311969Y555354D01*
X306889Y550274D01*
X301809Y555354D01*
X690262Y481032D02*
X695342Y486112D01*
X700422Y481032D01*
X695342Y475952D01*
X690262Y481032D01*
X689505Y508027D02*
X694585Y513107D01*
X699665Y508027D01*
X694585Y502947D01*
X689505Y508027D01*
X398307Y537937D02*
X403387Y543017D01*
X408467Y537937D01*
X403387Y532857D01*
X398307Y537937D01*
X281689Y537715D02*
X286769Y542795D01*
X291849Y537715D01*
X286769Y532635D01*
X281689Y537715D01*
X269367Y537263D02*
X274447Y542343D01*
X279527Y537263D01*
X274447Y532183D01*
X269367Y537263D01*
X165644Y537505D02*
X170724Y542585D01*
X175804Y537505D01*
X170724Y532425D01*
X165644Y537505D01*
X153505D02*
X158585Y542585D01*
X163665Y537505D01*
X158585Y532425D01*
X153505Y537505D01*
X451945Y410415D02*
X457025Y415495D01*
X462105Y410415D01*
X457025Y405336D01*
X451945Y410415D01*
X456670Y423360D02*
X461750Y428440D01*
X466830Y423360D01*
X461750Y418280D01*
X456670Y423360D01*
X480152Y461413D02*
X485232Y466493D01*
X490312Y461413D01*
X485232Y456333D01*
X480152Y461413D01*
X482977Y440941D02*
X488057Y446021D01*
X493137Y440941D01*
X488057Y435861D01*
X482977Y440941D01*
X422364Y329880D02*
X427444Y334960D01*
X432524Y329880D01*
X427444Y324800D01*
X422364Y329880D01*
X350008Y321815D02*
X355088Y326895D01*
X360168Y321815D01*
X355088Y316735D01*
X350008Y321815D01*
X367452D02*
X372532Y326895D01*
X377612Y321815D01*
X372532Y316735D01*
X367452Y321815D01*
X384895D02*
X389975Y326895D01*
X395055Y321815D01*
X389975Y316735D01*
X384895Y321815D01*
X402339D02*
X407419Y326895D01*
X412499Y321815D01*
X407419Y316735D01*
X402339Y321815D01*
X304261Y370140D02*
X309341Y375220D01*
X314421Y370140D01*
X309341Y365060D01*
X304261Y370140D01*
X411031Y345703D02*
X416111Y350783D01*
X421191Y345703D01*
X416111Y340623D01*
X411031Y345703D01*
X393876Y345775D02*
X398956Y350855D01*
X404036Y345775D01*
X398956Y340695D01*
X393876Y345775D01*
X375966Y345703D02*
X381046Y350783D01*
X386126Y345703D01*
X381046Y340623D01*
X375966Y345703D01*
X359072Y346539D02*
X364152Y351619D01*
X369232Y346539D01*
X364152Y341459D01*
X359072Y346539D01*
X503431Y409001D02*
X508511Y414081D01*
X513591Y409001D01*
X508511Y403921D01*
X503431Y409001D01*
X525319Y287874D02*
X530399Y292954D01*
X535479Y287874D01*
X530399Y282794D01*
X525319Y287874D01*
X523751Y471647D02*
X528831Y476727D01*
X533911Y471647D01*
X528831Y466567D01*
X523751Y471647D01*
X542039Y471611D02*
X547119Y476691D01*
X552199Y471611D01*
X547119Y466531D01*
X542039Y471611D01*
X523751Y461515D02*
X528831Y466595D01*
X533911Y461515D01*
X528831Y456435D01*
X523751Y461515D01*
X514923Y651497D02*
X520003Y656577D01*
X525083Y651497D01*
X520003Y646417D01*
X514923Y651497D01*
X487374Y513284D02*
X492454Y518364D01*
X497534Y513284D01*
X492454Y508204D01*
X487374Y513284D01*
X514861Y677161D02*
X519941Y682241D01*
X525021Y677161D01*
X519941Y672081D01*
X514861Y677161D01*
X564645Y639569D02*
X569725Y644649D01*
X574805Y639569D01*
X569725Y634489D01*
X564645Y639569D01*
X644670Y639061D02*
X649750Y644141D01*
X654830Y639061D01*
X649750Y633981D01*
X644670Y639061D01*
X595379Y676399D02*
X600459Y681479D01*
X605539Y676399D01*
X600459Y671319D01*
X595379Y676399D01*
X450853Y565909D02*
X455933Y570989D01*
X461013Y565909D01*
X455933Y560829D01*
X450853Y565909D01*
X460764Y518596D02*
X465844Y523676D01*
X470924Y518596D01*
X465844Y513516D01*
X460764Y518596D01*
X112670D02*
X117750Y523676D01*
X122830Y518596D01*
X117750Y513516D01*
X112670Y518596D01*
X334775Y565401D02*
X339855Y570481D01*
X344935Y565401D01*
X339855Y560321D01*
X334775Y565401D01*
X218951Y566163D02*
X224031Y571243D01*
X229111Y566163D01*
X224031Y561083D01*
X218951Y566163D01*
X141199Y513317D02*
X146278Y518397D01*
X151358Y513317D01*
X146278Y508237D01*
X141199Y513317D01*
X257630Y513692D02*
X262710Y518772D01*
X267790Y513692D01*
X262710Y508612D01*
X257630Y513692D01*
X373761Y513317D02*
X378841Y518397D01*
X383921Y513317D01*
X378841Y508237D01*
X373761Y513317D01*
X676405Y304543D02*
X681485Y309623D01*
X686565Y304543D01*
X681485Y299463D01*
X676405Y304543D01*
X675546Y203438D02*
X680626Y208518D01*
X685706Y203438D01*
X680626Y198358D01*
X675546Y203438D01*
X518061Y254128D02*
X523141Y259208D01*
X528221Y254128D01*
X523141Y249048D01*
X518061Y254128D01*
X251245Y435878D02*
X256325Y440958D01*
X261406Y435878D01*
X256325Y430798D01*
X251245Y435878D01*
X269783D02*
X274863Y440958D01*
X279943Y435878D01*
X274863Y430798D01*
X269783Y435878D01*
X288320D02*
X293400Y440958D01*
X298480Y435878D01*
X293400Y430798D01*
X288320Y435878D01*
X269783Y479015D02*
X274863Y484095D01*
X279943Y479015D01*
X274863Y473935D01*
X269783Y479015D01*
X251245D02*
X256325Y484095D01*
X261406Y479015D01*
X256325Y473935D01*
X251245Y479015D01*
X288320D02*
X293400Y484095D01*
X298480Y479015D01*
X293400Y473935D01*
X288320Y479015D01*
X306835Y479041D02*
X311915Y484121D01*
X316995Y479041D01*
X311915Y473961D01*
X306835Y479041D01*
X183547Y262556D02*
X188627Y267636D01*
X193707Y262556D01*
X188627Y257476D01*
X183547Y262556D01*
X87923Y262560D02*
X93003Y267640D01*
X98083Y262560D01*
X93003Y257479D01*
X87923Y262560D01*
Y287017D02*
X93003Y292097D01*
X98083Y287017D01*
X93003Y281937D01*
X87923Y287017D01*
Y275951D02*
X93003Y281031D01*
X98083Y275951D01*
X93003Y270871D01*
X87923Y275951D01*
X499367Y320545D02*
X504447Y325625D01*
X509527Y320545D01*
X504447Y315465D01*
X499367Y320545D01*
X655811Y252518D02*
X660891Y257598D01*
X665971Y252518D01*
X660891Y247437D01*
X655811Y252518D01*
X655620Y266554D02*
X660700Y271634D01*
X665780Y266554D01*
X660700Y261474D01*
X655620Y266554D01*
X682219Y318005D02*
X687299Y323085D01*
X692379Y318005D01*
X687299Y312925D01*
X682219Y318005D01*
X681965Y339341D02*
X687045Y344421D01*
X692125Y339341D01*
X687045Y334261D01*
X681965Y339341D01*
X681457Y360599D02*
X686537Y365679D01*
X691617Y360599D01*
X686537Y355519D01*
X681457Y360599D01*
X655811Y240546D02*
X660891Y245626D01*
X665971Y240546D01*
X660891Y235466D01*
X655811Y240546D01*
X655810Y227467D02*
X660890Y232547D01*
X665970Y227467D01*
X660890Y222388D01*
X655810Y227467D01*
X491493Y315211D02*
X496573Y320291D01*
X501653Y315211D01*
X496573Y310131D01*
X491493Y315211D01*
X500129Y310131D02*
X505209Y315211D01*
X510289Y310131D01*
X505209Y305051D01*
X500129Y310131D01*
X520100Y84004D02*
X525180Y89084D01*
X530260Y84004D01*
X525180Y78924D01*
X520100Y84004D01*
X499875Y84325D02*
X504955Y89405D01*
X510035Y84325D01*
X504955Y79245D01*
X499875Y84325D01*
X474156Y441034D02*
X479236Y446114D01*
X484316Y441034D01*
X479236Y435954D01*
X474156Y441034D01*
X480994Y429722D02*
X486074Y434802D01*
X491154Y429722D01*
X486074Y424642D01*
X480994Y429722D01*
X66551Y685797D02*
X71631Y690877D01*
X76711Y685797D01*
X71631Y680717D01*
X66551Y685797D01*
X75215Y368512D02*
X80295Y373592D01*
X85375Y368512D01*
X80295Y363432D01*
X75215Y368512D01*
X153306Y413829D02*
X158386Y418909D01*
X163466Y413829D01*
X158386Y408750D01*
X153306Y413829D01*
X152753Y395999D02*
X157833Y401079D01*
X162913Y395999D01*
X157833Y390919D01*
X152753Y395999D01*
X144563Y351511D02*
X149643Y356591D01*
X154723Y351511D01*
X149643Y346431D01*
X144563Y351511D01*
X150801Y357871D02*
X155881Y362951D01*
X160961Y357871D01*
X155881Y352791D01*
X150801Y357871D01*
X75171Y453573D02*
X80251Y458653D01*
X85331Y453573D01*
X80251Y448493D01*
X75171Y453573D01*
X105879Y403235D02*
X110959Y408315D01*
X116039Y403235D01*
X110959Y398155D01*
X105879Y403235D01*
X278641Y462785D02*
X283721Y467865D01*
X288801Y462785D01*
X283721Y457705D01*
X278641Y462785D01*
X451387Y495722D02*
X456467Y500802D01*
X461547Y495722D01*
X456467Y490642D01*
X451387Y495722D01*
X409687Y538255D02*
X414767Y543335D01*
X419847Y538255D01*
X414767Y533175D01*
X409687Y538255D01*
X417258Y533385D02*
X422338Y538465D01*
X427418Y533385D01*
X422338Y528305D01*
X417258Y533385D01*
X69164D02*
X74244Y538465D01*
X79324Y533385D01*
X74244Y528305D01*
X69164Y533385D01*
X301227D02*
X306307Y538465D01*
X311387Y533385D01*
X306307Y528305D01*
X301227Y533385D01*
X87996Y516235D02*
X93076Y521315D01*
X98156Y516235D01*
X93076Y511155D01*
X87996Y516235D01*
X110416Y509267D02*
X115496Y514347D01*
X120576Y509267D01*
X115496Y504187D01*
X110416Y509267D01*
X97907Y513739D02*
X102987Y518819D01*
X108067Y513739D01*
X102987Y508659D01*
X97907Y513739D01*
X204027Y516235D02*
X209107Y521315D01*
X214187Y516235D01*
X209107Y511155D01*
X204027Y516235D01*
X226447Y509267D02*
X231527Y514347D01*
X236607Y509267D01*
X231527Y504187D01*
X226447Y509267D01*
X213938Y513739D02*
X219018Y518819D01*
X224098Y513739D01*
X219018Y508659D01*
X213938Y513739D01*
X441111Y507438D02*
X446191Y512518D01*
X451271Y507438D01*
X446191Y502358D01*
X441111Y507438D01*
X446476Y514849D02*
X451556Y519929D01*
X456636Y514849D01*
X451556Y509769D01*
X446476Y514849D01*
X435919Y499936D02*
X440999Y505016D01*
X446079Y499936D01*
X440999Y494856D01*
X435919Y499936D01*
X329970Y513739D02*
X335050Y518819D01*
X340130Y513739D01*
X335050Y508659D01*
X329970Y513739D01*
X342478Y509267D02*
X347558Y514347D01*
X352638Y509267D01*
X347558Y504187D01*
X342478Y509267D01*
X320058Y515981D02*
X325138Y521061D01*
X330218Y515981D01*
X325138Y510901D01*
X320058Y515981D01*
X436090Y531834D02*
X441170Y536914D01*
X446250Y531834D01*
X441170Y526754D01*
X436090Y531834D01*
X445589D02*
X450670Y536914D01*
X455750Y531834D01*
X450670Y526754D01*
X445589Y531834D01*
X320058D02*
X325138Y536914D01*
X330218Y531834D01*
X325138Y526754D01*
X320058Y531834D01*
X329558D02*
X334638Y536914D01*
X339718Y531834D01*
X334638Y526754D01*
X329558Y531834D01*
X204027D02*
X209107Y536914D01*
X214187Y531834D01*
X209107Y526754D01*
X204027Y531834D01*
X213527D02*
X218607Y536914D01*
X223687Y531834D01*
X218607Y526754D01*
X213527Y531834D01*
X306518Y435878D02*
X311598Y440958D01*
X316678Y435878D01*
X311598Y430798D01*
X306518Y435878D01*
X97496Y531834D02*
X102576Y536914D01*
X107656Y531834D01*
X102576Y526754D01*
X97496Y531834D01*
X87996D02*
X93076Y536914D01*
X98156Y531834D01*
X93076Y526754D01*
X87996Y531834D01*
X358454Y296945D02*
X363534Y302024D01*
X368614Y296945D01*
X363534Y291864D01*
X358454Y296945D01*
X411031Y296997D02*
X416111Y302077D01*
X421191Y296997D01*
X416111Y291917D01*
X411031Y296997D01*
X305620Y320047D02*
X310700Y325127D01*
X315779Y320047D01*
X310700Y314967D01*
X305620Y320047D01*
X260270Y445074D02*
X265350Y450154D01*
X270430Y445074D01*
X265350Y439994D01*
X260270Y445074D01*
D158*
X739683Y642165D02*
G03*
X739683Y642165I-5080J0D01*
G01*
Y667565D02*
G03*
X739683Y667565I-5080J0D01*
G01*
Y692965D02*
G03*
X739683Y692965I-5080J0D01*
G01*
Y718365D02*
G03*
X739683Y718365I-5080J0D01*
G01*
Y743765D02*
G03*
X739683Y743765I-5080J0D01*
G01*
Y544597D02*
G03*
X739683Y544597I-5080J0D01*
G01*
Y569997D02*
G03*
X739683Y569997I-5080J0D01*
G01*
Y595397D02*
G03*
X739683Y595397I-5080J0D01*
G01*
M02*
