G04*
G04 #@! TF.GenerationSoftware,Altium Limited,Altium Designer,24.1.2 (44)*
G04*
G04 Layer_Color=32896*
%FSLAX44Y44*%
%MOMM*%
G71*
G04*
G04 #@! TF.SameCoordinates,594C4E7E-5880-4872-9B90-1EBF5E6123A4*
G04*
G04*
G04 #@! TF.FilePolarity,Positive*
G04*
G01*
G75*
%ADD10C,0.2000*%
%ADD13C,0.4000*%
%ADD15C,0.2540*%
%ADD16C,0.5080*%
%ADD18C,0.1270*%
%ADD21C,0.1500*%
%ADD22C,0.1000*%
%ADD23C,0.1524*%
%ADD24C,0.0500*%
%ADD25C,0.1200*%
%ADD29R,0.4572X1.7526*%
%ADD167C,0.5000*%
G36*
X494269Y585465D02*
X494460Y585417D01*
X494794Y585274D01*
X495558Y585322D01*
X495749Y585274D01*
X496012Y585202D01*
X497611Y585131D01*
X498088Y585083D01*
X498423Y584940D01*
X498661Y584844D01*
X498996Y584749D01*
X499139Y584701D01*
X499759Y584653D01*
X500237Y584605D01*
X500619Y584510D01*
X501144Y584271D01*
X502051Y584224D01*
X502385Y584176D01*
X502719Y584033D01*
X502887Y583913D01*
X503125Y583818D01*
X503817Y583746D01*
X504008Y583698D01*
X504247Y583603D01*
X504581Y583364D01*
X505154Y583316D01*
X505536Y583221D01*
X505608Y583149D01*
X505990Y582911D01*
X506825Y582791D01*
X507016Y582600D01*
X507112Y582553D01*
X507183Y582481D01*
X507876Y582362D01*
X508114Y582266D01*
X508377Y582004D01*
X508687Y581932D01*
X509021Y581884D01*
X509356Y581550D01*
X509690Y581502D01*
X510072Y581407D01*
X510263Y581216D01*
X510430Y581096D01*
X510740Y581025D01*
X511003Y580905D01*
X511122Y580738D01*
X511218Y580691D01*
X511289Y580619D01*
X511600Y580547D01*
X511791Y580500D01*
X512029Y580261D01*
X512268Y580118D01*
X512602Y580022D01*
X512793Y579831D01*
X513127Y579640D01*
X513366Y579545D01*
X513509Y579402D01*
X514035Y579115D01*
X514130Y579067D01*
X514154Y578996D01*
X514273Y578876D01*
X514798Y578590D01*
X514870Y578518D01*
X515132Y578303D01*
X515323Y578256D01*
X515538Y578041D01*
X515801Y577826D01*
X515896Y577778D01*
X516111Y577564D01*
X516159Y577468D01*
X516469Y577301D01*
X516756Y577014D01*
X516851Y576967D01*
X517186Y576632D01*
X517711Y576346D01*
X517782Y576274D01*
X517830Y576179D01*
X518307Y575701D01*
X518355Y575606D01*
X518427Y575582D01*
X518737Y575272D01*
X518857Y575105D01*
X518952Y575057D01*
X519215Y574794D01*
X519262Y574699D01*
X519334Y574627D01*
X519429Y574580D01*
X519644Y574365D01*
X519835Y574030D01*
X519883Y573935D01*
X519978Y573839D01*
X520217Y573505D01*
X520265Y573410D01*
X520336Y573338D01*
X520432Y573290D01*
X520647Y573028D01*
X520695Y572932D01*
X520981Y572646D01*
X521220Y572216D01*
X521435Y572001D01*
X521602Y571548D01*
X521769Y571381D01*
X521864Y571333D01*
X521984Y571166D01*
X522079Y570736D01*
X522246Y570569D01*
X522461Y570307D01*
X522509Y570020D01*
X522604Y569781D01*
X522843Y569543D01*
X522915Y569376D01*
X522986Y569065D01*
X523082Y568826D01*
X523153Y568755D01*
X523368Y568492D01*
X523416Y568015D01*
X523464Y567824D01*
X523583Y567705D01*
X523798Y567442D01*
X523893Y566774D01*
X523941Y566583D01*
X524275Y565867D01*
X524323Y565103D01*
X524371Y564768D01*
X524538Y564363D01*
X524586Y564172D01*
X524633Y563790D01*
X524681Y563599D01*
X524729Y563360D01*
X524705Y562190D01*
X524753Y561856D01*
X524705Y561713D01*
X524729Y561546D01*
X524705Y561188D01*
X524657Y560854D01*
X524514Y560519D01*
X524418Y560281D01*
X524371Y560137D01*
X524323Y559517D01*
X524275Y559326D01*
X524204Y559063D01*
X523989Y558801D01*
X523893Y558562D01*
X523846Y558371D01*
X523798Y558228D01*
X523750Y558132D01*
X523607Y558037D01*
X523440Y557774D01*
X523368Y557464D01*
X522986Y557082D01*
X522938Y556986D01*
X522676Y556724D01*
X522580Y556676D01*
X522389Y556390D01*
X522055Y556199D01*
X521960Y556151D01*
X521816Y556008D01*
X521482Y555817D01*
X521244Y555721D01*
X521053Y555530D01*
X520886Y555411D01*
X520575Y555339D01*
X520241Y555291D01*
X520122Y555172D01*
X519835Y554981D01*
X519477Y554910D01*
X519000Y554862D01*
X518809Y554814D01*
X518284Y554575D01*
X517949Y554528D01*
X517806Y554480D01*
X515849Y554432D01*
X515705Y554384D01*
X513127Y554432D01*
X511647Y554480D01*
X511170Y554528D01*
X510931Y554623D01*
X510740Y554671D01*
X510406Y554719D01*
X510072Y554814D01*
X509929Y554862D01*
X508114Y554957D01*
X507732Y555053D01*
X507303Y555244D01*
X507160Y555291D01*
X506133Y555363D01*
X505441Y555435D01*
X505250Y555482D01*
X504701Y555697D01*
X504510Y555745D01*
X503913Y555817D01*
X503292Y555864D01*
X502648Y556127D01*
X502266Y556222D01*
X501048Y556342D01*
X500810Y556437D01*
X500476Y556628D01*
X500094Y556724D01*
X499330Y556772D01*
X498948Y556867D01*
X498327Y557153D01*
X497611Y557201D01*
X497038Y557297D01*
X496728Y557464D01*
X496489Y557559D01*
X496250Y557607D01*
X495224Y557679D01*
X494913Y557798D01*
X494675Y557893D01*
X494364Y558013D01*
X494221Y558060D01*
X493266Y558108D01*
X492932Y558156D01*
X492741Y558204D01*
X492479Y558323D01*
X492097Y558466D01*
X491858Y558514D01*
X491237Y558562D01*
X490664Y558610D01*
X490068Y558681D01*
X489877Y558729D01*
X489375Y558944D01*
X489137Y558992D01*
X487394Y559063D01*
X486964Y559254D01*
X486630Y559206D01*
X486105Y559445D01*
X484195Y559493D01*
X484052Y559541D01*
X483503Y559517D01*
X483240Y559541D01*
X483026Y559612D01*
X482787Y559708D01*
X481808Y559684D01*
X481617Y559731D01*
X481211Y559851D01*
X480925Y559899D01*
X475936Y559875D01*
X475793Y559922D01*
X475363Y559875D01*
X475052Y559755D01*
X474861Y559708D01*
X473954Y559660D01*
X473692Y559588D01*
X473549Y559541D01*
X472069Y559493D01*
X471448Y559445D01*
X471257Y559397D01*
X470708Y559230D01*
X470135Y559087D01*
X469443Y559015D01*
X468822Y558968D01*
X468106Y558633D01*
X467676Y558586D01*
X467199Y558538D01*
X467008Y558490D01*
X466602Y558275D01*
X466363Y558180D01*
X465957Y558108D01*
X465623Y558060D01*
X465289Y557917D01*
X465170Y557798D01*
X464931Y557702D01*
X464430Y557631D01*
X464191Y557535D01*
X464095Y557440D01*
X463833Y557273D01*
X463332Y557153D01*
X463093Y557058D01*
X462997Y556963D01*
X462735Y556795D01*
X462329Y556724D01*
X462066Y556604D01*
X462019Y556509D01*
X461852Y556342D01*
X461422Y556246D01*
X461231Y556199D01*
X460945Y555912D01*
X460419Y555721D01*
X460228Y555530D01*
X459894Y555339D01*
X459703Y555291D01*
X459632Y555220D01*
X459512Y555053D01*
X459345Y554933D01*
X458987Y554862D01*
X458653Y554528D01*
X458414Y554384D01*
X458175Y554146D01*
X457937Y554002D01*
X457698Y553907D01*
X457555Y553764D01*
X457221Y553525D01*
X457125Y553477D01*
X457006Y553358D01*
X456958Y553262D01*
X456743Y553095D01*
X456648Y553048D01*
X456480Y552833D01*
X456528Y549634D01*
X456576Y549443D01*
X456671Y549204D01*
X456719Y548822D01*
X456767Y548345D01*
X456862Y548011D01*
X456910Y547868D01*
X456958Y546244D01*
X457006Y545910D01*
X457125Y545647D01*
X457221Y545409D01*
X457268Y545218D01*
X457340Y544621D01*
X457388Y544430D01*
X457435Y543666D01*
X457483Y543332D01*
X457817Y542616D01*
X457865Y541804D01*
X457913Y541470D01*
X458104Y541040D01*
X458271Y540682D01*
X458343Y539894D01*
X458390Y539703D01*
X458486Y539465D01*
X458534Y539369D01*
X458629Y539274D01*
X458701Y539107D01*
X458772Y538653D01*
X458820Y538319D01*
X458963Y537985D01*
X459011Y537889D01*
X459082Y537818D01*
X459178Y537579D01*
X459250Y537078D01*
X459297Y536887D01*
X459393Y536648D01*
X459632Y536218D01*
X459679Y536027D01*
X459727Y535550D01*
X459823Y535311D01*
X460014Y535025D01*
X460085Y534858D01*
X460157Y534500D01*
X460205Y534309D01*
X460324Y534046D01*
X460539Y533783D01*
X460586Y533497D01*
X460634Y533163D01*
X460682Y532972D01*
X460873Y532781D01*
X461016Y532542D01*
X461064Y532351D01*
X461112Y532017D01*
X461207Y531778D01*
X461350Y531635D01*
X461493Y531396D01*
X461637Y530823D01*
X461780Y530680D01*
X461828Y530585D01*
X461923Y530489D01*
X461971Y530203D01*
X462066Y529821D01*
X462138Y529749D01*
X462377Y529463D01*
X462448Y529057D01*
X462496Y528866D01*
X462830Y528532D01*
X462878Y528245D01*
X462974Y527911D01*
X463284Y527601D01*
X463355Y527243D01*
X463403Y527052D01*
X463714Y526741D01*
X463785Y526479D01*
X463881Y526144D01*
X464000Y526025D01*
X464095Y525977D01*
X464215Y525858D01*
X464310Y525428D01*
X464358Y525285D01*
X464406Y525190D01*
X464549Y525094D01*
X464740Y524760D01*
X464836Y524426D01*
X465098Y524163D01*
X465265Y523710D01*
X465361Y523614D01*
X465408Y523519D01*
X465528Y523399D01*
X465647Y523089D01*
X465743Y522850D01*
X465934Y522659D01*
X466077Y522421D01*
X466172Y522086D01*
X466411Y521848D01*
X466698Y521323D01*
X466889Y521132D01*
X467080Y520654D01*
X467151Y520583D01*
X467318Y520463D01*
X467438Y520296D01*
X467509Y520033D01*
X467557Y519842D01*
X467796Y519604D01*
X467987Y519269D01*
X468345Y518912D01*
X468416Y518649D01*
X468512Y518410D01*
X468583Y518339D01*
X468679Y518291D01*
X468965Y517813D01*
X469132Y517694D01*
X469419Y517169D01*
X469562Y517026D01*
X469801Y516596D01*
X470135Y516262D01*
X470326Y515928D01*
X470588Y515665D01*
X470756Y515211D01*
X470947Y515068D01*
X471185Y514734D01*
X471233Y514638D01*
X471305Y514615D01*
X471376Y514543D01*
X471711Y514113D01*
X471758Y514018D01*
X471854Y513970D01*
X472140Y513445D01*
X472188Y513349D01*
X472307Y513278D01*
X472522Y513015D01*
X472570Y512920D01*
X472880Y512609D01*
X473071Y512323D01*
X473238Y512204D01*
X473477Y511869D01*
X473525Y511774D01*
X473763Y511535D01*
X473954Y511201D01*
X474193Y510962D01*
X474336Y510724D01*
X474766Y510294D01*
X474814Y510198D01*
X475076Y509936D01*
X475172Y509888D01*
X475243Y509769D01*
X475291Y509673D01*
X475673Y509291D01*
X475721Y509196D01*
X475936Y508981D01*
X476031Y508933D01*
X476246Y508527D01*
X476461Y508313D01*
X476676Y508050D01*
X476795Y507883D01*
X476891Y507835D01*
X477153Y507573D01*
X477272Y507406D01*
X477368Y507358D01*
X477583Y507000D01*
X477750Y506833D01*
X477845Y506785D01*
X477965Y506665D01*
X478013Y506570D01*
X478180Y506403D01*
X478275Y506355D01*
X478442Y506188D01*
X478490Y506092D01*
X478657Y505925D01*
X478753Y505878D01*
X478920Y505711D01*
X478967Y505615D01*
X479134Y505448D01*
X479230Y505400D01*
X479349Y505281D01*
X479397Y505185D01*
X479564Y505018D01*
X479660Y504971D01*
X479827Y504804D01*
X479874Y504708D01*
X480042Y504541D01*
X480137Y504493D01*
X480304Y504326D01*
X480352Y504231D01*
X480471Y504111D01*
X480567Y504063D01*
X480734Y503896D01*
X480782Y503801D01*
X480949Y503634D01*
X481044Y503586D01*
X481211Y503419D01*
X481259Y503324D01*
X481426Y503156D01*
X481522Y503109D01*
X481641Y502989D01*
X481689Y502894D01*
X481856Y502727D01*
X481951Y502679D01*
X482118Y502512D01*
X482166Y502416D01*
X482285Y502297D01*
X482691Y502034D01*
X482739Y501939D01*
X482811Y501915D01*
X483169Y501557D01*
X483217Y501461D01*
X483288Y501438D01*
X483598Y501127D01*
X483646Y501032D01*
X483789Y500936D01*
X484267Y500698D01*
X484315Y500602D01*
X484625Y500292D01*
X484720Y500244D01*
X484840Y500077D01*
X485222Y499838D01*
X485269Y499743D01*
X485532Y499480D01*
X485628Y499432D01*
X485842Y499218D01*
X485890Y499122D01*
X485962Y499098D01*
X486057Y499003D01*
X486153Y498955D01*
X486439Y498669D01*
X486678Y498525D01*
X486797Y498406D01*
X487060Y498191D01*
X487394Y498000D01*
X487633Y497761D01*
X487871Y497618D01*
X488086Y497403D01*
X488134Y497308D01*
X488301Y497188D01*
X488397Y497141D01*
X488778Y496759D01*
X488874Y496711D01*
X489113Y496616D01*
X489304Y496425D01*
X489399Y496377D01*
X489495Y496281D01*
X489686Y496234D01*
X490020Y495900D01*
X490259Y495756D01*
X490497Y495470D01*
X490736Y495326D01*
X490975Y495231D01*
X491166Y495040D01*
X491595Y494801D01*
X491667Y494730D01*
X491786Y494563D01*
X492121Y494372D01*
X492455Y494038D01*
X492622Y493966D01*
X492932Y493894D01*
X493123Y493656D01*
X493553Y493417D01*
X493672Y493298D01*
X493720Y493202D01*
X494221Y492939D01*
X494317Y492892D01*
X494460Y492748D01*
X494794Y492557D01*
X495009Y492343D01*
X495057Y492247D01*
X495367Y492080D01*
X495606Y491985D01*
X495749Y491841D01*
X496179Y491603D01*
X496250Y491531D01*
X496298Y491436D01*
X496417Y491316D01*
X496752Y491125D01*
X496990Y490886D01*
X497420Y490648D01*
X497515Y490600D01*
X497706Y490409D01*
X497945Y490266D01*
X498279Y489932D01*
X498518Y489788D01*
X498637Y489669D01*
X498757Y489502D01*
X499187Y489263D01*
X499425Y489025D01*
X499759Y488834D01*
X499855Y488786D01*
X499879Y488714D01*
X500141Y488499D01*
X500237Y488452D01*
X500499Y488189D01*
X500547Y488093D01*
X500667Y488022D01*
X500762Y487974D01*
X500977Y487759D01*
X501025Y487664D01*
X501192Y487545D01*
X501287Y487497D01*
X501621Y487163D01*
X501717Y487115D01*
X502051Y486781D01*
X502481Y486542D01*
X502815Y486208D01*
X503054Y486064D01*
X503149Y485969D01*
X503245Y485921D01*
X503412Y485754D01*
X503603Y485420D01*
X503817Y485205D01*
X503913Y485157D01*
X504080Y484990D01*
X504128Y484895D01*
X504199Y484823D01*
X504295Y484775D01*
X504557Y484513D01*
X504605Y484417D01*
X504677Y484346D01*
X504772Y484298D01*
X505035Y484035D01*
X505083Y483940D01*
X505154Y483868D01*
X505250Y483820D01*
X505417Y483653D01*
X505465Y483558D01*
X505799Y483224D01*
X506157Y482627D01*
X506252Y482579D01*
X506467Y482269D01*
X506515Y482173D01*
X506682Y482054D01*
X506897Y481791D01*
X506945Y481696D01*
X507064Y481577D01*
X507160Y481529D01*
X507231Y481457D01*
X507422Y481123D01*
X507613Y480932D01*
X507900Y480407D01*
X507971Y480335D01*
X508186Y480073D01*
X508234Y479977D01*
X508377Y479643D01*
X508520Y479500D01*
X508711Y479166D01*
X508807Y478927D01*
X508926Y478808D01*
X509021Y478760D01*
X509117Y478569D01*
X509189Y478163D01*
X509236Y477972D01*
X509499Y477710D01*
X509666Y477256D01*
X509762Y477017D01*
X509929Y476850D01*
X510024Y476611D01*
X510096Y476062D01*
X510143Y475871D01*
X510215Y475657D01*
X510406Y475370D01*
X510502Y475131D01*
X510549Y474893D01*
X510621Y472959D01*
X510573Y470906D01*
X510525Y470572D01*
X510406Y470262D01*
X510167Y469880D01*
X510048Y469187D01*
X510000Y468996D01*
X509738Y468734D01*
X509523Y468137D01*
X509332Y467946D01*
X509093Y467516D01*
X508711Y467134D01*
X508663Y467039D01*
X507732Y466108D01*
X507637Y466060D01*
X507255Y465678D01*
X506921Y465487D01*
X506706Y465225D01*
X506467Y465129D01*
X506205Y465058D01*
X505823Y464676D01*
X505536Y464628D01*
X505202Y464580D01*
X504987Y464461D01*
X504605Y464222D01*
X504319Y464174D01*
X504008Y464103D01*
X503483Y463864D01*
X503245Y463816D01*
X503101Y463769D01*
X499759Y463721D01*
X494555Y463769D01*
X493935Y463816D01*
X493744Y463864D01*
X493433Y463983D01*
X493171Y464055D01*
X493028Y464103D01*
X492359Y464151D01*
X492168Y464198D01*
X491834Y464246D01*
X491309Y464580D01*
X490927Y464628D01*
X490259Y464723D01*
X489901Y464938D01*
X489662Y465034D01*
X489208Y465105D01*
X488969Y465201D01*
X488540Y465535D01*
X488062Y465583D01*
X487728Y465678D01*
X487633Y465774D01*
X487370Y465941D01*
X487060Y466060D01*
X486821Y466156D01*
X486678Y466299D01*
X486415Y466466D01*
X486153Y466538D01*
X485914Y466633D01*
X485842Y466705D01*
X485580Y466920D01*
X485389Y466967D01*
X485055Y467063D01*
X484840Y467278D01*
X484529Y467397D01*
X484195Y467445D01*
X483885Y467755D01*
X483646Y467851D01*
X483384Y467922D01*
X483193Y468113D01*
X483026Y468232D01*
X482715Y468352D01*
X482477Y468447D01*
X482381Y468543D01*
X482285Y468591D01*
X482214Y468662D01*
X481904Y468782D01*
X481784Y468901D01*
X481665Y469068D01*
X481235Y469307D01*
X481140Y469355D01*
X480997Y469498D01*
X480758Y469641D01*
X480519Y469736D01*
X480280Y469975D01*
X480113Y470094D01*
X479803Y470214D01*
X479660Y470357D01*
X479134Y470644D01*
X478920Y470858D01*
X478872Y470954D01*
X478514Y471121D01*
X478323Y471312D01*
X477798Y471598D01*
X477631Y471766D01*
X477583Y471861D01*
X477272Y472028D01*
X477153Y472147D01*
X477105Y472243D01*
X477034Y472314D01*
X476628Y472577D01*
X476365Y472792D01*
X476174Y472840D01*
X476151Y472864D01*
X475888Y472983D01*
X475816Y473102D01*
X475554Y473317D01*
X475458Y473365D01*
X475339Y473484D01*
X475291Y473580D01*
X475172Y473699D01*
X474838Y473890D01*
X474694Y474033D01*
X474360Y474272D01*
X474265Y474320D01*
X474026Y474558D01*
X473692Y474749D01*
X473525Y474916D01*
X473477Y475012D01*
X473382Y475107D01*
X473095Y475299D01*
X473047Y475394D01*
X472832Y475609D01*
X472737Y475657D01*
X472307Y476086D01*
X472212Y476134D01*
X472092Y476253D01*
X472045Y476349D01*
X471973Y476420D01*
X471639Y476611D01*
X471543Y476659D01*
X471114Y477089D01*
X471018Y477137D01*
X470875Y477280D01*
X470445Y477519D01*
X470278Y477686D01*
X470230Y477781D01*
X470159Y477853D01*
X470063Y477900D01*
X469801Y478163D01*
X469753Y478259D01*
X469681Y478330D01*
X469586Y478378D01*
X469156Y478808D01*
X469061Y478855D01*
X468941Y478975D01*
X468822Y479142D01*
X468727Y479189D01*
X468631Y479285D01*
X468536Y479333D01*
X468512Y479404D01*
X468154Y479762D01*
X468058Y479810D01*
X468034Y479882D01*
X467891Y480025D01*
X467843Y480121D01*
X467772Y480144D01*
X466769Y481147D01*
X466674Y481195D01*
X466650Y481266D01*
X466554Y481362D01*
X466507Y481457D01*
X466435Y481481D01*
X466339Y481577D01*
X466244Y481624D01*
X466125Y481791D01*
X466077Y481887D01*
X465957Y482006D01*
X465862Y482054D01*
X465790Y482126D01*
X465743Y482221D01*
X465647Y482317D01*
X465599Y482412D01*
X465528Y482436D01*
X465218Y482746D01*
X465170Y482842D01*
X465098Y482913D01*
X465003Y482961D01*
X464788Y483176D01*
X464740Y483271D01*
X464573Y483439D01*
X464478Y483486D01*
X464406Y483558D01*
X464215Y483892D01*
X464167Y483988D01*
X464024Y484131D01*
X463976Y484226D01*
X463881Y484322D01*
X463833Y484417D01*
X463666Y484584D01*
X463427Y484871D01*
X463236Y485157D01*
X463141Y485205D01*
X463069Y485277D01*
X463021Y485372D01*
X462926Y485468D01*
X462878Y485563D01*
X462807Y485635D01*
X462711Y485682D01*
X462544Y485850D01*
X462496Y485945D01*
X462114Y486327D01*
X462066Y486423D01*
X461804Y486685D01*
X461708Y486733D01*
X461684Y486805D01*
X461446Y487139D01*
X461398Y487234D01*
X461207Y487425D01*
X461016Y487759D01*
X460777Y487998D01*
X460634Y488237D01*
X460467Y488404D01*
X460300Y488523D01*
X460157Y488762D01*
X459990Y488929D01*
X459775Y489192D01*
X459584Y489669D01*
X459441Y489812D01*
X459297Y490051D01*
X458987Y490361D01*
X458772Y490624D01*
X458725Y490719D01*
X458486Y490958D01*
X458343Y491197D01*
X458247Y491436D01*
X458056Y491627D01*
X457865Y491961D01*
X457531Y492295D01*
X457388Y492534D01*
X457292Y492772D01*
X457197Y492868D01*
X456910Y493393D01*
X456671Y493632D01*
X456624Y493727D01*
X456552Y493799D01*
X456433Y494109D01*
X456242Y494300D01*
X456003Y494730D01*
X455621Y495112D01*
X455573Y495350D01*
X455478Y495589D01*
X455430Y495685D01*
X455359Y495709D01*
X455191Y495923D01*
X455000Y496401D01*
X454857Y496544D01*
X454714Y496783D01*
X454619Y497021D01*
X454380Y497260D01*
X454260Y497427D01*
X454189Y497738D01*
X454141Y497929D01*
X453902Y498167D01*
X453616Y498692D01*
X453568Y498788D01*
X453377Y498979D01*
X453330Y499170D01*
X453186Y499504D01*
X452948Y499743D01*
X452804Y500125D01*
X452709Y500363D01*
X452661Y500459D01*
X452470Y500650D01*
X452327Y501223D01*
X452208Y501342D01*
X451969Y501629D01*
X451897Y501987D01*
X451802Y502225D01*
X451659Y502369D01*
X451539Y502536D01*
X451468Y502846D01*
X451420Y503037D01*
X451253Y503204D01*
X451038Y503467D01*
X450990Y503753D01*
X450895Y504087D01*
X450608Y504517D01*
X450513Y504947D01*
X450465Y505138D01*
X450226Y505376D01*
X450107Y505544D01*
X450035Y505949D01*
X449987Y506140D01*
X449701Y506570D01*
X449653Y506952D01*
X449558Y507334D01*
X449224Y507811D01*
X449080Y508384D01*
X448985Y508623D01*
X448770Y509029D01*
X448699Y509435D01*
X448651Y509626D01*
X448555Y509864D01*
X448388Y510031D01*
X448293Y510270D01*
X448221Y510819D01*
X448126Y511153D01*
X447958Y511464D01*
X447863Y511702D01*
X447791Y512108D01*
X447744Y512299D01*
X447362Y513111D01*
X447314Y513827D01*
X447266Y514018D01*
X447075Y514448D01*
X447028Y514543D01*
X446932Y514782D01*
X446884Y515450D01*
X446837Y515784D01*
X446693Y516119D01*
X446455Y516548D01*
X446407Y517264D01*
X446335Y517909D01*
X446287Y518148D01*
X446240Y518339D01*
X446073Y518792D01*
X446025Y518935D01*
X445977Y519842D01*
X445929Y520320D01*
X445810Y520726D01*
X445738Y521036D01*
X445691Y521227D01*
X445595Y521466D01*
X445547Y522134D01*
X445500Y522277D01*
X445452Y525333D01*
X445404Y525524D01*
X445356Y525667D01*
X445309Y526097D01*
X445356Y526240D01*
X445333Y528221D01*
X445380Y529033D01*
X445428Y529272D01*
X445476Y530847D01*
X445547Y532781D01*
X445667Y533043D01*
X445762Y533282D01*
X445810Y533521D01*
X445858Y533807D01*
X445953Y534428D01*
X446025Y535168D01*
X446359Y535884D01*
X446407Y536457D01*
X446455Y536791D01*
X446598Y537125D01*
X446646Y537221D01*
X446717Y537292D01*
X446813Y537531D01*
X446860Y537818D01*
X446908Y538247D01*
X446980Y538558D01*
X447219Y538940D01*
X447362Y539608D01*
X447409Y539799D01*
X447744Y540324D01*
X447839Y541136D01*
X448149Y541732D01*
X448197Y541923D01*
X448245Y542162D01*
X448316Y542472D01*
X448651Y542950D01*
X448746Y543666D01*
X448794Y543857D01*
X448890Y543953D01*
X448937Y544048D01*
X449009Y544120D01*
X449128Y544430D01*
X449176Y544764D01*
X449224Y544955D01*
X449319Y545194D01*
X449486Y545361D01*
X449582Y545600D01*
X449653Y545958D01*
X449701Y546292D01*
X449820Y546507D01*
X450035Y546769D01*
X450083Y547342D01*
X450131Y547533D01*
X450322Y547724D01*
X450513Y548058D01*
X450560Y548249D01*
X450608Y548584D01*
X450823Y548942D01*
X450942Y549252D01*
X451086Y549825D01*
X451181Y549920D01*
X451229Y550016D01*
X451301Y550088D01*
X451420Y550398D01*
X451468Y550732D01*
X451659Y551162D01*
X451826Y551424D01*
X451897Y551830D01*
X451993Y552164D01*
X452255Y552427D01*
X452375Y552928D01*
X452422Y553119D01*
X452566Y553358D01*
X452733Y553620D01*
X452804Y553883D01*
X452852Y554217D01*
X452948Y554456D01*
X453139Y554647D01*
X453210Y554814D01*
X453282Y555172D01*
X453330Y555363D01*
X453425Y555602D01*
X453568Y555745D01*
X453688Y555912D01*
X453759Y556222D01*
X453807Y556557D01*
X454093Y556843D01*
X454141Y556939D01*
X454189Y557130D01*
X454237Y557464D01*
X454356Y557679D01*
X454451Y557726D01*
X454523Y557846D01*
X454595Y558013D01*
X454666Y558419D01*
X454762Y558657D01*
X454905Y558801D01*
X455024Y558968D01*
X455144Y559469D01*
X455239Y559708D01*
X455311Y559779D01*
X455526Y560042D01*
X455573Y560281D01*
X455669Y560662D01*
X455860Y560854D01*
X455979Y561021D01*
X456051Y561379D01*
X456146Y561617D01*
X456218Y561689D01*
X456409Y561976D01*
X456480Y562286D01*
X456576Y562668D01*
X456648Y562739D01*
X456839Y563026D01*
X456958Y563336D01*
X457125Y563646D01*
X457340Y563909D01*
X457388Y564100D01*
X457483Y564434D01*
X457555Y564506D01*
X457650Y564554D01*
X457817Y564768D01*
X457865Y565007D01*
X457913Y565198D01*
X457961Y565341D01*
X458008Y565437D01*
X458199Y565628D01*
X458295Y565867D01*
X458390Y566248D01*
X458510Y566368D01*
X458748Y566654D01*
X458820Y567012D01*
X458868Y567203D01*
X459106Y567442D01*
X459202Y567681D01*
X459250Y567872D01*
X459369Y568134D01*
X459464Y568182D01*
X459679Y568397D01*
X459727Y568779D01*
X459823Y569017D01*
X459894Y569041D01*
X459966Y569113D01*
X460085Y569280D01*
X460205Y569781D01*
X460419Y569996D01*
X460515Y570044D01*
X460563Y570139D01*
X460658Y570378D01*
X460730Y570641D01*
X460968Y570880D01*
X461207Y571309D01*
X461255Y571405D01*
X461350Y571500D01*
X461637Y572025D01*
X461828Y572216D01*
X462066Y572646D01*
X462138Y572718D01*
X462234Y572765D01*
X462305Y572837D01*
X462544Y573267D01*
X462735Y573458D01*
X462974Y573887D01*
X463141Y574054D01*
X463236Y574102D01*
X463355Y574269D01*
X463403Y574365D01*
X463666Y574627D01*
X463761Y574675D01*
X463833Y574794D01*
X463881Y574890D01*
X464167Y575176D01*
X464215Y575272D01*
X464478Y575534D01*
X464573Y575582D01*
X464645Y575654D01*
X464692Y575749D01*
X465027Y576083D01*
X465265Y576418D01*
X465313Y576513D01*
X465480Y576680D01*
X465814Y576871D01*
X465981Y577038D01*
X466101Y577205D01*
X466196Y577253D01*
X466292Y577349D01*
X466387Y577396D01*
X466507Y577516D01*
X466554Y577611D01*
X466721Y577778D01*
X466817Y577826D01*
X466889Y577898D01*
X467008Y578065D01*
X467247Y578208D01*
X467676Y578638D01*
X467772Y578685D01*
X468106Y579020D01*
X468536Y579258D01*
X468774Y579497D01*
X468870Y579545D01*
X469228Y579760D01*
X469276Y579855D01*
X469347Y579927D01*
X469681Y580118D01*
X469896Y580237D01*
X469944Y580332D01*
X470135Y580523D01*
X470398Y580595D01*
X470636Y580691D01*
X470779Y580834D01*
X470947Y580953D01*
X471209Y581025D01*
X471448Y581120D01*
X471472Y581192D01*
X471543Y581264D01*
X471711Y581383D01*
X472164Y581550D01*
X472450Y581741D01*
X472689Y581884D01*
X472880Y581932D01*
X473214Y581980D01*
X473453Y582218D01*
X473620Y582338D01*
X473883Y582409D01*
X474193Y582529D01*
X474575Y582767D01*
X475076Y582839D01*
X475315Y582934D01*
X475554Y583173D01*
X475721Y583245D01*
X476031Y583316D01*
X476365Y583364D01*
X476604Y583460D01*
X477034Y583698D01*
X477702Y583746D01*
X477893Y583794D01*
X478132Y583937D01*
X478466Y584176D01*
X479230Y584224D01*
X479421Y584271D01*
X479755Y584319D01*
X480185Y584510D01*
X480424Y584605D01*
X481092Y584653D01*
X481569Y584701D01*
X481832Y584773D01*
X482142Y584844D01*
X482381Y584940D01*
X482644Y585059D01*
X482882Y585107D01*
X485150Y585178D01*
X485341Y585226D01*
X485580Y585322D01*
X486439Y585274D01*
X486773Y585417D01*
X488874Y585465D01*
X489017Y585513D01*
X494269Y585465D01*
D02*
G37*
G36*
X526829Y622704D02*
X527426Y622728D01*
X528166Y622704D01*
X528787Y622657D01*
X529264Y622513D01*
X529455Y622466D01*
X529933Y622322D01*
X530076Y622275D01*
X530935Y622227D01*
X531317Y622131D01*
X531651Y621988D01*
X531890Y621893D01*
X532034Y621845D01*
X532654Y621797D01*
X532845Y621749D01*
X533084Y621654D01*
X533179Y621558D01*
X533513Y621367D01*
X534468Y621272D01*
X534946Y620938D01*
X535328Y620890D01*
X535710Y620794D01*
X535972Y620532D01*
X536283Y620413D01*
X536760Y620365D01*
X537094Y620126D01*
X537333Y619983D01*
X537810Y619840D01*
X537954Y619696D01*
X538288Y619506D01*
X538622Y619458D01*
X538861Y619362D01*
X539099Y619123D01*
X539577Y618933D01*
X539720Y618789D01*
X539816Y618742D01*
X539887Y618670D01*
X540197Y618551D01*
X540388Y618503D01*
X540675Y618312D01*
X540914Y618169D01*
X541152Y618073D01*
X541224Y618002D01*
X541272Y617906D01*
X541415Y617763D01*
X541654Y617667D01*
X541916Y617596D01*
X542203Y617309D01*
X542537Y617118D01*
X542680Y616975D01*
X543014Y616784D01*
X543205Y616736D01*
X543468Y616617D01*
X543516Y616522D01*
X543587Y616450D01*
X544017Y616211D01*
X544208Y616020D01*
X544375Y615901D01*
X544685Y615782D01*
X544900Y615567D01*
X544948Y615471D01*
X545306Y615256D01*
X545401Y615209D01*
X545497Y615113D01*
X545831Y614922D01*
X546070Y614827D01*
X546213Y614683D01*
X546547Y614445D01*
X546643Y614397D01*
X546762Y614278D01*
X546810Y614182D01*
X547263Y613872D01*
X547359Y613824D01*
X547383Y613753D01*
X547454Y613729D01*
X547550Y613633D01*
X547884Y613442D01*
X547980Y613394D01*
X548003Y613323D01*
X548123Y613203D01*
X548457Y613013D01*
X548624Y612798D01*
X548887Y612583D01*
X548982Y612535D01*
X549173Y612344D01*
X549698Y612058D01*
X549889Y611867D01*
X550224Y611676D01*
X550343Y611556D01*
X550391Y611461D01*
X550462Y611389D01*
X550701Y611246D01*
X550868Y611079D01*
X550916Y610983D01*
X551131Y610816D01*
X551226Y610769D01*
X551465Y610530D01*
X551799Y610291D01*
X551894Y610243D01*
X552276Y609861D01*
X552372Y609814D01*
X552563Y609623D01*
X552897Y609384D01*
X552993Y609336D01*
X553064Y609265D01*
X553112Y609169D01*
X553589Y608692D01*
X553852Y608477D01*
X553947Y608429D01*
X554019Y608358D01*
X554067Y608262D01*
X554282Y608047D01*
X554377Y607999D01*
X554449Y607928D01*
X554496Y607832D01*
X554711Y607617D01*
X554807Y607570D01*
X554926Y607450D01*
X554974Y607355D01*
X555189Y607140D01*
X555284Y607092D01*
X555666Y606710D01*
X555762Y606663D01*
X555929Y606496D01*
X555976Y606400D01*
X556096Y606281D01*
X556191Y606233D01*
X556358Y606066D01*
X556406Y605970D01*
X556525Y605851D01*
X556621Y605803D01*
X556836Y605588D01*
X556884Y605493D01*
X557003Y605374D01*
X557098Y605326D01*
X557266Y605159D01*
X557313Y605063D01*
X557433Y604944D01*
X557528Y604896D01*
X557791Y604634D01*
X557838Y604538D01*
X558125Y604252D01*
X558173Y604156D01*
X558387Y603941D01*
X558483Y603894D01*
X558602Y603774D01*
X558650Y603679D01*
X558865Y603464D01*
X558960Y603416D01*
X559032Y603345D01*
X559080Y603249D01*
X559295Y603034D01*
X559390Y602986D01*
X559462Y602915D01*
X559605Y602676D01*
X560202Y602079D01*
X560297Y602032D01*
X560369Y601960D01*
X560560Y601626D01*
X561228Y600957D01*
X561467Y600528D01*
X561849Y600146D01*
X561897Y600050D01*
X562279Y599668D01*
X562326Y599573D01*
X562422Y599477D01*
X562469Y599382D01*
X562589Y599310D01*
X562804Y599048D01*
X562851Y598952D01*
X563090Y598713D01*
X563281Y598379D01*
X563711Y597759D01*
X563759Y597663D01*
X563830Y597592D01*
X563926Y597544D01*
X564045Y597425D01*
X564188Y597186D01*
X564475Y596899D01*
X564666Y596565D01*
X564809Y596422D01*
X564857Y596326D01*
X564952Y596231D01*
X565143Y595897D01*
X565191Y595801D01*
X565262Y595777D01*
X565430Y595610D01*
X565573Y595372D01*
X565812Y595133D01*
X565979Y594870D01*
X566098Y594560D01*
X566241Y594417D01*
X566480Y593987D01*
X566599Y593868D01*
X566766Y593748D01*
X567005Y593319D01*
X567053Y593223D01*
X567196Y593080D01*
X567435Y592650D01*
X567721Y592364D01*
X567840Y592197D01*
X567912Y591934D01*
X568103Y591743D01*
X568390Y591218D01*
X568652Y590955D01*
X568772Y590645D01*
X568867Y590406D01*
X568915Y590311D01*
X569010Y590263D01*
X569297Y589738D01*
X569440Y589595D01*
X569559Y589427D01*
X569679Y589117D01*
X569726Y588926D01*
X570013Y588640D01*
X570204Y588115D01*
X570514Y587804D01*
X570634Y587494D01*
X570729Y587255D01*
X570968Y587016D01*
X571159Y586491D01*
X571302Y586348D01*
X571350Y586253D01*
X571421Y586181D01*
X571493Y585871D01*
X571588Y585632D01*
X571875Y585345D01*
X572018Y584964D01*
X572066Y584773D01*
X572281Y584558D01*
X572376Y584319D01*
X572448Y584009D01*
X572543Y583770D01*
X572782Y583531D01*
X572854Y583364D01*
X572925Y582958D01*
X573116Y582672D01*
X573283Y582409D01*
X573355Y582099D01*
X573450Y581860D01*
X573593Y581717D01*
X573761Y581455D01*
X573832Y581144D01*
X573880Y580953D01*
X573975Y580714D01*
X574214Y580380D01*
X574262Y579951D01*
X574357Y579616D01*
X574429Y579545D01*
X574668Y579163D01*
X574715Y578972D01*
X574787Y578662D01*
X575026Y578327D01*
X575121Y578089D01*
X575169Y577898D01*
X575217Y577564D01*
X575312Y577325D01*
X575408Y577229D01*
X575456Y577134D01*
X575527Y577062D01*
X575623Y576824D01*
X575694Y576370D01*
X575742Y576179D01*
X576005Y575678D01*
X576076Y575320D01*
X576172Y574747D01*
X576410Y574412D01*
X576554Y574030D01*
X576601Y573553D01*
X576649Y573362D01*
X576864Y572956D01*
X576959Y572718D01*
X577031Y571930D01*
X577222Y571500D01*
X577341Y571333D01*
X577437Y571094D01*
X577509Y570307D01*
X577556Y569972D01*
X577604Y569781D01*
X577843Y569256D01*
X577890Y568970D01*
X577938Y568349D01*
X577986Y568015D01*
X578081Y567681D01*
X578248Y567275D01*
X578320Y566965D01*
X578368Y566821D01*
X578416Y565580D01*
X578463Y565103D01*
X578511Y564959D01*
X578559Y564291D01*
X578654Y564052D01*
X578702Y563288D01*
X578750Y563145D01*
X578797Y555506D01*
X578702Y554217D01*
X578654Y553740D01*
X578535Y553334D01*
X578487Y553048D01*
X578416Y552069D01*
X578368Y551591D01*
X578320Y551257D01*
X578177Y550923D01*
X577986Y550589D01*
X577890Y549538D01*
X577676Y549037D01*
X577580Y548798D01*
X577532Y548607D01*
X577461Y548011D01*
X577270Y547581D01*
X577150Y547414D01*
X577055Y547175D01*
X577007Y546936D01*
X576936Y546340D01*
X576840Y546006D01*
X576601Y545671D01*
X576554Y545194D01*
X576458Y544860D01*
X576363Y544764D01*
X576315Y544669D01*
X576219Y544573D01*
X576100Y544263D01*
X576028Y543762D01*
X575694Y543236D01*
X575647Y542854D01*
X575599Y542663D01*
X575503Y542425D01*
X575288Y542210D01*
X575217Y541947D01*
X575121Y541279D01*
X574883Y540945D01*
X574811Y540778D01*
X574739Y540420D01*
X574644Y540038D01*
X574453Y539751D01*
X574310Y539512D01*
X574262Y539369D01*
X574214Y538892D01*
X574095Y538582D01*
X573880Y538319D01*
X573832Y538080D01*
X573784Y537746D01*
X573737Y537555D01*
X573546Y537364D01*
X573427Y537197D01*
X573307Y536696D01*
X573259Y536505D01*
X573164Y536266D01*
X573045Y536147D01*
X572949Y535908D01*
X572901Y535621D01*
X572830Y535311D01*
X572663Y535144D01*
X572448Y534881D01*
X572400Y534404D01*
X572304Y534070D01*
X572161Y533927D01*
X571970Y533592D01*
X571923Y533306D01*
X571827Y533067D01*
X571755Y532996D01*
X571564Y532709D01*
X571445Y531969D01*
X571111Y531492D01*
X571063Y531157D01*
X570968Y530775D01*
X570705Y530513D01*
X570634Y530250D01*
X570586Y529916D01*
X570490Y529678D01*
X570347Y529582D01*
X570299Y529487D01*
X570228Y529415D01*
X570132Y528890D01*
X570061Y528627D01*
X569870Y528436D01*
X569822Y528341D01*
X569750Y528269D01*
X569679Y527959D01*
X569583Y527625D01*
X569512Y527553D01*
X569321Y527267D01*
X569201Y526765D01*
X569106Y526526D01*
X569010Y526431D01*
X568843Y526168D01*
X568772Y525906D01*
X568676Y525667D01*
X568628Y525572D01*
X568437Y525381D01*
X568342Y525142D01*
X568294Y524808D01*
X568199Y524569D01*
X568055Y524426D01*
X567888Y524163D01*
X567817Y523901D01*
X567697Y523590D01*
X567459Y523208D01*
X567387Y522946D01*
X567339Y522755D01*
X567220Y522540D01*
X567124Y522492D01*
X567005Y522325D01*
X566910Y522086D01*
X566814Y521704D01*
X566599Y521490D01*
X566480Y521179D01*
X566432Y520988D01*
X566384Y520845D01*
X566337Y520750D01*
X566098Y520511D01*
X566002Y520272D01*
X565955Y520081D01*
X565883Y519866D01*
X565668Y519604D01*
X565597Y519437D01*
X565549Y519246D01*
X565477Y518983D01*
X565167Y518673D01*
X565000Y518219D01*
X564857Y518076D01*
X564618Y517646D01*
X564522Y517408D01*
X564379Y517264D01*
X564332Y517169D01*
X564260Y517097D01*
X564141Y516596D01*
X563782Y516238D01*
X563663Y515928D01*
X563544Y515665D01*
X563448Y515617D01*
X563329Y515450D01*
X563186Y515068D01*
X562995Y514782D01*
X562708Y514257D01*
X562660Y514161D01*
X562589Y514137D01*
X562469Y514018D01*
X562231Y513588D01*
X562183Y513493D01*
X562040Y513349D01*
X561849Y513015D01*
X561634Y512800D01*
X561419Y512538D01*
X561371Y512442D01*
X561037Y512108D01*
X560846Y511774D01*
X560703Y511631D01*
X560655Y511535D01*
X560584Y511464D01*
X560464Y511153D01*
X560035Y510724D01*
X559987Y510628D01*
X559915Y510556D01*
X559820Y510509D01*
X559653Y510342D01*
X559605Y510246D01*
X559223Y509864D01*
X559175Y509769D01*
X558960Y509554D01*
X558865Y509506D01*
X558745Y509387D01*
X558698Y509291D01*
X558531Y509124D01*
X558435Y509076D01*
X558101Y508742D01*
X558005Y508694D01*
X557743Y508432D01*
X557695Y508336D01*
X557480Y508169D01*
X557385Y508122D01*
X557098Y507835D01*
X556669Y507596D01*
X556525Y507453D01*
X556191Y507262D01*
X556096Y507215D01*
X556024Y507143D01*
X555976Y507047D01*
X555714Y506833D01*
X555618Y506785D01*
X555284Y506451D01*
X554855Y506212D01*
X554759Y506164D01*
X554664Y506069D01*
X554329Y505878D01*
X554114Y505758D01*
X554067Y505663D01*
X553995Y505591D01*
X553828Y505472D01*
X553374Y505305D01*
X553231Y505162D01*
X552897Y504971D01*
X552706Y504923D01*
X552467Y504827D01*
X552396Y504756D01*
X552133Y504541D01*
X551942Y504493D01*
X551608Y504350D01*
X551512Y504254D01*
X551417Y504207D01*
X551345Y504135D01*
X551083Y504063D01*
X550892Y504016D01*
X550653Y503920D01*
X550582Y503849D01*
X550319Y503634D01*
X549937Y503538D01*
X549627Y503419D01*
X549340Y503228D01*
X548839Y503109D01*
X548648Y503061D01*
X548171Y502727D01*
X547980Y502679D01*
X547502Y502631D01*
X547239Y502560D01*
X546786Y502249D01*
X546213Y502201D01*
X545879Y502154D01*
X545163Y501820D01*
X545019Y501772D01*
X544303Y501724D01*
X543731Y501629D01*
X543349Y501390D01*
X542823Y501342D01*
X542680Y501294D01*
X541678Y501247D01*
X541487Y501199D01*
X540938Y501032D01*
X540746Y500984D01*
X540293Y500913D01*
X540150Y500865D01*
X538526Y500817D01*
X538383Y500769D01*
X537643Y500793D01*
X537285Y500769D01*
X536665Y500722D01*
X536521Y500674D01*
X530864Y500698D01*
X530577Y500745D01*
X530004Y500793D01*
X529169Y500769D01*
X528978Y500817D01*
X527498Y500865D01*
X527164Y500913D01*
X526638Y501151D01*
X526161Y501199D01*
X526018Y501247D01*
X525159Y501294D01*
X524681Y501342D01*
X524299Y501438D01*
X523774Y501676D01*
X523153Y501724D01*
X522962Y501772D01*
X522628Y501820D01*
X522294Y501915D01*
X521769Y502154D01*
X521291Y502201D01*
X520957Y502249D01*
X520766Y502297D01*
X520408Y502512D01*
X520169Y502607D01*
X519573Y502679D01*
X519238Y502727D01*
X518761Y503061D01*
X518284Y503109D01*
X517902Y503204D01*
X517758Y503347D01*
X517496Y503514D01*
X517042Y503586D01*
X516851Y503634D01*
X516613Y503729D01*
X516517Y503825D01*
X516350Y503944D01*
X515801Y504063D01*
X515562Y504159D01*
X515419Y504302D01*
X515180Y504445D01*
X514894Y504493D01*
X514655Y504589D01*
X514560Y504636D01*
X514464Y504732D01*
X514130Y504923D01*
X513748Y505018D01*
X513605Y505162D01*
X513175Y505400D01*
X512984Y505448D01*
X512769Y505520D01*
X512483Y505758D01*
X512029Y505925D01*
X511910Y506045D01*
X511647Y506260D01*
X511456Y506307D01*
X511218Y506403D01*
X510979Y506642D01*
X510740Y506785D01*
X510502Y506880D01*
X510358Y507024D01*
X510191Y507143D01*
X509881Y507262D01*
X509594Y507549D01*
X509165Y507787D01*
X508974Y507978D01*
X508544Y508217D01*
X508258Y508504D01*
X508019Y508647D01*
X507637Y509029D01*
X507541Y509076D01*
X507327Y509291D01*
X507279Y509387D01*
X507160Y509458D01*
X507064Y509506D01*
X506682Y509888D01*
X506587Y509936D01*
X506419Y510103D01*
X506372Y510198D01*
X506205Y510365D01*
X506109Y510413D01*
X505990Y510533D01*
X505942Y510628D01*
X505775Y510795D01*
X505680Y510843D01*
X505512Y511010D01*
X505465Y511105D01*
X505298Y511273D01*
X505202Y511320D01*
X505083Y511440D01*
X505035Y511535D01*
X504820Y511750D01*
X504725Y511798D01*
X504701Y511869D01*
X504605Y511965D01*
X504557Y512060D01*
X504390Y512228D01*
X504295Y512275D01*
X504176Y512442D01*
X504128Y512538D01*
X503913Y512753D01*
X503698Y513015D01*
X503650Y513111D01*
X503340Y513421D01*
X503221Y513731D01*
X503125Y513970D01*
X503054Y513994D01*
X502887Y514161D01*
X502696Y514495D01*
X502648Y514591D01*
X502505Y514686D01*
X502385Y514853D01*
X502314Y515116D01*
X502266Y515307D01*
X502027Y515546D01*
X501908Y515713D01*
X501836Y515975D01*
X501741Y516214D01*
X501502Y516453D01*
X501430Y516620D01*
X501359Y516930D01*
X501263Y517169D01*
X501025Y517408D01*
X500929Y517837D01*
X500881Y518172D01*
X500786Y518267D01*
X500547Y518601D01*
X500499Y518888D01*
X500452Y519222D01*
X500404Y519413D01*
X500308Y519651D01*
X500237Y519723D01*
X500094Y520010D01*
X500022Y520559D01*
X499974Y521179D01*
X499879Y521513D01*
X499688Y521943D01*
X499640Y522803D01*
X499592Y522946D01*
X499544Y524139D01*
X499592Y524282D01*
X499640Y525381D01*
X499807Y525786D01*
X499903Y526025D01*
X500022Y526574D01*
X500070Y526908D01*
X500117Y527099D01*
X500356Y527434D01*
X500452Y527672D01*
X500547Y528054D01*
X500714Y528221D01*
X501025Y528675D01*
X501072Y528770D01*
X501144Y528794D01*
X501263Y528914D01*
X501311Y529009D01*
X501955Y529654D01*
X502051Y529701D01*
X502146Y529797D01*
X502242Y529845D01*
X502266Y529916D01*
X502385Y530036D01*
X502815Y530274D01*
X502887Y530346D01*
X503149Y530561D01*
X503436Y530608D01*
X503674Y530704D01*
X503770Y530799D01*
X504104Y531038D01*
X504677Y531086D01*
X505011Y531181D01*
X505130Y531301D01*
X505369Y531396D01*
X505608Y531444D01*
X505894Y531492D01*
X507207Y531563D01*
X507685Y531611D01*
X507923Y531707D01*
X510692Y531754D01*
X511098Y531635D01*
X511289Y531587D01*
X513271Y531516D01*
X514035Y531468D01*
X514273Y531372D01*
X514703Y531325D01*
X514894Y531277D01*
X515228Y531134D01*
X516326Y531086D01*
X516517Y531038D01*
X517138Y530990D01*
X517520Y530895D01*
X518045Y530656D01*
X518952Y530608D01*
X519429Y530561D01*
X519620Y530513D01*
X519883Y530394D01*
X520265Y530250D01*
X520551Y530203D01*
X521482Y530131D01*
X522055Y529988D01*
X522580Y529749D01*
X523344Y529701D01*
X523535Y529654D01*
X523870Y529606D01*
X524586Y529272D01*
X525397Y529224D01*
X525731Y529176D01*
X525970Y529081D01*
X526185Y528961D01*
X526424Y528866D01*
X526877Y528794D01*
X527498Y528746D01*
X527689Y528699D01*
X528023Y528603D01*
X528333Y528484D01*
X528572Y528388D01*
X529073Y528317D01*
X529694Y528269D01*
X530076Y528174D01*
X530291Y528102D01*
X530673Y527959D01*
X531079Y527887D01*
X531556Y527839D01*
X532177Y527792D01*
X532511Y527744D01*
X533132Y527457D01*
X534039Y527410D01*
X534683Y527338D01*
X535185Y527267D01*
X535376Y527219D01*
X535686Y527099D01*
X535924Y527004D01*
X537381Y526932D01*
X537715Y526884D01*
X538192Y526837D01*
X538383Y526789D01*
X538526Y526741D01*
X538956Y526693D01*
X539147Y526646D01*
X539290Y526598D01*
X539672Y526550D01*
X539816Y526503D01*
X539863Y526550D01*
X540221Y526526D01*
X541654Y526479D01*
X542823Y526407D01*
X542967Y526455D01*
X543587Y526407D01*
X543778Y526359D01*
X544041Y526288D01*
X544327Y526240D01*
X547120Y526264D01*
X547741Y526216D01*
X547932Y526264D01*
X548171Y526359D01*
X548982Y526407D01*
X549125Y526455D01*
X549221Y526407D01*
X549770Y526431D01*
X550200Y526479D01*
X551250Y526526D01*
X551894Y526598D01*
X552229Y526646D01*
X552420Y526693D01*
X552826Y526813D01*
X553112Y526861D01*
X554091Y526932D01*
X554425Y526980D01*
X554902Y527028D01*
X555141Y527123D01*
X555571Y527314D01*
X555714Y527362D01*
X556430Y527410D01*
X556812Y527505D01*
X557098Y527696D01*
X557266Y527768D01*
X557624Y527839D01*
X558101Y527887D01*
X558364Y527959D01*
X558817Y528269D01*
X559247Y528317D01*
X559581Y528365D01*
X560059Y528699D01*
X560440Y528794D01*
X560775Y528842D01*
X560894Y528961D01*
X561157Y529176D01*
X561539Y529224D01*
X561873Y529319D01*
X562064Y529510D01*
X562231Y529630D01*
X562541Y529701D01*
X562732Y529749D01*
X562923Y529940D01*
X563257Y530131D01*
X563591Y530227D01*
X563878Y530513D01*
X564403Y530704D01*
X564594Y530895D01*
X565024Y531134D01*
X565262Y531372D01*
X565501Y531516D01*
X565835Y531611D01*
X565907Y531683D01*
X565955Y531778D01*
X566026Y531850D01*
X566361Y532041D01*
X566432Y532112D01*
X566480Y532208D01*
X566599Y532327D01*
X566838Y532470D01*
X567124Y532757D01*
X567554Y532996D01*
X567650Y533043D01*
X567769Y533210D01*
X567817Y535932D01*
X567673Y536266D01*
X567626Y536552D01*
X567673Y536887D01*
X567626Y537078D01*
X567506Y537483D01*
X567459Y537770D01*
X567482Y538080D01*
X567435Y538223D01*
X567339Y539990D01*
X567291Y540181D01*
X567220Y540396D01*
X567053Y540849D01*
X567005Y540993D01*
X566957Y541804D01*
X566862Y542472D01*
X566743Y542735D01*
X566599Y543117D01*
X566552Y543356D01*
X566480Y544191D01*
X566265Y544693D01*
X566098Y545146D01*
X566050Y545337D01*
X566002Y546101D01*
X565740Y546698D01*
X565620Y547008D01*
X565573Y547199D01*
X565525Y547677D01*
X565453Y547939D01*
X565262Y548226D01*
X565167Y548464D01*
X565095Y548918D01*
X565000Y549300D01*
X564809Y549586D01*
X564689Y549897D01*
X564618Y550446D01*
X564522Y550684D01*
X564427Y550780D01*
X564236Y551114D01*
X564188Y551544D01*
X564141Y551735D01*
X564045Y551973D01*
X563997Y552069D01*
X563854Y552212D01*
X563782Y552379D01*
X563735Y552618D01*
X563663Y552928D01*
X563329Y553453D01*
X563281Y553788D01*
X563233Y553979D01*
X563138Y554217D01*
X562995Y554361D01*
X562875Y554528D01*
X562804Y554886D01*
X562708Y555220D01*
X562637Y555291D01*
X562422Y555554D01*
X562374Y555840D01*
X562279Y556222D01*
X562135Y556366D01*
X561944Y556700D01*
Y556748D01*
X561920Y556819D01*
X561849Y557130D01*
X561730Y557249D01*
X561515Y557511D01*
X561371Y558084D01*
X561180Y558275D01*
X561061Y558442D01*
X560942Y558944D01*
X560751Y559135D01*
X560584Y559397D01*
X560536Y559588D01*
X560464Y559899D01*
X560273Y560090D01*
X560154Y560257D01*
X560082Y560519D01*
X559987Y560758D01*
X559653Y561092D01*
X559605Y561379D01*
X559557Y561570D01*
X559199Y561928D01*
X559080Y562429D01*
X558769Y562739D01*
X558602Y563193D01*
X558459Y563336D01*
X558268Y563670D01*
X558173Y563909D01*
X558125Y564005D01*
X558053Y564076D01*
X557958Y564124D01*
X557862Y564267D01*
X557743Y564577D01*
X557648Y564816D01*
X557576Y564840D01*
X557504Y564912D01*
X557385Y565079D01*
X557266Y565389D01*
X556979Y565676D01*
X556788Y566201D01*
X556716Y566272D01*
X556621Y566320D01*
X556549Y566392D01*
X556311Y566821D01*
X556263Y566917D01*
X556120Y567060D01*
X555976Y567299D01*
X555881Y567537D01*
X555547Y567872D01*
X555499Y567967D01*
X555404Y568206D01*
X555260Y568349D01*
X555213Y568445D01*
X555117Y568540D01*
X555069Y568636D01*
X554974Y568874D01*
X554687Y569161D01*
X554496Y569495D01*
X554258Y569734D01*
X554067Y570068D01*
X553947Y570283D01*
X553852Y570330D01*
X553780Y570450D01*
X553589Y570784D01*
X553351Y571023D01*
X553112Y571357D01*
X553064Y571452D01*
X552921Y571548D01*
X552873Y571643D01*
X552802Y571715D01*
X552682Y572025D01*
X552396Y572312D01*
X552205Y572646D01*
X552038Y572765D01*
X551823Y573028D01*
X551775Y573123D01*
X551656Y573243D01*
X551560Y573290D01*
X551489Y573362D01*
X551298Y573696D01*
X551059Y573935D01*
X550820Y574365D01*
X550582Y574603D01*
X550438Y574842D01*
X550271Y575009D01*
X550176Y575057D01*
X550009Y575272D01*
X549961Y575367D01*
X549794Y575534D01*
X549698Y575582D01*
X549627Y575654D01*
X549436Y575988D01*
X549101Y576322D01*
X549054Y576418D01*
X548720Y576752D01*
X548529Y577086D01*
X548481Y577182D01*
X548409Y577205D01*
X548051Y577564D01*
X548003Y577659D01*
X547932Y577683D01*
X547860Y577754D01*
X547669Y578089D01*
X547598Y578160D01*
X547502Y578208D01*
X547239Y578471D01*
X547192Y578566D01*
X547120Y578638D01*
X547025Y578685D01*
X546762Y578948D01*
X546714Y579044D01*
X546380Y579378D01*
X546332Y579473D01*
X546213Y579593D01*
X546118Y579640D01*
X545903Y579855D01*
X545855Y579951D01*
X545736Y580070D01*
X545640Y580118D01*
X545425Y580332D01*
X545378Y580428D01*
X545306Y580500D01*
X545210Y580547D01*
X544996Y580762D01*
X544948Y580858D01*
X544828Y580977D01*
X544733Y581025D01*
X544518Y581240D01*
X544470Y581335D01*
X544399Y581407D01*
X544303Y581455D01*
X544089Y581669D01*
X544041Y581765D01*
X543921Y581884D01*
X543826Y581932D01*
X543611Y582147D01*
X543563Y582242D01*
X543444Y582362D01*
X543349Y582409D01*
X543134Y582624D01*
X543086Y582720D01*
X543014Y582791D01*
X542919Y582839D01*
X542704Y583054D01*
X542656Y583149D01*
X542537Y583269D01*
X542441Y583316D01*
X542227Y583531D01*
X542179Y583627D01*
X541964Y583794D01*
X541869Y583842D01*
X541749Y583961D01*
X541701Y584057D01*
X541630Y584128D01*
X541534Y584176D01*
X541272Y584438D01*
X541224Y584534D01*
X541152Y584605D01*
X541057Y584653D01*
X540794Y584916D01*
X540746Y585011D01*
X540484Y585178D01*
X540388Y585226D01*
X540054Y585560D01*
X539959Y585608D01*
X539672Y585895D01*
X539338Y586086D01*
X539243Y586181D01*
X539147Y586229D01*
X539123Y586300D01*
X538956Y586468D01*
X538861Y586515D01*
X538598Y586778D01*
X538335Y586993D01*
X538240Y587040D01*
X538121Y587160D01*
X538073Y587255D01*
X537858Y587422D01*
X537763Y587470D01*
X537643Y587589D01*
X537595Y587685D01*
X537524Y587757D01*
X537285Y587900D01*
X536999Y588186D01*
X536760Y588330D01*
X536521Y588425D01*
X536283Y588664D01*
X536044Y588807D01*
X535662Y589189D01*
X535423Y589332D01*
X535352Y589404D01*
X535304Y589499D01*
X535232Y589571D01*
X534803Y589809D01*
X534612Y590000D01*
X534516Y590048D01*
X534421Y590144D01*
X534230Y590191D01*
X533895Y590526D01*
X533657Y590669D01*
X533370Y590955D01*
X532941Y591194D01*
X532750Y591385D01*
X532511Y591528D01*
X532272Y591624D01*
X532201Y591695D01*
X532153Y591791D01*
X531962Y591982D01*
X531651Y592101D01*
X531508Y592244D01*
X531246Y592411D01*
X530935Y592531D01*
X530864Y592602D01*
X530816Y592698D01*
X530697Y592817D01*
X530363Y593008D01*
X530124Y593247D01*
X529885Y593390D01*
X529551Y593486D01*
X529479Y593557D01*
X529431Y593653D01*
X529360Y593724D01*
X529026Y593915D01*
X528859Y594082D01*
X528811Y594178D01*
X528405Y594393D01*
X528310Y594440D01*
X528166Y594584D01*
X527737Y594823D01*
X527450Y595109D01*
X527211Y595252D01*
X526925Y595539D01*
X526495Y595777D01*
X526400Y595825D01*
X526257Y595968D01*
X525922Y596207D01*
X525827Y596255D01*
X525755Y596374D01*
X525493Y596589D01*
X525397Y596637D01*
X525230Y596804D01*
X525182Y596899D01*
X524872Y597114D01*
X524777Y597162D01*
X524705Y597234D01*
X524657Y597329D01*
X524586Y597353D01*
X524514Y597425D01*
X524037Y597663D01*
X523989Y597759D01*
X523726Y597974D01*
X523631Y598021D01*
X523464Y598188D01*
X523416Y598284D01*
X523201Y598451D01*
X523106Y598499D01*
X522771Y598833D01*
X522676Y598881D01*
X522509Y599048D01*
X522461Y599143D01*
X522342Y599263D01*
X522103Y599406D01*
X521816Y599692D01*
X521721Y599740D01*
X521554Y599907D01*
X521506Y600003D01*
X521339Y600170D01*
X521244Y600217D01*
X521077Y600384D01*
X521029Y600480D01*
X520909Y600599D01*
X520814Y600647D01*
X520599Y600862D01*
X520551Y600957D01*
X520432Y601077D01*
X520336Y601124D01*
X520169Y601292D01*
X520122Y601387D01*
X520002Y601507D01*
X519907Y601554D01*
X519787Y601674D01*
X519740Y601769D01*
X519477Y602032D01*
X519262Y602294D01*
X519215Y602390D01*
X518451Y603154D01*
X518403Y603249D01*
X517973Y603679D01*
X517925Y603774D01*
X517806Y603894D01*
X517711Y603941D01*
X517591Y604061D01*
X517448Y604299D01*
X517353Y604395D01*
X517305Y604490D01*
X517233Y604514D01*
X517162Y604586D01*
X516971Y604920D01*
X516875Y605016D01*
X516827Y605111D01*
X516732Y605206D01*
X516493Y605636D01*
X516422Y605708D01*
X516326Y605756D01*
X516207Y605875D01*
X515920Y606400D01*
X515873Y606496D01*
X515753Y606615D01*
X515634Y606925D01*
X515538Y607164D01*
X515347Y607355D01*
X515204Y607594D01*
X515109Y607928D01*
X514775Y608262D01*
X514727Y608692D01*
X514631Y609026D01*
X514512Y609145D01*
X514321Y609432D01*
X514249Y609790D01*
X514154Y610172D01*
X514106Y610315D01*
X513891Y610721D01*
X513843Y610912D01*
X513796Y611676D01*
X513724Y612416D01*
X513581Y612750D01*
X513533Y613800D01*
X513676Y614134D01*
X513724Y614660D01*
X513772Y614803D01*
X513820Y615567D01*
X513867Y615901D01*
X514011Y616235D01*
X514082Y616307D01*
X514178Y616545D01*
X514249Y617047D01*
X514345Y617285D01*
X514440Y617381D01*
X514488Y617476D01*
X514584Y617572D01*
X514775Y618049D01*
X515013Y618288D01*
X515156Y618527D01*
X515252Y618765D01*
X515419Y618933D01*
X515634Y619195D01*
X515682Y619291D01*
X515801Y619410D01*
X515896Y619458D01*
X516111Y619673D01*
X516159Y619768D01*
X516231Y619840D01*
X516326Y619887D01*
X516422Y619983D01*
X516517Y620031D01*
X516541Y620102D01*
X516708Y620269D01*
X517138Y620508D01*
X517233Y620556D01*
X517329Y620699D01*
X517758Y620938D01*
X517854Y620985D01*
X517925Y621057D01*
X517973Y621153D01*
X518140Y621272D01*
X518427Y621320D01*
X518809Y621415D01*
X518904Y621511D01*
X519000Y621558D01*
X519095Y621654D01*
X519429Y621845D01*
X519716Y621893D01*
X519907Y621940D01*
X520050Y621988D01*
X520145Y622036D01*
X520217Y622108D01*
X520456Y622203D01*
X521196Y622275D01*
X521387Y622322D01*
X522007Y622609D01*
X522389Y622657D01*
X522533Y622704D01*
X526686Y622752D01*
X526829Y622704D01*
D02*
G37*
G36*
X506324Y454960D02*
X506897Y454912D01*
X507446Y454841D01*
X507780Y454793D01*
X508305Y454554D01*
X509069Y454506D01*
X509403Y454411D01*
X509714Y454244D01*
X509952Y454148D01*
X510143Y454101D01*
X510549Y454029D01*
X510788Y453934D01*
X510883Y453838D01*
X511146Y453671D01*
X511456Y453599D01*
X511695Y453504D01*
X511791Y453408D01*
X511886Y453361D01*
X511982Y453265D01*
X512364Y453122D01*
X512602Y453026D01*
X512721Y452907D01*
X512984Y452692D01*
X513175Y452645D01*
X513271Y452549D01*
X513366Y452501D01*
X513461Y452406D01*
X513700Y452263D01*
X513939Y452167D01*
X514178Y451928D01*
X514273Y451881D01*
X514369Y451785D01*
X514560Y451737D01*
X514727Y451570D01*
X515180Y451260D01*
X515276Y451212D01*
X515467Y451021D01*
X515801Y450830D01*
X516087Y450544D01*
X516422Y450353D01*
X516708Y450066D01*
X516804Y450019D01*
X517066Y449756D01*
X517329Y449541D01*
X517424Y449493D01*
X517567Y449350D01*
X517997Y449016D01*
X518093Y448968D01*
X518522Y448539D01*
X518618Y448491D01*
X518689Y448419D01*
X518737Y448324D01*
X518952Y448109D01*
X519048Y448061D01*
X519167Y447942D01*
X519215Y447846D01*
X519429Y447631D01*
X519525Y447584D01*
X519596Y447512D01*
X519644Y447417D01*
X519907Y447154D01*
X520002Y447106D01*
X520074Y447035D01*
X520122Y446939D01*
X520336Y446724D01*
X520432Y446677D01*
X520504Y446605D01*
X520551Y446510D01*
X520838Y446223D01*
X521172Y445793D01*
X521220Y445698D01*
X521602Y445316D01*
X521649Y445220D01*
X521816Y445053D01*
X522031Y444791D01*
X522079Y444695D01*
X522318Y444457D01*
X522461Y444218D01*
X522795Y443884D01*
X522986Y443549D01*
X523225Y443311D01*
X523511Y442786D01*
X523750Y442547D01*
X523941Y442213D01*
X524132Y442022D01*
X524418Y441497D01*
X524562Y441353D01*
X524848Y440828D01*
X524896Y440733D01*
X524968Y440661D01*
X525063Y440613D01*
X525135Y440494D01*
X525326Y439969D01*
X525564Y439730D01*
X525708Y439348D01*
X525803Y439109D01*
X525946Y438966D01*
X526066Y438799D01*
X526185Y438489D01*
X526281Y438250D01*
X526376Y438155D01*
X526567Y437820D01*
X526662Y437438D01*
X526758Y437200D01*
X526925Y437033D01*
X527044Y436722D01*
X527092Y436531D01*
X527283Y436102D01*
X527402Y435935D01*
X527522Y435433D01*
X527617Y435195D01*
X527832Y434837D01*
X527904Y434574D01*
X527952Y434383D01*
X527999Y434049D01*
X528190Y433619D01*
X528333Y433237D01*
X528429Y432855D01*
X528477Y432378D01*
X528524Y432187D01*
X528668Y431853D01*
X528763Y431614D01*
X528811Y431232D01*
X528859Y431089D01*
X528906Y430182D01*
X528954Y429847D01*
X529002Y429704D01*
X529050Y429227D01*
X529097Y429036D01*
X529169Y428821D01*
X529217Y428630D01*
X529193Y426458D01*
X529240Y426314D01*
X529217Y425909D01*
X529169Y425622D01*
X529073Y425240D01*
X529026Y425001D01*
X528954Y424452D01*
X528906Y424261D01*
X528859Y423641D01*
X528811Y423307D01*
X528477Y422590D01*
X528429Y421922D01*
X528381Y421731D01*
X528238Y421397D01*
X527999Y421063D01*
X527952Y420490D01*
X527904Y420299D01*
X527570Y419965D01*
X527522Y419583D01*
X527474Y419249D01*
X527355Y418986D01*
X527140Y418723D01*
X527044Y418294D01*
X526997Y418103D01*
X526925Y417888D01*
X526686Y417506D01*
X526615Y417243D01*
X526567Y417052D01*
X526495Y416790D01*
X526185Y416336D01*
X526137Y416050D01*
X526090Y415859D01*
X525946Y415524D01*
X525731Y415119D01*
X525660Y414856D01*
X525564Y414522D01*
X525421Y414379D01*
X525373Y414283D01*
X525302Y414212D01*
X525182Y413710D01*
X525135Y413519D01*
X524991Y413376D01*
X524824Y413114D01*
X524753Y412755D01*
X524657Y412517D01*
X524609Y412421D01*
X524395Y412206D01*
X524323Y411944D01*
X524227Y411610D01*
X523941Y411323D01*
X523798Y410655D01*
X523535Y410392D01*
X523320Y409795D01*
X523225Y409700D01*
X522986Y409366D01*
X522938Y409175D01*
X522843Y408936D01*
X522795Y408840D01*
X522652Y408697D01*
X522485Y408435D01*
X522413Y408124D01*
X522175Y407886D01*
X522127Y407790D01*
X522031Y407695D01*
X521984Y407504D01*
X521840Y407360D01*
X521506Y406931D01*
X521458Y406835D01*
X521291Y406668D01*
X521077Y406406D01*
X521029Y406310D01*
X520074Y405355D01*
X519811Y405140D01*
X519477Y404949D01*
X519406Y404878D01*
X519358Y404782D01*
X519286Y404711D01*
X518952Y404520D01*
X518713Y404281D01*
X518546Y404162D01*
X518236Y404042D01*
X518093Y403899D01*
X517925Y403780D01*
X517472Y403613D01*
X516995Y403279D01*
X516565Y403183D01*
X516231Y403040D01*
X516135Y402992D01*
X516063Y402920D01*
X515825Y402825D01*
X515371Y402753D01*
X515180Y402706D01*
X514679Y402443D01*
X514488Y402395D01*
X513939Y402324D01*
X513294Y402252D01*
X513103Y402204D01*
X512698Y402133D01*
X512459Y402037D01*
X511886Y401989D01*
X511552Y401942D01*
X511409Y401894D01*
X507709Y401918D01*
X507279Y401966D01*
X506897Y402013D01*
X506539Y402085D01*
X506348Y402133D01*
X505870Y402276D01*
X505536Y402324D01*
X504772Y402371D01*
X504247Y402610D01*
X504080Y402682D01*
X503770Y402753D01*
X503292Y402801D01*
X502696Y403111D01*
X502433Y403183D01*
X502242Y403231D01*
X501836Y403350D01*
X501359Y403637D01*
X501048Y403708D01*
X500810Y403804D01*
X500595Y404019D01*
X500285Y404138D01*
X500046Y404233D01*
X499903Y404377D01*
X499377Y404663D01*
X499258Y404782D01*
X498805Y405093D01*
X498709Y405140D01*
X498470Y405379D01*
X498232Y405522D01*
X497897Y405857D01*
X497802Y405904D01*
X497038Y406668D01*
X496823Y406931D01*
X496775Y407026D01*
X496537Y407265D01*
X496346Y407599D01*
X495988Y407957D01*
X495868Y408268D01*
X495773Y408506D01*
X495677Y408602D01*
X495630Y408697D01*
X495558Y408769D01*
X495391Y409222D01*
X495081Y409819D01*
X494961Y410512D01*
X494866Y410894D01*
X494818Y411228D01*
X494723Y411466D01*
X494675Y412278D01*
X494723Y412612D01*
X494842Y413018D01*
X494937Y413257D01*
X495009Y413567D01*
X495128Y413877D01*
X495343Y414140D01*
X495534Y414474D01*
X495844Y414689D01*
X495940Y414737D01*
X496131Y414928D01*
X496298Y415047D01*
X496608Y415119D01*
X497133Y415357D01*
X497420Y415405D01*
X497659Y415501D01*
X500237Y415548D01*
X500380Y415501D01*
X501144Y415453D01*
X501574Y415262D01*
X501979Y415190D01*
X502624Y415119D01*
X502958Y415071D01*
X503436Y415023D01*
X503627Y414976D01*
X504032Y414856D01*
X504295Y414785D01*
X504534Y414689D01*
X505154Y414641D01*
X505489Y414594D01*
X505823Y414498D01*
X506061Y414403D01*
X506324Y414283D01*
X506682Y414212D01*
X507160Y414164D01*
X507494Y414116D01*
X507685Y414068D01*
X508019Y413973D01*
X508496Y413830D01*
X508639Y413782D01*
X509165Y413734D01*
X509499Y413686D01*
X510263Y413639D01*
X510788Y413400D01*
X511122Y413448D01*
X511313Y413400D01*
X511552Y413304D01*
X514512Y413257D01*
X514751Y413161D01*
X515109Y413185D01*
X515300Y413233D01*
X517114Y413281D01*
X517878Y413328D01*
X518188Y413448D01*
X518570Y413543D01*
X518976Y413662D01*
X519429Y413734D01*
X519907Y413782D01*
X520241Y413925D01*
X520336Y413973D01*
X520408Y414044D01*
X520647Y414140D01*
X520957Y414212D01*
X521291Y414307D01*
X521387Y414403D01*
X521816Y414641D01*
X522007Y414689D01*
X522246Y414785D01*
X522342Y414880D01*
X522676Y415071D01*
X522915Y415167D01*
X523153Y415405D01*
X523679Y415692D01*
X523750Y415763D01*
X523798Y415859D01*
X524037Y416097D01*
X524156Y416264D01*
X524204Y416455D01*
X524180Y416909D01*
X524227Y417530D01*
X524108Y417840D01*
X524013Y418079D01*
X523965Y418747D01*
X523893Y419058D01*
X523846Y419821D01*
X523798Y420156D01*
X523750Y420346D01*
X523631Y420657D01*
X523535Y420896D01*
X523488Y421087D01*
X523440Y421373D01*
X523368Y421827D01*
X523320Y422018D01*
X523034Y422638D01*
X522986Y422829D01*
X522938Y423163D01*
X522843Y423498D01*
X522652Y423784D01*
X522580Y423951D01*
X522533Y424142D01*
X522485Y424381D01*
X522413Y424691D01*
X522270Y424834D01*
X522222Y424930D01*
X522151Y425001D01*
X522031Y425503D01*
X521936Y425742D01*
X521840Y425837D01*
X521793Y425932D01*
X521721Y426004D01*
X521602Y426314D01*
X521506Y426696D01*
X521315Y426983D01*
X520981Y427603D01*
X520933Y427699D01*
X520790Y427842D01*
X520647Y428224D01*
X520551Y428463D01*
X520480Y428534D01*
X520265Y428797D01*
X520217Y428988D01*
X520122Y429227D01*
X519931Y429418D01*
X519764Y429680D01*
X519644Y429991D01*
X519453Y430182D01*
X519167Y430707D01*
X519119Y430802D01*
X519048Y430826D01*
X518976Y430898D01*
X518737Y431327D01*
X518689Y431423D01*
X518498Y431614D01*
X518307Y431948D01*
X518140Y432115D01*
X517830Y432569D01*
X517782Y432664D01*
X517591Y432855D01*
X517400Y433189D01*
X517233Y433356D01*
X517018Y433619D01*
X516971Y433714D01*
X516708Y433977D01*
X516493Y434240D01*
X516446Y434335D01*
X516278Y434454D01*
X516063Y434717D01*
X516016Y434813D01*
X515896Y434932D01*
X515801Y434980D01*
X515777Y435051D01*
X515634Y435195D01*
X515586Y435290D01*
X514965Y435911D01*
X514846Y436078D01*
X514631Y436340D01*
X514584Y436436D01*
X514512Y436507D01*
X514416Y436555D01*
X514345Y436627D01*
X514297Y436722D01*
X514202Y436818D01*
X514154Y436913D01*
X514082Y436985D01*
X513987Y437033D01*
X513891Y437128D01*
X513796Y437176D01*
X513724Y437248D01*
X513676Y437343D01*
X513461Y437510D01*
X513366Y437558D01*
X513271Y437653D01*
X513175Y437701D01*
X512531Y438346D01*
X512268Y438560D01*
X512173Y438608D01*
X512101Y438680D01*
X512053Y438775D01*
X511838Y438942D01*
X511743Y438990D01*
X511480Y439253D01*
X511218Y439468D01*
X511122Y439515D01*
X511003Y439682D01*
X510740Y439897D01*
X510645Y439945D01*
X510406Y440184D01*
X510072Y440375D01*
X510000Y440446D01*
X509738Y440661D01*
X509403Y440852D01*
X509308Y440900D01*
X509284Y440971D01*
X509117Y441138D01*
X508783Y441329D01*
X508687Y441377D01*
X508544Y441521D01*
X508210Y441711D01*
X507995Y441831D01*
X507876Y441998D01*
X507446Y442237D01*
X507279Y442404D01*
X506825Y442714D01*
X506730Y442762D01*
X506539Y442953D01*
X506205Y443144D01*
X506037Y443311D01*
X505775Y443526D01*
X505680Y443573D01*
X505345Y443908D01*
X505250Y443955D01*
X504963Y444242D01*
X504629Y444481D01*
X504534Y444528D01*
X503531Y445531D01*
X503436Y445579D01*
X503412Y445650D01*
X503101Y445961D01*
X503006Y446008D01*
X502958Y446104D01*
X502743Y446366D01*
X502696Y446462D01*
X502528Y446629D01*
X502314Y446892D01*
X502266Y446987D01*
X502027Y447226D01*
X501788Y447655D01*
X501598Y447846D01*
X501478Y448013D01*
X501407Y448276D01*
X501287Y448586D01*
X501072Y448849D01*
X500977Y449088D01*
X500929Y449565D01*
X500881Y449899D01*
X500786Y450138D01*
X500810Y451403D01*
X500905Y451785D01*
X500977Y452191D01*
X501072Y452525D01*
X501216Y452668D01*
X501454Y453098D01*
X501621Y453265D01*
X501717Y453313D01*
X501741Y453385D01*
X502051Y453695D01*
X502146Y453743D01*
X502170Y453814D01*
X502290Y453934D01*
X502385Y453981D01*
X502457Y454053D01*
X502767Y454172D01*
X502910Y454315D01*
X503006Y454363D01*
X503101Y454459D01*
X503388Y454506D01*
X503770Y454602D01*
X504319Y454769D01*
X504510Y454817D01*
X504534Y454841D01*
X504677D01*
X504820Y454888D01*
X505489Y454936D01*
X505680Y454984D01*
X505870Y454936D01*
X506014Y454984D01*
X506061Y454936D01*
X506157Y454984D01*
X506324Y454960D01*
D02*
G37*
G36*
X484840Y453576D02*
X485031Y453528D01*
X485055Y453504D01*
X485675D01*
X486009Y453361D01*
X486081Y453289D01*
X486391Y453170D01*
X486869Y453122D01*
X487060Y453074D01*
X487251Y452883D01*
X487418Y452764D01*
X487728Y452645D01*
X487824Y452549D01*
X487919Y452501D01*
X487943Y452430D01*
X488253Y452215D01*
X488349Y452167D01*
X488420Y452095D01*
X488564Y451857D01*
X488659Y451761D01*
X488707Y451666D01*
X488922Y451451D01*
X489041Y451141D01*
X489137Y450902D01*
X489351Y450687D01*
X489447Y450448D01*
X489495Y450019D01*
X489542Y449732D01*
X489590Y449541D01*
X489662Y449135D01*
X489614Y448515D01*
X489662Y448372D01*
X489638Y447870D01*
X489471Y447417D01*
X489423Y446796D01*
X489328Y446557D01*
X489232Y446462D01*
X488993Y446032D01*
X488707Y445746D01*
X488564Y445507D01*
X488158Y445101D01*
X487824Y444863D01*
X487728Y444815D01*
X487657Y444743D01*
X487609Y444648D01*
X487418Y444504D01*
X487108Y444433D01*
X486869Y444337D01*
X486773Y444290D01*
X486678Y444194D01*
X486511Y444075D01*
X486320Y444027D01*
X485460Y443979D01*
X485079Y443884D01*
X484291Y443812D01*
X483956Y443955D01*
X483193Y444003D01*
X482858Y444051D01*
X482524Y444194D01*
X482262Y444361D01*
X481951Y444481D01*
X481713Y444576D01*
X481593Y444695D01*
X481140Y445006D01*
X481044Y445053D01*
X480925Y445173D01*
X480877Y445268D01*
X480710Y445435D01*
X480495Y445698D01*
X480256Y446128D01*
X480209Y446223D01*
X480065Y446319D01*
X479898Y446581D01*
X479827Y446987D01*
X479779Y447178D01*
X479660Y447393D01*
X479540Y447703D01*
X479493Y447846D01*
X479516Y448491D01*
X479493Y449326D01*
X479540Y449661D01*
X479707Y450066D01*
X479803Y450305D01*
X479874Y450616D01*
X479970Y450950D01*
X480113Y451093D01*
X480400Y451618D01*
X480686Y451904D01*
X480734Y452000D01*
X480829Y452095D01*
X481092Y452310D01*
X481187Y452358D01*
X481378Y452549D01*
X481808Y452788D01*
X481904Y452836D01*
X481999Y452931D01*
X482333Y453122D01*
X482811Y453170D01*
X483431Y453456D01*
X484338Y453552D01*
X484482Y453599D01*
X484840Y453576D01*
D02*
G37*
G36*
X470541Y453552D02*
X471209Y453504D01*
X471400Y453456D01*
X471902Y453241D01*
X472092Y453194D01*
X472331Y453146D01*
X472641Y453074D01*
X472713Y453003D01*
X472976Y452788D01*
X473071Y452740D01*
X473405Y452597D01*
X473644Y452358D01*
X473740Y452310D01*
X473907Y452143D01*
X473954Y452048D01*
X474193Y451809D01*
X474432Y451475D01*
X474480Y451379D01*
X474551Y451356D01*
X474623Y451284D01*
X474814Y450950D01*
X474861Y450759D01*
X475005Y450424D01*
X475243Y449995D01*
X475291Y448372D01*
Y448324D01*
X475243Y447846D01*
X475196Y447226D01*
X475100Y446987D01*
X475005Y446892D01*
X474814Y446557D01*
X474718Y446223D01*
X474575Y446080D01*
X474289Y445555D01*
X474217Y445483D01*
X474122Y445435D01*
X473907Y445220D01*
X473787Y445053D01*
X473358Y444815D01*
X473262Y444767D01*
X473119Y444624D01*
X472785Y444433D01*
X472450Y444290D01*
X472021Y444051D01*
X471352Y444003D01*
X470875Y443955D01*
X470612Y443884D01*
X470254Y443812D01*
X469681Y443908D01*
X469538Y443955D01*
X468822Y444003D01*
X468488Y444051D01*
X468154Y444194D01*
X467724Y444433D01*
X467342Y444528D01*
X467103Y444767D01*
X466865Y444910D01*
X466769Y445006D01*
X466530Y445292D01*
X466435Y445340D01*
X466292Y445483D01*
X466077Y445746D01*
X466029Y445841D01*
X465766Y446104D01*
X465647Y446414D01*
X465552Y446748D01*
X465313Y447082D01*
X465265Y447273D01*
X465218Y447417D01*
X465170Y448658D01*
X465241Y450066D01*
X465313Y450329D01*
X465408Y450424D01*
X465575Y450687D01*
X465647Y450997D01*
X465743Y451236D01*
X466029Y451523D01*
X466077Y451618D01*
X466507Y452048D01*
X466554Y452143D01*
X466626Y452215D01*
X466721Y452263D01*
X466960Y452501D01*
X467294Y452692D01*
X467533Y452788D01*
X467676Y452931D01*
X467939Y453098D01*
X468130Y453146D01*
X468416Y453194D01*
X468679Y453265D01*
X468965Y453456D01*
X469538Y453504D01*
X469681Y453552D01*
X470398Y453599D01*
X470541Y453552D01*
D02*
G37*
G36*
X433015Y452119D02*
X433206Y451833D01*
X433421Y451570D01*
X433469Y446175D01*
Y446128D01*
Y444600D01*
X433421Y444266D01*
X433182Y444027D01*
X433134Y443932D01*
X432872Y443669D01*
X432585Y443621D01*
X432442Y443669D01*
X419002Y443645D01*
X418262Y443669D01*
X418024Y443573D01*
X417904Y443406D01*
X417857Y443024D01*
X417904Y442690D01*
X417857Y442547D01*
X417881Y405570D01*
X417857Y404973D01*
X417761Y404735D01*
X417713Y404639D01*
X417523Y404210D01*
X417260Y404042D01*
X416973Y403995D01*
X416830Y403947D01*
X416377Y403971D01*
X410480Y403947D01*
X410337Y403995D01*
X409621Y403947D01*
X409239Y404042D01*
X408977Y404162D01*
X408786Y404496D01*
X408738Y404639D01*
X408690Y405260D01*
X408642Y405403D01*
X408666Y405713D01*
X408642Y442451D01*
X408690Y443072D01*
X408642Y443406D01*
X408475Y443573D01*
X408284Y443621D01*
X408141Y443669D01*
X407640Y443645D01*
X394487Y443669D01*
X394343Y443621D01*
X393723Y443669D01*
X393484Y443764D01*
X393365Y443884D01*
X393126Y444313D01*
X393078Y451284D01*
X393174Y451666D01*
X393317Y452000D01*
X393484Y452167D01*
X432776Y452215D01*
X433015Y452119D01*
D02*
G37*
G36*
X442516Y438608D02*
X442755Y438513D01*
X443757Y438465D01*
X444235Y438417D01*
X444569Y438274D01*
X444903Y438083D01*
X445715Y437988D01*
X446049Y437844D01*
X446168Y437725D01*
X446478Y437606D01*
X446669Y437558D01*
X447004Y437462D01*
X447123Y437343D01*
X447409Y437152D01*
X447720Y437080D01*
X447958Y436985D01*
X448102Y436842D01*
X448627Y436555D01*
X448699Y436484D01*
X448746Y436388D01*
X448866Y436316D01*
X449295Y436078D01*
X449391Y436030D01*
X449534Y435887D01*
X449868Y435648D01*
X450083Y435386D01*
X450369Y435195D01*
X450417Y435099D01*
X450728Y434789D01*
X450823Y434741D01*
X450847Y434669D01*
X450942Y434574D01*
X450990Y434478D01*
X451062Y434407D01*
X451301Y434263D01*
X451539Y434025D01*
X451635Y433977D01*
X451778Y434025D01*
X451754Y434669D01*
X451850Y434908D01*
X451897Y437248D01*
X451993Y437582D01*
X452184Y437773D01*
X452446Y437988D01*
X459273Y438035D01*
X459608Y437988D01*
X459823Y437773D01*
X459870Y437677D01*
X460061Y437486D01*
X460109Y404735D01*
X459966Y404400D01*
X459751Y404186D01*
X459655Y404138D01*
X459584Y404066D01*
X459321Y403995D01*
X459178Y403947D01*
X458892Y403995D01*
X458748Y403947D01*
X458534Y403971D01*
X453497Y403947D01*
X452733Y403995D01*
X452589Y403947D01*
X452136Y403971D01*
X451945Y404019D01*
X451682Y404090D01*
X451515Y404257D01*
X451372Y404639D01*
X451324Y404782D01*
X451277Y422161D01*
X451324Y422495D01*
X451277Y422686D01*
X451133Y423020D01*
X451086Y423545D01*
X451038Y423689D01*
X450990Y424548D01*
X450847Y424882D01*
X450608Y425312D01*
X450560Y425503D01*
X450513Y425837D01*
X450417Y426171D01*
X450346Y426243D01*
X450155Y426529D01*
X449987Y426983D01*
X449797Y427174D01*
X449606Y427508D01*
X449510Y427747D01*
X449439Y427818D01*
X449343Y427866D01*
X449128Y428176D01*
X449080Y428272D01*
X449009Y428343D01*
X448913Y428391D01*
X448746Y428558D01*
X448699Y428654D01*
X448436Y428869D01*
X448340Y428916D01*
X448102Y429155D01*
X447576Y429441D01*
X447386Y429632D01*
X447219Y429752D01*
X446956Y429823D01*
X446717Y429919D01*
X446622Y429967D01*
X446431Y430158D01*
X446264Y430229D01*
X445858Y430301D01*
X445667Y430349D01*
X445428Y430444D01*
X444998Y430683D01*
X442516Y430731D01*
X441895Y430683D01*
X441561Y430635D01*
X441036Y430396D01*
X440797Y430301D01*
X440224Y430205D01*
X439985Y429967D01*
X439556Y429728D01*
X439221Y429394D01*
X439126Y429346D01*
X438768Y428988D01*
X438625Y428749D01*
X438529Y428654D01*
X438481Y428558D01*
X438410Y428534D01*
X438291Y428415D01*
X438171Y428248D01*
X438100Y427985D01*
X438004Y427747D01*
X437789Y427532D01*
X437694Y427293D01*
X437622Y426840D01*
X437527Y426505D01*
X437407Y426291D01*
X437264Y425909D01*
X437216Y425097D01*
X437169Y424715D01*
X437121Y424428D01*
X437145Y405212D01*
X437049Y404830D01*
X436858Y404400D01*
X436739Y404186D01*
X436643Y404138D01*
X436572Y404066D01*
X436214Y403995D01*
X436071Y403947D01*
X435617Y403971D01*
X430580Y403947D01*
X429816Y403995D01*
X429625Y403947D01*
X429005Y403995D01*
X428670Y404090D01*
X428599Y404162D01*
X428456Y404400D01*
X428217Y404735D01*
X428169Y426649D01*
X428217Y427126D01*
X428312Y427365D01*
X428360Y428129D01*
X428408Y428320D01*
X428503Y428558D01*
X428551Y429513D01*
X428599Y429847D01*
X428647Y430038D01*
X428861Y430540D01*
X428957Y430778D01*
X429029Y431375D01*
X429124Y431614D01*
X429315Y431900D01*
X429386Y432067D01*
X429458Y432330D01*
X429554Y432664D01*
X429649Y432760D01*
X429697Y432855D01*
X429864Y433070D01*
X429936Y433333D01*
X430174Y433667D01*
X430365Y434001D01*
X430485Y434216D01*
X430580Y434263D01*
X430676Y434359D01*
X430914Y434741D01*
X431010Y434789D01*
X431272Y435051D01*
X431320Y435147D01*
X431392Y435218D01*
X431487Y435266D01*
X431702Y435481D01*
X431750Y435577D01*
X431869Y435696D01*
X431965Y435744D01*
X432179Y435958D01*
X432227Y436054D01*
X432490Y436221D01*
X432585Y436269D01*
X432705Y436388D01*
X432752Y436484D01*
X432920Y436603D01*
X433158Y436698D01*
X433492Y436937D01*
X433731Y437080D01*
X434065Y437224D01*
X434161Y437271D01*
X434185Y437343D01*
X434256Y437367D01*
X434352Y437462D01*
X434519Y437534D01*
X434758Y437582D01*
X434949Y437629D01*
X434972Y437653D01*
X435068D01*
X435402Y437892D01*
X435569Y437964D01*
X436118Y438035D01*
X436309Y438083D01*
X436930Y438369D01*
X437073Y438417D01*
X437694Y438465D01*
X437837Y438513D01*
X437933Y438465D01*
X438553Y438513D01*
X438792Y438608D01*
X442038Y438656D01*
X442516Y438608D01*
D02*
G37*
G36*
X329509Y453074D02*
X329580Y453003D01*
X329628Y452907D01*
X329700Y452836D01*
X329915Y452573D01*
X329962Y438202D01*
Y438155D01*
Y404830D01*
X329867Y404496D01*
X329771Y404400D01*
X329724Y404305D01*
X329628Y404257D01*
X329365Y404042D01*
X328936Y403947D01*
X328792Y403995D01*
X328649Y403947D01*
X328387Y403971D01*
X323445Y403947D01*
X322538Y403995D01*
X322395Y403947D01*
X321989Y403971D01*
X321679Y404042D01*
X321440Y404138D01*
X321345Y404281D01*
X321225Y404591D01*
X321178Y404735D01*
X321130Y422686D01*
X321011Y422996D01*
X320939Y423354D01*
X320891Y423498D01*
X320843Y424405D01*
X320796Y424596D01*
X320652Y424930D01*
X320533Y425097D01*
X320414Y425407D01*
X320318Y425980D01*
X320223Y426219D01*
X320127Y426314D01*
X320079Y426410D01*
X320008Y426482D01*
X319888Y426792D01*
X319793Y427030D01*
X319602Y427221D01*
X319459Y427460D01*
X319411Y427651D01*
X319172Y427890D01*
X318934Y428224D01*
X318886Y428320D01*
X318814Y428343D01*
X318504Y428654D01*
X318456Y428749D01*
X318194Y428916D01*
X318098Y428964D01*
X317788Y429274D01*
X317477Y429394D01*
X317167Y429704D01*
X316857Y429823D01*
X316618Y429919D01*
X316523Y429967D01*
X316427Y430062D01*
X316093Y430253D01*
X315616Y430301D01*
X315186Y430492D01*
X314852Y430683D01*
X312178Y430731D01*
X311844Y430683D01*
X311366Y430635D01*
X310817Y430373D01*
X310316Y430253D01*
X309982Y430158D01*
X309695Y429871D01*
X309361Y429680D01*
X309266Y429632D01*
X309242Y429561D01*
X309170Y429489D01*
X309075Y429441D01*
X308669Y429036D01*
X308335Y428606D01*
X308287Y428511D01*
X308192Y428463D01*
X307953Y428033D01*
X307833Y427771D01*
X307619Y427508D01*
X307547Y427341D01*
X307475Y426792D01*
X307141Y426076D01*
X307093Y425932D01*
X307046Y424882D01*
X306998Y424739D01*
X306950Y404926D01*
X306807Y404591D01*
X306616Y404257D01*
X306353Y404042D01*
X306067Y403995D01*
X305924Y403947D01*
X305470Y403971D01*
X300147Y403947D01*
X299813Y403995D01*
X299335Y403947D01*
X298858Y403995D01*
X298524Y404090D01*
X298452Y404162D01*
X298213Y404496D01*
X298165Y404591D01*
X298094Y404663D01*
X297998Y404902D01*
X298022Y426840D01*
X298070Y427030D01*
X298165Y427269D01*
X298213Y427699D01*
X298165Y428033D01*
X298309Y428367D01*
X298356Y428797D01*
X298404Y429704D01*
X298500Y430086D01*
X298786Y430707D01*
X298882Y431375D01*
X299025Y431709D01*
X299073Y431805D01*
X299144Y431876D01*
X299240Y432115D01*
X299311Y432473D01*
X299407Y432712D01*
X299550Y432855D01*
X299837Y433380D01*
X299884Y433476D01*
X300028Y433619D01*
X300171Y433858D01*
X300266Y434096D01*
X300505Y434335D01*
X300767Y434741D01*
X300863Y434789D01*
X301030Y434956D01*
X301078Y435051D01*
X301293Y435266D01*
X301388Y435314D01*
X301508Y435433D01*
X301555Y435529D01*
X301722Y435696D01*
X301818Y435744D01*
X301937Y435863D01*
X301985Y435958D01*
X302104Y436078D01*
X302439Y436269D01*
X302677Y436507D01*
X303107Y436746D01*
X303250Y436889D01*
X303680Y437128D01*
X303871Y437176D01*
X304062Y437367D01*
X304229Y437486D01*
X304492Y437558D01*
X304682Y437606D01*
X305112Y437797D01*
X305375Y437964D01*
X306019Y438035D01*
X306640Y438322D01*
X306879Y438417D01*
X307547Y438465D01*
X308311Y438513D01*
X308502Y438560D01*
X308645Y438608D01*
X312083Y438656D01*
X312274Y438608D01*
X312417Y438560D01*
X312846Y438513D01*
X312990Y438465D01*
X313204Y438489D01*
X313563Y438465D01*
X314040Y438417D01*
X314231Y438369D01*
X314661Y438178D01*
X314971Y438059D01*
X315568Y437988D01*
X315830Y437868D01*
X316212Y437629D01*
X316523Y437558D01*
X316857Y437462D01*
X317000Y437319D01*
X317263Y437152D01*
X317525Y437080D01*
X317764Y436985D01*
X317859Y436937D01*
X318050Y436746D01*
X318146Y436698D01*
X318385Y436603D01*
X318623Y436364D01*
X318790Y436245D01*
X319101Y436125D01*
X319340Y435887D01*
X319674Y435696D01*
X319793Y435577D01*
X319841Y435481D01*
X319960Y435362D01*
X320056Y435314D01*
X320271Y435099D01*
X320318Y435004D01*
X320438Y434884D01*
X320700Y434717D01*
X320963Y434502D01*
X321130Y434526D01*
X321178Y434669D01*
X321130Y435004D01*
X321082Y435147D01*
X321106Y435266D01*
X321154Y452215D01*
X321273Y452764D01*
X321368Y453003D01*
X321536Y453122D01*
X329270Y453170D01*
X329509Y453074D01*
D02*
G37*
G36*
X633940Y438680D02*
X634131Y438632D01*
X634370Y438536D01*
X635229Y438489D01*
X635970Y438417D01*
X636160Y438369D01*
X636495Y438274D01*
X636566Y438202D01*
X636805Y438107D01*
X637044Y438059D01*
X637736Y437988D01*
X638261Y437653D01*
X638691Y437558D01*
X638882Y437510D01*
X639120Y437415D01*
X639264Y437271D01*
X639431Y437152D01*
X639622Y437104D01*
X639932Y437033D01*
X640004Y436961D01*
X640266Y436746D01*
X640362Y436698D01*
X640696Y436555D01*
X640839Y436412D01*
X641364Y436125D01*
X641460Y436078D01*
X641555Y435935D01*
X641890Y435744D01*
X642152Y435481D01*
X642415Y435266D01*
X642510Y435218D01*
X644253Y433476D01*
X644515Y433070D01*
X644682Y432951D01*
X644874Y432616D01*
X645112Y432378D01*
X645279Y432115D01*
X645351Y431853D01*
X645470Y431733D01*
X645709Y431447D01*
X645876Y430993D01*
X645972Y430898D01*
X646210Y430468D01*
X646258Y430277D01*
X646354Y430038D01*
X646497Y429895D01*
X646544Y429800D01*
X646616Y429728D01*
X646664Y429537D01*
X646712Y429251D01*
X646783Y428988D01*
X646855Y428916D01*
X647070Y428654D01*
X647117Y428463D01*
X647165Y427985D01*
X647547Y427174D01*
X647595Y426362D01*
X647643Y426171D01*
X647738Y425932D01*
X647929Y425598D01*
X647977Y425216D01*
X648025Y425073D01*
X648072Y423498D01*
X648120Y423163D01*
X648168Y423020D01*
X648215Y419535D01*
X648263Y419201D01*
X648192Y418938D01*
X648096Y418699D01*
X648025Y417148D01*
X647977Y416814D01*
X647905Y416551D01*
X647857Y416360D01*
X647714Y415978D01*
X647666Y415787D01*
X647595Y415381D01*
X647547Y414904D01*
X647499Y414713D01*
X647237Y414212D01*
X647189Y414021D01*
X647117Y413567D01*
X647022Y413233D01*
X646783Y412899D01*
X646712Y412732D01*
X646640Y412326D01*
X646592Y412135D01*
X646401Y411944D01*
X646258Y411705D01*
X646210Y411514D01*
X646115Y411180D01*
X645924Y410989D01*
X645781Y410750D01*
X645637Y410416D01*
X645494Y410273D01*
X645351Y410034D01*
X645256Y409795D01*
X644969Y409509D01*
X644778Y409175D01*
X644659Y409055D01*
X644444Y408793D01*
X644396Y408697D01*
X644301Y408602D01*
X644253Y408506D01*
X644062Y408315D01*
X643871Y407981D01*
X643799Y407910D01*
X643704Y407862D01*
X643441Y407599D01*
X643393Y407504D01*
X643322Y407432D01*
X643226Y407384D01*
X643131Y407289D01*
X643035Y407241D01*
X643011Y407169D01*
X642844Y407002D01*
X642606Y406859D01*
X642510Y406764D01*
X642415Y406716D01*
X642391Y406644D01*
X642224Y406525D01*
X641890Y406334D01*
X641651Y406095D01*
X641317Y405904D01*
X641006Y405594D01*
X640696Y405475D01*
X640457Y405379D01*
X640314Y405236D01*
X639980Y405045D01*
X639837Y404997D01*
X639646Y404949D01*
X639526Y404830D01*
X639240Y404639D01*
X638882Y404567D01*
X638548Y404472D01*
X638476Y404400D01*
X638213Y404186D01*
X637736Y404138D01*
X637354Y404042D01*
X636853Y403780D01*
X636662Y403732D01*
X636184Y403684D01*
X635755Y403637D01*
X635373Y403541D01*
X635062Y403470D01*
X634824Y403374D01*
X634155Y403326D01*
X633821Y403279D01*
X633678Y403231D01*
X631124Y403255D01*
X630694Y403302D01*
X630216Y403350D01*
X629811Y403422D01*
X629620Y403470D01*
X629214Y403637D01*
X628331Y403708D01*
X627949Y403804D01*
X627471Y404090D01*
X627042Y404138D01*
X626660Y404233D01*
X626445Y404448D01*
X626134Y404567D01*
X625752Y404663D01*
X625490Y404926D01*
X625251Y405021D01*
X624941Y405093D01*
X624702Y405331D01*
X624272Y405570D01*
X624177Y405618D01*
X623986Y405809D01*
X623556Y406048D01*
X623222Y406382D01*
X623127Y406429D01*
X623031Y406525D01*
X622936Y406573D01*
X622912Y406644D01*
X622697Y406811D01*
X622602Y406859D01*
X622434Y407026D01*
X622387Y407122D01*
X622100Y407408D01*
X621957Y407647D01*
X621790Y407814D01*
X621456Y407862D01*
X621336Y407695D01*
X621384Y406979D01*
X621336Y406644D01*
X621217Y406334D01*
X621169Y406095D01*
X621193Y404830D01*
X621050Y404496D01*
X621002Y404305D01*
X620835Y404138D01*
X620453Y403995D01*
X620310Y403947D01*
X619856Y403971D01*
X615392Y403947D01*
X614485Y403995D01*
X614342Y403947D01*
X613721Y403995D01*
X613387Y404090D01*
X613268Y404210D01*
X613125Y404448D01*
X613077Y407217D01*
Y407265D01*
Y436961D01*
X613029Y437104D01*
X613077Y437343D01*
X613316Y437868D01*
X613435Y437988D01*
X620501Y438035D01*
X620835Y437940D01*
X620930Y437844D01*
X621026Y437606D01*
X621098Y437295D01*
X621145Y437152D01*
X621193Y435720D01*
X621241Y435529D01*
X621336Y435290D01*
X621384Y434765D01*
X621336Y434622D01*
X621384Y434240D01*
X621456Y434168D01*
X621742Y434120D01*
X621909Y434287D01*
X621957Y434383D01*
X622052Y434478D01*
X622100Y434574D01*
X623127Y435600D01*
X623556Y435839D01*
X623795Y436078D01*
X624129Y436269D01*
X624368Y436507D01*
X624535Y436627D01*
X624845Y436746D01*
X624989Y436889D01*
X625323Y437080D01*
X625514Y437128D01*
X625752Y437224D01*
X625848Y437271D01*
X625943Y437367D01*
X626206Y437534D01*
X626660Y437606D01*
X626922Y437725D01*
X627209Y437964D01*
X627758Y438035D01*
X628092Y438131D01*
X628713Y438417D01*
X629190Y438465D01*
X630097Y438513D01*
X630431Y438560D01*
X630574Y438608D01*
X633726Y438656D01*
X633869Y438704D01*
X633940Y438680D01*
D02*
G37*
G36*
X593717Y438656D02*
X593956Y438560D01*
X594195Y438513D01*
X595245Y438465D01*
X595889Y438393D01*
X596200Y438322D01*
X596534Y438178D01*
X596844Y438059D01*
X597537Y437988D01*
X597847Y437868D01*
X598229Y437629D01*
X598730Y437558D01*
X598921Y437510D01*
X599184Y437391D01*
X599566Y437152D01*
X599876Y437080D01*
X600115Y436985D01*
X600330Y436770D01*
X600926Y436555D01*
X601022Y436460D01*
X601117Y436412D01*
X601332Y436245D01*
X601595Y436173D01*
X601833Y435935D01*
X602359Y435648D01*
X602550Y435457D01*
X602884Y435266D01*
X603242Y434908D01*
X603528Y434717D01*
X603576Y434622D01*
X603791Y434407D01*
X603886Y434359D01*
X604006Y434240D01*
X604053Y434144D01*
X604221Y433977D01*
X604316Y433929D01*
X604483Y433762D01*
X604531Y433667D01*
X604698Y433500D01*
X604794Y433452D01*
X604913Y433333D01*
X604961Y433237D01*
X605295Y432903D01*
X605438Y432664D01*
X605724Y432378D01*
X605963Y431948D01*
X606154Y431757D01*
X606441Y431232D01*
X606536Y431136D01*
X606775Y430802D01*
X606823Y430611D01*
X606918Y430373D01*
X607157Y430134D01*
X607252Y429895D01*
X607348Y429513D01*
X607539Y429322D01*
X607586Y429227D01*
X607658Y429155D01*
X607730Y428797D01*
X607777Y428606D01*
X607849Y428391D01*
X608088Y428009D01*
X608135Y427818D01*
X608207Y427269D01*
X608350Y426935D01*
X608446Y426840D01*
X608565Y426529D01*
X608613Y426147D01*
X608661Y425718D01*
X608732Y425264D01*
X608828Y424930D01*
X609019Y424500D01*
X609066Y423068D01*
X609114Y422925D01*
X609090Y418843D01*
X609043Y417888D01*
X608971Y417434D01*
X608876Y417052D01*
X608685Y416575D01*
X608637Y415906D01*
X608589Y415572D01*
X608541Y415381D01*
X608446Y415143D01*
X608302Y414904D01*
X608207Y414665D01*
X608159Y414188D01*
X608064Y413853D01*
X607921Y413710D01*
X607777Y413472D01*
X607730Y413281D01*
X607682Y412946D01*
X607634Y412755D01*
X607300Y412278D01*
X607252Y412087D01*
X607157Y411848D01*
X607109Y411753D01*
X607014Y411657D01*
X606679Y411037D01*
X606632Y410941D01*
X606536Y410846D01*
X606417Y410679D01*
X606297Y410368D01*
X606011Y410082D01*
X605820Y409748D01*
X605772Y409652D01*
X605701Y409628D01*
X605390Y409222D01*
X605342Y409127D01*
X605175Y408960D01*
X604961Y408697D01*
X604913Y408602D01*
X603791Y407480D01*
X603361Y407241D01*
X603289Y407169D01*
X603242Y407074D01*
X602979Y406859D01*
X602884Y406811D01*
X602645Y406573D01*
X602311Y406382D01*
X602144Y406215D01*
X601881Y406000D01*
X601690Y405952D01*
X601428Y405833D01*
X601380Y405737D01*
X601165Y405570D01*
X600688Y405379D01*
X600592Y405331D01*
X600497Y405236D01*
X600258Y405093D01*
X600067Y405045D01*
X599757Y404926D01*
X599375Y404687D01*
X598873Y404567D01*
X598682Y404520D01*
X598396Y404329D01*
X598229Y404210D01*
X597871Y404138D01*
X597393Y404090D01*
X596892Y403875D01*
X596653Y403780D01*
X596415Y403732D01*
X596033Y403684D01*
X595412Y403637D01*
X595221Y403589D01*
X594720Y403517D01*
X594385Y403374D01*
X594051Y403326D01*
X593287Y403279D01*
X593144Y403231D01*
X590017Y403255D01*
X589731Y403302D01*
X588919Y403350D01*
X588609Y403422D01*
X588418Y403470D01*
X588012Y403589D01*
X587821Y403637D01*
X586794Y403708D01*
X586269Y403851D01*
X586198Y403923D01*
X585816Y404066D01*
X585458Y404138D01*
X585123Y404186D01*
X584885Y404281D01*
X584789Y404329D01*
X584694Y404424D01*
X584383Y404544D01*
X583978Y404615D01*
X583739Y404711D01*
X583667Y404782D01*
X583381Y404973D01*
X583023Y405045D01*
X582784Y405140D01*
X582688Y405188D01*
X582665Y405260D01*
X582593Y405331D01*
X582426Y405451D01*
X581972Y405618D01*
X581829Y405761D01*
X581662Y405881D01*
X581352Y406000D01*
X581065Y406286D01*
X580827Y406429D01*
X580540Y406716D01*
X580110Y406955D01*
X578559Y408506D01*
X578320Y408936D01*
X578248Y409008D01*
X578081Y409127D01*
X577890Y409461D01*
X577819Y409533D01*
X577652Y409652D01*
X577365Y410177D01*
X577222Y410321D01*
X577031Y410655D01*
X576936Y410894D01*
X576888Y410989D01*
X576816Y411013D01*
X576649Y411228D01*
X576601Y411323D01*
X576458Y411801D01*
X576172Y412087D01*
X576124Y412374D01*
X576028Y412755D01*
X575933Y412851D01*
X575694Y413185D01*
X575647Y414283D01*
X575718Y414498D01*
X575885Y414617D01*
X576386Y414737D01*
X576936Y414999D01*
X577127Y415047D01*
X577723Y415119D01*
X578058Y415167D01*
X578248Y415214D01*
X578869Y415501D01*
X579490Y415548D01*
X580158Y415644D01*
X580707Y415906D01*
X580898Y415954D01*
X581399Y416026D01*
X581877Y416074D01*
X582498Y416360D01*
X582688Y416408D01*
X582879Y416360D01*
X583118Y416264D01*
X583214Y416217D01*
X583357Y416074D01*
X583452Y416026D01*
X583548Y415930D01*
X583763Y415668D01*
X583858Y415429D01*
X584002Y415095D01*
X584240Y414856D01*
X584312Y414689D01*
X584431Y414379D01*
X584503Y414307D01*
X584598Y414259D01*
X584813Y413949D01*
X584861Y413853D01*
X584980Y413734D01*
X585076Y413686D01*
X585147Y413615D01*
X585195Y413519D01*
X585290Y413424D01*
X585553Y413209D01*
X585649Y413161D01*
X585672Y413090D01*
X585840Y412923D01*
X586174Y412732D01*
X586436Y412469D01*
X586747Y412350D01*
X586938Y412302D01*
X587009Y412230D01*
X587272Y412015D01*
X587439Y411944D01*
X587630Y411896D01*
X587940Y411824D01*
X588179Y411729D01*
X588513Y411490D01*
X589277Y411442D01*
X589420Y411395D01*
X590518Y411347D01*
X590853Y411299D01*
X590996Y411251D01*
X591497Y411275D01*
X591736Y411323D01*
X592595Y411371D01*
X593765Y411490D01*
X593956Y411538D01*
X594457Y411801D01*
X595245Y411968D01*
X595436Y412159D01*
X595770Y412350D01*
X595961Y412397D01*
X596176Y412517D01*
X596224Y412612D01*
X596749Y412946D01*
X596868Y413114D01*
X596964Y413161D01*
X597059Y413257D01*
X597155Y413304D01*
X597656Y413806D01*
X597704Y413901D01*
X597990Y414188D01*
X598181Y414522D01*
X598253Y414594D01*
X598348Y414641D01*
X598491Y414785D01*
X598658Y415238D01*
X598802Y415381D01*
X599040Y415811D01*
X599136Y416193D01*
X599327Y416384D01*
X599470Y416623D01*
X599518Y417100D01*
X599566Y417291D01*
X599661Y417530D01*
X599900Y417959D01*
X599971Y418890D01*
X600019Y419272D01*
X600067Y420275D01*
X600115Y420514D01*
X600282Y420967D01*
Y421015D01*
Y421158D01*
X600234Y421349D01*
X600091Y421588D01*
X600043Y422543D01*
X599995Y422686D01*
X599948Y423641D01*
X599900Y423975D01*
X599757Y424309D01*
X599709Y424405D01*
X599637Y424476D01*
X599566Y424739D01*
X599518Y424930D01*
X599470Y425264D01*
X599279Y425694D01*
X599160Y425861D01*
X599040Y426171D01*
X598945Y426505D01*
X598658Y426792D01*
X598467Y427269D01*
X598348Y427389D01*
X598133Y427651D01*
X598086Y427747D01*
X597919Y427914D01*
X597751Y428033D01*
X597704Y428129D01*
X597441Y428391D01*
X597346Y428439D01*
X597274Y428511D01*
X597226Y428606D01*
X597131Y428702D01*
X596868Y428916D01*
X596773Y428964D01*
X596582Y429155D01*
X596415Y429274D01*
X596104Y429394D01*
X595794Y429704D01*
X595484Y429823D01*
X595149Y429919D01*
X594791Y430182D01*
X594600Y430229D01*
X594099Y430301D01*
X593765Y430396D01*
X593335Y430587D01*
X593097Y430683D01*
X590089Y430731D01*
X589468Y430683D01*
X588991Y430540D01*
X588752Y430444D01*
X588537Y430373D01*
X588346Y430325D01*
X587940Y430253D01*
X587606Y430158D01*
X587367Y430014D01*
X587200Y429895D01*
X586747Y429728D01*
X586556Y429537D01*
X586222Y429346D01*
X585983Y429251D01*
X585768Y429036D01*
X585720Y428940D01*
X585649Y428916D01*
X585338Y428606D01*
X585290Y428511D01*
X585219Y428439D01*
X585123Y428391D01*
X585028Y428296D01*
X584813Y428033D01*
X584765Y427938D01*
X584527Y427699D01*
X584288Y427269D01*
X584097Y427078D01*
X583811Y426553D01*
X583548Y426338D01*
X583285Y426171D01*
X582975Y426100D01*
X582832Y426052D01*
X582307Y426004D01*
X582068Y426100D01*
X581543Y426147D01*
X581161Y426243D01*
X580659Y426505D01*
X580468Y426553D01*
X579824Y426625D01*
X579394Y426816D01*
X579060Y427007D01*
X578535Y427054D01*
X578344Y427102D01*
X578010Y427150D01*
X577771Y427245D01*
X577341Y427484D01*
X576864Y427532D01*
X576673Y427580D01*
X576554Y427699D01*
X576506Y427794D01*
X576434Y427866D01*
X576339Y427914D01*
X576172Y428129D01*
X576124Y428415D01*
X576172Y428893D01*
X576506Y429418D01*
X576554Y429704D01*
X576649Y430086D01*
X576792Y430229D01*
X576959Y430492D01*
X577031Y430755D01*
X577127Y430993D01*
X577174Y431089D01*
X577246Y431113D01*
X577318Y431184D01*
X577437Y431351D01*
X577509Y431614D01*
X577604Y431853D01*
X577747Y431948D01*
X578034Y432473D01*
X578225Y432664D01*
X578463Y433094D01*
X578654Y433285D01*
X578893Y433619D01*
X578941Y433714D01*
X579012Y433786D01*
X579108Y433834D01*
X579275Y434001D01*
X579323Y434096D01*
X579538Y434311D01*
X579633Y434359D01*
X579752Y434478D01*
X579800Y434574D01*
X580015Y434789D01*
X580110Y434837D01*
X580278Y435004D01*
X580325Y435099D01*
X580636Y435314D01*
X580731Y435362D01*
X580970Y435600D01*
X581399Y435839D01*
X581590Y436030D01*
X581925Y436221D01*
X582140Y436340D01*
X582187Y436436D01*
X582354Y436555D01*
X582593Y436651D01*
X582927Y436746D01*
X583118Y436937D01*
X583285Y437057D01*
X583643Y437128D01*
X583882Y437224D01*
X583978Y437319D01*
X584240Y437486D01*
X584503Y437558D01*
X584837Y437606D01*
X585649Y437988D01*
X586269Y438035D01*
X586460Y438083D01*
X586866Y438250D01*
X587105Y438346D01*
X587343Y438393D01*
X587630Y438441D01*
X589134Y438513D01*
X589540Y438632D01*
X593502Y438680D01*
X593717Y438656D01*
D02*
G37*
G36*
X350802D02*
X351041Y438560D01*
X351470Y438513D01*
X352234Y438465D01*
X352855Y438417D01*
X353046Y438369D01*
X353452Y438202D01*
X353690Y438107D01*
X353881Y438059D01*
X354574Y437988D01*
X354765Y437940D01*
X355003Y437844D01*
X355123Y437725D01*
X355361Y437629D01*
X355552Y437582D01*
X355839Y437534D01*
X356101Y437462D01*
X356436Y437224D01*
X356603Y437152D01*
X356961Y437080D01*
X357223Y436961D01*
X357486Y436746D01*
X357581Y436698D01*
X357987Y436531D01*
X358250Y436316D01*
X358727Y436125D01*
X358799Y436054D01*
X358847Y435958D01*
X359061Y435791D01*
X359157Y435744D01*
X359396Y435648D01*
X359587Y435457D01*
X360016Y435218D01*
X360088Y435147D01*
X360207Y434980D01*
X360613Y434717D01*
X360661Y434622D01*
X360828Y434454D01*
X360923Y434407D01*
X361138Y434192D01*
X361186Y434096D01*
X361305Y433977D01*
X361401Y433929D01*
X361568Y433762D01*
X361616Y433667D01*
X361783Y433500D01*
X361878Y433452D01*
X362045Y433237D01*
X362093Y433142D01*
X362356Y432879D01*
X362570Y432616D01*
X362618Y432521D01*
X362809Y432330D01*
X363048Y431900D01*
X363191Y431757D01*
X363430Y431423D01*
X363478Y431232D01*
X363716Y430993D01*
X363764Y430898D01*
X363836Y430826D01*
X363907Y430564D01*
X364003Y430325D01*
X364051Y430229D01*
X364241Y430038D01*
X364337Y429800D01*
X364432Y429418D01*
X364671Y429179D01*
X364767Y428940D01*
X364814Y428749D01*
X364862Y428415D01*
X365101Y428081D01*
X365173Y427914D01*
X365244Y427556D01*
X365292Y427221D01*
X365340Y427030D01*
X365531Y426744D01*
X365626Y426505D01*
X365674Y426362D01*
X365722Y425503D01*
X365769Y425312D01*
X365841Y425097D01*
X365936Y424858D01*
X366008Y424500D01*
X366056Y424309D01*
X366104Y423975D01*
X366151Y423832D01*
X366199Y420346D01*
X366151Y418867D01*
X366199Y418723D01*
X366151Y418675D01*
X366104Y417721D01*
X366056Y417530D01*
X365817Y417005D01*
X365769Y416861D01*
X365722Y416050D01*
X365674Y415715D01*
X365626Y415524D01*
X365531Y415286D01*
X365459Y415214D01*
X365364Y414976D01*
X365316Y414785D01*
X365244Y414331D01*
X365196Y414140D01*
X364886Y413543D01*
X364767Y412946D01*
X364576Y412660D01*
X364409Y412397D01*
X364337Y412135D01*
X364241Y411896D01*
X364146Y411801D01*
X363907Y411371D01*
X363812Y411132D01*
X363764Y411037D01*
X363693Y411013D01*
X363525Y410798D01*
X363430Y410559D01*
X363263Y410249D01*
X363167Y410201D01*
X362881Y409724D01*
X362714Y409604D01*
X362475Y409270D01*
X362427Y409175D01*
X362356Y409103D01*
X362260Y409055D01*
X362045Y408745D01*
X361998Y408650D01*
X361663Y408315D01*
X361616Y408220D01*
X361210Y407814D01*
X361114Y407766D01*
X360971Y407623D01*
X360541Y407289D01*
X360374Y407169D01*
X360327Y407074D01*
X360016Y406859D01*
X359921Y406811D01*
X359801Y406692D01*
X359754Y406597D01*
X359682Y406525D01*
X359587Y406477D01*
X359229Y406262D01*
X359181Y406167D01*
X358775Y405952D01*
X358536Y405857D01*
X358345Y405666D01*
X358011Y405475D01*
X357772Y405379D01*
X357677Y405331D01*
X357581Y405236D01*
X357414Y405117D01*
X357152Y405045D01*
X356961Y404997D01*
X356722Y404902D01*
X356627Y404806D01*
X356292Y404615D01*
X355910Y404567D01*
X355576Y404424D01*
X355481Y404377D01*
X355409Y404305D01*
X355170Y404210D01*
X354932Y404162D01*
X354478Y404090D01*
X353977Y403875D01*
X353738Y403780D01*
X353499Y403732D01*
X352879Y403684D01*
X352497Y403637D01*
X352306Y403589D01*
X351805Y403517D01*
X351470Y403374D01*
X350897Y403326D01*
X350277Y403279D01*
X350134Y403231D01*
X347102Y403255D01*
X346863Y403302D01*
X346004Y403350D01*
X345694Y403422D01*
X345312Y403517D01*
X345073Y403613D01*
X344691Y403660D01*
X343927Y403708D01*
X343545Y403804D01*
X343115Y403995D01*
X342877Y404090D01*
X342495Y404138D01*
X342160Y404186D01*
X341826Y404329D01*
X341731Y404377D01*
X341659Y404448D01*
X341421Y404544D01*
X341110Y404615D01*
X340776Y404711D01*
X340681Y404806D01*
X340585Y404854D01*
X340513Y404926D01*
X340203Y405045D01*
X340012Y405093D01*
X339869Y405140D01*
X339773Y405188D01*
X339630Y405331D01*
X339391Y405475D01*
X339153Y405570D01*
X339057Y405618D01*
X338890Y405785D01*
X338317Y406072D01*
X338270Y406167D01*
X338150Y406286D01*
X337816Y406477D01*
X337720Y406573D01*
X337291Y406907D01*
X337195Y406955D01*
X336957Y407193D01*
X336718Y407337D01*
X336240Y407814D01*
X336145Y407862D01*
X336073Y407933D01*
X335882Y408268D01*
X335596Y408554D01*
X335548Y408650D01*
X335214Y408984D01*
X334975Y409413D01*
X334737Y409652D01*
X334546Y409986D01*
X334378Y410154D01*
X334164Y410416D01*
X334116Y410607D01*
X334020Y410846D01*
X333877Y410989D01*
X333638Y411419D01*
X333543Y411657D01*
X333447Y411753D01*
X333280Y412015D01*
X333209Y412278D01*
X333113Y412660D01*
X333042Y412732D01*
X332827Y412994D01*
X332731Y413567D01*
X332636Y413806D01*
X332588Y414044D01*
X332779Y414474D01*
X332827Y414570D01*
X333089Y414689D01*
X333471Y414785D01*
X333782Y414952D01*
X334164Y415047D01*
X334856Y415119D01*
X335190Y415167D01*
X335787Y415429D01*
X336049Y415501D01*
X336240Y415548D01*
X336861Y415596D01*
X337052Y415644D01*
X337553Y415859D01*
X337935Y415954D01*
X338580Y416026D01*
X338914Y416074D01*
X339248Y416169D01*
X339439Y416217D01*
X339773Y416121D01*
X340346Y415978D01*
X340537Y415787D01*
X340633Y415739D01*
X340848Y415524D01*
X340991Y415286D01*
X341086Y415047D01*
X341134Y414952D01*
X341277Y414808D01*
X341516Y414379D01*
X341564Y414283D01*
X341683Y414212D01*
X341898Y413949D01*
X341946Y413853D01*
X342065Y413734D01*
X342160Y413686D01*
X342280Y413567D01*
X342328Y413472D01*
X342495Y413304D01*
X342590Y413257D01*
X342662Y413185D01*
X342781Y413018D01*
X343115Y412779D01*
X343211Y412732D01*
X343497Y412445D01*
X343975Y412254D01*
X344070Y412206D01*
X344261Y412015D01*
X344428Y411944D01*
X344834Y411872D01*
X345168Y411777D01*
X345598Y411490D01*
X346362Y411442D01*
X346505Y411395D01*
X347603Y411347D01*
X348176Y411251D01*
X348319Y411299D01*
X349513Y411347D01*
X349656Y411395D01*
X350420Y411442D01*
X350897Y411490D01*
X351136Y411586D01*
X351351Y411753D01*
X351590Y411848D01*
X352043Y411920D01*
X352282Y412015D01*
X352378Y412063D01*
X352616Y412302D01*
X352807Y412350D01*
X353141Y412493D01*
X353237Y412541D01*
X353285Y412636D01*
X353619Y412827D01*
X353714Y412875D01*
X353834Y412994D01*
X353881Y413090D01*
X354096Y413257D01*
X354192Y413304D01*
X354645Y413758D01*
X354789Y413997D01*
X355003Y414164D01*
X355218Y414426D01*
X355266Y414522D01*
X355385Y414641D01*
X355481Y414689D01*
X355576Y414785D01*
X355696Y415095D01*
X355743Y415286D01*
X355934Y415477D01*
X356101Y415739D01*
X356149Y415930D01*
X356221Y416241D01*
X356364Y416384D01*
X356412Y416479D01*
X356483Y416551D01*
X356603Y417052D01*
X356650Y417387D01*
X356985Y418103D01*
X357032Y418914D01*
X357080Y419058D01*
X357128Y422352D01*
X357080Y422495D01*
X357032Y423593D01*
X356985Y423784D01*
X356770Y424285D01*
X356674Y424524D01*
X356627Y424763D01*
X356555Y425216D01*
X356412Y425550D01*
X356316Y425646D01*
X356197Y425813D01*
X356125Y426076D01*
X356030Y426410D01*
X355839Y426601D01*
X355552Y427126D01*
X355505Y427221D01*
X355361Y427365D01*
X355170Y427699D01*
X354836Y428033D01*
X354789Y428129D01*
X354645Y428272D01*
X354359Y428511D01*
X354311Y428606D01*
X354144Y428773D01*
X353905Y428916D01*
X353666Y429155D01*
X353141Y429441D01*
X353046Y429489D01*
X352903Y429632D01*
X352735Y429752D01*
X352497Y429800D01*
X352234Y429871D01*
X352115Y429991D01*
X351852Y430205D01*
X351232Y430301D01*
X350659Y430444D01*
X350134Y430683D01*
X347174Y430731D01*
X346553Y430683D01*
X346219Y430635D01*
X345598Y430349D01*
X344834Y430253D01*
X344595Y430158D01*
X344380Y429943D01*
X343784Y429728D01*
X343545Y429489D01*
X343306Y429346D01*
X343068Y429251D01*
X342829Y429012D01*
X342590Y428869D01*
X342375Y428654D01*
X342328Y428558D01*
X342113Y428391D01*
X341898Y428129D01*
X341850Y428033D01*
X341612Y427794D01*
X341468Y427556D01*
X341325Y427221D01*
X341182Y427078D01*
X340991Y426744D01*
X340824Y426577D01*
X340728Y426529D01*
X340537Y426338D01*
X340442Y426291D01*
X340370Y426219D01*
X340131Y426123D01*
X339821Y426052D01*
X339678Y426004D01*
X339367Y426028D01*
X339177Y426076D01*
X338938Y426123D01*
X338341Y426195D01*
X338150Y426243D01*
X337792Y426458D01*
X337482Y426577D01*
X337004Y426625D01*
X336670Y426720D01*
X336240Y426911D01*
X336002Y427007D01*
X335190Y427102D01*
X334880Y427221D01*
X334498Y427460D01*
X333949Y427532D01*
X333710Y427627D01*
X333615Y427675D01*
X333471Y427818D01*
X333256Y428081D01*
X333209Y428320D01*
X333256Y428940D01*
X333352Y429179D01*
X333400Y429274D01*
X333519Y429394D01*
X333638Y429704D01*
X333734Y430086D01*
X333925Y430277D01*
X334068Y430516D01*
X334116Y430707D01*
X334211Y431041D01*
X334450Y431280D01*
X334546Y431518D01*
X334689Y431853D01*
X334737Y431948D01*
X334927Y432139D01*
X334975Y432234D01*
X335142Y432545D01*
X335238Y432593D01*
X335309Y432664D01*
X335357Y432760D01*
X335429Y432831D01*
X335548Y433142D01*
X335715Y433309D01*
X335930Y433571D01*
X335978Y433667D01*
X336145Y433834D01*
X336240Y433882D01*
X336360Y434001D01*
X336408Y434096D01*
X336622Y434311D01*
X336718Y434359D01*
X336837Y434478D01*
X336885Y434574D01*
X337100Y434789D01*
X337195Y434837D01*
X337315Y434956D01*
X337362Y435051D01*
X337482Y435171D01*
X337720Y435314D01*
X337959Y435553D01*
X338484Y435839D01*
X338675Y436030D01*
X339105Y436269D01*
X339415Y436579D01*
X339678Y436651D01*
X340012Y436746D01*
X340203Y436937D01*
X340442Y437080D01*
X340728Y437128D01*
X340967Y437224D01*
X341062Y437319D01*
X341158Y437367D01*
X341230Y437438D01*
X341540Y437558D01*
X341874Y437606D01*
X342208Y437701D01*
X342304Y437797D01*
X342638Y437988D01*
X343259Y438035D01*
X343593Y438083D01*
X343855Y438202D01*
X344237Y438346D01*
X344476Y438393D01*
X344667Y438441D01*
X346266Y438513D01*
X346505Y438608D01*
X350563Y438656D01*
X350611D01*
X350635Y438680D01*
X350802Y438656D01*
D02*
G37*
G36*
X558913D02*
X559175Y438536D01*
X560727Y438465D01*
X561061Y438417D01*
X561252Y438369D01*
X561753Y438155D01*
X561992Y438059D01*
X562732Y437988D01*
X562971Y437892D01*
X563257Y437701D01*
X563424Y437629D01*
X564164Y437510D01*
X564451Y437319D01*
X564713Y437152D01*
X564904Y437104D01*
X565215Y437033D01*
X565358Y436889D01*
X565453Y436842D01*
X565573Y436722D01*
X565835Y436651D01*
X566074Y436555D01*
X566170Y436507D01*
X566265Y436412D01*
X566599Y436221D01*
X566838Y436125D01*
X567077Y435887D01*
X567411Y435696D01*
X567602Y435505D01*
X568032Y435266D01*
X568294Y435004D01*
X568557Y434789D01*
X568652Y434741D01*
X568724Y434669D01*
X568772Y434574D01*
X568891Y434454D01*
X568986Y434407D01*
X569201Y434192D01*
X569321Y434025D01*
X569416Y433977D01*
X569679Y433714D01*
X569726Y433619D01*
X569798Y433547D01*
X569893Y433500D01*
X570013Y433380D01*
X570156Y433142D01*
X570538Y432760D01*
X570729Y432425D01*
X570777Y432330D01*
X570920Y432187D01*
X571111Y431853D01*
X571350Y431614D01*
X571541Y431280D01*
X571636Y431041D01*
X571732Y430945D01*
X571970Y430516D01*
X572113Y430182D01*
X572161Y430086D01*
X572233Y430062D01*
X572304Y429943D01*
X572400Y429704D01*
X572448Y429513D01*
X572543Y429274D01*
X572734Y429084D01*
X572806Y428916D01*
X572877Y428654D01*
X572925Y428320D01*
X573021Y428081D01*
X573068Y427985D01*
X573164Y427890D01*
X573283Y427723D01*
X573355Y427126D01*
X573450Y426744D01*
X573737Y426123D01*
X573832Y424882D01*
X573975Y424548D01*
X574023Y424071D01*
X574119Y423832D01*
X574166Y423068D01*
X574214Y422925D01*
X574262Y419535D01*
X574214Y419392D01*
X574166Y418580D01*
X574119Y418246D01*
X573975Y417673D01*
X573880Y417434D01*
X573808Y416551D01*
X573761Y416026D01*
X573689Y415715D01*
X573498Y415429D01*
X573403Y415190D01*
X573355Y414999D01*
X573283Y414355D01*
X573212Y414092D01*
X573116Y413997D01*
X573068Y413901D01*
X572997Y413830D01*
X572901Y413591D01*
X572830Y413137D01*
X572495Y412612D01*
X572448Y412326D01*
X572352Y412087D01*
X572304Y411992D01*
X572090Y411777D01*
X571970Y411466D01*
X571875Y411228D01*
X571732Y411084D01*
X571541Y410750D01*
X571397Y410416D01*
X571254Y410273D01*
X571015Y409843D01*
X570777Y409604D01*
X570538Y409270D01*
X570490Y409175D01*
X568437Y407122D01*
X568175Y406907D01*
X568079Y406859D01*
X567793Y406573D01*
X567459Y406382D01*
X567148Y406072D01*
X566695Y405904D01*
X566575Y405785D01*
X566313Y405570D01*
X565835Y405379D01*
X565764Y405308D01*
X565477Y405117D01*
X565215Y405045D01*
X564976Y404949D01*
X564642Y404711D01*
X564475Y404639D01*
X564164Y404567D01*
X563973Y404520D01*
X563377Y404210D01*
X563066Y404138D01*
X562732Y404090D01*
X562255Y403947D01*
X562183Y403875D01*
X561944Y403780D01*
X561753Y403732D01*
X560679Y403660D01*
X560345Y403517D01*
X559868Y403470D01*
X559629Y403374D01*
X558913Y403326D01*
X558769Y403279D01*
X555618Y403231D01*
X555475Y403279D01*
X554473Y403326D01*
X554091Y403422D01*
X553661Y403613D01*
X552730Y403684D01*
X552348Y403732D01*
X552157Y403780D01*
X551894Y403851D01*
X551823Y403923D01*
X551441Y404066D01*
X551083Y404138D01*
X550749Y404186D01*
X550510Y404281D01*
X550414Y404329D01*
X550319Y404424D01*
X550009Y404544D01*
X549698Y404615D01*
X549364Y404711D01*
X549221Y404854D01*
X548958Y405021D01*
X548648Y405093D01*
X548409Y405188D01*
X548266Y405331D01*
X547932Y405522D01*
X547693Y405618D01*
X547598Y405666D01*
X547502Y405761D01*
X546977Y406048D01*
X546738Y406286D01*
X546404Y406477D01*
X546237Y406644D01*
X545974Y406859D01*
X545879Y406907D01*
X545760Y407026D01*
X545712Y407122D01*
X545545Y407241D01*
X545449Y407289D01*
X545354Y407384D01*
X545258Y407432D01*
X544184Y408506D01*
X543945Y408936D01*
X543778Y409103D01*
X543563Y409366D01*
X543516Y409461D01*
X543229Y409748D01*
X542990Y410177D01*
X542776Y410392D01*
X542608Y410846D01*
X542298Y411156D01*
X542179Y411466D01*
X542083Y411801D01*
X541797Y412087D01*
X541749Y412517D01*
X541845Y412755D01*
X541892Y412851D01*
X542155Y413114D01*
X542322Y413233D01*
X542632Y413304D01*
X542823Y413352D01*
X543540Y413686D01*
X543731Y413734D01*
X544065Y413782D01*
X544303Y413877D01*
X544399Y413925D01*
X544518Y414044D01*
X544757Y414140D01*
X545210Y414212D01*
X545545Y414259D01*
X546070Y414594D01*
X546452Y414641D01*
X546834Y414737D01*
X546929Y414832D01*
X547025Y414880D01*
X547096Y414952D01*
X547335Y415047D01*
X547980Y415119D01*
X548314Y415262D01*
X548696Y415310D01*
X548958Y415238D01*
X549269Y415167D01*
X549388Y415047D01*
X549579Y414713D01*
X549698Y414594D01*
X549794Y414546D01*
X549937Y414307D01*
X550056Y413997D01*
X550176Y413877D01*
X550271Y413830D01*
X550438Y413662D01*
X550486Y413567D01*
X550701Y413352D01*
X550796Y413304D01*
X550964Y413090D01*
X551226Y412875D01*
X551322Y412827D01*
X551417Y412732D01*
X551512Y412684D01*
X551656Y412541D01*
X551894Y412397D01*
X552133Y412302D01*
X552420Y412015D01*
X552587Y411944D01*
X552826Y411896D01*
X553088Y411824D01*
X553184Y411729D01*
X553279Y411681D01*
X553374Y411586D01*
X553542Y411514D01*
X553733Y411466D01*
X554114Y411419D01*
X554353Y411371D01*
X554544Y411323D01*
X554902Y411251D01*
X555093Y411204D01*
X555427Y411061D01*
X557958Y411013D01*
X558149Y411061D01*
X558555Y411180D01*
X558865Y411299D01*
X559199Y411395D01*
X559868Y411490D01*
X560106Y411586D01*
X560202Y411633D01*
X560321Y411753D01*
X560775Y411920D01*
X561013Y412015D01*
X561204Y412206D01*
X561634Y412445D01*
X561825Y412636D01*
X562231Y412899D01*
X562279Y412994D01*
X562374Y413090D01*
X562422Y413185D01*
X562493Y413209D01*
X562589Y413304D01*
X562684Y413352D01*
X562708Y413424D01*
X562804Y413519D01*
X562851Y413615D01*
X563018Y413782D01*
X563114Y413830D01*
X563257Y414068D01*
X563329Y414331D01*
X563568Y414570D01*
X563759Y414904D01*
X563854Y415143D01*
X563926Y415214D01*
X564117Y415501D01*
X564236Y416002D01*
X564379Y416336D01*
X564618Y416766D01*
X564666Y417387D01*
X564713Y417577D01*
X564904Y418007D01*
X564857Y418198D01*
X564737Y418270D01*
X541678Y418317D01*
X541343Y418365D01*
X541105Y418461D01*
X540890Y418723D01*
X540842Y419105D01*
X540794Y419249D01*
X540818Y421278D01*
X540866Y422901D01*
X540938Y423689D01*
X540985Y423880D01*
X541033Y424214D01*
X541081Y424405D01*
X541224Y424739D01*
X541272Y425073D01*
X541319Y425980D01*
X541415Y426314D01*
X541510Y426553D01*
X541558Y426649D01*
X541701Y426983D01*
X541749Y427460D01*
X541797Y427651D01*
X541845Y427985D01*
X542179Y428511D01*
X542227Y428988D01*
X542322Y429227D01*
X542561Y429465D01*
X542608Y429704D01*
X542632Y429728D01*
X542656Y429800D01*
X542704Y429991D01*
X542847Y430325D01*
X543086Y430755D01*
X543181Y430993D01*
X543229Y431089D01*
X543468Y431327D01*
X543563Y431566D01*
X543683Y431876D01*
X543850Y431996D01*
X544136Y432521D01*
X544375Y432760D01*
X544566Y433094D01*
X544685Y433261D01*
X544781Y433309D01*
X544996Y433714D01*
X545067Y433786D01*
X545163Y433834D01*
X545378Y434049D01*
X545497Y434216D01*
X545592Y434263D01*
X545855Y434526D01*
X545974Y434693D01*
X546070Y434741D01*
X546285Y434956D01*
X546404Y435123D01*
X546738Y435314D01*
X546834Y435409D01*
X546929Y435457D01*
X546977Y435553D01*
X547407Y435791D01*
X547598Y435982D01*
X548194Y436340D01*
X548242Y436436D01*
X548433Y436579D01*
X548744Y436698D01*
X548982Y436794D01*
X549197Y437009D01*
X549507Y437128D01*
X549698Y437176D01*
X549841Y437224D01*
X549937Y437271D01*
X550176Y437510D01*
X550653Y437558D01*
X550892Y437653D01*
X550987Y437701D01*
X551083Y437797D01*
X551345Y437964D01*
X552085Y438035D01*
X552276Y438083D01*
X552515Y438178D01*
X552587Y438250D01*
X552969Y438393D01*
X553255Y438441D01*
X554162Y438489D01*
X554687Y438536D01*
X554926Y438584D01*
X555117Y438632D01*
X558698Y438680D01*
X558913Y438656D01*
D02*
G37*
G36*
X386012Y438680D02*
X386036Y438656D01*
X386132D01*
X386466Y438513D01*
X387803Y438465D01*
X388280Y438417D01*
X388471Y438369D01*
X388972Y438155D01*
X389211Y438059D01*
X389903Y437988D01*
X390094Y437940D01*
X390428Y437797D01*
X390524Y437749D01*
X390596Y437677D01*
X391097Y437558D01*
X391431Y437462D01*
X391670Y437319D01*
X391932Y437152D01*
X392123Y437104D01*
X392434Y437033D01*
X392625Y436842D01*
X392720Y436794D01*
X392792Y436722D01*
X393054Y436651D01*
X393388Y436507D01*
X393484Y436412D01*
X393818Y436221D01*
X394057Y436125D01*
X394296Y435887D01*
X394630Y435696D01*
X394845Y435577D01*
X394892Y435481D01*
X394988Y435433D01*
X395370Y435195D01*
X395418Y435099D01*
X395513Y435004D01*
X395776Y434789D01*
X395871Y434741D01*
X395943Y434669D01*
X395990Y434574D01*
X396110Y434454D01*
X396205Y434407D01*
X396420Y434192D01*
X396468Y434096D01*
X396587Y433977D01*
X396683Y433929D01*
X396898Y433714D01*
X396945Y433619D01*
X397065Y433500D01*
X397160Y433452D01*
X397327Y433237D01*
X397375Y433142D01*
X397662Y432903D01*
X397852Y432569D01*
X398043Y432378D01*
X398330Y431853D01*
X398569Y431614D01*
X398712Y431375D01*
X398807Y431136D01*
X398951Y430993D01*
X399142Y430659D01*
X399237Y430325D01*
X399571Y429991D01*
X399619Y429704D01*
X399714Y429322D01*
X399810Y429227D01*
X400049Y428893D01*
X400096Y428606D01*
X400144Y428415D01*
X400335Y427985D01*
X400526Y427651D01*
X400574Y427078D01*
X400621Y426887D01*
X400956Y426171D01*
X401003Y425312D01*
X401051Y424834D01*
X401242Y424405D01*
X401290Y424118D01*
X401338Y423975D01*
X401385Y423307D01*
X401433Y422829D01*
X401481Y422686D01*
X401457Y422185D01*
X401481Y419535D01*
X401433Y419344D01*
X401385Y418580D01*
X401338Y418103D01*
X401266Y417840D01*
X401171Y417601D01*
X401099Y417196D01*
X401051Y417052D01*
X401003Y416193D01*
X400860Y415620D01*
X400765Y415381D01*
X400693Y415310D01*
X400598Y415071D01*
X400526Y414474D01*
X400478Y414283D01*
X400383Y414044D01*
X400144Y413710D01*
X400096Y413328D01*
X400049Y413137D01*
X399953Y412899D01*
X399762Y412708D01*
X399714Y412612D01*
X399619Y412230D01*
X399523Y411992D01*
X399380Y411848D01*
X399261Y411681D01*
X399189Y411419D01*
X399094Y411180D01*
X398903Y410989D01*
X398616Y410464D01*
X398569Y410368D01*
X398354Y410154D01*
X398234Y409843D01*
X397996Y409604D01*
X397757Y409270D01*
X397709Y409175D01*
X397089Y408554D01*
X396850Y408220D01*
X396802Y408124D01*
X396683Y408005D01*
X396348Y407766D01*
X396253Y407719D01*
X395680Y407146D01*
X395251Y406811D01*
X395155Y406764D01*
X395131Y406692D01*
X395012Y406573D01*
X394678Y406382D01*
X394558Y406262D01*
X394296Y406048D01*
X393914Y405904D01*
X393603Y405594D01*
X393293Y405475D01*
X392959Y405331D01*
X392792Y405164D01*
X392481Y405045D01*
X392076Y404878D01*
X391694Y404639D01*
X391383Y404567D01*
X390978Y404448D01*
X390596Y404210D01*
X390285Y404138D01*
X389712Y404042D01*
X389450Y403923D01*
X389163Y403780D01*
X388924Y403732D01*
X387898Y403660D01*
X387564Y403517D01*
X387086Y403470D01*
X386848Y403374D01*
X386132Y403326D01*
X385988Y403279D01*
X382837Y403231D01*
X382694Y403279D01*
X381692Y403326D01*
X381501Y403374D01*
X381238Y403446D01*
X380856Y403589D01*
X380546Y403660D01*
X379639Y403708D01*
X379304Y403804D01*
X378970Y403947D01*
X378660Y404066D01*
X378302Y404138D01*
X377968Y404186D01*
X377633Y404329D01*
X377466Y404448D01*
X377228Y404544D01*
X376917Y404615D01*
X376583Y404711D01*
X376464Y404830D01*
X376177Y405021D01*
X375867Y405093D01*
X375628Y405188D01*
X375413Y405403D01*
X375103Y405522D01*
X374864Y405618D01*
X374721Y405761D01*
X374554Y405881D01*
X374244Y406000D01*
X374076Y406167D01*
X374029Y406262D01*
X373623Y406525D01*
X373527Y406573D01*
X373504Y406644D01*
X373241Y406859D01*
X373146Y406907D01*
X373026Y407026D01*
X372979Y407122D01*
X372907Y407193D01*
X372573Y407384D01*
X372477Y407432D01*
X371785Y408124D01*
X371737Y408220D01*
X371498Y408459D01*
X371164Y408888D01*
X371116Y408984D01*
X370878Y409222D01*
X370734Y409461D01*
X370448Y409748D01*
X370209Y410177D01*
X370162Y410273D01*
X369971Y410464D01*
X369923Y410559D01*
X369780Y410894D01*
X369589Y411084D01*
X369469Y411251D01*
X369398Y411514D01*
X369302Y411753D01*
X369254Y411848D01*
X369016Y412087D01*
X368968Y412565D01*
X369063Y412803D01*
X369302Y413042D01*
X369565Y413257D01*
X369851Y413304D01*
X370042Y413352D01*
X370758Y413686D01*
X370949Y413734D01*
X371284Y413782D01*
X371618Y413925D01*
X371737Y414044D01*
X371976Y414140D01*
X372764Y414259D01*
X373289Y414594D01*
X373718Y414641D01*
X373909Y414689D01*
X374148Y414832D01*
X374244Y414880D01*
X374315Y414952D01*
X374626Y415071D01*
X375103Y415119D01*
X375246Y415167D01*
X375676Y415214D01*
X376010Y415119D01*
X376488Y415071D01*
X376655Y414904D01*
X376702Y414808D01*
X377084Y414426D01*
X377275Y414092D01*
X377323Y413997D01*
X377657Y413662D01*
X377705Y413567D01*
X377920Y413352D01*
X378015Y413304D01*
X378087Y413233D01*
X378135Y413137D01*
X378230Y413042D01*
X378493Y412827D01*
X378588Y412779D01*
X378755Y412612D01*
X379042Y412421D01*
X379352Y412302D01*
X379472Y412183D01*
X379734Y411968D01*
X379925Y411920D01*
X380331Y411801D01*
X380593Y411586D01*
X380760Y411514D01*
X381286Y411419D01*
X381572Y411371D01*
X381763Y411323D01*
X382121Y411251D01*
X382312Y411204D01*
X382646Y411061D01*
X385177Y411013D01*
X385368Y411061D01*
X385630Y411132D01*
X386156Y411323D01*
X386346Y411371D01*
X386848Y411442D01*
X387230Y411538D01*
X387468Y411681D01*
X387803Y411872D01*
X387994Y411920D01*
X388232Y412015D01*
X388304Y412087D01*
X388352Y412183D01*
X388590Y412326D01*
X388853Y412397D01*
X389187Y412732D01*
X389283Y412779D01*
X389545Y413042D01*
X389593Y413137D01*
X389664Y413209D01*
X389760Y413257D01*
X390023Y413519D01*
X390070Y413615D01*
X390428Y413973D01*
X390548Y414283D01*
X390643Y414379D01*
X390691Y414474D01*
X390763Y414498D01*
X390978Y414904D01*
X391073Y415143D01*
X391145Y415214D01*
X391335Y415501D01*
X391407Y415763D01*
X391503Y416097D01*
X391646Y416336D01*
X391837Y416670D01*
X391885Y417291D01*
X391932Y417482D01*
X392076Y417816D01*
X392123Y418103D01*
X391956Y418270D01*
X368801Y418317D01*
X368610Y418365D01*
X368467Y418413D01*
X368371Y418461D01*
X368252Y418580D01*
X368204Y418675D01*
X368109Y418771D01*
X368061Y418962D01*
X368013Y419105D01*
X368061Y422734D01*
X368109Y422877D01*
X368156Y423689D01*
X368252Y423927D01*
X368300Y424405D01*
X368443Y424739D01*
X368491Y425216D01*
X368538Y425837D01*
X368586Y426171D01*
X368920Y426887D01*
X368968Y427460D01*
X369063Y427842D01*
X369278Y428248D01*
X369398Y428558D01*
X369445Y428749D01*
X369493Y429084D01*
X369732Y429418D01*
X369804Y429585D01*
X369875Y429895D01*
X369971Y430134D01*
X370114Y430277D01*
X370281Y430540D01*
X370353Y430850D01*
X370520Y431160D01*
X370734Y431423D01*
X370782Y431614D01*
X370878Y431853D01*
X371116Y432091D01*
X371355Y432521D01*
X371594Y432760D01*
X371785Y433094D01*
X371833Y433189D01*
X371952Y433309D01*
X372167Y433571D01*
X372215Y433667D01*
X372644Y434096D01*
X372692Y434192D01*
X372764Y434263D01*
X372859Y434311D01*
X373074Y434526D01*
X373122Y434622D01*
X373193Y434693D01*
X373289Y434741D01*
X373551Y435004D01*
X373599Y435099D01*
X373671Y435171D01*
X374005Y435362D01*
X374196Y435553D01*
X374626Y435791D01*
X374745Y435911D01*
X375008Y436125D01*
X375246Y436221D01*
X375366Y436340D01*
X375652Y436579D01*
X376106Y436746D01*
X376249Y436889D01*
X376511Y437057D01*
X376774Y437128D01*
X377108Y437271D01*
X377204Y437319D01*
X377371Y437486D01*
X377681Y437558D01*
X378015Y437606D01*
X378302Y437797D01*
X378564Y437964D01*
X379352Y438035D01*
X380068Y438369D01*
X380211Y438417D01*
X380784Y438465D01*
X381692Y438513D01*
X382026Y438560D01*
X382169Y438608D01*
X385797Y438656D01*
X385941Y438704D01*
X386012Y438680D01*
D02*
G37*
G36*
X488492Y437988D02*
X488755Y437725D01*
X488802Y437629D01*
X488946Y437486D01*
X488993Y404544D01*
X488874Y404281D01*
X488444Y404042D01*
X488158Y403995D01*
X487967Y403947D01*
X487824Y403995D01*
X487681Y403947D01*
X487418Y403971D01*
X481999Y403947D01*
X481856Y403995D01*
X481140Y403947D01*
X480949Y403995D01*
X480471Y404186D01*
X480352Y404305D01*
X480304Y423927D01*
Y423975D01*
Y437295D01*
X480400Y437677D01*
X480495Y437773D01*
X480758Y437988D01*
X488301Y438035D01*
X488492Y437988D01*
D02*
G37*
G36*
X474169D02*
X474241Y437916D01*
X474480Y437486D01*
X474527Y404926D01*
X474480Y404591D01*
X474384Y404257D01*
X474313Y404186D01*
X474145Y404066D01*
X473787Y403995D01*
X473644Y403947D01*
X473190Y403971D01*
X467772Y403947D01*
X467581Y403995D01*
X467103Y403947D01*
X466626Y403995D01*
X466435Y404042D01*
X466292Y404090D01*
X466196Y404138D01*
X465743Y404830D01*
X465766Y405331D01*
X465743Y434478D01*
Y434526D01*
Y437200D01*
X465862Y437462D01*
X466077Y437725D01*
X466125Y437820D01*
X466292Y437988D01*
X473978Y438035D01*
X474169Y437988D01*
D02*
G37*
G36*
X708252Y453074D02*
X708443Y453026D01*
X708777Y452979D01*
X708968Y452931D01*
X709374Y452812D01*
X709732Y452740D01*
X709923Y452692D01*
X710830Y452645D01*
X711642Y452263D01*
X712310Y452215D01*
X712644Y452072D01*
X712907Y451904D01*
X713217Y451785D01*
X713551Y451737D01*
X713790Y451642D01*
X714005Y451427D01*
X714315Y451308D01*
X714506Y451260D01*
X714745Y451165D01*
X714888Y451021D01*
X715127Y450878D01*
X715318Y450830D01*
X715557Y450735D01*
X715700Y450592D01*
X715939Y450448D01*
X716177Y450353D01*
X716464Y450066D01*
X716798Y449875D01*
X716870Y449804D01*
X717132Y449589D01*
X717466Y449398D01*
X717634Y449231D01*
X717896Y449016D01*
X717992Y448968D01*
X718063Y448897D01*
X718111Y448801D01*
X718326Y448586D01*
X718421Y448539D01*
X718541Y448419D01*
X718588Y448324D01*
X718803Y448109D01*
X718899Y448061D01*
X718970Y447990D01*
X719113Y447751D01*
X719328Y447536D01*
X719639Y447082D01*
X719686Y446987D01*
X719925Y446748D01*
X720140Y446343D01*
X720307Y446223D01*
X720641Y445602D01*
X720689Y445507D01*
X720808Y445388D01*
X720975Y444934D01*
X721095Y444672D01*
X721286Y444385D01*
X721405Y443884D01*
X721501Y443549D01*
X721739Y443168D01*
X721811Y442714D01*
X721859Y442284D01*
X721930Y441831D01*
X722026Y441449D01*
X722121Y441210D01*
X722169Y440971D01*
X722217Y440828D01*
X722193Y438131D01*
X722097Y437653D01*
X722026Y437391D01*
X721930Y437152D01*
X721835Y436531D01*
X721787Y435911D01*
X721739Y435720D01*
X721644Y435481D01*
X721405Y435051D01*
X721357Y434717D01*
X721286Y434454D01*
X721071Y434192D01*
X720999Y434025D01*
X720928Y433762D01*
X720832Y433523D01*
X720785Y433428D01*
X720713Y433404D01*
X720689Y433333D01*
X720570Y433213D01*
X720403Y432760D01*
X720164Y432521D01*
X719925Y432091D01*
X719877Y431996D01*
X719758Y431876D01*
X719543Y431614D01*
X719495Y431518D01*
X719257Y431280D01*
X719066Y430945D01*
X718899Y430778D01*
X718803Y430731D01*
X718684Y430611D01*
X718636Y430516D01*
X718421Y430301D01*
X718326Y430253D01*
X718111Y429991D01*
X717848Y429776D01*
X717753Y429728D01*
X717586Y429561D01*
X717323Y429346D01*
X717228Y429298D01*
X716989Y429060D01*
X716559Y428821D01*
X716273Y428534D01*
X715939Y428343D01*
X715843Y428296D01*
X715604Y428057D01*
X715127Y427866D01*
X714936Y427675D01*
X714602Y427484D01*
X714363Y427389D01*
X714268Y427341D01*
X714172Y427245D01*
X714005Y427126D01*
X713742Y427054D01*
X713504Y426959D01*
X713217Y426768D01*
X712979Y426625D01*
X712597Y426529D01*
X712358Y426434D01*
X712262Y426338D01*
X712095Y426219D01*
X711594Y426100D01*
X711260Y425956D01*
X710926Y425718D01*
X710544Y425670D01*
X710066Y425527D01*
X709971Y425431D01*
X709875Y425383D01*
X709804Y425312D01*
X709493Y425240D01*
X709159Y425192D01*
X708968Y425145D01*
X708729Y425001D01*
X708395Y424810D01*
X707870Y424763D01*
X707560Y424643D01*
X707178Y424405D01*
X706987Y424357D01*
X706509Y424261D01*
X706319Y424214D01*
X705841Y423927D01*
X705483Y423856D01*
X705101Y423760D01*
X704504Y423450D01*
X704146Y423378D01*
X703716Y423187D01*
X703621Y423139D01*
X703502Y423020D01*
X703239Y422948D01*
X703048Y422901D01*
X702714Y422805D01*
X702475Y422567D01*
X702236Y422471D01*
X701854Y422376D01*
X701664Y422185D01*
X701329Y421994D01*
X701091Y421898D01*
X700995Y421850D01*
X700852Y421707D01*
X700422Y421469D01*
X700255Y421301D01*
X699993Y421087D01*
X699897Y421039D01*
X699563Y420705D01*
X699467Y420657D01*
X699014Y420203D01*
Y420156D01*
X698918Y419965D01*
X698823Y419869D01*
X698775Y419774D01*
X698704Y419750D01*
X698632Y419678D01*
X698512Y419511D01*
X698441Y419249D01*
X698250Y418962D01*
X698011Y418628D01*
X697963Y418007D01*
X697916Y417673D01*
X697725Y417243D01*
X697677Y416909D01*
X697916Y416145D01*
X697963Y415668D01*
X698011Y415334D01*
X698059Y415143D01*
X698154Y414904D01*
X698250Y414808D01*
X698393Y414570D01*
X698489Y414331D01*
X698656Y414164D01*
X698751Y414116D01*
X698990Y413782D01*
X699085Y413734D01*
X699420Y413400D01*
X699754Y413209D01*
X700040Y412923D01*
X700279Y412827D01*
X700470Y412779D01*
X700804Y412684D01*
X700900Y412588D01*
X701234Y412397D01*
X702046Y412302D01*
X702618Y412159D01*
X703096Y411968D01*
X704385Y411920D01*
X704528Y411872D01*
X707202Y411920D01*
X707536Y411968D01*
X707942Y412087D01*
X708395Y412254D01*
X708539Y412302D01*
X709159Y412350D01*
X709541Y412445D01*
X709637Y412541D01*
X709732Y412588D01*
X709827Y412684D01*
X710066Y412779D01*
X710257Y412827D01*
X710591Y412970D01*
X710687Y413018D01*
X710830Y413161D01*
X710926Y413209D01*
X711260Y413352D01*
X711475Y413567D01*
X711737Y413782D01*
X711833Y413830D01*
X712000Y413997D01*
X712262Y414212D01*
X712358Y414259D01*
X712453Y414355D01*
X712668Y414617D01*
X712716Y414713D01*
X713002Y414999D01*
X713193Y415334D01*
X713432Y415572D01*
X713719Y416097D01*
X713766Y416193D01*
X713862Y416288D01*
X713981Y416455D01*
X714100Y416766D01*
X714196Y417005D01*
X714292Y417100D01*
X714411Y417267D01*
X714506Y417506D01*
X714554Y417745D01*
X714626Y418007D01*
X714912Y418294D01*
X714960Y418389D01*
X715055Y418485D01*
X715103Y418580D01*
X715318Y418699D01*
X715939Y418652D01*
X716440Y418437D01*
X716631Y418389D01*
X717037Y418317D01*
X717657Y418270D01*
X717992Y418174D01*
X718254Y418055D01*
X718636Y417912D01*
X719185Y417840D01*
X719662Y417792D01*
X719854Y417745D01*
X720474Y417458D01*
X720952Y417410D01*
X721620Y417315D01*
X722336Y416981D01*
X722861Y416933D01*
X723076Y416861D01*
X723363Y416336D01*
X723410Y416097D01*
X723291Y415692D01*
X723172Y414999D01*
X723028Y414665D01*
X722790Y414235D01*
X722742Y413853D01*
X722646Y413615D01*
X722599Y413519D01*
X722456Y413376D01*
X722336Y413209D01*
X722264Y412803D01*
X722217Y412612D01*
X722121Y412517D01*
X722074Y412421D01*
X721954Y412302D01*
X721835Y411992D01*
X721739Y411753D01*
X721477Y411490D01*
X721357Y411180D01*
X721262Y410941D01*
X721119Y410798D01*
X720975Y410559D01*
X720880Y410321D01*
X720713Y410154D01*
X720617Y410106D01*
X720450Y409795D01*
X720212Y409557D01*
X719973Y409222D01*
X719925Y409127D01*
X719758Y408960D01*
X719543Y408697D01*
X719495Y408602D01*
X718326Y407432D01*
X718230Y407384D01*
X717992Y407146D01*
X717562Y406811D01*
X717466Y406764D01*
X717228Y406525D01*
X716893Y406334D01*
X716702Y406143D01*
X716177Y405857D01*
X716034Y405713D01*
X715700Y405522D01*
X715461Y405427D01*
X715199Y405164D01*
X714888Y405045D01*
X714554Y404949D01*
X714482Y404878D01*
X714196Y404687D01*
X713933Y404615D01*
X713742Y404567D01*
X713480Y404448D01*
X713098Y404210D01*
X712406Y404090D01*
X712167Y403995D01*
X712048Y403875D01*
X711809Y403780D01*
X711498Y403708D01*
X711021Y403660D01*
X710687Y403613D01*
X709851Y403350D01*
X709660Y403302D01*
X709422Y403255D01*
X708419Y403207D01*
X708109Y403231D01*
X707775Y403183D01*
X707440Y403040D01*
X703645Y403064D01*
X703335Y403135D01*
X703191Y403183D01*
X702046Y403231D01*
X701425Y403279D01*
X700947Y403326D01*
X700231Y403660D01*
X699467Y403708D01*
X699276Y403756D01*
X698560Y404090D01*
X698083Y404138D01*
X697701Y404233D01*
X697486Y404448D01*
X697176Y404567D01*
X696842Y404615D01*
X696603Y404711D01*
X696507Y404806D01*
X696078Y405045D01*
X695743Y405140D01*
X695648Y405236D01*
X695385Y405403D01*
X694932Y405570D01*
X694693Y405809D01*
X694454Y405952D01*
X694216Y406048D01*
X694120Y406095D01*
X693929Y406286D01*
X693595Y406477D01*
X693380Y406692D01*
X693118Y406907D01*
X693022Y406955D01*
X691423Y408554D01*
X691088Y408984D01*
X691041Y409079D01*
X690969Y409103D01*
X690898Y409175D01*
X690659Y409509D01*
X690611Y409604D01*
X690420Y409795D01*
X690301Y409963D01*
X690134Y410416D01*
X689943Y410607D01*
X689823Y410774D01*
X689776Y410965D01*
X689704Y411275D01*
X689441Y411538D01*
X689322Y411848D01*
X689274Y412183D01*
X689179Y412421D01*
X689012Y412684D01*
X688916Y412923D01*
X688845Y413615D01*
X688558Y414235D01*
X688510Y414426D01*
X688463Y414570D01*
X688415Y418914D01*
X688463Y419249D01*
X688510Y419439D01*
X688558Y420060D01*
X688821Y420657D01*
X688892Y421492D01*
X688988Y421827D01*
X689179Y422161D01*
X689250Y422328D01*
X689370Y422877D01*
X689465Y423116D01*
X689609Y423259D01*
X689728Y423426D01*
X689776Y423617D01*
X689847Y423927D01*
X690038Y424118D01*
X690229Y424452D01*
X690325Y424691D01*
X690396Y424763D01*
X690611Y425025D01*
X690754Y425407D01*
X690874Y425527D01*
X690969Y425574D01*
X691184Y425885D01*
X691232Y425980D01*
X691351Y426100D01*
X691447Y426147D01*
X691470Y426219D01*
X691566Y426314D01*
X691614Y426410D01*
X691685Y426482D01*
X691781Y426529D01*
X692043Y426792D01*
X692091Y426887D01*
X692163Y426959D01*
X692258Y427007D01*
X692664Y427412D01*
X692951Y427603D01*
X692998Y427699D01*
X693070Y427771D01*
X693404Y428009D01*
X693500Y428057D01*
X693738Y428296D01*
X694072Y428487D01*
X694168Y428534D01*
X694311Y428678D01*
X694836Y428964D01*
X695027Y429155D01*
X695266Y429298D01*
X695600Y429394D01*
X695720Y429513D01*
X696006Y429752D01*
X696316Y429823D01*
X696555Y429919D01*
X696770Y430134D01*
X697009Y430229D01*
X697319Y430301D01*
X697534Y430420D01*
X697796Y430635D01*
X698226Y430731D01*
X698417Y430778D01*
X698656Y430922D01*
X698918Y431089D01*
X699467Y431208D01*
X699730Y431327D01*
X700016Y431518D01*
X700279Y431590D01*
X700613Y431638D01*
X700828Y431709D01*
X701305Y431996D01*
X701854Y432067D01*
X702189Y432163D01*
X702571Y432402D01*
X702809Y432449D01*
X703000Y432497D01*
X703669Y432593D01*
X704194Y432927D01*
X704576Y432975D01*
X704910Y433022D01*
X705149Y433118D01*
X705244Y433166D01*
X705340Y433261D01*
X705507Y433380D01*
X706008Y433452D01*
X706199Y433500D01*
X706676Y433834D01*
X707297Y433929D01*
X707536Y434025D01*
X707822Y434311D01*
X708109Y434359D01*
X708491Y434454D01*
X708586Y434550D01*
X708920Y434789D01*
X709111Y434837D01*
X709422Y435004D01*
X709470Y435099D01*
X709708Y435242D01*
X710018Y435362D01*
X710210Y435553D01*
X710639Y435791D01*
X710806Y435958D01*
X710854Y436054D01*
X711021Y436173D01*
X711117Y436221D01*
X711236Y436340D01*
X711284Y436436D01*
X711498Y436651D01*
X711594Y436698D01*
X711904Y437152D01*
X711952Y437248D01*
X712024Y437271D01*
X712239Y437677D01*
X712334Y437916D01*
X712382Y438011D01*
X712477Y438107D01*
X712668Y438441D01*
X712716Y440494D01*
X712620Y441067D01*
X712430Y441353D01*
X712239Y441688D01*
X712143Y441926D01*
X711761Y442308D01*
X711713Y442404D01*
X711451Y442618D01*
X711355Y442666D01*
X711164Y442857D01*
X710735Y443096D01*
X710496Y443191D01*
X710257Y443430D01*
X710018Y443526D01*
X709637Y443621D01*
X708920Y443955D01*
X708300Y444003D01*
X708157Y444051D01*
X706963Y444099D01*
X706533Y444290D01*
X706390Y444337D01*
X706223Y444313D01*
X705459Y444266D01*
X705220Y444170D01*
X704982Y444122D01*
X704409Y444075D01*
X703884Y444027D01*
X703502Y443979D01*
X703191Y443908D01*
X702857Y443764D01*
X702785Y443693D01*
X702547Y443597D01*
X702284Y443526D01*
X702046Y443430D01*
X701950Y443382D01*
X701854Y443287D01*
X701329Y443000D01*
X700995Y442666D01*
X700900Y442618D01*
X700780Y442499D01*
X700732Y442404D01*
X700565Y442237D01*
X700470Y442189D01*
X700351Y442070D01*
X700303Y441974D01*
X700088Y441759D01*
X699993Y441711D01*
X699778Y441401D01*
X699730Y441306D01*
X699444Y441019D01*
X699396Y440828D01*
X699300Y440589D01*
X699252Y440494D01*
X699181Y440470D01*
X699109Y440398D01*
X698942Y440136D01*
X698871Y439826D01*
X698680Y439539D01*
X698560Y439372D01*
X698489Y439109D01*
X698393Y438727D01*
X698322Y438656D01*
X698226Y438608D01*
X698131Y438513D01*
X698035Y438465D01*
X697796Y438226D01*
X697510Y438178D01*
X697104Y438346D01*
X696865Y438441D01*
X696412Y438513D01*
X695934Y438560D01*
X695743Y438608D01*
X695338Y438775D01*
X695027Y438895D01*
X694884Y438942D01*
X694216Y438990D01*
X693834Y439086D01*
X693308Y439324D01*
X693165Y439372D01*
X692783Y439420D01*
X692306Y439468D01*
X692115Y439515D01*
X691709Y439730D01*
X691470Y439826D01*
X690826Y439897D01*
X690492Y439945D01*
X690110Y440040D01*
X689823Y440231D01*
X689728Y440279D01*
X689489Y440375D01*
X689370Y440494D01*
X689322Y441115D01*
X689370Y441592D01*
X689561Y442022D01*
X689680Y442189D01*
X689799Y442690D01*
X689847Y442881D01*
X689919Y443096D01*
X690157Y443478D01*
X690229Y443741D01*
X690325Y444122D01*
X690396Y444194D01*
X690611Y444457D01*
X690707Y444695D01*
X690754Y444886D01*
X690945Y445173D01*
X691136Y445507D01*
X691256Y445770D01*
X691423Y445889D01*
X691590Y446152D01*
X691661Y446414D01*
X691900Y446653D01*
X692139Y447082D01*
X692306Y447202D01*
X692521Y447464D01*
X692569Y447560D01*
X692855Y447846D01*
X692903Y447942D01*
X693118Y448157D01*
X693213Y448204D01*
X693285Y448276D01*
X693332Y448372D01*
X693595Y448634D01*
X693690Y448682D01*
X693762Y448754D01*
X693810Y448849D01*
X694025Y449064D01*
X694120Y449112D01*
X694287Y449279D01*
X694550Y449493D01*
X694645Y449541D01*
X694765Y449661D01*
X694812Y449756D01*
X694884Y449828D01*
X695218Y450019D01*
X695314Y450066D01*
X695553Y450305D01*
X695720Y450377D01*
X696030Y450496D01*
X696102Y450568D01*
X696149Y450663D01*
X696364Y450830D01*
X696555Y450878D01*
X696794Y450974D01*
X696889Y451021D01*
X697032Y451165D01*
X697271Y451308D01*
X697653Y451403D01*
X697868Y451523D01*
X698131Y451737D01*
X698417Y451785D01*
X698608Y451833D01*
X698871Y451904D01*
X699252Y452143D01*
X699515Y452215D01*
X700088Y452310D01*
X700518Y452501D01*
X700756Y452597D01*
X700900Y452645D01*
X701950Y452692D01*
X702284Y452836D01*
X702571Y452883D01*
X702905Y452931D01*
X703144Y453026D01*
X703287Y453074D01*
X706772Y453122D01*
X708252Y453074D01*
D02*
G37*
G36*
X667694Y438632D02*
X667886Y438584D01*
X668124Y438536D01*
X668960Y438465D01*
X669580Y438417D01*
X669771Y438369D01*
X670273Y438107D01*
X670631Y438035D01*
X671108Y437988D01*
X671347Y437892D01*
X671442Y437797D01*
X671705Y437629D01*
X672111Y437558D01*
X672349Y437462D01*
X672445Y437415D01*
X672612Y437248D01*
X673209Y437033D01*
X673400Y436842D01*
X673639Y436698D01*
X674044Y436531D01*
X674092Y436436D01*
X674259Y436269D01*
X674593Y436078D01*
X674641D01*
X674761Y435958D01*
X675023Y435744D01*
X675118Y435696D01*
X675310Y435505D01*
X675405Y435457D01*
X675644Y435218D01*
X675739Y435171D01*
X675906Y435004D01*
X675954Y434908D01*
X676026Y434884D01*
X676169Y434741D01*
X676479Y434287D01*
X676527Y434192D01*
X676789Y434025D01*
X676933Y434073D01*
X677004Y434144D01*
X677052Y435529D01*
X677100Y435720D01*
X677195Y435958D01*
X677243Y437152D01*
X677291Y437343D01*
X677386Y437582D01*
X677434Y437773D01*
X677649Y437988D01*
X684667Y438035D01*
X685001Y437940D01*
X685073Y437868D01*
X685359Y437343D01*
X685335Y436794D01*
X685359Y390746D01*
X685312Y390412D01*
X685216Y390078D01*
X685145Y390006D01*
X684810Y389767D01*
X684715Y389720D01*
X684595Y389600D01*
X684405Y389552D01*
X677553Y389576D01*
X677315Y389672D01*
X677028Y389863D01*
X676933Y389911D01*
X676622Y390316D01*
X676575Y406262D01*
X676622Y407026D01*
X676575Y407360D01*
X676455Y407432D01*
X676121Y407337D01*
X675954Y407122D01*
X675906Y407026D01*
X675835Y406955D01*
X675739Y406907D01*
X675572Y406740D01*
X675524Y406644D01*
X675262Y406429D01*
X675166Y406382D01*
X674928Y406143D01*
X674402Y405857D01*
X674116Y405570D01*
X673782Y405379D01*
X673686Y405331D01*
X673591Y405236D01*
X673424Y405117D01*
X672970Y404949D01*
X672827Y404806D01*
X672564Y404639D01*
X672302Y404567D01*
X671872Y404377D01*
X671609Y404210D01*
X671299Y404138D01*
X670965Y404090D01*
X670631Y403947D01*
X670535Y403899D01*
X670464Y403828D01*
X670225Y403732D01*
X669342Y403660D01*
X669151Y403613D01*
X668888Y403493D01*
X668578Y403422D01*
X668435Y403374D01*
X667432Y403279D01*
X667289Y403231D01*
X664734Y403255D01*
X664448Y403302D01*
X663684Y403350D01*
X663445Y403446D01*
X662682Y403637D01*
X661894Y403708D01*
X661512Y403804D01*
X660891Y404090D01*
X660509Y404138D01*
X660127Y404233D01*
X659817Y404448D01*
X659578Y404544D01*
X659268Y404615D01*
X659029Y404711D01*
X658958Y404782D01*
X658576Y405021D01*
X658265Y405093D01*
X657788Y405427D01*
X657692Y405475D01*
X657454Y405570D01*
X657310Y405713D01*
X656976Y405952D01*
X656881Y406000D01*
X656594Y406286D01*
X656260Y406477D01*
X656165Y406525D01*
X655974Y406716D01*
X655639Y406907D01*
X655472Y407074D01*
X655425Y407169D01*
X655305Y407289D01*
X655210Y407337D01*
X654995Y407551D01*
X654947Y407647D01*
X654685Y407862D01*
X654470Y408124D01*
X654422Y408220D01*
X654255Y408387D01*
X654040Y408650D01*
X653992Y408745D01*
X653754Y408984D01*
X653515Y409413D01*
X653276Y409652D01*
X652990Y410177D01*
X652847Y410321D01*
X652727Y410488D01*
X652560Y410941D01*
X652417Y411084D01*
X652250Y411347D01*
X652178Y411657D01*
X652083Y411896D01*
X652011Y411968D01*
X651796Y412230D01*
X651749Y412517D01*
X651653Y412851D01*
X651557Y412946D01*
X651438Y413114D01*
X651343Y413352D01*
X651271Y413901D01*
X651080Y414331D01*
X650889Y414665D01*
X650841Y415143D01*
X650794Y415477D01*
X650746Y415668D01*
X650674Y415930D01*
X650531Y416312D01*
X650483Y416503D01*
X650435Y416742D01*
X650388Y417124D01*
X650340Y418270D01*
X650292Y418556D01*
X650245Y418795D01*
X650197Y419081D01*
X650221Y422018D01*
X650173Y423068D01*
X650316Y423402D01*
X650364Y424452D01*
X650412Y425073D01*
X650507Y425646D01*
X650746Y426171D01*
X650841Y426792D01*
X650889Y427269D01*
X650985Y427603D01*
X651176Y427890D01*
X651247Y428057D01*
X651319Y428606D01*
X651414Y428845D01*
X651510Y428940D01*
X651677Y429203D01*
X651725Y429394D01*
X651772Y429632D01*
X651844Y429943D01*
X651987Y430086D01*
X652106Y430253D01*
X652202Y430492D01*
X652274Y430755D01*
X652393Y430874D01*
X652584Y431160D01*
X652703Y431471D01*
X652942Y431709D01*
X653085Y431948D01*
X653181Y432282D01*
X653348Y432449D01*
X653563Y432712D01*
X653610Y432807D01*
X653897Y433094D01*
X654040Y433333D01*
X654374Y433667D01*
X654422Y433762D01*
X654541Y433882D01*
X654637Y433929D01*
X654804Y434096D01*
X654852Y434192D01*
X655496Y434837D01*
X655592Y434884D01*
X655759Y435051D01*
X655807Y435147D01*
X655974Y435266D01*
X656069Y435314D01*
X656356Y435600D01*
X656690Y435791D01*
X656809Y435911D01*
X656857Y436006D01*
X657167Y436221D01*
X657358Y436269D01*
X657502Y436412D01*
X657931Y436651D01*
X658194Y436770D01*
X658456Y436985D01*
X658695Y437080D01*
X658886Y437128D01*
X659125Y437224D01*
X659340Y437438D01*
X659578Y437534D01*
X659865Y437582D01*
X660175Y437653D01*
X660700Y437988D01*
X661273Y438035D01*
X661464Y438083D01*
X661798Y438178D01*
X662013Y438298D01*
X662252Y438393D01*
X662538Y438441D01*
X663708Y438513D01*
X664042Y438560D01*
X664281Y438656D01*
X667694Y438632D01*
D02*
G37*
%LPC*%
G36*
X628951Y430731D02*
X628474Y430683D01*
X627973Y430468D01*
X627662Y430349D01*
X627519Y430301D01*
X627042Y430253D01*
X626660Y430158D01*
X626469Y429967D01*
X626302Y429847D01*
X626111Y429800D01*
X625800Y429728D01*
X625681Y429609D01*
X625418Y429394D01*
X625323Y429346D01*
X624989Y429203D01*
X624869Y429084D01*
X624607Y428869D01*
X624511Y428821D01*
X624344Y428654D01*
X624081Y428439D01*
X623986Y428391D01*
X623867Y428272D01*
X623723Y428033D01*
X623437Y427747D01*
X623294Y427508D01*
X623055Y427269D01*
X623007Y427174D01*
X622936Y427102D01*
X622816Y426792D01*
X622482Y426458D01*
X622387Y426219D01*
X622291Y425885D01*
X622148Y425742D01*
X621981Y425479D01*
X621933Y425288D01*
X621885Y425001D01*
X621838Y424810D01*
X621814Y424787D01*
X621527Y424214D01*
X621480Y423641D01*
X621432Y423498D01*
X621384Y422686D01*
X621265Y422423D01*
X621169Y422185D01*
X621193Y419869D01*
X621336Y419296D01*
X621384Y418962D01*
X621432Y418819D01*
X621480Y418007D01*
X621575Y417673D01*
X621861Y417243D01*
X621909Y416814D01*
X622005Y416479D01*
X622148Y416336D01*
X622315Y416074D01*
X622387Y415811D01*
X622482Y415572D01*
X622697Y415357D01*
X622983Y414785D01*
X623079Y414737D01*
X623150Y414665D01*
X623341Y414331D01*
X623509Y414164D01*
X623604Y414116D01*
X623676Y414044D01*
X623723Y413949D01*
X623938Y413734D01*
X624034Y413686D01*
X624105Y413615D01*
X624153Y413519D01*
X624249Y413424D01*
X624511Y413209D01*
X624607Y413161D01*
X624631Y413090D01*
X624750Y412970D01*
X625180Y412732D01*
X625323Y412588D01*
X625490Y412469D01*
X625729Y412374D01*
X625991Y412302D01*
X626111Y412183D01*
X626373Y411968D01*
X626660Y411920D01*
X626851Y411872D01*
X627471Y411586D01*
X627710Y411490D01*
X628426Y411442D01*
X628569Y411395D01*
X629667Y411347D01*
X630336Y411251D01*
X630479Y411299D01*
X631386Y411347D01*
X631529Y411395D01*
X632198Y411442D01*
X632818Y411490D01*
X633344Y411824D01*
X633582Y411872D01*
X633773Y411920D01*
X634108Y411968D01*
X634299Y412159D01*
X634633Y412350D01*
X634967Y412493D01*
X635110Y412636D01*
X635540Y412875D01*
X635755Y413090D01*
X636017Y413304D01*
X636113Y413352D01*
X636184Y413424D01*
X636232Y413519D01*
X636304Y413591D01*
X636399Y413639D01*
X636566Y413806D01*
X636614Y413901D01*
X636996Y414283D01*
X637139Y414522D01*
X637211Y414594D01*
X637306Y414641D01*
X637378Y414713D01*
X637617Y415143D01*
X637855Y415381D01*
X638094Y416050D01*
X638166Y416121D01*
X638404Y416503D01*
X638476Y416814D01*
X638524Y417005D01*
X638619Y417243D01*
X638667Y417339D01*
X638739Y417410D01*
X638834Y417649D01*
X638882Y417840D01*
X638953Y418628D01*
X639049Y419010D01*
X639144Y419249D01*
X639192Y419917D01*
X639288Y420156D01*
X639335Y420872D01*
X639383Y421015D01*
X639335Y421445D01*
X639240Y422018D01*
X639192Y422209D01*
X639144Y422686D01*
X639073Y422901D01*
X638977Y423283D01*
X638906Y424023D01*
X638858Y424357D01*
X638739Y424619D01*
X638548Y424906D01*
X638476Y425168D01*
X638428Y425503D01*
X638333Y425742D01*
X638190Y425885D01*
X638070Y426052D01*
X637903Y426505D01*
X637712Y426696D01*
X637521Y427030D01*
X637473Y427221D01*
X637187Y427508D01*
X637044Y427747D01*
X636829Y427962D01*
X636733Y428009D01*
X636662Y428081D01*
X636614Y428176D01*
X636399Y428391D01*
X636304Y428439D01*
X636232Y428511D01*
X636184Y428606D01*
X636017Y428773D01*
X635683Y428964D01*
X635492Y429155D01*
X634967Y429441D01*
X634871Y429489D01*
X634824Y429585D01*
X634656Y429704D01*
X634346Y429823D01*
X634012Y429919D01*
X633845Y430086D01*
X633606Y430182D01*
X633296Y430253D01*
X632962Y430301D01*
X632723Y430396D01*
X632389Y430492D01*
X631959Y430683D01*
X628951Y430731D01*
D02*
G37*
G36*
X556669Y431017D02*
X556430Y430922D01*
X556263Y430850D01*
X556072Y430802D01*
X555141Y430731D01*
X554950Y430683D01*
X554616Y430635D01*
X554401Y430420D01*
X554091Y430301D01*
X553709Y430205D01*
X553589Y430086D01*
X553542Y429991D01*
X553374Y429871D01*
X552993Y429728D01*
X552826Y429561D01*
X552563Y429346D01*
X552467Y429298D01*
X552300Y429131D01*
X552253Y429036D01*
X551966Y428749D01*
X551823Y428511D01*
X551417Y427962D01*
X551298Y427651D01*
X551107Y427460D01*
X550916Y427126D01*
X550820Y426744D01*
X550486Y426267D01*
X550438Y425885D01*
X550391Y425550D01*
X550343Y425359D01*
X550247Y425264D01*
X550200Y424930D01*
X550319Y424810D01*
X564021Y424763D01*
X564164Y424715D01*
X564403Y424763D01*
X564594Y424810D01*
X564666Y424882D01*
X564713Y425168D01*
X564666Y425359D01*
X564570Y425694D01*
X564332Y425932D01*
Y425980D01*
X564308Y426004D01*
X564188Y426505D01*
X564093Y426744D01*
X563997Y426840D01*
X563663Y427460D01*
X563615Y427556D01*
X563472Y427651D01*
X563186Y428176D01*
X563018Y428343D01*
X562923Y428391D01*
X562851Y428463D01*
X562804Y428558D01*
X562589Y428773D01*
X562422Y428893D01*
X562374Y428988D01*
X562159Y429203D01*
X561920Y429346D01*
X561682Y429585D01*
X561348Y429776D01*
X561109Y429871D01*
X560846Y430134D01*
X560607Y430229D01*
X560202Y430301D01*
X559939Y430420D01*
X559557Y430659D01*
X559199Y430731D01*
X558435Y430778D01*
X557958Y430826D01*
X557767Y430874D01*
X557528Y430969D01*
X556669Y431017D01*
D02*
G37*
G36*
X383888D02*
X383458Y430826D01*
X383028Y430778D01*
X382074Y430683D01*
X381811Y430611D01*
X381548Y430396D01*
X381310Y430301D01*
X380928Y430205D01*
X380593Y429871D01*
X380211Y429728D01*
X379973Y429489D01*
X379639Y429251D01*
X379424Y428988D01*
X379376Y428893D01*
X379257Y428773D01*
X379042Y428511D01*
X378994Y428415D01*
X378875Y428296D01*
X378564Y427842D01*
X378517Y427651D01*
X378278Y427412D01*
X378135Y427174D01*
X378039Y426792D01*
X377968Y426577D01*
X377681Y426100D01*
X377609Y425503D01*
X377514Y425264D01*
X377466Y424930D01*
X377538Y424858D01*
X377705Y424787D01*
X391407Y424739D01*
X391622Y424763D01*
X391813Y424810D01*
X391885Y424882D01*
X391932Y425168D01*
X391837Y425503D01*
X391789Y425694D01*
X391550Y426028D01*
X391407Y426410D01*
Y426458D01*
X391312Y426744D01*
X391240Y426816D01*
X391049Y427102D01*
X390930Y427412D01*
X390691Y427651D01*
X390405Y428176D01*
X390238Y428343D01*
X390023Y428606D01*
X389975Y428702D01*
X389903Y428773D01*
X389664Y428916D01*
X389497Y429084D01*
X389235Y429298D01*
X389139Y429346D01*
X389068Y429418D01*
X388805Y429632D01*
X388567Y429776D01*
X388328Y429871D01*
X388137Y430062D01*
X387970Y430182D01*
X387468Y430301D01*
X387039Y430492D01*
X386776Y430659D01*
X386418Y430731D01*
X385654Y430778D01*
X385177Y430826D01*
X384986Y430874D01*
X384747Y430969D01*
X383888Y431017D01*
D02*
G37*
G36*
X666954Y430731D02*
X666477Y430683D01*
X665856Y430492D01*
X665522Y430396D01*
X664949Y430253D01*
X664615Y430158D01*
X664520Y430062D01*
X664090Y429823D01*
X663899Y429776D01*
X663660Y429680D01*
X663517Y429537D01*
X663183Y429346D01*
X662944Y429251D01*
X662705Y429012D01*
X662467Y428869D01*
X662300Y428702D01*
X662252Y428606D01*
X662132Y428487D01*
X662037Y428439D01*
X661870Y428272D01*
X661822Y428176D01*
X661655Y428009D01*
X661560Y427962D01*
X661440Y427842D01*
X661297Y427603D01*
X661058Y427365D01*
X660939Y427198D01*
X660820Y426887D01*
X660581Y426649D01*
X660390Y426314D01*
X660247Y425980D01*
X660199Y425885D01*
X660080Y425765D01*
X659960Y425455D01*
X659912Y425121D01*
X659769Y424787D01*
X659578Y424452D01*
X659483Y423832D01*
X659387Y423163D01*
X659220Y422853D01*
X659173Y422614D01*
X659196Y422352D01*
X659149Y422161D01*
X659101Y422018D01*
X659053Y420394D01*
X659149Y419726D01*
X659244Y419344D01*
X659316Y419081D01*
X659411Y418699D01*
X659459Y418461D01*
X659530Y417673D01*
X659722Y417243D01*
X659889Y416981D01*
X659960Y416623D01*
X660008Y416432D01*
X660104Y416193D01*
X660318Y415978D01*
X660438Y415668D01*
X660533Y415429D01*
X660581Y415334D01*
X660772Y415143D01*
X660963Y414808D01*
X661011Y414713D01*
X661082Y414689D01*
X661154Y414617D01*
X661393Y414283D01*
X661440Y414188D01*
X661727Y413901D01*
X661774Y413806D01*
X662132Y413448D01*
X662467Y413257D01*
X662801Y412923D01*
X663135Y412732D01*
X663207Y412660D01*
X663469Y412445D01*
X663565Y412397D01*
X663756Y412350D01*
X663995Y412254D01*
X664209Y412039D01*
X664448Y411944D01*
X664639Y411896D01*
X665093Y411824D01*
X665618Y411490D01*
X666334Y411442D01*
X666477Y411395D01*
X667480Y411347D01*
X667814Y411299D01*
X667957Y411251D01*
X668554Y411323D01*
X669557Y411371D01*
X669843Y411419D01*
X670511Y411466D01*
X670893Y411562D01*
X671180Y411753D01*
X671419Y411848D01*
X671824Y411920D01*
X672063Y412015D01*
X672159Y412063D01*
X672326Y412230D01*
X672636Y412350D01*
X672875Y412445D01*
X672970Y412493D01*
X673113Y412636D01*
X673639Y412923D01*
X673662Y412994D01*
X673829Y413161D01*
X674068Y413304D01*
X674140Y413376D01*
X674188Y413472D01*
X674402Y413686D01*
X674498Y413734D01*
X674665Y413901D01*
X674713Y413997D01*
X674880Y414164D01*
X675095Y414426D01*
X675142Y414522D01*
X675357Y414737D01*
X675453Y414785D01*
X675572Y415047D01*
X675668Y415286D01*
X675930Y415548D01*
X676145Y416145D01*
X676288Y416288D01*
X676455Y416551D01*
X676527Y416957D01*
X676575Y417291D01*
X676885Y417888D01*
X676933Y418079D01*
X677004Y419105D01*
X677052Y419439D01*
X677195Y419774D01*
X677243Y421779D01*
X677195Y421970D01*
X677124Y422232D01*
X677076Y422471D01*
X677028Y422853D01*
X676909Y424071D01*
X676575Y424787D01*
X676527Y425073D01*
X676479Y425264D01*
X676384Y425598D01*
X676145Y425837D01*
X676049Y426076D01*
X675954Y426410D01*
X675811Y426553D01*
X675572Y426887D01*
X675524Y427078D01*
X675429Y427174D01*
X675381Y427269D01*
X675238Y427412D01*
X675047Y427747D01*
X674975Y427818D01*
X674880Y427866D01*
X674617Y428129D01*
X674569Y428224D01*
X674355Y428391D01*
X674116Y428678D01*
X673782Y428916D01*
X673686Y428964D01*
X673519Y429131D01*
X673137Y429370D01*
X673113Y429394D01*
X673018D01*
X672827Y429585D01*
X672493Y429776D01*
X672111Y429871D01*
X671967Y430014D01*
X671633Y430253D01*
X671156Y430301D01*
X670678Y430444D01*
X670344Y430587D01*
X670106Y430683D01*
X666954Y430731D01*
D02*
G37*
%LPD*%
D10*
X690999Y10000D02*
G03*
X690999Y10000I-1000J0D01*
G01*
X527004Y707704D02*
Y723954D01*
X553004Y707704D02*
Y723954D01*
X548504D02*
X553004D01*
X527004D02*
X531504D01*
X566882D02*
X571382D01*
X588382D02*
X592882D01*
Y707704D02*
Y723954D01*
X566882Y707704D02*
Y723954D01*
X607014D02*
X611514D01*
X628514D02*
X633014D01*
Y707704D02*
Y723954D01*
X607014Y707704D02*
Y723954D01*
X646892Y707704D02*
Y723954D01*
X672892Y707704D02*
Y723954D01*
X668392D02*
X672892D01*
X646892D02*
X651392D01*
D13*
X552790Y318326D02*
X562787D01*
Y303331D01*
X552790D01*
X562787Y310828D02*
X557788D01*
X547792Y318326D02*
X537795Y303331D01*
Y318326D02*
X547792Y303331D01*
X532797D02*
Y318326D01*
X525299D01*
X522800Y315827D01*
Y310828D01*
X525299Y308329D01*
X532797D01*
X502806Y318326D02*
Y308329D01*
X497808Y303331D01*
X492809Y308329D01*
Y318326D01*
X487811Y303331D02*
X482813D01*
X485312D01*
Y318326D01*
X487811Y315827D01*
X475315Y303331D02*
Y305830D01*
X472816D01*
Y303331D01*
X475315D01*
X462819Y315827D02*
X460320Y318326D01*
X455322D01*
X452822Y315827D01*
Y305830D01*
X455322Y303331D01*
X460320D01*
X462819Y305830D01*
Y315827D01*
D15*
X756539Y160389D02*
G03*
X756539Y160389I-1055J0D01*
G01*
X746134Y10597D02*
X730899D01*
X738516D01*
Y20754D01*
X746134D01*
X730899D01*
X746134Y35989D02*
Y25832D01*
X738516D01*
X741056Y30910D01*
Y33450D01*
X738516Y35989D01*
X733438D01*
X730899Y33450D01*
Y28371D01*
X733438Y25832D01*
D16*
X520805Y11200D02*
G03*
X520805Y11200I-1000J0D01*
G01*
X266194Y12115D02*
G03*
X266194Y12115I-3810J0D01*
G01*
D18*
X834000Y800000D02*
G03*
X834000Y800000I-34000J0D01*
G01*
Y50000D02*
G03*
X834000Y50000I-34000J0D01*
G01*
X84000D02*
G03*
X84000Y50000I-34000J0D01*
G01*
Y800000D02*
G03*
X84000Y800000I-34000J0D01*
G01*
X185700Y30200D02*
X191800D01*
X528200D02*
X534300D01*
X185700Y89800D02*
X191800D01*
X528200D02*
X534300D01*
X169500Y44400D02*
Y75600D01*
X550500Y44400D02*
Y75600D01*
X720499Y44400D02*
Y75600D01*
X579499Y44400D02*
Y75600D01*
X698199Y89800D02*
X704299D01*
X595699D02*
X601799D01*
X698199Y30200D02*
X704299D01*
X595699D02*
X601799D01*
D21*
X784641Y359127D02*
X838492D01*
X784641Y487908D02*
X838492D01*
Y359127D02*
Y487908D01*
X784641Y359127D02*
Y487908D01*
X822780Y371724D02*
Y377722D01*
X818782Y371724D01*
Y377722D01*
X816782Y371724D02*
Y377722D01*
X813783D01*
X812784Y376722D01*
Y374723D01*
X813783Y373723D01*
X816782D01*
X814783D02*
X812784Y371724D01*
X806786Y376722D02*
X807785Y377722D01*
X809785D01*
X810784Y376722D01*
Y375723D01*
X809785Y374723D01*
X807785D01*
X806786Y373723D01*
Y372724D01*
X807785Y371724D01*
X809785D01*
X810784Y372724D01*
X804786Y377722D02*
X800788D01*
X802787D01*
Y371724D01*
X821307Y426604D02*
X822307Y427604D01*
X824306D01*
X825306Y426604D01*
Y425605D01*
X824306Y424605D01*
X822307D01*
X821307Y423605D01*
Y422606D01*
X822307Y421606D01*
X824306D01*
X825306Y422606D01*
X819308Y427604D02*
Y421606D01*
X817309Y423605D01*
X815309Y421606D01*
Y427604D01*
X809311Y426604D02*
X810311Y427604D01*
X812310D01*
X813310Y426604D01*
Y422606D01*
X812310Y421606D01*
X810311D01*
X809311Y422606D01*
X807312Y427604D02*
Y421606D01*
X803313D01*
X801314Y427604D02*
Y421606D01*
Y423605D01*
X797315Y427604D01*
X800314Y424605D01*
X797315Y421606D01*
X820578Y478277D02*
Y474278D01*
X818579Y472279D01*
X816579Y474278D01*
Y478277D01*
X810581Y477277D02*
X811581Y478277D01*
X813580D01*
X814580Y477277D01*
Y473279D01*
X813580Y472279D01*
X811581D01*
X810581Y473279D01*
X804583Y477277D02*
X805583Y478277D01*
X807582D01*
X808582Y477277D01*
Y473279D01*
X807582Y472279D01*
X805583D01*
X804583Y473279D01*
X822297Y451941D02*
X823297Y452940D01*
X825296D01*
X826296Y451941D01*
Y450941D01*
X825296Y449941D01*
X823297D01*
X822297Y448942D01*
Y447942D01*
X823297Y446942D01*
X825296D01*
X826296Y447942D01*
X820297Y452940D02*
Y446942D01*
X818298Y448942D01*
X816299Y446942D01*
Y452940D01*
X814299D02*
Y446942D01*
X811301D01*
X810301Y447942D01*
Y451941D01*
X811301Y452940D01*
X814299D01*
X808301D02*
X806302D01*
X807302D01*
Y446942D01*
X808301D01*
X806302D01*
X800304Y452940D02*
X802303D01*
X803303Y451941D01*
Y447942D01*
X802303Y446942D01*
X800304D01*
X799304Y447942D01*
Y451941D01*
X800304Y452940D01*
X816545Y401268D02*
X817544Y402267D01*
X819544D01*
X820543Y401268D01*
Y397269D01*
X819544Y396269D01*
X817544D01*
X816545Y397269D01*
Y399268D01*
X818544D01*
X814545Y396269D02*
Y402267D01*
X810547Y396269D01*
Y402267D01*
X808547D02*
Y396269D01*
X805548D01*
X804549Y397269D01*
Y401268D01*
X805548Y402267D01*
X808547D01*
D22*
X28329Y191176D02*
X52205D01*
X28329Y233848D02*
X52205D01*
Y191176D02*
Y233848D01*
X28329Y191176D02*
Y233848D01*
X28194Y110481D02*
X52070D01*
X28194Y153153D02*
X52070D01*
Y110481D02*
Y153153D01*
X28194Y110481D02*
Y153153D01*
X177345Y50734D02*
X189153Y38926D01*
X530762D02*
X542570Y50734D01*
X655814Y672482D02*
Y674610D01*
Y688354D02*
Y690482D01*
X685814Y688354D02*
Y690482D01*
Y672482D02*
Y674610D01*
X655814Y672482D02*
X685814D01*
X655814Y690482D02*
X685814D01*
X608993D02*
X638993D01*
X608993Y672482D02*
X638993D01*
Y674610D01*
Y688354D02*
Y690482D01*
X608993Y688354D02*
Y690482D01*
Y672482D02*
Y674610D01*
X515352Y690482D02*
X545352D01*
X515352Y672482D02*
X545352D01*
Y674610D01*
Y688354D02*
Y690482D01*
X515352Y688354D02*
Y690482D01*
Y672482D02*
Y674610D01*
X562173Y672482D02*
Y674610D01*
Y688354D02*
Y690482D01*
X592173Y688354D02*
Y690482D01*
Y672482D02*
Y674610D01*
X562173Y672482D02*
X592173D01*
X562173Y690482D02*
X592173D01*
X279146Y412751D02*
Y420371D01*
Y412751D02*
X289306D01*
Y420371D01*
X279146D02*
X289306D01*
X277876Y402591D02*
Y430531D01*
Y402591D02*
X290576D01*
Y407671D01*
Y430531D01*
X277876D02*
X290576D01*
X263567D02*
X276267D01*
Y407671D02*
Y430531D01*
Y402591D02*
Y407671D01*
X263567Y402591D02*
X276267D01*
X263567D02*
Y430531D01*
X264837Y420371D02*
X274997D01*
Y412751D02*
Y420371D01*
X264837Y412751D02*
X274997D01*
X264837D02*
Y420371D01*
X249259Y430531D02*
X261959D01*
Y407671D02*
Y430531D01*
Y402591D02*
Y407671D01*
X249259Y402591D02*
X261959D01*
X249259D02*
Y430531D01*
X250529Y420371D02*
X260689D01*
Y412751D02*
Y420371D01*
X250529Y412751D02*
X260689D01*
X250529D02*
Y420371D01*
X234950Y430531D02*
X247650D01*
Y407671D02*
Y430531D01*
Y402591D02*
Y407671D01*
X234950Y402591D02*
X247650D01*
X234950D02*
Y430531D01*
X236220Y420371D02*
X246380D01*
Y412751D02*
Y420371D01*
X236220Y412751D02*
X246380D01*
X236220D02*
Y420371D01*
D23*
X729966Y158509D02*
X750032D01*
X729966Y125489D02*
X750032D01*
D24*
X284734Y343662D02*
X286004D01*
X284734D02*
Y351282D01*
X286004D01*
Y343662D02*
Y351282D01*
Y343662D02*
X287274D01*
Y351282D01*
X286004D02*
X293624D01*
Y343662D02*
Y351282D01*
X278384Y343662D02*
X293624D01*
X278384D02*
Y351282D01*
X286004D01*
X307086Y343661D02*
X314706D01*
Y351282D01*
X299466D02*
X314706D01*
X299466Y343661D02*
Y351282D01*
Y343661D02*
X307086D01*
X305816D02*
Y351282D01*
X307086D01*
Y343661D02*
Y351282D01*
Y343661D02*
X308356D01*
Y351282D01*
X307086D02*
X308356D01*
X284734Y358140D02*
X286004D01*
X284734D02*
Y365760D01*
X286004D01*
Y358140D02*
Y365760D01*
Y358140D02*
X287274D01*
Y365760D01*
X286004D02*
X293624D01*
Y358140D02*
Y365760D01*
X278384Y358140D02*
X293624D01*
X278384D02*
Y365760D01*
X286004D01*
X307086Y358139D02*
X314706D01*
Y365760D01*
X299466D02*
X314706D01*
X299466Y358139D02*
Y365760D01*
Y358139D02*
X307086D01*
X305816D02*
Y365760D01*
X307086D01*
Y358139D02*
Y365760D01*
Y358139D02*
X308356D01*
Y365760D01*
X307086D02*
X308356D01*
X239994Y376826D02*
Y378096D01*
X247614D01*
Y376826D02*
Y378096D01*
X239994Y376826D02*
X247614D01*
X239994Y375556D02*
Y376826D01*
Y375556D02*
X247614D01*
Y369206D02*
Y376826D01*
X239994Y369206D02*
X247614D01*
X239994D02*
Y384446D01*
X247614D01*
Y376826D02*
Y384446D01*
X252626Y382524D02*
Y383794D01*
X260246D01*
Y382524D02*
Y383794D01*
X252626Y382524D02*
X260246D01*
X252626Y381254D02*
Y382524D01*
Y381254D02*
X260246D01*
Y374904D02*
Y382524D01*
X252626Y374904D02*
X260246D01*
X252626D02*
Y390144D01*
X260246D01*
Y382524D02*
Y390144D01*
X277889Y392069D02*
Y393339D01*
X285509D01*
Y392069D02*
Y393339D01*
X277889Y392069D02*
X285509D01*
X277889Y390799D02*
Y392069D01*
Y390799D02*
X285509D01*
Y384449D02*
Y392069D01*
X277889Y384449D02*
X285509D01*
X277889D02*
Y399689D01*
X285509D01*
Y392069D02*
Y399689D01*
X265257Y388620D02*
Y389890D01*
X272877D01*
Y388620D02*
Y389890D01*
X265257Y388620D02*
X272877D01*
X265257Y387350D02*
Y388620D01*
Y387350D02*
X272877D01*
Y381000D02*
Y388620D01*
X265257Y381000D02*
X272877D01*
X265257D02*
Y396240D01*
X272877D01*
Y388620D02*
Y396240D01*
X262954Y438761D02*
X264224D01*
X262954D02*
Y446381D01*
X264224D01*
Y438761D02*
Y446381D01*
Y438761D02*
X265494D01*
Y446381D01*
X264224D02*
X271844D01*
Y438761D02*
Y446381D01*
X256604Y438761D02*
X271844D01*
X256604D02*
Y446381D01*
X264224D01*
X245095Y438761D02*
X246365D01*
X245095D02*
Y446381D01*
X246365D01*
Y438761D02*
Y446381D01*
Y438761D02*
X247635D01*
Y446381D01*
X246365D02*
X253985D01*
Y438761D02*
Y446381D01*
X238745Y438761D02*
X253985D01*
X238745D02*
Y446381D01*
X246365D01*
D25*
X43101Y229495D02*
X43934Y230328D01*
X45600D01*
X46433Y229495D01*
Y228662D01*
X45600Y227829D01*
X43934D01*
X43101Y226996D01*
Y226163D01*
X43934Y225329D01*
X45600D01*
X46433Y226163D01*
X38102Y229495D02*
X38935Y230328D01*
X40601D01*
X41434Y229495D01*
Y226163D01*
X40601Y225329D01*
X38935D01*
X38102Y226163D01*
X36436Y230328D02*
Y225329D01*
X33104D01*
X43101Y219356D02*
X43934Y220189D01*
X45600D01*
X46433Y219356D01*
Y218523D01*
X45600Y217689D01*
X43934D01*
X43101Y216856D01*
Y216023D01*
X43934Y215190D01*
X45600D01*
X46433Y216023D01*
X41434Y220189D02*
Y215190D01*
X38935D01*
X38102Y216023D01*
Y219356D01*
X38935Y220189D01*
X41434D01*
X36436Y215190D02*
Y218523D01*
X34770Y220189D01*
X33104Y218523D01*
Y215190D01*
Y217689D01*
X36436D01*
X43101Y199077D02*
X43934Y199910D01*
X45600D01*
X46433Y199077D01*
Y195745D01*
X45600Y194912D01*
X43934D01*
X43101Y195745D01*
Y197411D01*
X44767D01*
X41434Y194912D02*
Y199910D01*
X38102Y194912D01*
Y199910D01*
X36436D02*
Y194912D01*
X33937D01*
X33104Y195745D01*
Y199077D01*
X33937Y199910D01*
X36436D01*
X46433Y210049D02*
Y206717D01*
X44767Y205051D01*
X43101Y206717D01*
Y210049D01*
X38102Y209216D02*
X38935Y210049D01*
X40601D01*
X41434Y209216D01*
Y205884D01*
X40601Y205051D01*
X38935D01*
X38102Y205884D01*
X33104Y209216D02*
X33937Y210049D01*
X35603D01*
X36436Y209216D01*
Y205884D01*
X35603Y205051D01*
X33937D01*
X33104Y205884D01*
X46298Y129354D02*
Y126022D01*
X44632Y124356D01*
X42966Y126022D01*
Y129354D01*
X37967Y128521D02*
X38800Y129354D01*
X40467D01*
X41300Y128521D01*
Y125189D01*
X40467Y124356D01*
X38800D01*
X37967Y125189D01*
X32969Y128521D02*
X33802Y129354D01*
X35468D01*
X36301Y128521D01*
Y125189D01*
X35468Y124356D01*
X33802D01*
X32969Y125189D01*
X42966Y118382D02*
X43799Y119215D01*
X45465D01*
X46298Y118382D01*
Y115050D01*
X45465Y114216D01*
X43799D01*
X42966Y115050D01*
Y116716D01*
X44632D01*
X41300Y114216D02*
Y119215D01*
X37967Y114216D01*
Y119215D01*
X36301D02*
Y114216D01*
X33802D01*
X32969Y115050D01*
Y118382D01*
X33802Y119215D01*
X36301D01*
X42966Y138660D02*
X43799Y139493D01*
X45465D01*
X46298Y138660D01*
Y137827D01*
X45465Y136994D01*
X43799D01*
X42966Y136161D01*
Y135328D01*
X43799Y134495D01*
X45465D01*
X46298Y135328D01*
X41300Y139493D02*
Y134495D01*
X38800D01*
X37967Y135328D01*
Y138660D01*
X38800Y139493D01*
X41300D01*
X36301Y134495D02*
Y137827D01*
X34635Y139493D01*
X32969Y137827D01*
Y134495D01*
Y136994D01*
X36301D01*
X42966Y148799D02*
X43799Y149633D01*
X45465D01*
X46298Y148799D01*
Y147966D01*
X45465Y147133D01*
X43799D01*
X42966Y146300D01*
Y145467D01*
X43799Y144634D01*
X45465D01*
X46298Y145467D01*
X37967Y148799D02*
X38800Y149633D01*
X40467D01*
X41300Y148799D01*
Y145467D01*
X40467Y144634D01*
X38800D01*
X37967Y145467D01*
X36301Y149633D02*
Y144634D01*
X32969D01*
X745408Y169639D02*
Y165641D01*
X743409D01*
X742743Y166307D01*
Y168973D01*
X743409Y169639D01*
X745408D01*
X741410Y165641D02*
X740077D01*
X740743D01*
Y169639D01*
X741410Y168973D01*
X735412Y165641D02*
X738077D01*
X735412Y168307D01*
Y168973D01*
X736078Y169639D01*
X737411D01*
X738077Y168973D01*
X197645Y410720D02*
X201643D01*
Y412720D01*
X200977Y413386D01*
X199644D01*
X198978Y412720D01*
Y410720D01*
Y412053D02*
X197645Y413386D01*
X200977Y414719D02*
X201643Y415386D01*
Y416718D01*
X200977Y417385D01*
X200310D01*
X199644Y416718D01*
X198978Y417385D01*
X198311D01*
X197645Y416718D01*
Y415386D01*
X198311Y414719D01*
X198978D01*
X199644Y415386D01*
X200310Y414719D01*
X200977D01*
X199644Y415386D02*
Y416718D01*
X200977Y418718D02*
X201643Y419384D01*
Y420717D01*
X200977Y421384D01*
X200310D01*
X199644Y420717D01*
Y420051D01*
Y420717D01*
X198978Y421384D01*
X198311D01*
X197645Y420717D01*
Y419384D01*
X198311Y418718D01*
X215324Y410720D02*
X219322D01*
Y412720D01*
X218656Y413386D01*
X217323D01*
X216657Y412720D01*
Y410720D01*
Y412053D02*
X215324Y413386D01*
X218656Y414719D02*
X219322Y415386D01*
Y416718D01*
X218656Y417385D01*
X217990D01*
X217323Y416718D01*
X216657Y417385D01*
X215990D01*
X215324Y416718D01*
Y415386D01*
X215990Y414719D01*
X216657D01*
X217323Y415386D01*
X217990Y414719D01*
X218656D01*
X217323Y415386D02*
Y416718D01*
X215324Y420717D02*
X219322D01*
X217323Y418718D01*
Y421384D01*
X206484Y410720D02*
X210483D01*
Y412720D01*
X209816Y413386D01*
X208484D01*
X207817Y412720D01*
Y410720D01*
Y412053D02*
X206484Y413386D01*
X207151Y414719D02*
X206484Y415386D01*
Y416718D01*
X207151Y417385D01*
X209816D01*
X210483Y416718D01*
Y415386D01*
X209816Y414719D01*
X209150D01*
X208484Y415386D01*
Y417385D01*
X209816Y418718D02*
X210483Y419384D01*
Y420717D01*
X209816Y421384D01*
X209150D01*
X208484Y420717D01*
Y420051D01*
Y420717D01*
X207817Y421384D01*
X207151D01*
X206484Y420717D01*
Y419384D01*
X207151Y418718D01*
X196239Y371267D02*
X196906Y370600D01*
Y369267D01*
X196239Y368601D01*
X193573D01*
X192907Y369267D01*
Y370600D01*
X193573Y371267D01*
Y372599D02*
X192907Y373266D01*
Y374599D01*
X193573Y375265D01*
X196239D01*
X196906Y374599D01*
Y373266D01*
X196239Y372599D01*
X195573D01*
X194906Y373266D01*
Y375265D01*
X192907Y378598D02*
X196906D01*
X194906Y376598D01*
Y379264D01*
X221503Y383061D02*
X222169Y382394D01*
Y381061D01*
X221503Y380395D01*
X218837D01*
X218171Y381061D01*
Y382394D01*
X218837Y383061D01*
Y384394D02*
X218171Y385060D01*
Y386393D01*
X218837Y387059D01*
X221503D01*
X222169Y386393D01*
Y385060D01*
X221503Y384394D01*
X220836D01*
X220170Y385060D01*
Y387059D01*
X218171Y391058D02*
Y388392D01*
X220836Y391058D01*
X221503D01*
X222169Y390392D01*
Y389059D01*
X221503Y388392D01*
X269762Y454977D02*
X270428Y455643D01*
X271761D01*
X272428Y454977D01*
Y452311D01*
X271761Y451645D01*
X270428D01*
X269762Y452311D01*
X268429Y451645D02*
X267096D01*
X267763D01*
Y455643D01*
X268429Y454977D01*
X265097D02*
X264430Y455643D01*
X263097D01*
X262431Y454977D01*
Y454310D01*
X263097Y453644D01*
X263764D01*
X263097D01*
X262431Y452978D01*
Y452311D01*
X263097Y451645D01*
X264430D01*
X265097Y452311D01*
X261098Y454977D02*
X260432Y455643D01*
X259099D01*
X258432Y454977D01*
Y454310D01*
X259099Y453644D01*
X259765D01*
X259099D01*
X258432Y452978D01*
Y452311D01*
X259099Y451645D01*
X260432D01*
X261098Y452311D01*
X249696Y454977D02*
X250362Y455643D01*
X251695D01*
X252362Y454977D01*
Y452311D01*
X251695Y451645D01*
X250362D01*
X249696Y452311D01*
X248363Y451645D02*
X247030D01*
X247697D01*
Y455643D01*
X248363Y454977D01*
X245031D02*
X244364Y455643D01*
X243031D01*
X242365Y454977D01*
Y454310D01*
X243031Y453644D01*
X243698D01*
X243031D01*
X242365Y452978D01*
Y452311D01*
X243031Y451645D01*
X244364D01*
X245031Y452311D01*
X238366Y451645D02*
X241032D01*
X238366Y454310D01*
Y454977D01*
X239033Y455643D01*
X240366D01*
X241032Y454977D01*
X208871Y375632D02*
X209538Y374965D01*
Y373632D01*
X208871Y372966D01*
X206205D01*
X205539Y373632D01*
Y374965D01*
X206205Y375632D01*
X205539Y376965D02*
Y378298D01*
Y377631D01*
X209538D01*
X208871Y376965D01*
X205539Y380297D02*
Y381630D01*
Y380963D01*
X209538D01*
X208871Y380297D01*
Y383629D02*
X209538Y384296D01*
Y385629D01*
X208871Y386295D01*
X208205D01*
X207538Y385629D01*
X206872Y386295D01*
X206205D01*
X205539Y385629D01*
Y384296D01*
X206205Y383629D01*
X206872D01*
X207538Y384296D01*
X208205Y383629D01*
X208871D01*
X207538Y384296D02*
Y385629D01*
X309752Y339153D02*
X310418Y339819D01*
X311751D01*
X312418Y339153D01*
Y336487D01*
X311751Y335821D01*
X310418D01*
X309752Y336487D01*
X305753Y339819D02*
X308419D01*
Y337820D01*
X307086Y338487D01*
X306420D01*
X305753Y337820D01*
Y336487D01*
X306420Y335821D01*
X307752D01*
X308419Y336487D01*
X301754Y339819D02*
X303087Y339153D01*
X304420Y337820D01*
Y336487D01*
X303754Y335821D01*
X302421D01*
X301754Y336487D01*
Y337154D01*
X302421Y337820D01*
X304420D01*
X309473Y373443D02*
X310139Y374109D01*
X311472D01*
X312139Y373443D01*
Y370777D01*
X311472Y370111D01*
X310139D01*
X309473Y370777D01*
X305474Y374109D02*
X308140D01*
Y372110D01*
X306807Y372776D01*
X306140D01*
X305474Y372110D01*
Y370777D01*
X306140Y370111D01*
X307473D01*
X308140Y370777D01*
X304141Y374109D02*
X301475D01*
Y373443D01*
X304141Y370777D01*
Y370111D01*
X288507Y339128D02*
X289174Y339794D01*
X290506D01*
X291173Y339128D01*
Y336462D01*
X290506Y335795D01*
X289174D01*
X288507Y336462D01*
X284508Y339794D02*
X287174D01*
Y337795D01*
X285841Y338461D01*
X285175D01*
X284508Y337795D01*
Y336462D01*
X285175Y335795D01*
X286508D01*
X287174Y336462D01*
X283176Y339128D02*
X282509Y339794D01*
X281176D01*
X280510Y339128D01*
Y338461D01*
X281176Y337795D01*
X281843D01*
X281176D01*
X280510Y337128D01*
Y336462D01*
X281176Y335795D01*
X282509D01*
X283176Y336462D01*
X288670Y373443D02*
X289336Y374109D01*
X290669D01*
X291336Y373443D01*
Y370777D01*
X290669Y370111D01*
X289336D01*
X288670Y370777D01*
X284671Y374109D02*
X287337D01*
Y372110D01*
X286004Y372776D01*
X285338D01*
X284671Y372110D01*
Y370777D01*
X285338Y370111D01*
X286670D01*
X287337Y370777D01*
X280672Y370111D02*
X283338D01*
X280672Y372776D01*
Y373443D01*
X281339Y374109D01*
X282672D01*
X283338Y373443D01*
X234135Y385177D02*
X234801Y384511D01*
Y383178D01*
X234135Y382511D01*
X231469D01*
X230802Y383178D01*
Y384511D01*
X231469Y385177D01*
X230802Y386510D02*
Y387843D01*
Y387177D01*
X234801D01*
X234135Y386510D01*
X230802Y389842D02*
Y391175D01*
Y390509D01*
X234801D01*
X234135Y389842D01*
X231469Y393175D02*
X230802Y393841D01*
Y395174D01*
X231469Y395840D01*
X234135D01*
X234801Y395174D01*
Y393841D01*
X234135Y393175D01*
X233468D01*
X232802Y393841D01*
Y395840D01*
X224163Y410720D02*
X228162D01*
Y412720D01*
X227495Y413386D01*
X226163D01*
X225496Y412720D01*
Y410720D01*
Y412053D02*
X224163Y413386D01*
X224830Y414719D02*
X224163Y415386D01*
Y416718D01*
X224830Y417385D01*
X227495D01*
X228162Y416718D01*
Y415386D01*
X227495Y414719D01*
X226829D01*
X226163Y415386D01*
Y417385D01*
X224163Y420717D02*
X228162D01*
X226163Y418718D01*
Y421384D01*
X625241Y665042D02*
Y661043D01*
X623241D01*
X622575Y661710D01*
Y664376D01*
X623241Y665042D01*
X625241D01*
X621242Y661043D02*
X619909D01*
X620576D01*
Y665042D01*
X621242Y664376D01*
X617910Y661043D02*
X616577D01*
X617243D01*
Y665042D01*
X617910Y664376D01*
X673526Y665042D02*
Y661043D01*
X671527D01*
X670861Y661710D01*
Y664376D01*
X671527Y665042D01*
X673526D01*
X669528Y661043D02*
X668195D01*
X668861D01*
Y665042D01*
X669528Y664376D01*
X666195D02*
X665529Y665042D01*
X664196D01*
X663530Y664376D01*
Y661710D01*
X664196Y661043D01*
X665529D01*
X666195Y661710D01*
Y664376D01*
X578955Y665042D02*
Y661043D01*
X576955D01*
X576289Y661710D01*
Y664376D01*
X576955Y665042D01*
X578955D01*
X574956D02*
X572290D01*
Y664376D01*
X574956Y661710D01*
Y661043D01*
X532668Y665042D02*
Y661043D01*
X530669D01*
X530002Y661710D01*
Y664376D01*
X530669Y665042D01*
X532668D01*
X526004D02*
X527337Y664376D01*
X528670Y663043D01*
Y661710D01*
X528003Y661043D01*
X526670D01*
X526004Y661710D01*
Y662376D01*
X526670Y663043D01*
X528670D01*
X666969Y740226D02*
X664303D01*
X665636D01*
Y736227D01*
X662970Y740226D02*
Y737560D01*
X661637Y736227D01*
X660304Y737560D01*
Y740226D01*
X656306Y739560D02*
X656972Y740226D01*
X658305D01*
X658971Y739560D01*
Y738893D01*
X658305Y738227D01*
X656972D01*
X656306Y737560D01*
Y736894D01*
X656972Y736227D01*
X658305D01*
X658971Y736894D01*
X652307Y740226D02*
X653640Y739560D01*
X654973Y738227D01*
Y736894D01*
X654306Y736227D01*
X652973D01*
X652307Y736894D01*
Y737560D01*
X652973Y738227D01*
X654973D01*
X627176Y740226D02*
X624510D01*
X625843D01*
Y736227D01*
X623177Y740226D02*
Y737560D01*
X621844Y736227D01*
X620511Y737560D01*
Y740226D01*
X616512Y739560D02*
X617179Y740226D01*
X618512D01*
X619178Y739560D01*
Y738893D01*
X618512Y738227D01*
X617179D01*
X616512Y737560D01*
Y736894D01*
X617179Y736227D01*
X618512D01*
X619178Y736894D01*
X615179Y740226D02*
X612514D01*
Y739560D01*
X615179Y736894D01*
Y736227D01*
X587382Y740226D02*
X584716D01*
X586049D01*
Y736227D01*
X583384Y740226D02*
Y737560D01*
X582051Y736227D01*
X580718Y737560D01*
Y740226D01*
X576719Y739560D02*
X577385Y740226D01*
X578718D01*
X579385Y739560D01*
Y738893D01*
X578718Y738227D01*
X577385D01*
X576719Y737560D01*
Y736894D01*
X577385Y736227D01*
X578718D01*
X579385Y736894D01*
X572720Y740226D02*
X575386D01*
Y738227D01*
X574053Y738893D01*
X573387D01*
X572720Y738227D01*
Y736894D01*
X573387Y736227D01*
X574720D01*
X575386Y736894D01*
X547589Y740226D02*
X544923D01*
X546256D01*
Y736227D01*
X543590Y740226D02*
Y737560D01*
X542257Y736227D01*
X540924Y737560D01*
Y740226D01*
X536926Y739560D02*
X537592Y740226D01*
X538925D01*
X539592Y739560D01*
Y738893D01*
X538925Y738227D01*
X537592D01*
X536926Y737560D01*
Y736894D01*
X537592Y736227D01*
X538925D01*
X539592Y736894D01*
X533593Y736227D02*
Y740226D01*
X535593Y738227D01*
X532927D01*
X545902Y14762D02*
Y10763D01*
Y12763D01*
X543236D01*
Y14762D01*
Y10763D01*
X539904D02*
Y14762D01*
X541903Y12763D01*
X539237D01*
D29*
X678183Y681343D02*
D03*
X631362Y681355D02*
D03*
X537721Y681355D02*
D03*
X584542Y681343D02*
D03*
D167*
X671262Y346133D02*
Y368126D01*
X660266D01*
X656600Y364460D01*
Y357130D01*
X660266Y353464D01*
X671262D01*
X649269Y346133D02*
Y368126D01*
X638273D01*
X634608Y364460D01*
Y357130D01*
X638273Y353464D01*
X649269D01*
X641938D02*
X634608Y346133D01*
X616280Y368126D02*
X623611D01*
X627276Y364460D01*
Y349799D01*
X623611Y346133D01*
X616280D01*
X612615Y349799D01*
Y364460D01*
X616280Y368126D01*
X590622D02*
X597953D01*
X594287D01*
Y349799D01*
X597953Y346133D01*
X601618D01*
X605284Y349799D01*
X568629Y368126D02*
X583291D01*
Y346133D01*
X568629D01*
X583291Y357130D02*
X575960D01*
X546636Y364460D02*
X550301Y368126D01*
X557632D01*
X561298Y364460D01*
Y349799D01*
X557632Y346133D01*
X550301D01*
X546636Y349799D01*
X539305Y368126D02*
X524643D01*
X531974D01*
Y346133D01*
X495319Y368126D02*
Y346133D01*
X484323D01*
X480657Y349799D01*
Y353464D01*
X484323Y357130D01*
X495319D01*
X484323D01*
X480657Y360795D01*
Y364460D01*
X484323Y368126D01*
X495319D01*
X458664D02*
X473326D01*
Y346133D01*
X458664D01*
X473326Y357130D02*
X465995D01*
X436671Y368126D02*
X451333D01*
Y346133D01*
X436671D01*
X451333Y357130D02*
X444002D01*
X429341D02*
X414678D01*
X407348Y346133D02*
Y368126D01*
X396351D01*
X392686Y364460D01*
Y357130D01*
X396351Y353464D01*
X407348D01*
X370693Y364460D02*
X374358Y368126D01*
X381689D01*
X385355Y364460D01*
Y349799D01*
X381689Y346133D01*
X374358D01*
X370693Y349799D01*
X363362Y346133D02*
X356031D01*
X359696D01*
Y368126D01*
X363362Y364460D01*
M02*
