G04*
G04 #@! TF.GenerationSoftware,Altium Limited,Altium Designer,24.1.2 (44)*
G04*
G04 Layer_Color=32896*
%FSLAX44Y44*%
%MOMM*%
G71*
G04*
G04 #@! TF.SameCoordinates,1E1B0E3F-32AE-4E86-94FA-F8EE38DC9C5D*
G04*
G04*
G04 #@! TF.FilePolarity,Positive*
G04*
G01*
G75*
%ADD10C,0.2540*%
%ADD14C,0.2500*%
%ADD15C,0.6000*%
%ADD16C,0.5080*%
%ADD17C,0.3000*%
%ADD18C,0.2000*%
%ADD19C,0.1270*%
%ADD20C,0.1200*%
%ADD21C,0.1500*%
%ADD22C,0.1524*%
%ADD23C,0.1000*%
%ADD154C,0.1016*%
%ADD155C,0.4000*%
%ADD156R,1.7526X0.4572*%
G36*
X218729Y646996D02*
X218871Y646961D01*
X219120Y646854D01*
X219688Y646890D01*
X219830Y646854D01*
X220025Y646801D01*
X221215Y646748D01*
X221570Y646712D01*
X221818Y646606D01*
X221996Y646535D01*
X222244Y646464D01*
X222351Y646428D01*
X222812Y646393D01*
X223167Y646357D01*
X223451Y646286D01*
X223842Y646108D01*
X224516Y646073D01*
X224765Y646038D01*
X225013Y645931D01*
X225138Y645842D01*
X225315Y645771D01*
X225830Y645718D01*
X225972Y645683D01*
X226149Y645611D01*
X226398Y645434D01*
X226824Y645398D01*
X227108Y645328D01*
X227161Y645274D01*
X227445Y645097D01*
X228067Y645008D01*
X228209Y644866D01*
X228279Y644830D01*
X228333Y644777D01*
X228848Y644688D01*
X229025Y644617D01*
X229220Y644422D01*
X229451Y644369D01*
X229700Y644333D01*
X229948Y644085D01*
X230197Y644049D01*
X230481Y643978D01*
X230623Y643836D01*
X230747Y643748D01*
X230978Y643694D01*
X231173Y643606D01*
X231262Y643481D01*
X231333Y643446D01*
X231386Y643393D01*
X231617Y643339D01*
X231759Y643304D01*
X231936Y643126D01*
X232114Y643020D01*
X232362Y642949D01*
X232504Y642807D01*
X232753Y642665D01*
X232930Y642594D01*
X233037Y642487D01*
X233427Y642274D01*
X233498Y642239D01*
X233516Y642186D01*
X233605Y642097D01*
X233995Y641884D01*
X234049Y641831D01*
X234244Y641671D01*
X234386Y641635D01*
X234546Y641476D01*
X234741Y641316D01*
X234812Y641280D01*
X234972Y641121D01*
X235007Y641049D01*
X235238Y640925D01*
X235451Y640712D01*
X235522Y640677D01*
X235770Y640428D01*
X236161Y640215D01*
X236214Y640162D01*
X236250Y640091D01*
X236605Y639736D01*
X236640Y639665D01*
X236693Y639647D01*
X236924Y639417D01*
X237013Y639292D01*
X237084Y639257D01*
X237279Y639061D01*
X237315Y638990D01*
X237368Y638937D01*
X237439Y638902D01*
X237599Y638742D01*
X237741Y638493D01*
X237776Y638422D01*
X237847Y638351D01*
X238025Y638103D01*
X238060Y638032D01*
X238113Y637979D01*
X238185Y637943D01*
X238344Y637748D01*
X238380Y637677D01*
X238593Y637464D01*
X238770Y637144D01*
X238930Y636985D01*
X239054Y636647D01*
X239179Y636523D01*
X239250Y636488D01*
X239338Y636363D01*
X239409Y636044D01*
X239534Y635919D01*
X239693Y635724D01*
X239729Y635511D01*
X239800Y635334D01*
X239977Y635156D01*
X240031Y635032D01*
X240084Y634801D01*
X240155Y634624D01*
X240208Y634570D01*
X240368Y634375D01*
X240403Y634020D01*
X240439Y633878D01*
X240528Y633789D01*
X240687Y633594D01*
X240758Y633097D01*
X240794Y632955D01*
X241042Y632423D01*
X241078Y631855D01*
X241113Y631606D01*
X241238Y631304D01*
X241273Y631162D01*
X241309Y630878D01*
X241344Y630736D01*
X241380Y630559D01*
X241362Y629689D01*
X241397Y629440D01*
X241362Y629334D01*
X241380Y629210D01*
X241362Y628943D01*
X241327Y628695D01*
X241220Y628446D01*
X241149Y628269D01*
X241113Y628162D01*
X241078Y627701D01*
X241042Y627559D01*
X240989Y627364D01*
X240829Y627168D01*
X240758Y626991D01*
X240723Y626849D01*
X240687Y626742D01*
X240652Y626671D01*
X240545Y626600D01*
X240421Y626405D01*
X240368Y626174D01*
X240084Y625890D01*
X240048Y625819D01*
X239853Y625624D01*
X239782Y625588D01*
X239640Y625375D01*
X239392Y625233D01*
X239321Y625198D01*
X239214Y625091D01*
X238966Y624949D01*
X238788Y624878D01*
X238646Y624736D01*
X238522Y624648D01*
X238291Y624594D01*
X238043Y624559D01*
X237954Y624470D01*
X237741Y624328D01*
X237474Y624275D01*
X237120Y624239D01*
X236978Y624204D01*
X236587Y624026D01*
X236338Y623991D01*
X236232Y623955D01*
X234776Y623920D01*
X234670Y623884D01*
X232753Y623920D01*
X231652Y623955D01*
X231297Y623991D01*
X231120Y624062D01*
X230978Y624097D01*
X230729Y624133D01*
X230481Y624204D01*
X230374Y624239D01*
X229025Y624310D01*
X228741Y624381D01*
X228421Y624523D01*
X228315Y624559D01*
X227552Y624612D01*
X227037Y624665D01*
X226895Y624701D01*
X226487Y624861D01*
X226345Y624896D01*
X225901Y624949D01*
X225439Y624985D01*
X224960Y625180D01*
X224676Y625251D01*
X223771Y625340D01*
X223593Y625411D01*
X223345Y625553D01*
X223061Y625624D01*
X222493Y625659D01*
X222209Y625731D01*
X221747Y625943D01*
X221215Y625979D01*
X220789Y626050D01*
X220558Y626174D01*
X220380Y626245D01*
X220203Y626281D01*
X219440Y626334D01*
X219209Y626423D01*
X219031Y626494D01*
X218801Y626582D01*
X218694Y626618D01*
X217984Y626654D01*
X217736Y626689D01*
X217593Y626725D01*
X217398Y626813D01*
X217114Y626920D01*
X216937Y626955D01*
X216475Y626991D01*
X216049Y627026D01*
X215605Y627080D01*
X215463Y627115D01*
X215091Y627275D01*
X214913Y627310D01*
X213617Y627364D01*
X213298Y627506D01*
X213049Y627470D01*
X212659Y627648D01*
X211239Y627683D01*
X211132Y627719D01*
X210724Y627701D01*
X210529Y627719D01*
X210369Y627772D01*
X210191Y627843D01*
X209464Y627825D01*
X209321Y627861D01*
X209020Y627949D01*
X208807Y627985D01*
X205097Y627967D01*
X204990Y628003D01*
X204671Y627967D01*
X204440Y627878D01*
X204298Y627843D01*
X203624Y627807D01*
X203428Y627754D01*
X203322Y627719D01*
X202221Y627683D01*
X201760Y627648D01*
X201618Y627612D01*
X201209Y627488D01*
X200783Y627381D01*
X200268Y627328D01*
X199807Y627293D01*
X199275Y627044D01*
X198955Y627009D01*
X198600Y626973D01*
X198458Y626937D01*
X198156Y626778D01*
X197979Y626707D01*
X197677Y626654D01*
X197428Y626618D01*
X197180Y626511D01*
X197091Y626423D01*
X196914Y626352D01*
X196541Y626298D01*
X196363Y626227D01*
X196292Y626157D01*
X196097Y626032D01*
X195724Y625943D01*
X195547Y625872D01*
X195476Y625802D01*
X195280Y625677D01*
X194979Y625624D01*
X194783Y625535D01*
X194748Y625464D01*
X194624Y625340D01*
X194304Y625269D01*
X194162Y625233D01*
X193949Y625020D01*
X193559Y624878D01*
X193417Y624736D01*
X193168Y624594D01*
X193026Y624559D01*
X192973Y624506D01*
X192884Y624381D01*
X192760Y624293D01*
X192494Y624239D01*
X192245Y623991D01*
X192068Y623884D01*
X191890Y623707D01*
X191713Y623600D01*
X191535Y623529D01*
X191429Y623423D01*
X191180Y623245D01*
X191109Y623210D01*
X191020Y623121D01*
X190985Y623050D01*
X190825Y622926D01*
X190754Y622890D01*
X190630Y622731D01*
X190665Y620352D01*
X190701Y620210D01*
X190772Y620032D01*
X190807Y619748D01*
X190843Y619393D01*
X190914Y619145D01*
X190949Y619038D01*
X190985Y617831D01*
X191020Y617583D01*
X191109Y617388D01*
X191180Y617210D01*
X191215Y617068D01*
X191269Y616624D01*
X191304Y616482D01*
X191340Y615914D01*
X191375Y615666D01*
X191624Y615133D01*
X191659Y614530D01*
X191695Y614281D01*
X191837Y613962D01*
X191961Y613695D01*
X192014Y613110D01*
X192050Y612967D01*
X192121Y612790D01*
X192156Y612719D01*
X192227Y612648D01*
X192281Y612524D01*
X192334Y612187D01*
X192369Y611938D01*
X192476Y611689D01*
X192511Y611618D01*
X192565Y611565D01*
X192636Y611388D01*
X192689Y611015D01*
X192724Y610873D01*
X192795Y610695D01*
X192973Y610376D01*
X193008Y610234D01*
X193044Y609879D01*
X193115Y609701D01*
X193257Y609488D01*
X193310Y609364D01*
X193363Y609098D01*
X193399Y608956D01*
X193488Y608761D01*
X193647Y608565D01*
X193683Y608352D01*
X193718Y608104D01*
X193754Y607962D01*
X193896Y607820D01*
X194002Y607642D01*
X194038Y607500D01*
X194073Y607252D01*
X194144Y607074D01*
X194251Y606968D01*
X194357Y606790D01*
X194464Y606364D01*
X194571Y606258D01*
X194606Y606187D01*
X194677Y606116D01*
X194713Y605903D01*
X194783Y605619D01*
X194837Y605565D01*
X195014Y605352D01*
X195068Y605051D01*
X195103Y604909D01*
X195352Y604660D01*
X195387Y604447D01*
X195458Y604199D01*
X195689Y603968D01*
X195742Y603702D01*
X195777Y603559D01*
X196008Y603329D01*
X196062Y603134D01*
X196133Y602885D01*
X196221Y602796D01*
X196292Y602761D01*
X196381Y602672D01*
X196452Y602352D01*
X196488Y602246D01*
X196523Y602175D01*
X196630Y602104D01*
X196772Y601855D01*
X196843Y601607D01*
X197038Y601412D01*
X197162Y601074D01*
X197233Y601003D01*
X197269Y600932D01*
X197357Y600844D01*
X197446Y600613D01*
X197517Y600435D01*
X197659Y600293D01*
X197766Y600116D01*
X197837Y599867D01*
X198014Y599690D01*
X198227Y599299D01*
X198369Y599157D01*
X198511Y598802D01*
X198564Y598749D01*
X198689Y598660D01*
X198778Y598536D01*
X198831Y598341D01*
X198866Y598199D01*
X199044Y598021D01*
X199186Y597773D01*
X199452Y597506D01*
X199505Y597311D01*
X199576Y597134D01*
X199629Y597080D01*
X199701Y597045D01*
X199914Y596690D01*
X200038Y596601D01*
X200251Y596211D01*
X200357Y596104D01*
X200535Y595785D01*
X200783Y595536D01*
X200925Y595288D01*
X201121Y595092D01*
X201245Y594755D01*
X201387Y594649D01*
X201564Y594400D01*
X201600Y594329D01*
X201653Y594311D01*
X201706Y594258D01*
X201955Y593938D01*
X201990Y593867D01*
X202061Y593832D01*
X202274Y593442D01*
X202310Y593371D01*
X202399Y593317D01*
X202558Y593122D01*
X202594Y593051D01*
X202825Y592820D01*
X202967Y592607D01*
X203091Y592518D01*
X203269Y592270D01*
X203304Y592199D01*
X203482Y592021D01*
X203624Y591773D01*
X203801Y591595D01*
X203908Y591418D01*
X204227Y591098D01*
X204263Y591027D01*
X204458Y590832D01*
X204529Y590797D01*
X204582Y590708D01*
X204618Y590637D01*
X204902Y590353D01*
X204937Y590282D01*
X205097Y590122D01*
X205168Y590087D01*
X205328Y589785D01*
X205487Y589625D01*
X205647Y589430D01*
X205736Y589305D01*
X205807Y589270D01*
X206002Y589075D01*
X206091Y588951D01*
X206162Y588915D01*
X206322Y588649D01*
X206446Y588525D01*
X206517Y588489D01*
X206606Y588400D01*
X206641Y588329D01*
X206765Y588205D01*
X206836Y588170D01*
X206961Y588045D01*
X206996Y587974D01*
X207120Y587850D01*
X207191Y587814D01*
X207316Y587690D01*
X207351Y587619D01*
X207475Y587495D01*
X207546Y587459D01*
X207635Y587371D01*
X207671Y587300D01*
X207795Y587175D01*
X207866Y587140D01*
X207990Y587016D01*
X208026Y586945D01*
X208150Y586820D01*
X208221Y586785D01*
X208345Y586661D01*
X208381Y586590D01*
X208470Y586501D01*
X208540Y586465D01*
X208665Y586341D01*
X208700Y586270D01*
X208825Y586146D01*
X208895Y586110D01*
X209020Y585986D01*
X209055Y585915D01*
X209179Y585791D01*
X209251Y585755D01*
X209339Y585667D01*
X209375Y585596D01*
X209499Y585471D01*
X209570Y585436D01*
X209694Y585312D01*
X209730Y585241D01*
X209818Y585152D01*
X210120Y584957D01*
X210156Y584885D01*
X210209Y584868D01*
X210475Y584602D01*
X210511Y584530D01*
X210564Y584513D01*
X210795Y584282D01*
X210830Y584211D01*
X210937Y584140D01*
X211292Y583963D01*
X211327Y583891D01*
X211558Y583661D01*
X211629Y583625D01*
X211718Y583501D01*
X212002Y583324D01*
X212037Y583252D01*
X212233Y583057D01*
X212304Y583022D01*
X212463Y582862D01*
X212499Y582791D01*
X212552Y582773D01*
X212623Y582702D01*
X212694Y582667D01*
X212907Y582454D01*
X213085Y582347D01*
X213174Y582258D01*
X213369Y582099D01*
X213617Y581957D01*
X213795Y581779D01*
X213972Y581673D01*
X214132Y581513D01*
X214167Y581442D01*
X214292Y581353D01*
X214363Y581318D01*
X214647Y581034D01*
X214718Y580998D01*
X214895Y580927D01*
X215037Y580785D01*
X215108Y580750D01*
X215179Y580679D01*
X215321Y580643D01*
X215570Y580395D01*
X215747Y580288D01*
X215925Y580075D01*
X216102Y579968D01*
X216280Y579897D01*
X216422Y579756D01*
X216741Y579578D01*
X216795Y579525D01*
X216883Y579400D01*
X217132Y579258D01*
X217380Y579010D01*
X217505Y578957D01*
X217736Y578904D01*
X217878Y578726D01*
X218197Y578548D01*
X218286Y578460D01*
X218321Y578389D01*
X218694Y578193D01*
X218765Y578158D01*
X218871Y578051D01*
X219120Y577909D01*
X219280Y577750D01*
X219315Y577679D01*
X219546Y577554D01*
X219724Y577483D01*
X219830Y577377D01*
X220150Y577199D01*
X220203Y577146D01*
X220238Y577075D01*
X220327Y576986D01*
X220576Y576844D01*
X220753Y576667D01*
X221073Y576489D01*
X221144Y576454D01*
X221286Y576312D01*
X221463Y576205D01*
X221712Y575957D01*
X221889Y575850D01*
X221978Y575762D01*
X222067Y575637D01*
X222386Y575460D01*
X222564Y575282D01*
X222812Y575140D01*
X222883Y575105D01*
X222901Y575051D01*
X223096Y574892D01*
X223167Y574856D01*
X223363Y574661D01*
X223398Y574590D01*
X223487Y574537D01*
X223558Y574501D01*
X223717Y574342D01*
X223753Y574271D01*
X223877Y574182D01*
X223948Y574146D01*
X224197Y573898D01*
X224268Y573862D01*
X224516Y573614D01*
X224836Y573436D01*
X225084Y573188D01*
X225262Y573081D01*
X225333Y573010D01*
X225404Y572975D01*
X225528Y572850D01*
X225670Y572602D01*
X225830Y572442D01*
X225901Y572407D01*
X226025Y572282D01*
X226061Y572211D01*
X226114Y572158D01*
X226185Y572123D01*
X226380Y571927D01*
X226416Y571856D01*
X226469Y571803D01*
X226540Y571768D01*
X226735Y571572D01*
X226771Y571501D01*
X226824Y571448D01*
X226895Y571413D01*
X227019Y571288D01*
X227055Y571217D01*
X227303Y570969D01*
X227570Y570525D01*
X227640Y570490D01*
X227800Y570259D01*
X227836Y570188D01*
X227960Y570099D01*
X228120Y569904D01*
X228155Y569833D01*
X228244Y569744D01*
X228315Y569709D01*
X228368Y569655D01*
X228510Y569407D01*
X228652Y569265D01*
X228865Y568874D01*
X228918Y568821D01*
X229078Y568626D01*
X229114Y568555D01*
X229220Y568306D01*
X229327Y568200D01*
X229469Y567951D01*
X229540Y567774D01*
X229629Y567685D01*
X229700Y567649D01*
X229771Y567507D01*
X229824Y567206D01*
X229859Y567064D01*
X230055Y566868D01*
X230179Y566531D01*
X230250Y566354D01*
X230374Y566229D01*
X230445Y566052D01*
X230498Y565644D01*
X230534Y565502D01*
X230587Y565342D01*
X230729Y565129D01*
X230800Y564951D01*
X230836Y564774D01*
X230889Y563336D01*
X230853Y561809D01*
X230818Y561561D01*
X230729Y561330D01*
X230552Y561046D01*
X230463Y560531D01*
X230427Y560389D01*
X230232Y560194D01*
X230072Y559750D01*
X229930Y559608D01*
X229753Y559289D01*
X229469Y559005D01*
X229433Y558934D01*
X228741Y558241D01*
X228670Y558206D01*
X228386Y557922D01*
X228137Y557780D01*
X227978Y557585D01*
X227800Y557514D01*
X227605Y557460D01*
X227321Y557176D01*
X227108Y557141D01*
X226859Y557105D01*
X226700Y557017D01*
X226416Y556839D01*
X226203Y556804D01*
X225972Y556750D01*
X225581Y556573D01*
X225404Y556537D01*
X225297Y556502D01*
X222812Y556466D01*
X218943Y556502D01*
X218481Y556537D01*
X218339Y556573D01*
X218108Y556661D01*
X217913Y556715D01*
X217806Y556750D01*
X217309Y556786D01*
X217167Y556821D01*
X216919Y556857D01*
X216528Y557105D01*
X216244Y557141D01*
X215747Y557212D01*
X215481Y557372D01*
X215304Y557443D01*
X214966Y557496D01*
X214789Y557567D01*
X214469Y557815D01*
X214114Y557851D01*
X213866Y557922D01*
X213795Y557993D01*
X213599Y558117D01*
X213369Y558206D01*
X213191Y558277D01*
X213085Y558383D01*
X212889Y558508D01*
X212694Y558561D01*
X212517Y558632D01*
X212463Y558685D01*
X212268Y558845D01*
X212126Y558880D01*
X211878Y558951D01*
X211718Y559111D01*
X211487Y559200D01*
X211239Y559235D01*
X211008Y559466D01*
X210830Y559537D01*
X210635Y559590D01*
X210493Y559733D01*
X210369Y559821D01*
X210138Y559910D01*
X209960Y559981D01*
X209890Y560052D01*
X209818Y560088D01*
X209765Y560141D01*
X209534Y560229D01*
X209446Y560318D01*
X209357Y560443D01*
X209037Y560620D01*
X208967Y560656D01*
X208860Y560762D01*
X208682Y560868D01*
X208505Y560939D01*
X208327Y561117D01*
X208203Y561206D01*
X207972Y561295D01*
X207866Y561401D01*
X207475Y561614D01*
X207316Y561774D01*
X207280Y561845D01*
X207014Y561969D01*
X206872Y562111D01*
X206481Y562324D01*
X206357Y562448D01*
X206322Y562519D01*
X206091Y562644D01*
X206002Y562732D01*
X205967Y562803D01*
X205913Y562857D01*
X205612Y563052D01*
X205416Y563212D01*
X205274Y563247D01*
X205257Y563265D01*
X205061Y563354D01*
X205008Y563442D01*
X204813Y563602D01*
X204742Y563638D01*
X204653Y563726D01*
X204618Y563797D01*
X204529Y563886D01*
X204280Y564028D01*
X204174Y564135D01*
X203925Y564312D01*
X203854Y564348D01*
X203677Y564525D01*
X203428Y564667D01*
X203304Y564791D01*
X203269Y564863D01*
X203197Y564934D01*
X202984Y565075D01*
X202949Y565146D01*
X202789Y565306D01*
X202718Y565342D01*
X202399Y565661D01*
X202328Y565697D01*
X202239Y565785D01*
X202203Y565857D01*
X202150Y565910D01*
X201902Y566052D01*
X201831Y566087D01*
X201511Y566407D01*
X201440Y566442D01*
X201334Y566549D01*
X201014Y566726D01*
X200890Y566851D01*
X200854Y566922D01*
X200801Y566975D01*
X200730Y567010D01*
X200535Y567206D01*
X200499Y567277D01*
X200446Y567330D01*
X200375Y567365D01*
X200056Y567685D01*
X199984Y567720D01*
X199896Y567809D01*
X199807Y567933D01*
X199736Y567969D01*
X199665Y568040D01*
X199594Y568075D01*
X199576Y568129D01*
X199310Y568395D01*
X199239Y568430D01*
X199221Y568484D01*
X199115Y568590D01*
X199079Y568661D01*
X199026Y568679D01*
X198280Y569425D01*
X198209Y569460D01*
X198192Y569513D01*
X198121Y569584D01*
X198085Y569655D01*
X198032Y569673D01*
X197961Y569744D01*
X197890Y569780D01*
X197801Y569904D01*
X197766Y569975D01*
X197677Y570064D01*
X197606Y570099D01*
X197553Y570152D01*
X197517Y570223D01*
X197446Y570294D01*
X197411Y570365D01*
X197357Y570383D01*
X197127Y570614D01*
X197091Y570685D01*
X197038Y570738D01*
X196967Y570774D01*
X196807Y570933D01*
X196772Y571004D01*
X196647Y571129D01*
X196576Y571164D01*
X196523Y571217D01*
X196381Y571466D01*
X196346Y571537D01*
X196239Y571643D01*
X196204Y571714D01*
X196133Y571785D01*
X196097Y571856D01*
X195973Y571981D01*
X195795Y572194D01*
X195653Y572407D01*
X195582Y572442D01*
X195529Y572495D01*
X195494Y572566D01*
X195422Y572637D01*
X195387Y572708D01*
X195334Y572762D01*
X195263Y572797D01*
X195138Y572921D01*
X195103Y572992D01*
X194819Y573276D01*
X194783Y573347D01*
X194588Y573543D01*
X194517Y573578D01*
X194499Y573631D01*
X194322Y573880D01*
X194286Y573951D01*
X194144Y574093D01*
X194002Y574342D01*
X193825Y574519D01*
X193718Y574697D01*
X193594Y574821D01*
X193470Y574910D01*
X193363Y575087D01*
X193239Y575211D01*
X193079Y575406D01*
X192937Y575762D01*
X192831Y575868D01*
X192724Y576046D01*
X192494Y576276D01*
X192334Y576472D01*
X192298Y576543D01*
X192121Y576720D01*
X192014Y576898D01*
X191943Y577075D01*
X191801Y577217D01*
X191659Y577466D01*
X191411Y577714D01*
X191304Y577892D01*
X191233Y578069D01*
X191162Y578140D01*
X190949Y578531D01*
X190772Y578708D01*
X190736Y578779D01*
X190683Y578833D01*
X190594Y579063D01*
X190452Y579205D01*
X190275Y579525D01*
X189991Y579809D01*
X189955Y579986D01*
X189884Y580164D01*
X189849Y580235D01*
X189795Y580252D01*
X189671Y580412D01*
X189529Y580767D01*
X189423Y580874D01*
X189316Y581051D01*
X189245Y581229D01*
X189068Y581406D01*
X188979Y581531D01*
X188926Y581761D01*
X188890Y581903D01*
X188713Y582081D01*
X188500Y582471D01*
X188464Y582542D01*
X188322Y582684D01*
X188287Y582826D01*
X188180Y583075D01*
X188003Y583252D01*
X187896Y583536D01*
X187825Y583714D01*
X187790Y583785D01*
X187648Y583927D01*
X187541Y584353D01*
X187452Y584442D01*
X187275Y584655D01*
X187222Y584921D01*
X187151Y585099D01*
X187044Y585205D01*
X186955Y585329D01*
X186902Y585560D01*
X186867Y585702D01*
X186742Y585826D01*
X186583Y586022D01*
X186547Y586235D01*
X186476Y586483D01*
X186263Y586803D01*
X186192Y587122D01*
X186157Y587264D01*
X185979Y587442D01*
X185890Y587566D01*
X185837Y587868D01*
X185802Y588010D01*
X185588Y588329D01*
X185553Y588613D01*
X185482Y588897D01*
X185233Y589252D01*
X185127Y589678D01*
X185056Y589856D01*
X184896Y590158D01*
X184843Y590459D01*
X184807Y590601D01*
X184736Y590779D01*
X184612Y590903D01*
X184541Y591081D01*
X184488Y591489D01*
X184417Y591737D01*
X184293Y591968D01*
X184222Y592146D01*
X184168Y592448D01*
X184133Y592589D01*
X183849Y593193D01*
X183813Y593726D01*
X183778Y593867D01*
X183636Y594187D01*
X183600Y594258D01*
X183529Y594436D01*
X183494Y594933D01*
X183458Y595181D01*
X183352Y595430D01*
X183174Y595749D01*
X183139Y596282D01*
X183086Y596761D01*
X183050Y596938D01*
X183015Y597080D01*
X182890Y597418D01*
X182855Y597524D01*
X182819Y598199D01*
X182784Y598554D01*
X182695Y598856D01*
X182642Y599086D01*
X182606Y599228D01*
X182535Y599406D01*
X182500Y599903D01*
X182464Y600009D01*
X182429Y602281D01*
X182393Y602424D01*
X182358Y602530D01*
X182322Y602850D01*
X182358Y602956D01*
X182340Y604429D01*
X182376Y605033D01*
X182411Y605210D01*
X182447Y606382D01*
X182500Y607820D01*
X182589Y608015D01*
X182660Y608192D01*
X182695Y608370D01*
X182731Y608583D01*
X182802Y609045D01*
X182855Y609595D01*
X183103Y610127D01*
X183139Y610553D01*
X183174Y610802D01*
X183281Y611050D01*
X183316Y611121D01*
X183370Y611175D01*
X183441Y611352D01*
X183476Y611565D01*
X183512Y611885D01*
X183565Y612116D01*
X183742Y612399D01*
X183849Y612896D01*
X183884Y613039D01*
X184133Y613429D01*
X184204Y614033D01*
X184435Y614476D01*
X184470Y614618D01*
X184506Y614796D01*
X184559Y615027D01*
X184807Y615382D01*
X184879Y615914D01*
X184914Y616056D01*
X184985Y616127D01*
X185021Y616198D01*
X185074Y616251D01*
X185163Y616482D01*
X185198Y616731D01*
X185233Y616873D01*
X185305Y617050D01*
X185429Y617174D01*
X185500Y617352D01*
X185553Y617618D01*
X185588Y617867D01*
X185677Y618027D01*
X185837Y618222D01*
X185872Y618648D01*
X185908Y618790D01*
X186050Y618932D01*
X186192Y619180D01*
X186227Y619322D01*
X186263Y619571D01*
X186423Y619837D01*
X186511Y620068D01*
X186618Y620494D01*
X186689Y620565D01*
X186725Y620636D01*
X186778Y620689D01*
X186867Y620920D01*
X186902Y621169D01*
X187044Y621488D01*
X187168Y621683D01*
X187222Y621985D01*
X187293Y622234D01*
X187488Y622429D01*
X187577Y622802D01*
X187612Y622944D01*
X187719Y623121D01*
X187843Y623316D01*
X187896Y623512D01*
X187932Y623760D01*
X188003Y623938D01*
X188145Y624080D01*
X188198Y624204D01*
X188251Y624470D01*
X188287Y624612D01*
X188358Y624790D01*
X188464Y624896D01*
X188553Y625020D01*
X188606Y625251D01*
X188642Y625500D01*
X188855Y625713D01*
X188890Y625784D01*
X188926Y625926D01*
X188961Y626174D01*
X189050Y626334D01*
X189121Y626370D01*
X189174Y626458D01*
X189227Y626582D01*
X189281Y626884D01*
X189352Y627062D01*
X189458Y627168D01*
X189547Y627293D01*
X189636Y627665D01*
X189707Y627843D01*
X189760Y627896D01*
X189920Y628091D01*
X189955Y628269D01*
X190026Y628553D01*
X190168Y628695D01*
X190257Y628819D01*
X190310Y629085D01*
X190381Y629263D01*
X190434Y629316D01*
X190576Y629529D01*
X190630Y629760D01*
X190701Y630044D01*
X190754Y630097D01*
X190896Y630310D01*
X190985Y630541D01*
X191109Y630772D01*
X191269Y630967D01*
X191304Y631109D01*
X191375Y631357D01*
X191429Y631411D01*
X191500Y631446D01*
X191624Y631606D01*
X191659Y631783D01*
X191695Y631926D01*
X191730Y632032D01*
X191766Y632103D01*
X191908Y632245D01*
X191979Y632423D01*
X192050Y632707D01*
X192139Y632795D01*
X192316Y633008D01*
X192369Y633275D01*
X192405Y633417D01*
X192582Y633594D01*
X192653Y633772D01*
X192689Y633914D01*
X192778Y634109D01*
X192849Y634144D01*
X193008Y634304D01*
X193044Y634588D01*
X193115Y634766D01*
X193168Y634783D01*
X193221Y634837D01*
X193310Y634961D01*
X193399Y635334D01*
X193559Y635494D01*
X193630Y635529D01*
X193665Y635600D01*
X193736Y635778D01*
X193789Y635973D01*
X193967Y636150D01*
X194144Y636470D01*
X194180Y636541D01*
X194251Y636612D01*
X194464Y637002D01*
X194606Y637144D01*
X194783Y637464D01*
X194837Y637517D01*
X194908Y637553D01*
X194961Y637606D01*
X195138Y637925D01*
X195280Y638067D01*
X195458Y638387D01*
X195582Y638511D01*
X195653Y638547D01*
X195742Y638671D01*
X195777Y638742D01*
X195973Y638937D01*
X196044Y638973D01*
X196097Y639061D01*
X196133Y639132D01*
X196346Y639345D01*
X196381Y639417D01*
X196576Y639612D01*
X196647Y639647D01*
X196701Y639700D01*
X196736Y639771D01*
X196985Y640020D01*
X197162Y640268D01*
X197198Y640340D01*
X197322Y640464D01*
X197570Y640606D01*
X197695Y640730D01*
X197783Y640854D01*
X197854Y640890D01*
X197925Y640961D01*
X197996Y640996D01*
X198085Y641085D01*
X198121Y641156D01*
X198245Y641280D01*
X198316Y641316D01*
X198369Y641369D01*
X198458Y641493D01*
X198635Y641600D01*
X198955Y641919D01*
X199026Y641955D01*
X199275Y642203D01*
X199594Y642381D01*
X199771Y642558D01*
X199842Y642594D01*
X200109Y642754D01*
X200144Y642825D01*
X200198Y642878D01*
X200446Y643020D01*
X200606Y643109D01*
X200641Y643180D01*
X200783Y643322D01*
X200979Y643375D01*
X201156Y643446D01*
X201263Y643552D01*
X201387Y643641D01*
X201582Y643694D01*
X201760Y643765D01*
X201777Y643819D01*
X201831Y643872D01*
X201955Y643961D01*
X202292Y644085D01*
X202505Y644227D01*
X202683Y644333D01*
X202825Y644369D01*
X203073Y644405D01*
X203251Y644582D01*
X203375Y644671D01*
X203570Y644724D01*
X203801Y644813D01*
X204085Y644990D01*
X204458Y645043D01*
X204635Y645115D01*
X204813Y645292D01*
X204937Y645345D01*
X205168Y645398D01*
X205416Y645434D01*
X205594Y645505D01*
X205913Y645683D01*
X206410Y645718D01*
X206552Y645753D01*
X206730Y645860D01*
X206978Y646038D01*
X207546Y646073D01*
X207688Y646108D01*
X207937Y646144D01*
X208256Y646286D01*
X208434Y646357D01*
X208931Y646393D01*
X209286Y646428D01*
X209481Y646481D01*
X209712Y646535D01*
X209890Y646606D01*
X210085Y646694D01*
X210262Y646730D01*
X211949Y646783D01*
X212091Y646819D01*
X212268Y646890D01*
X212907Y646854D01*
X213156Y646961D01*
X214718Y646996D01*
X214824Y647032D01*
X218729Y646996D01*
D02*
G37*
G36*
X242942Y674688D02*
X243386Y674705D01*
X243936Y674688D01*
X244397Y674652D01*
X244752Y674546D01*
X244894Y674510D01*
X245249Y674404D01*
X245356Y674368D01*
X245995Y674333D01*
X246279Y674261D01*
X246528Y674155D01*
X246705Y674084D01*
X246812Y674048D01*
X247273Y674013D01*
X247415Y673978D01*
X247593Y673906D01*
X247663Y673836D01*
X247912Y673693D01*
X248622Y673623D01*
X248977Y673374D01*
X249261Y673338D01*
X249545Y673268D01*
X249740Y673072D01*
X249971Y672983D01*
X250326Y672948D01*
X250575Y672770D01*
X250752Y672664D01*
X251107Y672558D01*
X251214Y672451D01*
X251462Y672309D01*
X251711Y672273D01*
X251888Y672202D01*
X252066Y672025D01*
X252421Y671883D01*
X252527Y671776D01*
X252598Y671741D01*
X252652Y671688D01*
X252882Y671599D01*
X253024Y671563D01*
X253237Y671421D01*
X253415Y671315D01*
X253592Y671244D01*
X253646Y671191D01*
X253681Y671120D01*
X253788Y671013D01*
X253965Y670942D01*
X254160Y670889D01*
X254373Y670676D01*
X254622Y670534D01*
X254728Y670427D01*
X254977Y670285D01*
X255119Y670250D01*
X255314Y670161D01*
X255350Y670090D01*
X255403Y670037D01*
X255723Y669859D01*
X255865Y669717D01*
X255989Y669629D01*
X256220Y669540D01*
X256379Y669380D01*
X256415Y669309D01*
X256681Y669149D01*
X256752Y669114D01*
X256823Y669043D01*
X257071Y668901D01*
X257249Y668830D01*
X257356Y668723D01*
X257604Y668546D01*
X257675Y668510D01*
X257764Y668421D01*
X257799Y668351D01*
X258137Y668120D01*
X258208Y668084D01*
X258225Y668031D01*
X258279Y668013D01*
X258350Y667942D01*
X258598Y667800D01*
X258669Y667765D01*
X258687Y667711D01*
X258776Y667623D01*
X259024Y667481D01*
X259148Y667321D01*
X259344Y667161D01*
X259415Y667126D01*
X259557Y666984D01*
X259947Y666771D01*
X260089Y666629D01*
X260338Y666487D01*
X260427Y666398D01*
X260462Y666327D01*
X260515Y666274D01*
X260693Y666167D01*
X260817Y666043D01*
X260853Y665972D01*
X261012Y665848D01*
X261083Y665812D01*
X261261Y665635D01*
X261509Y665457D01*
X261580Y665422D01*
X261864Y665138D01*
X261935Y665102D01*
X262077Y664960D01*
X262326Y664782D01*
X262397Y664747D01*
X262450Y664694D01*
X262486Y664623D01*
X262841Y664268D01*
X263036Y664108D01*
X263107Y664072D01*
X263160Y664019D01*
X263196Y663948D01*
X263355Y663789D01*
X263426Y663753D01*
X263480Y663700D01*
X263515Y663629D01*
X263675Y663469D01*
X263746Y663434D01*
X263835Y663345D01*
X263870Y663274D01*
X264030Y663114D01*
X264101Y663079D01*
X264385Y662794D01*
X264456Y662759D01*
X264580Y662635D01*
X264616Y662564D01*
X264704Y662475D01*
X264776Y662439D01*
X264900Y662315D01*
X264935Y662244D01*
X265024Y662155D01*
X265095Y662120D01*
X265255Y661960D01*
X265290Y661889D01*
X265379Y661800D01*
X265450Y661765D01*
X265574Y661641D01*
X265610Y661570D01*
X265699Y661481D01*
X265770Y661445D01*
X265965Y661250D01*
X266000Y661179D01*
X266213Y660966D01*
X266249Y660895D01*
X266409Y660735D01*
X266480Y660700D01*
X266568Y660611D01*
X266604Y660540D01*
X266764Y660380D01*
X266835Y660345D01*
X266888Y660292D01*
X266923Y660220D01*
X267083Y660061D01*
X267154Y660025D01*
X267207Y659972D01*
X267314Y659794D01*
X267758Y659351D01*
X267829Y659315D01*
X267882Y659262D01*
X268024Y659014D01*
X268521Y658516D01*
X268698Y658197D01*
X268982Y657913D01*
X269018Y657842D01*
X269302Y657558D01*
X269338Y657487D01*
X269408Y657416D01*
X269444Y657345D01*
X269533Y657292D01*
X269692Y657096D01*
X269728Y657025D01*
X269905Y656848D01*
X270047Y656599D01*
X270367Y656138D01*
X270403Y656067D01*
X270456Y656014D01*
X270527Y655978D01*
X270616Y655889D01*
X270722Y655712D01*
X270935Y655499D01*
X271077Y655250D01*
X271184Y655144D01*
X271219Y655073D01*
X271290Y655002D01*
X271432Y654753D01*
X271468Y654682D01*
X271521Y654665D01*
X271645Y654540D01*
X271752Y654363D01*
X271929Y654185D01*
X272053Y653990D01*
X272142Y653759D01*
X272249Y653653D01*
X272426Y653333D01*
X272515Y653244D01*
X272639Y653156D01*
X272817Y652836D01*
X272852Y652765D01*
X272959Y652659D01*
X273136Y652339D01*
X273349Y652126D01*
X273438Y652002D01*
X273491Y651807D01*
X273633Y651665D01*
X273846Y651274D01*
X274041Y651079D01*
X274130Y650848D01*
X274201Y650670D01*
X274237Y650600D01*
X274308Y650564D01*
X274521Y650173D01*
X274627Y650067D01*
X274716Y649943D01*
X274805Y649712D01*
X274840Y649570D01*
X275053Y649357D01*
X275195Y648966D01*
X275426Y648736D01*
X275515Y648505D01*
X275586Y648327D01*
X275763Y648150D01*
X275905Y647759D01*
X276012Y647653D01*
X276047Y647582D01*
X276101Y647529D01*
X276154Y647298D01*
X276225Y647120D01*
X276438Y646907D01*
X276544Y646623D01*
X276580Y646481D01*
X276740Y646322D01*
X276811Y646144D01*
X276864Y645913D01*
X276935Y645736D01*
X277112Y645558D01*
X277166Y645434D01*
X277219Y645132D01*
X277361Y644919D01*
X277485Y644724D01*
X277538Y644493D01*
X277609Y644316D01*
X277716Y644209D01*
X277840Y644014D01*
X277893Y643783D01*
X277929Y643641D01*
X278000Y643464D01*
X278177Y643215D01*
X278213Y642896D01*
X278284Y642647D01*
X278337Y642594D01*
X278515Y642310D01*
X278550Y642168D01*
X278603Y641937D01*
X278781Y641689D01*
X278852Y641511D01*
X278888Y641369D01*
X278923Y641121D01*
X278994Y640943D01*
X279065Y640872D01*
X279100Y640801D01*
X279154Y640748D01*
X279225Y640570D01*
X279278Y640233D01*
X279314Y640091D01*
X279509Y639718D01*
X279562Y639452D01*
X279633Y639026D01*
X279811Y638777D01*
X279917Y638493D01*
X279953Y638138D01*
X279988Y637996D01*
X280148Y637695D01*
X280219Y637517D01*
X280272Y636931D01*
X280414Y636612D01*
X280503Y636488D01*
X280574Y636310D01*
X280627Y635724D01*
X280663Y635476D01*
X280698Y635334D01*
X280876Y634943D01*
X280911Y634730D01*
X280947Y634269D01*
X280982Y634020D01*
X281053Y633772D01*
X281177Y633470D01*
X281231Y633239D01*
X281266Y633133D01*
X281302Y632210D01*
X281337Y631855D01*
X281373Y631748D01*
X281408Y631251D01*
X281479Y631073D01*
X281515Y630505D01*
X281550Y630399D01*
X281586Y624719D01*
X281515Y623760D01*
X281479Y623405D01*
X281390Y623103D01*
X281355Y622890D01*
X281302Y622163D01*
X281266Y621808D01*
X281231Y621559D01*
X281124Y621311D01*
X280982Y621062D01*
X280911Y620281D01*
X280751Y619908D01*
X280680Y619731D01*
X280645Y619589D01*
X280592Y619145D01*
X280450Y618825D01*
X280361Y618701D01*
X280290Y618524D01*
X280254Y618346D01*
X280201Y617902D01*
X280130Y617654D01*
X279953Y617405D01*
X279917Y617050D01*
X279846Y616802D01*
X279775Y616731D01*
X279739Y616660D01*
X279669Y616589D01*
X279580Y616358D01*
X279527Y615985D01*
X279278Y615595D01*
X279242Y615311D01*
X279207Y615169D01*
X279136Y614991D01*
X278976Y614831D01*
X278923Y614636D01*
X278852Y614139D01*
X278674Y613891D01*
X278621Y613766D01*
X278568Y613500D01*
X278497Y613216D01*
X278355Y613003D01*
X278248Y612826D01*
X278213Y612719D01*
X278177Y612364D01*
X278089Y612133D01*
X277929Y611938D01*
X277893Y611760D01*
X277858Y611512D01*
X277822Y611370D01*
X277680Y611228D01*
X277592Y611104D01*
X277503Y610731D01*
X277467Y610589D01*
X277396Y610411D01*
X277308Y610323D01*
X277237Y610145D01*
X277201Y609932D01*
X277148Y609701D01*
X277024Y609577D01*
X276864Y609382D01*
X276828Y609027D01*
X276757Y608778D01*
X276651Y608672D01*
X276509Y608423D01*
X276473Y608210D01*
X276402Y608033D01*
X276349Y607980D01*
X276207Y607766D01*
X276118Y607216D01*
X275870Y606861D01*
X275834Y606613D01*
X275763Y606329D01*
X275568Y606133D01*
X275515Y605938D01*
X275479Y605690D01*
X275408Y605512D01*
X275302Y605441D01*
X275266Y605370D01*
X275213Y605317D01*
X275142Y604926D01*
X275089Y604731D01*
X274947Y604589D01*
X274911Y604518D01*
X274858Y604465D01*
X274805Y604234D01*
X274734Y603986D01*
X274681Y603932D01*
X274538Y603719D01*
X274450Y603346D01*
X274379Y603169D01*
X274308Y603098D01*
X274183Y602903D01*
X274130Y602707D01*
X274059Y602530D01*
X274024Y602459D01*
X273882Y602317D01*
X273811Y602140D01*
X273775Y601891D01*
X273704Y601713D01*
X273598Y601607D01*
X273473Y601412D01*
X273420Y601216D01*
X273331Y600986D01*
X273154Y600702D01*
X273101Y600506D01*
X273065Y600364D01*
X272976Y600205D01*
X272905Y600169D01*
X272817Y600045D01*
X272746Y599867D01*
X272675Y599583D01*
X272515Y599424D01*
X272426Y599193D01*
X272391Y599051D01*
X272355Y598944D01*
X272320Y598873D01*
X272142Y598696D01*
X272071Y598518D01*
X272036Y598376D01*
X271982Y598217D01*
X271823Y598021D01*
X271769Y597897D01*
X271734Y597755D01*
X271681Y597560D01*
X271450Y597329D01*
X271326Y596992D01*
X271219Y596885D01*
X271042Y596566D01*
X270970Y596388D01*
X270864Y596282D01*
X270828Y596211D01*
X270775Y596157D01*
X270686Y595785D01*
X270420Y595518D01*
X270331Y595288D01*
X270243Y595092D01*
X270172Y595057D01*
X270083Y594933D01*
X269977Y594649D01*
X269834Y594436D01*
X269622Y594045D01*
X269586Y593974D01*
X269533Y593956D01*
X269444Y593867D01*
X269266Y593548D01*
X269231Y593477D01*
X269124Y593371D01*
X268982Y593122D01*
X268823Y592962D01*
X268663Y592767D01*
X268627Y592696D01*
X268379Y592448D01*
X268237Y592199D01*
X268130Y592092D01*
X268095Y592021D01*
X268042Y591968D01*
X267953Y591737D01*
X267633Y591418D01*
X267598Y591347D01*
X267545Y591294D01*
X267474Y591258D01*
X267349Y591134D01*
X267314Y591063D01*
X267030Y590779D01*
X266994Y590708D01*
X266835Y590548D01*
X266764Y590513D01*
X266675Y590424D01*
X266639Y590353D01*
X266515Y590229D01*
X266444Y590193D01*
X266196Y589945D01*
X266124Y589909D01*
X265929Y589714D01*
X265894Y589643D01*
X265734Y589519D01*
X265663Y589483D01*
X265450Y589270D01*
X265131Y589092D01*
X265024Y588986D01*
X264776Y588844D01*
X264704Y588809D01*
X264651Y588755D01*
X264616Y588684D01*
X264421Y588525D01*
X264349Y588489D01*
X264101Y588241D01*
X263781Y588063D01*
X263710Y588027D01*
X263639Y587957D01*
X263391Y587814D01*
X263231Y587726D01*
X263196Y587655D01*
X263142Y587601D01*
X263018Y587513D01*
X262681Y587388D01*
X262574Y587282D01*
X262326Y587140D01*
X262184Y587104D01*
X262006Y587033D01*
X261953Y586980D01*
X261758Y586820D01*
X261616Y586785D01*
X261367Y586678D01*
X261296Y586607D01*
X261225Y586572D01*
X261172Y586519D01*
X260977Y586465D01*
X260835Y586430D01*
X260657Y586359D01*
X260604Y586306D01*
X260409Y586146D01*
X260125Y586075D01*
X259894Y585986D01*
X259681Y585844D01*
X259308Y585755D01*
X259166Y585720D01*
X258811Y585471D01*
X258669Y585436D01*
X258314Y585400D01*
X258119Y585347D01*
X257782Y585116D01*
X257356Y585081D01*
X257107Y585045D01*
X256574Y584797D01*
X256468Y584761D01*
X255935Y584726D01*
X255509Y584655D01*
X255225Y584477D01*
X254835Y584442D01*
X254728Y584406D01*
X253983Y584371D01*
X253841Y584335D01*
X253433Y584211D01*
X253291Y584175D01*
X252953Y584122D01*
X252847Y584087D01*
X251640Y584051D01*
X251533Y584016D01*
X250983Y584034D01*
X250717Y584016D01*
X250255Y583980D01*
X250149Y583945D01*
X245942Y583963D01*
X245729Y583998D01*
X245303Y584034D01*
X244681Y584016D01*
X244539Y584051D01*
X243439Y584087D01*
X243190Y584122D01*
X242800Y584300D01*
X242445Y584335D01*
X242338Y584371D01*
X241699Y584406D01*
X241344Y584442D01*
X241060Y584513D01*
X240670Y584690D01*
X240208Y584726D01*
X240066Y584761D01*
X239818Y584797D01*
X239569Y584868D01*
X239179Y585045D01*
X238824Y585081D01*
X238575Y585116D01*
X238433Y585152D01*
X238167Y585312D01*
X237989Y585383D01*
X237546Y585436D01*
X237297Y585471D01*
X236942Y585720D01*
X236587Y585755D01*
X236303Y585826D01*
X236196Y585933D01*
X236001Y586057D01*
X235664Y586110D01*
X235522Y586146D01*
X235344Y586217D01*
X235273Y586288D01*
X235149Y586377D01*
X234741Y586465D01*
X234563Y586536D01*
X234457Y586643D01*
X234279Y586749D01*
X234066Y586785D01*
X233889Y586856D01*
X233818Y586891D01*
X233747Y586962D01*
X233498Y587104D01*
X233214Y587175D01*
X233108Y587282D01*
X232788Y587459D01*
X232646Y587495D01*
X232486Y587548D01*
X232274Y587726D01*
X231936Y587850D01*
X231847Y587939D01*
X231652Y588098D01*
X231510Y588134D01*
X231333Y588205D01*
X231155Y588382D01*
X230978Y588489D01*
X230800Y588560D01*
X230694Y588666D01*
X230569Y588755D01*
X230339Y588844D01*
X230126Y589057D01*
X229806Y589235D01*
X229664Y589376D01*
X229345Y589554D01*
X229132Y589767D01*
X228954Y589874D01*
X228670Y590158D01*
X228599Y590193D01*
X228439Y590353D01*
X228404Y590424D01*
X228315Y590477D01*
X228244Y590513D01*
X227960Y590797D01*
X227889Y590832D01*
X227765Y590956D01*
X227729Y591027D01*
X227605Y591152D01*
X227534Y591187D01*
X227445Y591276D01*
X227410Y591347D01*
X227285Y591471D01*
X227215Y591507D01*
X227090Y591631D01*
X227055Y591702D01*
X226931Y591826D01*
X226859Y591862D01*
X226771Y591950D01*
X226735Y592021D01*
X226575Y592181D01*
X226504Y592217D01*
X226487Y592270D01*
X226416Y592341D01*
X226380Y592412D01*
X226256Y592536D01*
X226185Y592572D01*
X226096Y592696D01*
X226061Y592767D01*
X225901Y592927D01*
X225741Y593122D01*
X225706Y593193D01*
X225475Y593424D01*
X225386Y593655D01*
X225315Y593832D01*
X225262Y593850D01*
X225138Y593974D01*
X224996Y594222D01*
X224960Y594294D01*
X224854Y594365D01*
X224765Y594489D01*
X224712Y594684D01*
X224676Y594826D01*
X224499Y595004D01*
X224410Y595128D01*
X224356Y595323D01*
X224286Y595501D01*
X224108Y595678D01*
X224055Y595802D01*
X224002Y596033D01*
X223930Y596211D01*
X223753Y596388D01*
X223682Y596708D01*
X223647Y596956D01*
X223575Y597027D01*
X223398Y597276D01*
X223363Y597489D01*
X223327Y597737D01*
X223291Y597879D01*
X223221Y598057D01*
X223167Y598110D01*
X223061Y598323D01*
X223008Y598731D01*
X222972Y599193D01*
X222901Y599441D01*
X222759Y599761D01*
X222724Y600400D01*
X222688Y600506D01*
X222652Y601394D01*
X222688Y601500D01*
X222724Y602317D01*
X222848Y602619D01*
X222919Y602796D01*
X223008Y603204D01*
X223043Y603453D01*
X223078Y603595D01*
X223256Y603843D01*
X223327Y604021D01*
X223398Y604305D01*
X223522Y604429D01*
X223753Y604767D01*
X223789Y604838D01*
X223842Y604855D01*
X223930Y604944D01*
X223966Y605015D01*
X224445Y605494D01*
X224516Y605530D01*
X224587Y605601D01*
X224658Y605636D01*
X224676Y605690D01*
X224765Y605778D01*
X225084Y605956D01*
X225138Y606009D01*
X225333Y606169D01*
X225546Y606204D01*
X225723Y606275D01*
X225794Y606346D01*
X226043Y606524D01*
X226469Y606559D01*
X226717Y606631D01*
X226806Y606719D01*
X226984Y606790D01*
X227161Y606826D01*
X227374Y606861D01*
X228351Y606914D01*
X228706Y606950D01*
X228883Y607021D01*
X230942Y607057D01*
X231244Y606968D01*
X231386Y606932D01*
X232859Y606879D01*
X233427Y606843D01*
X233605Y606772D01*
X233924Y606737D01*
X234066Y606702D01*
X234315Y606595D01*
X235131Y606559D01*
X235273Y606524D01*
X235735Y606488D01*
X236019Y606417D01*
X236409Y606240D01*
X237084Y606204D01*
X237439Y606169D01*
X237581Y606133D01*
X237776Y606045D01*
X238060Y605938D01*
X238273Y605903D01*
X238966Y605849D01*
X239392Y605743D01*
X239782Y605565D01*
X240350Y605530D01*
X240492Y605494D01*
X240741Y605459D01*
X241273Y605210D01*
X241877Y605175D01*
X242125Y605139D01*
X242303Y605068D01*
X242463Y604980D01*
X242640Y604909D01*
X242977Y604855D01*
X243439Y604820D01*
X243581Y604784D01*
X243829Y604713D01*
X244060Y604625D01*
X244238Y604554D01*
X244610Y604500D01*
X245072Y604465D01*
X245356Y604394D01*
X245516Y604341D01*
X245800Y604234D01*
X246101Y604181D01*
X246457Y604145D01*
X246918Y604110D01*
X247167Y604074D01*
X247628Y603861D01*
X248303Y603826D01*
X248782Y603773D01*
X249155Y603719D01*
X249297Y603684D01*
X249527Y603595D01*
X249705Y603524D01*
X250788Y603471D01*
X251036Y603435D01*
X251391Y603400D01*
X251533Y603364D01*
X251640Y603329D01*
X251959Y603293D01*
X252101Y603258D01*
X252208Y603222D01*
X252492Y603187D01*
X252598Y603151D01*
X252634Y603187D01*
X252900Y603169D01*
X253965Y603134D01*
X254835Y603080D01*
X254941Y603116D01*
X255403Y603080D01*
X255545Y603045D01*
X255740Y602991D01*
X255953Y602956D01*
X258030Y602974D01*
X258492Y602938D01*
X258634Y602974D01*
X258811Y603045D01*
X259415Y603080D01*
X259521Y603116D01*
X259592Y603080D01*
X260000Y603098D01*
X260320Y603134D01*
X261101Y603169D01*
X261580Y603222D01*
X261829Y603258D01*
X261971Y603293D01*
X262273Y603382D01*
X262486Y603418D01*
X263213Y603471D01*
X263462Y603506D01*
X263817Y603542D01*
X263994Y603613D01*
X264314Y603755D01*
X264421Y603790D01*
X264953Y603826D01*
X265237Y603897D01*
X265450Y604039D01*
X265574Y604092D01*
X265840Y604145D01*
X266196Y604181D01*
X266391Y604234D01*
X266728Y604465D01*
X267048Y604500D01*
X267296Y604536D01*
X267651Y604784D01*
X267935Y604855D01*
X268184Y604891D01*
X268272Y604980D01*
X268468Y605139D01*
X268752Y605175D01*
X269000Y605246D01*
X269142Y605388D01*
X269266Y605477D01*
X269497Y605530D01*
X269639Y605565D01*
X269781Y605707D01*
X270030Y605849D01*
X270278Y605920D01*
X270491Y606133D01*
X270882Y606275D01*
X271024Y606417D01*
X271343Y606595D01*
X271521Y606772D01*
X271698Y606879D01*
X271947Y606950D01*
X272000Y607003D01*
X272036Y607074D01*
X272089Y607127D01*
X272337Y607270D01*
X272391Y607323D01*
X272426Y607394D01*
X272515Y607482D01*
X272692Y607589D01*
X272905Y607802D01*
X273225Y607980D01*
X273296Y608015D01*
X273385Y608139D01*
X273420Y610163D01*
X273314Y610411D01*
X273278Y610624D01*
X273314Y610873D01*
X273278Y611015D01*
X273189Y611317D01*
X273154Y611530D01*
X273172Y611760D01*
X273136Y611867D01*
X273065Y613181D01*
X273030Y613322D01*
X272976Y613482D01*
X272852Y613820D01*
X272817Y613926D01*
X272781Y614530D01*
X272710Y615027D01*
X272621Y615222D01*
X272515Y615506D01*
X272479Y615683D01*
X272426Y616305D01*
X272266Y616678D01*
X272142Y617015D01*
X272107Y617157D01*
X272071Y617725D01*
X271876Y618169D01*
X271787Y618399D01*
X271752Y618541D01*
X271716Y618896D01*
X271663Y619092D01*
X271521Y619305D01*
X271450Y619482D01*
X271397Y619819D01*
X271326Y620103D01*
X271184Y620316D01*
X271095Y620547D01*
X271042Y620956D01*
X270970Y621133D01*
X270900Y621204D01*
X270758Y621452D01*
X270722Y621772D01*
X270686Y621914D01*
X270616Y622091D01*
X270580Y622163D01*
X270473Y622269D01*
X270420Y622393D01*
X270385Y622571D01*
X270331Y622802D01*
X270083Y623192D01*
X270047Y623441D01*
X270012Y623583D01*
X269941Y623760D01*
X269834Y623867D01*
X269746Y623991D01*
X269692Y624257D01*
X269622Y624506D01*
X269568Y624559D01*
X269408Y624754D01*
X269373Y624967D01*
X269302Y625251D01*
X269195Y625358D01*
X269053Y625606D01*
Y625642D01*
X269036Y625695D01*
X268982Y625926D01*
X268894Y626015D01*
X268734Y626210D01*
X268627Y626636D01*
X268485Y626778D01*
X268397Y626902D01*
X268308Y627275D01*
X268166Y627417D01*
X268042Y627612D01*
X268006Y627754D01*
X267953Y627985D01*
X267811Y628127D01*
X267722Y628251D01*
X267669Y628446D01*
X267598Y628624D01*
X267349Y628872D01*
X267314Y629085D01*
X267278Y629227D01*
X267012Y629494D01*
X266923Y629866D01*
X266693Y630097D01*
X266568Y630434D01*
X266462Y630541D01*
X266320Y630789D01*
X266249Y630967D01*
X266213Y631038D01*
X266160Y631091D01*
X266089Y631127D01*
X266018Y631233D01*
X265929Y631464D01*
X265858Y631642D01*
X265805Y631659D01*
X265752Y631712D01*
X265663Y631837D01*
X265574Y632067D01*
X265361Y632281D01*
X265219Y632671D01*
X265166Y632724D01*
X265095Y632760D01*
X265042Y632813D01*
X264864Y633133D01*
X264829Y633204D01*
X264722Y633310D01*
X264616Y633488D01*
X264545Y633665D01*
X264296Y633914D01*
X264261Y633985D01*
X264190Y634162D01*
X264083Y634269D01*
X264048Y634340D01*
X263977Y634411D01*
X263941Y634482D01*
X263870Y634659D01*
X263657Y634872D01*
X263515Y635121D01*
X263338Y635298D01*
X263196Y635547D01*
X263107Y635706D01*
X263036Y635742D01*
X262983Y635831D01*
X262841Y636079D01*
X262663Y636257D01*
X262486Y636505D01*
X262450Y636576D01*
X262344Y636647D01*
X262308Y636718D01*
X262255Y636772D01*
X262166Y637002D01*
X261953Y637215D01*
X261811Y637464D01*
X261687Y637553D01*
X261527Y637748D01*
X261492Y637819D01*
X261403Y637908D01*
X261332Y637943D01*
X261278Y637996D01*
X261136Y638245D01*
X260959Y638422D01*
X260781Y638742D01*
X260604Y638919D01*
X260497Y639097D01*
X260373Y639221D01*
X260302Y639257D01*
X260178Y639417D01*
X260142Y639487D01*
X260018Y639612D01*
X259947Y639647D01*
X259894Y639700D01*
X259752Y639949D01*
X259503Y640198D01*
X259468Y640268D01*
X259219Y640517D01*
X259077Y640766D01*
X259042Y640836D01*
X258989Y640854D01*
X258722Y641121D01*
X258687Y641191D01*
X258634Y641209D01*
X258580Y641263D01*
X258438Y641511D01*
X258385Y641564D01*
X258314Y641600D01*
X258119Y641795D01*
X258083Y641866D01*
X258030Y641919D01*
X257959Y641955D01*
X257764Y642150D01*
X257728Y642221D01*
X257480Y642470D01*
X257444Y642541D01*
X257356Y642629D01*
X257285Y642665D01*
X257125Y642825D01*
X257089Y642896D01*
X257001Y642984D01*
X256929Y643020D01*
X256770Y643180D01*
X256734Y643251D01*
X256681Y643304D01*
X256610Y643339D01*
X256450Y643499D01*
X256415Y643570D01*
X256326Y643659D01*
X256255Y643694D01*
X256095Y643854D01*
X256060Y643925D01*
X256007Y643978D01*
X255935Y644014D01*
X255776Y644174D01*
X255740Y644245D01*
X255651Y644333D01*
X255581Y644369D01*
X255421Y644529D01*
X255385Y644600D01*
X255296Y644688D01*
X255225Y644724D01*
X255066Y644884D01*
X255030Y644955D01*
X254977Y645008D01*
X254906Y645043D01*
X254746Y645203D01*
X254711Y645274D01*
X254622Y645363D01*
X254551Y645398D01*
X254391Y645558D01*
X254356Y645629D01*
X254196Y645753D01*
X254125Y645789D01*
X254036Y645878D01*
X254001Y645949D01*
X253947Y646002D01*
X253876Y646038D01*
X253681Y646233D01*
X253646Y646304D01*
X253592Y646357D01*
X253521Y646393D01*
X253326Y646588D01*
X253291Y646659D01*
X253095Y646783D01*
X253024Y646819D01*
X252776Y647067D01*
X252705Y647103D01*
X252492Y647316D01*
X252243Y647458D01*
X252172Y647529D01*
X252101Y647564D01*
X252083Y647617D01*
X251959Y647742D01*
X251888Y647777D01*
X251693Y647972D01*
X251498Y648132D01*
X251427Y648168D01*
X251338Y648256D01*
X251303Y648327D01*
X251143Y648452D01*
X251072Y648487D01*
X250983Y648576D01*
X250947Y648647D01*
X250894Y648700D01*
X250717Y648807D01*
X250504Y649020D01*
X250326Y649126D01*
X250149Y649197D01*
X249971Y649375D01*
X249794Y649481D01*
X249510Y649765D01*
X249332Y649872D01*
X249279Y649925D01*
X249243Y649996D01*
X249190Y650049D01*
X248871Y650227D01*
X248729Y650369D01*
X248658Y650404D01*
X248587Y650475D01*
X248445Y650511D01*
X248196Y650759D01*
X248019Y650866D01*
X247806Y651079D01*
X247486Y651256D01*
X247344Y651398D01*
X247167Y651505D01*
X246989Y651576D01*
X246936Y651629D01*
X246900Y651700D01*
X246758Y651842D01*
X246528Y651931D01*
X246421Y652037D01*
X246226Y652162D01*
X245995Y652250D01*
X245942Y652304D01*
X245906Y652375D01*
X245817Y652463D01*
X245569Y652605D01*
X245391Y652783D01*
X245214Y652889D01*
X244965Y652960D01*
X244912Y653014D01*
X244877Y653085D01*
X244823Y653138D01*
X244575Y653280D01*
X244451Y653404D01*
X244415Y653475D01*
X244113Y653635D01*
X244042Y653670D01*
X243936Y653777D01*
X243616Y653954D01*
X243403Y654167D01*
X243226Y654274D01*
X243013Y654487D01*
X242693Y654665D01*
X242622Y654700D01*
X242516Y654807D01*
X242267Y654984D01*
X242196Y655020D01*
X242143Y655108D01*
X241948Y655268D01*
X241877Y655303D01*
X241752Y655428D01*
X241717Y655499D01*
X241486Y655659D01*
X241415Y655694D01*
X241362Y655747D01*
X241327Y655818D01*
X241273Y655836D01*
X241220Y655889D01*
X240865Y656067D01*
X240829Y656138D01*
X240634Y656298D01*
X240563Y656333D01*
X240439Y656457D01*
X240403Y656528D01*
X240244Y656653D01*
X240173Y656688D01*
X239924Y656937D01*
X239853Y656972D01*
X239729Y657096D01*
X239693Y657167D01*
X239605Y657256D01*
X239427Y657363D01*
X239214Y657576D01*
X239143Y657611D01*
X239019Y657735D01*
X238983Y657806D01*
X238859Y657931D01*
X238788Y657966D01*
X238664Y658090D01*
X238628Y658161D01*
X238540Y658250D01*
X238469Y658286D01*
X238309Y658445D01*
X238273Y658516D01*
X238185Y658605D01*
X238113Y658641D01*
X237989Y658765D01*
X237954Y658836D01*
X237865Y658925D01*
X237794Y658960D01*
X237705Y659049D01*
X237670Y659120D01*
X237474Y659315D01*
X237315Y659510D01*
X237279Y659582D01*
X236711Y660150D01*
X236676Y660220D01*
X236356Y660540D01*
X236321Y660611D01*
X236232Y660700D01*
X236161Y660735D01*
X236072Y660824D01*
X235966Y661002D01*
X235895Y661073D01*
X235859Y661144D01*
X235806Y661161D01*
X235753Y661215D01*
X235611Y661463D01*
X235540Y661534D01*
X235504Y661605D01*
X235433Y661676D01*
X235256Y661996D01*
X235202Y662049D01*
X235131Y662084D01*
X235043Y662173D01*
X234830Y662564D01*
X234794Y662635D01*
X234705Y662723D01*
X234617Y662954D01*
X234546Y663132D01*
X234404Y663274D01*
X234297Y663451D01*
X234226Y663700D01*
X233978Y663948D01*
X233942Y664268D01*
X233871Y664516D01*
X233782Y664605D01*
X233640Y664818D01*
X233587Y665084D01*
X233516Y665368D01*
X233480Y665475D01*
X233321Y665777D01*
X233285Y665919D01*
X233250Y666487D01*
X233197Y667037D01*
X233090Y667285D01*
X233055Y668066D01*
X233161Y668315D01*
X233197Y668706D01*
X233232Y668812D01*
X233267Y669380D01*
X233303Y669629D01*
X233410Y669877D01*
X233463Y669930D01*
X233534Y670108D01*
X233587Y670481D01*
X233658Y670658D01*
X233729Y670729D01*
X233765Y670800D01*
X233836Y670871D01*
X233978Y671226D01*
X234155Y671404D01*
X234262Y671581D01*
X234333Y671759D01*
X234457Y671883D01*
X234617Y672078D01*
X234652Y672149D01*
X234741Y672238D01*
X234812Y672273D01*
X234972Y672433D01*
X235007Y672504D01*
X235060Y672558D01*
X235131Y672593D01*
X235202Y672664D01*
X235273Y672700D01*
X235291Y672753D01*
X235415Y672877D01*
X235735Y673055D01*
X235806Y673090D01*
X235877Y673196D01*
X236196Y673374D01*
X236267Y673410D01*
X236321Y673463D01*
X236356Y673534D01*
X236481Y673623D01*
X236693Y673658D01*
X236978Y673729D01*
X237048Y673800D01*
X237120Y673836D01*
X237190Y673906D01*
X237439Y674048D01*
X237652Y674084D01*
X237794Y674119D01*
X237901Y674155D01*
X237971Y674191D01*
X238025Y674244D01*
X238202Y674315D01*
X238753Y674368D01*
X238895Y674404D01*
X239356Y674617D01*
X239640Y674652D01*
X239747Y674688D01*
X242835Y674723D01*
X242942Y674688D01*
D02*
G37*
G36*
X227694Y549952D02*
X228120Y549916D01*
X228528Y549863D01*
X228777Y549827D01*
X229167Y549650D01*
X229735Y549614D01*
X229984Y549543D01*
X230214Y549419D01*
X230392Y549348D01*
X230534Y549313D01*
X230836Y549259D01*
X231013Y549188D01*
X231084Y549117D01*
X231279Y548993D01*
X231510Y548940D01*
X231688Y548869D01*
X231759Y548798D01*
X231830Y548762D01*
X231901Y548691D01*
X232185Y548585D01*
X232362Y548514D01*
X232451Y548425D01*
X232646Y548265D01*
X232788Y548230D01*
X232859Y548159D01*
X232930Y548123D01*
X233001Y548052D01*
X233179Y547946D01*
X233356Y547875D01*
X233534Y547697D01*
X233605Y547662D01*
X233676Y547591D01*
X233818Y547555D01*
X233942Y547431D01*
X234279Y547200D01*
X234350Y547165D01*
X234492Y547023D01*
X234741Y546881D01*
X234954Y546668D01*
X235202Y546526D01*
X235415Y546313D01*
X235486Y546277D01*
X235682Y546082D01*
X235877Y545922D01*
X235948Y545887D01*
X236054Y545780D01*
X236374Y545532D01*
X236445Y545496D01*
X236765Y545177D01*
X236835Y545141D01*
X236889Y545088D01*
X236924Y545017D01*
X237084Y544857D01*
X237155Y544822D01*
X237244Y544733D01*
X237279Y544662D01*
X237439Y544502D01*
X237510Y544467D01*
X237563Y544413D01*
X237599Y544342D01*
X237794Y544147D01*
X237865Y544112D01*
X237918Y544058D01*
X237954Y543987D01*
X238113Y543828D01*
X238185Y543792D01*
X238238Y543739D01*
X238273Y543668D01*
X238486Y543455D01*
X238735Y543135D01*
X238770Y543064D01*
X239054Y542780D01*
X239090Y542709D01*
X239214Y542585D01*
X239374Y542390D01*
X239409Y542319D01*
X239587Y542141D01*
X239693Y541964D01*
X239942Y541715D01*
X240084Y541467D01*
X240261Y541289D01*
X240474Y540899D01*
X240652Y540721D01*
X240794Y540473D01*
X240936Y540331D01*
X241149Y539940D01*
X241255Y539834D01*
X241469Y539443D01*
X241504Y539372D01*
X241557Y539319D01*
X241628Y539283D01*
X241681Y539195D01*
X241824Y538804D01*
X242001Y538627D01*
X242108Y538343D01*
X242178Y538165D01*
X242285Y538059D01*
X242374Y537934D01*
X242463Y537704D01*
X242533Y537526D01*
X242605Y537455D01*
X242747Y537206D01*
X242817Y536922D01*
X242889Y536745D01*
X243013Y536621D01*
X243102Y536390D01*
X243137Y536248D01*
X243279Y535928D01*
X243368Y535804D01*
X243457Y535431D01*
X243528Y535254D01*
X243687Y534988D01*
X243741Y534792D01*
X243776Y534650D01*
X243812Y534402D01*
X243954Y534082D01*
X244060Y533798D01*
X244131Y533514D01*
X244167Y533159D01*
X244202Y533017D01*
X244309Y532769D01*
X244380Y532591D01*
X244415Y532307D01*
X244451Y532201D01*
X244486Y531526D01*
X244522Y531278D01*
X244557Y531171D01*
X244593Y530816D01*
X244628Y530674D01*
X244681Y530514D01*
X244717Y530372D01*
X244699Y528757D01*
X244735Y528651D01*
X244717Y528349D01*
X244681Y528136D01*
X244610Y527852D01*
X244575Y527674D01*
X244522Y527266D01*
X244486Y527124D01*
X244451Y526662D01*
X244415Y526414D01*
X244167Y525881D01*
X244131Y525384D01*
X244096Y525242D01*
X243989Y524994D01*
X243812Y524745D01*
X243776Y524319D01*
X243741Y524177D01*
X243492Y523929D01*
X243457Y523645D01*
X243421Y523396D01*
X243332Y523201D01*
X243173Y523006D01*
X243102Y522686D01*
X243066Y522544D01*
X243013Y522384D01*
X242835Y522100D01*
X242782Y521905D01*
X242747Y521763D01*
X242693Y521568D01*
X242463Y521231D01*
X242427Y521018D01*
X242391Y520876D01*
X242285Y520627D01*
X242125Y520325D01*
X242072Y520130D01*
X242001Y519882D01*
X241894Y519775D01*
X241859Y519704D01*
X241806Y519651D01*
X241717Y519278D01*
X241681Y519136D01*
X241575Y519030D01*
X241451Y518834D01*
X241397Y518568D01*
X241327Y518391D01*
X241291Y518320D01*
X241131Y518160D01*
X241078Y517965D01*
X241007Y517716D01*
X240794Y517503D01*
X240687Y517006D01*
X240492Y516811D01*
X240332Y516367D01*
X240261Y516296D01*
X240084Y516047D01*
X240048Y515905D01*
X239977Y515728D01*
X239942Y515657D01*
X239835Y515550D01*
X239711Y515355D01*
X239658Y515124D01*
X239480Y514947D01*
X239445Y514876D01*
X239374Y514805D01*
X239338Y514663D01*
X239232Y514556D01*
X238983Y514237D01*
X238948Y514166D01*
X238824Y514041D01*
X238664Y513846D01*
X238628Y513775D01*
X237918Y513065D01*
X237723Y512906D01*
X237474Y512763D01*
X237421Y512710D01*
X237386Y512639D01*
X237332Y512586D01*
X237084Y512444D01*
X236907Y512266D01*
X236782Y512178D01*
X236551Y512089D01*
X236445Y511982D01*
X236321Y511894D01*
X235983Y511769D01*
X235628Y511521D01*
X235309Y511450D01*
X235060Y511343D01*
X234989Y511308D01*
X234936Y511255D01*
X234759Y511184D01*
X234421Y511130D01*
X234279Y511095D01*
X233907Y510900D01*
X233765Y510864D01*
X233356Y510811D01*
X232877Y510758D01*
X232735Y510722D01*
X232433Y510669D01*
X232256Y510598D01*
X231830Y510562D01*
X231581Y510527D01*
X231475Y510491D01*
X228723Y510509D01*
X228404Y510545D01*
X228120Y510580D01*
X227854Y510633D01*
X227712Y510669D01*
X227356Y510775D01*
X227108Y510811D01*
X226540Y510846D01*
X226149Y511024D01*
X226025Y511077D01*
X225794Y511130D01*
X225439Y511166D01*
X224996Y511397D01*
X224800Y511450D01*
X224658Y511485D01*
X224356Y511574D01*
X224002Y511787D01*
X223771Y511840D01*
X223593Y511911D01*
X223433Y512071D01*
X223203Y512160D01*
X223025Y512231D01*
X222919Y512337D01*
X222528Y512551D01*
X222439Y512639D01*
X222102Y512870D01*
X222031Y512906D01*
X221854Y513083D01*
X221676Y513190D01*
X221428Y513438D01*
X221357Y513474D01*
X220789Y514041D01*
X220629Y514237D01*
X220593Y514308D01*
X220416Y514485D01*
X220274Y514734D01*
X220008Y515000D01*
X219919Y515231D01*
X219848Y515408D01*
X219777Y515479D01*
X219741Y515550D01*
X219688Y515604D01*
X219564Y515941D01*
X219333Y516385D01*
X219244Y516899D01*
X219173Y517183D01*
X219138Y517432D01*
X219067Y517609D01*
X219031Y518213D01*
X219067Y518461D01*
X219156Y518763D01*
X219226Y518941D01*
X219280Y519172D01*
X219368Y519402D01*
X219528Y519598D01*
X219670Y519846D01*
X219901Y520006D01*
X219972Y520041D01*
X220114Y520183D01*
X220238Y520272D01*
X220469Y520325D01*
X220860Y520503D01*
X221073Y520538D01*
X221250Y520609D01*
X223167Y520645D01*
X223274Y520609D01*
X223842Y520574D01*
X224161Y520432D01*
X224463Y520379D01*
X224942Y520325D01*
X225191Y520290D01*
X225546Y520254D01*
X225688Y520219D01*
X225990Y520130D01*
X226185Y520077D01*
X226362Y520006D01*
X226824Y519970D01*
X227072Y519935D01*
X227321Y519864D01*
X227498Y519793D01*
X227694Y519704D01*
X227960Y519651D01*
X228315Y519615D01*
X228563Y519580D01*
X228706Y519544D01*
X228954Y519473D01*
X229309Y519367D01*
X229416Y519331D01*
X229806Y519296D01*
X230055Y519260D01*
X230623Y519225D01*
X231013Y519047D01*
X231262Y519083D01*
X231404Y519047D01*
X231581Y518976D01*
X233782Y518941D01*
X233960Y518870D01*
X234226Y518887D01*
X234368Y518923D01*
X235717Y518959D01*
X236285Y518994D01*
X236516Y519083D01*
X236800Y519154D01*
X237102Y519243D01*
X237439Y519296D01*
X237794Y519331D01*
X238043Y519438D01*
X238113Y519473D01*
X238167Y519527D01*
X238344Y519598D01*
X238575Y519651D01*
X238824Y519722D01*
X238895Y519793D01*
X239214Y519970D01*
X239356Y520006D01*
X239534Y520077D01*
X239605Y520148D01*
X239853Y520290D01*
X240031Y520361D01*
X240208Y520538D01*
X240599Y520751D01*
X240652Y520805D01*
X240687Y520876D01*
X240865Y521053D01*
X240954Y521177D01*
X240989Y521319D01*
X240972Y521657D01*
X241007Y522118D01*
X240918Y522349D01*
X240847Y522527D01*
X240812Y523023D01*
X240758Y523254D01*
X240723Y523822D01*
X240687Y524071D01*
X240652Y524213D01*
X240563Y524444D01*
X240492Y524621D01*
X240457Y524763D01*
X240421Y524976D01*
X240368Y525313D01*
X240332Y525455D01*
X240119Y525917D01*
X240084Y526059D01*
X240048Y526307D01*
X239977Y526556D01*
X239835Y526769D01*
X239782Y526893D01*
X239747Y527035D01*
X239711Y527213D01*
X239658Y527444D01*
X239551Y527550D01*
X239516Y527621D01*
X239463Y527674D01*
X239374Y528047D01*
X239303Y528224D01*
X239232Y528296D01*
X239196Y528367D01*
X239143Y528420D01*
X239054Y528651D01*
X238983Y528935D01*
X238841Y529148D01*
X238593Y529609D01*
X238557Y529680D01*
X238451Y529787D01*
X238344Y530071D01*
X238273Y530248D01*
X238220Y530301D01*
X238060Y530497D01*
X238025Y530639D01*
X237954Y530816D01*
X237812Y530958D01*
X237687Y531153D01*
X237599Y531384D01*
X237457Y531526D01*
X237244Y531917D01*
X237208Y531988D01*
X237155Y532006D01*
X237102Y532059D01*
X236924Y532378D01*
X236889Y532449D01*
X236747Y532591D01*
X236605Y532840D01*
X236481Y532964D01*
X236250Y533301D01*
X236214Y533372D01*
X236072Y533514D01*
X235930Y533763D01*
X235806Y533887D01*
X235646Y534082D01*
X235611Y534153D01*
X235415Y534349D01*
X235256Y534544D01*
X235220Y534615D01*
X235096Y534704D01*
X234936Y534899D01*
X234901Y534970D01*
X234812Y535059D01*
X234741Y535094D01*
X234723Y535147D01*
X234617Y535254D01*
X234581Y535325D01*
X234120Y535786D01*
X234031Y535911D01*
X233871Y536106D01*
X233836Y536177D01*
X233782Y536230D01*
X233711Y536266D01*
X233658Y536319D01*
X233622Y536390D01*
X233552Y536461D01*
X233516Y536532D01*
X233463Y536585D01*
X233392Y536621D01*
X233321Y536692D01*
X233250Y536727D01*
X233197Y536781D01*
X233161Y536852D01*
X233001Y536976D01*
X232930Y537011D01*
X232859Y537082D01*
X232788Y537118D01*
X232309Y537597D01*
X232114Y537757D01*
X232043Y537792D01*
X231989Y537845D01*
X231954Y537917D01*
X231794Y538041D01*
X231723Y538076D01*
X231528Y538272D01*
X231333Y538431D01*
X231262Y538467D01*
X231173Y538591D01*
X230978Y538751D01*
X230907Y538786D01*
X230729Y538964D01*
X230481Y539106D01*
X230427Y539159D01*
X230232Y539319D01*
X229984Y539461D01*
X229913Y539496D01*
X229895Y539550D01*
X229771Y539674D01*
X229522Y539816D01*
X229451Y539851D01*
X229345Y539958D01*
X229096Y540100D01*
X228936Y540189D01*
X228848Y540313D01*
X228528Y540490D01*
X228404Y540615D01*
X228067Y540845D01*
X227995Y540881D01*
X227854Y541023D01*
X227605Y541165D01*
X227481Y541289D01*
X227285Y541449D01*
X227215Y541484D01*
X226966Y541733D01*
X226895Y541768D01*
X226682Y541982D01*
X226433Y542159D01*
X226362Y542195D01*
X225617Y542940D01*
X225546Y542976D01*
X225528Y543029D01*
X225297Y543260D01*
X225226Y543295D01*
X225191Y543366D01*
X225031Y543561D01*
X224996Y543632D01*
X224871Y543757D01*
X224712Y543952D01*
X224676Y544023D01*
X224499Y544200D01*
X224321Y544520D01*
X224179Y544662D01*
X224090Y544786D01*
X224037Y544981D01*
X223948Y545212D01*
X223789Y545407D01*
X223717Y545585D01*
X223682Y545940D01*
X223647Y546189D01*
X223575Y546366D01*
X223593Y547307D01*
X223664Y547591D01*
X223717Y547893D01*
X223789Y548141D01*
X223895Y548248D01*
X224073Y548567D01*
X224197Y548691D01*
X224268Y548727D01*
X224286Y548780D01*
X224516Y549011D01*
X224587Y549046D01*
X224605Y549100D01*
X224694Y549188D01*
X224765Y549224D01*
X224818Y549277D01*
X225049Y549366D01*
X225155Y549472D01*
X225226Y549508D01*
X225297Y549579D01*
X225510Y549614D01*
X225794Y549685D01*
X226203Y549810D01*
X226345Y549845D01*
X226362Y549863D01*
X226469D01*
X226575Y549898D01*
X227072Y549934D01*
X227215Y549969D01*
X227356Y549934D01*
X227463Y549969D01*
X227498Y549934D01*
X227570Y549969D01*
X227694Y549952D01*
D02*
G37*
G36*
X211718Y548922D02*
X211860Y548887D01*
X211878Y548869D01*
X212339D01*
X212588Y548762D01*
X212641Y548709D01*
X212872Y548620D01*
X213227Y548585D01*
X213369Y548549D01*
X213511Y548407D01*
X213635Y548319D01*
X213866Y548230D01*
X213937Y548159D01*
X214008Y548123D01*
X214025Y548070D01*
X214256Y547910D01*
X214327Y547875D01*
X214380Y547822D01*
X214487Y547644D01*
X214558Y547573D01*
X214594Y547502D01*
X214753Y547342D01*
X214842Y547112D01*
X214913Y546934D01*
X215073Y546774D01*
X215144Y546597D01*
X215179Y546277D01*
X215215Y546064D01*
X215250Y545922D01*
X215304Y545620D01*
X215268Y545159D01*
X215304Y545052D01*
X215286Y544680D01*
X215162Y544342D01*
X215126Y543881D01*
X215055Y543703D01*
X214984Y543632D01*
X214807Y543313D01*
X214594Y543100D01*
X214487Y542922D01*
X214185Y542621D01*
X213937Y542443D01*
X213866Y542407D01*
X213813Y542354D01*
X213777Y542283D01*
X213635Y542177D01*
X213404Y542123D01*
X213227Y542052D01*
X213156Y542017D01*
X213085Y541946D01*
X212960Y541857D01*
X212818Y541822D01*
X212179Y541786D01*
X211895Y541715D01*
X211310Y541662D01*
X211061Y541768D01*
X210493Y541804D01*
X210245Y541839D01*
X209996Y541946D01*
X209801Y542070D01*
X209570Y542159D01*
X209393Y542230D01*
X209304Y542319D01*
X208967Y542550D01*
X208895Y542585D01*
X208807Y542674D01*
X208771Y542745D01*
X208647Y542869D01*
X208487Y543064D01*
X208310Y543384D01*
X208274Y543455D01*
X208168Y543526D01*
X208043Y543721D01*
X207990Y544023D01*
X207955Y544165D01*
X207866Y544325D01*
X207777Y544555D01*
X207742Y544662D01*
X207759Y545141D01*
X207742Y545762D01*
X207777Y546011D01*
X207901Y546313D01*
X207972Y546490D01*
X208026Y546721D01*
X208097Y546969D01*
X208203Y547076D01*
X208416Y547467D01*
X208629Y547680D01*
X208665Y547751D01*
X208736Y547822D01*
X208931Y547981D01*
X209002Y548017D01*
X209144Y548159D01*
X209464Y548336D01*
X209534Y548372D01*
X209606Y548443D01*
X209854Y548585D01*
X210209Y548620D01*
X210671Y548833D01*
X211345Y548904D01*
X211452Y548940D01*
X211718Y548922D01*
D02*
G37*
G36*
X201085Y548904D02*
X201582Y548869D01*
X201724Y548833D01*
X202097Y548674D01*
X202239Y548638D01*
X202416Y548603D01*
X202647Y548549D01*
X202700Y548496D01*
X202896Y548336D01*
X202967Y548301D01*
X203215Y548194D01*
X203393Y548017D01*
X203464Y547981D01*
X203588Y547857D01*
X203624Y547786D01*
X203801Y547609D01*
X203979Y547360D01*
X204014Y547289D01*
X204067Y547271D01*
X204121Y547218D01*
X204263Y546969D01*
X204298Y546828D01*
X204405Y546579D01*
X204582Y546259D01*
X204618Y545052D01*
Y545017D01*
X204582Y544662D01*
X204547Y544200D01*
X204475Y544023D01*
X204405Y543952D01*
X204263Y543703D01*
X204191Y543455D01*
X204085Y543348D01*
X203872Y542958D01*
X203819Y542905D01*
X203748Y542869D01*
X203588Y542709D01*
X203499Y542585D01*
X203180Y542407D01*
X203109Y542372D01*
X203002Y542266D01*
X202754Y542123D01*
X202505Y542017D01*
X202186Y541839D01*
X201689Y541804D01*
X201334Y541768D01*
X201138Y541715D01*
X200872Y541662D01*
X200446Y541733D01*
X200340Y541768D01*
X199807Y541804D01*
X199559Y541839D01*
X199310Y541946D01*
X198990Y542123D01*
X198706Y542195D01*
X198529Y542372D01*
X198351Y542478D01*
X198280Y542550D01*
X198103Y542763D01*
X198032Y542798D01*
X197925Y542905D01*
X197766Y543100D01*
X197730Y543171D01*
X197535Y543366D01*
X197446Y543597D01*
X197375Y543845D01*
X197198Y544094D01*
X197162Y544236D01*
X197127Y544342D01*
X197091Y545265D01*
X197144Y546313D01*
X197198Y546508D01*
X197269Y546579D01*
X197393Y546774D01*
X197446Y547005D01*
X197517Y547183D01*
X197730Y547396D01*
X197766Y547467D01*
X198085Y547786D01*
X198121Y547857D01*
X198174Y547910D01*
X198245Y547946D01*
X198422Y548123D01*
X198671Y548265D01*
X198848Y548336D01*
X198955Y548443D01*
X199150Y548567D01*
X199292Y548603D01*
X199505Y548638D01*
X199701Y548691D01*
X199914Y548833D01*
X200340Y548869D01*
X200446Y548904D01*
X200979Y548940D01*
X201085Y548904D01*
D02*
G37*
G36*
X173181Y547839D02*
X173323Y547626D01*
X173482Y547431D01*
X173518Y543419D01*
Y543384D01*
Y542248D01*
X173482Y541999D01*
X173305Y541822D01*
X173269Y541751D01*
X173074Y541555D01*
X172861Y541520D01*
X172755Y541555D01*
X162761Y541538D01*
X162211Y541555D01*
X162033Y541484D01*
X161944Y541360D01*
X161909Y541076D01*
X161944Y540828D01*
X161909Y540721D01*
X161926Y513225D01*
X161909Y512781D01*
X161838Y512604D01*
X161802Y512533D01*
X161660Y512213D01*
X161465Y512089D01*
X161252Y512053D01*
X161145Y512018D01*
X160808Y512036D01*
X156424Y512018D01*
X156317Y512053D01*
X155785Y512018D01*
X155501Y512089D01*
X155305Y512178D01*
X155163Y512426D01*
X155128Y512533D01*
X155092Y512994D01*
X155057Y513101D01*
X155075Y513331D01*
X155057Y540650D01*
X155092Y541112D01*
X155057Y541360D01*
X154933Y541484D01*
X154791Y541520D01*
X154684Y541555D01*
X154311Y541538D01*
X144531Y541555D01*
X144424Y541520D01*
X143963Y541555D01*
X143785Y541627D01*
X143696Y541715D01*
X143519Y542035D01*
X143483Y547218D01*
X143554Y547502D01*
X143661Y547751D01*
X143785Y547875D01*
X173003Y547910D01*
X173181Y547839D01*
D02*
G37*
G36*
X180245Y537792D02*
X180423Y537721D01*
X181168Y537686D01*
X181523Y537650D01*
X181772Y537544D01*
X182021Y537402D01*
X182624Y537331D01*
X182873Y537224D01*
X182961Y537136D01*
X183192Y537047D01*
X183334Y537011D01*
X183583Y536940D01*
X183671Y536852D01*
X183884Y536710D01*
X184115Y536656D01*
X184293Y536585D01*
X184399Y536479D01*
X184790Y536266D01*
X184843Y536213D01*
X184879Y536141D01*
X184967Y536088D01*
X185287Y535911D01*
X185358Y535875D01*
X185464Y535769D01*
X185713Y535591D01*
X185872Y535396D01*
X186085Y535254D01*
X186121Y535183D01*
X186352Y534952D01*
X186423Y534917D01*
X186441Y534863D01*
X186511Y534792D01*
X186547Y534721D01*
X186600Y534668D01*
X186778Y534562D01*
X186955Y534384D01*
X187026Y534349D01*
X187133Y534384D01*
X187115Y534863D01*
X187186Y535041D01*
X187222Y536781D01*
X187293Y537029D01*
X187435Y537171D01*
X187630Y537331D01*
X192707Y537366D01*
X192955Y537331D01*
X193115Y537171D01*
X193150Y537100D01*
X193292Y536958D01*
X193328Y512604D01*
X193221Y512355D01*
X193062Y512195D01*
X192991Y512160D01*
X192937Y512107D01*
X192742Y512053D01*
X192636Y512018D01*
X192423Y512053D01*
X192316Y512018D01*
X192156Y512036D01*
X188411Y512018D01*
X187843Y512053D01*
X187736Y512018D01*
X187399Y512036D01*
X187257Y512071D01*
X187062Y512124D01*
X186938Y512249D01*
X186831Y512533D01*
X186796Y512639D01*
X186760Y525562D01*
X186796Y525810D01*
X186760Y525952D01*
X186654Y526201D01*
X186618Y526591D01*
X186583Y526698D01*
X186547Y527337D01*
X186441Y527585D01*
X186263Y527905D01*
X186227Y528047D01*
X186192Y528296D01*
X186121Y528544D01*
X186068Y528597D01*
X185926Y528810D01*
X185802Y529148D01*
X185660Y529290D01*
X185518Y529538D01*
X185446Y529716D01*
X185393Y529769D01*
X185322Y529804D01*
X185163Y530035D01*
X185127Y530106D01*
X185074Y530159D01*
X185003Y530195D01*
X184879Y530319D01*
X184843Y530390D01*
X184648Y530550D01*
X184577Y530585D01*
X184399Y530763D01*
X184009Y530976D01*
X183867Y531118D01*
X183742Y531207D01*
X183547Y531260D01*
X183370Y531331D01*
X183299Y531367D01*
X183157Y531508D01*
X183032Y531562D01*
X182731Y531615D01*
X182589Y531651D01*
X182411Y531721D01*
X182092Y531899D01*
X180245Y531935D01*
X179784Y531899D01*
X179535Y531864D01*
X179145Y531686D01*
X178967Y531615D01*
X178541Y531544D01*
X178364Y531367D01*
X178044Y531189D01*
X177796Y530940D01*
X177725Y530905D01*
X177459Y530639D01*
X177352Y530461D01*
X177281Y530390D01*
X177246Y530319D01*
X177192Y530301D01*
X177104Y530213D01*
X177015Y530088D01*
X176961Y529893D01*
X176891Y529716D01*
X176731Y529556D01*
X176660Y529378D01*
X176607Y529041D01*
X176535Y528793D01*
X176447Y528633D01*
X176340Y528349D01*
X176305Y527745D01*
X176269Y527461D01*
X176234Y527248D01*
X176252Y512959D01*
X176180Y512675D01*
X176038Y512355D01*
X175950Y512195D01*
X175879Y512160D01*
X175826Y512107D01*
X175559Y512053D01*
X175453Y512018D01*
X175115Y512036D01*
X171370Y512018D01*
X170802Y512053D01*
X170660Y512018D01*
X170198Y512053D01*
X169950Y512124D01*
X169897Y512178D01*
X169790Y512355D01*
X169613Y512604D01*
X169577Y528899D01*
X169613Y529254D01*
X169684Y529432D01*
X169719Y530000D01*
X169755Y530142D01*
X169826Y530319D01*
X169861Y531029D01*
X169897Y531278D01*
X169932Y531420D01*
X170092Y531792D01*
X170163Y531970D01*
X170216Y532414D01*
X170287Y532591D01*
X170429Y532804D01*
X170482Y532929D01*
X170536Y533124D01*
X170607Y533372D01*
X170678Y533443D01*
X170713Y533514D01*
X170837Y533674D01*
X170891Y533869D01*
X171068Y534118D01*
X171210Y534366D01*
X171299Y534526D01*
X171370Y534562D01*
X171441Y534633D01*
X171618Y534917D01*
X171689Y534952D01*
X171885Y535147D01*
X171920Y535218D01*
X171973Y535272D01*
X172045Y535307D01*
X172204Y535467D01*
X172240Y535538D01*
X172328Y535627D01*
X172400Y535662D01*
X172559Y535822D01*
X172595Y535893D01*
X172790Y536017D01*
X172861Y536053D01*
X172950Y536141D01*
X172985Y536213D01*
X173110Y536301D01*
X173287Y536372D01*
X173536Y536550D01*
X173713Y536656D01*
X173962Y536763D01*
X174033Y536798D01*
X174050Y536852D01*
X174104Y536869D01*
X174175Y536940D01*
X174299Y536993D01*
X174476Y537029D01*
X174618Y537065D01*
X174636Y537082D01*
X174707D01*
X174956Y537260D01*
X175080Y537313D01*
X175488Y537366D01*
X175630Y537402D01*
X176092Y537615D01*
X176198Y537650D01*
X176660Y537686D01*
X176766Y537721D01*
X176837Y537686D01*
X177299Y537721D01*
X177476Y537792D01*
X179890Y537828D01*
X180245Y537792D01*
D02*
G37*
G36*
X96213Y548549D02*
X96266Y548496D01*
X96301Y548425D01*
X96355Y548372D01*
X96514Y548177D01*
X96550Y537491D01*
Y537455D01*
Y512675D01*
X96479Y512426D01*
X96408Y512355D01*
X96372Y512284D01*
X96301Y512249D01*
X96106Y512089D01*
X95787Y512018D01*
X95680Y512053D01*
X95574Y512018D01*
X95378Y512036D01*
X91704Y512018D01*
X91029Y512053D01*
X90923Y512018D01*
X90621Y512036D01*
X90390Y512089D01*
X90213Y512160D01*
X90142Y512266D01*
X90053Y512497D01*
X90017Y512604D01*
X89982Y525952D01*
X89893Y526183D01*
X89840Y526449D01*
X89804Y526556D01*
X89769Y527230D01*
X89733Y527373D01*
X89627Y527621D01*
X89538Y527745D01*
X89449Y527976D01*
X89378Y528402D01*
X89307Y528580D01*
X89236Y528651D01*
X89201Y528722D01*
X89148Y528775D01*
X89059Y529006D01*
X88988Y529183D01*
X88846Y529325D01*
X88739Y529503D01*
X88704Y529645D01*
X88526Y529822D01*
X88349Y530071D01*
X88313Y530142D01*
X88260Y530159D01*
X88029Y530390D01*
X87994Y530461D01*
X87799Y530585D01*
X87728Y530621D01*
X87497Y530852D01*
X87266Y530940D01*
X87035Y531171D01*
X86805Y531260D01*
X86627Y531331D01*
X86556Y531367D01*
X86485Y531437D01*
X86236Y531580D01*
X85882Y531615D01*
X85562Y531757D01*
X85313Y531899D01*
X83325Y531935D01*
X83077Y531899D01*
X82722Y531864D01*
X82313Y531668D01*
X81941Y531580D01*
X81692Y531508D01*
X81479Y531296D01*
X81231Y531153D01*
X81160Y531118D01*
X81142Y531065D01*
X81089Y531011D01*
X81018Y530976D01*
X80716Y530674D01*
X80467Y530355D01*
X80432Y530284D01*
X80361Y530248D01*
X80183Y529929D01*
X80095Y529733D01*
X79935Y529538D01*
X79882Y529414D01*
X79828Y529006D01*
X79580Y528473D01*
X79544Y528367D01*
X79509Y527585D01*
X79473Y527479D01*
X79438Y512746D01*
X79331Y512497D01*
X79189Y512249D01*
X78994Y512089D01*
X78781Y512053D01*
X78675Y512018D01*
X78337Y512036D01*
X74379Y512018D01*
X74130Y512053D01*
X73775Y512018D01*
X73420Y512053D01*
X73172Y512124D01*
X73119Y512178D01*
X72941Y512426D01*
X72906Y512497D01*
X72852Y512551D01*
X72781Y512728D01*
X72799Y529041D01*
X72835Y529183D01*
X72906Y529361D01*
X72941Y529680D01*
X72906Y529929D01*
X73012Y530177D01*
X73047Y530497D01*
X73083Y531171D01*
X73154Y531455D01*
X73367Y531917D01*
X73438Y532414D01*
X73545Y532662D01*
X73580Y532733D01*
X73633Y532786D01*
X73704Y532964D01*
X73758Y533230D01*
X73829Y533408D01*
X73935Y533514D01*
X74148Y533905D01*
X74184Y533976D01*
X74290Y534082D01*
X74397Y534260D01*
X74468Y534437D01*
X74645Y534615D01*
X74840Y534917D01*
X74911Y534952D01*
X75036Y535076D01*
X75071Y535147D01*
X75231Y535307D01*
X75302Y535343D01*
X75391Y535431D01*
X75426Y535502D01*
X75550Y535627D01*
X75621Y535662D01*
X75710Y535751D01*
X75746Y535822D01*
X75834Y535911D01*
X76083Y536053D01*
X76260Y536230D01*
X76580Y536408D01*
X76687Y536514D01*
X77006Y536692D01*
X77148Y536727D01*
X77290Y536869D01*
X77414Y536958D01*
X77610Y537011D01*
X77751Y537047D01*
X78071Y537189D01*
X78266Y537313D01*
X78746Y537366D01*
X79207Y537579D01*
X79385Y537650D01*
X79882Y537686D01*
X80450Y537721D01*
X80592Y537757D01*
X80698Y537792D01*
X83254Y537828D01*
X83396Y537792D01*
X83503Y537757D01*
X83822Y537721D01*
X83929Y537686D01*
X84089Y537704D01*
X84355Y537686D01*
X84710Y537650D01*
X84852Y537615D01*
X85171Y537473D01*
X85402Y537384D01*
X85846Y537331D01*
X86041Y537242D01*
X86325Y537065D01*
X86556Y537011D01*
X86805Y536940D01*
X86911Y536834D01*
X87106Y536710D01*
X87302Y536656D01*
X87479Y536585D01*
X87550Y536550D01*
X87692Y536408D01*
X87763Y536372D01*
X87941Y536301D01*
X88118Y536124D01*
X88242Y536035D01*
X88473Y535946D01*
X88651Y535769D01*
X88899Y535627D01*
X88988Y535538D01*
X89023Y535467D01*
X89112Y535378D01*
X89183Y535343D01*
X89343Y535183D01*
X89378Y535112D01*
X89467Y535023D01*
X89662Y534899D01*
X89858Y534739D01*
X89982Y534757D01*
X90017Y534863D01*
X89982Y535112D01*
X89946Y535218D01*
X89964Y535307D01*
X90000Y547910D01*
X90088Y548319D01*
X90159Y548496D01*
X90284Y548585D01*
X96035Y548620D01*
X96213Y548549D01*
D02*
G37*
G36*
X322590Y537845D02*
X322732Y537810D01*
X322910Y537739D01*
X323549Y537704D01*
X324099Y537650D01*
X324241Y537615D01*
X324490Y537544D01*
X324543Y537491D01*
X324720Y537420D01*
X324898Y537384D01*
X325413Y537331D01*
X325803Y537082D01*
X326123Y537011D01*
X326265Y536976D01*
X326442Y536905D01*
X326549Y536798D01*
X326673Y536710D01*
X326815Y536674D01*
X327046Y536621D01*
X327099Y536567D01*
X327294Y536408D01*
X327365Y536372D01*
X327614Y536266D01*
X327720Y536159D01*
X328111Y535946D01*
X328182Y535911D01*
X328253Y535804D01*
X328501Y535662D01*
X328697Y535467D01*
X328892Y535307D01*
X328963Y535272D01*
X330259Y533976D01*
X330454Y533674D01*
X330578Y533585D01*
X330720Y533337D01*
X330898Y533159D01*
X331022Y532964D01*
X331075Y532769D01*
X331164Y532680D01*
X331342Y532467D01*
X331466Y532130D01*
X331537Y532059D01*
X331714Y531739D01*
X331750Y531597D01*
X331821Y531420D01*
X331927Y531313D01*
X331963Y531242D01*
X332016Y531189D01*
X332052Y531047D01*
X332087Y530834D01*
X332140Y530639D01*
X332193Y530585D01*
X332353Y530390D01*
X332389Y530248D01*
X332424Y529893D01*
X332708Y529290D01*
X332744Y528686D01*
X332779Y528544D01*
X332850Y528367D01*
X332992Y528118D01*
X333028Y527834D01*
X333063Y527728D01*
X333099Y526556D01*
X333134Y526307D01*
X333170Y526201D01*
X333205Y523609D01*
X333241Y523361D01*
X333188Y523166D01*
X333117Y522988D01*
X333063Y521834D01*
X333028Y521586D01*
X332975Y521390D01*
X332939Y521248D01*
X332833Y520964D01*
X332797Y520822D01*
X332744Y520521D01*
X332708Y520166D01*
X332673Y520024D01*
X332478Y519651D01*
X332442Y519509D01*
X332389Y519172D01*
X332318Y518923D01*
X332140Y518675D01*
X332087Y518550D01*
X332034Y518248D01*
X331998Y518106D01*
X331856Y517965D01*
X331750Y517787D01*
X331714Y517645D01*
X331643Y517397D01*
X331501Y517254D01*
X331395Y517077D01*
X331288Y516828D01*
X331182Y516722D01*
X331075Y516544D01*
X331004Y516367D01*
X330791Y516154D01*
X330649Y515905D01*
X330560Y515817D01*
X330401Y515621D01*
X330365Y515550D01*
X330294Y515479D01*
X330259Y515408D01*
X330117Y515266D01*
X329975Y515018D01*
X329921Y514965D01*
X329850Y514929D01*
X329655Y514734D01*
X329620Y514663D01*
X329566Y514610D01*
X329495Y514574D01*
X329424Y514503D01*
X329353Y514468D01*
X329336Y514414D01*
X329211Y514290D01*
X329034Y514184D01*
X328963Y514113D01*
X328892Y514077D01*
X328874Y514024D01*
X328750Y513935D01*
X328501Y513793D01*
X328324Y513615D01*
X328075Y513474D01*
X327845Y513243D01*
X327614Y513154D01*
X327436Y513083D01*
X327330Y512976D01*
X327081Y512835D01*
X326975Y512799D01*
X326833Y512763D01*
X326744Y512675D01*
X326531Y512533D01*
X326265Y512479D01*
X326016Y512408D01*
X325963Y512355D01*
X325768Y512195D01*
X325413Y512160D01*
X325129Y512089D01*
X324756Y511894D01*
X324614Y511858D01*
X324259Y511823D01*
X323939Y511787D01*
X323655Y511716D01*
X323425Y511663D01*
X323247Y511592D01*
X322750Y511556D01*
X322501Y511521D01*
X322395Y511485D01*
X320496Y511503D01*
X320176Y511539D01*
X319821Y511574D01*
X319519Y511627D01*
X319377Y511663D01*
X319076Y511787D01*
X318419Y511840D01*
X318135Y511911D01*
X317780Y512124D01*
X317460Y512160D01*
X317176Y512231D01*
X317017Y512391D01*
X316786Y512479D01*
X316502Y512551D01*
X316306Y512746D01*
X316129Y512817D01*
X315898Y512870D01*
X315721Y513047D01*
X315401Y513225D01*
X315330Y513260D01*
X315188Y513402D01*
X314869Y513580D01*
X314620Y513829D01*
X314549Y513864D01*
X314478Y513935D01*
X314407Y513970D01*
X314389Y514024D01*
X314230Y514148D01*
X314159Y514184D01*
X314034Y514308D01*
X313999Y514379D01*
X313786Y514592D01*
X313679Y514769D01*
X313555Y514894D01*
X313307Y514929D01*
X313218Y514805D01*
X313253Y514272D01*
X313218Y514024D01*
X313129Y513793D01*
X313093Y513615D01*
X313111Y512675D01*
X313005Y512426D01*
X312969Y512284D01*
X312845Y512160D01*
X312561Y512053D01*
X312454Y512018D01*
X312117Y512036D01*
X308798Y512018D01*
X308123Y512053D01*
X308017Y512018D01*
X307555Y512053D01*
X307307Y512124D01*
X307218Y512213D01*
X307111Y512391D01*
X307076Y514450D01*
Y514485D01*
Y536567D01*
X307041Y536674D01*
X307076Y536852D01*
X307253Y537242D01*
X307342Y537331D01*
X312596Y537366D01*
X312845Y537295D01*
X312916Y537224D01*
X312987Y537047D01*
X313040Y536816D01*
X313076Y536710D01*
X313111Y535644D01*
X313147Y535502D01*
X313218Y535325D01*
X313253Y534934D01*
X313218Y534828D01*
X313253Y534544D01*
X313307Y534491D01*
X313519Y534455D01*
X313644Y534579D01*
X313679Y534650D01*
X313750Y534721D01*
X313786Y534792D01*
X314549Y535556D01*
X314869Y535733D01*
X315046Y535911D01*
X315295Y536053D01*
X315472Y536230D01*
X315596Y536319D01*
X315827Y536408D01*
X315934Y536514D01*
X316182Y536656D01*
X316324Y536692D01*
X316502Y536763D01*
X316573Y536798D01*
X316644Y536869D01*
X316839Y536993D01*
X317176Y537047D01*
X317372Y537136D01*
X317584Y537313D01*
X317993Y537366D01*
X318241Y537437D01*
X318703Y537650D01*
X319058Y537686D01*
X319732Y537721D01*
X319981Y537757D01*
X320087Y537792D01*
X322430Y537828D01*
X322537Y537863D01*
X322590Y537845D01*
D02*
G37*
G36*
X292680Y537828D02*
X292857Y537757D01*
X293035Y537721D01*
X293816Y537686D01*
X294295Y537632D01*
X294526Y537579D01*
X294774Y537473D01*
X295005Y537384D01*
X295520Y537331D01*
X295751Y537242D01*
X296035Y537065D01*
X296408Y537011D01*
X296550Y536976D01*
X296745Y536887D01*
X297029Y536710D01*
X297260Y536656D01*
X297437Y536585D01*
X297597Y536426D01*
X298041Y536266D01*
X298112Y536195D01*
X298183Y536159D01*
X298342Y536035D01*
X298538Y535982D01*
X298715Y535804D01*
X299106Y535591D01*
X299248Y535449D01*
X299496Y535307D01*
X299763Y535041D01*
X299976Y534899D01*
X300011Y534828D01*
X300171Y534668D01*
X300242Y534633D01*
X300331Y534544D01*
X300366Y534473D01*
X300490Y534349D01*
X300561Y534313D01*
X300686Y534189D01*
X300721Y534118D01*
X300845Y533994D01*
X300916Y533958D01*
X301005Y533869D01*
X301041Y533798D01*
X301289Y533550D01*
X301396Y533372D01*
X301609Y533159D01*
X301786Y532840D01*
X301928Y532698D01*
X302141Y532307D01*
X302212Y532236D01*
X302390Y531988D01*
X302425Y531846D01*
X302496Y531668D01*
X302674Y531491D01*
X302745Y531313D01*
X302816Y531029D01*
X302958Y530887D01*
X302993Y530816D01*
X303046Y530763D01*
X303100Y530497D01*
X303135Y530355D01*
X303188Y530195D01*
X303366Y529911D01*
X303402Y529769D01*
X303455Y529361D01*
X303561Y529112D01*
X303632Y529041D01*
X303721Y528810D01*
X303757Y528526D01*
X303792Y528207D01*
X303845Y527869D01*
X303916Y527621D01*
X304058Y527301D01*
X304094Y526236D01*
X304129Y526130D01*
X304112Y523094D01*
X304076Y522384D01*
X304023Y522047D01*
X303952Y521763D01*
X303810Y521408D01*
X303774Y520911D01*
X303739Y520663D01*
X303703Y520521D01*
X303632Y520343D01*
X303526Y520166D01*
X303455Y519988D01*
X303419Y519633D01*
X303348Y519385D01*
X303242Y519278D01*
X303135Y519100D01*
X303100Y518959D01*
X303064Y518710D01*
X303029Y518568D01*
X302780Y518213D01*
X302745Y518071D01*
X302674Y517893D01*
X302638Y517822D01*
X302567Y517752D01*
X302319Y517290D01*
X302283Y517219D01*
X302212Y517148D01*
X302123Y517024D01*
X302035Y516793D01*
X301822Y516580D01*
X301680Y516331D01*
X301644Y516260D01*
X301591Y516243D01*
X301360Y515941D01*
X301325Y515870D01*
X301200Y515746D01*
X301041Y515550D01*
X301005Y515479D01*
X300171Y514645D01*
X299851Y514468D01*
X299798Y514414D01*
X299763Y514343D01*
X299567Y514184D01*
X299496Y514148D01*
X299319Y513970D01*
X299070Y513829D01*
X298946Y513704D01*
X298751Y513545D01*
X298609Y513509D01*
X298414Y513420D01*
X298378Y513349D01*
X298218Y513225D01*
X297863Y513083D01*
X297792Y513047D01*
X297721Y512976D01*
X297544Y512870D01*
X297402Y512835D01*
X297171Y512746D01*
X296887Y512568D01*
X296514Y512479D01*
X296372Y512444D01*
X296159Y512302D01*
X296035Y512213D01*
X295769Y512160D01*
X295414Y512124D01*
X295041Y511965D01*
X294863Y511894D01*
X294686Y511858D01*
X294402Y511823D01*
X293940Y511787D01*
X293798Y511752D01*
X293426Y511698D01*
X293177Y511592D01*
X292928Y511556D01*
X292360Y511521D01*
X292254Y511485D01*
X289929Y511503D01*
X289715Y511539D01*
X289112Y511574D01*
X288881Y511627D01*
X288739Y511663D01*
X288438Y511752D01*
X288295Y511787D01*
X287532Y511840D01*
X287142Y511947D01*
X287088Y512000D01*
X286804Y512107D01*
X286538Y512160D01*
X286290Y512195D01*
X286112Y512266D01*
X286041Y512302D01*
X285970Y512373D01*
X285739Y512462D01*
X285438Y512515D01*
X285260Y512586D01*
X285207Y512639D01*
X284994Y512781D01*
X284727Y512835D01*
X284550Y512906D01*
X284479Y512941D01*
X284461Y512994D01*
X284408Y513047D01*
X284284Y513136D01*
X283946Y513260D01*
X283840Y513367D01*
X283716Y513456D01*
X283485Y513545D01*
X283272Y513758D01*
X283094Y513864D01*
X282881Y514077D01*
X282562Y514254D01*
X281408Y515408D01*
X281231Y515728D01*
X281177Y515781D01*
X281053Y515870D01*
X280911Y516118D01*
X280858Y516172D01*
X280734Y516260D01*
X280520Y516651D01*
X280414Y516757D01*
X280272Y517006D01*
X280201Y517183D01*
X280166Y517254D01*
X280112Y517272D01*
X279988Y517432D01*
X279953Y517503D01*
X279846Y517858D01*
X279633Y518071D01*
X279597Y518284D01*
X279527Y518568D01*
X279456Y518639D01*
X279278Y518887D01*
X279242Y519704D01*
X279296Y519864D01*
X279420Y519953D01*
X279793Y520041D01*
X280201Y520237D01*
X280343Y520272D01*
X280787Y520325D01*
X281035Y520361D01*
X281177Y520396D01*
X281639Y520609D01*
X282100Y520645D01*
X282597Y520716D01*
X283006Y520911D01*
X283148Y520947D01*
X283521Y521000D01*
X283876Y521035D01*
X284337Y521248D01*
X284479Y521284D01*
X284621Y521248D01*
X284799Y521177D01*
X284869Y521142D01*
X284976Y521035D01*
X285047Y521000D01*
X285118Y520929D01*
X285278Y520734D01*
X285349Y520556D01*
X285455Y520308D01*
X285633Y520130D01*
X285686Y520006D01*
X285775Y519775D01*
X285828Y519722D01*
X285899Y519686D01*
X286059Y519456D01*
X286094Y519385D01*
X286183Y519296D01*
X286254Y519260D01*
X286307Y519207D01*
X286343Y519136D01*
X286414Y519065D01*
X286609Y518905D01*
X286680Y518870D01*
X286698Y518816D01*
X286822Y518692D01*
X287071Y518550D01*
X287266Y518355D01*
X287497Y518266D01*
X287639Y518231D01*
X287692Y518177D01*
X287887Y518018D01*
X288011Y517965D01*
X288153Y517929D01*
X288384Y517876D01*
X288562Y517805D01*
X288810Y517627D01*
X289378Y517592D01*
X289485Y517556D01*
X290301Y517521D01*
X290550Y517485D01*
X290656Y517450D01*
X291029Y517467D01*
X291207Y517503D01*
X291846Y517538D01*
X292715Y517627D01*
X292857Y517663D01*
X293230Y517858D01*
X293816Y517982D01*
X293958Y518124D01*
X294207Y518266D01*
X294349Y518302D01*
X294508Y518391D01*
X294544Y518461D01*
X294934Y518710D01*
X295023Y518834D01*
X295094Y518870D01*
X295165Y518941D01*
X295236Y518976D01*
X295609Y519349D01*
X295644Y519420D01*
X295857Y519633D01*
X295999Y519882D01*
X296053Y519935D01*
X296124Y519970D01*
X296230Y520077D01*
X296354Y520414D01*
X296461Y520521D01*
X296638Y520840D01*
X296709Y521124D01*
X296851Y521266D01*
X296958Y521444D01*
X296993Y521799D01*
X297029Y521941D01*
X297100Y522118D01*
X297277Y522438D01*
X297331Y523130D01*
X297366Y523414D01*
X297402Y524160D01*
X297437Y524337D01*
X297561Y524674D01*
Y524710D01*
Y524816D01*
X297526Y524958D01*
X297419Y525136D01*
X297384Y525846D01*
X297348Y525952D01*
X297313Y526662D01*
X297277Y526911D01*
X297171Y527160D01*
X297135Y527230D01*
X297082Y527284D01*
X297029Y527479D01*
X296993Y527621D01*
X296958Y527869D01*
X296816Y528189D01*
X296727Y528313D01*
X296638Y528544D01*
X296567Y528793D01*
X296354Y529006D01*
X296212Y529361D01*
X296124Y529449D01*
X295964Y529645D01*
X295928Y529716D01*
X295804Y529840D01*
X295680Y529929D01*
X295644Y530000D01*
X295449Y530195D01*
X295378Y530230D01*
X295325Y530284D01*
X295289Y530355D01*
X295218Y530426D01*
X295023Y530585D01*
X294952Y530621D01*
X294810Y530763D01*
X294686Y530852D01*
X294455Y530940D01*
X294224Y531171D01*
X293993Y531260D01*
X293745Y531331D01*
X293479Y531526D01*
X293337Y531562D01*
X292964Y531615D01*
X292715Y531686D01*
X292396Y531828D01*
X292218Y531899D01*
X289982Y531935D01*
X289520Y531899D01*
X289165Y531792D01*
X288988Y531721D01*
X288828Y531668D01*
X288686Y531633D01*
X288384Y531580D01*
X288136Y531508D01*
X287958Y531402D01*
X287834Y531313D01*
X287497Y531189D01*
X287355Y531047D01*
X287106Y530905D01*
X286929Y530834D01*
X286769Y530674D01*
X286733Y530603D01*
X286680Y530585D01*
X286449Y530355D01*
X286414Y530284D01*
X286361Y530230D01*
X286290Y530195D01*
X286219Y530124D01*
X286059Y529929D01*
X286023Y529858D01*
X285846Y529680D01*
X285668Y529361D01*
X285526Y529219D01*
X285313Y528828D01*
X285118Y528668D01*
X284923Y528544D01*
X284692Y528491D01*
X284585Y528455D01*
X284195Y528420D01*
X284018Y528491D01*
X283627Y528526D01*
X283343Y528597D01*
X282970Y528793D01*
X282828Y528828D01*
X282349Y528881D01*
X282029Y529023D01*
X281781Y529165D01*
X281390Y529201D01*
X281248Y529236D01*
X281000Y529272D01*
X280822Y529343D01*
X280503Y529520D01*
X280148Y529556D01*
X280006Y529591D01*
X279917Y529680D01*
X279881Y529751D01*
X279828Y529804D01*
X279757Y529840D01*
X279633Y530000D01*
X279597Y530213D01*
X279633Y530568D01*
X279881Y530958D01*
X279917Y531171D01*
X279988Y531455D01*
X280095Y531562D01*
X280219Y531757D01*
X280272Y531952D01*
X280343Y532130D01*
X280378Y532201D01*
X280432Y532219D01*
X280485Y532272D01*
X280574Y532396D01*
X280627Y532591D01*
X280698Y532769D01*
X280805Y532840D01*
X281018Y533230D01*
X281160Y533372D01*
X281337Y533692D01*
X281479Y533834D01*
X281657Y534082D01*
X281692Y534153D01*
X281745Y534207D01*
X281816Y534242D01*
X281941Y534366D01*
X281976Y534437D01*
X282136Y534597D01*
X282207Y534633D01*
X282296Y534721D01*
X282331Y534792D01*
X282491Y534952D01*
X282562Y534988D01*
X282686Y535112D01*
X282722Y535183D01*
X282952Y535343D01*
X283023Y535378D01*
X283201Y535556D01*
X283521Y535733D01*
X283662Y535875D01*
X283911Y536017D01*
X284071Y536106D01*
X284106Y536177D01*
X284230Y536266D01*
X284408Y536337D01*
X284657Y536408D01*
X284799Y536550D01*
X284923Y536638D01*
X285189Y536692D01*
X285367Y536763D01*
X285438Y536834D01*
X285633Y536958D01*
X285828Y537011D01*
X286077Y537047D01*
X286680Y537331D01*
X287142Y537366D01*
X287284Y537402D01*
X287585Y537526D01*
X287763Y537597D01*
X287940Y537632D01*
X288153Y537668D01*
X289272Y537721D01*
X289573Y537810D01*
X292520Y537845D01*
X292680Y537828D01*
D02*
G37*
G36*
X112046D02*
X112224Y537757D01*
X112543Y537721D01*
X113111Y537686D01*
X113573Y537650D01*
X113715Y537615D01*
X114017Y537491D01*
X114194Y537420D01*
X114336Y537384D01*
X114851Y537331D01*
X114993Y537295D01*
X115170Y537224D01*
X115259Y537136D01*
X115437Y537065D01*
X115579Y537029D01*
X115792Y536993D01*
X115987Y536940D01*
X116236Y536763D01*
X116360Y536710D01*
X116626Y536656D01*
X116821Y536567D01*
X117017Y536408D01*
X117088Y536372D01*
X117389Y536248D01*
X117585Y536088D01*
X117940Y535946D01*
X117993Y535893D01*
X118028Y535822D01*
X118188Y535698D01*
X118259Y535662D01*
X118437Y535591D01*
X118579Y535449D01*
X118898Y535272D01*
X118952Y535218D01*
X119040Y535094D01*
X119342Y534899D01*
X119377Y534828D01*
X119502Y534704D01*
X119573Y534668D01*
X119733Y534508D01*
X119768Y534437D01*
X119857Y534349D01*
X119928Y534313D01*
X120052Y534189D01*
X120087Y534118D01*
X120212Y533994D01*
X120283Y533958D01*
X120407Y533798D01*
X120442Y533727D01*
X120638Y533532D01*
X120798Y533337D01*
X120833Y533266D01*
X120975Y533124D01*
X121153Y532804D01*
X121259Y532698D01*
X121437Y532449D01*
X121472Y532307D01*
X121650Y532130D01*
X121685Y532059D01*
X121738Y532006D01*
X121792Y531810D01*
X121863Y531633D01*
X121898Y531562D01*
X122040Y531420D01*
X122111Y531242D01*
X122182Y530958D01*
X122360Y530781D01*
X122431Y530603D01*
X122466Y530461D01*
X122502Y530213D01*
X122679Y529964D01*
X122732Y529840D01*
X122786Y529574D01*
X122821Y529325D01*
X122857Y529183D01*
X122999Y528970D01*
X123070Y528793D01*
X123105Y528686D01*
X123141Y528047D01*
X123176Y527905D01*
X123229Y527745D01*
X123300Y527568D01*
X123354Y527301D01*
X123389Y527160D01*
X123425Y526911D01*
X123460Y526805D01*
X123496Y524213D01*
X123460Y523112D01*
X123496Y523006D01*
X123460Y522970D01*
X123425Y522260D01*
X123389Y522118D01*
X123212Y521728D01*
X123176Y521621D01*
X123141Y521018D01*
X123105Y520769D01*
X123070Y520627D01*
X122999Y520450D01*
X122945Y520396D01*
X122874Y520219D01*
X122839Y520077D01*
X122786Y519740D01*
X122750Y519598D01*
X122519Y519154D01*
X122431Y518710D01*
X122289Y518497D01*
X122164Y518302D01*
X122111Y518106D01*
X122040Y517929D01*
X121969Y517858D01*
X121792Y517538D01*
X121721Y517361D01*
X121685Y517290D01*
X121632Y517272D01*
X121508Y517113D01*
X121437Y516935D01*
X121312Y516704D01*
X121241Y516669D01*
X121028Y516314D01*
X120904Y516225D01*
X120727Y515976D01*
X120691Y515905D01*
X120638Y515852D01*
X120567Y515817D01*
X120407Y515586D01*
X120372Y515515D01*
X120123Y515266D01*
X120087Y515195D01*
X119786Y514894D01*
X119715Y514858D01*
X119608Y514752D01*
X119289Y514503D01*
X119164Y514414D01*
X119129Y514343D01*
X118898Y514184D01*
X118827Y514148D01*
X118738Y514059D01*
X118703Y513988D01*
X118650Y513935D01*
X118579Y513899D01*
X118312Y513740D01*
X118277Y513669D01*
X117975Y513509D01*
X117798Y513438D01*
X117656Y513296D01*
X117407Y513154D01*
X117230Y513083D01*
X117159Y513047D01*
X117088Y512976D01*
X116963Y512888D01*
X116768Y512835D01*
X116626Y512799D01*
X116449Y512728D01*
X116378Y512657D01*
X116129Y512515D01*
X115845Y512479D01*
X115597Y512373D01*
X115526Y512337D01*
X115472Y512284D01*
X115295Y512213D01*
X115117Y512178D01*
X114780Y512124D01*
X114407Y511965D01*
X114230Y511894D01*
X114052Y511858D01*
X113591Y511823D01*
X113307Y511787D01*
X113165Y511752D01*
X112792Y511698D01*
X112543Y511592D01*
X112117Y511556D01*
X111656Y511521D01*
X111549Y511485D01*
X109295Y511503D01*
X109117Y511539D01*
X108478Y511574D01*
X108248Y511627D01*
X107964Y511698D01*
X107786Y511769D01*
X107502Y511805D01*
X106934Y511840D01*
X106650Y511911D01*
X106330Y512053D01*
X106153Y512124D01*
X105869Y512160D01*
X105620Y512195D01*
X105372Y512302D01*
X105301Y512337D01*
X105248Y512391D01*
X105070Y512462D01*
X104839Y512515D01*
X104591Y512586D01*
X104520Y512657D01*
X104449Y512692D01*
X104396Y512746D01*
X104165Y512835D01*
X104023Y512870D01*
X103916Y512906D01*
X103845Y512941D01*
X103739Y513047D01*
X103561Y513154D01*
X103384Y513225D01*
X103313Y513260D01*
X103189Y513385D01*
X102763Y513598D01*
X102727Y513669D01*
X102638Y513758D01*
X102390Y513899D01*
X102319Y513970D01*
X101999Y514219D01*
X101928Y514254D01*
X101751Y514432D01*
X101573Y514538D01*
X101218Y514894D01*
X101147Y514929D01*
X101094Y514982D01*
X100952Y515231D01*
X100739Y515444D01*
X100703Y515515D01*
X100455Y515763D01*
X100278Y516083D01*
X100100Y516260D01*
X99958Y516509D01*
X99834Y516633D01*
X99674Y516828D01*
X99638Y516970D01*
X99567Y517148D01*
X99461Y517254D01*
X99283Y517574D01*
X99212Y517752D01*
X99141Y517822D01*
X99017Y518018D01*
X98964Y518213D01*
X98893Y518497D01*
X98840Y518550D01*
X98680Y518745D01*
X98609Y519172D01*
X98538Y519349D01*
X98502Y519527D01*
X98644Y519846D01*
X98680Y519917D01*
X98875Y520006D01*
X99159Y520077D01*
X99390Y520201D01*
X99674Y520272D01*
X100189Y520325D01*
X100437Y520361D01*
X100881Y520556D01*
X101076Y520609D01*
X101218Y520645D01*
X101680Y520680D01*
X101822Y520716D01*
X102195Y520876D01*
X102479Y520947D01*
X102958Y521000D01*
X103206Y521035D01*
X103455Y521106D01*
X103597Y521142D01*
X103845Y521071D01*
X104271Y520964D01*
X104413Y520822D01*
X104484Y520787D01*
X104644Y520627D01*
X104751Y520450D01*
X104822Y520272D01*
X104857Y520201D01*
X104964Y520095D01*
X105141Y519775D01*
X105177Y519704D01*
X105266Y519651D01*
X105425Y519456D01*
X105461Y519385D01*
X105549Y519296D01*
X105620Y519260D01*
X105709Y519172D01*
X105745Y519100D01*
X105869Y518976D01*
X105940Y518941D01*
X105993Y518887D01*
X106082Y518763D01*
X106330Y518586D01*
X106402Y518550D01*
X106615Y518337D01*
X106970Y518195D01*
X107041Y518160D01*
X107183Y518018D01*
X107307Y517965D01*
X107609Y517911D01*
X107857Y517840D01*
X108177Y517627D01*
X108745Y517592D01*
X108851Y517556D01*
X109668Y517521D01*
X110094Y517450D01*
X110200Y517485D01*
X111088Y517521D01*
X111194Y517556D01*
X111762Y517592D01*
X112117Y517627D01*
X112295Y517698D01*
X112455Y517822D01*
X112632Y517893D01*
X112969Y517947D01*
X113147Y518018D01*
X113218Y518053D01*
X113395Y518231D01*
X113537Y518266D01*
X113786Y518373D01*
X113857Y518408D01*
X113892Y518479D01*
X114141Y518621D01*
X114212Y518657D01*
X114301Y518745D01*
X114336Y518816D01*
X114496Y518941D01*
X114567Y518976D01*
X114904Y519314D01*
X115011Y519491D01*
X115170Y519615D01*
X115330Y519811D01*
X115366Y519882D01*
X115455Y519970D01*
X115526Y520006D01*
X115597Y520077D01*
X115685Y520308D01*
X115721Y520450D01*
X115863Y520592D01*
X115987Y520787D01*
X116023Y520929D01*
X116076Y521160D01*
X116182Y521266D01*
X116218Y521337D01*
X116271Y521390D01*
X116360Y521763D01*
X116395Y522012D01*
X116644Y522544D01*
X116679Y523148D01*
X116715Y523254D01*
X116750Y525704D01*
X116715Y525810D01*
X116679Y526627D01*
X116644Y526769D01*
X116484Y527142D01*
X116413Y527319D01*
X116378Y527497D01*
X116324Y527834D01*
X116218Y528083D01*
X116147Y528153D01*
X116058Y528278D01*
X116005Y528473D01*
X115934Y528722D01*
X115792Y528864D01*
X115579Y529254D01*
X115543Y529325D01*
X115437Y529432D01*
X115295Y529680D01*
X115046Y529929D01*
X115011Y530000D01*
X114904Y530106D01*
X114691Y530284D01*
X114656Y530355D01*
X114531Y530479D01*
X114354Y530585D01*
X114177Y530763D01*
X113786Y530976D01*
X113715Y531011D01*
X113608Y531118D01*
X113484Y531207D01*
X113307Y531242D01*
X113111Y531296D01*
X113023Y531384D01*
X112827Y531544D01*
X112366Y531615D01*
X111940Y531721D01*
X111549Y531899D01*
X109348Y531935D01*
X108887Y531899D01*
X108638Y531864D01*
X108177Y531651D01*
X107609Y531580D01*
X107431Y531508D01*
X107271Y531349D01*
X106828Y531189D01*
X106650Y531011D01*
X106473Y530905D01*
X106295Y530834D01*
X106117Y530656D01*
X105940Y530550D01*
X105780Y530390D01*
X105745Y530319D01*
X105585Y530195D01*
X105425Y530000D01*
X105390Y529929D01*
X105212Y529751D01*
X105106Y529574D01*
X104999Y529325D01*
X104893Y529219D01*
X104751Y528970D01*
X104627Y528846D01*
X104555Y528810D01*
X104413Y528668D01*
X104342Y528633D01*
X104289Y528580D01*
X104112Y528508D01*
X103881Y528455D01*
X103774Y528420D01*
X103544Y528438D01*
X103402Y528473D01*
X103224Y528508D01*
X102780Y528562D01*
X102638Y528597D01*
X102372Y528757D01*
X102141Y528846D01*
X101786Y528881D01*
X101538Y528952D01*
X101218Y529094D01*
X101041Y529165D01*
X100437Y529236D01*
X100206Y529325D01*
X99923Y529503D01*
X99514Y529556D01*
X99337Y529627D01*
X99266Y529662D01*
X99159Y529769D01*
X98999Y529964D01*
X98964Y530142D01*
X98999Y530603D01*
X99070Y530781D01*
X99106Y530852D01*
X99195Y530940D01*
X99283Y531171D01*
X99354Y531455D01*
X99496Y531597D01*
X99603Y531775D01*
X99638Y531917D01*
X99709Y532165D01*
X99887Y532343D01*
X99958Y532520D01*
X100064Y532769D01*
X100100Y532840D01*
X100242Y532982D01*
X100278Y533053D01*
X100402Y533284D01*
X100473Y533319D01*
X100526Y533372D01*
X100562Y533443D01*
X100615Y533497D01*
X100703Y533727D01*
X100828Y533852D01*
X100988Y534047D01*
X101023Y534118D01*
X101147Y534242D01*
X101218Y534278D01*
X101307Y534366D01*
X101342Y534437D01*
X101502Y534597D01*
X101573Y534633D01*
X101662Y534721D01*
X101698Y534792D01*
X101857Y534952D01*
X101928Y534988D01*
X102017Y535076D01*
X102053Y535147D01*
X102141Y535236D01*
X102319Y535343D01*
X102496Y535520D01*
X102887Y535733D01*
X103029Y535875D01*
X103348Y536053D01*
X103579Y536283D01*
X103774Y536337D01*
X104023Y536408D01*
X104165Y536550D01*
X104342Y536656D01*
X104555Y536692D01*
X104733Y536763D01*
X104804Y536834D01*
X104875Y536869D01*
X104928Y536922D01*
X105159Y537011D01*
X105407Y537047D01*
X105656Y537118D01*
X105727Y537189D01*
X105976Y537331D01*
X106437Y537366D01*
X106686Y537402D01*
X106881Y537491D01*
X107165Y537597D01*
X107342Y537632D01*
X107484Y537668D01*
X108674Y537721D01*
X108851Y537792D01*
X111869Y537828D01*
X111904D01*
X111922Y537845D01*
X112046Y537828D01*
D02*
G37*
G36*
X266799D02*
X266994Y537739D01*
X268148Y537686D01*
X268397Y537650D01*
X268539Y537615D01*
X268911Y537455D01*
X269089Y537384D01*
X269639Y537331D01*
X269817Y537260D01*
X270030Y537118D01*
X270154Y537065D01*
X270704Y536976D01*
X270917Y536834D01*
X271112Y536710D01*
X271255Y536674D01*
X271485Y536621D01*
X271592Y536514D01*
X271663Y536479D01*
X271752Y536390D01*
X271947Y536337D01*
X272124Y536266D01*
X272195Y536230D01*
X272266Y536159D01*
X272515Y536017D01*
X272692Y535946D01*
X272870Y535769D01*
X273118Y535627D01*
X273260Y535485D01*
X273580Y535307D01*
X273775Y535112D01*
X273970Y534952D01*
X274041Y534917D01*
X274095Y534863D01*
X274130Y534792D01*
X274219Y534704D01*
X274290Y534668D01*
X274450Y534508D01*
X274538Y534384D01*
X274610Y534349D01*
X274805Y534153D01*
X274840Y534082D01*
X274893Y534029D01*
X274965Y533994D01*
X275053Y533905D01*
X275160Y533727D01*
X275444Y533443D01*
X275586Y533195D01*
X275621Y533124D01*
X275728Y533017D01*
X275870Y532769D01*
X276047Y532591D01*
X276189Y532343D01*
X276260Y532165D01*
X276331Y532094D01*
X276509Y531775D01*
X276615Y531526D01*
X276651Y531455D01*
X276704Y531437D01*
X276757Y531349D01*
X276828Y531171D01*
X276864Y531029D01*
X276935Y530852D01*
X277077Y530710D01*
X277130Y530585D01*
X277183Y530390D01*
X277219Y530142D01*
X277290Y529964D01*
X277325Y529893D01*
X277396Y529822D01*
X277485Y529698D01*
X277538Y529254D01*
X277609Y528970D01*
X277822Y528508D01*
X277893Y527585D01*
X278000Y527337D01*
X278035Y526982D01*
X278106Y526805D01*
X278142Y526236D01*
X278177Y526130D01*
X278213Y523609D01*
X278177Y523503D01*
X278142Y522899D01*
X278106Y522651D01*
X278000Y522225D01*
X277929Y522047D01*
X277876Y521390D01*
X277840Y521000D01*
X277787Y520769D01*
X277645Y520556D01*
X277574Y520379D01*
X277538Y520237D01*
X277485Y519757D01*
X277432Y519562D01*
X277361Y519491D01*
X277325Y519420D01*
X277272Y519367D01*
X277201Y519189D01*
X277148Y518852D01*
X276899Y518461D01*
X276864Y518248D01*
X276793Y518071D01*
X276757Y518000D01*
X276598Y517840D01*
X276509Y517609D01*
X276438Y517432D01*
X276331Y517326D01*
X276189Y517077D01*
X276083Y516828D01*
X275976Y516722D01*
X275799Y516402D01*
X275621Y516225D01*
X275444Y515976D01*
X275408Y515905D01*
X273882Y514379D01*
X273686Y514219D01*
X273615Y514184D01*
X273402Y513970D01*
X273154Y513829D01*
X272923Y513598D01*
X272586Y513474D01*
X272497Y513385D01*
X272302Y513225D01*
X271947Y513083D01*
X271894Y513030D01*
X271681Y512888D01*
X271485Y512835D01*
X271308Y512763D01*
X271059Y512586D01*
X270935Y512533D01*
X270704Y512479D01*
X270562Y512444D01*
X270119Y512213D01*
X269888Y512160D01*
X269639Y512124D01*
X269284Y512018D01*
X269231Y511965D01*
X269053Y511894D01*
X268911Y511858D01*
X268113Y511805D01*
X267864Y511698D01*
X267509Y511663D01*
X267332Y511592D01*
X266799Y511556D01*
X266693Y511521D01*
X264349Y511485D01*
X264243Y511521D01*
X263497Y511556D01*
X263213Y511627D01*
X262894Y511769D01*
X262202Y511823D01*
X261918Y511858D01*
X261775Y511894D01*
X261580Y511947D01*
X261527Y512000D01*
X261243Y512107D01*
X260977Y512160D01*
X260728Y512195D01*
X260551Y512266D01*
X260480Y512302D01*
X260409Y512373D01*
X260178Y512462D01*
X259947Y512515D01*
X259699Y512586D01*
X259592Y512692D01*
X259397Y512817D01*
X259166Y512870D01*
X258989Y512941D01*
X258882Y513047D01*
X258634Y513190D01*
X258456Y513260D01*
X258385Y513296D01*
X258314Y513367D01*
X257924Y513580D01*
X257746Y513758D01*
X257498Y513899D01*
X257373Y514024D01*
X257178Y514184D01*
X257107Y514219D01*
X257018Y514308D01*
X256983Y514379D01*
X256859Y514468D01*
X256787Y514503D01*
X256716Y514574D01*
X256646Y514610D01*
X255847Y515408D01*
X255669Y515728D01*
X255545Y515852D01*
X255385Y516047D01*
X255350Y516118D01*
X255137Y516331D01*
X254959Y516651D01*
X254799Y516811D01*
X254675Y517148D01*
X254444Y517379D01*
X254356Y517609D01*
X254285Y517858D01*
X254072Y518071D01*
X254036Y518391D01*
X254107Y518568D01*
X254143Y518639D01*
X254338Y518834D01*
X254462Y518923D01*
X254693Y518976D01*
X254835Y519012D01*
X255368Y519260D01*
X255509Y519296D01*
X255758Y519331D01*
X255935Y519402D01*
X256007Y519438D01*
X256095Y519527D01*
X256273Y519598D01*
X256610Y519651D01*
X256859Y519686D01*
X257249Y519935D01*
X257533Y519970D01*
X257817Y520041D01*
X257888Y520112D01*
X257959Y520148D01*
X258012Y520201D01*
X258190Y520272D01*
X258669Y520325D01*
X258918Y520432D01*
X259202Y520467D01*
X259397Y520414D01*
X259628Y520361D01*
X259716Y520272D01*
X259858Y520024D01*
X259947Y519935D01*
X260018Y519899D01*
X260125Y519722D01*
X260214Y519491D01*
X260302Y519402D01*
X260373Y519367D01*
X260497Y519243D01*
X260533Y519172D01*
X260693Y519012D01*
X260764Y518976D01*
X260888Y518816D01*
X261083Y518657D01*
X261154Y518621D01*
X261225Y518550D01*
X261296Y518515D01*
X261403Y518408D01*
X261580Y518302D01*
X261758Y518231D01*
X261971Y518018D01*
X262095Y517965D01*
X262273Y517929D01*
X262468Y517876D01*
X262539Y517805D01*
X262610Y517769D01*
X262681Y517698D01*
X262805Y517645D01*
X262947Y517609D01*
X263231Y517574D01*
X263409Y517538D01*
X263551Y517503D01*
X263817Y517450D01*
X263959Y517414D01*
X264207Y517308D01*
X266089Y517272D01*
X266231Y517308D01*
X266533Y517397D01*
X266764Y517485D01*
X267012Y517556D01*
X267509Y517627D01*
X267687Y517698D01*
X267758Y517734D01*
X267846Y517822D01*
X268184Y517947D01*
X268361Y518018D01*
X268503Y518160D01*
X268823Y518337D01*
X268965Y518479D01*
X269266Y518675D01*
X269302Y518745D01*
X269373Y518816D01*
X269408Y518887D01*
X269462Y518905D01*
X269533Y518976D01*
X269604Y519012D01*
X269622Y519065D01*
X269692Y519136D01*
X269728Y519207D01*
X269852Y519331D01*
X269923Y519367D01*
X270030Y519544D01*
X270083Y519740D01*
X270261Y519917D01*
X270403Y520166D01*
X270473Y520343D01*
X270527Y520396D01*
X270669Y520609D01*
X270758Y520982D01*
X270864Y521231D01*
X271042Y521550D01*
X271077Y522012D01*
X271112Y522154D01*
X271255Y522473D01*
X271219Y522615D01*
X271130Y522668D01*
X253983Y522704D01*
X253734Y522739D01*
X253557Y522811D01*
X253397Y523006D01*
X253362Y523290D01*
X253326Y523396D01*
X253344Y524905D01*
X253379Y526112D01*
X253433Y526698D01*
X253468Y526840D01*
X253504Y527089D01*
X253539Y527230D01*
X253646Y527479D01*
X253681Y527728D01*
X253717Y528402D01*
X253788Y528651D01*
X253859Y528828D01*
X253894Y528899D01*
X254001Y529148D01*
X254036Y529503D01*
X254072Y529645D01*
X254107Y529893D01*
X254356Y530284D01*
X254391Y530639D01*
X254462Y530816D01*
X254640Y530994D01*
X254675Y531171D01*
X254693Y531189D01*
X254711Y531242D01*
X254746Y531384D01*
X254853Y531633D01*
X255030Y531952D01*
X255101Y532130D01*
X255137Y532201D01*
X255314Y532378D01*
X255385Y532556D01*
X255474Y532786D01*
X255598Y532875D01*
X255811Y533266D01*
X255989Y533443D01*
X256131Y533692D01*
X256220Y533816D01*
X256290Y533852D01*
X256450Y534153D01*
X256504Y534207D01*
X256574Y534242D01*
X256734Y534402D01*
X256823Y534526D01*
X256894Y534562D01*
X257089Y534757D01*
X257178Y534881D01*
X257249Y534917D01*
X257409Y535076D01*
X257498Y535201D01*
X257746Y535343D01*
X257817Y535414D01*
X257888Y535449D01*
X257924Y535520D01*
X258243Y535698D01*
X258385Y535840D01*
X258829Y536106D01*
X258864Y536177D01*
X259006Y536283D01*
X259237Y536372D01*
X259415Y536443D01*
X259574Y536603D01*
X259805Y536692D01*
X259947Y536727D01*
X260054Y536763D01*
X260125Y536798D01*
X260302Y536976D01*
X260657Y537011D01*
X260835Y537082D01*
X260906Y537118D01*
X260977Y537189D01*
X261172Y537313D01*
X261722Y537366D01*
X261864Y537402D01*
X262042Y537473D01*
X262095Y537526D01*
X262379Y537632D01*
X262592Y537668D01*
X263267Y537704D01*
X263657Y537739D01*
X263835Y537775D01*
X263977Y537810D01*
X266639Y537845D01*
X266799Y537828D01*
D02*
G37*
G36*
X138229Y537845D02*
X138247Y537828D01*
X138318D01*
X138566Y537721D01*
X139560Y537686D01*
X139915Y537650D01*
X140057Y537615D01*
X140430Y537455D01*
X140608Y537384D01*
X141122Y537331D01*
X141264Y537295D01*
X141513Y537189D01*
X141584Y537153D01*
X141637Y537100D01*
X142010Y537011D01*
X142258Y536940D01*
X142436Y536834D01*
X142631Y536710D01*
X142773Y536674D01*
X143004Y536621D01*
X143146Y536479D01*
X143217Y536443D01*
X143270Y536390D01*
X143465Y536337D01*
X143714Y536230D01*
X143785Y536159D01*
X144033Y536017D01*
X144211Y535946D01*
X144389Y535769D01*
X144637Y535627D01*
X144797Y535538D01*
X144832Y535467D01*
X144903Y535431D01*
X145187Y535254D01*
X145223Y535183D01*
X145294Y535112D01*
X145489Y534952D01*
X145560Y534917D01*
X145613Y534863D01*
X145649Y534792D01*
X145738Y534704D01*
X145809Y534668D01*
X145968Y534508D01*
X146004Y534437D01*
X146093Y534349D01*
X146164Y534313D01*
X146323Y534153D01*
X146359Y534082D01*
X146448Y533994D01*
X146519Y533958D01*
X146643Y533798D01*
X146678Y533727D01*
X146891Y533550D01*
X147034Y533301D01*
X147175Y533159D01*
X147388Y532769D01*
X147566Y532591D01*
X147673Y532414D01*
X147744Y532236D01*
X147850Y532130D01*
X147992Y531881D01*
X148063Y531633D01*
X148312Y531384D01*
X148347Y531171D01*
X148418Y530887D01*
X148489Y530816D01*
X148666Y530568D01*
X148702Y530355D01*
X148737Y530213D01*
X148880Y529893D01*
X149022Y529645D01*
X149057Y529219D01*
X149093Y529077D01*
X149341Y528544D01*
X149377Y527905D01*
X149412Y527550D01*
X149554Y527230D01*
X149590Y527018D01*
X149625Y526911D01*
X149661Y526414D01*
X149696Y526059D01*
X149732Y525952D01*
X149714Y525580D01*
X149732Y523609D01*
X149696Y523467D01*
X149661Y522899D01*
X149625Y522544D01*
X149572Y522349D01*
X149501Y522172D01*
X149448Y521870D01*
X149412Y521763D01*
X149377Y521124D01*
X149270Y520698D01*
X149199Y520521D01*
X149146Y520467D01*
X149075Y520290D01*
X149022Y519846D01*
X148986Y519704D01*
X148915Y519527D01*
X148737Y519278D01*
X148702Y518994D01*
X148666Y518852D01*
X148596Y518675D01*
X148454Y518532D01*
X148418Y518461D01*
X148347Y518177D01*
X148276Y518000D01*
X148169Y517893D01*
X148081Y517769D01*
X148027Y517574D01*
X147956Y517397D01*
X147815Y517254D01*
X147601Y516864D01*
X147566Y516793D01*
X147406Y516633D01*
X147317Y516402D01*
X147140Y516225D01*
X146962Y515976D01*
X146927Y515905D01*
X146465Y515444D01*
X146288Y515195D01*
X146252Y515124D01*
X146164Y515036D01*
X145915Y514858D01*
X145844Y514823D01*
X145418Y514397D01*
X145099Y514148D01*
X145028Y514113D01*
X145010Y514059D01*
X144921Y513970D01*
X144673Y513829D01*
X144584Y513740D01*
X144389Y513580D01*
X144104Y513474D01*
X143874Y513243D01*
X143643Y513154D01*
X143394Y513047D01*
X143270Y512923D01*
X143040Y512835D01*
X142738Y512710D01*
X142454Y512533D01*
X142223Y512479D01*
X141921Y512391D01*
X141637Y512213D01*
X141406Y512160D01*
X140980Y512089D01*
X140785Y512000D01*
X140572Y511894D01*
X140395Y511858D01*
X139631Y511805D01*
X139383Y511698D01*
X139028Y511663D01*
X138850Y511592D01*
X138318Y511556D01*
X138211Y511521D01*
X135868Y511485D01*
X135762Y511521D01*
X135016Y511556D01*
X134874Y511592D01*
X134679Y511645D01*
X134395Y511752D01*
X134164Y511805D01*
X133490Y511840D01*
X133241Y511911D01*
X132992Y512018D01*
X132762Y512107D01*
X132495Y512160D01*
X132247Y512195D01*
X131998Y512302D01*
X131874Y512391D01*
X131697Y512462D01*
X131466Y512515D01*
X131217Y512586D01*
X131129Y512675D01*
X130916Y512817D01*
X130685Y512870D01*
X130507Y512941D01*
X130348Y513101D01*
X130117Y513190D01*
X129939Y513260D01*
X129833Y513367D01*
X129708Y513456D01*
X129478Y513545D01*
X129354Y513669D01*
X129318Y513740D01*
X129016Y513935D01*
X128945Y513970D01*
X128927Y514024D01*
X128732Y514184D01*
X128661Y514219D01*
X128573Y514308D01*
X128537Y514379D01*
X128484Y514432D01*
X128235Y514574D01*
X128164Y514610D01*
X127649Y515124D01*
X127614Y515195D01*
X127436Y515373D01*
X127188Y515692D01*
X127152Y515763D01*
X126975Y515941D01*
X126868Y516118D01*
X126655Y516331D01*
X126478Y516651D01*
X126442Y516722D01*
X126300Y516864D01*
X126265Y516935D01*
X126158Y517183D01*
X126016Y517326D01*
X125928Y517450D01*
X125874Y517645D01*
X125803Y517822D01*
X125768Y517893D01*
X125590Y518071D01*
X125555Y518426D01*
X125626Y518604D01*
X125803Y518781D01*
X125999Y518941D01*
X126212Y518976D01*
X126354Y519012D01*
X126886Y519260D01*
X127028Y519296D01*
X127277Y519331D01*
X127525Y519438D01*
X127614Y519527D01*
X127791Y519598D01*
X128377Y519686D01*
X128768Y519935D01*
X129087Y519970D01*
X129229Y520006D01*
X129407Y520112D01*
X129478Y520148D01*
X129531Y520201D01*
X129762Y520290D01*
X130117Y520325D01*
X130223Y520361D01*
X130543Y520396D01*
X130791Y520325D01*
X131146Y520290D01*
X131271Y520166D01*
X131306Y520095D01*
X131590Y519811D01*
X131732Y519562D01*
X131768Y519491D01*
X132016Y519243D01*
X132052Y519172D01*
X132211Y519012D01*
X132282Y518976D01*
X132336Y518923D01*
X132371Y518852D01*
X132442Y518781D01*
X132637Y518621D01*
X132708Y518586D01*
X132833Y518461D01*
X133046Y518320D01*
X133277Y518231D01*
X133365Y518142D01*
X133560Y517982D01*
X133702Y517947D01*
X134004Y517858D01*
X134199Y517698D01*
X134324Y517645D01*
X134714Y517574D01*
X134927Y517538D01*
X135069Y517503D01*
X135336Y517450D01*
X135478Y517414D01*
X135726Y517308D01*
X137608Y517272D01*
X137750Y517308D01*
X137945Y517361D01*
X138336Y517503D01*
X138477Y517538D01*
X138850Y517592D01*
X139134Y517663D01*
X139312Y517769D01*
X139560Y517911D01*
X139702Y517947D01*
X139880Y518018D01*
X139933Y518071D01*
X139969Y518142D01*
X140146Y518248D01*
X140341Y518302D01*
X140590Y518550D01*
X140661Y518586D01*
X140856Y518781D01*
X140892Y518852D01*
X140945Y518905D01*
X141016Y518941D01*
X141211Y519136D01*
X141247Y519207D01*
X141513Y519473D01*
X141602Y519704D01*
X141673Y519775D01*
X141708Y519846D01*
X141761Y519864D01*
X141921Y520166D01*
X141992Y520343D01*
X142045Y520396D01*
X142187Y520609D01*
X142241Y520805D01*
X142312Y521053D01*
X142418Y521231D01*
X142560Y521479D01*
X142596Y521941D01*
X142631Y522083D01*
X142738Y522331D01*
X142773Y522544D01*
X142649Y522668D01*
X125431Y522704D01*
X125288Y522739D01*
X125182Y522775D01*
X125111Y522811D01*
X125022Y522899D01*
X124987Y522970D01*
X124916Y523041D01*
X124880Y523183D01*
X124845Y523290D01*
X124880Y525988D01*
X124916Y526094D01*
X124951Y526698D01*
X125022Y526875D01*
X125058Y527230D01*
X125164Y527479D01*
X125200Y527834D01*
X125235Y528296D01*
X125271Y528544D01*
X125519Y529077D01*
X125555Y529503D01*
X125626Y529787D01*
X125786Y530088D01*
X125874Y530319D01*
X125910Y530461D01*
X125945Y530710D01*
X126123Y530958D01*
X126176Y531082D01*
X126229Y531313D01*
X126300Y531491D01*
X126407Y531597D01*
X126531Y531792D01*
X126584Y532023D01*
X126709Y532254D01*
X126868Y532449D01*
X126904Y532591D01*
X126975Y532769D01*
X127152Y532946D01*
X127330Y533266D01*
X127507Y533443D01*
X127649Y533692D01*
X127685Y533763D01*
X127774Y533852D01*
X127934Y534047D01*
X127969Y534118D01*
X128288Y534437D01*
X128324Y534508D01*
X128377Y534562D01*
X128448Y534597D01*
X128608Y534757D01*
X128644Y534828D01*
X128697Y534881D01*
X128768Y534917D01*
X128963Y535112D01*
X128998Y535183D01*
X129052Y535236D01*
X129300Y535378D01*
X129442Y535520D01*
X129762Y535698D01*
X129851Y535786D01*
X130046Y535946D01*
X130223Y536017D01*
X130312Y536106D01*
X130525Y536283D01*
X130862Y536408D01*
X130969Y536514D01*
X131164Y536638D01*
X131359Y536692D01*
X131608Y536798D01*
X131679Y536834D01*
X131803Y536958D01*
X132034Y537011D01*
X132282Y537047D01*
X132495Y537189D01*
X132691Y537313D01*
X133277Y537366D01*
X133809Y537615D01*
X133916Y537650D01*
X134341Y537686D01*
X135016Y537721D01*
X135265Y537757D01*
X135371Y537792D01*
X138069Y537828D01*
X138176Y537863D01*
X138229Y537845D01*
D02*
G37*
G36*
X214434Y537331D02*
X214629Y537136D01*
X214664Y537065D01*
X214771Y536958D01*
X214807Y512462D01*
X214718Y512266D01*
X214398Y512089D01*
X214185Y512053D01*
X214043Y512018D01*
X213937Y512053D01*
X213830Y512018D01*
X213635Y512036D01*
X209606Y512018D01*
X209499Y512053D01*
X208967Y512018D01*
X208825Y512053D01*
X208470Y512195D01*
X208381Y512284D01*
X208345Y526875D01*
Y526911D01*
Y536816D01*
X208416Y537100D01*
X208487Y537171D01*
X208682Y537331D01*
X214292Y537366D01*
X214434Y537331D01*
D02*
G37*
G36*
X203783D02*
X203836Y537277D01*
X204014Y536958D01*
X204049Y512746D01*
X204014Y512497D01*
X203943Y512249D01*
X203890Y512195D01*
X203766Y512107D01*
X203499Y512053D01*
X203393Y512018D01*
X203055Y512036D01*
X199026Y512018D01*
X198884Y512053D01*
X198529Y512018D01*
X198174Y512053D01*
X198032Y512089D01*
X197925Y512124D01*
X197854Y512160D01*
X197517Y512675D01*
X197535Y513047D01*
X197517Y534721D01*
Y534757D01*
Y536745D01*
X197606Y536940D01*
X197766Y537136D01*
X197801Y537206D01*
X197925Y537331D01*
X203641Y537366D01*
X203783Y537331D01*
D02*
G37*
G36*
X377849Y548549D02*
X377991Y548514D01*
X378240Y548478D01*
X378382Y548443D01*
X378683Y548354D01*
X378950Y548301D01*
X379091Y548265D01*
X379766Y548230D01*
X380370Y547946D01*
X380867Y547910D01*
X381115Y547804D01*
X381310Y547680D01*
X381541Y547591D01*
X381790Y547555D01*
X381967Y547484D01*
X382127Y547325D01*
X382358Y547236D01*
X382500Y547200D01*
X382677Y547129D01*
X382784Y547023D01*
X382961Y546916D01*
X383103Y546881D01*
X383281Y546810D01*
X383387Y546703D01*
X383565Y546597D01*
X383742Y546526D01*
X383955Y546313D01*
X384204Y546171D01*
X384257Y546118D01*
X384452Y545958D01*
X384701Y545816D01*
X384825Y545691D01*
X385020Y545532D01*
X385091Y545496D01*
X385145Y545443D01*
X385180Y545372D01*
X385340Y545212D01*
X385411Y545177D01*
X385500Y545088D01*
X385535Y545017D01*
X385695Y544857D01*
X385766Y544822D01*
X385819Y544768D01*
X385926Y544591D01*
X386085Y544431D01*
X386316Y544094D01*
X386352Y544023D01*
X386529Y543845D01*
X386689Y543544D01*
X386813Y543455D01*
X387062Y542993D01*
X387097Y542922D01*
X387186Y542834D01*
X387310Y542496D01*
X387399Y542301D01*
X387541Y542088D01*
X387630Y541715D01*
X387701Y541467D01*
X387878Y541183D01*
X387932Y540845D01*
X387967Y540526D01*
X388020Y540189D01*
X388091Y539905D01*
X388162Y539727D01*
X388198Y539550D01*
X388233Y539443D01*
X388215Y537437D01*
X388144Y537082D01*
X388091Y536887D01*
X388020Y536710D01*
X387949Y536248D01*
X387914Y535786D01*
X387878Y535644D01*
X387807Y535467D01*
X387630Y535147D01*
X387594Y534899D01*
X387541Y534704D01*
X387381Y534508D01*
X387328Y534384D01*
X387275Y534189D01*
X387204Y534011D01*
X387168Y533940D01*
X387115Y533923D01*
X387097Y533869D01*
X387008Y533781D01*
X386884Y533443D01*
X386707Y533266D01*
X386529Y532946D01*
X386494Y532875D01*
X386405Y532786D01*
X386245Y532591D01*
X386210Y532520D01*
X386032Y532343D01*
X385890Y532094D01*
X385766Y531970D01*
X385695Y531935D01*
X385606Y531846D01*
X385571Y531775D01*
X385411Y531615D01*
X385340Y531580D01*
X385180Y531384D01*
X384985Y531224D01*
X384914Y531189D01*
X384790Y531065D01*
X384594Y530905D01*
X384523Y530869D01*
X384346Y530692D01*
X384026Y530514D01*
X383813Y530301D01*
X383565Y530159D01*
X383494Y530124D01*
X383316Y529946D01*
X382961Y529804D01*
X382819Y529662D01*
X382571Y529520D01*
X382393Y529449D01*
X382322Y529414D01*
X382251Y529343D01*
X382127Y529254D01*
X381932Y529201D01*
X381754Y529130D01*
X381541Y528988D01*
X381364Y528881D01*
X381080Y528810D01*
X380902Y528739D01*
X380831Y528668D01*
X380707Y528580D01*
X380334Y528491D01*
X380086Y528384D01*
X379837Y528207D01*
X379553Y528171D01*
X379198Y528065D01*
X379127Y527994D01*
X379056Y527958D01*
X379003Y527905D01*
X378772Y527852D01*
X378523Y527816D01*
X378382Y527781D01*
X378204Y527674D01*
X377956Y527532D01*
X377565Y527497D01*
X377334Y527408D01*
X377050Y527230D01*
X376908Y527195D01*
X376553Y527124D01*
X376411Y527089D01*
X376056Y526875D01*
X375790Y526822D01*
X375506Y526751D01*
X375062Y526520D01*
X374796Y526467D01*
X374476Y526325D01*
X374405Y526290D01*
X374316Y526201D01*
X374121Y526148D01*
X373979Y526112D01*
X373731Y526041D01*
X373553Y525864D01*
X373376Y525793D01*
X373092Y525722D01*
X372950Y525580D01*
X372701Y525438D01*
X372524Y525367D01*
X372453Y525331D01*
X372346Y525225D01*
X372027Y525047D01*
X371902Y524923D01*
X371707Y524763D01*
X371636Y524728D01*
X371388Y524479D01*
X371317Y524444D01*
X370979Y524106D01*
Y524071D01*
X370908Y523929D01*
X370837Y523858D01*
X370802Y523787D01*
X370749Y523769D01*
X370695Y523716D01*
X370607Y523591D01*
X370553Y523396D01*
X370411Y523183D01*
X370234Y522935D01*
X370198Y522473D01*
X370163Y522225D01*
X370021Y521905D01*
X369985Y521657D01*
X370163Y521089D01*
X370198Y520734D01*
X370234Y520485D01*
X370269Y520343D01*
X370340Y520166D01*
X370411Y520095D01*
X370518Y519917D01*
X370589Y519740D01*
X370713Y519615D01*
X370784Y519580D01*
X370962Y519331D01*
X371033Y519296D01*
X371281Y519047D01*
X371530Y518905D01*
X371743Y518692D01*
X371920Y518621D01*
X372062Y518586D01*
X372311Y518515D01*
X372382Y518444D01*
X372630Y518302D01*
X373234Y518231D01*
X373660Y518124D01*
X374015Y517982D01*
X374973Y517947D01*
X375080Y517911D01*
X377068Y517947D01*
X377316Y517982D01*
X377618Y518071D01*
X377956Y518195D01*
X378062Y518231D01*
X378523Y518266D01*
X378807Y518337D01*
X378879Y518408D01*
X378950Y518444D01*
X379021Y518515D01*
X379198Y518586D01*
X379340Y518621D01*
X379589Y518728D01*
X379660Y518763D01*
X379766Y518870D01*
X379837Y518905D01*
X380086Y519012D01*
X380245Y519172D01*
X380441Y519331D01*
X380512Y519367D01*
X380636Y519491D01*
X380831Y519651D01*
X380902Y519686D01*
X380973Y519757D01*
X381133Y519953D01*
X381168Y520024D01*
X381381Y520237D01*
X381523Y520485D01*
X381701Y520663D01*
X381914Y521053D01*
X381949Y521124D01*
X382020Y521195D01*
X382109Y521319D01*
X382198Y521550D01*
X382269Y521728D01*
X382340Y521799D01*
X382429Y521923D01*
X382500Y522100D01*
X382535Y522278D01*
X382589Y522473D01*
X382802Y522686D01*
X382837Y522757D01*
X382908Y522828D01*
X382943Y522899D01*
X383103Y522988D01*
X383565Y522952D01*
X383937Y522793D01*
X384080Y522757D01*
X384381Y522704D01*
X384843Y522668D01*
X385091Y522598D01*
X385287Y522509D01*
X385571Y522402D01*
X385979Y522349D01*
X386334Y522313D01*
X386476Y522278D01*
X386937Y522065D01*
X387293Y522029D01*
X387789Y521958D01*
X388322Y521710D01*
X388713Y521674D01*
X388872Y521621D01*
X389085Y521231D01*
X389121Y521053D01*
X389032Y520751D01*
X388943Y520237D01*
X388837Y519988D01*
X388659Y519669D01*
X388624Y519385D01*
X388553Y519207D01*
X388517Y519136D01*
X388411Y519030D01*
X388322Y518905D01*
X388269Y518604D01*
X388233Y518461D01*
X388162Y518391D01*
X388127Y518320D01*
X388038Y518231D01*
X387949Y518000D01*
X387878Y517822D01*
X387683Y517627D01*
X387594Y517397D01*
X387523Y517219D01*
X387417Y517113D01*
X387310Y516935D01*
X387239Y516757D01*
X387115Y516633D01*
X387044Y516598D01*
X386920Y516367D01*
X386742Y516189D01*
X386565Y515941D01*
X386529Y515870D01*
X386405Y515746D01*
X386245Y515550D01*
X386210Y515479D01*
X385340Y514610D01*
X385269Y514574D01*
X385091Y514397D01*
X384772Y514148D01*
X384701Y514113D01*
X384523Y513935D01*
X384275Y513793D01*
X384133Y513651D01*
X383742Y513438D01*
X383636Y513331D01*
X383387Y513190D01*
X383210Y513119D01*
X383014Y512923D01*
X382784Y512835D01*
X382535Y512763D01*
X382482Y512710D01*
X382269Y512568D01*
X382074Y512515D01*
X381932Y512479D01*
X381736Y512391D01*
X381452Y512213D01*
X380938Y512124D01*
X380760Y512053D01*
X380671Y511965D01*
X380494Y511894D01*
X380263Y511840D01*
X379908Y511805D01*
X379660Y511769D01*
X379038Y511574D01*
X378896Y511539D01*
X378719Y511503D01*
X377973Y511468D01*
X377743Y511485D01*
X377494Y511450D01*
X377245Y511343D01*
X374423Y511361D01*
X374192Y511414D01*
X374086Y511450D01*
X373234Y511485D01*
X372772Y511521D01*
X372417Y511556D01*
X371885Y511805D01*
X371317Y511840D01*
X371175Y511876D01*
X370642Y512124D01*
X370287Y512160D01*
X370003Y512231D01*
X369843Y512391D01*
X369613Y512479D01*
X369364Y512515D01*
X369187Y512586D01*
X369115Y512657D01*
X368796Y512835D01*
X368548Y512906D01*
X368476Y512976D01*
X368281Y513101D01*
X367944Y513225D01*
X367766Y513402D01*
X367589Y513509D01*
X367411Y513580D01*
X367340Y513615D01*
X367198Y513758D01*
X366950Y513899D01*
X366790Y514059D01*
X366595Y514219D01*
X366524Y514254D01*
X365335Y515444D01*
X365086Y515763D01*
X365051Y515834D01*
X364997Y515852D01*
X364944Y515905D01*
X364767Y516154D01*
X364731Y516225D01*
X364589Y516367D01*
X364500Y516491D01*
X364376Y516828D01*
X364234Y516970D01*
X364145Y517095D01*
X364110Y517237D01*
X364057Y517467D01*
X363861Y517663D01*
X363773Y517893D01*
X363737Y518142D01*
X363666Y518320D01*
X363542Y518515D01*
X363471Y518692D01*
X363418Y519207D01*
X363204Y519669D01*
X363169Y519811D01*
X363133Y519917D01*
X363098Y523148D01*
X363133Y523396D01*
X363169Y523538D01*
X363204Y524000D01*
X363400Y524444D01*
X363453Y525065D01*
X363524Y525313D01*
X363666Y525562D01*
X363719Y525686D01*
X363808Y526094D01*
X363879Y526272D01*
X363985Y526378D01*
X364074Y526503D01*
X364110Y526645D01*
X364163Y526875D01*
X364305Y527018D01*
X364447Y527266D01*
X364518Y527444D01*
X364571Y527497D01*
X364731Y527692D01*
X364837Y527976D01*
X364926Y528065D01*
X364997Y528100D01*
X365157Y528331D01*
X365192Y528402D01*
X365281Y528491D01*
X365352Y528526D01*
X365370Y528580D01*
X365441Y528651D01*
X365477Y528722D01*
X365530Y528775D01*
X365601Y528810D01*
X365796Y529006D01*
X365832Y529077D01*
X365885Y529130D01*
X365956Y529165D01*
X366258Y529467D01*
X366471Y529609D01*
X366506Y529680D01*
X366559Y529733D01*
X366808Y529911D01*
X366879Y529946D01*
X367056Y530124D01*
X367305Y530266D01*
X367376Y530301D01*
X367482Y530408D01*
X367873Y530621D01*
X368015Y530763D01*
X368192Y530869D01*
X368441Y530940D01*
X368530Y531029D01*
X368743Y531207D01*
X368974Y531260D01*
X369151Y531331D01*
X369311Y531491D01*
X369488Y531562D01*
X369719Y531615D01*
X369879Y531704D01*
X370074Y531864D01*
X370394Y531935D01*
X370536Y531970D01*
X370713Y532076D01*
X370908Y532201D01*
X371317Y532290D01*
X371512Y532378D01*
X371725Y532520D01*
X371920Y532574D01*
X372169Y532609D01*
X372328Y532662D01*
X372683Y532875D01*
X373092Y532929D01*
X373340Y532999D01*
X373624Y533177D01*
X373802Y533213D01*
X373944Y533248D01*
X374441Y533319D01*
X374831Y533568D01*
X375115Y533603D01*
X375364Y533639D01*
X375541Y533710D01*
X375612Y533745D01*
X375683Y533816D01*
X375808Y533905D01*
X376180Y533958D01*
X376322Y533994D01*
X376677Y534242D01*
X377139Y534313D01*
X377316Y534384D01*
X377529Y534597D01*
X377743Y534633D01*
X378027Y534704D01*
X378097Y534775D01*
X378346Y534952D01*
X378488Y534988D01*
X378719Y535112D01*
X378754Y535183D01*
X378932Y535289D01*
X379162Y535378D01*
X379305Y535520D01*
X379624Y535698D01*
X379748Y535822D01*
X379784Y535893D01*
X379908Y535982D01*
X379979Y536017D01*
X380068Y536106D01*
X380103Y536177D01*
X380263Y536337D01*
X380334Y536372D01*
X380565Y536710D01*
X380600Y536781D01*
X380654Y536798D01*
X380813Y537100D01*
X380884Y537277D01*
X380920Y537349D01*
X380991Y537420D01*
X381133Y537668D01*
X381168Y539195D01*
X381097Y539621D01*
X380955Y539834D01*
X380813Y540082D01*
X380742Y540260D01*
X380458Y540544D01*
X380423Y540615D01*
X380228Y540774D01*
X380157Y540810D01*
X380015Y540952D01*
X379695Y541129D01*
X379518Y541200D01*
X379340Y541378D01*
X379162Y541449D01*
X378879Y541520D01*
X378346Y541768D01*
X377884Y541804D01*
X377778Y541839D01*
X376890Y541875D01*
X376571Y542017D01*
X376464Y542052D01*
X376340Y542035D01*
X375772Y541999D01*
X375595Y541928D01*
X375417Y541893D01*
X374991Y541857D01*
X374600Y541822D01*
X374316Y541786D01*
X374086Y541733D01*
X373837Y541627D01*
X373784Y541573D01*
X373606Y541502D01*
X373411Y541449D01*
X373234Y541378D01*
X373163Y541343D01*
X373092Y541272D01*
X372701Y541059D01*
X372453Y540810D01*
X372382Y540774D01*
X372293Y540686D01*
X372257Y540615D01*
X372133Y540490D01*
X372062Y540455D01*
X371973Y540366D01*
X371938Y540295D01*
X371778Y540135D01*
X371707Y540100D01*
X371547Y539869D01*
X371512Y539798D01*
X371299Y539585D01*
X371263Y539443D01*
X371192Y539266D01*
X371157Y539195D01*
X371104Y539177D01*
X371050Y539124D01*
X370926Y538928D01*
X370873Y538698D01*
X370731Y538485D01*
X370642Y538360D01*
X370589Y538165D01*
X370518Y537881D01*
X370465Y537828D01*
X370394Y537792D01*
X370323Y537721D01*
X370252Y537686D01*
X370074Y537508D01*
X369861Y537473D01*
X369559Y537597D01*
X369382Y537668D01*
X369044Y537721D01*
X368689Y537757D01*
X368548Y537792D01*
X368246Y537917D01*
X368015Y538005D01*
X367908Y538041D01*
X367411Y538076D01*
X367127Y538147D01*
X366737Y538325D01*
X366630Y538360D01*
X366346Y538396D01*
X365991Y538431D01*
X365849Y538467D01*
X365548Y538627D01*
X365370Y538698D01*
X364891Y538751D01*
X364642Y538786D01*
X364358Y538857D01*
X364145Y538999D01*
X364074Y539035D01*
X363897Y539106D01*
X363808Y539195D01*
X363773Y539656D01*
X363808Y540011D01*
X363950Y540331D01*
X364039Y540455D01*
X364128Y540828D01*
X364163Y540970D01*
X364216Y541129D01*
X364394Y541413D01*
X364447Y541609D01*
X364518Y541893D01*
X364571Y541946D01*
X364731Y542141D01*
X364802Y542319D01*
X364837Y542461D01*
X364980Y542674D01*
X365121Y542922D01*
X365210Y543118D01*
X365335Y543206D01*
X365459Y543402D01*
X365512Y543597D01*
X365690Y543774D01*
X365867Y544094D01*
X365991Y544183D01*
X366151Y544378D01*
X366187Y544449D01*
X366400Y544662D01*
X366435Y544733D01*
X366595Y544893D01*
X366666Y544928D01*
X366719Y544981D01*
X366755Y545052D01*
X366950Y545248D01*
X367021Y545283D01*
X367074Y545336D01*
X367110Y545407D01*
X367269Y545567D01*
X367340Y545603D01*
X367465Y545727D01*
X367660Y545887D01*
X367731Y545922D01*
X367820Y546011D01*
X367855Y546082D01*
X367908Y546135D01*
X368157Y546277D01*
X368228Y546313D01*
X368405Y546490D01*
X368530Y546544D01*
X368760Y546632D01*
X368814Y546685D01*
X368849Y546757D01*
X369009Y546881D01*
X369151Y546916D01*
X369328Y546987D01*
X369399Y547023D01*
X369506Y547129D01*
X369683Y547236D01*
X369967Y547307D01*
X370127Y547396D01*
X370323Y547555D01*
X370536Y547591D01*
X370678Y547626D01*
X370873Y547680D01*
X371157Y547857D01*
X371352Y547910D01*
X371778Y547981D01*
X372098Y548123D01*
X372275Y548194D01*
X372382Y548230D01*
X373163Y548265D01*
X373411Y548372D01*
X373624Y548407D01*
X373873Y548443D01*
X374050Y548514D01*
X374157Y548549D01*
X376748Y548585D01*
X377849Y548549D01*
D02*
G37*
G36*
X347690Y537810D02*
X347832Y537775D01*
X348010Y537739D01*
X348631Y537686D01*
X349092Y537650D01*
X349235Y537615D01*
X349607Y537420D01*
X349874Y537366D01*
X350229Y537331D01*
X350406Y537260D01*
X350477Y537189D01*
X350672Y537065D01*
X350974Y537011D01*
X351152Y536940D01*
X351222Y536905D01*
X351347Y536781D01*
X351791Y536621D01*
X351933Y536479D01*
X352110Y536372D01*
X352412Y536248D01*
X352447Y536177D01*
X352572Y536053D01*
X352820Y535911D01*
X352856D01*
X352944Y535822D01*
X353140Y535662D01*
X353211Y535627D01*
X353353Y535485D01*
X353424Y535449D01*
X353601Y535272D01*
X353672Y535236D01*
X353796Y535112D01*
X353832Y535041D01*
X353885Y535023D01*
X353992Y534917D01*
X354222Y534579D01*
X354258Y534508D01*
X354453Y534384D01*
X354560Y534420D01*
X354613Y534473D01*
X354649Y535502D01*
X354684Y535644D01*
X354755Y535822D01*
X354790Y536710D01*
X354826Y536852D01*
X354897Y537029D01*
X354933Y537171D01*
X355092Y537331D01*
X360311Y537366D01*
X360560Y537295D01*
X360613Y537242D01*
X360826Y536852D01*
X360808Y536443D01*
X360826Y502202D01*
X360790Y501953D01*
X360719Y501705D01*
X360666Y501651D01*
X360418Y501474D01*
X360346Y501438D01*
X360258Y501350D01*
X360116Y501314D01*
X355021Y501332D01*
X354844Y501403D01*
X354631Y501545D01*
X354560Y501580D01*
X354329Y501882D01*
X354294Y513740D01*
X354329Y514308D01*
X354294Y514556D01*
X354205Y514610D01*
X353956Y514538D01*
X353832Y514379D01*
X353796Y514308D01*
X353743Y514254D01*
X353672Y514219D01*
X353548Y514095D01*
X353512Y514024D01*
X353317Y513864D01*
X353246Y513829D01*
X353069Y513651D01*
X352678Y513438D01*
X352465Y513225D01*
X352217Y513083D01*
X352146Y513047D01*
X352075Y512976D01*
X351950Y512888D01*
X351613Y512763D01*
X351507Y512657D01*
X351311Y512533D01*
X351116Y512479D01*
X350797Y512337D01*
X350601Y512213D01*
X350370Y512160D01*
X350122Y512124D01*
X349874Y512018D01*
X349803Y511982D01*
X349749Y511929D01*
X349572Y511858D01*
X348915Y511805D01*
X348773Y511769D01*
X348578Y511681D01*
X348347Y511627D01*
X348240Y511592D01*
X347495Y511521D01*
X347388Y511485D01*
X345489Y511503D01*
X345276Y511539D01*
X344708Y511574D01*
X344530Y511645D01*
X343962Y511787D01*
X343377Y511840D01*
X343093Y511911D01*
X342631Y512124D01*
X342347Y512160D01*
X342063Y512231D01*
X341832Y512391D01*
X341655Y512462D01*
X341424Y512515D01*
X341246Y512586D01*
X341193Y512639D01*
X340909Y512817D01*
X340678Y512870D01*
X340323Y513119D01*
X340252Y513154D01*
X340075Y513225D01*
X339968Y513331D01*
X339720Y513509D01*
X339649Y513545D01*
X339436Y513758D01*
X339187Y513899D01*
X339116Y513935D01*
X338974Y514077D01*
X338726Y514219D01*
X338602Y514343D01*
X338566Y514414D01*
X338477Y514503D01*
X338406Y514538D01*
X338247Y514698D01*
X338211Y514769D01*
X338016Y514929D01*
X337856Y515124D01*
X337821Y515195D01*
X337696Y515320D01*
X337537Y515515D01*
X337501Y515586D01*
X337324Y515763D01*
X337146Y516083D01*
X336968Y516260D01*
X336755Y516651D01*
X336649Y516757D01*
X336560Y516882D01*
X336436Y517219D01*
X336329Y517326D01*
X336205Y517521D01*
X336152Y517752D01*
X336081Y517929D01*
X336028Y517982D01*
X335868Y518177D01*
X335832Y518391D01*
X335761Y518639D01*
X335690Y518710D01*
X335602Y518834D01*
X335531Y519012D01*
X335477Y519420D01*
X335335Y519740D01*
X335193Y519988D01*
X335158Y520343D01*
X335122Y520592D01*
X335087Y520734D01*
X335034Y520929D01*
X334927Y521213D01*
X334892Y521355D01*
X334856Y521532D01*
X334821Y521816D01*
X334785Y522668D01*
X334750Y522882D01*
X334714Y523059D01*
X334679Y523272D01*
X334696Y525455D01*
X334661Y526236D01*
X334767Y526485D01*
X334803Y527266D01*
X334838Y527728D01*
X334909Y528153D01*
X335087Y528544D01*
X335158Y529006D01*
X335193Y529361D01*
X335265Y529609D01*
X335406Y529822D01*
X335460Y529946D01*
X335513Y530355D01*
X335584Y530532D01*
X335655Y530603D01*
X335779Y530798D01*
X335815Y530940D01*
X335850Y531118D01*
X335904Y531349D01*
X336010Y531455D01*
X336099Y531580D01*
X336170Y531757D01*
X336223Y531952D01*
X336312Y532041D01*
X336454Y532254D01*
X336543Y532485D01*
X336720Y532662D01*
X336827Y532840D01*
X336898Y533088D01*
X337022Y533213D01*
X337182Y533408D01*
X337217Y533479D01*
X337430Y533692D01*
X337537Y533869D01*
X337785Y534118D01*
X337821Y534189D01*
X337909Y534278D01*
X337980Y534313D01*
X338105Y534437D01*
X338140Y534508D01*
X338619Y534988D01*
X338690Y535023D01*
X338815Y535147D01*
X338850Y535218D01*
X338974Y535307D01*
X339045Y535343D01*
X339258Y535556D01*
X339507Y535698D01*
X339596Y535786D01*
X339631Y535857D01*
X339862Y536017D01*
X340004Y536053D01*
X340111Y536159D01*
X340430Y536337D01*
X340625Y536426D01*
X340821Y536585D01*
X340998Y536656D01*
X341140Y536692D01*
X341317Y536763D01*
X341477Y536922D01*
X341655Y536993D01*
X341868Y537029D01*
X342099Y537082D01*
X342489Y537331D01*
X342915Y537366D01*
X343057Y537402D01*
X343306Y537473D01*
X343465Y537561D01*
X343643Y537632D01*
X343856Y537668D01*
X344726Y537721D01*
X344974Y537757D01*
X345152Y537828D01*
X347690Y537810D01*
D02*
G37*
%LPC*%
G36*
X318880Y531935D02*
X318525Y531899D01*
X318153Y531739D01*
X317922Y531651D01*
X317815Y531615D01*
X317460Y531580D01*
X317176Y531508D01*
X317034Y531367D01*
X316910Y531278D01*
X316768Y531242D01*
X316537Y531189D01*
X316448Y531100D01*
X316253Y530940D01*
X316182Y530905D01*
X315934Y530798D01*
X315845Y530710D01*
X315650Y530550D01*
X315579Y530514D01*
X315454Y530390D01*
X315259Y530230D01*
X315188Y530195D01*
X315099Y530106D01*
X314993Y529929D01*
X314780Y529716D01*
X314673Y529538D01*
X314496Y529361D01*
X314460Y529290D01*
X314407Y529236D01*
X314318Y529006D01*
X314070Y528757D01*
X313999Y528580D01*
X313928Y528331D01*
X313821Y528224D01*
X313697Y528029D01*
X313662Y527887D01*
X313626Y527674D01*
X313591Y527532D01*
X313573Y527514D01*
X313360Y527089D01*
X313324Y526662D01*
X313289Y526556D01*
X313253Y525952D01*
X313165Y525757D01*
X313093Y525580D01*
X313111Y523858D01*
X313218Y523432D01*
X313253Y523183D01*
X313289Y523077D01*
X313324Y522473D01*
X313395Y522225D01*
X313608Y521905D01*
X313644Y521586D01*
X313715Y521337D01*
X313821Y521231D01*
X313946Y521035D01*
X313999Y520840D01*
X314070Y520663D01*
X314230Y520503D01*
X314443Y520077D01*
X314514Y520041D01*
X314567Y519988D01*
X314709Y519740D01*
X314833Y519615D01*
X314904Y519580D01*
X314957Y519527D01*
X314993Y519456D01*
X315153Y519296D01*
X315224Y519260D01*
X315277Y519207D01*
X315312Y519136D01*
X315383Y519065D01*
X315579Y518905D01*
X315650Y518870D01*
X315667Y518816D01*
X315756Y518728D01*
X316076Y518550D01*
X316182Y518444D01*
X316306Y518355D01*
X316484Y518284D01*
X316679Y518231D01*
X316768Y518142D01*
X316963Y517982D01*
X317176Y517947D01*
X317318Y517911D01*
X317780Y517698D01*
X317957Y517627D01*
X318490Y517592D01*
X318596Y517556D01*
X319413Y517521D01*
X319910Y517450D01*
X320016Y517485D01*
X320691Y517521D01*
X320797Y517556D01*
X321295Y517592D01*
X321756Y517627D01*
X322146Y517876D01*
X322324Y517911D01*
X322466Y517947D01*
X322715Y517982D01*
X322857Y518124D01*
X323105Y518266D01*
X323354Y518373D01*
X323460Y518479D01*
X323780Y518657D01*
X323939Y518816D01*
X324135Y518976D01*
X324206Y519012D01*
X324259Y519065D01*
X324294Y519136D01*
X324348Y519189D01*
X324419Y519225D01*
X324543Y519349D01*
X324578Y519420D01*
X324862Y519704D01*
X324969Y519882D01*
X325022Y519935D01*
X325093Y519970D01*
X325146Y520024D01*
X325324Y520343D01*
X325501Y520521D01*
X325679Y521018D01*
X325732Y521071D01*
X325910Y521355D01*
X325963Y521586D01*
X325998Y521728D01*
X326069Y521905D01*
X326105Y521976D01*
X326158Y522029D01*
X326229Y522207D01*
X326265Y522349D01*
X326318Y522935D01*
X326389Y523219D01*
X326460Y523396D01*
X326496Y523893D01*
X326567Y524071D01*
X326602Y524603D01*
X326637Y524710D01*
X326602Y525029D01*
X326531Y525455D01*
X326496Y525597D01*
X326460Y525952D01*
X326407Y526112D01*
X326336Y526396D01*
X326283Y526946D01*
X326247Y527195D01*
X326158Y527390D01*
X326016Y527603D01*
X325963Y527799D01*
X325928Y528047D01*
X325856Y528224D01*
X325750Y528331D01*
X325661Y528455D01*
X325537Y528793D01*
X325395Y528935D01*
X325253Y529183D01*
X325217Y529325D01*
X325004Y529538D01*
X324898Y529716D01*
X324738Y529875D01*
X324667Y529911D01*
X324614Y529964D01*
X324578Y530035D01*
X324419Y530195D01*
X324348Y530230D01*
X324294Y530284D01*
X324259Y530355D01*
X324135Y530479D01*
X323886Y530621D01*
X323744Y530763D01*
X323354Y530976D01*
X323283Y531011D01*
X323247Y531082D01*
X323123Y531171D01*
X322892Y531260D01*
X322644Y531331D01*
X322519Y531455D01*
X322342Y531526D01*
X322111Y531580D01*
X321862Y531615D01*
X321685Y531686D01*
X321437Y531757D01*
X321117Y531899D01*
X318880Y531935D01*
D02*
G37*
G36*
X265131Y532147D02*
X264953Y532076D01*
X264829Y532023D01*
X264687Y531988D01*
X263994Y531935D01*
X263852Y531899D01*
X263604Y531864D01*
X263444Y531704D01*
X263213Y531615D01*
X262929Y531544D01*
X262841Y531455D01*
X262805Y531384D01*
X262681Y531296D01*
X262397Y531189D01*
X262273Y531065D01*
X262077Y530905D01*
X262006Y530869D01*
X261882Y530745D01*
X261847Y530674D01*
X261633Y530461D01*
X261527Y530284D01*
X261225Y529875D01*
X261136Y529645D01*
X260994Y529503D01*
X260853Y529254D01*
X260781Y528970D01*
X260533Y528615D01*
X260497Y528331D01*
X260462Y528083D01*
X260427Y527940D01*
X260355Y527869D01*
X260320Y527621D01*
X260409Y527532D01*
X270598Y527497D01*
X270704Y527461D01*
X270882Y527497D01*
X271024Y527532D01*
X271077Y527585D01*
X271112Y527799D01*
X271077Y527940D01*
X271006Y528189D01*
X270828Y528367D01*
Y528402D01*
X270811Y528420D01*
X270722Y528793D01*
X270651Y528970D01*
X270580Y529041D01*
X270331Y529503D01*
X270296Y529574D01*
X270189Y529645D01*
X269977Y530035D01*
X269852Y530159D01*
X269781Y530195D01*
X269728Y530248D01*
X269692Y530319D01*
X269533Y530479D01*
X269408Y530568D01*
X269373Y530639D01*
X269213Y530798D01*
X269036Y530905D01*
X268858Y531082D01*
X268610Y531224D01*
X268432Y531296D01*
X268237Y531491D01*
X268059Y531562D01*
X267758Y531615D01*
X267562Y531704D01*
X267278Y531881D01*
X267012Y531935D01*
X266444Y531970D01*
X266089Y532006D01*
X265947Y532041D01*
X265770Y532112D01*
X265131Y532147D01*
D02*
G37*
G36*
X136649D02*
X136330Y532006D01*
X136010Y531970D01*
X135300Y531899D01*
X135105Y531846D01*
X134910Y531686D01*
X134732Y531615D01*
X134448Y531544D01*
X134199Y531296D01*
X133916Y531189D01*
X133738Y531011D01*
X133490Y530834D01*
X133330Y530639D01*
X133294Y530568D01*
X133205Y530479D01*
X133046Y530284D01*
X133010Y530213D01*
X132921Y530124D01*
X132691Y529787D01*
X132655Y529645D01*
X132478Y529467D01*
X132371Y529290D01*
X132300Y529006D01*
X132247Y528846D01*
X132034Y528491D01*
X131981Y528047D01*
X131910Y527869D01*
X131874Y527621D01*
X131927Y527568D01*
X132052Y527514D01*
X142241Y527479D01*
X142401Y527497D01*
X142542Y527532D01*
X142596Y527585D01*
X142631Y527799D01*
X142560Y528047D01*
X142525Y528189D01*
X142347Y528438D01*
X142241Y528722D01*
Y528757D01*
X142170Y528970D01*
X142116Y529023D01*
X141974Y529236D01*
X141886Y529467D01*
X141708Y529645D01*
X141495Y530035D01*
X141371Y530159D01*
X141211Y530355D01*
X141176Y530426D01*
X141122Y530479D01*
X140945Y530585D01*
X140821Y530710D01*
X140625Y530869D01*
X140554Y530905D01*
X140501Y530958D01*
X140306Y531118D01*
X140128Y531224D01*
X139951Y531296D01*
X139809Y531437D01*
X139685Y531526D01*
X139312Y531615D01*
X138992Y531757D01*
X138797Y531881D01*
X138531Y531935D01*
X137963Y531970D01*
X137608Y532006D01*
X137466Y532041D01*
X137288Y532112D01*
X136649Y532147D01*
D02*
G37*
G36*
X347140Y531935D02*
X346785Y531899D01*
X346323Y531757D01*
X346075Y531686D01*
X345649Y531580D01*
X345400Y531508D01*
X345329Y531437D01*
X345010Y531260D01*
X344868Y531224D01*
X344690Y531153D01*
X344584Y531047D01*
X344335Y530905D01*
X344158Y530834D01*
X343980Y530656D01*
X343803Y530550D01*
X343678Y530426D01*
X343643Y530355D01*
X343554Y530266D01*
X343483Y530230D01*
X343359Y530106D01*
X343323Y530035D01*
X343199Y529911D01*
X343128Y529875D01*
X343039Y529787D01*
X342933Y529609D01*
X342755Y529432D01*
X342667Y529307D01*
X342578Y529077D01*
X342400Y528899D01*
X342258Y528651D01*
X342152Y528402D01*
X342116Y528331D01*
X342028Y528242D01*
X341939Y528012D01*
X341903Y527763D01*
X341797Y527514D01*
X341655Y527266D01*
X341584Y526805D01*
X341513Y526307D01*
X341389Y526077D01*
X341353Y525899D01*
X341371Y525704D01*
X341335Y525562D01*
X341300Y525455D01*
X341264Y524248D01*
X341335Y523751D01*
X341406Y523467D01*
X341460Y523272D01*
X341530Y522988D01*
X341566Y522811D01*
X341619Y522225D01*
X341761Y521905D01*
X341885Y521710D01*
X341939Y521444D01*
X341974Y521302D01*
X342045Y521124D01*
X342205Y520964D01*
X342294Y520734D01*
X342365Y520556D01*
X342400Y520485D01*
X342542Y520343D01*
X342684Y520095D01*
X342720Y520024D01*
X342773Y520006D01*
X342826Y519953D01*
X343004Y519704D01*
X343039Y519633D01*
X343252Y519420D01*
X343288Y519349D01*
X343554Y519083D01*
X343803Y518941D01*
X344051Y518692D01*
X344300Y518550D01*
X344353Y518497D01*
X344548Y518337D01*
X344619Y518302D01*
X344761Y518266D01*
X344939Y518195D01*
X345098Y518036D01*
X345276Y517965D01*
X345418Y517929D01*
X345755Y517876D01*
X346146Y517627D01*
X346678Y517592D01*
X346785Y517556D01*
X347530Y517521D01*
X347779Y517485D01*
X347885Y517450D01*
X348329Y517503D01*
X349075Y517538D01*
X349288Y517574D01*
X349785Y517609D01*
X350069Y517681D01*
X350282Y517822D01*
X350459Y517893D01*
X350761Y517947D01*
X350938Y518018D01*
X351009Y518053D01*
X351134Y518177D01*
X351365Y518266D01*
X351542Y518337D01*
X351613Y518373D01*
X351720Y518479D01*
X352110Y518692D01*
X352128Y518745D01*
X352252Y518870D01*
X352430Y518976D01*
X352483Y519030D01*
X352518Y519100D01*
X352678Y519260D01*
X352749Y519296D01*
X352873Y519420D01*
X352909Y519491D01*
X353033Y519615D01*
X353193Y519811D01*
X353228Y519882D01*
X353388Y520041D01*
X353459Y520077D01*
X353548Y520272D01*
X353619Y520450D01*
X353814Y520645D01*
X353974Y521089D01*
X354080Y521195D01*
X354205Y521390D01*
X354258Y521692D01*
X354294Y521941D01*
X354524Y522384D01*
X354560Y522527D01*
X354613Y523290D01*
X354649Y523538D01*
X354755Y523787D01*
X354790Y525278D01*
X354755Y525420D01*
X354702Y525615D01*
X354666Y525793D01*
X354631Y526077D01*
X354542Y526982D01*
X354294Y527514D01*
X354258Y527728D01*
X354222Y527869D01*
X354151Y528118D01*
X353974Y528296D01*
X353903Y528473D01*
X353832Y528722D01*
X353725Y528828D01*
X353548Y529077D01*
X353512Y529219D01*
X353441Y529290D01*
X353406Y529361D01*
X353299Y529467D01*
X353157Y529716D01*
X353104Y529769D01*
X353033Y529804D01*
X352838Y530000D01*
X352802Y530071D01*
X352643Y530195D01*
X352465Y530408D01*
X352217Y530585D01*
X352146Y530621D01*
X352021Y530745D01*
X351737Y530923D01*
X351720Y530940D01*
X351649D01*
X351507Y531082D01*
X351258Y531224D01*
X350974Y531296D01*
X350868Y531402D01*
X350619Y531580D01*
X350264Y531615D01*
X349909Y531721D01*
X349660Y531828D01*
X349483Y531899D01*
X347140Y531935D01*
D02*
G37*
%LPD*%
D10*
X203129Y472517D02*
G03*
X203129Y472517I-1250J0D01*
G01*
D14*
X525725Y582719D02*
G03*
X525725Y582719I-1250J0D01*
G01*
X648865Y526219D02*
G03*
X648865Y526219I-1250J0D01*
G01*
D15*
X540525Y561219D02*
G03*
X540525Y561219I-3000J0D01*
G01*
X637565Y547719D02*
G03*
X637565Y547719I-3000J0D01*
G01*
D16*
X585808Y11196D02*
G03*
X585808Y11196I-1000J0D01*
G01*
D17*
X204631Y320155D02*
G03*
X204631Y320155I-1250J0D01*
G01*
D18*
X230265Y702517D02*
X231265D01*
X230265Y694518D02*
X231265D01*
X230265Y722336D02*
X231265D01*
X230265Y714336D02*
X231265D01*
X524824Y389513D02*
X525825D01*
X524824Y397513D02*
X525825D01*
X524839Y413001D02*
X525839D01*
X524839Y405001D02*
X525839D01*
X524839Y420490D02*
X525839D01*
X524839Y428490D02*
X525839D01*
X158381Y266105D02*
X191881D01*
X158381Y317105D02*
X191881D01*
X158381Y266105D02*
Y317105D01*
X191881Y266105D02*
Y317105D01*
X48003Y256497D02*
X64253D01*
X48003Y282497D02*
X64253D01*
X48003Y277997D02*
Y282497D01*
Y256497D02*
Y260997D01*
X138881Y233497D02*
Y234497D01*
X146881Y233497D02*
Y234497D01*
X156674Y233497D02*
Y234497D01*
X164674Y233497D02*
Y234497D01*
X174467Y233497D02*
Y234497D01*
X182467Y233497D02*
Y234497D01*
X242704Y272602D02*
Y273602D01*
X234704Y272602D02*
Y273602D01*
X306447Y272602D02*
Y273602D01*
X314447Y272602D02*
Y273602D01*
X287909Y272602D02*
Y273602D01*
X295909Y272602D02*
Y273602D01*
X279172Y272602D02*
Y273602D01*
X271172Y272602D02*
Y273602D01*
X260635Y272602D02*
Y273602D01*
X252635Y272602D02*
Y273602D01*
X333761Y272602D02*
Y273602D01*
X325761Y272602D02*
Y273602D01*
X342390Y272602D02*
Y273602D01*
X350390Y272602D02*
Y273602D01*
X367834Y337317D02*
Y338317D01*
X359834Y337317D02*
Y338317D01*
X385278Y337317D02*
Y338317D01*
X377278Y337317D02*
Y338317D01*
X402721Y337317D02*
Y338317D01*
X394721Y337317D02*
Y338317D01*
X420165Y337317D02*
Y338317D01*
X412165Y337317D02*
Y338317D01*
X420165Y304782D02*
Y305782D01*
X412165Y304782D02*
Y305782D01*
X402721Y304782D02*
Y305782D01*
X394721Y304782D02*
Y305782D01*
X385278Y304782D02*
Y305782D01*
X377278Y304782D02*
Y305782D01*
X367834Y304782D02*
Y305782D01*
X359834Y304782D02*
Y305782D01*
X296162Y304782D02*
Y305782D01*
X288162Y304782D02*
Y305782D01*
X314699Y304782D02*
Y305782D01*
X306700Y304782D02*
Y305782D01*
X350390Y304782D02*
Y305782D01*
X342390Y304782D02*
Y305782D01*
X242957Y304782D02*
Y305782D01*
X234956Y304782D02*
Y305782D01*
X292563Y365480D02*
X293563D01*
X292563Y373480D02*
X293563D01*
X292563Y381972D02*
X293563D01*
X292563Y389972D02*
X293563D01*
X578525Y537719D02*
Y571219D01*
X527525Y537719D02*
Y571219D01*
Y537719D02*
X578525D01*
X527525Y571219D02*
X578525D01*
X593565Y537719D02*
Y571219D01*
X644565Y537719D02*
Y571219D01*
X593565D02*
X644565D01*
X593565Y537719D02*
X644565D01*
X655773Y520955D02*
Y521955D01*
X663773Y520955D02*
Y521955D01*
X663773Y553936D02*
Y554936D01*
X655773Y553936D02*
Y554936D01*
X663773Y586916D02*
Y587916D01*
X655773Y586916D02*
Y587916D01*
X600694Y487975D02*
Y488975D01*
X608694Y487975D02*
Y488975D01*
X655773Y487975D02*
Y488975D01*
X663773Y487975D02*
Y488975D01*
X545224Y487975D02*
Y488975D01*
X553224Y487975D02*
Y488975D01*
X515607Y521017D02*
Y522017D01*
X507607Y521017D02*
Y522017D01*
X515607Y554059D02*
Y555059D01*
X507607Y554059D02*
Y555059D01*
X507607Y587101D02*
Y588101D01*
X515607Y587101D02*
Y588101D01*
X626155Y619897D02*
Y620897D01*
X618155Y619897D02*
Y620897D01*
X562685Y619897D02*
Y620897D01*
X570685Y619897D02*
Y620897D01*
X507607Y619897D02*
Y620897D01*
X515607Y619897D02*
Y620897D01*
D19*
X250703Y30197D02*
X256803D01*
X593203D02*
X599303D01*
X250703Y89797D02*
X256803D01*
X593203D02*
X599303D01*
X234503Y44397D02*
Y75597D01*
X615503Y44397D02*
Y75597D01*
X243465Y692676D02*
Y704360D01*
X218065Y692676D02*
Y704360D01*
Y692676D02*
X243465D01*
X218065Y704360D02*
X243465D01*
Y712495D02*
Y724179D01*
X218065Y712495D02*
Y724179D01*
Y712495D02*
X243465D01*
X218065Y724179D02*
X243465D01*
X512624Y399355D02*
X538024D01*
X512624Y387671D02*
X538024D01*
X512624D02*
Y399355D01*
X538024Y387671D02*
Y399355D01*
X512639Y403158D02*
X538039D01*
X512639Y414842D02*
X538039D01*
Y403158D02*
Y414842D01*
X512639Y403158D02*
Y414842D01*
X512639Y430332D02*
X538039D01*
X512639Y418648D02*
X538039D01*
X512639D02*
Y430332D01*
X538039Y418648D02*
Y430332D01*
X79857Y223090D02*
Y242648D01*
Y223090D02*
X130149D01*
Y242648D01*
X79857D02*
X130149D01*
X148724Y221297D02*
Y246697D01*
X137040Y221297D02*
Y246697D01*
X148724D01*
X137040Y221297D02*
X148724D01*
X166517D02*
Y246697D01*
X154833Y221297D02*
Y246697D01*
X166517D01*
X154833Y221297D02*
X166517D01*
X184310D02*
Y246697D01*
X172626Y221297D02*
Y246697D01*
X184310D01*
X172626Y221297D02*
X184310D01*
X232862Y260402D02*
X244546D01*
X232862Y285802D02*
X244546D01*
X232862Y260402D02*
Y285802D01*
X244546Y260402D02*
Y285802D01*
X316290Y260402D02*
Y285802D01*
X304606Y260402D02*
Y285802D01*
X316290D01*
X304606Y260402D02*
X316290D01*
X297752D02*
Y285802D01*
X286068Y260402D02*
Y285802D01*
X297752D01*
X286068Y260402D02*
X297752D01*
X269331D02*
X281015D01*
X269331Y285802D02*
X281015D01*
X269331Y260402D02*
Y285802D01*
X281015Y260402D02*
Y285802D01*
X250792Y260402D02*
Y285802D01*
X262476Y260402D02*
Y285802D01*
X250792Y260402D02*
X262476D01*
X250792Y285802D02*
X262476D01*
X323920Y260402D02*
X335604D01*
X323920Y285802D02*
X335604D01*
X323920Y260402D02*
Y285802D01*
X335604Y260402D02*
Y285802D01*
X340548Y285802D02*
X352232D01*
X340548Y260402D02*
X352232D01*
Y285802D01*
X340548Y260402D02*
Y285802D01*
X357993Y325117D02*
X369677D01*
X357993Y350517D02*
X369677D01*
X357993Y325117D02*
Y350517D01*
X369677Y325117D02*
Y350517D01*
X375436Y325117D02*
X387120D01*
X375436Y350517D02*
X387120D01*
X375436Y325117D02*
Y350517D01*
X387120Y325117D02*
Y350517D01*
X392880Y325117D02*
X404564D01*
X392880Y350517D02*
X404564D01*
X392880Y325117D02*
Y350517D01*
X404564Y325117D02*
Y350517D01*
X410324Y325117D02*
X422008D01*
X410324Y350517D02*
X422008D01*
X410324Y325117D02*
Y350517D01*
X422008Y325117D02*
Y350517D01*
X410322Y292581D02*
Y317981D01*
X422006Y292581D02*
Y317981D01*
X410322Y292581D02*
X422006D01*
X410322Y317981D02*
X422006D01*
X392878Y292581D02*
Y317981D01*
X404562Y292581D02*
Y317981D01*
X392878Y292581D02*
X404562D01*
X392878Y317981D02*
X404562D01*
X375435Y292581D02*
Y317981D01*
X387119Y292581D02*
Y317981D01*
X375435Y292581D02*
X387119D01*
X375435Y317981D02*
X387119D01*
X357991Y292581D02*
Y317981D01*
X369675Y292581D02*
Y317981D01*
X357991Y292581D02*
X369675D01*
X357991Y317981D02*
X369675D01*
X286321Y292582D02*
X298005D01*
X286321Y317982D02*
X298005D01*
X286321Y292582D02*
Y317982D01*
X298005Y292582D02*
Y317982D01*
X304858Y292582D02*
X316542D01*
X304858Y317982D02*
X316542D01*
X304858Y292582D02*
Y317982D01*
X316542Y292582D02*
Y317982D01*
X340548Y292581D02*
Y317981D01*
X352232Y292581D02*
Y317981D01*
X340548Y292581D02*
X352232D01*
X340548Y317981D02*
X352232D01*
X233115Y292582D02*
X244799D01*
X233115Y317982D02*
X244799D01*
X233115Y292582D02*
Y317982D01*
X244799Y292582D02*
Y317982D01*
X280364Y363637D02*
Y375321D01*
X305764Y363637D02*
Y375321D01*
X280364D02*
X305764D01*
X280364Y363637D02*
X305764D01*
X280363Y391815D02*
X305763D01*
X280363Y380131D02*
X305763D01*
X280363D02*
Y391815D01*
X305763Y380131D02*
Y391815D01*
X665616Y508756D02*
Y534156D01*
X653932Y508756D02*
Y534156D01*
X665616D01*
X653932Y508756D02*
X665616D01*
X653930Y541735D02*
Y567135D01*
X665614Y541735D02*
Y567135D01*
X653930Y541735D02*
X665614D01*
X653930Y567135D02*
X665614D01*
X653930Y574716D02*
Y600116D01*
X665614Y574716D02*
Y600116D01*
X653930Y574716D02*
X665614D01*
X653930Y600116D02*
X665614D01*
X610537Y475775D02*
Y501175D01*
X598853Y475775D02*
Y501175D01*
X610537D01*
X598853Y475775D02*
X610537D01*
X665616D02*
Y501175D01*
X653932Y475775D02*
Y501175D01*
X665616D01*
X653932Y475775D02*
X665616D01*
X555067D02*
Y501175D01*
X543383Y475775D02*
Y501175D01*
X555067D01*
X543383Y475775D02*
X555067D01*
X505765Y508817D02*
X517449D01*
X505765Y534217D02*
X517449D01*
X505765Y508817D02*
Y534217D01*
X517449Y508817D02*
Y534217D01*
X505765Y541859D02*
X517449D01*
X505765Y567259D02*
X517449D01*
X505765Y541859D02*
Y567259D01*
X517449Y541859D02*
Y567259D01*
X505764Y600300D02*
X517448D01*
X505764Y574901D02*
X517448D01*
Y600300D01*
X505764Y574901D02*
Y600300D01*
X616312Y607697D02*
Y633097D01*
X627996Y607697D02*
Y633097D01*
X616312Y607697D02*
X627996D01*
X616312Y633097D02*
X627996D01*
X560842D02*
X572526D01*
X560842Y607697D02*
X572526D01*
Y633097D01*
X560842Y607697D02*
Y633097D01*
X505764D02*
X517448D01*
X505764Y607697D02*
X517448D01*
Y633097D01*
X505764Y607697D02*
Y633097D01*
D20*
X547702Y462498D02*
X547036Y463164D01*
Y464497D01*
X547702Y465164D01*
X550368D01*
X551035Y464497D01*
Y463164D01*
X550368Y462498D01*
Y461165D02*
X551035Y460499D01*
Y459166D01*
X550368Y458499D01*
X547702D01*
X547036Y459166D01*
Y460499D01*
X547702Y461165D01*
X548369D01*
X549035Y460499D01*
Y458499D01*
X551035Y454500D02*
Y457166D01*
X548369Y454500D01*
X547702D01*
X547036Y455167D01*
Y456500D01*
X547702Y457166D01*
X621119Y652540D02*
X620452Y653206D01*
Y654539D01*
X621119Y655206D01*
X623784D01*
X624451Y654539D01*
Y653206D01*
X623784Y652540D01*
X624451Y651207D02*
Y649874D01*
Y650541D01*
X620452D01*
X621119Y651207D01*
X620452Y645209D02*
Y647875D01*
X622451D01*
X621785Y646542D01*
Y645875D01*
X622451Y645209D01*
X623784D01*
X624451Y645875D01*
Y647208D01*
X623784Y647875D01*
X620452Y641210D02*
X621119Y642543D01*
X622451Y643876D01*
X623784D01*
X624451Y643210D01*
Y641877D01*
X623784Y641210D01*
X623118D01*
X622451Y641877D01*
Y643876D01*
X168146Y422689D02*
Y426687D01*
X166146D01*
X165480Y426021D01*
Y424688D01*
X166146Y424022D01*
X168146D01*
X166813D02*
X165480Y422689D01*
X164147Y426021D02*
X163480Y426687D01*
X162148D01*
X161481Y426021D01*
Y425354D01*
X162148Y424688D01*
X161481Y424022D01*
Y423355D01*
X162148Y422689D01*
X163480D01*
X164147Y423355D01*
Y424022D01*
X163480Y424688D01*
X164147Y425354D01*
Y426021D01*
X163480Y424688D02*
X162148D01*
X158149Y422689D02*
Y426687D01*
X160148Y424688D01*
X157482D01*
X211214Y396273D02*
Y400271D01*
X209214D01*
X208548Y399605D01*
Y398272D01*
X209214Y397606D01*
X211214D01*
X209881D02*
X208548Y396273D01*
X207215D02*
X205882D01*
X206549D01*
Y400271D01*
X207215Y399605D01*
X203883D02*
X203216Y400271D01*
X201883D01*
X201217Y399605D01*
Y398938D01*
X201883Y398272D01*
X202550D01*
X201883D01*
X201217Y397606D01*
Y396939D01*
X201883Y396273D01*
X203216D01*
X203883Y396939D01*
X199884Y399605D02*
X199218Y400271D01*
X197885D01*
X197218Y399605D01*
Y398938D01*
X197885Y398272D01*
X197218Y397606D01*
Y396939D01*
X197885Y396273D01*
X199218D01*
X199884Y396939D01*
Y397606D01*
X199218Y398272D01*
X199884Y398938D01*
Y399605D01*
X199218Y398272D02*
X197885D01*
X190643Y474776D02*
Y471444D01*
X189976Y470778D01*
X188643D01*
X187977Y471444D01*
Y474776D01*
X186644Y474110D02*
X185978Y474776D01*
X184645D01*
X183978Y474110D01*
Y473443D01*
X184645Y472777D01*
X183978Y472110D01*
Y471444D01*
X184645Y470778D01*
X185978D01*
X186644Y471444D01*
Y472110D01*
X185978Y472777D01*
X186644Y473443D01*
Y474110D01*
X185978Y472777D02*
X184645D01*
X588548Y528287D02*
Y524955D01*
X587882Y524289D01*
X586549D01*
X585882Y524955D01*
Y528287D01*
X584550D02*
X581884D01*
Y527621D01*
X584550Y524955D01*
Y524289D01*
X589023Y584626D02*
Y581294D01*
X588357Y580628D01*
X587024D01*
X586358Y581294D01*
Y584626D01*
X582359D02*
X583692Y583960D01*
X585025Y582627D01*
Y581294D01*
X584358Y580628D01*
X583025D01*
X582359Y581294D01*
Y581961D01*
X583025Y582627D01*
X585025D01*
X643337Y654130D02*
X639338D01*
Y652130D01*
X640005Y651464D01*
X641337D01*
X642004Y652130D01*
Y654130D01*
Y652797D02*
X643337Y651464D01*
Y650131D02*
Y648798D01*
Y649464D01*
X639338D01*
X640005Y650131D01*
Y646799D02*
X639338Y646132D01*
Y644799D01*
X640005Y644133D01*
X640671D01*
X641337Y644799D01*
Y645466D01*
Y644799D01*
X642004Y644133D01*
X642670D01*
X643337Y644799D01*
Y646132D01*
X642670Y646799D01*
X639338Y642800D02*
Y640134D01*
X640005D01*
X642670Y642800D01*
X643337D01*
X641798Y468496D02*
X637799D01*
Y466497D01*
X638466Y465830D01*
X639799D01*
X640465Y466497D01*
Y468496D01*
Y467163D02*
X641798Y465830D01*
Y464497D02*
Y463164D01*
Y463831D01*
X637799D01*
X638466Y464497D01*
Y461165D02*
X637799Y460499D01*
Y459166D01*
X638466Y458499D01*
X639132D01*
X639799Y459166D01*
Y459832D01*
Y459166D01*
X640465Y458499D01*
X641132D01*
X641798Y459166D01*
Y460499D01*
X641132Y461165D01*
X637799Y454501D02*
X638466Y455834D01*
X639799Y457166D01*
X641132D01*
X641798Y456500D01*
Y455167D01*
X641132Y454501D01*
X640465D01*
X639799Y455167D01*
Y457166D01*
X606925Y654698D02*
X602926D01*
Y652698D01*
X603592Y652032D01*
X604925D01*
X605592Y652698D01*
Y654698D01*
Y653365D02*
X606925Y652032D01*
Y650699D02*
Y649366D01*
Y650033D01*
X602926D01*
X603592Y650699D01*
Y647367D02*
X602926Y646700D01*
Y645367D01*
X603592Y644701D01*
X604259D01*
X604925Y645367D01*
Y646034D01*
Y645367D01*
X605592Y644701D01*
X606258D01*
X606925Y645367D01*
Y646700D01*
X606258Y647367D01*
X602926Y640702D02*
Y643368D01*
X604925D01*
X604259Y642035D01*
Y641369D01*
X604925Y640702D01*
X606258D01*
X606925Y641369D01*
Y642702D01*
X606258Y643368D01*
X623510Y468496D02*
X619511D01*
Y466497D01*
X620178Y465830D01*
X621511D01*
X622177Y466497D01*
Y468496D01*
Y467163D02*
X623510Y465830D01*
Y464497D02*
Y463164D01*
Y463831D01*
X619511D01*
X620178Y464497D01*
Y461165D02*
X619511Y460499D01*
Y459166D01*
X620178Y458499D01*
X620844D01*
X621511Y459166D01*
Y459832D01*
Y459166D01*
X622177Y458499D01*
X622844D01*
X623510Y459166D01*
Y460499D01*
X622844Y461165D01*
X623510Y455167D02*
X619511D01*
X621511Y457166D01*
Y454501D01*
X586680Y468496D02*
X582681D01*
Y466497D01*
X583348Y465830D01*
X584681D01*
X585347Y466497D01*
Y468496D01*
Y467163D02*
X586680Y465830D01*
Y464497D02*
Y463164D01*
Y463831D01*
X582681D01*
X583348Y464497D01*
Y461165D02*
X582681Y460499D01*
Y459166D01*
X583348Y458499D01*
X584014D01*
X584681Y459166D01*
Y459832D01*
Y459166D01*
X585347Y458499D01*
X586013D01*
X586680Y459166D01*
Y460499D01*
X586013Y461165D01*
X583348Y457166D02*
X582681Y456500D01*
Y455167D01*
X583348Y454501D01*
X584014D01*
X584681Y455167D01*
Y455834D01*
Y455167D01*
X585347Y454501D01*
X586013D01*
X586680Y455167D01*
Y456500D01*
X586013Y457166D01*
X662118Y654285D02*
X658119D01*
Y652286D01*
X658786Y651619D01*
X660119D01*
X660785Y652286D01*
Y654285D01*
Y652952D02*
X662118Y651619D01*
Y650287D02*
Y648954D01*
Y649620D01*
X658119D01*
X658786Y650287D01*
Y646954D02*
X658119Y646288D01*
Y644955D01*
X658786Y644288D01*
X659452D01*
X660119Y644955D01*
Y645621D01*
Y644955D01*
X660785Y644288D01*
X661452D01*
X662118Y644955D01*
Y646288D01*
X661452Y646954D01*
X662118Y640290D02*
Y642956D01*
X659452Y640290D01*
X658786D01*
X658119Y640956D01*
Y642289D01*
X658786Y642956D01*
X533367Y654285D02*
X529369D01*
Y652286D01*
X530035Y651619D01*
X531368D01*
X532034Y652286D01*
Y654285D01*
Y652952D02*
X533367Y651619D01*
Y650287D02*
Y648954D01*
Y649620D01*
X529369D01*
X530035Y650287D01*
Y646954D02*
X529369Y646288D01*
Y644955D01*
X530035Y644288D01*
X530701D01*
X531368Y644955D01*
Y645621D01*
Y644955D01*
X532034Y644288D01*
X532701D01*
X533367Y644955D01*
Y646288D01*
X532701Y646954D01*
X533367Y642956D02*
Y641623D01*
Y642289D01*
X529369D01*
X530035Y642956D01*
X532298Y468496D02*
X528299D01*
Y466497D01*
X528966Y465830D01*
X530299D01*
X530965Y466497D01*
Y468496D01*
Y467163D02*
X532298Y465830D01*
Y464497D02*
Y463164D01*
Y463831D01*
X528299D01*
X528966Y464497D01*
Y461165D02*
X528299Y460499D01*
Y459166D01*
X528966Y458499D01*
X529632D01*
X530299Y459166D01*
Y459832D01*
Y459166D01*
X530965Y458499D01*
X531632D01*
X532298Y459166D01*
Y460499D01*
X531632Y461165D01*
X528966Y457166D02*
X528299Y456500D01*
Y455167D01*
X528966Y454501D01*
X531632D01*
X532298Y455167D01*
Y456500D01*
X531632Y457166D01*
X528966D01*
X551374Y654285D02*
X547375D01*
Y652286D01*
X548042Y651619D01*
X549375D01*
X550041Y652286D01*
Y654285D01*
Y652952D02*
X551374Y651619D01*
Y648287D02*
X547375D01*
X549375Y650287D01*
Y647621D01*
X551374Y644288D02*
X547375D01*
X549375Y646288D01*
Y643622D01*
X567820Y465164D02*
X563821D01*
Y463164D01*
X564488Y462498D01*
X565821D01*
X566487Y463164D01*
Y465164D01*
Y463831D02*
X567820Y462498D01*
Y459166D02*
X563821D01*
X565821Y461165D01*
Y458499D01*
X564488Y457166D02*
X563821Y456500D01*
Y455167D01*
X564488Y454501D01*
X565154D01*
X565821Y455167D01*
Y455833D01*
Y455167D01*
X566487Y454501D01*
X567154D01*
X567820Y455167D01*
Y456500D01*
X567154Y457166D01*
X588204Y654285D02*
X584205D01*
Y652286D01*
X584872Y651619D01*
X586205D01*
X586871Y652286D01*
Y654285D01*
Y652952D02*
X588204Y651619D01*
Y648287D02*
X584205D01*
X586205Y650287D01*
Y647621D01*
X588204Y643622D02*
Y646288D01*
X585538Y643622D01*
X584872D01*
X584205Y644288D01*
Y645621D01*
X584872Y646288D01*
X512766Y463831D02*
X508767D01*
Y461832D01*
X509434Y461165D01*
X510767D01*
X511433Y461832D01*
Y463831D01*
Y462498D02*
X512766Y461165D01*
Y457833D02*
X508767D01*
X510767Y459832D01*
Y457166D01*
X512766Y455833D02*
Y454501D01*
Y455167D01*
X508767D01*
X509434Y455833D01*
X416045Y278225D02*
X415379Y278891D01*
Y280224D01*
X416045Y280891D01*
X418711D01*
X419378Y280224D01*
Y278891D01*
X418711Y278225D01*
X419378Y276892D02*
Y275559D01*
Y276226D01*
X415379D01*
X416045Y276892D01*
X415379Y270894D02*
Y273560D01*
X417378D01*
X416712Y272227D01*
Y271560D01*
X417378Y270894D01*
X418711D01*
X419378Y271560D01*
Y272893D01*
X418711Y273560D01*
X416045Y269561D02*
X415379Y268895D01*
Y267562D01*
X416045Y266895D01*
X416712D01*
X417378Y267562D01*
X418045Y266895D01*
X418711D01*
X419378Y267562D01*
Y268895D01*
X418711Y269561D01*
X418045D01*
X417378Y268895D01*
X416712Y269561D01*
X416045D01*
X417378Y268895D02*
Y267562D01*
X398247Y277890D02*
X397580Y278556D01*
Y279889D01*
X398247Y280556D01*
X400913D01*
X401579Y279889D01*
Y278556D01*
X400913Y277890D01*
X401579Y276557D02*
Y275224D01*
Y275891D01*
X397580D01*
X398247Y276557D01*
X397580Y270559D02*
Y273225D01*
X399580D01*
X398913Y271892D01*
Y271225D01*
X399580Y270559D01*
X400913D01*
X401579Y271225D01*
Y272558D01*
X400913Y273225D01*
X397580Y269226D02*
Y266560D01*
X398247D01*
X400913Y269226D01*
X401579D01*
X602652Y465830D02*
X601985Y466497D01*
Y467830D01*
X602652Y468496D01*
X605318D01*
X605984Y467830D01*
Y466497D01*
X605318Y465830D01*
X605984Y464497D02*
Y463164D01*
Y463831D01*
X601985D01*
X602652Y464497D01*
X601985Y458499D02*
Y461165D01*
X603985D01*
X603318Y459832D01*
Y459166D01*
X603985Y458499D01*
X605318D01*
X605984Y459166D01*
Y460499D01*
X605318Y461165D01*
X601985Y454501D02*
Y457166D01*
X603985D01*
X603318Y455833D01*
Y455167D01*
X603985Y454501D01*
X605318D01*
X605984Y455167D01*
Y456500D01*
X605318Y457166D01*
X380448Y277557D02*
X379781Y278223D01*
Y279556D01*
X380448Y280222D01*
X383114D01*
X383780Y279556D01*
Y278223D01*
X383114Y277557D01*
X383780Y276224D02*
Y274891D01*
Y275557D01*
X379781D01*
X380448Y276224D01*
X383780Y272892D02*
Y271559D01*
Y272225D01*
X379781D01*
X380448Y272892D01*
X383114Y269559D02*
X383780Y268893D01*
Y267560D01*
X383114Y266894D01*
X380448D01*
X379781Y267560D01*
Y268893D01*
X380448Y269559D01*
X381114D01*
X381781Y268893D01*
Y266894D01*
X362649Y278319D02*
X361983Y278985D01*
Y280318D01*
X362649Y280984D01*
X365315D01*
X365981Y280318D01*
Y278985D01*
X365315Y278319D01*
X365981Y276986D02*
Y275653D01*
Y276319D01*
X361983D01*
X362649Y276986D01*
X365981Y273654D02*
Y272321D01*
Y272987D01*
X361983D01*
X362649Y273654D01*
Y270321D02*
X361983Y269655D01*
Y268322D01*
X362649Y267656D01*
X363316D01*
X363982Y268322D01*
X364648Y267656D01*
X365315D01*
X365981Y268322D01*
Y269655D01*
X365315Y270321D01*
X364648D01*
X363982Y269655D01*
X363316Y270321D01*
X362649D01*
X363982Y269655D02*
Y268322D01*
X565568Y651619D02*
X564901Y652286D01*
Y653619D01*
X565568Y654285D01*
X568234D01*
X568900Y653619D01*
Y652286D01*
X568234Y651619D01*
Y650287D02*
X568900Y649620D01*
Y648287D01*
X568234Y647621D01*
X565568D01*
X564901Y648287D01*
Y649620D01*
X565568Y650287D01*
X566234D01*
X566901Y649620D01*
Y647621D01*
X568900Y644288D02*
X564901D01*
X566901Y646288D01*
Y643622D01*
X675887Y591692D02*
X675220Y592358D01*
Y593691D01*
X675887Y594357D01*
X678552D01*
X679219Y593691D01*
Y592358D01*
X678552Y591692D01*
X679219Y588359D02*
X675220D01*
X677219Y590359D01*
Y587693D01*
X679219Y586360D02*
Y585027D01*
Y585694D01*
X675220D01*
X675887Y586360D01*
X657770Y462498D02*
X657103Y463164D01*
Y464497D01*
X657770Y465164D01*
X660436D01*
X661102Y464497D01*
Y463164D01*
X660436Y462498D01*
X661102Y459166D02*
X657103D01*
X659103Y461165D01*
Y458499D01*
X657770Y457166D02*
X657103Y456500D01*
Y455167D01*
X657770Y454501D01*
X660436D01*
X661102Y455167D01*
Y456500D01*
X660436Y457166D01*
X657770D01*
X675887Y526160D02*
X675220Y526826D01*
Y528159D01*
X675887Y528825D01*
X678552D01*
X679219Y528159D01*
Y526826D01*
X678552Y526160D01*
X675887Y524827D02*
X675220Y524160D01*
Y522827D01*
X675887Y522161D01*
X676553D01*
X677219Y522827D01*
Y523494D01*
Y522827D01*
X677886Y522161D01*
X678552D01*
X679219Y522827D01*
Y524160D01*
X678552Y524827D01*
Y520828D02*
X679219Y520162D01*
Y518829D01*
X678552Y518162D01*
X675887D01*
X675220Y518829D01*
Y520162D01*
X675887Y520828D01*
X676553D01*
X677219Y520162D01*
Y518162D01*
X675887Y559180D02*
X675220Y559846D01*
Y561179D01*
X675887Y561846D01*
X678552D01*
X679219Y561179D01*
Y559846D01*
X678552Y559180D01*
X675887Y557847D02*
X675220Y557180D01*
Y555847D01*
X675887Y555181D01*
X676553D01*
X677219Y555847D01*
Y556514D01*
Y555847D01*
X677886Y555181D01*
X678552D01*
X679219Y555847D01*
Y557180D01*
X678552Y557847D01*
X675887Y553848D02*
X675220Y553182D01*
Y551849D01*
X675887Y551182D01*
X676553D01*
X677219Y551849D01*
X677886Y551182D01*
X678552D01*
X679219Y551849D01*
Y553182D01*
X678552Y553848D01*
X677886D01*
X677219Y553182D01*
X676553Y553848D01*
X675887D01*
X677219Y553182D02*
Y551849D01*
X510185Y651619D02*
X509519Y652286D01*
Y653619D01*
X510185Y654285D01*
X512851D01*
X513518Y653619D01*
Y652286D01*
X512851Y651619D01*
X510185Y650287D02*
X509519Y649620D01*
Y648287D01*
X510185Y647621D01*
X510852D01*
X511518Y648287D01*
Y648954D01*
Y648287D01*
X512185Y647621D01*
X512851D01*
X513518Y648287D01*
Y649620D01*
X512851Y650287D01*
X509519Y646288D02*
Y643622D01*
X510185D01*
X512851Y646288D01*
X513518D01*
X490782Y590893D02*
X490116Y591559D01*
Y592892D01*
X490782Y593559D01*
X493448D01*
X494114Y592892D01*
Y591559D01*
X493448Y590893D01*
X490782Y589560D02*
X490116Y588894D01*
Y587561D01*
X490782Y586894D01*
X491449D01*
X492115Y587561D01*
Y588227D01*
Y587561D01*
X492781Y586894D01*
X493448D01*
X494114Y587561D01*
Y588894D01*
X493448Y589560D01*
X490116Y582896D02*
X490782Y584228D01*
X492115Y585561D01*
X493448D01*
X494114Y584895D01*
Y583562D01*
X493448Y582896D01*
X492781D01*
X492115Y583562D01*
Y585561D01*
X490782Y524376D02*
X490116Y525043D01*
Y526376D01*
X490782Y527042D01*
X493448D01*
X494114Y526376D01*
Y525043D01*
X493448Y524376D01*
X490782Y523044D02*
X490116Y522377D01*
Y521044D01*
X490782Y520378D01*
X491449D01*
X492115Y521044D01*
Y521711D01*
Y521044D01*
X492781Y520378D01*
X493448D01*
X494114Y521044D01*
Y522377D01*
X493448Y523044D01*
X490116Y516379D02*
Y519045D01*
X492115D01*
X491449Y517712D01*
Y517046D01*
X492115Y516379D01*
X493448D01*
X494114Y517046D01*
Y518378D01*
X493448Y519045D01*
X490782Y557396D02*
X490116Y558063D01*
Y559396D01*
X490782Y560062D01*
X493448D01*
X494114Y559396D01*
Y558063D01*
X493448Y557396D01*
X490782Y556063D02*
X490116Y555397D01*
Y554064D01*
X490782Y553398D01*
X491449D01*
X492115Y554064D01*
Y554731D01*
Y554064D01*
X492781Y553398D01*
X493448D01*
X494114Y554064D01*
Y555397D01*
X493448Y556063D01*
X494114Y550065D02*
X490116D01*
X492115Y552065D01*
Y549399D01*
X783022Y379850D02*
Y383849D01*
X781023D01*
X780356Y383182D01*
Y381849D01*
X781023Y381183D01*
X783022D01*
X781689D02*
X780356Y379850D01*
X776357D02*
X779023D01*
X776357Y382516D01*
Y383182D01*
X777024Y383849D01*
X778357D01*
X779023Y383182D01*
X775025Y380516D02*
X774358Y379850D01*
X773025D01*
X772359Y380516D01*
Y383182D01*
X773025Y383849D01*
X774358D01*
X775025Y383182D01*
Y382516D01*
X774358Y381849D01*
X772359D01*
X782514Y364037D02*
Y360038D01*
X780515D01*
X779848Y360704D01*
Y363370D01*
X780515Y364037D01*
X782514D01*
X775850Y363370D02*
X776516Y364037D01*
X777849D01*
X778515Y363370D01*
Y362704D01*
X777849Y362037D01*
X776516D01*
X775850Y361371D01*
Y360704D01*
X776516Y360038D01*
X777849D01*
X778515Y360704D01*
X774517Y360038D02*
X773184D01*
X773850D01*
Y364037D01*
X774517Y363370D01*
X344869Y334544D02*
X344203Y335211D01*
Y336544D01*
X344869Y337210D01*
X347535D01*
X348201Y336544D01*
Y335211D01*
X347535Y334544D01*
X348201Y330545D02*
Y333211D01*
X345536Y330545D01*
X344869D01*
X344203Y331212D01*
Y332545D01*
X344869Y333211D01*
X344203Y326547D02*
Y329212D01*
X346202D01*
X345536Y327880D01*
Y327213D01*
X346202Y326547D01*
X347535D01*
X348201Y327213D01*
Y328546D01*
X347535Y329212D01*
X190784Y328389D02*
Y325057D01*
X190118Y324391D01*
X188785D01*
X188118Y325057D01*
Y328389D01*
X184120D02*
X186786D01*
Y326390D01*
X185453Y327057D01*
X184786D01*
X184120Y326390D01*
Y325057D01*
X184786Y324391D01*
X186119D01*
X186786Y325057D01*
X214343Y214628D02*
X210345D01*
Y212628D01*
X211011Y211962D01*
X212344D01*
X213010Y212628D01*
Y214628D01*
Y213295D02*
X214343Y211962D01*
X211011Y210629D02*
X210345Y209962D01*
Y208629D01*
X211011Y207963D01*
X211677D01*
X212344Y208629D01*
Y209296D01*
Y208629D01*
X213010Y207963D01*
X213677D01*
X214343Y208629D01*
Y209962D01*
X213677Y210629D01*
X210345Y206630D02*
Y203964D01*
X211011D01*
X213677Y206630D01*
X214343D01*
X110742Y208059D02*
Y212057D01*
X108742D01*
X108076Y211391D01*
Y210058D01*
X108742Y209392D01*
X110742D01*
X109409D02*
X108076Y208059D01*
X106743Y211391D02*
X106076Y212057D01*
X104743D01*
X104077Y211391D01*
Y210725D01*
X104743Y210058D01*
X105410D01*
X104743D01*
X104077Y209392D01*
Y208725D01*
X104743Y208059D01*
X106076D01*
X106743Y208725D01*
X100078Y212057D02*
X101411Y211391D01*
X102744Y210058D01*
Y208725D01*
X102078Y208059D01*
X100745D01*
X100078Y208725D01*
Y209392D01*
X100745Y210058D01*
X102744D01*
X196563Y214628D02*
X192565D01*
Y212628D01*
X193231Y211962D01*
X194564D01*
X195230Y212628D01*
Y214628D01*
Y213295D02*
X196563Y211962D01*
X193231Y210629D02*
X192565Y209962D01*
Y208629D01*
X193231Y207963D01*
X193897D01*
X194564Y208629D01*
Y209296D01*
Y208629D01*
X195230Y207963D01*
X195897D01*
X196563Y208629D01*
Y209962D01*
X195897Y210629D01*
X193231Y206630D02*
X192565Y205964D01*
Y204631D01*
X193231Y203964D01*
X193897D01*
X194564Y204631D01*
Y205297D01*
Y204631D01*
X195230Y203964D01*
X195897D01*
X196563Y204631D01*
Y205964D01*
X195897Y206630D01*
X120680Y302989D02*
Y298991D01*
X118681D01*
X118014Y299657D01*
Y302323D01*
X118681Y302989D01*
X120680D01*
X114682Y298991D02*
Y302989D01*
X116682Y300990D01*
X114016D01*
X176975Y211962D02*
X176309Y212628D01*
Y213961D01*
X176975Y214628D01*
X179641D01*
X180307Y213961D01*
Y212628D01*
X179641Y211962D01*
X180307Y207963D02*
Y210629D01*
X177642Y207963D01*
X176975D01*
X176309Y208629D01*
Y209962D01*
X176975Y210629D01*
X176309Y203964D02*
X176975Y205297D01*
X178308Y206630D01*
X179641D01*
X180307Y205964D01*
Y204631D01*
X179641Y203964D01*
X178974D01*
X178308Y204631D01*
Y206630D01*
X141357Y211962D02*
X140691Y212628D01*
Y213961D01*
X141357Y214628D01*
X144023D01*
X144690Y213961D01*
Y212628D01*
X144023Y211962D01*
X144690Y207963D02*
Y210629D01*
X142024Y207963D01*
X141357D01*
X140691Y208629D01*
Y209962D01*
X141357Y210629D01*
X144690Y204631D02*
X140691D01*
X142690Y206630D01*
Y203964D01*
X159452Y211962D02*
X158786Y212628D01*
Y213961D01*
X159452Y214628D01*
X162118D01*
X162784Y213961D01*
Y212628D01*
X162118Y211962D01*
X162784Y207963D02*
Y210629D01*
X160119Y207963D01*
X159452D01*
X158786Y208629D01*
Y209962D01*
X159452Y210629D01*
X162784Y203964D02*
Y206630D01*
X160119Y203964D01*
X159452D01*
X158786Y204631D01*
Y205964D01*
X159452Y206630D01*
X379921Y363346D02*
X379255Y364012D01*
Y365345D01*
X379921Y366012D01*
X382587D01*
X383253Y365345D01*
Y364012D01*
X382587Y363346D01*
X379255Y359347D02*
Y362013D01*
X381254D01*
X380588Y360680D01*
Y360014D01*
X381254Y359347D01*
X382587D01*
X383253Y360014D01*
Y361346D01*
X382587Y362013D01*
X379921Y358014D02*
X379255Y357348D01*
Y356015D01*
X379921Y355348D01*
X380588D01*
X381254Y356015D01*
Y356681D01*
Y356015D01*
X381920Y355348D01*
X382587D01*
X383253Y356015D01*
Y357348D01*
X382587Y358014D01*
X260618Y699579D02*
X261284Y700245D01*
X262617D01*
X263284Y699579D01*
Y696913D01*
X262617Y696247D01*
X261284D01*
X260618Y696913D01*
X259285Y696247D02*
X257952D01*
X258619D01*
Y700245D01*
X259285Y699579D01*
X253287Y700245D02*
X255953D01*
Y698246D01*
X254620Y698913D01*
X253953D01*
X253287Y698246D01*
Y696913D01*
X253953Y696247D01*
X255286D01*
X255953Y696913D01*
X249955Y696247D02*
Y700245D01*
X251954Y698246D01*
X249288D01*
X260618Y719899D02*
X261284Y720565D01*
X262617D01*
X263284Y719899D01*
Y717233D01*
X262617Y716567D01*
X261284D01*
X260618Y717233D01*
X259285Y716567D02*
X257952D01*
X258619D01*
Y720565D01*
X259285Y719899D01*
X253287Y720565D02*
X255953D01*
Y718566D01*
X254620Y719232D01*
X253953D01*
X253287Y718566D01*
Y717233D01*
X253953Y716567D01*
X255286D01*
X255953Y717233D01*
X251954Y719899D02*
X251288Y720565D01*
X249955D01*
X249288Y719899D01*
Y719232D01*
X249955Y718566D01*
X250621D01*
X249955D01*
X249288Y717900D01*
Y717233D01*
X249955Y716567D01*
X251288D01*
X251954Y717233D01*
X386274Y437508D02*
X382275D01*
Y435509D01*
X382942Y434842D01*
X384275D01*
X384941Y435509D01*
Y437508D01*
Y436175D02*
X386274Y434842D01*
X385608Y433509D02*
X386274Y432843D01*
Y431510D01*
X385608Y430844D01*
X382942D01*
X382275Y431510D01*
Y432843D01*
X382942Y433509D01*
X383608D01*
X384275Y432843D01*
Y430844D01*
X382942Y429511D02*
X382275Y428844D01*
Y427511D01*
X382942Y426845D01*
X385608D01*
X386274Y427511D01*
Y428844D01*
X385608Y429511D01*
X382942D01*
X331437Y337210D02*
X327439D01*
Y335211D01*
X328105Y334544D01*
X329438D01*
X330104Y335211D01*
Y337210D01*
Y335877D02*
X331437Y334544D01*
X328105Y333211D02*
X327439Y332545D01*
Y331212D01*
X328105Y330545D01*
X328772D01*
X329438Y331212D01*
X330104Y330545D01*
X330771D01*
X331437Y331212D01*
Y332545D01*
X330771Y333211D01*
X330104D01*
X329438Y332545D01*
X328772Y333211D01*
X328105D01*
X329438Y332545D02*
Y331212D01*
X328105Y329212D02*
X327439Y328546D01*
Y327213D01*
X328105Y326547D01*
X328772D01*
X329438Y327213D01*
Y327880D01*
Y327213D01*
X330104Y326547D01*
X330771D01*
X331437Y327213D01*
Y328546D01*
X330771Y329212D01*
X272829Y337210D02*
X276827D01*
Y334544D01*
X276161Y333211D02*
X276827Y332545D01*
Y331212D01*
X276161Y330545D01*
X273495D01*
X272829Y331212D01*
Y332545D01*
X273495Y333211D01*
X274161D01*
X274828Y332545D01*
Y330545D01*
X561408Y395120D02*
X562075Y395787D01*
X563408D01*
X564074Y395120D01*
Y392454D01*
X563408Y391788D01*
X562075D01*
X561408Y392454D01*
X560075Y391788D02*
X558742D01*
X559409D01*
Y395787D01*
X560075Y395120D01*
X554744Y391788D02*
Y395787D01*
X556743Y393787D01*
X554077D01*
X550079Y391788D02*
X552744D01*
X550079Y394454D01*
Y395120D01*
X550745Y395787D01*
X552078D01*
X552744Y395120D01*
X327151Y249696D02*
X326484Y250362D01*
Y251695D01*
X327151Y252362D01*
X329817D01*
X330483Y251695D01*
Y250362D01*
X329817Y249696D01*
X330483Y248363D02*
Y247030D01*
Y247697D01*
X326484D01*
X327151Y248363D01*
Y245031D02*
X326484Y244364D01*
Y243031D01*
X327151Y242365D01*
X327817D01*
X328484Y243031D01*
Y243698D01*
Y243031D01*
X329150Y242365D01*
X329817D01*
X330483Y243031D01*
Y244364D01*
X329817Y245031D01*
X326484Y238366D02*
Y241032D01*
X328484D01*
X327817Y239699D01*
Y239033D01*
X328484Y238366D01*
X329817D01*
X330483Y239033D01*
Y240366D01*
X329817Y241032D01*
X345096Y249696D02*
X344429Y250362D01*
Y251695D01*
X345096Y252362D01*
X347761D01*
X348428Y251695D01*
Y250362D01*
X347761Y249696D01*
X348428Y248363D02*
Y247030D01*
Y247697D01*
X344429D01*
X345096Y248363D01*
Y245031D02*
X344429Y244364D01*
Y243031D01*
X345096Y242365D01*
X345762D01*
X346429Y243031D01*
Y243698D01*
Y243031D01*
X347095Y242365D01*
X347761D01*
X348428Y243031D01*
Y244364D01*
X347761Y245031D01*
X348428Y239033D02*
X344429D01*
X346429Y241032D01*
Y238366D01*
X560646Y410614D02*
X561313Y411281D01*
X562646D01*
X563312Y410614D01*
Y407948D01*
X562646Y407282D01*
X561313D01*
X560646Y407948D01*
X559313Y407282D02*
X557980D01*
X558647D01*
Y411281D01*
X559313Y410614D01*
X555981D02*
X555315Y411281D01*
X553982D01*
X553315Y410614D01*
Y409948D01*
X553982Y409281D01*
X554648D01*
X553982D01*
X553315Y408615D01*
Y407948D01*
X553982Y407282D01*
X555315D01*
X555981Y407948D01*
X551982Y407282D02*
X550649D01*
X551316D01*
Y411281D01*
X551982Y410614D01*
X561408Y426108D02*
X562075Y426775D01*
X563408D01*
X564074Y426108D01*
Y423442D01*
X563408Y422776D01*
X562075D01*
X561408Y423442D01*
X560075Y422776D02*
X558742D01*
X559409D01*
Y426775D01*
X560075Y426108D01*
X556743D02*
X556077Y426775D01*
X554744D01*
X554077Y426108D01*
Y425442D01*
X554744Y424775D01*
X555410D01*
X554744D01*
X554077Y424109D01*
Y423442D01*
X554744Y422776D01*
X556077D01*
X556743Y423442D01*
X552744Y426108D02*
X552078Y426775D01*
X550745D01*
X550079Y426108D01*
Y423442D01*
X550745Y422776D01*
X552078D01*
X552744Y423442D01*
Y426108D01*
X309206Y248363D02*
X308540Y249029D01*
Y250362D01*
X309206Y251029D01*
X311872D01*
X312538Y250362D01*
Y249029D01*
X311872Y248363D01*
X312538Y247030D02*
Y245697D01*
Y246364D01*
X308540D01*
X309206Y247030D01*
X312538Y241698D02*
X308540D01*
X310539Y243698D01*
Y241032D01*
X312538Y239699D02*
Y238366D01*
Y239033D01*
X308540D01*
X309206Y239699D01*
X308801Y334544D02*
X308135Y335211D01*
Y336544D01*
X308801Y337210D01*
X311467D01*
X312133Y336544D01*
Y335211D01*
X311467Y334544D01*
X312133Y333211D02*
Y331878D01*
Y332545D01*
X308135D01*
X308801Y333211D01*
X312133Y327880D02*
X308135D01*
X310134Y329879D01*
Y327213D01*
X308801Y325880D02*
X308135Y325214D01*
Y323881D01*
X308801Y323214D01*
X311467D01*
X312133Y323881D01*
Y325214D01*
X311467Y325880D01*
X308801D01*
X270043Y386978D02*
X270709Y387644D01*
X272043D01*
X272709Y386978D01*
Y384312D01*
X272043Y383646D01*
X270709D01*
X270043Y384312D01*
X268710Y383646D02*
X267377D01*
X268044D01*
Y387644D01*
X268710Y386978D01*
X265378D02*
X264711Y387644D01*
X263379D01*
X262712Y386978D01*
Y386311D01*
X263379Y385645D01*
X264045D01*
X263379D01*
X262712Y384978D01*
Y384312D01*
X263379Y383646D01*
X264711D01*
X265378Y384312D01*
X261379Y386978D02*
X260713Y387644D01*
X259380D01*
X258713Y386978D01*
Y386311D01*
X259380Y385645D01*
X260046D01*
X259380D01*
X258713Y384978D01*
Y384312D01*
X259380Y383646D01*
X260713D01*
X261379Y384312D01*
X270043Y370468D02*
X270709Y371134D01*
X272043D01*
X272709Y370468D01*
Y367802D01*
X272043Y367136D01*
X270709D01*
X270043Y367802D01*
X268710Y367136D02*
X267377D01*
X268044D01*
Y371134D01*
X268710Y370468D01*
X265378D02*
X264711Y371134D01*
X263379D01*
X262712Y370468D01*
Y369801D01*
X263379Y369135D01*
X264045D01*
X263379D01*
X262712Y368468D01*
Y367802D01*
X263379Y367136D01*
X264711D01*
X265378Y367802D01*
X258713Y367136D02*
X261379D01*
X258713Y369801D01*
Y370468D01*
X259380Y371134D01*
X260713D01*
X261379Y370468D01*
X291261Y249696D02*
X290595Y250362D01*
Y251695D01*
X291261Y252362D01*
X293927D01*
X294594Y251695D01*
Y250362D01*
X293927Y249696D01*
X294594Y248363D02*
Y247030D01*
Y247697D01*
X290595D01*
X291261Y248363D01*
Y245031D02*
X290595Y244364D01*
Y243031D01*
X291261Y242365D01*
X291928D01*
X292594Y243031D01*
Y243698D01*
Y243031D01*
X293261Y242365D01*
X293927D01*
X294594Y243031D01*
Y244364D01*
X293927Y245031D01*
Y241032D02*
X294594Y240366D01*
Y239033D01*
X293927Y238366D01*
X291261D01*
X290595Y239033D01*
Y240366D01*
X291261Y241032D01*
X291928D01*
X292594Y240366D01*
Y238366D01*
X290574Y334544D02*
X289908Y335211D01*
Y336544D01*
X290574Y337210D01*
X293240D01*
X293906Y336544D01*
Y335211D01*
X293240Y334544D01*
X293906Y333211D02*
Y331878D01*
Y332545D01*
X289908D01*
X290574Y333211D01*
Y329879D02*
X289908Y329212D01*
Y327880D01*
X290574Y327213D01*
X291241D01*
X291907Y327880D01*
Y328546D01*
Y327880D01*
X292574Y327213D01*
X293240D01*
X293906Y327880D01*
Y329212D01*
X293240Y329879D01*
X290574Y325880D02*
X289908Y325214D01*
Y323881D01*
X290574Y323214D01*
X291241D01*
X291907Y323881D01*
X292574Y323214D01*
X293240D01*
X293906Y323881D01*
Y325214D01*
X293240Y325880D01*
X292574D01*
X291907Y325214D01*
X291241Y325880D01*
X290574D01*
X291907Y325214D02*
Y323881D01*
X255372Y249696D02*
X254705Y250362D01*
Y251695D01*
X255372Y252362D01*
X258038D01*
X258704Y251695D01*
Y250362D01*
X258038Y249696D01*
X258704Y248363D02*
Y247030D01*
Y247697D01*
X254705D01*
X255372Y248363D01*
Y245031D02*
X254705Y244364D01*
Y243031D01*
X255372Y242365D01*
X256038D01*
X256705Y243031D01*
Y243698D01*
Y243031D01*
X257371Y242365D01*
X258038D01*
X258704Y243031D01*
Y244364D01*
X258038Y245031D01*
X254705Y241032D02*
Y238366D01*
X255372D01*
X258038Y241032D01*
X258704D01*
X273317Y249696D02*
X272650Y250362D01*
Y251695D01*
X273317Y252362D01*
X275982D01*
X276649Y251695D01*
Y250362D01*
X275982Y249696D01*
X276649Y248363D02*
Y247030D01*
Y247697D01*
X272650D01*
X273317Y248363D01*
Y245031D02*
X272650Y244364D01*
Y243031D01*
X273317Y242365D01*
X273983D01*
X274650Y243031D01*
Y243698D01*
Y243031D01*
X275316Y242365D01*
X275982D01*
X276649Y243031D01*
Y244364D01*
X275982Y245031D01*
X272650Y238366D02*
X273317Y239699D01*
X274650Y241032D01*
X275982D01*
X276649Y240366D01*
Y239033D01*
X275982Y238366D01*
X275316D01*
X274650Y239033D01*
Y241032D01*
X397955Y363346D02*
X397289Y364012D01*
Y365345D01*
X397955Y366012D01*
X400621D01*
X401287Y365345D01*
Y364012D01*
X400621Y363346D01*
X397289Y359347D02*
Y362013D01*
X399288D01*
X398621Y360680D01*
Y360014D01*
X399288Y359347D01*
X400621D01*
X401287Y360014D01*
Y361346D01*
X400621Y362013D01*
X397289Y355348D02*
X397955Y356681D01*
X399288Y358014D01*
X400621D01*
X401287Y357348D01*
Y356015D01*
X400621Y355348D01*
X399954D01*
X399288Y356015D01*
Y358014D01*
X414973Y363600D02*
X414307Y364266D01*
Y365599D01*
X414973Y366266D01*
X417639D01*
X418305Y365599D01*
Y364266D01*
X417639Y363600D01*
X414307Y359601D02*
Y362267D01*
X416306D01*
X415639Y360934D01*
Y360267D01*
X416306Y359601D01*
X417639D01*
X418305Y360267D01*
Y361600D01*
X417639Y362267D01*
X414307Y358268D02*
Y355602D01*
X414973D01*
X417639Y358268D01*
X418305D01*
X362649Y363854D02*
X361983Y364520D01*
Y365853D01*
X362649Y366520D01*
X365315D01*
X365981Y365853D01*
Y364520D01*
X365315Y363854D01*
X361983Y359855D02*
Y362521D01*
X363982D01*
X363316Y361188D01*
Y360522D01*
X363982Y359855D01*
X365315D01*
X365981Y360522D01*
Y361854D01*
X365315Y362521D01*
X365981Y355856D02*
Y358522D01*
X363316Y355856D01*
X362649D01*
X361983Y356523D01*
Y357856D01*
X362649Y358522D01*
X677893Y266698D02*
X673895D01*
Y264698D01*
X674561Y264032D01*
X675894D01*
X676560Y264698D01*
Y266698D01*
Y265365D02*
X677893Y264032D01*
X673895Y260033D02*
Y262699D01*
X675894D01*
X675228Y261366D01*
Y260700D01*
X675894Y260033D01*
X677227D01*
X677893Y260700D01*
Y262032D01*
X677227Y262699D01*
Y258700D02*
X677893Y258034D01*
Y256701D01*
X677227Y256034D01*
X674561D01*
X673895Y256701D01*
Y258034D01*
X674561Y258700D01*
X675228D01*
X675894Y258034D01*
Y256034D01*
X96296Y302989D02*
Y298991D01*
X94297D01*
X93630Y299657D01*
Y302323D01*
X94297Y302989D01*
X96296D01*
X89632D02*
X90965Y302323D01*
X92298Y300990D01*
Y299657D01*
X91631Y298991D01*
X90298D01*
X89632Y299657D01*
Y300324D01*
X90298Y300990D01*
X92298D01*
X784546Y419728D02*
Y423727D01*
X782547D01*
X781880Y423060D01*
Y421727D01*
X782547Y421061D01*
X784546D01*
X783213D02*
X781880Y419728D01*
X780547D02*
X779214D01*
X779881D01*
Y423727D01*
X780547Y423060D01*
X777215Y419728D02*
X775882D01*
X776549D01*
Y423727D01*
X777215Y423060D01*
X773883Y423727D02*
X771217D01*
Y423060D01*
X773883Y420394D01*
Y419728D01*
X784546Y459860D02*
Y463859D01*
X782547D01*
X781880Y463192D01*
Y461859D01*
X782547Y461193D01*
X784546D01*
X783213D02*
X781880Y459860D01*
X780547D02*
X779214D01*
X779881D01*
Y463859D01*
X780547Y463192D01*
X777215Y459860D02*
X775882D01*
X776549D01*
Y463859D01*
X777215Y463192D01*
X771217Y459860D02*
X773883D01*
X771217Y462526D01*
Y463192D01*
X771883Y463859D01*
X773216D01*
X773883Y463192D01*
X783022Y403915D02*
Y399916D01*
X781023D01*
X780356Y400582D01*
Y403248D01*
X781023Y403915D01*
X783022D01*
X776357Y403248D02*
X777024Y403915D01*
X778357D01*
X779023Y403248D01*
Y402582D01*
X778357Y401915D01*
X777024D01*
X776357Y401249D01*
Y400582D01*
X777024Y399916D01*
X778357D01*
X779023Y400582D01*
X772359Y403915D02*
X773692Y403248D01*
X775025Y401915D01*
Y400582D01*
X774358Y399916D01*
X773025D01*
X772359Y400582D01*
Y401249D01*
X773025Y401915D01*
X775025D01*
X783022Y443793D02*
Y439794D01*
X781023D01*
X780356Y440460D01*
Y443126D01*
X781023Y443793D01*
X783022D01*
X776357Y443126D02*
X777024Y443793D01*
X778357D01*
X779023Y443126D01*
Y442460D01*
X778357Y441793D01*
X777024D01*
X776357Y441127D01*
Y440460D01*
X777024Y439794D01*
X778357D01*
X779023Y440460D01*
X772359Y443793D02*
X775025D01*
Y441793D01*
X773692Y442460D01*
X773025D01*
X772359Y441793D01*
Y440460D01*
X773025Y439794D01*
X774358D01*
X775025Y440460D01*
X386590Y467690D02*
X382592D01*
Y465690D01*
X383258Y465024D01*
X384591D01*
X385257Y465690D01*
Y467690D01*
Y466357D02*
X386590Y465024D01*
X385924Y463691D02*
X386590Y463024D01*
Y461692D01*
X385924Y461025D01*
X383258D01*
X382592Y461692D01*
Y463024D01*
X383258Y463691D01*
X383925D01*
X384591Y463024D01*
Y461025D01*
X386590Y457026D02*
Y459692D01*
X383925Y457026D01*
X383258D01*
X382592Y457693D01*
Y459026D01*
X383258Y459692D01*
X349720Y467690D02*
X345722D01*
Y465690D01*
X346388Y465024D01*
X347721D01*
X348387Y465690D01*
Y467690D01*
Y466357D02*
X349720Y465024D01*
X349054Y463691D02*
X349720Y463024D01*
Y461692D01*
X349054Y461025D01*
X346388D01*
X345722Y461692D01*
Y463024D01*
X346388Y463691D01*
X347054D01*
X347721Y463024D01*
Y461025D01*
X349720Y459692D02*
Y458359D01*
Y459026D01*
X345722D01*
X346388Y459692D01*
X367732Y437508D02*
X363733D01*
Y435509D01*
X364400Y434842D01*
X365733D01*
X366399Y435509D01*
Y437508D01*
Y436175D02*
X367732Y434842D01*
X364400Y433509D02*
X363733Y432843D01*
Y431510D01*
X364400Y430844D01*
X365066D01*
X365733Y431510D01*
X366399Y430844D01*
X367066D01*
X367732Y431510D01*
Y432843D01*
X367066Y433509D01*
X366399D01*
X365733Y432843D01*
X365066Y433509D01*
X364400D01*
X365733Y432843D02*
Y431510D01*
X364400Y429511D02*
X363733Y428844D01*
Y427511D01*
X364400Y426845D01*
X367066D01*
X367732Y427511D01*
Y428844D01*
X367066Y429511D01*
X364400D01*
X331285Y467690D02*
X327287D01*
Y465690D01*
X327953Y465024D01*
X329286D01*
X329952Y465690D01*
Y467690D01*
Y466357D02*
X331285Y465024D01*
X327953Y463691D02*
X327287Y463024D01*
Y461692D01*
X327953Y461025D01*
X328619D01*
X329286Y461692D01*
X329952Y461025D01*
X330619D01*
X331285Y461692D01*
Y463024D01*
X330619Y463691D01*
X329952D01*
X329286Y463024D01*
X328619Y463691D01*
X327953D01*
X329286Y463024D02*
Y461692D01*
X331285Y459692D02*
Y458359D01*
Y459026D01*
X327287D01*
X327953Y459692D01*
X70323Y302989D02*
X67657D01*
X68990D01*
Y298991D01*
X66324Y302989D02*
Y300324D01*
X64991Y298991D01*
X63658Y300324D01*
Y302989D01*
X59660Y302323D02*
X60326Y302989D01*
X61659D01*
X62326Y302323D01*
Y301656D01*
X61659Y300990D01*
X60326D01*
X59660Y300324D01*
Y299657D01*
X60326Y298991D01*
X61659D01*
X62326Y299657D01*
X56328Y298991D02*
Y302989D01*
X58327Y300990D01*
X55661D01*
X349190Y437508D02*
X345191D01*
Y435509D01*
X345858Y434842D01*
X347191D01*
X347857Y435509D01*
Y437508D01*
Y436175D02*
X349190Y434842D01*
X345858Y433509D02*
X345191Y432843D01*
Y431510D01*
X345858Y430844D01*
X346524D01*
X347191Y431510D01*
X347857Y430844D01*
X348524D01*
X349190Y431510D01*
Y432843D01*
X348524Y433509D01*
X347857D01*
X347191Y432843D01*
X346524Y433509D01*
X345858D01*
X347191Y432843D02*
Y431510D01*
X348524Y429511D02*
X349190Y428844D01*
Y427511D01*
X348524Y426845D01*
X345858D01*
X345191Y427511D01*
Y428844D01*
X345858Y429511D01*
X346524D01*
X347191Y428844D01*
Y426845D01*
X368155Y467690D02*
X364157D01*
Y465690D01*
X364823Y465024D01*
X366156D01*
X366822Y465690D01*
Y467690D01*
Y466357D02*
X368155Y465024D01*
X364823Y463691D02*
X364157Y463024D01*
Y461692D01*
X364823Y461025D01*
X365490D01*
X366156Y461692D01*
X366822Y461025D01*
X367489D01*
X368155Y461692D01*
Y463024D01*
X367489Y463691D01*
X366822D01*
X366156Y463024D01*
X365490Y463691D01*
X364823D01*
X366156Y463024D02*
Y461692D01*
X368155Y457026D02*
Y459692D01*
X365490Y457026D01*
X364823D01*
X364157Y457693D01*
Y459026D01*
X364823Y459692D01*
X330648Y437508D02*
X326649D01*
Y435509D01*
X327316Y434842D01*
X328649D01*
X329315Y435509D01*
Y437508D01*
Y436175D02*
X330648Y434842D01*
X326649Y433509D02*
Y430844D01*
X327316D01*
X329982Y433509D01*
X330648D01*
X329982Y429511D02*
X330648Y428844D01*
Y427511D01*
X329982Y426845D01*
X327316D01*
X326649Y427511D01*
Y428844D01*
X327316Y429511D01*
X327982D01*
X328649Y428844D01*
Y426845D01*
X677893Y236726D02*
X673895D01*
Y234726D01*
X674561Y234060D01*
X675894D01*
X676560Y234726D01*
Y236726D01*
Y235393D02*
X677893Y234060D01*
X673895Y230061D02*
X674561Y231394D01*
X675894Y232727D01*
X677227D01*
X677893Y232060D01*
Y230728D01*
X677227Y230061D01*
X676560D01*
X675894Y230728D01*
Y232727D01*
X674561Y228728D02*
X673895Y228062D01*
Y226729D01*
X674561Y226062D01*
X677227D01*
X677893Y226729D01*
Y228062D01*
X677227Y228728D01*
X674561D01*
X106566Y384676D02*
Y388675D01*
X104566D01*
X103900Y388008D01*
Y386675D01*
X104566Y386009D01*
X106566D01*
X105233D02*
X103900Y384676D01*
X102567D02*
X101234D01*
X101901D01*
Y388675D01*
X102567Y388008D01*
X96569Y384676D02*
X99235D01*
X96569Y387342D01*
Y388008D01*
X97235Y388675D01*
X98568D01*
X99235Y388008D01*
X95236Y385342D02*
X94570Y384676D01*
X93237D01*
X92570Y385342D01*
Y388008D01*
X93237Y388675D01*
X94570D01*
X95236Y388008D01*
Y387342D01*
X94570Y386675D01*
X92570D01*
X106566Y468593D02*
Y472592D01*
X104566D01*
X103900Y471925D01*
Y470592D01*
X104566Y469926D01*
X106566D01*
X105233D02*
X103900Y468593D01*
X102567D02*
X101234D01*
X101901D01*
Y472592D01*
X102567Y471925D01*
X96569Y468593D02*
X99235D01*
X96569Y471259D01*
Y471925D01*
X97235Y472592D01*
X98568D01*
X99235Y471925D01*
X95236D02*
X94570Y472592D01*
X93237D01*
X92570Y471925D01*
Y471259D01*
X93237Y470592D01*
X92570Y469926D01*
Y469259D01*
X93237Y468593D01*
X94570D01*
X95236Y469259D01*
Y469926D01*
X94570Y470592D01*
X95236Y471259D01*
Y471925D01*
X94570Y470592D02*
X93237D01*
X106566Y365133D02*
Y369132D01*
X104566D01*
X103900Y368466D01*
Y367133D01*
X104566Y366466D01*
X106566D01*
X105233D02*
X103900Y365133D01*
X102567D02*
X101234D01*
X101901D01*
Y369132D01*
X102567Y368466D01*
X96569Y365133D02*
X99235D01*
X96569Y367799D01*
Y368466D01*
X97235Y369132D01*
X98568D01*
X99235Y368466D01*
X95236Y369132D02*
X92570D01*
Y368466D01*
X95236Y365800D01*
Y365133D01*
X106566Y448796D02*
Y452795D01*
X104566D01*
X103900Y452128D01*
Y450796D01*
X104566Y450129D01*
X106566D01*
X105233D02*
X103900Y448796D01*
X102567D02*
X101234D01*
X101901D01*
Y452795D01*
X102567Y452128D01*
X96569Y448796D02*
X99235D01*
X96569Y451462D01*
Y452128D01*
X97235Y452795D01*
X98568D01*
X99235Y452128D01*
X92570Y452795D02*
X93903Y452128D01*
X95236Y450796D01*
Y449463D01*
X94570Y448796D01*
X93237D01*
X92570Y449463D01*
Y450129D01*
X93237Y450796D01*
X95236D01*
X782514Y339718D02*
Y343717D01*
X780515D01*
X779848Y343050D01*
Y341717D01*
X780515Y341051D01*
X782514D01*
X781181D02*
X779848Y339718D01*
X778515Y343050D02*
X777849Y343717D01*
X776516D01*
X775850Y343050D01*
Y342384D01*
X776516Y341717D01*
X777182D01*
X776516D01*
X775850Y341051D01*
Y340384D01*
X776516Y339718D01*
X777849D01*
X778515Y340384D01*
X774517Y339718D02*
X773184D01*
X773850D01*
Y343717D01*
X774517Y343050D01*
X783022Y259962D02*
Y263961D01*
X781023D01*
X780356Y263294D01*
Y261961D01*
X781023Y261295D01*
X783022D01*
X781689D02*
X780356Y259962D01*
X779023Y263294D02*
X778357Y263961D01*
X777024D01*
X776357Y263294D01*
Y262628D01*
X777024Y261961D01*
X777690D01*
X777024D01*
X776357Y261295D01*
Y260628D01*
X777024Y259962D01*
X778357D01*
X779023Y260628D01*
X775025Y263294D02*
X774358Y263961D01*
X773025D01*
X772359Y263294D01*
Y260628D01*
X773025Y259962D01*
X774358D01*
X775025Y260628D01*
Y263294D01*
X782768Y299586D02*
Y303585D01*
X780769D01*
X780102Y302918D01*
Y301585D01*
X780769Y300919D01*
X782768D01*
X781435D02*
X780102Y299586D01*
X778769D02*
X777436D01*
X778103D01*
Y303585D01*
X778769Y302918D01*
X775437D02*
X774771Y303585D01*
X773438D01*
X772771Y302918D01*
Y302252D01*
X773438Y301585D01*
X774104D01*
X773438D01*
X772771Y300919D01*
Y300252D01*
X773438Y299586D01*
X774771D01*
X775437Y300252D01*
X782768Y244149D02*
Y240150D01*
X780769D01*
X780102Y240816D01*
Y243482D01*
X780769Y244149D01*
X782768D01*
X776104Y243482D02*
X776770Y244149D01*
X778103D01*
X778769Y243482D01*
Y242816D01*
X778103Y242149D01*
X776770D01*
X776104Y241483D01*
Y240816D01*
X776770Y240150D01*
X778103D01*
X778769Y240816D01*
X774771Y243482D02*
X774104Y244149D01*
X772771D01*
X772105Y243482D01*
Y242816D01*
X772771Y242149D01*
X773438D01*
X772771D01*
X772105Y241483D01*
Y240816D01*
X772771Y240150D01*
X774104D01*
X774771Y240816D01*
X783022Y323905D02*
Y319906D01*
X781023D01*
X780356Y320572D01*
Y323238D01*
X781023Y323905D01*
X783022D01*
X776357Y323238D02*
X777024Y323905D01*
X778357D01*
X779023Y323238D01*
Y322572D01*
X778357Y321905D01*
X777024D01*
X776357Y321239D01*
Y320572D01*
X777024Y319906D01*
X778357D01*
X779023Y320572D01*
X772359Y319906D02*
X775025D01*
X772359Y322572D01*
Y323238D01*
X773025Y323905D01*
X774358D01*
X775025Y323238D01*
X783022Y285043D02*
Y281044D01*
X781023D01*
X780356Y281710D01*
Y284376D01*
X781023Y285043D01*
X783022D01*
X776357Y284376D02*
X777024Y285043D01*
X778357D01*
X779023Y284376D01*
Y283710D01*
X778357Y283043D01*
X777024D01*
X776357Y282377D01*
Y281710D01*
X777024Y281044D01*
X778357D01*
X779023Y281710D01*
X773025Y281044D02*
Y285043D01*
X775025Y283043D01*
X772359D01*
X237427Y249696D02*
X236761Y250362D01*
Y251695D01*
X237427Y252362D01*
X240093D01*
X240759Y251695D01*
Y250362D01*
X240093Y249696D01*
X240759Y248363D02*
Y247030D01*
Y247697D01*
X236761D01*
X237427Y248363D01*
X240759Y243031D02*
X236761D01*
X238760Y245031D01*
Y242365D01*
X236761Y238366D02*
Y241032D01*
X238760D01*
X238093Y239699D01*
Y239033D01*
X238760Y238366D01*
X240093D01*
X240759Y239033D01*
Y240366D01*
X240093Y241032D01*
X237654Y337052D02*
X236987Y337719D01*
Y339052D01*
X237654Y339718D01*
X240320D01*
X240986Y339052D01*
Y337719D01*
X240320Y337052D01*
X240986Y335719D02*
Y334386D01*
Y335053D01*
X236987D01*
X237654Y335719D01*
X240986Y330388D02*
X236987D01*
X238987Y332387D01*
Y329721D01*
X240986Y326389D02*
X236987D01*
X238987Y328388D01*
Y325723D01*
X635158Y34765D02*
X636491D01*
X635825D01*
Y31433D01*
X636491Y30767D01*
X637158D01*
X637824Y31433D01*
X631826Y30767D02*
Y34765D01*
X633826Y32766D01*
X631160D01*
D21*
X813406Y251735D02*
X818314D01*
X822506Y247542D01*
Y239726D02*
Y247542D01*
X813406Y235534D02*
X818314D01*
X822506Y239726D01*
X788306Y235534D02*
X797406D01*
X788306Y251735D02*
X797406D01*
X788306Y235534D02*
Y251735D01*
X813679Y292581D02*
X818587D01*
X822779Y288389D01*
Y280573D02*
Y288389D01*
X813679Y276381D02*
X818587D01*
X822779Y280573D01*
X788579Y276381D02*
X797679D01*
X788579Y292581D02*
X797679D01*
X788579Y276381D02*
Y292581D01*
X813642Y331558D02*
X818550D01*
X822742Y327365D01*
Y319549D02*
Y327365D01*
X813642Y315357D02*
X818550D01*
X822742Y319549D01*
X788542Y315357D02*
X797642D01*
X788542Y331558D02*
X797642D01*
X788542Y315357D02*
Y331558D01*
X788579Y355375D02*
Y371575D01*
X797679D01*
X788579Y355375D02*
X797679D01*
X818587D02*
X822779Y359567D01*
X813679Y355375D02*
X818587D01*
X822779Y359567D02*
Y367383D01*
X818587Y371575D02*
X822779Y367383D01*
X813679Y371575D02*
X818587D01*
X788542Y395325D02*
Y411525D01*
X797642D01*
X788542Y395325D02*
X797642D01*
X818550D02*
X822742Y399517D01*
X813642Y395325D02*
X818550D01*
X822742Y399517D02*
Y407333D01*
X818550Y411525D02*
X822742Y407333D01*
X813642Y411525D02*
X818550D01*
X813642Y451509D02*
X818550D01*
X822742Y447317D01*
Y439501D02*
Y447317D01*
X813642Y435309D02*
X818550D01*
X822742Y439501D01*
X788542Y435309D02*
X797642D01*
X788542Y451509D02*
X797642D01*
X788542Y435309D02*
Y451509D01*
D22*
X235649Y462967D02*
Y467037D01*
X193109D02*
X197179D01*
X193109Y424497D02*
Y428566D01*
X231579Y424497D02*
X235649D01*
X193109Y462967D02*
Y467037D01*
Y424497D02*
X197179D01*
X235649D02*
Y428566D01*
X231579Y467037D02*
X235649D01*
D23*
X242348Y50731D02*
X254156Y38923D01*
X595765D02*
X607573Y50731D01*
X819682Y257040D02*
Y269740D01*
X796822Y257040D02*
X819682D01*
X791742D02*
X796822D01*
X791742D02*
Y269740D01*
X819682D01*
X809522Y258310D02*
Y268470D01*
X801902Y258310D02*
X809522D01*
X801902D02*
Y268470D01*
X809522D01*
X819682Y296672D02*
Y309372D01*
X796822Y296672D02*
X819682D01*
X791742D02*
X796822D01*
X791742D02*
Y309372D01*
X819682D01*
X809522Y297942D02*
Y308102D01*
X801902Y297942D02*
X809522D01*
X801902D02*
Y308102D01*
X809522D01*
X791742Y349708D02*
X819682D01*
X791742Y337008D02*
Y349708D01*
Y337008D02*
X796822D01*
X819682D01*
Y349708D01*
X809522Y338278D02*
Y348438D01*
X801902Y338278D02*
X809522D01*
X801902D02*
Y348438D01*
X809522D01*
X819682Y376992D02*
Y389692D01*
X796822Y376992D02*
X819682D01*
X791742D02*
X796822D01*
X791742D02*
Y389692D01*
X819682D01*
X809522Y378262D02*
Y388422D01*
X801902Y378262D02*
X809522D01*
X801902D02*
Y388422D01*
X809522D01*
X819682Y416976D02*
Y429676D01*
X796822Y416976D02*
X819682D01*
X791742D02*
X796822D01*
X791742D02*
Y429676D01*
X819682D01*
X809522Y418246D02*
Y428406D01*
X801902Y418246D02*
X809522D01*
X801902D02*
Y428406D01*
X809522D01*
X801902Y468390D02*
X809522D01*
X801902Y458230D02*
Y468390D01*
Y458230D02*
X809522D01*
Y468390D01*
X791742Y469660D02*
X819682D01*
X791742Y456960D02*
Y469660D01*
Y456960D02*
X796822D01*
X819682D01*
Y469660D01*
X665970Y227467D02*
Y235088D01*
X655810D02*
X665970D01*
X655810Y227467D02*
Y235088D01*
Y227467D02*
X665970D01*
X654540Y217307D02*
X667240D01*
X654540D02*
Y240168D01*
Y245247D01*
X667240D01*
Y217307D02*
Y245247D01*
X665971Y257598D02*
Y265217D01*
X655811D02*
X665971D01*
X655811Y257598D02*
Y265217D01*
Y257598D02*
X665971D01*
X667241Y247437D02*
Y275378D01*
X654541D02*
X667241D01*
X654541Y270298D02*
Y275378D01*
Y247437D02*
Y270298D01*
Y247437D02*
X667241D01*
X57152Y462785D02*
Y475485D01*
X80012D01*
X85092D01*
Y462785D02*
Y475485D01*
X57152Y462785D02*
X85092D01*
X67312Y464055D02*
Y474215D01*
X74932D01*
Y464055D02*
Y474215D01*
X67312Y464055D02*
X74932D01*
X57012Y443327D02*
Y456027D01*
X79872D01*
X84952D01*
Y443327D02*
Y456027D01*
X57012Y443327D02*
X84952D01*
X67172Y444597D02*
Y454757D01*
X74792D01*
Y444597D02*
Y454757D01*
X67172Y444597D02*
X74792D01*
X56922Y379873D02*
Y392573D01*
X79782D01*
X84862D01*
Y379873D02*
Y392573D01*
X56922Y379873D02*
X84862D01*
X67082Y381143D02*
Y391303D01*
X74702D01*
Y381143D02*
Y391303D01*
X67082Y381143D02*
X74702D01*
X56922Y360415D02*
Y373115D01*
X79782D01*
X84862D01*
Y360415D02*
Y373115D01*
X56922Y360415D02*
X84862D01*
X67082Y361685D02*
Y371845D01*
X74702D01*
Y361685D02*
Y371845D01*
X67082Y361685D02*
X74702D01*
X84003Y285497D02*
X86131D01*
X99875D02*
X102003D01*
X99875Y255497D02*
X102003D01*
X84003D02*
X86131D01*
X84003D02*
Y285497D01*
X102003Y255497D02*
Y285497D01*
X109003D02*
X111131D01*
X124875D02*
X127003D01*
X124875Y255497D02*
X127003D01*
X109003D02*
X111131D01*
X109003D02*
Y285497D01*
X127003Y255497D02*
Y285497D01*
X190280Y230026D02*
Y237646D01*
Y230026D02*
X200440D01*
Y237646D01*
X190280D02*
X200440D01*
X189010Y219866D02*
Y247806D01*
Y219866D02*
X201710D01*
Y224946D01*
Y247806D01*
X189010D02*
X201710D01*
X208073Y230026D02*
Y237646D01*
Y230026D02*
X218233D01*
Y237646D01*
X208073D02*
X218233D01*
X206803Y219866D02*
Y247806D01*
Y219866D02*
X219503D01*
Y224946D01*
Y247806D01*
X206803D02*
X219503D01*
X269075Y291063D02*
X281775D01*
X280505Y301223D02*
Y308843D01*
X270345D02*
X280505D01*
X270345Y301223D02*
Y308843D01*
Y301223D02*
X280505D01*
X281775Y291063D02*
Y319003D01*
X269075D02*
X281775D01*
X269075Y313923D02*
Y319003D01*
Y291063D02*
Y313923D01*
X333941Y301186D02*
Y308806D01*
X323781D02*
X333941D01*
X323781Y301186D02*
Y308806D01*
Y301186D02*
X333941D01*
X335211Y291026D02*
Y318966D01*
X322511D02*
X335211D01*
X322511Y313886D02*
Y318966D01*
Y291026D02*
Y313886D01*
Y291026D02*
X335211D01*
X159353Y443244D02*
X166973D01*
X159353Y433084D02*
Y443244D01*
Y433084D02*
X166973D01*
Y443244D01*
X149193Y444514D02*
X177133D01*
X149193Y431814D02*
Y444514D01*
Y431814D02*
X154273D01*
X177133D01*
Y444514D01*
X190183Y405627D02*
Y418327D01*
X213043D01*
X218123D01*
Y405627D02*
Y418327D01*
X190183Y405627D02*
X218123D01*
X200343Y406897D02*
Y417057D01*
X207963D01*
Y406897D02*
Y417057D01*
X200343Y406897D02*
X207963D01*
X249638Y441203D02*
X262338D01*
Y418343D02*
Y441203D01*
Y413263D02*
Y418343D01*
X249638Y413263D02*
X262338D01*
X249638D02*
Y441203D01*
X250908Y431043D02*
X261068D01*
Y423423D02*
Y431043D01*
X250908Y423423D02*
X261068D01*
X250908D02*
Y431043D01*
X268175Y441203D02*
X280875D01*
Y418343D02*
Y441203D01*
Y413263D02*
Y418343D01*
X268175Y413263D02*
X280875D01*
X268175D02*
Y441203D01*
X269445Y431043D02*
X279605D01*
Y423423D02*
Y431043D01*
X269445Y423423D02*
X279605D01*
X269445D02*
Y431043D01*
X298142Y423423D02*
Y431043D01*
X287982D02*
X298142D01*
X287982Y423423D02*
Y431043D01*
Y423423D02*
X298142D01*
X299412Y413263D02*
Y441203D01*
X286712D02*
X299412D01*
X286712Y436123D02*
Y441203D01*
Y413263D02*
Y436123D01*
Y413263D02*
X299412D01*
X316679Y423423D02*
Y431043D01*
X306520D02*
X316679D01*
X306520Y423423D02*
Y431043D01*
Y423423D02*
X316679D01*
X317950Y413263D02*
Y441203D01*
X305250D02*
X317950D01*
X305250Y436123D02*
Y441203D01*
Y413263D02*
Y436123D01*
Y413263D02*
X317950D01*
X316679Y458760D02*
Y466380D01*
X306520D02*
X316679D01*
X306520Y458760D02*
Y466380D01*
Y458760D02*
X316679D01*
X317950Y448600D02*
Y476540D01*
X305250D02*
X317950D01*
X305250Y471460D02*
Y476540D01*
Y448600D02*
Y471460D01*
Y448600D02*
X317950D01*
X249638Y476540D02*
X262338D01*
Y453680D02*
Y476540D01*
Y448600D02*
Y453680D01*
X249638Y448600D02*
X262338D01*
X249638D02*
Y476540D01*
X250908Y466380D02*
X261068D01*
Y458760D02*
Y466380D01*
X250908Y458760D02*
X261068D01*
X250908D02*
Y466380D01*
X268175Y476540D02*
X280875D01*
Y453680D02*
Y476540D01*
Y448600D02*
Y453680D01*
X268175Y448600D02*
X280875D01*
X268175D02*
Y476540D01*
X269445Y466380D02*
X279605D01*
Y458760D02*
Y466380D01*
X269445Y458760D02*
X279605D01*
X269445D02*
Y466380D01*
X287982Y458760D02*
X298142D01*
X287982D02*
Y466380D01*
X298142D01*
Y458760D02*
Y466380D01*
X299412Y448600D02*
Y476540D01*
X286712D02*
X299412D01*
X286712Y471460D02*
Y476540D01*
Y448600D02*
Y471460D01*
Y448600D02*
X299412D01*
X505255Y474755D02*
X517955D01*
X505255D02*
Y497615D01*
Y502695D01*
X517955D01*
Y474755D02*
Y502695D01*
X506525Y484915D02*
X516685D01*
X506525D02*
Y492535D01*
X516685D01*
Y484915D02*
Y492535D01*
X590515Y484915D02*
Y492535D01*
X580355D02*
X590515D01*
X580355Y484915D02*
Y492535D01*
Y484915D02*
X590515D01*
X591785Y474755D02*
Y502695D01*
X579085D02*
X591785D01*
X579085Y497615D02*
Y502695D01*
Y474755D02*
Y497615D01*
Y474755D02*
X591785D01*
X627234Y484915D02*
Y492535D01*
X617074D02*
X627234D01*
X617074Y484915D02*
Y492535D01*
Y484915D02*
X627234D01*
X628504Y474755D02*
Y502695D01*
X615804D02*
X628504D01*
X615804Y497615D02*
Y502695D01*
Y474755D02*
Y497615D01*
Y474755D02*
X628504D01*
X635433Y484915D02*
Y492535D01*
Y484915D02*
X645593D01*
Y492535D01*
X635433D02*
X645593D01*
X634163Y474755D02*
Y502695D01*
Y474755D02*
X646863D01*
Y479835D01*
Y502695D01*
X634163D02*
X646863D01*
X525786Y484915D02*
Y492535D01*
Y484915D02*
X535946D01*
Y492535D01*
X525786D02*
X535946D01*
X524516Y474755D02*
Y502695D01*
Y474755D02*
X537216D01*
Y479835D01*
Y502695D01*
X524516D02*
X537216D01*
X571764Y484915D02*
Y492535D01*
X561604D02*
X571764D01*
X561604Y484915D02*
Y492535D01*
Y484915D02*
X571764D01*
X573034Y474755D02*
Y502695D01*
X560334D02*
X573034D01*
X560334Y497615D02*
Y502695D01*
Y474755D02*
Y497615D01*
Y474755D02*
X573034D01*
X645593Y616837D02*
Y624457D01*
X635433D02*
X645593D01*
X635433Y616837D02*
Y624457D01*
Y616837D02*
X645593D01*
X646863Y606677D02*
Y634617D01*
X634163D02*
X646863D01*
X634163Y629537D02*
Y634617D01*
Y606677D02*
Y629537D01*
Y606677D02*
X646863D01*
X654694Y616837D02*
Y624457D01*
Y616837D02*
X664854D01*
Y624457D01*
X654694D02*
X664854D01*
X653424Y606677D02*
Y634617D01*
Y606677D02*
X666124D01*
Y611757D01*
Y634617D01*
X653424D02*
X666124D01*
X599615Y616837D02*
Y624457D01*
Y616837D02*
X609775D01*
Y624457D01*
X599615D02*
X609775D01*
X598345Y606677D02*
Y634617D01*
Y606677D02*
X611045D01*
Y611757D01*
Y634617D01*
X598345D02*
X611045D01*
X580865Y616837D02*
Y624457D01*
Y616837D02*
X591025D01*
Y624457D01*
X580865D02*
X591025D01*
X579595Y606677D02*
Y634617D01*
Y606677D02*
X592295D01*
Y611757D01*
Y634617D01*
X579595D02*
X592295D01*
X542876D02*
X555576D01*
Y611757D02*
Y634617D01*
Y606677D02*
Y611757D01*
X542876Y606677D02*
X555576D01*
X542876D02*
Y634617D01*
X544146Y624457D02*
X554306D01*
Y616837D02*
Y624457D01*
X544146Y616837D02*
X554306D01*
X544146D02*
Y624457D01*
X535946Y616837D02*
Y624457D01*
X525786D02*
X535946D01*
X525786Y616837D02*
Y624457D01*
Y616837D02*
X535946D01*
X537216Y606677D02*
Y634617D01*
X524516D02*
X537216D01*
X524516Y629537D02*
Y634617D01*
Y606677D02*
Y629537D01*
Y606677D02*
X537216D01*
D154*
X97129Y240616D02*
X112877D01*
X97129Y225376D02*
X112877D01*
D155*
X483713Y186500D02*
X494376D01*
Y170505D01*
X483713D01*
X494376Y178503D02*
X489045D01*
X478381Y186500D02*
X467718Y170505D01*
Y186500D02*
X478381Y170505D01*
X462387D02*
Y186500D01*
X454389D01*
X451723Y183834D01*
Y178503D01*
X454389Y175837D01*
X462387D01*
X446392Y167839D02*
X435729D01*
X430397Y186500D02*
Y175837D01*
X425065Y170505D01*
X419734Y175837D01*
Y186500D01*
X414402Y170505D02*
Y173171D01*
X411736D01*
Y170505D01*
X414402D01*
X401073D02*
X395742D01*
X398407D01*
Y186500D01*
X401073Y183834D01*
X387744Y170505D02*
Y173171D01*
X385078D01*
Y170505D01*
X387744D01*
X374415Y183834D02*
X371749Y186500D01*
X366418D01*
X363752Y183834D01*
Y173171D01*
X366418Y170505D01*
X371749D01*
X374415Y173171D01*
Y183834D01*
X358420Y170505D02*
Y173171D01*
X355755D01*
Y170505D01*
X358420D01*
X345091D02*
X339760D01*
X342426D01*
Y186500D01*
X345091Y183834D01*
D156*
X92887Y263129D02*
D03*
X117876Y263129D02*
D03*
M02*
