G04*
G04 #@! TF.GenerationSoftware,Altium Limited,Altium Designer,24.1.2 (44)*
G04*
G04 Layer_Color=16711935*
%FSLAX44Y44*%
%MOMM*%
G71*
G04*
G04 #@! TF.SameCoordinates,1E5C80FD-96BC-4AB1-9BEB-1594B19F9C97*
G04*
G04*
G04 #@! TF.FilePolarity,Negative*
G04*
G01*
G75*
%ADD25C,1.2700*%
%ADD38R,0.9500X0.9000*%
%ADD67R,1.1032X1.0032*%
%ADD69R,1.1032X1.2032*%
%ADD71R,1.2032X1.1032*%
%ADD74R,1.0032X1.1032*%
%ADD76R,1.1532X1.1032*%
%ADD86O,0.8032X2.0032*%
%ADD97R,1.8032X1.8032*%
%ADD98C,1.8032*%
%ADD99C,1.6612*%
%ADD100C,1.5732*%
%ADD101R,1.5732X1.5732*%
%ADD102C,1.2032*%
%ADD103C,6.2032*%
%ADD104C,0.6032*%
%ADD134R,2.7178X3.4036*%
%ADD140R,2.6500X2.6500*%
%ADD141R,0.8048X0.2746*%
%ADD142R,0.2746X0.8048*%
%ADD145R,1.2032X3.4032*%
%ADD146R,1.3000X1.2000*%
%ADD147O,2.0032X0.8032*%
%ADD148R,1.4032X1.2032*%
%ADD149R,1.5032X1.3532*%
%ADD150R,1.4732X1.8542*%
%ADD151R,1.1032X0.8032*%
D25*
X12006Y843650D02*
G03*
X6356Y838012I0J-5650D01*
G01*
X6356Y12000D02*
G03*
X11994Y6350I5650J0D01*
G01*
X838006Y6350D02*
G03*
X843656Y11988I0J5650D01*
G01*
X843656Y838000D02*
G03*
X838024Y843650I-5650J0D01*
G01*
X843656Y12000D02*
X843656Y837975D01*
X12024Y843650D02*
X838006Y843650D01*
X12006Y6350D02*
X837981Y6350D01*
X6356Y12025D02*
X6356Y838000D01*
D38*
X73003Y259997D02*
D03*
D67*
X660891Y240546D02*
D03*
X660890Y222388D02*
D03*
X660891Y252518D02*
D03*
X660892Y270676D02*
D03*
X195359Y224567D02*
D03*
X195360Y242726D02*
D03*
X213151Y224567D02*
D03*
X213153Y242726D02*
D03*
X328862Y314265D02*
D03*
X328861Y296106D02*
D03*
X255987Y417964D02*
D03*
X255988Y436123D02*
D03*
X274524Y417964D02*
D03*
X274525Y436123D02*
D03*
X293062Y418343D02*
D03*
X293063Y436502D02*
D03*
X311600Y418343D02*
D03*
X311601Y436502D02*
D03*
X311600Y453680D02*
D03*
X311601Y471838D02*
D03*
X255987Y453301D02*
D03*
X255988Y471460D02*
D03*
X274524Y453301D02*
D03*
X274525Y471460D02*
D03*
X293062Y453680D02*
D03*
X293063Y471838D02*
D03*
X511605Y479835D02*
D03*
X511607Y497994D02*
D03*
X585436D02*
D03*
X585435Y479835D02*
D03*
X622155Y497994D02*
D03*
X622154Y479835D02*
D03*
X640512Y479456D02*
D03*
X640513Y497615D02*
D03*
X530865Y479456D02*
D03*
X530866Y497615D02*
D03*
X566685Y497994D02*
D03*
X566684Y479835D02*
D03*
X640514Y629916D02*
D03*
X640513Y611757D02*
D03*
X659773Y611378D02*
D03*
X659774Y629537D02*
D03*
X604694Y611378D02*
D03*
X604695Y629537D02*
D03*
X585944Y611378D02*
D03*
X585945Y629537D02*
D03*
X549226D02*
D03*
X549225Y611378D02*
D03*
X530867Y629916D02*
D03*
X530866Y611757D02*
D03*
D69*
X238765Y698518D02*
D03*
X222765D02*
D03*
X238765Y718336D02*
D03*
X222765D02*
D03*
X517324Y393513D02*
D03*
X533325D02*
D03*
X533339Y409001D02*
D03*
X517339D02*
D03*
X517339Y424490D02*
D03*
X533339D02*
D03*
X285063Y369480D02*
D03*
X301063D02*
D03*
X285063Y385972D02*
D03*
X301063D02*
D03*
D71*
X142881Y241997D02*
D03*
Y225997D02*
D03*
X160674Y241997D02*
D03*
Y225997D02*
D03*
X178467Y241997D02*
D03*
Y225997D02*
D03*
X238704Y265102D02*
D03*
Y281102D02*
D03*
X310447D02*
D03*
Y265102D02*
D03*
X291909Y281102D02*
D03*
Y265102D02*
D03*
X275172D02*
D03*
Y281102D02*
D03*
X256635Y265102D02*
D03*
Y281102D02*
D03*
X329761Y265102D02*
D03*
Y281102D02*
D03*
X346390D02*
D03*
Y265102D02*
D03*
X363834Y329817D02*
D03*
Y345817D02*
D03*
X381278Y329817D02*
D03*
Y345817D02*
D03*
X398721Y329817D02*
D03*
Y345817D02*
D03*
X416165Y329817D02*
D03*
Y345817D02*
D03*
X416165Y297282D02*
D03*
Y313282D02*
D03*
X398721Y297282D02*
D03*
Y313282D02*
D03*
X381278Y297282D02*
D03*
Y313282D02*
D03*
X363834Y297282D02*
D03*
Y313282D02*
D03*
X292162Y297282D02*
D03*
Y313282D02*
D03*
X310700Y297282D02*
D03*
Y313282D02*
D03*
X346390Y297282D02*
D03*
Y313282D02*
D03*
X238957Y297282D02*
D03*
Y313282D02*
D03*
X659773Y529455D02*
D03*
Y513455D02*
D03*
Y546436D02*
D03*
Y562436D02*
D03*
Y579416D02*
D03*
Y595416D02*
D03*
X604694Y496475D02*
D03*
Y480475D02*
D03*
X659773Y496475D02*
D03*
Y480475D02*
D03*
X549225Y496475D02*
D03*
Y480475D02*
D03*
X511607Y513517D02*
D03*
Y529517D02*
D03*
Y546559D02*
D03*
Y562559D02*
D03*
Y595601D02*
D03*
Y579601D02*
D03*
X622155Y612397D02*
D03*
Y628397D02*
D03*
X566685D02*
D03*
Y612397D02*
D03*
X511607Y628397D02*
D03*
Y612397D02*
D03*
D74*
X796443Y263391D02*
D03*
X814602Y263390D02*
D03*
X796443Y303023D02*
D03*
X814602Y303022D02*
D03*
Y343358D02*
D03*
X796443Y343359D02*
D03*
X814602Y383342D02*
D03*
X796443Y383343D02*
D03*
X814602Y423326D02*
D03*
X796443Y423327D02*
D03*
Y463311D02*
D03*
X814602Y463310D02*
D03*
X80391Y469134D02*
D03*
X62232Y469135D02*
D03*
X80251Y449676D02*
D03*
X62092Y449677D02*
D03*
X80161Y386222D02*
D03*
X62002Y386223D02*
D03*
X80161Y366764D02*
D03*
X62002Y366765D02*
D03*
X153894Y438165D02*
D03*
X172053Y438164D02*
D03*
X195263Y411977D02*
D03*
X213422Y411976D02*
D03*
D76*
X73003Y278997D02*
D03*
X48003Y269497D02*
D03*
D86*
X572075Y526219D02*
D03*
X559375D02*
D03*
X546675D02*
D03*
X533975D02*
D03*
X572075Y582719D02*
D03*
X559375D02*
D03*
X546675D02*
D03*
X533975D02*
D03*
X600015Y582719D02*
D03*
X612715D02*
D03*
X625415D02*
D03*
X638115D02*
D03*
X600015Y526219D02*
D03*
X612715D02*
D03*
X625415D02*
D03*
X638115D02*
D03*
D97*
X734603Y642165D02*
D03*
Y544597D02*
D03*
D98*
Y667565D02*
D03*
Y692965D02*
D03*
Y718365D02*
D03*
Y743765D02*
D03*
Y569997D02*
D03*
Y595397D02*
D03*
D99*
X477503Y739997D02*
D03*
X662503D02*
D03*
X477503Y692497D02*
D03*
X662503D02*
D03*
X352503Y692497D02*
D03*
X167503D02*
D03*
X352503Y739997D02*
D03*
X167503D02*
D03*
X607503Y36197D02*
D03*
X242503Y83797D02*
D03*
X607503D02*
D03*
X242503Y36197D02*
D03*
D100*
X762703Y215397D02*
D03*
Y189997D02*
D03*
X737303Y266197D02*
D03*
X762703D02*
D03*
X737303Y240797D02*
D03*
X762703D02*
D03*
X737303Y215397D02*
D03*
Y189997D02*
D03*
Y164597D02*
D03*
X762703D02*
D03*
X737303Y139197D02*
D03*
X762703D02*
D03*
X737303Y113797D02*
D03*
D101*
X762703D02*
D03*
D102*
X19563Y52437D02*
D03*
X52443Y19557D02*
D03*
X19563D02*
D03*
X52443Y52437D02*
D03*
X59253Y35997D02*
D03*
X36003Y13137D02*
D03*
X12753Y35997D02*
D03*
X36003Y59247D02*
D03*
X797563Y52437D02*
D03*
X830443Y19557D02*
D03*
X797563D02*
D03*
X830443Y52437D02*
D03*
X837253Y35997D02*
D03*
X814003Y13137D02*
D03*
X790753Y35997D02*
D03*
X814003Y59247D02*
D03*
X19563Y830437D02*
D03*
X52443Y797557D02*
D03*
X19563D02*
D03*
X52443Y830437D02*
D03*
X59253Y813997D02*
D03*
X36003Y791137D02*
D03*
X12753Y813997D02*
D03*
X36003Y837247D02*
D03*
X797563Y830437D02*
D03*
X830443Y797557D02*
D03*
X797563D02*
D03*
X830443Y830437D02*
D03*
X837253Y813997D02*
D03*
X814003Y791137D02*
D03*
X790753Y813997D02*
D03*
X814003Y837247D02*
D03*
D103*
X36003Y35997D02*
D03*
X814003D02*
D03*
X36003Y813997D02*
D03*
X814003D02*
D03*
D104*
X836321Y843614D02*
D03*
X843620Y526780D02*
D03*
X6386Y35503D02*
D03*
X843620Y586779D02*
D03*
X6386Y645502D02*
D03*
Y425503D02*
D03*
Y405503D02*
D03*
X740856Y6379D02*
D03*
X250858D02*
D03*
X460857D02*
D03*
X660857D02*
D03*
X843620Y406780D02*
D03*
X316322Y843614D02*
D03*
X26323D02*
D03*
X730856Y6379D02*
D03*
X416322Y843614D02*
D03*
X6386Y335503D02*
D03*
X400857Y6379D02*
D03*
X843620Y306780D02*
D03*
X246322Y843614D02*
D03*
X496322D02*
D03*
X6386Y715502D02*
D03*
Y385503D02*
D03*
Y255503D02*
D03*
Y835502D02*
D03*
X843620Y156780D02*
D03*
X806321Y843614D02*
D03*
X430857Y6379D02*
D03*
X100858D02*
D03*
X736321Y843614D02*
D03*
X843620Y186780D02*
D03*
X66323Y843614D02*
D03*
X160858Y6379D02*
D03*
X6386Y545503D02*
D03*
X440857Y6379D02*
D03*
X280857D02*
D03*
X843620Y216780D02*
D03*
X396322Y843614D02*
D03*
X630857Y6379D02*
D03*
X366322Y843614D02*
D03*
X326322D02*
D03*
X6386Y305503D02*
D03*
X30858Y6379D02*
D03*
X390857D02*
D03*
X6386Y775502D02*
D03*
Y735502D02*
D03*
Y665502D02*
D03*
X470857Y6379D02*
D03*
X560857D02*
D03*
X843620Y616779D02*
D03*
X6386Y635502D02*
D03*
X126323Y843614D02*
D03*
X6386Y455503D02*
D03*
X96323Y843614D02*
D03*
X843620Y176780D02*
D03*
X6386Y355503D02*
D03*
X843620Y786779D02*
D03*
X700857Y6379D02*
D03*
X600857D02*
D03*
X716321Y843614D02*
D03*
X586322D02*
D03*
X843620Y366780D02*
D03*
Y556779D02*
D03*
X556322Y843614D02*
D03*
X610857Y6379D02*
D03*
X356322Y843614D02*
D03*
X843620Y86780D02*
D03*
X6386Y525503D02*
D03*
X670857Y6379D02*
D03*
X6386Y815502D02*
D03*
X843620Y276780D02*
D03*
Y66780D02*
D03*
X686321Y843614D02*
D03*
X20858Y6379D02*
D03*
X230858D02*
D03*
X6386Y595502D02*
D03*
X650857Y6379D02*
D03*
X843620Y566779D02*
D03*
X606322Y843614D02*
D03*
X780856Y6379D02*
D03*
X526322Y843614D02*
D03*
X210858Y6379D02*
D03*
X450857D02*
D03*
X6386Y795502D02*
D03*
X150858Y6379D02*
D03*
X843620Y476780D02*
D03*
X216322Y843614D02*
D03*
X816321D02*
D03*
X6386Y465503D02*
D03*
X260857Y6379D02*
D03*
X843620Y16781D02*
D03*
X6386Y535503D02*
D03*
X843620Y426780D02*
D03*
X6386Y625502D02*
D03*
X380857Y6379D02*
D03*
X590857D02*
D03*
X12233Y843614D02*
D03*
X843620Y416780D02*
D03*
Y686779D02*
D03*
X506322Y843614D02*
D03*
X6386Y165503D02*
D03*
X843620Y316780D02*
D03*
X386322Y843614D02*
D03*
X6386Y435503D02*
D03*
X770856Y6379D02*
D03*
X320857D02*
D03*
X843620Y726779D02*
D03*
Y266780D02*
D03*
X540857Y6379D02*
D03*
X536322Y843614D02*
D03*
X170858Y6379D02*
D03*
X830856D02*
D03*
X843620Y706779D02*
D03*
X6386Y225503D02*
D03*
X240858Y6379D02*
D03*
X843620Y806779D02*
D03*
X6386Y125503D02*
D03*
X843620Y146780D02*
D03*
Y126780D02*
D03*
Y206780D02*
D03*
X6386Y825502D02*
D03*
Y565503D02*
D03*
X156323Y843614D02*
D03*
X136323D02*
D03*
X790856Y6379D02*
D03*
X86323Y843614D02*
D03*
X6386Y765502D02*
D03*
X290857Y6379D02*
D03*
X6386Y185503D02*
D03*
Y275503D02*
D03*
X436322Y843614D02*
D03*
X576322D02*
D03*
X820856Y6379D02*
D03*
X286322Y843614D02*
D03*
X843620Y356780D02*
D03*
X550857Y6379D02*
D03*
X843620Y576779D02*
D03*
X746321Y843614D02*
D03*
X546322D02*
D03*
X843620Y196780D02*
D03*
X370857Y6379D02*
D03*
X426322Y843614D02*
D03*
X6386Y785502D02*
D03*
Y745502D02*
D03*
X676322Y843614D02*
D03*
X306322D02*
D03*
X276322D02*
D03*
X186322D02*
D03*
X106323D02*
D03*
X6386Y575502D02*
D03*
X843620Y646779D02*
D03*
Y776779D02*
D03*
X330857Y6379D02*
D03*
X843620Y226780D02*
D03*
Y346780D02*
D03*
Y746779D02*
D03*
X616322Y843614D02*
D03*
X376322D02*
D03*
X796321D02*
D03*
X346322D02*
D03*
X176323D02*
D03*
X70858Y6379D02*
D03*
X6386Y615502D02*
D03*
X266322Y843614D02*
D03*
X340857Y6379D02*
D03*
X843620Y246780D02*
D03*
Y736779D02*
D03*
X110858Y6379D02*
D03*
X6386Y95503D02*
D03*
X843620Y436780D02*
D03*
X656322Y843614D02*
D03*
X480857Y6379D02*
D03*
X843620Y456780D02*
D03*
X296322Y843614D02*
D03*
X760856Y6379D02*
D03*
X510857D02*
D03*
X843620Y626779D02*
D03*
Y756779D02*
D03*
X80858Y6379D02*
D03*
X696321Y843614D02*
D03*
X46323D02*
D03*
X6386Y175503D02*
D03*
X350857Y6379D02*
D03*
X843620Y466780D02*
D03*
X776321Y843614D02*
D03*
X420857Y6379D02*
D03*
X843620Y336780D02*
D03*
X6386Y485503D02*
D03*
X843620Y166780D02*
D03*
X6386Y85503D02*
D03*
X336322Y843614D02*
D03*
X6386Y695502D02*
D03*
Y755502D02*
D03*
X486322Y843614D02*
D03*
X6386Y705502D02*
D03*
X200858Y6379D02*
D03*
X500857D02*
D03*
X6386Y585502D02*
D03*
X50858Y6379D02*
D03*
X620857D02*
D03*
X843620Y296780D02*
D03*
Y116780D02*
D03*
Y796779D02*
D03*
Y506780D02*
D03*
X726321Y843614D02*
D03*
X456322D02*
D03*
X843620Y816779D02*
D03*
Y596779D02*
D03*
X786321Y843614D02*
D03*
X636322D02*
D03*
X6386Y45504D02*
D03*
X466322Y843614D02*
D03*
X843620Y46780D02*
D03*
X490857Y6379D02*
D03*
X6386Y265503D02*
D03*
Y15504D02*
D03*
X843620Y516780D02*
D03*
X566322Y843614D02*
D03*
X166323D02*
D03*
X6386Y605502D02*
D03*
X180858Y6379D02*
D03*
X6386Y155503D02*
D03*
Y105503D02*
D03*
X843620Y36780D02*
D03*
X236322Y843614D02*
D03*
X6386Y395503D02*
D03*
Y725502D02*
D03*
Y515503D02*
D03*
Y805502D02*
D03*
Y75503D02*
D03*
X646322Y843614D02*
D03*
X6386Y135503D02*
D03*
Y145503D02*
D03*
X640857Y6379D02*
D03*
X843620Y26781D02*
D03*
X360857Y6379D02*
D03*
X6386Y445503D02*
D03*
X843620Y106780D02*
D03*
X406322Y843614D02*
D03*
X256322D02*
D03*
X6386Y365503D02*
D03*
X190858Y6379D02*
D03*
X666322Y843614D02*
D03*
X6386Y295503D02*
D03*
X843620Y396780D02*
D03*
X6386Y345503D02*
D03*
X843620Y536779D02*
D03*
X60858Y6379D02*
D03*
X843620Y666779D02*
D03*
X570857Y6379D02*
D03*
X766321Y843614D02*
D03*
X56323D02*
D03*
X6386Y505503D02*
D03*
X530857Y6379D02*
D03*
X6386Y65504D02*
D03*
X270857Y6379D02*
D03*
X196322Y843614D02*
D03*
X76323D02*
D03*
X843620Y256780D02*
D03*
X6386Y495503D02*
D03*
X843620Y286780D02*
D03*
Y326780D02*
D03*
Y376780D02*
D03*
Y446780D02*
D03*
X626322Y843614D02*
D03*
X300857Y6379D02*
D03*
X6386Y55504D02*
D03*
X690857Y6379D02*
D03*
X843620Y56780D02*
D03*
Y546779D02*
D03*
Y606779D02*
D03*
X520857Y6379D02*
D03*
X750856D02*
D03*
X840824Y7179D02*
D03*
X843620Y826779D02*
D03*
X6386Y315503D02*
D03*
X800856Y6379D02*
D03*
X706321Y843614D02*
D03*
X40858Y6379D02*
D03*
X446322Y843614D02*
D03*
X843620Y696779D02*
D03*
X410857Y6379D02*
D03*
X206322Y843614D02*
D03*
X10860Y6560D02*
D03*
X843620Y656779D02*
D03*
Y716779D02*
D03*
X680857Y6379D02*
D03*
X6386Y555503D02*
D03*
X580857Y6379D02*
D03*
X843620Y676779D02*
D03*
X826321Y843614D02*
D03*
X843620Y76780D02*
D03*
Y836779D02*
D03*
X36323Y843614D02*
D03*
X843620Y136780D02*
D03*
X6386Y285503D02*
D03*
X146323Y843614D02*
D03*
X6386Y685502D02*
D03*
X226322Y843614D02*
D03*
X310857Y6379D02*
D03*
X843620Y96780D02*
D03*
Y766779D02*
D03*
X476322Y843614D02*
D03*
X810856Y6379D02*
D03*
X843620Y636779D02*
D03*
X120858Y6379D02*
D03*
X116323Y843614D02*
D03*
X756321D02*
D03*
X6386Y325503D02*
D03*
X90858Y6379D02*
D03*
X6386Y25503D02*
D03*
X220858Y6379D02*
D03*
X843620Y386780D02*
D03*
X516322Y843614D02*
D03*
X140858Y6379D02*
D03*
X6386Y655502D02*
D03*
Y115503D02*
D03*
Y375503D02*
D03*
Y215503D02*
D03*
Y475503D02*
D03*
X843620Y236780D02*
D03*
X596322Y843614D02*
D03*
X6386Y245503D02*
D03*
Y235503D02*
D03*
Y415503D02*
D03*
Y675502D02*
D03*
Y205503D02*
D03*
Y195503D02*
D03*
X130858Y6379D02*
D03*
X710856D02*
D03*
X720856D02*
D03*
X843620Y486780D02*
D03*
Y496780D02*
D03*
D134*
X175134Y291299D02*
D03*
D140*
X214379Y445767D02*
D03*
D141*
X195355Y458267D02*
D03*
Y453267D02*
D03*
Y448267D02*
D03*
Y443267D02*
D03*
Y438267D02*
D03*
Y433267D02*
D03*
X233403D02*
D03*
Y438267D02*
D03*
Y443267D02*
D03*
Y448267D02*
D03*
Y453267D02*
D03*
Y458267D02*
D03*
D142*
X201879Y426743D02*
D03*
X206879D02*
D03*
X211879D02*
D03*
X216879D02*
D03*
X221879D02*
D03*
X226879D02*
D03*
Y464791D02*
D03*
X221879D02*
D03*
X216879D02*
D03*
X211879D02*
D03*
X206879D02*
D03*
X201879D02*
D03*
D145*
X585003Y35997D02*
D03*
Y83997D02*
D03*
X565003Y35997D02*
D03*
Y83997D02*
D03*
X545003Y35997D02*
D03*
Y83997D02*
D03*
X525003Y35997D02*
D03*
Y83997D02*
D03*
X505003Y35997D02*
D03*
Y83997D02*
D03*
X485003Y35997D02*
D03*
Y83997D02*
D03*
X465003Y35997D02*
D03*
Y83997D02*
D03*
X445003Y35997D02*
D03*
Y83997D02*
D03*
X425003Y35997D02*
D03*
Y83997D02*
D03*
X405003Y35997D02*
D03*
Y83997D02*
D03*
X385003Y35997D02*
D03*
Y83997D02*
D03*
X365003Y35997D02*
D03*
Y83997D02*
D03*
X345003Y35997D02*
D03*
Y83997D02*
D03*
X325003Y35997D02*
D03*
Y83997D02*
D03*
X305003Y35997D02*
D03*
Y83997D02*
D03*
X285003Y35997D02*
D03*
Y83997D02*
D03*
X265003Y35997D02*
D03*
Y83997D02*
D03*
D146*
X796906Y243634D02*
D03*
X813906D02*
D03*
X797179Y284481D02*
D03*
X814179D02*
D03*
X797142Y323457D02*
D03*
X814142D02*
D03*
X814179Y363475D02*
D03*
X797179D02*
D03*
X797142Y403425D02*
D03*
X814142D02*
D03*
X797142Y443409D02*
D03*
X814142D02*
D03*
D147*
X146881Y272555D02*
D03*
Y285255D02*
D03*
Y297955D02*
D03*
Y310655D02*
D03*
X203381Y272555D02*
D03*
Y285255D02*
D03*
Y297955D02*
D03*
Y310655D02*
D03*
D148*
X93003Y253977D02*
D03*
Y287017D02*
D03*
D149*
X118003Y254997D02*
D03*
Y285997D02*
D03*
D150*
X88493Y232996D02*
D03*
X121513D02*
D03*
D151*
X275425Y297034D02*
D03*
Y313034D02*
D03*
M02*
