G04*
G04 #@! TF.GenerationSoftware,Altium Limited,Altium Designer,24.1.2 (44)*
G04*
G04 Layer_Color=8388736*
%FSLAX44Y44*%
%MOMM*%
G71*
G04*
G04 #@! TF.SameCoordinates,594C4E7E-5880-4872-9B90-1EBF5E6123A4*
G04*
G04*
G04 #@! TF.FilePolarity,Negative*
G04*
G01*
G75*
%ADD20C,0.3810*%
%ADD33R,1.8000X1.4000*%
%ADD34R,1.4000X1.8000*%
%ADD35R,1.8000X1.8000*%
%ADD36R,1.8000X1.8000*%
%ADD40R,0.2500X0.6500*%
%ADD41R,0.6500X0.3000*%
%ADD42R,0.7000X1.0000*%
%ADD43R,0.6500X0.2500*%
%ADD44R,0.6500X0.2286*%
%ADD48R,1.5494X0.6604*%
%ADD49R,0.9500X0.9000*%
%ADD54R,0.8128X1.0922*%
%ADD55R,0.9000X0.9500*%
%ADD69R,0.3300X1.3500*%
%ADD70R,1.3500X0.3300*%
%ADD77R,1.0000X1.0000*%
%ADD78R,1.2000X2.7000*%
%ADD79R,2.2508X1.6133*%
%ADD80C,0.7112*%
G04:AMPARAMS|DCode=81|XSize=2.1632mm|YSize=0.7732mm|CornerRadius=0.2413mm|HoleSize=0mm|Usage=FLASHONLY|Rotation=270.000|XOffset=0mm|YOffset=0mm|HoleType=Round|Shape=RoundedRectangle|*
%AMROUNDEDRECTD81*
21,1,2.1632,0.2907,0,0,270.0*
21,1,1.6807,0.7732,0,0,270.0*
1,1,0.4825,-0.1454,-0.8404*
1,1,0.4825,-0.1454,0.8404*
1,1,0.4825,0.1454,0.8404*
1,1,0.4825,0.1454,-0.8404*
%
%ADD81ROUNDEDRECTD81*%
%ADD82O,0.8032X2.0032*%
%ADD83R,3.4036X2.7178*%
%ADD84R,1.2032X1.7032*%
%ADD85R,1.0032X1.1032*%
%ADD86O,1.6532X0.5532*%
%ADD87R,1.3532X1.5032*%
%ADD88R,0.6532X0.8032*%
%ADD89R,0.7032X0.6532*%
%ADD90R,1.1532X1.1032*%
%ADD91R,1.1032X1.0032*%
%ADD92R,0.8032X0.6532*%
%ADD93R,1.2000X1.3000*%
%ADD94R,2.0032X0.9032*%
%ADD95R,1.1032X1.1532*%
G04:AMPARAMS|DCode=96|XSize=2.3632mm|YSize=0.9232mm|CornerRadius=0.2816mm|HoleSize=0mm|Usage=FLASHONLY|Rotation=90.000|XOffset=0mm|YOffset=0mm|HoleType=Round|Shape=RoundedRectangle|*
%AMROUNDEDRECTD96*
21,1,2.3632,0.3600,0,0,90.0*
21,1,1.8000,0.9232,0,0,90.0*
1,1,0.5632,0.1800,0.9000*
1,1,0.5632,0.1800,-0.9000*
1,1,0.5632,-0.1800,-0.9000*
1,1,0.5632,-0.1800,0.9000*
%
%ADD96ROUNDEDRECTD96*%
G04:AMPARAMS|DCode=97|XSize=3.4032mm|YSize=2.6032mm|CornerRadius=0.1496mm|HoleSize=0mm|Usage=FLASHONLY|Rotation=270.000|XOffset=0mm|YOffset=0mm|HoleType=Round|Shape=RoundedRectangle|*
%AMROUNDEDRECTD97*
21,1,3.4032,2.3040,0,0,270.0*
21,1,3.1040,2.6032,0,0,270.0*
1,1,0.2992,-1.1520,-1.5520*
1,1,0.2992,-1.1520,1.5520*
1,1,0.2992,1.1520,1.5520*
1,1,0.2992,1.1520,-1.5520*
%
%ADD97ROUNDEDRECTD97*%
G04:AMPARAMS|DCode=98|XSize=0.9032mm|YSize=2.6032mm|CornerRadius=0.1506mm|HoleSize=0mm|Usage=FLASHONLY|Rotation=270.000|XOffset=0mm|YOffset=0mm|HoleType=Round|Shape=RoundedRectangle|*
%AMROUNDEDRECTD98*
21,1,0.9032,2.3020,0,0,270.0*
21,1,0.6020,2.6032,0,0,270.0*
1,1,0.3012,-1.1510,-0.3010*
1,1,0.3012,-1.1510,0.3010*
1,1,0.3012,1.1510,0.3010*
1,1,0.3012,1.1510,-0.3010*
%
%ADD98ROUNDEDRECTD98*%
%ADD99R,1.7016X1.1016*%
%ADD100R,0.4016X0.5516*%
%ADD101R,0.8032X1.2032*%
%ADD102R,0.8032X1.1032*%
%ADD103R,2.6032X0.5032*%
%ADD104R,0.5032X0.8532*%
%ADD105R,0.8532X0.4532*%
%ADD106R,0.4532X0.8532*%
%ADD107R,0.5032X2.6032*%
%ADD108R,0.8532X0.5032*%
%ADD109R,1.1016X1.7016*%
%ADD110R,0.5516X0.4016*%
%ADD111R,1.3000X1.2000*%
%ADD112R,1.0032X1.4032*%
G04:AMPARAMS|DCode=113|XSize=1.6032mm|YSize=1.4032mm|CornerRadius=0mm|HoleSize=0mm|Usage=FLASHONLY|Rotation=45.000|XOffset=0mm|YOffset=0mm|HoleType=Round|Shape=Rectangle|*
%AMROTATEDRECTD113*
4,1,4,-0.0707,-1.0629,-1.0629,-0.0707,0.0707,1.0629,1.0629,0.0707,-0.0707,-1.0629,0.0*
%
%ADD113ROTATEDRECTD113*%

G04:AMPARAMS|DCode=114|XSize=0.6532mm|YSize=0.8032mm|CornerRadius=0mm|HoleSize=0mm|Usage=FLASHONLY|Rotation=315.000|XOffset=0mm|YOffset=0mm|HoleType=Round|Shape=Rectangle|*
%AMROTATEDRECTD114*
4,1,4,-0.5149,-0.0530,0.0530,0.5149,0.5149,0.0530,-0.0530,-0.5149,-0.5149,-0.0530,0.0*
%
%ADD114ROTATEDRECTD114*%

G04:AMPARAMS|DCode=115|XSize=0.6532mm|YSize=0.8032mm|CornerRadius=0mm|HoleSize=0mm|Usage=FLASHONLY|Rotation=225.000|XOffset=0mm|YOffset=0mm|HoleType=Round|Shape=Rectangle|*
%AMROTATEDRECTD115*
4,1,4,-0.0530,0.5149,0.5149,-0.0530,0.0530,-0.5149,-0.5149,0.0530,-0.0530,0.5149,0.0*
%
%ADD115ROTATEDRECTD115*%

%ADD116R,1.7032X1.2032*%
%ADD117R,4.4032X2.2032*%
%ADD118R,1.8542X1.4732*%
%ADD119C,1.6612*%
%ADD120C,1.1532*%
%ADD121C,1.2032*%
%ADD122C,6.5532*%
%ADD123R,1.0024X1.0024*%
%ADD124C,1.0024*%
%ADD125R,1.8032X1.8032*%
%ADD126C,1.8032*%
G36*
X788000Y91749D02*
Y109749D01*
X810670D01*
X810700Y109719D01*
X810740Y109689D01*
X810780Y109659D01*
X810820Y109629D01*
X810870Y109609D01*
X810910Y109579D01*
X810950Y109549D01*
X810990Y109519D01*
X811040Y109499D01*
X811080Y109469D01*
X811120Y109439D01*
X811170Y109419D01*
X811210Y109399D01*
X811260Y109369D01*
X811300Y109349D01*
X811350Y109329D01*
X811400Y109309D01*
X811440Y109279D01*
X811490Y109259D01*
X811540Y109239D01*
X811580Y109219D01*
X811630Y109209D01*
X811680Y109189D01*
X811730Y109169D01*
X811770Y109149D01*
X811820Y109139D01*
X811870Y109119D01*
X811920Y109109D01*
X811970Y109089D01*
X812000Y109079D01*
Y91749D01*
X788000D01*
D02*
G37*
G36*
X811970Y174909D02*
X811920Y174889D01*
X811870Y174879D01*
X811820Y174859D01*
X811770Y174849D01*
X811730Y174829D01*
X811680Y174809D01*
X811630Y174789D01*
X811580Y174779D01*
X811540Y174759D01*
X811490Y174739D01*
X811440Y174719D01*
X811400Y174689D01*
X811350Y174669D01*
X811300Y174649D01*
X811260Y174629D01*
X811210Y174599D01*
X811170Y174579D01*
X811120Y174559D01*
X811080Y174529D01*
X811040Y174499D01*
X810990Y174479D01*
X810950Y174449D01*
X810910Y174419D01*
X810870Y174389D01*
X810820Y174369D01*
X810780Y174339D01*
X810740Y174309D01*
X810700Y174279D01*
X810670Y174249D01*
X788000D01*
Y192249D01*
X812000D01*
Y174919D01*
X811970Y174909D01*
D02*
G37*
G36*
X788000Y202254D02*
Y220254D01*
X810670D01*
X810700Y220224D01*
X810740Y220194D01*
X810780Y220164D01*
X810820Y220134D01*
X810870Y220114D01*
X810910Y220084D01*
X810950Y220054D01*
X810990Y220024D01*
X811040Y220004D01*
X811080Y219974D01*
X811120Y219944D01*
X811170Y219924D01*
X811210Y219904D01*
X811260Y219874D01*
X811300Y219854D01*
X811350Y219834D01*
X811400Y219814D01*
X811440Y219784D01*
X811490Y219764D01*
X811540Y219744D01*
X811580Y219724D01*
X811630Y219714D01*
X811680Y219694D01*
X811730Y219674D01*
X811770Y219654D01*
X811820Y219644D01*
X811870Y219624D01*
X811920Y219614D01*
X811970Y219594D01*
X812000Y219584D01*
Y202254D01*
X788000D01*
D02*
G37*
G36*
X811970Y335414D02*
X811920Y335394D01*
X811870Y335384D01*
X811820Y335364D01*
X811770Y335354D01*
X811730Y335334D01*
X811680Y335314D01*
X811630Y335294D01*
X811580Y335284D01*
X811540Y335264D01*
X811490Y335244D01*
X811440Y335224D01*
X811400Y335194D01*
X811350Y335174D01*
X811300Y335154D01*
X811260Y335134D01*
X811210Y335104D01*
X811170Y335084D01*
X811120Y335064D01*
X811080Y335034D01*
X811040Y335004D01*
X810990Y334984D01*
X810950Y334954D01*
X810910Y334924D01*
X810870Y334894D01*
X810820Y334874D01*
X810780Y334844D01*
X810740Y334814D01*
X810700Y334784D01*
X810670Y334754D01*
X788000D01*
Y352754D01*
X812000D01*
Y335424D01*
X811970Y335414D01*
D02*
G37*
D20*
X27811Y565187D02*
G03*
X27811Y565187I-3000J0D01*
G01*
X27590Y269772D02*
G03*
X27590Y269772I-3000J0D01*
G01*
X39406Y411625D02*
G03*
X42370Y414624I-36J3000D01*
G01*
D02*
G03*
X39406Y411625I-3000J0D01*
G01*
X28478Y431676D02*
G03*
X28478Y431676I-3000J0D01*
G01*
D33*
X566674Y368300D02*
D03*
Y342300D02*
D03*
X473834Y368205D02*
D03*
Y342205D02*
D03*
D34*
X788742Y719697D02*
D03*
X814742D02*
D03*
X66856Y707070D02*
D03*
X40856D02*
D03*
X664690Y302361D02*
D03*
X638690D02*
D03*
X664690Y198965D02*
D03*
X638690D02*
D03*
X788742Y626990D02*
D03*
X814742D02*
D03*
X65586Y617221D02*
D03*
X39586D02*
D03*
D35*
X537469Y370300D02*
D03*
Y330300D02*
D03*
D36*
X786742Y690491D02*
D03*
X826742D02*
D03*
X68816Y678053D02*
D03*
X28816D02*
D03*
D40*
X363158Y627413D02*
D03*
Y599213D02*
D03*
X368158D02*
D03*
X373158D02*
D03*
X378158D02*
D03*
X368158Y627413D02*
D03*
X373158D02*
D03*
X378158D02*
D03*
X221440Y627408D02*
D03*
Y599208D02*
D03*
X226440D02*
D03*
X231440D02*
D03*
X236440D02*
D03*
X226440Y627408D02*
D03*
X231440D02*
D03*
X236440D02*
D03*
X292296D02*
D03*
Y599208D02*
D03*
X297296D02*
D03*
X302296D02*
D03*
X307296D02*
D03*
X297296Y627408D02*
D03*
X302296D02*
D03*
X307296D02*
D03*
X150666D02*
D03*
Y599208D02*
D03*
X155666D02*
D03*
X160666D02*
D03*
X165666D02*
D03*
X155666Y627408D02*
D03*
X160666D02*
D03*
X165666D02*
D03*
D41*
X365909Y606810D02*
D03*
X375408D02*
D03*
X224191Y606806D02*
D03*
X233690D02*
D03*
X295046D02*
D03*
X304546D02*
D03*
X153416D02*
D03*
X162916D02*
D03*
D42*
X366158Y616313D02*
D03*
X375158D02*
D03*
X224440Y616308D02*
D03*
X233440D02*
D03*
X295296D02*
D03*
X304296D02*
D03*
X153666D02*
D03*
X162666D02*
D03*
D43*
X356408Y603313D02*
D03*
Y608313D02*
D03*
Y618313D02*
D03*
Y623313D02*
D03*
X384908D02*
D03*
Y618313D02*
D03*
Y613313D02*
D03*
Y608313D02*
D03*
Y603313D02*
D03*
X214690Y603308D02*
D03*
Y608308D02*
D03*
Y618308D02*
D03*
Y623308D02*
D03*
X243190D02*
D03*
Y618308D02*
D03*
Y613308D02*
D03*
Y608308D02*
D03*
Y603308D02*
D03*
X285546D02*
D03*
Y608308D02*
D03*
Y618308D02*
D03*
Y623308D02*
D03*
X314046D02*
D03*
Y618308D02*
D03*
Y613308D02*
D03*
Y608308D02*
D03*
Y603308D02*
D03*
X143916D02*
D03*
Y608308D02*
D03*
Y618308D02*
D03*
Y623308D02*
D03*
X172416D02*
D03*
Y618308D02*
D03*
Y613308D02*
D03*
Y608308D02*
D03*
Y603308D02*
D03*
D44*
X356408Y613313D02*
D03*
X214690Y613308D02*
D03*
X285546D02*
D03*
X143916D02*
D03*
D48*
X59210Y197848D02*
D03*
Y207848D02*
D03*
Y227848D02*
D03*
Y217848D02*
D03*
X59075Y117153D02*
D03*
Y127153D02*
D03*
Y147153D02*
D03*
Y137153D02*
D03*
D49*
X82751Y214222D02*
D03*
X82616Y133527D02*
D03*
X640438Y404299D02*
D03*
X720712Y404029D02*
D03*
Y474387D02*
D03*
D54*
X276925Y31978D02*
D03*
X289625D02*
D03*
X302325D02*
D03*
X315025D02*
D03*
X327725D02*
D03*
X340425D02*
D03*
X276925Y86978D02*
D03*
X289625D02*
D03*
X302325D02*
D03*
X315025D02*
D03*
X327725D02*
D03*
X340425D02*
D03*
D55*
X219500Y73606D02*
D03*
X440370Y95050D02*
D03*
X480500D02*
D03*
X219500Y25092D02*
D03*
X594216Y480534D02*
D03*
X554505D02*
D03*
X514795D02*
D03*
X475084Y479396D02*
D03*
D69*
X260483Y485169D02*
D03*
X265483D02*
D03*
X270483D02*
D03*
X275483D02*
D03*
X280483D02*
D03*
X285483D02*
D03*
X290483D02*
D03*
X295483D02*
D03*
X300483D02*
D03*
X305483D02*
D03*
X310483D02*
D03*
X315483D02*
D03*
X320483D02*
D03*
X325483D02*
D03*
X330483D02*
D03*
X335483D02*
D03*
X340483D02*
D03*
X345483D02*
D03*
X300483Y330169D02*
D03*
X295483D02*
D03*
X290483Y330169D02*
D03*
X285483D02*
D03*
X280483Y330169D02*
D03*
X275483D02*
D03*
X270483D02*
D03*
X265483D02*
D03*
X260483D02*
D03*
X255483Y330169D02*
D03*
X250483Y330169D02*
D03*
X245483D02*
D03*
X240483D02*
D03*
Y485169D02*
D03*
X245483D02*
D03*
X250483D02*
D03*
X255483D02*
D03*
X360483Y330169D02*
D03*
X355483D02*
D03*
X350483D02*
D03*
X345483D02*
D03*
X340483D02*
D03*
X335483D02*
D03*
X330483D02*
D03*
X325483D02*
D03*
X320483Y330169D02*
D03*
X315483Y330169D02*
D03*
X310483D02*
D03*
X305483D02*
D03*
X350483Y485169D02*
D03*
X355483D02*
D03*
X360483D02*
D03*
D70*
X222983Y347669D02*
D03*
Y352669D02*
D03*
Y357669D02*
D03*
Y362669D02*
D03*
Y367669D02*
D03*
Y372669D02*
D03*
Y377669D02*
D03*
Y382669D02*
D03*
X377983Y382669D02*
D03*
Y377669D02*
D03*
Y372669D02*
D03*
Y367669D02*
D03*
Y362669D02*
D03*
Y357669D02*
D03*
Y352669D02*
D03*
Y347669D02*
D03*
X222983Y387669D02*
D03*
Y392669D02*
D03*
Y397669D02*
D03*
Y402669D02*
D03*
Y407669D02*
D03*
Y412669D02*
D03*
Y417669D02*
D03*
Y422669D02*
D03*
Y427669D02*
D03*
Y432669D02*
D03*
Y437669D02*
D03*
Y442669D02*
D03*
Y447669D02*
D03*
Y452669D02*
D03*
Y457669D02*
D03*
Y462669D02*
D03*
Y467669D02*
D03*
X377983D02*
D03*
Y462669D02*
D03*
Y457669D02*
D03*
X377983Y452669D02*
D03*
X377983Y447669D02*
D03*
Y442669D02*
D03*
Y437669D02*
D03*
Y432669D02*
D03*
Y427669D02*
D03*
X377983Y422669D02*
D03*
Y417669D02*
D03*
X377983Y412669D02*
D03*
Y407669D02*
D03*
Y402669D02*
D03*
Y397669D02*
D03*
Y392669D02*
D03*
X377983Y387669D02*
D03*
D77*
X24718Y581847D02*
D03*
X25398Y448988D02*
D03*
X54483Y414798D02*
D03*
X12727Y269620D02*
D03*
D78*
X365526Y83976D02*
D03*
Y34976D02*
D03*
X252126D02*
D03*
Y83976D02*
D03*
D79*
X33315Y104035D02*
D03*
Y160035D02*
D03*
X33450Y184731D02*
D03*
Y240731D02*
D03*
D80*
X2517Y12098D02*
G03*
X5386Y5173I9794J0D01*
G01*
D02*
G03*
X11795Y2518I6409J6409D01*
G01*
X838080D02*
G03*
X844685Y5254I0J9341D01*
G01*
D02*
G03*
X847542Y12153I-6899J6899D01*
G01*
Y837706D02*
G03*
X844550Y844930I-10216J0D01*
G01*
D02*
G03*
X838430Y847465I-6120J-6120D01*
G01*
X12537Y847459D02*
G03*
X4888Y844291I0J-10818D01*
G01*
D02*
G03*
X2517Y838567I5723J-5723D01*
G01*
X847542Y12153D02*
Y837706D01*
X847090Y12605D02*
Y23622D01*
X2517Y834390D02*
X2517Y12098D01*
X2545Y714060D02*
Y834362D01*
Y714060D02*
Y834362D01*
X11795Y2518D02*
X838080D01*
X11817Y2540D02*
X22098D01*
X12537Y847459D02*
X64411D01*
X64417Y847465D02*
X838430D01*
X847090Y12605D02*
X847542Y12153D01*
X847090Y12605D02*
X847542Y12153D01*
X11795Y2518D02*
X11817Y2540D01*
X2517Y834390D02*
X2545Y834362D01*
X2517Y834390D02*
X2545Y834362D01*
X64411Y847459D02*
X64417Y847465D01*
X2517Y834390D02*
Y838567D01*
D81*
X406525Y155652D02*
D03*
X419225D02*
D03*
X431925D02*
D03*
X444624D02*
D03*
Y205052D02*
D03*
X431925D02*
D03*
X419225D02*
D03*
X406525D02*
D03*
X532839D02*
D03*
X520139D02*
D03*
X507439D02*
D03*
X494739D02*
D03*
Y155652D02*
D03*
X507439D02*
D03*
X520139D02*
D03*
X532839D02*
D03*
D82*
X662380Y532331D02*
D03*
X675080D02*
D03*
X687780D02*
D03*
X700480D02*
D03*
X662380Y588831D02*
D03*
X675080D02*
D03*
X687780D02*
D03*
X700480D02*
D03*
X581862Y532584D02*
D03*
X594562D02*
D03*
X607262D02*
D03*
X619962D02*
D03*
X581862Y589085D02*
D03*
X594562D02*
D03*
X607262D02*
D03*
X619962D02*
D03*
X501542Y532331D02*
D03*
X514242D02*
D03*
X526942D02*
D03*
X539642D02*
D03*
X501542Y588831D02*
D03*
X514242D02*
D03*
X526942D02*
D03*
X539642D02*
D03*
X421194Y532078D02*
D03*
X433894D02*
D03*
X446594D02*
D03*
X459294D02*
D03*
X421194Y588578D02*
D03*
X433894D02*
D03*
X446594D02*
D03*
X459294D02*
D03*
X38100Y469844D02*
D03*
X50800D02*
D03*
X63500D02*
D03*
X76200D02*
D03*
X38100Y526344D02*
D03*
X50800D02*
D03*
X63500D02*
D03*
X76200D02*
D03*
X76152Y364440D02*
D03*
X63452D02*
D03*
X50752D02*
D03*
X38052D02*
D03*
X76152Y307940D02*
D03*
X63452D02*
D03*
X50752D02*
D03*
X38052D02*
D03*
D83*
X681736Y560578D02*
D03*
X601218Y560831D02*
D03*
X520899Y560578D02*
D03*
X440550Y560325D02*
D03*
D84*
X529997Y701498D02*
D03*
Y726498D02*
D03*
X549998Y701498D02*
D03*
Y726498D02*
D03*
X569998Y701498D02*
D03*
Y726498D02*
D03*
X589997Y701498D02*
D03*
Y726498D02*
D03*
X609998Y701498D02*
D03*
Y726498D02*
D03*
X629997Y701498D02*
D03*
Y726498D02*
D03*
X649998Y701498D02*
D03*
Y726498D02*
D03*
X669998Y701498D02*
D03*
Y726498D02*
D03*
X179998Y701498D02*
D03*
Y726498D02*
D03*
X199998Y701498D02*
D03*
Y726498D02*
D03*
X219998Y701498D02*
D03*
Y726498D02*
D03*
X239998Y701498D02*
D03*
Y726498D02*
D03*
X259998Y701498D02*
D03*
Y726498D02*
D03*
X279998Y701498D02*
D03*
Y726498D02*
D03*
X299998Y701498D02*
D03*
Y726498D02*
D03*
X319998Y701498D02*
D03*
Y726498D02*
D03*
X580002Y123502D02*
D03*
Y148502D02*
D03*
X600002Y123502D02*
D03*
Y148502D02*
D03*
X620002Y123502D02*
D03*
Y148502D02*
D03*
X640002Y123502D02*
D03*
Y148502D02*
D03*
X660002Y123502D02*
D03*
Y148502D02*
D03*
X680002Y123502D02*
D03*
Y148502D02*
D03*
X700002Y123502D02*
D03*
Y148502D02*
D03*
D85*
X195370Y121305D02*
D03*
X213529Y121307D02*
D03*
X160238Y104979D02*
D03*
X142079Y104977D02*
D03*
X160617Y229109D02*
D03*
X142458Y229108D02*
D03*
X160238Y168655D02*
D03*
X142079Y168653D02*
D03*
X160238Y183642D02*
D03*
X142079Y183641D02*
D03*
X160617Y153494D02*
D03*
X142458Y153493D02*
D03*
X213529Y213510D02*
D03*
X195370Y213509D02*
D03*
Y199031D02*
D03*
X213529Y199032D02*
D03*
X195370Y135529D02*
D03*
X213529Y135531D02*
D03*
X160238Y243214D02*
D03*
X142079Y243213D02*
D03*
X103778Y199659D02*
D03*
X85620Y199658D02*
D03*
X103644Y118964D02*
D03*
X85485Y118963D02*
D03*
X450720Y135383D02*
D03*
X432561Y135382D02*
D03*
X306118Y132837D02*
D03*
X324277Y132839D02*
D03*
X399926Y135381D02*
D03*
X418085Y135382D02*
D03*
X285923Y132839D02*
D03*
X267764Y132837D02*
D03*
X104676Y684271D02*
D03*
X86517Y684270D02*
D03*
X700083Y437963D02*
D03*
X718242Y437964D02*
D03*
X749927Y636741D02*
D03*
X768086Y636742D02*
D03*
X749548Y651203D02*
D03*
X767707Y651204D02*
D03*
X749927Y622278D02*
D03*
X768086Y622280D02*
D03*
X749927Y665667D02*
D03*
X768086Y665668D02*
D03*
X767707Y680130D02*
D03*
X749548Y680128D02*
D03*
Y607814D02*
D03*
X767707Y607816D02*
D03*
X813838Y657468D02*
D03*
X831996Y657469D02*
D03*
X638582Y370670D02*
D03*
X620423Y370669D02*
D03*
X700083Y370399D02*
D03*
X718242Y370400D02*
D03*
X620423Y420453D02*
D03*
X638582Y420454D02*
D03*
X674620Y447313D02*
D03*
X656461Y447311D02*
D03*
X655699Y464820D02*
D03*
X673858Y464821D02*
D03*
X718242Y420184D02*
D03*
X700083Y420183D02*
D03*
X86517Y698714D02*
D03*
X104676Y698715D02*
D03*
Y669827D02*
D03*
X86517Y669826D02*
D03*
Y597607D02*
D03*
X104676Y597608D02*
D03*
X86138Y655381D02*
D03*
X104297Y655382D02*
D03*
X22482Y642619D02*
D03*
X40641Y642620D02*
D03*
X104676Y626496D02*
D03*
X86517Y626494D02*
D03*
X104297Y612051D02*
D03*
X86138Y612049D02*
D03*
Y640937D02*
D03*
X104297Y640938D02*
D03*
D86*
X121671Y138553D02*
D03*
Y132053D02*
D03*
Y125553D02*
D03*
Y119053D02*
D03*
X180171Y138553D02*
D03*
Y132053D02*
D03*
Y125553D02*
D03*
Y119053D02*
D03*
X121806Y216708D02*
D03*
Y210208D02*
D03*
Y203708D02*
D03*
Y197208D02*
D03*
X180306Y216708D02*
D03*
Y210208D02*
D03*
Y203708D02*
D03*
Y197208D02*
D03*
D87*
X696020Y609350D02*
D03*
X665020D02*
D03*
X615500D02*
D03*
X584500D02*
D03*
X535180D02*
D03*
X504180D02*
D03*
X454840D02*
D03*
X423840D02*
D03*
D88*
X558974Y669037D02*
D03*
X548973D02*
D03*
X558974Y679197D02*
D03*
X548973D02*
D03*
X629292Y669290D02*
D03*
X639293D02*
D03*
X629292Y679451D02*
D03*
X639293D02*
D03*
X108378Y186945D02*
D03*
X98377D02*
D03*
X89074D02*
D03*
X79073D02*
D03*
X108243Y106250D02*
D03*
X98242D02*
D03*
X88939D02*
D03*
X78938D02*
D03*
X638620Y215711D02*
D03*
X648621D02*
D03*
X656480Y215712D02*
D03*
X666480D02*
D03*
X279956Y302259D02*
D03*
X269955D02*
D03*
X270431Y292099D02*
D03*
X260430D02*
D03*
X279480Y312419D02*
D03*
X289481D02*
D03*
X186261Y431801D02*
D03*
X196262D02*
D03*
X196263Y440689D02*
D03*
X186262D02*
D03*
X810870Y668897D02*
D03*
X820871D02*
D03*
X811378Y643497D02*
D03*
X821379D02*
D03*
X293529Y679451D02*
D03*
X303530D02*
D03*
X287115Y679448D02*
D03*
X277114D02*
D03*
X395050Y453897D02*
D03*
X405051D02*
D03*
X405050Y462663D02*
D03*
X395049D02*
D03*
Y471423D02*
D03*
X405050D02*
D03*
X203883Y370839D02*
D03*
X193882D02*
D03*
X193881Y379731D02*
D03*
X203882D02*
D03*
X177032Y346716D02*
D03*
X187033D02*
D03*
X160190Y355973D02*
D03*
X170191D02*
D03*
X177023D02*
D03*
X187024D02*
D03*
X203956Y388359D02*
D03*
X193955D02*
D03*
X177023Y379729D02*
D03*
X187024D02*
D03*
X304880Y688339D02*
D03*
X314881D02*
D03*
X234871D02*
D03*
X224870D02*
D03*
X347805Y639065D02*
D03*
X357806D02*
D03*
X212332D02*
D03*
X222332D02*
D03*
X184992Y688339D02*
D03*
X194993D02*
D03*
X275511D02*
D03*
X265510D02*
D03*
X263572Y679451D02*
D03*
X253571D02*
D03*
X165864Y688645D02*
D03*
X175865D02*
D03*
X666480Y319344D02*
D03*
X656480D02*
D03*
X334344Y688339D02*
D03*
X344345D02*
D03*
X235538Y679448D02*
D03*
X245539D02*
D03*
X213853Y679451D02*
D03*
X223854D02*
D03*
X207185Y679448D02*
D03*
X197184D02*
D03*
X283188Y639065D02*
D03*
X293188D02*
D03*
X151558D02*
D03*
X141557D02*
D03*
X719811Y679197D02*
D03*
X709810D02*
D03*
X719811Y669037D02*
D03*
X709810D02*
D03*
X478626Y678944D02*
D03*
X468625D02*
D03*
X478626Y668784D02*
D03*
X468625D02*
D03*
X648621Y319343D02*
D03*
X638620D02*
D03*
X43100Y656591D02*
D03*
X33099D02*
D03*
X43608Y631191D02*
D03*
X33607D02*
D03*
D89*
X723956Y222885D02*
D03*
X746756D02*
D03*
X723956Y244631D02*
D03*
X746756D02*
D03*
X723956Y266376D02*
D03*
X746756D02*
D03*
X723956Y288122D02*
D03*
X746756D02*
D03*
X723956Y309867D02*
D03*
X746756D02*
D03*
X723956Y331613D02*
D03*
X746756D02*
D03*
D90*
X107751Y223722D02*
D03*
X82751Y233222D02*
D03*
X107616Y143027D02*
D03*
X82616Y152527D02*
D03*
X615438Y394799D02*
D03*
X640438Y385299D02*
D03*
X720712Y385029D02*
D03*
X695712Y394529D02*
D03*
Y464887D02*
D03*
X720712Y455387D02*
D03*
D91*
X521408Y241170D02*
D03*
X521409Y223011D02*
D03*
X719892Y558168D02*
D03*
X719891Y576327D02*
D03*
X719890Y547494D02*
D03*
X719891Y529335D02*
D03*
X767206Y715305D02*
D03*
X767207Y697146D02*
D03*
X750049D02*
D03*
X750047Y715305D02*
D03*
X99041Y64700D02*
D03*
X99040Y82859D02*
D03*
X119075Y64700D02*
D03*
X119074Y82859D02*
D03*
X139110Y64700D02*
D03*
X139109Y82859D02*
D03*
X159143D02*
D03*
X159144Y64700D02*
D03*
X755251D02*
D03*
X755250Y82859D02*
D03*
X433155Y223011D02*
D03*
X433153Y241170D02*
D03*
X447802Y223011D02*
D03*
X447801Y241170D02*
D03*
X506169Y223011D02*
D03*
X506167Y241170D02*
D03*
X350568Y241049D02*
D03*
X350569Y222891D02*
D03*
X364538Y241049D02*
D03*
X364539Y222891D02*
D03*
X403860Y223011D02*
D03*
X403859Y241170D02*
D03*
X418507Y223011D02*
D03*
X418506Y241170D02*
D03*
X242619Y222891D02*
D03*
X242618Y241049D02*
D03*
X272426D02*
D03*
X272427Y222891D02*
D03*
X287068Y241049D02*
D03*
X287069Y222891D02*
D03*
X302308Y241049D02*
D03*
X302309Y222891D02*
D03*
X317278Y241049D02*
D03*
X317279Y222891D02*
D03*
X257858Y241049D02*
D03*
X257859Y222891D02*
D03*
X495555Y465048D02*
D03*
X495557Y446889D02*
D03*
X515291Y465048D02*
D03*
X515292Y446889D02*
D03*
X535027Y465048D02*
D03*
X535028Y446889D02*
D03*
X554763Y465048D02*
D03*
X554764Y446889D02*
D03*
X574498Y465048D02*
D03*
X574500Y446889D02*
D03*
X594234Y465048D02*
D03*
X594235Y446889D02*
D03*
X556033Y389081D02*
D03*
X556031Y407240D02*
D03*
X541569D02*
D03*
X541570Y389081D02*
D03*
X512645Y388702D02*
D03*
X512644Y406861D02*
D03*
X483720Y388702D02*
D03*
X483718Y406861D02*
D03*
X498180Y407240D02*
D03*
X498181Y389081D02*
D03*
X469257Y388702D02*
D03*
X469256Y406861D02*
D03*
X527106Y407240D02*
D03*
X527107Y389081D02*
D03*
X454792Y407240D02*
D03*
X454793Y389081D02*
D03*
X194628Y472185D02*
D03*
X194627Y490344D02*
D03*
X176734Y472185D02*
D03*
X176732Y490344D02*
D03*
X158838D02*
D03*
X158839Y472185D02*
D03*
X105157Y471806D02*
D03*
X105156Y489965D02*
D03*
X123049Y490344D02*
D03*
X123050Y472185D02*
D03*
X140946Y471806D02*
D03*
X140945Y489965D02*
D03*
X379729Y536572D02*
D03*
X379730Y518413D02*
D03*
X363134Y536572D02*
D03*
X363135Y518413D02*
D03*
X273813Y516764D02*
D03*
X273812Y534923D02*
D03*
X287781Y535302D02*
D03*
X287782Y517143D02*
D03*
X475821Y446889D02*
D03*
X475820Y465048D02*
D03*
X456085Y446889D02*
D03*
X456084Y465048D02*
D03*
X105157Y518034D02*
D03*
X105156Y536193D02*
D03*
X39601Y431676D02*
D03*
X39600Y449835D02*
D03*
X54609Y450214D02*
D03*
X54610Y432055D02*
D03*
X79049Y450214D02*
D03*
X79050Y432055D02*
D03*
X39551Y403878D02*
D03*
X39552Y385719D02*
D03*
X54563Y385088D02*
D03*
X54562Y403247D02*
D03*
X79002Y403499D02*
D03*
X79003Y385340D02*
D03*
X79002Y270151D02*
D03*
X79001Y288310D02*
D03*
X54562Y270151D02*
D03*
X54561Y288310D02*
D03*
X39552Y287931D02*
D03*
X39553Y269772D02*
D03*
X79051Y547244D02*
D03*
X79050Y565403D02*
D03*
X54611Y546992D02*
D03*
X54610Y565151D02*
D03*
X39600Y547623D02*
D03*
X39599Y565782D02*
D03*
X176734Y518413D02*
D03*
X176732Y536572D02*
D03*
X194627Y536318D02*
D03*
X194628Y518159D02*
D03*
X329945Y536572D02*
D03*
X329946Y518413D02*
D03*
X346539Y536572D02*
D03*
X346541Y518413D02*
D03*
X158774Y270781D02*
D03*
X158773Y288940D02*
D03*
X174014Y270781D02*
D03*
X174013Y288940D02*
D03*
X148825Y305991D02*
D03*
X148824Y324150D02*
D03*
X133120Y305991D02*
D03*
X133118Y324150D02*
D03*
X119142Y305991D02*
D03*
X119141Y324150D02*
D03*
X504447Y324792D02*
D03*
X504445Y342951D02*
D03*
X768351Y541610D02*
D03*
X768350Y559769D02*
D03*
X639374Y558421D02*
D03*
X639373Y576580D02*
D03*
X559053Y547494D02*
D03*
X559054Y529335D02*
D03*
Y576327D02*
D03*
X559055Y558168D02*
D03*
X478704Y547241D02*
D03*
X478706Y529082D02*
D03*
Y576073D02*
D03*
X478707Y557915D02*
D03*
X639373Y529588D02*
D03*
X639372Y547747D02*
D03*
X158039Y518413D02*
D03*
X158038Y536572D02*
D03*
X122784Y518413D02*
D03*
X122782Y536572D02*
D03*
X140412Y518034D02*
D03*
X140411Y536193D02*
D03*
D92*
X24643Y532050D02*
D03*
Y522050D02*
D03*
X24589Y340841D02*
D03*
Y350842D02*
D03*
Y321537D02*
D03*
Y331538D02*
D03*
X24637Y512746D02*
D03*
Y502746D02*
D03*
Y493442D02*
D03*
Y483441D02*
D03*
X24595Y360146D02*
D03*
Y370146D02*
D03*
X24591Y379450D02*
D03*
Y389451D02*
D03*
X457198Y160864D02*
D03*
Y150863D02*
D03*
X481628Y160864D02*
D03*
Y150863D02*
D03*
X457201Y199724D02*
D03*
Y209725D02*
D03*
X481631Y199724D02*
D03*
Y209725D02*
D03*
X547163Y150863D02*
D03*
Y160864D02*
D03*
X547160Y209725D02*
D03*
Y199724D02*
D03*
X334822Y124927D02*
D03*
Y134928D02*
D03*
X346503D02*
D03*
Y124927D02*
D03*
X328978Y237036D02*
D03*
Y227035D02*
D03*
X338886Y227036D02*
D03*
Y237036D02*
D03*
X391921Y209725D02*
D03*
Y199724D02*
D03*
X391924Y150863D02*
D03*
Y160864D02*
D03*
X487086Y585042D02*
D03*
Y595043D02*
D03*
X478452Y584963D02*
D03*
Y594963D02*
D03*
X567435Y595296D02*
D03*
Y585295D02*
D03*
X558800Y595217D02*
D03*
Y585216D02*
D03*
X647754Y585549D02*
D03*
Y595549D02*
D03*
X639119Y585469D02*
D03*
Y595470D02*
D03*
X550165Y585296D02*
D03*
Y595297D02*
D03*
X728272Y585295D02*
D03*
Y595296D02*
D03*
X719637Y585216D02*
D03*
Y595217D02*
D03*
X630485Y595550D02*
D03*
Y585549D02*
D03*
X711003Y595297D02*
D03*
Y585296D02*
D03*
X469817Y595043D02*
D03*
Y585043D02*
D03*
X722377Y707054D02*
D03*
Y717055D02*
D03*
X732539Y707054D02*
D03*
Y717055D02*
D03*
X339494Y602140D02*
D03*
Y592139D02*
D03*
X348127D02*
D03*
Y602140D02*
D03*
X66800Y441963D02*
D03*
Y451964D02*
D03*
X66755Y383590D02*
D03*
Y393591D02*
D03*
X66752Y290060D02*
D03*
Y280059D02*
D03*
X24639Y541354D02*
D03*
Y551355D02*
D03*
X66803Y555495D02*
D03*
Y545494D02*
D03*
X111310Y283791D02*
D03*
Y293792D02*
D03*
Y264292D02*
D03*
Y274292D02*
D03*
X515874Y345410D02*
D03*
Y335409D02*
D03*
X490474Y345410D02*
D03*
Y335409D02*
D03*
X768603Y530478D02*
D03*
Y520477D02*
D03*
X373127Y304414D02*
D03*
Y314414D02*
D03*
X364361D02*
D03*
Y304414D02*
D03*
X355599Y314414D02*
D03*
Y304414D02*
D03*
X242317Y304625D02*
D03*
Y314626D02*
D03*
X251205D02*
D03*
Y304625D02*
D03*
X195010Y346157D02*
D03*
Y356158D02*
D03*
X243585Y511730D02*
D03*
Y501729D02*
D03*
X234697D02*
D03*
Y511730D02*
D03*
X127001Y629333D02*
D03*
Y619332D02*
D03*
X251370Y629333D02*
D03*
Y619332D02*
D03*
X206412Y629333D02*
D03*
Y619332D02*
D03*
X260006D02*
D03*
Y629333D02*
D03*
X197776Y619332D02*
D03*
Y629333D02*
D03*
X180595D02*
D03*
Y619332D02*
D03*
X135637Y629333D02*
D03*
Y619332D02*
D03*
X189231Y629333D02*
D03*
Y619332D02*
D03*
X251367Y602136D02*
D03*
Y592135D02*
D03*
X393085Y602140D02*
D03*
Y592139D02*
D03*
X401721Y602140D02*
D03*
Y592139D02*
D03*
X260003Y602136D02*
D03*
Y592135D02*
D03*
X322225Y629333D02*
D03*
Y619332D02*
D03*
X277267Y629333D02*
D03*
Y619332D02*
D03*
X127001Y592135D02*
D03*
Y602136D02*
D03*
X135634D02*
D03*
Y592135D02*
D03*
X268631D02*
D03*
Y602136D02*
D03*
X277264D02*
D03*
Y592135D02*
D03*
X330862Y629333D02*
D03*
Y619332D02*
D03*
X268631Y629333D02*
D03*
Y619332D02*
D03*
X322223Y602136D02*
D03*
Y592135D02*
D03*
X180592D02*
D03*
Y602136D02*
D03*
X330858D02*
D03*
Y592135D02*
D03*
X189228D02*
D03*
Y602136D02*
D03*
X393088Y629337D02*
D03*
Y619336D02*
D03*
X348130D02*
D03*
Y629337D02*
D03*
X197776Y602136D02*
D03*
Y592135D02*
D03*
X206409D02*
D03*
Y602136D02*
D03*
X401724Y629337D02*
D03*
Y619336D02*
D03*
X339494D02*
D03*
Y629337D02*
D03*
D93*
X119132Y49415D02*
D03*
Y32415D02*
D03*
X139167Y49415D02*
D03*
Y32415D02*
D03*
X159201Y49415D02*
D03*
Y32415D02*
D03*
X755308D02*
D03*
Y49415D02*
D03*
X99097D02*
D03*
Y32415D02*
D03*
D94*
X773000Y160749D02*
D03*
Y148249D02*
D03*
Y135749D02*
D03*
Y123249D02*
D03*
Y233754D02*
D03*
Y246254D02*
D03*
Y258754D02*
D03*
Y271254D02*
D03*
Y283754D02*
D03*
Y296254D02*
D03*
Y308754D02*
D03*
Y321254D02*
D03*
D95*
X210000Y98606D02*
D03*
X200500Y73606D02*
D03*
X459370Y95050D02*
D03*
X449870Y70050D02*
D03*
X490000D02*
D03*
X499500Y95050D02*
D03*
X210000Y50092D02*
D03*
X200500Y25092D02*
D03*
X584716Y505534D02*
D03*
X575216Y480534D02*
D03*
X535505D02*
D03*
X545005Y505534D02*
D03*
X495795Y480534D02*
D03*
X505295Y505534D02*
D03*
X456084Y479396D02*
D03*
X465584Y504396D02*
D03*
D96*
X346705Y204406D02*
D03*
X334005D02*
D03*
X321305D02*
D03*
X308605D02*
D03*
X295905D02*
D03*
X283205D02*
D03*
X270505D02*
D03*
X257805D02*
D03*
Y155906D02*
D03*
X270505D02*
D03*
X283205D02*
D03*
X295905D02*
D03*
X308605D02*
D03*
X321305D02*
D03*
X334005D02*
D03*
X346705D02*
D03*
D97*
X622057Y255667D02*
D03*
D98*
X682557Y281067D02*
D03*
Y268367D02*
D03*
Y255667D02*
D03*
Y242967D02*
D03*
Y230267D02*
D03*
D99*
X448863Y357841D02*
D03*
D100*
X442363Y367591D02*
D03*
X448863D02*
D03*
X455363D02*
D03*
Y348091D02*
D03*
X448863D02*
D03*
X442363D02*
D03*
D101*
X133620Y291042D02*
D03*
X124120Y267042D02*
D03*
X133620D02*
D03*
X143120D02*
D03*
X124120Y291042D02*
D03*
X143120D02*
D03*
D102*
X167578Y367946D02*
D03*
X183578D02*
D03*
D103*
X501957Y368119D02*
D03*
X501968Y363118D02*
D03*
D104*
X508957Y356378D02*
D03*
X494957Y374877D02*
D03*
Y356378D02*
D03*
X508957Y374848D02*
D03*
D105*
X493207Y372877D02*
D03*
Y358378D02*
D03*
X510707Y358378D02*
D03*
Y372848D02*
D03*
X800411Y652732D02*
D03*
Y657223D02*
D03*
X781911Y652732D02*
D03*
X781941Y657223D02*
D03*
X54068Y647357D02*
D03*
Y642865D02*
D03*
X72567Y647357D02*
D03*
X72538Y642865D02*
D03*
D106*
X499709Y356378D02*
D03*
X504201D02*
D03*
X499709Y374877D02*
D03*
X504201Y374848D02*
D03*
X783911Y646230D02*
D03*
X798410D02*
D03*
X798410Y663730D02*
D03*
X783940D02*
D03*
X70567Y653858D02*
D03*
X56068D02*
D03*
X56068Y636358D02*
D03*
X70538D02*
D03*
D107*
X788670Y654980D02*
D03*
X793670Y654990D02*
D03*
X65809Y645108D02*
D03*
X60808Y645098D02*
D03*
D108*
X800411Y661980D02*
D03*
X781911Y647980D02*
D03*
X800411D02*
D03*
X781940Y661980D02*
D03*
X54068Y638109D02*
D03*
X72567Y652109D02*
D03*
X54068D02*
D03*
X72538Y638109D02*
D03*
D109*
X798974Y602099D02*
D03*
X55527Y592186D02*
D03*
D110*
X789224Y595599D02*
D03*
Y602099D02*
D03*
Y608599D02*
D03*
X808724D02*
D03*
Y602099D02*
D03*
Y595599D02*
D03*
X45777Y598686D02*
D03*
Y592186D02*
D03*
Y585686D02*
D03*
X65277D02*
D03*
Y592186D02*
D03*
Y598686D02*
D03*
D111*
X637903Y447293D02*
D03*
X620903D02*
D03*
X637903Y464819D02*
D03*
X620903D02*
D03*
D112*
X799084Y507750D02*
D03*
Y577750D02*
D03*
D113*
X158777Y408089D02*
D03*
X174333Y423645D02*
D03*
X185647Y412331D02*
D03*
X170091Y396775D02*
D03*
D114*
X157968Y388895D02*
D03*
X150897Y395967D02*
D03*
D115*
X153437Y421914D02*
D03*
X160509Y428985D02*
D03*
D116*
X312380Y667901D02*
D03*
Y639439D02*
D03*
X383242Y667906D02*
D03*
Y639443D02*
D03*
X241524Y667901D02*
D03*
Y639439D02*
D03*
X170749Y667901D02*
D03*
Y639439D02*
D03*
D117*
X680521Y675496D02*
D03*
Y632096D02*
D03*
X600003Y675749D02*
D03*
Y632349D02*
D03*
X519684Y632096D02*
D03*
Y675496D02*
D03*
X439336Y631843D02*
D03*
Y675243D02*
D03*
D118*
X719892Y646176D02*
D03*
Y613156D02*
D03*
X639374Y613410D02*
D03*
Y646430D02*
D03*
X559055Y646176D02*
D03*
Y613156D02*
D03*
X478707Y645923D02*
D03*
Y612903D02*
D03*
D119*
X692497Y742498D02*
D03*
X507498D02*
D03*
X692497Y789998D02*
D03*
X507498D02*
D03*
X342498Y742498D02*
D03*
X157498D02*
D03*
X342498Y789998D02*
D03*
X157498D02*
D03*
X722502Y60002D02*
D03*
X557502D02*
D03*
X722502Y107502D02*
D03*
X557502D02*
D03*
D120*
X813000Y171249D02*
D03*
Y112749D02*
D03*
X542500Y36200D02*
D03*
X177500Y83800D02*
D03*
X542500D02*
D03*
X177500Y36200D02*
D03*
X813000Y223254D02*
D03*
Y331754D02*
D03*
D121*
X816164Y783836D02*
D03*
X783836D02*
D03*
Y816164D02*
D03*
X816164D02*
D03*
X822860Y800000D02*
D03*
X800000Y777140D02*
D03*
X777140Y800000D02*
D03*
X800000Y822860D02*
D03*
X816164Y33835D02*
D03*
X783836D02*
D03*
Y66164D02*
D03*
X816164D02*
D03*
X822860Y50000D02*
D03*
X800000Y27140D02*
D03*
X777140Y50000D02*
D03*
X800000Y72860D02*
D03*
X50000D02*
D03*
X27140Y50000D02*
D03*
X50000Y27140D02*
D03*
X72860Y50000D02*
D03*
X66164Y66164D02*
D03*
X33835D02*
D03*
Y33835D02*
D03*
X66164D02*
D03*
X50000Y822860D02*
D03*
X27140Y800000D02*
D03*
X50000Y777140D02*
D03*
X72860Y800000D02*
D03*
X66164Y816164D02*
D03*
X33835D02*
D03*
Y783836D02*
D03*
X66164D02*
D03*
D122*
X800000Y800000D02*
D03*
Y50000D02*
D03*
X50000D02*
D03*
Y800000D02*
D03*
D123*
X661048Y407535D02*
D03*
D124*
Y395035D02*
D03*
Y382535D02*
D03*
D125*
X741154Y373683D02*
D03*
D126*
Y399083D02*
D03*
Y424483D02*
D03*
Y449883D02*
D03*
Y475283D02*
D03*
M02*
