G04*
G04 #@! TF.GenerationSoftware,Altium Limited,Altium Designer,24.1.2 (44)*
G04*
G04 Layer_Color=8388736*
%FSLAX44Y44*%
%MOMM*%
G71*
G04*
G04 #@! TF.SameCoordinates,1E5C80FD-96BC-4AB1-9BEB-1594B19F9C97*
G04*
G04*
G04 #@! TF.FilePolarity,Negative*
G04*
G01*
G75*
%ADD25C,1.2700*%
%ADD26R,0.3300X1.3500*%
%ADD27R,1.3500X0.3300*%
%ADD34R,1.4000X1.8000*%
%ADD35R,1.8000X1.8000*%
%ADD38R,0.9500X0.9000*%
%ADD39R,0.6500X0.2500*%
%ADD41R,0.2500X0.6500*%
%ADD49R,0.6500X0.3000*%
%ADD50R,0.7000X1.0000*%
%ADD51R,0.6500X0.2286*%
%ADD52R,1.5494X0.6604*%
%ADD53R,3.0988X2.2098*%
%ADD54R,1.7018X0.8128*%
%ADD58R,1.8000X1.4000*%
%ADD65R,1.9539X0.5821*%
%ADD66R,0.9000X0.9500*%
%ADD67R,1.1032X1.0032*%
%ADD68R,1.4032X1.0032*%
%ADD69R,1.1032X1.2032*%
%ADD70R,2.2032X4.4032*%
%ADD71R,1.2032X1.1032*%
%ADD72R,1.1016X1.7016*%
%ADD73R,0.5516X0.4016*%
%ADD74R,1.0032X1.1032*%
G04:AMPARAMS|DCode=75|XSize=1.2032mm|YSize=1.1032mm|CornerRadius=0mm|HoleSize=0mm|Usage=FLASHONLY|Rotation=225.000|XOffset=0mm|YOffset=0mm|HoleType=Round|Shape=Rectangle|*
%AMROTATEDRECTD75*
4,1,4,0.0354,0.8154,0.8154,0.0354,-0.0354,-0.8154,-0.8154,-0.0354,0.0354,0.8154,0.0*
%
%ADD75ROTATEDRECTD75*%

%ADD76R,1.1532X1.1032*%
%ADD77R,0.8532X0.4532*%
%ADD78R,0.8532X0.5032*%
%ADD79R,0.4532X0.8532*%
%ADD80R,0.5032X2.6032*%
%ADD81R,1.7524X0.9524*%
%ADD82R,3.1524X2.2524*%
%ADD83R,1.2032X1.7032*%
%ADD84R,1.7032X1.2032*%
%ADD85O,0.5532X1.6032*%
%ADD86O,0.8032X2.0032*%
%ADD87R,1.9050X1.2954*%
%ADD88R,0.8032X1.2032*%
G04:AMPARAMS|DCode=89|XSize=1.6032mm|YSize=1.4032mm|CornerRadius=0mm|HoleSize=0mm|Usage=FLASHONLY|Rotation=45.000|XOffset=0mm|YOffset=0mm|HoleType=Round|Shape=Rectangle|*
%AMROTATEDRECTD89*
4,1,4,-0.0707,-1.0629,-1.0629,-0.0707,0.0707,1.0629,1.0629,0.0707,-0.0707,-1.0629,0.0*
%
%ADD89ROTATEDRECTD89*%

G04:AMPARAMS|DCode=90|XSize=1.2032mm|YSize=1.1032mm|CornerRadius=0mm|HoleSize=0mm|Usage=FLASHONLY|Rotation=315.000|XOffset=0mm|YOffset=0mm|HoleType=Round|Shape=Rectangle|*
%AMROTATEDRECTD90*
4,1,4,-0.8154,0.0354,-0.0354,0.8154,0.8154,-0.0354,0.0354,-0.8154,-0.8154,0.0354,0.0*
%
%ADD90ROTATEDRECTD90*%

G04:AMPARAMS|DCode=91|XSize=0.9032mm|YSize=2.6032mm|CornerRadius=0.1506mm|HoleSize=0mm|Usage=FLASHONLY|Rotation=180.000|XOffset=0mm|YOffset=0mm|HoleType=Round|Shape=RoundedRectangle|*
%AMROUNDEDRECTD91*
21,1,0.9032,2.3020,0,0,180.0*
21,1,0.6020,2.6032,0,0,180.0*
1,1,0.3012,-0.3010,1.1510*
1,1,0.3012,0.3010,1.1510*
1,1,0.3012,0.3010,-1.1510*
1,1,0.3012,-0.3010,-1.1510*
%
%ADD91ROUNDEDRECTD91*%
G04:AMPARAMS|DCode=92|XSize=3.4032mm|YSize=2.6032mm|CornerRadius=0.1496mm|HoleSize=0mm|Usage=FLASHONLY|Rotation=180.000|XOffset=0mm|YOffset=0mm|HoleType=Round|Shape=RoundedRectangle|*
%AMROUNDEDRECTD92*
21,1,3.4032,2.3040,0,0,180.0*
21,1,3.1040,2.6032,0,0,180.0*
1,1,0.2992,-1.5520,1.1520*
1,1,0.2992,1.5520,1.1520*
1,1,0.2992,1.5520,-1.1520*
1,1,0.2992,-1.5520,-1.1520*
%
%ADD92ROUNDEDRECTD92*%
%ADD93R,3.7032X3.1532*%
G04:AMPARAMS|DCode=94|XSize=2.1632mm|YSize=0.7732mm|CornerRadius=0.2413mm|HoleSize=0mm|Usage=FLASHONLY|Rotation=0.000|XOffset=0mm|YOffset=0mm|HoleType=Round|Shape=RoundedRectangle|*
%AMROUNDEDRECTD94*
21,1,2.1632,0.2907,0,0,0.0*
21,1,1.6807,0.7732,0,0,0.0*
1,1,0.4825,0.8404,-0.1454*
1,1,0.4825,-0.8404,-0.1454*
1,1,0.4825,-0.8404,0.1454*
1,1,0.4825,0.8404,0.1454*
%
%ADD94ROUNDEDRECTD94*%
G04:AMPARAMS|DCode=95|XSize=2.3632mm|YSize=0.9232mm|CornerRadius=0.2816mm|HoleSize=0mm|Usage=FLASHONLY|Rotation=180.000|XOffset=0mm|YOffset=0mm|HoleType=Round|Shape=RoundedRectangle|*
%AMROUNDEDRECTD95*
21,1,2.3632,0.3600,0,0,180.0*
21,1,1.8000,0.9232,0,0,180.0*
1,1,0.5632,-0.9000,0.1800*
1,1,0.5632,0.9000,0.1800*
1,1,0.5632,0.9000,-0.1800*
1,1,0.5632,-0.9000,-0.1800*
%
%ADD95ROUNDEDRECTD95*%
%ADD96R,1.1032X1.1532*%
%ADD97R,1.8032X1.8032*%
%ADD98C,1.8032*%
%ADD99C,1.6612*%
%ADD100C,1.5732*%
%ADD101R,1.5732X1.5732*%
%ADD102C,1.2032*%
%ADD103C,6.2032*%
%ADD104C,0.6032*%
G36*
X124617Y775863D02*
X124653Y775863D01*
X124684Y775859D01*
X124714Y775857D01*
X124749Y775850D01*
X124785Y775845D01*
X125289Y775742D01*
X125292Y775742D01*
X125295Y775741D01*
X125356Y775724D01*
X125417Y775707D01*
X125420Y775706D01*
X125423Y775705D01*
X126394Y775364D01*
X126397Y775363D01*
X126399Y775362D01*
X126459Y775336D01*
X126516Y775312D01*
X126519Y775310D01*
X126522Y775309D01*
X127436Y774838D01*
X127439Y774837D01*
X127442Y774835D01*
X127497Y774802D01*
X127550Y774770D01*
X127553Y774768D01*
X127556Y774766D01*
X128397Y774175D01*
X128400Y774173D01*
X128402Y774171D01*
X128453Y774130D01*
X128501Y774091D01*
X128503Y774089D01*
X128506Y774087D01*
X129259Y773387D01*
X129261Y773384D01*
X129263Y773382D01*
X129308Y773335D01*
X129350Y773290D01*
X129352Y773287D01*
X129354Y773285D01*
X130005Y772488D01*
X130007Y772486D01*
X130009Y772483D01*
X130046Y772431D01*
X130082Y772380D01*
X130084Y772377D01*
X130085Y772374D01*
X130621Y771496D01*
X130623Y771494D01*
X130624Y771491D01*
X130653Y771436D01*
X130683Y771378D01*
X130684Y771375D01*
X130685Y771373D01*
X131096Y770430D01*
X131097Y770427D01*
X131099Y770424D01*
X131121Y770362D01*
X131141Y770304D01*
X131142Y770302D01*
X131143Y770298D01*
X131421Y769308D01*
X131422Y769305D01*
X131423Y769302D01*
X131436Y769240D01*
X131449Y769178D01*
X131449Y769175D01*
X131450Y769172D01*
X131590Y768153D01*
X131590Y768149D01*
X131591Y768147D01*
X131595Y768083D01*
X131600Y768020D01*
X131599Y768017D01*
X131600Y768014D01*
Y766985D01*
X131599Y766982D01*
X131600Y766979D01*
X131595Y766915D01*
X131591Y766852D01*
X131590Y766849D01*
X131590Y766846D01*
X131450Y765827D01*
X131449Y765824D01*
X131449Y765821D01*
X131436Y765759D01*
X131423Y765696D01*
X131422Y765694D01*
X131421Y765690D01*
X131143Y764700D01*
X131142Y764697D01*
X131141Y764694D01*
X131120Y764635D01*
X131099Y764575D01*
X131097Y764572D01*
X131096Y764569D01*
X130685Y763626D01*
X130684Y763623D01*
X130683Y763620D01*
X130653Y763564D01*
X130624Y763507D01*
X130623Y763505D01*
X130621Y763502D01*
X130085Y762624D01*
X130084Y762621D01*
X130082Y762619D01*
X130045Y762567D01*
X130009Y762515D01*
X130007Y762513D01*
X130005Y762510D01*
X129354Y761713D01*
X129352Y761711D01*
X129350Y761709D01*
X129307Y761663D01*
X129263Y761616D01*
X129261Y761614D01*
X129259Y761612D01*
X128506Y760911D01*
X128503Y760909D01*
X128501Y760907D01*
X128451Y760867D01*
X128402Y760827D01*
X128400Y760826D01*
X128397Y760824D01*
X127556Y760232D01*
X127553Y760231D01*
X127550Y760229D01*
X127495Y760195D01*
X127442Y760163D01*
X127439Y760162D01*
X127436Y760160D01*
X126522Y759690D01*
X126519Y759688D01*
X126516Y759687D01*
X126460Y759663D01*
X126399Y759637D01*
X126396Y759636D01*
X126394Y759635D01*
X125423Y759293D01*
X125420Y759292D01*
X125417Y759291D01*
X125356Y759274D01*
X125295Y759257D01*
X125292Y759257D01*
X125289Y759256D01*
X124785Y759153D01*
X124749Y759148D01*
X124714Y759141D01*
X124684Y759139D01*
X124653Y759135D01*
X124617Y759135D01*
X124581Y759133D01*
X124551Y759135D01*
X124520Y759134D01*
X124484Y759139D01*
X124448Y759141D01*
X124418Y759147D01*
X124388Y759151D01*
X124353Y759160D01*
X124318Y759167D01*
X124289Y759177D01*
X124259Y759185D01*
X124226Y759199D01*
X124192Y759210D01*
X124164Y759224D01*
X124136Y759235D01*
X124104Y759253D01*
X124072Y759269D01*
X124047Y759286D01*
X124020Y759301D01*
X123991Y759323D01*
X123962Y759343D01*
X123939Y759363D01*
X123914Y759382D01*
X123888Y759407D01*
X123862Y759431D01*
X123841Y759454D01*
X123819Y759476D01*
X123797Y759504D01*
X123774Y759531D01*
X123757Y759556D01*
X123738Y759581D01*
X123719Y759612D01*
X123700Y759642D01*
X123686Y759669D01*
X123671Y759696D01*
X123657Y759729D01*
X123641Y759761D01*
X123631Y759790D01*
X123619Y759819D01*
X123610Y759853D01*
X123598Y759887D01*
X123592Y759917D01*
X123584Y759947D01*
X123579Y759983D01*
X123572Y760018D01*
X123570Y760049D01*
X123566Y760079D01*
X123566Y760115D01*
X123563Y760151D01*
X123563Y774848D01*
X123566Y774884D01*
X123566Y774919D01*
X123570Y774949D01*
X123572Y774981D01*
X123579Y775016D01*
X123584Y775051D01*
X123592Y775081D01*
X123598Y775111D01*
X123610Y775146D01*
X123619Y775180D01*
X123631Y775208D01*
X123641Y775237D01*
X123657Y775270D01*
X123671Y775303D01*
X123686Y775329D01*
X123700Y775357D01*
X123720Y775387D01*
X123738Y775418D01*
X123756Y775442D01*
X123774Y775468D01*
X123798Y775495D01*
X123819Y775523D01*
X123841Y775544D01*
X123861Y775568D01*
X123889Y775592D01*
X123914Y775617D01*
X123938Y775635D01*
X123962Y775656D01*
X123992Y775676D01*
X124020Y775697D01*
X124046Y775712D01*
X124072Y775730D01*
X124105Y775745D01*
X124136Y775763D01*
X124164Y775775D01*
X124192Y775788D01*
X124226Y775800D01*
X124259Y775814D01*
X124289Y775821D01*
X124318Y775831D01*
X124353Y775838D01*
X124388Y775847D01*
X124418Y775851D01*
X124448Y775857D01*
X124484Y775860D01*
X124520Y775864D01*
X124551Y775864D01*
X124581Y775866D01*
X124581D01*
X124617Y775863D01*
D02*
G37*
G36*
X120452Y775861D02*
X120483Y775861D01*
X120519Y775856D01*
X120554Y775854D01*
X120584Y775848D01*
X120615Y775844D01*
X120650Y775835D01*
X120685Y775828D01*
X120714Y775818D01*
X120744Y775810D01*
X120777Y775797D01*
X120811Y775785D01*
X120839Y775771D01*
X120867Y775760D01*
X120898Y775742D01*
X120931Y775726D01*
X120956Y775709D01*
X120983Y775694D01*
X121012Y775672D01*
X121041Y775652D01*
X121064Y775632D01*
X121089Y775613D01*
X121114Y775588D01*
X121141Y775564D01*
X121162Y775541D01*
X121184Y775520D01*
X121206Y775491D01*
X121229Y775464D01*
X121246Y775439D01*
X121265Y775414D01*
X121283Y775383D01*
X121303Y775354D01*
X121317Y775326D01*
X121332Y775299D01*
X121346Y775266D01*
X121362Y775234D01*
X121372Y775205D01*
X121384Y775177D01*
X121393Y775142D01*
X121405Y775108D01*
X121411Y775078D01*
X121419Y775048D01*
X121424Y775013D01*
X121431Y774977D01*
X121433Y774947D01*
X121437Y774916D01*
X121437Y774880D01*
X121440Y774845D01*
X121440Y760147D01*
X121437Y760111D01*
X121437Y760076D01*
X121433Y760046D01*
X121431Y760015D01*
X121424Y759979D01*
X121419Y759944D01*
X121411Y759914D01*
X121405Y759884D01*
X121393Y759849D01*
X121384Y759815D01*
X121372Y759788D01*
X121362Y759758D01*
X121346Y759725D01*
X121332Y759693D01*
X121317Y759666D01*
X121313Y759659D01*
X121303Y759638D01*
X121283Y759608D01*
X121265Y759578D01*
X121247Y759554D01*
X121229Y759528D01*
X121205Y759500D01*
X121184Y759472D01*
X121162Y759451D01*
X121141Y759428D01*
X121114Y759404D01*
X121089Y759379D01*
X121065Y759360D01*
X121041Y759340D01*
X121011Y759320D01*
X120983Y759298D01*
X120956Y759283D01*
X120931Y759266D01*
X120898Y759250D01*
X120867Y759232D01*
X120839Y759221D01*
X120811Y759207D01*
X120777Y759195D01*
X120744Y759182D01*
X120714Y759174D01*
X120685Y759164D01*
X120650Y759157D01*
X120615Y759148D01*
X120584Y759144D01*
X120554Y759138D01*
X120519Y759136D01*
X120483Y759131D01*
X120452Y759131D01*
X120421Y759129D01*
X120421D01*
X120385Y759132D01*
X120350Y759132D01*
X120319Y759136D01*
X120288Y759138D01*
X120253Y759145D01*
X120218Y759150D01*
X119714Y759253D01*
X119711Y759254D01*
X119708Y759254D01*
X119647Y759271D01*
X119585Y759288D01*
X119583Y759289D01*
X119579Y759290D01*
X118609Y759631D01*
X118606Y759632D01*
X118603Y759633D01*
X118544Y759659D01*
X118487Y759684D01*
X118484Y759685D01*
X118481Y759686D01*
X117566Y760157D01*
X117564Y760159D01*
X117561Y760160D01*
X117506Y760193D01*
X117452Y760226D01*
X117450Y760228D01*
X117447Y760229D01*
X116605Y760820D01*
X116603Y760822D01*
X116600Y760824D01*
X116550Y760865D01*
X116502Y760904D01*
X116500Y760906D01*
X116497Y760908D01*
X115744Y761609D01*
X115742Y761611D01*
X115739Y761613D01*
X115695Y761660D01*
X115653Y761705D01*
X115651Y761708D01*
X115649Y761710D01*
X114998Y762507D01*
X114996Y762510D01*
X114994Y762512D01*
X114957Y762565D01*
X114921Y762616D01*
X114919Y762618D01*
X114917Y762621D01*
X114382Y763499D01*
X114380Y763502D01*
X114378Y763504D01*
X114350Y763559D01*
X114320Y763617D01*
X114319Y763620D01*
X114317Y763623D01*
X113907Y764566D01*
X113906Y764568D01*
X113904Y764571D01*
X113882Y764633D01*
X113862Y764691D01*
X113861Y764694D01*
X113860Y764697D01*
X113582Y765687D01*
X113581Y765690D01*
X113580Y765693D01*
X113567Y765755D01*
X113554Y765817D01*
X113554Y765821D01*
X113553Y765824D01*
X113413Y766843D01*
X113413Y766846D01*
X113412Y766849D01*
X113408Y766913D01*
X113403Y766975D01*
X113403Y766979D01*
X113403Y766982D01*
X113403Y768010D01*
X113403Y768013D01*
X113403Y768017D01*
X113408Y768081D01*
X113412Y768143D01*
X113413Y768146D01*
X113413Y768149D01*
X113553Y769168D01*
X113554Y769171D01*
X113554Y769174D01*
X113567Y769237D01*
X113580Y769299D01*
X113581Y769302D01*
X113582Y769305D01*
X113860Y770295D01*
X113861Y770298D01*
X113862Y770301D01*
X113883Y770361D01*
X113904Y770421D01*
X113906Y770424D01*
X113907Y770426D01*
X114317Y771369D01*
X114319Y771372D01*
X114320Y771375D01*
X114349Y771431D01*
X114378Y771488D01*
X114380Y771490D01*
X114382Y771493D01*
X114917Y772371D01*
X114919Y772374D01*
X114921Y772376D01*
X114958Y772428D01*
X114994Y772480D01*
X114996Y772482D01*
X114998Y772485D01*
X115648Y773282D01*
X115651Y773284D01*
X115653Y773287D01*
X115696Y773333D01*
X115739Y773379D01*
X115742Y773381D01*
X115744Y773383D01*
X116497Y774084D01*
X116500Y774086D01*
X116502Y774088D01*
X116551Y774128D01*
X116600Y774168D01*
X116603Y774170D01*
X116605Y774172D01*
X117447Y774763D01*
X117450Y774764D01*
X117452Y774766D01*
X117508Y774800D01*
X117561Y774832D01*
X117564Y774833D01*
X117566Y774835D01*
X118481Y775306D01*
X118484Y775307D01*
X118487Y775308D01*
X118543Y775332D01*
X118603Y775359D01*
X118606Y775359D01*
X118609Y775361D01*
X119579Y775702D01*
X119582Y775703D01*
X119585Y775704D01*
X119647Y775721D01*
X119708Y775738D01*
X119711Y775738D01*
X119714Y775739D01*
X120218Y775842D01*
X120253Y775847D01*
X120288Y775854D01*
X120319Y775856D01*
X120350Y775860D01*
X120385Y775860D01*
X120421Y775863D01*
X120452Y775861D01*
D02*
G37*
G36*
X99070Y215849D02*
X99073Y215849D01*
X99137Y215845D01*
X99200Y215841D01*
X99203Y215840D01*
X99206Y215840D01*
X100225Y215699D01*
X100228Y215699D01*
X100231Y215699D01*
X100293Y215685D01*
X100356Y215673D01*
X100358Y215672D01*
X100361Y215671D01*
X101352Y215393D01*
X101355Y215392D01*
X101358Y215391D01*
X101417Y215370D01*
X101477Y215348D01*
X101480Y215347D01*
X101483Y215346D01*
X102426Y214935D01*
X102429Y214934D01*
X102432Y214933D01*
X102488Y214903D01*
X102544Y214874D01*
X102547Y214872D01*
X102550Y214871D01*
X103428Y214335D01*
X103430Y214333D01*
X103433Y214332D01*
X103485Y214295D01*
X103537Y214258D01*
X103539Y214256D01*
X103541Y214255D01*
X104338Y213604D01*
X104341Y213602D01*
X104343Y213600D01*
X104389Y213557D01*
X104436Y213513D01*
X104438Y213511D01*
X104440Y213509D01*
X105140Y212756D01*
X105142Y212753D01*
X105145Y212751D01*
X105185Y212701D01*
X105225Y212652D01*
X105226Y212650D01*
X105228Y212647D01*
X105819Y211805D01*
X105821Y211803D01*
X105823Y211800D01*
X105857Y211744D01*
X105889Y211692D01*
X105890Y211689D01*
X105892Y211686D01*
X106362Y210771D01*
X106363Y210769D01*
X106365Y210766D01*
X106389Y210709D01*
X106415Y210649D01*
X106416Y210646D01*
X106417Y210643D01*
X106759Y209673D01*
X106760Y209670D01*
X106761Y209667D01*
X106777Y209606D01*
X106795Y209545D01*
X106795Y209542D01*
X106796Y209539D01*
X106899Y209035D01*
X106903Y208999D01*
X106910Y208964D01*
X106913Y208933D01*
X106917Y208903D01*
X106917Y208867D01*
X106919Y208831D01*
X106917Y208801D01*
X106917Y208770D01*
X106913Y208734D01*
X106910Y208698D01*
X106905Y208668D01*
X106901Y208638D01*
X106891Y208603D01*
X106884Y208568D01*
X106875Y208538D01*
X106867Y208509D01*
X106853Y208476D01*
X106842Y208442D01*
X106828Y208414D01*
X106817Y208386D01*
X106799Y208354D01*
X106783Y208322D01*
X106766Y208297D01*
X106750Y208270D01*
X106729Y208241D01*
X106709Y208211D01*
X106689Y208188D01*
X106670Y208164D01*
X106645Y208138D01*
X106621Y208111D01*
X106598Y208091D01*
X106576Y208069D01*
X106548Y208047D01*
X106521Y208023D01*
X106495Y208006D01*
X106471Y207987D01*
X106440Y207969D01*
X106410Y207950D01*
X106383Y207936D01*
X106356Y207920D01*
X106323Y207906D01*
X106291Y207890D01*
X106262Y207881D01*
X106233Y207869D01*
X106198Y207859D01*
X106165Y207848D01*
X106135Y207842D01*
X106105Y207834D01*
X106069Y207829D01*
X106034Y207822D01*
X106003Y207820D01*
X105973Y207816D01*
X105937Y207815D01*
X105901Y207813D01*
X91204Y207813D01*
X91168Y207815D01*
X91132Y207816D01*
X91102Y207820D01*
X91071Y207822D01*
X91036Y207829D01*
X91000Y207834D01*
X90971Y207842D01*
X90941Y207848D01*
X90906Y207859D01*
X90872Y207869D01*
X90844Y207880D01*
X90815Y207890D01*
X90782Y207907D01*
X90749Y207920D01*
X90723Y207936D01*
X90695Y207949D01*
X90665Y207970D01*
X90634Y207987D01*
X90610Y208006D01*
X90584Y208023D01*
X90561Y208044D01*
X90557Y208047D01*
X90529Y208069D01*
X90508Y208091D01*
X90484Y208111D01*
X90460Y208139D01*
X90435Y208164D01*
X90417Y208188D01*
X90396Y208211D01*
X90376Y208242D01*
X90355Y208270D01*
X90340Y208296D01*
X90322Y208322D01*
X90306Y208355D01*
X90289Y208386D01*
X90277Y208414D01*
X90263Y208442D01*
X90252Y208476D01*
X90238Y208509D01*
X90231Y208538D01*
X90221Y208568D01*
X90214Y208603D01*
X90204Y208638D01*
X90201Y208668D01*
X90195Y208698D01*
X90192Y208734D01*
X90188Y208770D01*
X90188Y208801D01*
X90186Y208831D01*
Y208831D01*
X90188Y208867D01*
X90189Y208903D01*
X90193Y208933D01*
X90195Y208964D01*
X90202Y208999D01*
X90206Y209035D01*
X90309Y209539D01*
X90310Y209542D01*
X90311Y209545D01*
X90328Y209606D01*
X90344Y209667D01*
X90346Y209670D01*
X90346Y209673D01*
X90688Y210644D01*
X90689Y210646D01*
X90690Y210649D01*
X90716Y210709D01*
X90740Y210766D01*
X90742Y210769D01*
X90743Y210771D01*
X91214Y211686D01*
X91215Y211689D01*
X91217Y211692D01*
X91250Y211747D01*
X91282Y211800D01*
X91284Y211803D01*
X91286Y211805D01*
X91877Y212647D01*
X91879Y212650D01*
X91881Y212652D01*
X91921Y212702D01*
X91960Y212751D01*
X91963Y212753D01*
X91965Y212756D01*
X92665Y213509D01*
X92667Y213511D01*
X92669Y213513D01*
X92717Y213558D01*
X92762Y213600D01*
X92765Y213602D01*
X92767Y213604D01*
X93564Y214255D01*
X93566Y214256D01*
X93568Y214258D01*
X93621Y214296D01*
X93672Y214332D01*
X93675Y214333D01*
X93677Y214335D01*
X94556Y214871D01*
X94558Y214872D01*
X94561Y214874D01*
X94616Y214902D01*
X94674Y214933D01*
X94677Y214934D01*
X94679Y214935D01*
X95622Y215346D01*
X95625Y215347D01*
X95628Y215348D01*
X95690Y215370D01*
X95747Y215391D01*
X95750Y215392D01*
X95753Y215393D01*
X96744Y215671D01*
X96747Y215672D01*
X96750Y215673D01*
X96812Y215685D01*
X96874Y215699D01*
X96877Y215699D01*
X96880Y215699D01*
X97899Y215840D01*
X97902Y215840D01*
X97905Y215841D01*
X97969Y215845D01*
X98032Y215849D01*
X98035Y215849D01*
X98038Y215849D01*
X99067D01*
X99070Y215849D01*
D02*
G37*
G36*
X105941Y205687D02*
X105976Y205687D01*
X106006Y205683D01*
X106037Y205681D01*
X106073Y205674D01*
X106108Y205669D01*
X106137Y205661D01*
X106168Y205655D01*
X106202Y205643D01*
X106236Y205634D01*
X106264Y205622D01*
X106294Y205612D01*
X106327Y205596D01*
X106359Y205582D01*
X106385Y205567D01*
X106413Y205553D01*
X106444Y205533D01*
X106474Y205515D01*
X106498Y205496D01*
X106524Y205479D01*
X106552Y205455D01*
X106580Y205433D01*
X106601Y205412D01*
X106624Y205391D01*
X106648Y205364D01*
X106673Y205339D01*
X106692Y205314D01*
X106712Y205291D01*
X106732Y205261D01*
X106754Y205233D01*
X106769Y205206D01*
X106786Y205180D01*
X106802Y205148D01*
X106820Y205117D01*
X106831Y205089D01*
X106845Y205061D01*
X106857Y205026D01*
X106870Y204994D01*
X106878Y204964D01*
X106888Y204935D01*
X106895Y204900D01*
X106904Y204865D01*
X106908Y204834D01*
X106914Y204804D01*
X106916Y204768D01*
X106921Y204733D01*
X106920Y204702D01*
X106923Y204671D01*
Y204671D01*
X106920Y204635D01*
X106920Y204599D01*
X106916Y204569D01*
X106914Y204538D01*
X106907Y204503D01*
X106902Y204468D01*
X106799Y203964D01*
X106798Y203961D01*
X106798Y203958D01*
X106781Y203897D01*
X106764Y203835D01*
X106763Y203832D01*
X106762Y203829D01*
X106420Y202859D01*
X106419Y202856D01*
X106419Y202853D01*
X106393Y202794D01*
X106368Y202736D01*
X106367Y202734D01*
X106365Y202731D01*
X105895Y201816D01*
X105893Y201814D01*
X105892Y201811D01*
X105858Y201756D01*
X105826Y201702D01*
X105824Y201700D01*
X105823Y201697D01*
X105231Y200855D01*
X105230Y200853D01*
X105228Y200850D01*
X105187Y200800D01*
X105148Y200751D01*
X105146Y200749D01*
X105144Y200747D01*
X104443Y199994D01*
X104441Y199992D01*
X104439Y199989D01*
X104391Y199945D01*
X104346Y199902D01*
X104344Y199900D01*
X104342Y199898D01*
X103545Y199248D01*
X103542Y199246D01*
X103540Y199244D01*
X103487Y199207D01*
X103436Y199170D01*
X103434Y199169D01*
X103431Y199167D01*
X102553Y198631D01*
X102550Y198630D01*
X102548Y198628D01*
X102493Y198600D01*
X102435Y198570D01*
X102432Y198569D01*
X102429Y198567D01*
X101486Y198156D01*
X101483Y198155D01*
X101481Y198154D01*
X101418Y198132D01*
X101361Y198111D01*
X101358Y198111D01*
X101355Y198110D01*
X100365Y197831D01*
X100362Y197831D01*
X100359Y197830D01*
X100297Y197817D01*
X100234Y197804D01*
X100231Y197804D01*
X100228Y197803D01*
X99209Y197663D01*
X99206Y197662D01*
X99203Y197662D01*
X99140Y197658D01*
X99076Y197653D01*
X99073Y197653D01*
X99070Y197653D01*
X98041D01*
X98038Y197653D01*
X98035Y197653D01*
X97972Y197658D01*
X97909Y197662D01*
X97906Y197662D01*
X97902Y197663D01*
X96883Y197803D01*
X96880Y197804D01*
X96877Y197804D01*
X96815Y197817D01*
X96753Y197830D01*
X96750Y197831D01*
X96747Y197831D01*
X95757Y198110D01*
X95754Y198111D01*
X95751Y198111D01*
X95691Y198133D01*
X95631Y198154D01*
X95628Y198155D01*
X95625Y198156D01*
X94682Y198567D01*
X94680Y198569D01*
X94677Y198570D01*
X94621Y198599D01*
X94564Y198628D01*
X94561Y198630D01*
X94559Y198631D01*
X93681Y199167D01*
X93678Y199169D01*
X93675Y199170D01*
X93624Y199207D01*
X93572Y199244D01*
X93569Y199246D01*
X93567Y199248D01*
X92770Y199898D01*
X92768Y199900D01*
X92765Y199902D01*
X92719Y199946D01*
X92673Y199989D01*
X92671Y199991D01*
X92668Y199994D01*
X91968Y200747D01*
X91966Y200749D01*
X91964Y200751D01*
X91924Y200801D01*
X91884Y200850D01*
X91882Y200853D01*
X91880Y200855D01*
X91289Y201697D01*
X91287Y201700D01*
X91285Y201702D01*
X91252Y201758D01*
X91220Y201811D01*
X91219Y201814D01*
X91217Y201816D01*
X90746Y202731D01*
X90745Y202734D01*
X90744Y202736D01*
X90719Y202793D01*
X90693Y202853D01*
X90692Y202856D01*
X90691Y202859D01*
X90350Y203829D01*
X90349Y203832D01*
X90348Y203835D01*
X90331Y203897D01*
X90314Y203958D01*
X90313Y203961D01*
X90313Y203964D01*
X90210Y204468D01*
X90205Y204503D01*
X90198Y204538D01*
X90196Y204569D01*
X90192Y204599D01*
X90191Y204635D01*
X90189Y204671D01*
X90191Y204702D01*
X90191Y204733D01*
X90196Y204768D01*
X90198Y204804D01*
X90204Y204834D01*
X90208Y204865D01*
X90217Y204900D01*
X90224Y204935D01*
X90234Y204964D01*
X90242Y204994D01*
X90255Y205026D01*
X90267Y205061D01*
X90280Y205089D01*
X90292Y205117D01*
X90310Y205148D01*
X90326Y205180D01*
X90343Y205206D01*
X90358Y205233D01*
X90380Y205261D01*
X90400Y205291D01*
X90420Y205314D01*
X90438Y205339D01*
X90464Y205364D01*
X90487Y205391D01*
X90511Y205411D01*
X90532Y205433D01*
X90561Y205455D01*
X90588Y205479D01*
X90613Y205496D01*
X90638Y205515D01*
X90669Y205533D01*
X90698Y205553D01*
X90726Y205566D01*
X90752Y205582D01*
X90786Y205596D01*
X90818Y205612D01*
X90847Y205622D01*
X90875Y205634D01*
X90910Y205643D01*
X90944Y205655D01*
X90974Y205661D01*
X91004Y205669D01*
X91039Y205674D01*
X91074Y205681D01*
X91105Y205683D01*
X91136Y205687D01*
X91171Y205687D01*
X91207Y205689D01*
X105904Y205689D01*
X105941Y205687D01*
D02*
G37*
G36*
X248783Y193737D02*
X248803D01*
X248833Y193727D01*
X248853D01*
X248883Y193717D01*
X248903Y193707D01*
X248933Y193697D01*
X248953Y193677D01*
X248973Y193667D01*
X248993Y193647D01*
X249013Y193637D01*
X249033Y193617D01*
X249053Y193597D01*
X249073Y193577D01*
X249093Y193557D01*
X249103Y193537D01*
X249123Y193517D01*
X249133Y193497D01*
X249153Y193477D01*
X249163Y193447D01*
X249173Y193427D01*
X249183Y193397D01*
Y193377D01*
X249193Y193347D01*
Y193327D01*
X249203Y193297D01*
Y193277D01*
Y193247D01*
Y186847D01*
Y186817D01*
Y186797D01*
X249193Y186767D01*
Y186747D01*
X249183Y186717D01*
Y186697D01*
X249173Y186667D01*
X249163Y186647D01*
X249153Y186617D01*
X249133Y186597D01*
X249123Y186577D01*
X249103Y186557D01*
X249093Y186537D01*
X249073Y186517D01*
X249053Y186497D01*
X249033Y186477D01*
X249013Y186457D01*
X248993Y186447D01*
X248973Y186427D01*
X248953Y186417D01*
X248933Y186397D01*
X248903Y186387D01*
X248883Y186377D01*
X248853Y186367D01*
X248833D01*
X248803Y186357D01*
X248783D01*
X248753Y186347D01*
X232753D01*
X232723Y186357D01*
X232703D01*
X232673Y186367D01*
X232653D01*
X232623Y186377D01*
X232603Y186387D01*
X232573Y186397D01*
X232553Y186417D01*
X232533Y186427D01*
X232513Y186447D01*
X232493Y186457D01*
X232473Y186477D01*
X232453Y186497D01*
X232433Y186517D01*
X232413Y186537D01*
X232403Y186557D01*
X232383Y186577D01*
X232373Y186597D01*
X232353Y186617D01*
X232343Y186647D01*
X232333Y186667D01*
X232323Y186697D01*
Y186717D01*
X232313Y186747D01*
Y186767D01*
X232303Y186797D01*
Y186817D01*
Y186847D01*
Y193247D01*
Y193277D01*
Y193297D01*
X232313Y193327D01*
Y193347D01*
X232323Y193377D01*
Y193397D01*
X232333Y193427D01*
X232343Y193447D01*
X232353Y193477D01*
X232373Y193497D01*
X232383Y193517D01*
X232403Y193537D01*
X232413Y193557D01*
X232433Y193577D01*
X232453Y193597D01*
X232473Y193617D01*
X232493Y193637D01*
X232513Y193647D01*
X232533Y193667D01*
X232553Y193677D01*
X232573Y193697D01*
X232603Y193707D01*
X232623Y193717D01*
X232653Y193727D01*
X232673D01*
X232703Y193737D01*
X232723D01*
X232753Y193747D01*
X248753D01*
X248783Y193737D01*
D02*
G37*
G36*
X194783D02*
X194803D01*
X194833Y193727D01*
X194853D01*
X194883Y193717D01*
X194903Y193707D01*
X194933Y193697D01*
X194953Y193677D01*
X194973Y193667D01*
X194993Y193647D01*
X195013Y193637D01*
X195033Y193617D01*
X195053Y193597D01*
X195073Y193577D01*
X195093Y193557D01*
X195103Y193537D01*
X195123Y193517D01*
X195133Y193497D01*
X195153Y193477D01*
X195163Y193447D01*
X195173Y193427D01*
X195183Y193397D01*
Y193377D01*
X195193Y193347D01*
Y193327D01*
X195203Y193297D01*
Y193277D01*
Y193247D01*
Y186847D01*
Y186817D01*
Y186797D01*
X195193Y186767D01*
Y186747D01*
X195183Y186717D01*
Y186697D01*
X195173Y186667D01*
X195163Y186647D01*
X195153Y186617D01*
X195133Y186597D01*
X195123Y186577D01*
X195103Y186557D01*
X195093Y186537D01*
X195073Y186517D01*
X195053Y186497D01*
X195033Y186477D01*
X195013Y186457D01*
X194993Y186447D01*
X194973Y186427D01*
X194953Y186417D01*
X194933Y186397D01*
X194903Y186387D01*
X194883Y186377D01*
X194853Y186367D01*
X194833D01*
X194803Y186357D01*
X194783D01*
X194753Y186347D01*
X178753D01*
X178723Y186357D01*
X178703D01*
X178673Y186367D01*
X178653D01*
X178623Y186377D01*
X178603Y186387D01*
X178573Y186397D01*
X178553Y186417D01*
X178533Y186427D01*
X178513Y186447D01*
X178493Y186457D01*
X178473Y186477D01*
X178453Y186497D01*
X178433Y186517D01*
X178413Y186537D01*
X178403Y186557D01*
X178383Y186577D01*
X178373Y186597D01*
X178353Y186617D01*
X178343Y186647D01*
X178333Y186667D01*
X178323Y186697D01*
Y186717D01*
X178313Y186747D01*
Y186767D01*
X178303Y186797D01*
Y186817D01*
Y186847D01*
Y193247D01*
Y193277D01*
Y193297D01*
X178313Y193327D01*
Y193347D01*
X178323Y193377D01*
Y193397D01*
X178333Y193427D01*
X178343Y193447D01*
X178353Y193477D01*
X178373Y193497D01*
X178383Y193517D01*
X178403Y193537D01*
X178413Y193557D01*
X178433Y193577D01*
X178453Y193597D01*
X178473Y193617D01*
X178493Y193637D01*
X178513Y193647D01*
X178533Y193667D01*
X178553Y193677D01*
X178573Y193697D01*
X178603Y193707D01*
X178623Y193717D01*
X178653Y193727D01*
X178673D01*
X178703Y193737D01*
X178723D01*
X178753Y193747D01*
X194753D01*
X194783Y193737D01*
D02*
G37*
G36*
X248783Y181037D02*
X248803D01*
X248833Y181027D01*
X248853D01*
X248883Y181017D01*
X248903Y181007D01*
X248933Y180997D01*
X248953Y180977D01*
X248973Y180967D01*
X248993Y180947D01*
X249013Y180937D01*
X249033Y180917D01*
X249053Y180897D01*
X249073Y180877D01*
X249093Y180857D01*
X249103Y180837D01*
X249123Y180817D01*
X249133Y180797D01*
X249153Y180777D01*
X249163Y180747D01*
X249173Y180727D01*
X249183Y180697D01*
Y180677D01*
X249193Y180647D01*
Y180627D01*
X249203Y180597D01*
Y180577D01*
Y180547D01*
Y174147D01*
Y174117D01*
Y174097D01*
X249193Y174067D01*
Y174047D01*
X249183Y174017D01*
Y173997D01*
X249173Y173967D01*
X249163Y173947D01*
X249153Y173917D01*
X249133Y173897D01*
X249123Y173877D01*
X249103Y173857D01*
X249093Y173837D01*
X249073Y173817D01*
X249053Y173797D01*
X249033Y173777D01*
X249013Y173757D01*
X248993Y173747D01*
X248973Y173727D01*
X248953Y173717D01*
X248933Y173697D01*
X248903Y173687D01*
X248883Y173677D01*
X248853Y173667D01*
X248833D01*
X248803Y173657D01*
X248783D01*
X248753Y173647D01*
X232753D01*
X232723Y173657D01*
X232703D01*
X232673Y173667D01*
X232653D01*
X232623Y173677D01*
X232603Y173687D01*
X232573Y173697D01*
X232553Y173717D01*
X232533Y173727D01*
X232513Y173747D01*
X232493Y173757D01*
X232473Y173777D01*
X232453Y173797D01*
X232433Y173817D01*
X232413Y173837D01*
X232403Y173857D01*
X232383Y173877D01*
X232373Y173897D01*
X232353Y173917D01*
X232343Y173947D01*
X232333Y173967D01*
X232323Y173997D01*
Y174017D01*
X232313Y174047D01*
Y174067D01*
X232303Y174097D01*
Y174117D01*
Y174147D01*
Y180547D01*
Y180577D01*
Y180597D01*
X232313Y180627D01*
Y180647D01*
X232323Y180677D01*
Y180697D01*
X232333Y180727D01*
X232343Y180747D01*
X232353Y180777D01*
X232373Y180797D01*
X232383Y180817D01*
X232403Y180837D01*
X232413Y180857D01*
X232433Y180877D01*
X232453Y180897D01*
X232473Y180917D01*
X232493Y180937D01*
X232513Y180947D01*
X232533Y180967D01*
X232553Y180977D01*
X232573Y180997D01*
X232603Y181007D01*
X232623Y181017D01*
X232653Y181027D01*
X232673D01*
X232703Y181037D01*
X232723D01*
X232753Y181047D01*
X248753D01*
X248783Y181037D01*
D02*
G37*
G36*
X194783D02*
X194803D01*
X194833Y181027D01*
X194853D01*
X194883Y181017D01*
X194903Y181007D01*
X194933Y180997D01*
X194953Y180977D01*
X194973Y180967D01*
X194993Y180947D01*
X195013Y180937D01*
X195033Y180917D01*
X195053Y180897D01*
X195073Y180877D01*
X195093Y180857D01*
X195103Y180837D01*
X195123Y180817D01*
X195133Y180797D01*
X195153Y180777D01*
X195163Y180747D01*
X195173Y180727D01*
X195183Y180697D01*
Y180677D01*
X195193Y180647D01*
Y180627D01*
X195203Y180597D01*
Y180577D01*
Y180547D01*
Y174147D01*
Y174117D01*
Y174097D01*
X195193Y174067D01*
Y174047D01*
X195183Y174017D01*
Y173997D01*
X195173Y173967D01*
X195163Y173947D01*
X195153Y173917D01*
X195133Y173897D01*
X195123Y173877D01*
X195103Y173857D01*
X195093Y173837D01*
X195073Y173817D01*
X195053Y173797D01*
X195033Y173777D01*
X195013Y173757D01*
X194993Y173747D01*
X194973Y173727D01*
X194953Y173717D01*
X194933Y173697D01*
X194903Y173687D01*
X194883Y173677D01*
X194853Y173667D01*
X194833D01*
X194803Y173657D01*
X194783D01*
X194753Y173647D01*
X178753D01*
X178723Y173657D01*
X178703D01*
X178673Y173667D01*
X178653D01*
X178623Y173677D01*
X178603Y173687D01*
X178573Y173697D01*
X178553Y173717D01*
X178533Y173727D01*
X178513Y173747D01*
X178493Y173757D01*
X178473Y173777D01*
X178453Y173797D01*
X178433Y173817D01*
X178413Y173837D01*
X178403Y173857D01*
X178383Y173877D01*
X178373Y173897D01*
X178353Y173917D01*
X178343Y173947D01*
X178333Y173967D01*
X178323Y173997D01*
Y174017D01*
X178313Y174047D01*
Y174067D01*
X178303Y174097D01*
Y174117D01*
Y174147D01*
Y180547D01*
Y180577D01*
Y180597D01*
X178313Y180627D01*
Y180647D01*
X178323Y180677D01*
Y180697D01*
X178333Y180727D01*
X178343Y180747D01*
X178353Y180777D01*
X178373Y180797D01*
X178383Y180817D01*
X178403Y180837D01*
X178413Y180857D01*
X178433Y180877D01*
X178453Y180897D01*
X178473Y180917D01*
X178493Y180937D01*
X178513Y180947D01*
X178533Y180967D01*
X178553Y180977D01*
X178573Y180997D01*
X178603Y181007D01*
X178623Y181017D01*
X178653Y181027D01*
X178673D01*
X178703Y181037D01*
X178723D01*
X178753Y181047D01*
X194753D01*
X194783Y181037D01*
D02*
G37*
G36*
X248783Y168337D02*
X248803D01*
X248833Y168327D01*
X248853D01*
X248883Y168317D01*
X248903Y168307D01*
X248933Y168297D01*
X248953Y168277D01*
X248973Y168267D01*
X248993Y168247D01*
X249013Y168237D01*
X249033Y168217D01*
X249053Y168197D01*
X249073Y168177D01*
X249093Y168157D01*
X249103Y168137D01*
X249123Y168117D01*
X249133Y168097D01*
X249153Y168077D01*
X249163Y168047D01*
X249173Y168027D01*
X249183Y167997D01*
Y167977D01*
X249193Y167947D01*
Y167927D01*
X249203Y167897D01*
Y167877D01*
Y167847D01*
Y161447D01*
Y161417D01*
Y161397D01*
X249193Y161367D01*
Y161347D01*
X249183Y161317D01*
Y161297D01*
X249173Y161267D01*
X249163Y161247D01*
X249153Y161217D01*
X249133Y161197D01*
X249123Y161177D01*
X249103Y161157D01*
X249093Y161137D01*
X249073Y161117D01*
X249053Y161097D01*
X249033Y161077D01*
X249013Y161057D01*
X248993Y161047D01*
X248973Y161027D01*
X248953Y161017D01*
X248933Y160997D01*
X248903Y160987D01*
X248883Y160977D01*
X248853Y160967D01*
X248833D01*
X248803Y160957D01*
X248783D01*
X248753Y160947D01*
X232753D01*
X232723Y160957D01*
X232703D01*
X232673Y160967D01*
X232653D01*
X232623Y160977D01*
X232603Y160987D01*
X232573Y160997D01*
X232553Y161017D01*
X232533Y161027D01*
X232513Y161047D01*
X232493Y161057D01*
X232473Y161077D01*
X232453Y161097D01*
X232433Y161117D01*
X232413Y161137D01*
X232403Y161157D01*
X232383Y161177D01*
X232373Y161197D01*
X232353Y161217D01*
X232343Y161247D01*
X232333Y161267D01*
X232323Y161297D01*
Y161317D01*
X232313Y161347D01*
Y161367D01*
X232303Y161397D01*
Y161417D01*
Y161447D01*
Y167847D01*
Y167877D01*
Y167897D01*
X232313Y167927D01*
Y167947D01*
X232323Y167977D01*
Y167997D01*
X232333Y168027D01*
X232343Y168047D01*
X232353Y168077D01*
X232373Y168097D01*
X232383Y168117D01*
X232403Y168137D01*
X232413Y168157D01*
X232433Y168177D01*
X232453Y168197D01*
X232473Y168217D01*
X232493Y168237D01*
X232513Y168247D01*
X232533Y168267D01*
X232553Y168277D01*
X232573Y168297D01*
X232603Y168307D01*
X232623Y168317D01*
X232653Y168327D01*
X232673D01*
X232703Y168337D01*
X232723D01*
X232753Y168347D01*
X248753D01*
X248783Y168337D01*
D02*
G37*
G36*
X194783D02*
X194803D01*
X194833Y168327D01*
X194853D01*
X194883Y168317D01*
X194903Y168307D01*
X194933Y168297D01*
X194953Y168277D01*
X194973Y168267D01*
X194993Y168247D01*
X195013Y168237D01*
X195033Y168217D01*
X195053Y168197D01*
X195073Y168177D01*
X195093Y168157D01*
X195103Y168137D01*
X195123Y168117D01*
X195133Y168097D01*
X195153Y168077D01*
X195163Y168047D01*
X195173Y168027D01*
X195183Y167997D01*
Y167977D01*
X195193Y167947D01*
Y167927D01*
X195203Y167897D01*
Y167877D01*
Y167847D01*
Y161447D01*
Y161417D01*
Y161397D01*
X195193Y161367D01*
Y161347D01*
X195183Y161317D01*
Y161297D01*
X195173Y161267D01*
X195163Y161247D01*
X195153Y161217D01*
X195133Y161197D01*
X195123Y161177D01*
X195103Y161157D01*
X195093Y161137D01*
X195073Y161117D01*
X195053Y161097D01*
X195033Y161077D01*
X195013Y161057D01*
X194993Y161047D01*
X194973Y161027D01*
X194953Y161017D01*
X194933Y160997D01*
X194903Y160987D01*
X194883Y160977D01*
X194853Y160967D01*
X194833D01*
X194803Y160957D01*
X194783D01*
X194753Y160947D01*
X178753D01*
X178723Y160957D01*
X178703D01*
X178673Y160967D01*
X178653D01*
X178623Y160977D01*
X178603Y160987D01*
X178573Y160997D01*
X178553Y161017D01*
X178533Y161027D01*
X178513Y161047D01*
X178493Y161057D01*
X178473Y161077D01*
X178453Y161097D01*
X178433Y161117D01*
X178413Y161137D01*
X178403Y161157D01*
X178383Y161177D01*
X178373Y161197D01*
X178353Y161217D01*
X178343Y161247D01*
X178333Y161267D01*
X178323Y161297D01*
Y161317D01*
X178313Y161347D01*
Y161367D01*
X178303Y161397D01*
Y161417D01*
Y161447D01*
Y167847D01*
Y167877D01*
Y167897D01*
X178313Y167927D01*
Y167947D01*
X178323Y167977D01*
Y167997D01*
X178333Y168027D01*
X178343Y168047D01*
X178353Y168077D01*
X178373Y168097D01*
X178383Y168117D01*
X178403Y168137D01*
X178413Y168157D01*
X178433Y168177D01*
X178453Y168197D01*
X178473Y168217D01*
X178493Y168237D01*
X178513Y168247D01*
X178533Y168267D01*
X178553Y168277D01*
X178573Y168297D01*
X178603Y168307D01*
X178623Y168317D01*
X178653Y168327D01*
X178673D01*
X178703Y168337D01*
X178723D01*
X178753Y168347D01*
X194753D01*
X194783Y168337D01*
D02*
G37*
G36*
X226753Y155497D02*
X200753D01*
Y186497D01*
X226753D01*
Y155497D01*
D02*
G37*
G36*
X248783Y155637D02*
X248803D01*
X248833Y155627D01*
X248853D01*
X248883Y155617D01*
X248903Y155607D01*
X248933Y155597D01*
X248953Y155577D01*
X248973Y155567D01*
X248993Y155547D01*
X249013Y155537D01*
X249033Y155517D01*
X249053Y155497D01*
X249073Y155477D01*
X249093Y155457D01*
X249103Y155437D01*
X249123Y155417D01*
X249133Y155397D01*
X249153Y155377D01*
X249163Y155347D01*
X249173Y155327D01*
X249183Y155297D01*
Y155277D01*
X249193Y155247D01*
Y155227D01*
X249203Y155197D01*
Y155177D01*
Y155147D01*
Y148747D01*
Y148717D01*
Y148697D01*
X249193Y148667D01*
Y148647D01*
X249183Y148617D01*
Y148597D01*
X249173Y148567D01*
X249163Y148547D01*
X249153Y148517D01*
X249133Y148497D01*
X249123Y148477D01*
X249103Y148457D01*
X249093Y148437D01*
X249073Y148417D01*
X249053Y148397D01*
X249033Y148377D01*
X249013Y148357D01*
X248993Y148347D01*
X248973Y148327D01*
X248953Y148317D01*
X248933Y148297D01*
X248903Y148287D01*
X248883Y148277D01*
X248853Y148267D01*
X248833D01*
X248803Y148257D01*
X248783D01*
X248753Y148247D01*
X232753D01*
X232723Y148257D01*
X232703D01*
X232673Y148267D01*
X232653D01*
X232623Y148277D01*
X232603Y148287D01*
X232573Y148297D01*
X232553Y148317D01*
X232533Y148327D01*
X232513Y148347D01*
X232493Y148357D01*
X232473Y148377D01*
X232453Y148397D01*
X232433Y148417D01*
X232413Y148437D01*
X232403Y148457D01*
X232383Y148477D01*
X232373Y148497D01*
X232353Y148517D01*
X232343Y148547D01*
X232333Y148567D01*
X232323Y148597D01*
Y148617D01*
X232313Y148647D01*
Y148667D01*
X232303Y148697D01*
Y148717D01*
Y148747D01*
Y155147D01*
Y155177D01*
Y155197D01*
X232313Y155227D01*
Y155247D01*
X232323Y155277D01*
Y155297D01*
X232333Y155327D01*
X232343Y155347D01*
X232353Y155377D01*
X232373Y155397D01*
X232383Y155417D01*
X232403Y155437D01*
X232413Y155457D01*
X232433Y155477D01*
X232453Y155497D01*
X232473Y155517D01*
X232493Y155537D01*
X232513Y155547D01*
X232533Y155567D01*
X232553Y155577D01*
X232573Y155597D01*
X232603Y155607D01*
X232623Y155617D01*
X232653Y155627D01*
X232673D01*
X232703Y155637D01*
X232723D01*
X232753Y155647D01*
X248753D01*
X248783Y155637D01*
D02*
G37*
G36*
X194783D02*
X194803D01*
X194833Y155627D01*
X194853D01*
X194883Y155617D01*
X194903Y155607D01*
X194933Y155597D01*
X194953Y155577D01*
X194973Y155567D01*
X194993Y155547D01*
X195013Y155537D01*
X195033Y155517D01*
X195053Y155497D01*
X195073Y155477D01*
X195093Y155457D01*
X195103Y155437D01*
X195123Y155417D01*
X195133Y155397D01*
X195153Y155377D01*
X195163Y155347D01*
X195173Y155327D01*
X195183Y155297D01*
Y155277D01*
X195193Y155247D01*
Y155227D01*
X195203Y155197D01*
Y155177D01*
Y155147D01*
Y148747D01*
Y148717D01*
Y148697D01*
X195193Y148667D01*
Y148647D01*
X195183Y148617D01*
Y148597D01*
X195173Y148567D01*
X195163Y148547D01*
X195153Y148517D01*
X195133Y148497D01*
X195123Y148477D01*
X195103Y148457D01*
X195093Y148437D01*
X195073Y148417D01*
X195053Y148397D01*
X195033Y148377D01*
X195013Y148357D01*
X194993Y148347D01*
X194973Y148327D01*
X194953Y148317D01*
X194933Y148297D01*
X194903Y148287D01*
X194883Y148277D01*
X194853Y148267D01*
X194833D01*
X194803Y148257D01*
X194783D01*
X194753Y148247D01*
X178753D01*
X178723Y148257D01*
X178703D01*
X178673Y148267D01*
X178653D01*
X178623Y148277D01*
X178603Y148287D01*
X178573Y148297D01*
X178553Y148317D01*
X178533Y148327D01*
X178513Y148347D01*
X178493Y148357D01*
X178473Y148377D01*
X178453Y148397D01*
X178433Y148417D01*
X178413Y148437D01*
X178403Y148457D01*
X178383Y148477D01*
X178373Y148497D01*
X178353Y148517D01*
X178343Y148547D01*
X178333Y148567D01*
X178323Y148597D01*
Y148617D01*
X178313Y148647D01*
Y148667D01*
X178303Y148697D01*
Y148717D01*
Y148747D01*
Y155147D01*
Y155177D01*
Y155197D01*
X178313Y155227D01*
Y155247D01*
X178323Y155277D01*
Y155297D01*
X178333Y155327D01*
X178343Y155347D01*
X178353Y155377D01*
X178373Y155397D01*
X178383Y155417D01*
X178403Y155437D01*
X178413Y155457D01*
X178433Y155477D01*
X178453Y155497D01*
X178473Y155517D01*
X178493Y155537D01*
X178513Y155547D01*
X178533Y155567D01*
X178553Y155577D01*
X178573Y155597D01*
X178603Y155607D01*
X178623Y155617D01*
X178653Y155627D01*
X178673D01*
X178703Y155637D01*
X178723D01*
X178753Y155647D01*
X194753D01*
X194783Y155637D01*
D02*
G37*
D25*
X843653Y837997D02*
G03*
X838020Y843646I-5650J0D01*
G01*
X838003Y6347D02*
G03*
X843653Y11984I0J5650D01*
G01*
X6353Y11997D02*
G03*
X11991Y6347I5650J0D01*
G01*
X12003Y843647D02*
G03*
X6353Y838009I0J-5650D01*
G01*
X12003Y6347D02*
X837978Y6347D01*
X12021Y843647D02*
X838003Y843646D01*
X843653Y11997D02*
X843653Y837971D01*
X6353Y12022D02*
X6353Y837997D01*
D26*
X366390Y437539D02*
D03*
X371390D02*
D03*
X376390D02*
D03*
X381390D02*
D03*
X386390D02*
D03*
X391390D02*
D03*
X396390D02*
D03*
X401390D02*
D03*
X406390D02*
D03*
X411390D02*
D03*
X416390D02*
D03*
X421390D02*
D03*
X426390D02*
D03*
X431390D02*
D03*
X436390D02*
D03*
X441390D02*
D03*
X446390D02*
D03*
X451390D02*
D03*
X406390Y282539D02*
D03*
X401390D02*
D03*
X396390Y282539D02*
D03*
X391390D02*
D03*
X386390Y282539D02*
D03*
X381390D02*
D03*
X376390D02*
D03*
X371390D02*
D03*
X366390D02*
D03*
X361390Y282539D02*
D03*
X356390Y282539D02*
D03*
X351390D02*
D03*
X346390D02*
D03*
Y437539D02*
D03*
X351390D02*
D03*
X356390D02*
D03*
X361390D02*
D03*
X466390Y282539D02*
D03*
X461390D02*
D03*
X456390D02*
D03*
X451390D02*
D03*
X426390Y282539D02*
D03*
X421390Y282539D02*
D03*
X416390D02*
D03*
X411390D02*
D03*
X456390Y437539D02*
D03*
X461390D02*
D03*
X466390D02*
D03*
X446390Y282539D02*
D03*
X441390D02*
D03*
X436390D02*
D03*
X431390D02*
D03*
D27*
X328890Y300039D02*
D03*
Y305039D02*
D03*
Y310039D02*
D03*
Y315039D02*
D03*
Y320039D02*
D03*
Y325039D02*
D03*
Y330039D02*
D03*
Y335039D02*
D03*
X483890Y335039D02*
D03*
Y330039D02*
D03*
Y325039D02*
D03*
Y320039D02*
D03*
Y315039D02*
D03*
Y310039D02*
D03*
Y305039D02*
D03*
Y300039D02*
D03*
X328890Y340039D02*
D03*
Y345039D02*
D03*
Y350039D02*
D03*
Y355039D02*
D03*
Y360039D02*
D03*
Y365039D02*
D03*
Y370039D02*
D03*
Y375039D02*
D03*
Y380039D02*
D03*
Y385039D02*
D03*
Y390039D02*
D03*
Y395039D02*
D03*
Y400039D02*
D03*
Y405039D02*
D03*
Y410039D02*
D03*
Y415039D02*
D03*
Y420039D02*
D03*
X483890D02*
D03*
Y415039D02*
D03*
Y410039D02*
D03*
X483890Y405039D02*
D03*
X483890Y400039D02*
D03*
Y395039D02*
D03*
Y390039D02*
D03*
Y385039D02*
D03*
Y380039D02*
D03*
X483890Y375039D02*
D03*
Y370039D02*
D03*
X483890Y365039D02*
D03*
Y360039D02*
D03*
Y355039D02*
D03*
Y350039D02*
D03*
Y345039D02*
D03*
X483890Y340039D02*
D03*
D34*
X102007Y62085D02*
D03*
X128006D02*
D03*
X49215Y196210D02*
D03*
X75215D02*
D03*
X205983Y214248D02*
D03*
X231983D02*
D03*
X49019Y639431D02*
D03*
X75019D02*
D03*
X49336Y748939D02*
D03*
X75336D02*
D03*
D35*
X89884Y165607D02*
D03*
X49884D02*
D03*
X50005Y718336D02*
D03*
X90005D02*
D03*
X280503Y122744D02*
D03*
X240503D02*
D03*
D38*
X411993Y661458D02*
D03*
Y698696D02*
D03*
Y735934D02*
D03*
Y773172D02*
D03*
X714305Y654403D02*
D03*
Y746605D02*
D03*
D39*
X429433Y528337D02*
D03*
Y533337D02*
D03*
Y543337D02*
D03*
Y548337D02*
D03*
X457933D02*
D03*
Y543337D02*
D03*
Y538337D02*
D03*
Y533337D02*
D03*
Y528337D02*
D03*
X81339D02*
D03*
Y533337D02*
D03*
Y543337D02*
D03*
Y548337D02*
D03*
X109839D02*
D03*
Y543337D02*
D03*
Y538337D02*
D03*
Y533337D02*
D03*
Y528337D02*
D03*
X225870D02*
D03*
Y533337D02*
D03*
Y538337D02*
D03*
Y543337D02*
D03*
Y548337D02*
D03*
X197370D02*
D03*
Y543337D02*
D03*
Y533337D02*
D03*
Y528337D02*
D03*
X341902D02*
D03*
Y533337D02*
D03*
Y538337D02*
D03*
Y543337D02*
D03*
Y548337D02*
D03*
X313402D02*
D03*
Y543337D02*
D03*
Y533337D02*
D03*
Y528337D02*
D03*
D41*
X436183Y552437D02*
D03*
Y524237D02*
D03*
X441183D02*
D03*
X446183D02*
D03*
X451183D02*
D03*
X441183Y552437D02*
D03*
X446183D02*
D03*
X451183D02*
D03*
X88089D02*
D03*
Y524237D02*
D03*
X93089D02*
D03*
X98089D02*
D03*
X103089D02*
D03*
X93089Y552437D02*
D03*
X98089D02*
D03*
X103089D02*
D03*
X219121D02*
D03*
X214121D02*
D03*
X209121D02*
D03*
X219121Y524237D02*
D03*
X214121D02*
D03*
X209121D02*
D03*
X204120D02*
D03*
Y552437D02*
D03*
X335152D02*
D03*
X330152D02*
D03*
X325152D02*
D03*
X335152Y524237D02*
D03*
X330152D02*
D03*
X325152D02*
D03*
X320152D02*
D03*
Y552437D02*
D03*
D49*
X438933Y531834D02*
D03*
X448433D02*
D03*
X90839D02*
D03*
X100339D02*
D03*
X216371D02*
D03*
X206871D02*
D03*
X332402D02*
D03*
X322902D02*
D03*
D50*
X439183Y541337D02*
D03*
X448183D02*
D03*
X91089D02*
D03*
X100089D02*
D03*
X216120D02*
D03*
X207120D02*
D03*
X332152D02*
D03*
X323152D02*
D03*
D51*
X429433Y538337D02*
D03*
X81339D02*
D03*
X197370D02*
D03*
X313402D02*
D03*
D52*
X76215Y464633D02*
D03*
Y454633D02*
D03*
Y444633D02*
D03*
Y434633D02*
D03*
Y349407D02*
D03*
Y359407D02*
D03*
Y369407D02*
D03*
Y379407D02*
D03*
D53*
X63048Y237937D02*
D03*
Y301437D02*
D03*
D54*
X92048Y263437D02*
D03*
Y275937D02*
D03*
D58*
X489971Y170912D02*
D03*
Y196912D02*
D03*
X389387D02*
D03*
Y170912D02*
D03*
X123005Y222169D02*
D03*
Y196169D02*
D03*
D65*
X562498Y391047D02*
D03*
Y378347D02*
D03*
Y365647D02*
D03*
Y352947D02*
D03*
X667508D02*
D03*
Y365647D02*
D03*
Y378347D02*
D03*
Y391047D02*
D03*
D66*
X120459Y378235D02*
D03*
Y460715D02*
D03*
D67*
X311598Y471842D02*
D03*
X311600Y453683D02*
D03*
X293062Y453680D02*
D03*
X293061Y471838D02*
D03*
X274524D02*
D03*
X274525Y453680D02*
D03*
X255988D02*
D03*
X255987Y471838D02*
D03*
X265373Y222888D02*
D03*
X265374Y204729D02*
D03*
X265373Y186637D02*
D03*
X265374Y168478D02*
D03*
X178467Y222888D02*
D03*
X178468Y204729D02*
D03*
X659640Y480321D02*
D03*
X659639Y498480D02*
D03*
X641009D02*
D03*
X641010Y480321D02*
D03*
X603745Y498480D02*
D03*
X603746Y480321D02*
D03*
X585113Y498480D02*
D03*
X585115Y480321D02*
D03*
X547851Y498480D02*
D03*
X547852Y480321D02*
D03*
X529222D02*
D03*
X529221Y498480D02*
D03*
X311598Y435878D02*
D03*
X311600Y417719D02*
D03*
X293061Y435878D02*
D03*
X293062Y417719D02*
D03*
X274524Y435878D02*
D03*
X274525Y417719D02*
D03*
X255987Y436502D02*
D03*
X255988Y418343D02*
D03*
X200627Y284299D02*
D03*
X200626Y302457D02*
D03*
X219450Y284299D02*
D03*
X219449Y302457D02*
D03*
X311598D02*
D03*
X311600Y284299D02*
D03*
X293061Y302457D02*
D03*
X293062Y284299D02*
D03*
X274524Y302457D02*
D03*
X274525Y284299D02*
D03*
X379721Y453894D02*
D03*
X379720Y472053D02*
D03*
X396848Y472432D02*
D03*
X396850Y454273D02*
D03*
X529879Y629986D02*
D03*
X529880Y611827D02*
D03*
X566698Y611448D02*
D03*
X566697Y629607D02*
D03*
X585105D02*
D03*
X585106Y611448D02*
D03*
X621922Y629607D02*
D03*
X621923Y611448D02*
D03*
X640838Y611827D02*
D03*
X640837Y629986D02*
D03*
X511471Y629607D02*
D03*
X511473Y611448D02*
D03*
D68*
X805003Y499997D02*
D03*
X735003D02*
D03*
D69*
X670281Y125614D02*
D03*
X654281D02*
D03*
X637899D02*
D03*
X621899D02*
D03*
X589517D02*
D03*
X605517D02*
D03*
X557136Y124958D02*
D03*
X573136D02*
D03*
X46003Y104997D02*
D03*
X62003D02*
D03*
X61863Y140600D02*
D03*
X45862D02*
D03*
X283908Y338680D02*
D03*
X299908D02*
D03*
Y324371D02*
D03*
X283908D02*
D03*
X281709Y148747D02*
D03*
X265709D02*
D03*
X494669Y124958D02*
D03*
X478669D02*
D03*
X446644D02*
D03*
X462644D02*
D03*
X430619D02*
D03*
X414619D02*
D03*
X398594D02*
D03*
X382594D02*
D03*
X639116Y425006D02*
D03*
X623116D02*
D03*
X590303D02*
D03*
X606303D02*
D03*
X573490D02*
D03*
X557490D02*
D03*
X541254D02*
D03*
X525254D02*
D03*
X61983Y659997D02*
D03*
X45983D02*
D03*
X61983Y693329D02*
D03*
X45983D02*
D03*
X178033Y612645D02*
D03*
X162033D02*
D03*
X245495Y611883D02*
D03*
X229495D02*
D03*
X378812D02*
D03*
X362812D02*
D03*
X310310D02*
D03*
X294310D02*
D03*
X178033Y580255D02*
D03*
X194033D02*
D03*
X62002D02*
D03*
X78002D02*
D03*
X294065D02*
D03*
X310065D02*
D03*
X410096D02*
D03*
X426096D02*
D03*
X711332Y491167D02*
D03*
X695332D02*
D03*
X687770Y254826D02*
D03*
X703770D02*
D03*
X687770Y297596D02*
D03*
X703770D02*
D03*
X606030Y317502D02*
D03*
X590029D02*
D03*
X670543D02*
D03*
X654543D02*
D03*
X638667D02*
D03*
X622667D02*
D03*
X574408D02*
D03*
X558408D02*
D03*
X102959Y421891D02*
D03*
X118959D02*
D03*
X118959Y439179D02*
D03*
X102959D02*
D03*
X118959Y340085D02*
D03*
X102959D02*
D03*
Y357371D02*
D03*
X118959D02*
D03*
X213495Y627123D02*
D03*
X229495D02*
D03*
X346812Y627119D02*
D03*
X362812D02*
D03*
X278310Y627123D02*
D03*
X294310D02*
D03*
X162033D02*
D03*
X146033D02*
D03*
X378812D02*
D03*
X394812D02*
D03*
X245495D02*
D03*
X261495D02*
D03*
X310310Y627119D02*
D03*
X326310D02*
D03*
X178033Y627123D02*
D03*
X194033D02*
D03*
D70*
X161703Y294997D02*
D03*
X118303D02*
D03*
D71*
X114003Y241997D02*
D03*
Y257997D02*
D03*
X131959Y241997D02*
D03*
Y257997D02*
D03*
X283010Y205748D02*
D03*
Y221748D02*
D03*
Y169997D02*
D03*
Y185997D02*
D03*
X160415Y205748D02*
D03*
Y221748D02*
D03*
X160253Y169997D02*
D03*
Y185997D02*
D03*
X623277Y480821D02*
D03*
Y496821D02*
D03*
X567383D02*
D03*
Y480821D02*
D03*
X511489Y496821D02*
D03*
Y480821D02*
D03*
X177715Y513317D02*
D03*
Y529317D02*
D03*
X162180D02*
D03*
Y513317D02*
D03*
X146778D02*
D03*
Y529317D02*
D03*
X131109Y513317D02*
D03*
Y529317D02*
D03*
X477822Y248118D02*
D03*
Y264118D02*
D03*
X461390Y263862D02*
D03*
Y247862D02*
D03*
X511473Y513317D02*
D03*
Y529317D02*
D03*
X549188Y628467D02*
D03*
Y612467D02*
D03*
X604414D02*
D03*
Y628467D02*
D03*
X659639Y612467D02*
D03*
Y628467D02*
D03*
X146778Y563116D02*
D03*
Y547116D02*
D03*
X162060Y563116D02*
D03*
Y547116D02*
D03*
X177715Y563116D02*
D03*
Y547116D02*
D03*
X246780Y563116D02*
D03*
Y547116D02*
D03*
X262810Y563116D02*
D03*
Y547116D02*
D03*
X278091Y563116D02*
D03*
Y547116D02*
D03*
X293746Y563116D02*
D03*
Y547116D02*
D03*
X247141Y513317D02*
D03*
Y529317D02*
D03*
X262810Y513317D02*
D03*
Y529317D02*
D03*
X278211D02*
D03*
Y513317D02*
D03*
X293746D02*
D03*
Y529317D02*
D03*
X363172Y513317D02*
D03*
Y529317D02*
D03*
X378841Y513317D02*
D03*
Y529317D02*
D03*
X394242D02*
D03*
Y513317D02*
D03*
X409778D02*
D03*
Y529317D02*
D03*
X494872Y513317D02*
D03*
Y529317D02*
D03*
X659639Y547284D02*
D03*
Y563284D02*
D03*
Y513317D02*
D03*
Y529317D02*
D03*
Y596101D02*
D03*
Y580101D02*
D03*
X511473Y563284D02*
D03*
Y547284D02*
D03*
Y596101D02*
D03*
Y580101D02*
D03*
X46028Y547116D02*
D03*
Y563116D02*
D03*
X362812Y547116D02*
D03*
Y563116D02*
D03*
X378841Y547116D02*
D03*
Y563116D02*
D03*
X130749Y547116D02*
D03*
Y563116D02*
D03*
X61684Y547116D02*
D03*
Y563116D02*
D03*
X479203Y529317D02*
D03*
Y513317D02*
D03*
X478843Y547116D02*
D03*
Y563116D02*
D03*
X409778Y547116D02*
D03*
Y563116D02*
D03*
X46149Y513317D02*
D03*
Y529317D02*
D03*
X61684D02*
D03*
Y513317D02*
D03*
X494872Y547116D02*
D03*
Y563116D02*
D03*
X394122Y547116D02*
D03*
Y563116D02*
D03*
X346756Y471076D02*
D03*
Y455076D02*
D03*
X329600Y455074D02*
D03*
Y471074D02*
D03*
D72*
X123672Y34842D02*
D03*
X52753Y611497D02*
D03*
D73*
X113922Y28342D02*
D03*
Y34842D02*
D03*
Y41342D02*
D03*
X133422D02*
D03*
Y34842D02*
D03*
Y28342D02*
D03*
X62503Y617997D02*
D03*
Y611497D02*
D03*
Y604997D02*
D03*
X43003D02*
D03*
Y611497D02*
D03*
Y617997D02*
D03*
D74*
X45735Y122996D02*
D03*
X63894Y122997D02*
D03*
X132023Y83519D02*
D03*
X113864Y83518D02*
D03*
Y101613D02*
D03*
X132023Y101614D02*
D03*
X114241Y119709D02*
D03*
X132400Y119711D02*
D03*
X132023Y137805D02*
D03*
X113864Y137804D02*
D03*
X132023Y155901D02*
D03*
X113864Y155900D02*
D03*
X114112Y173997D02*
D03*
X132271Y173998D02*
D03*
X523735Y124958D02*
D03*
X541894Y124959D02*
D03*
X523735Y146934D02*
D03*
X541894Y146935D02*
D03*
X523735Y168255D02*
D03*
X541894Y168256D02*
D03*
X523735Y189576D02*
D03*
X541894Y189577D02*
D03*
Y210898D02*
D03*
X523735Y210896D02*
D03*
X541894Y232218D02*
D03*
X523735Y232217D02*
D03*
X541894Y253539D02*
D03*
X523735Y253538D02*
D03*
Y274859D02*
D03*
X541894Y274860D02*
D03*
Y296181D02*
D03*
X523735Y296180D02*
D03*
X541894Y317502D02*
D03*
X523735Y317501D02*
D03*
X541894Y338823D02*
D03*
X523735Y338822D02*
D03*
X541894Y360144D02*
D03*
X523735Y360143D02*
D03*
Y381463D02*
D03*
X541894Y381465D02*
D03*
X523735Y402784D02*
D03*
X541894Y402785D02*
D03*
X686735Y425005D02*
D03*
X704894Y425006D02*
D03*
X653901Y425005D02*
D03*
X672060Y425006D02*
D03*
X44964Y676440D02*
D03*
X63123Y676441D02*
D03*
X694612Y516550D02*
D03*
X712771Y516551D02*
D03*
X814289Y158385D02*
D03*
X796131Y158384D02*
D03*
X796129Y179769D02*
D03*
X814288Y179771D02*
D03*
X796129Y201154D02*
D03*
X814288Y201156D02*
D03*
X796129Y222539D02*
D03*
X814288Y222541D02*
D03*
X686751Y168384D02*
D03*
X704910Y168386D02*
D03*
X686924Y318080D02*
D03*
X705083Y318081D02*
D03*
X704894Y360851D02*
D03*
X686735Y360850D02*
D03*
X704894Y339466D02*
D03*
X686735Y339465D02*
D03*
X705083Y382236D02*
D03*
X686924Y382235D02*
D03*
X705083Y403621D02*
D03*
X686924Y403620D02*
D03*
X703803Y125615D02*
D03*
X685644Y125614D02*
D03*
X685644Y146999D02*
D03*
X703803Y147000D02*
D03*
X686751Y189769D02*
D03*
X704910Y189771D02*
D03*
Y211156D02*
D03*
X686751Y211154D02*
D03*
Y232539D02*
D03*
X704910Y232541D02*
D03*
X686751Y275310D02*
D03*
X704910Y275311D02*
D03*
X194253Y472092D02*
D03*
X176094Y472091D02*
D03*
X194161Y377602D02*
D03*
X176002Y377601D02*
D03*
X140184Y395815D02*
D03*
X158343Y395816D02*
D03*
X175625Y453996D02*
D03*
X193784Y453997D02*
D03*
X193768Y359432D02*
D03*
X175609Y359431D02*
D03*
X158343Y413810D02*
D03*
X140184Y413809D02*
D03*
X175715Y413808D02*
D03*
X193874Y413809D02*
D03*
X175715Y395577D02*
D03*
X193874Y395578D02*
D03*
X712597Y542833D02*
D03*
X694438Y542832D02*
D03*
Y569114D02*
D03*
X712597Y569116D02*
D03*
X694438Y703374D02*
D03*
X712597Y703375D02*
D03*
Y595398D02*
D03*
X694438Y595397D02*
D03*
Y678431D02*
D03*
X712597Y678432D02*
D03*
X113985Y648997D02*
D03*
X132143Y648998D02*
D03*
Y668197D02*
D03*
X113985Y668196D02*
D03*
X132521Y687398D02*
D03*
X114362Y687397D02*
D03*
X132143Y706597D02*
D03*
X113985Y706596D02*
D03*
X132143Y725797D02*
D03*
X113985Y725796D02*
D03*
X132346Y744998D02*
D03*
X114187Y744997D02*
D03*
X426341Y698369D02*
D03*
X444500Y698370D02*
D03*
X426341Y642458D02*
D03*
X444500Y642459D02*
D03*
Y772919D02*
D03*
X426341Y772918D02*
D03*
Y717006D02*
D03*
X444500Y717007D02*
D03*
Y754282D02*
D03*
X426341Y754280D02*
D03*
Y735643D02*
D03*
X444500Y735645D02*
D03*
X426341Y679732D02*
D03*
X444500Y679733D02*
D03*
X426341Y661095D02*
D03*
X444500Y661096D02*
D03*
D75*
X302215Y385083D02*
D03*
X290902Y396397D02*
D03*
X280775Y386467D02*
D03*
X292089Y375153D02*
D03*
X234963Y346455D02*
D03*
X246276Y335141D02*
D03*
D76*
X386993Y651958D02*
D03*
X411993Y642458D02*
D03*
X386993Y689196D02*
D03*
X411993Y679696D02*
D03*
X386993Y726434D02*
D03*
X411993Y716934D02*
D03*
Y754172D02*
D03*
X386993Y763672D02*
D03*
X714305Y635403D02*
D03*
X689305Y644903D02*
D03*
X714305Y727605D02*
D03*
X689305Y737105D02*
D03*
D77*
X97992Y125175D02*
D03*
X98021Y129666D02*
D03*
X79522Y125175D02*
D03*
Y129666D02*
D03*
X79642Y682395D02*
D03*
Y677904D02*
D03*
X98142Y682395D02*
D03*
X98112Y677904D02*
D03*
D78*
X97992Y120418D02*
D03*
X79522Y134418D02*
D03*
X98021D02*
D03*
X79522Y120418D02*
D03*
X79642Y673147D02*
D03*
X98142Y687147D02*
D03*
X79642D02*
D03*
X98113Y673147D02*
D03*
D79*
X95992Y118668D02*
D03*
X81522D02*
D03*
X81522Y136168D02*
D03*
X96021D02*
D03*
X96142Y688897D02*
D03*
X81642D02*
D03*
X81642Y671397D02*
D03*
X96113D02*
D03*
D80*
X86262Y127408D02*
D03*
X91263Y127418D02*
D03*
X91383Y680147D02*
D03*
X86383Y680136D02*
D03*
D81*
X726003Y329997D02*
D03*
Y342497D02*
D03*
Y354997D02*
D03*
Y367497D02*
D03*
Y379997D02*
D03*
Y392497D02*
D03*
Y404997D02*
D03*
Y417497D02*
D03*
Y429997D02*
D03*
D82*
X755003Y455497D02*
D03*
Y304497D02*
D03*
D83*
X640003Y676497D02*
D03*
Y651497D02*
D03*
X620003Y676497D02*
D03*
Y651497D02*
D03*
X600003Y676497D02*
D03*
Y651497D02*
D03*
X580003Y676497D02*
D03*
Y651497D02*
D03*
X560003Y676497D02*
D03*
Y651497D02*
D03*
X540003Y676497D02*
D03*
Y651497D02*
D03*
X520003Y676497D02*
D03*
Y651497D02*
D03*
X500003Y676497D02*
D03*
Y651497D02*
D03*
X190003Y651497D02*
D03*
Y676497D02*
D03*
X210003Y651497D02*
D03*
Y676497D02*
D03*
X230003Y651497D02*
D03*
Y676497D02*
D03*
X250003Y651497D02*
D03*
Y676497D02*
D03*
X270003Y651497D02*
D03*
Y676497D02*
D03*
X290003Y651497D02*
D03*
Y676497D02*
D03*
X310003Y651497D02*
D03*
Y676497D02*
D03*
X330003Y651497D02*
D03*
Y676497D02*
D03*
D84*
X335627Y594990D02*
D03*
Y566527D02*
D03*
X219596Y594990D02*
D03*
Y566527D02*
D03*
X103565Y594990D02*
D03*
Y566527D02*
D03*
X451658Y594990D02*
D03*
Y566527D02*
D03*
D85*
X162381Y378871D02*
D03*
X155881D02*
D03*
X149381D02*
D03*
X142881D02*
D03*
X162381Y337871D02*
D03*
X155881D02*
D03*
X149381D02*
D03*
X142881D02*
D03*
X162381Y472525D02*
D03*
X155881D02*
D03*
X149381D02*
D03*
X142881D02*
D03*
X162381Y431525D02*
D03*
X155881D02*
D03*
X149381D02*
D03*
X142881D02*
D03*
D86*
X637981Y582592D02*
D03*
X625281D02*
D03*
X612581D02*
D03*
X599881D02*
D03*
X637981Y526092D02*
D03*
X625281D02*
D03*
X612581D02*
D03*
X599881D02*
D03*
X533841Y526092D02*
D03*
X546541D02*
D03*
X559241D02*
D03*
X571941D02*
D03*
X533841Y582592D02*
D03*
X546541D02*
D03*
X559241D02*
D03*
X571941D02*
D03*
D87*
X50415Y421633D02*
D03*
Y477633D02*
D03*
Y336407D02*
D03*
Y392407D02*
D03*
D88*
X237849Y280824D02*
D03*
X256849D02*
D03*
X237849Y304824D02*
D03*
X247349D02*
D03*
X256849D02*
D03*
X247349Y280824D02*
D03*
D89*
X259314Y346621D02*
D03*
X274871Y362177D02*
D03*
X263557Y373491D02*
D03*
X248001Y357934D02*
D03*
D90*
X249227Y383654D02*
D03*
X237914Y372340D02*
D03*
D91*
X414587Y152085D02*
D03*
X427287D02*
D03*
X439987D02*
D03*
X452687D02*
D03*
X465387D02*
D03*
D92*
X439987Y212585D02*
D03*
D93*
X335001Y152997D02*
D03*
Y207497D02*
D03*
D94*
X638431Y144342D02*
D03*
Y157042D02*
D03*
Y169742D02*
D03*
Y182442D02*
D03*
X589031D02*
D03*
Y169742D02*
D03*
Y157042D02*
D03*
Y144342D02*
D03*
D95*
X567519Y291167D02*
D03*
Y278467D02*
D03*
Y265767D02*
D03*
Y253067D02*
D03*
Y240367D02*
D03*
Y227667D02*
D03*
Y214967D02*
D03*
Y202267D02*
D03*
X660519D02*
D03*
Y214967D02*
D03*
Y227667D02*
D03*
Y240367D02*
D03*
Y253067D02*
D03*
Y265767D02*
D03*
Y278467D02*
D03*
Y291167D02*
D03*
D96*
X101459Y378235D02*
D03*
X110959Y403235D02*
D03*
X101459Y460715D02*
D03*
X110959Y485715D02*
D03*
D97*
X734603Y642165D02*
D03*
Y544597D02*
D03*
D98*
Y667565D02*
D03*
Y692965D02*
D03*
Y718365D02*
D03*
Y743765D02*
D03*
Y569997D02*
D03*
Y595397D02*
D03*
D99*
X477503Y739997D02*
D03*
X662503D02*
D03*
X477503Y692497D02*
D03*
X662503D02*
D03*
X352503Y692497D02*
D03*
X167503D02*
D03*
X352503Y739997D02*
D03*
X167503D02*
D03*
X607503Y36197D02*
D03*
X242503Y83797D02*
D03*
X607503D02*
D03*
X242503Y36197D02*
D03*
D100*
X762703Y215397D02*
D03*
Y189997D02*
D03*
X737303Y266197D02*
D03*
X762703D02*
D03*
X737303Y240797D02*
D03*
X762703D02*
D03*
X737303Y215397D02*
D03*
Y189997D02*
D03*
Y164597D02*
D03*
X762703D02*
D03*
X737303Y139197D02*
D03*
X762703D02*
D03*
X737303Y113797D02*
D03*
D101*
X762703D02*
D03*
D102*
X19563Y52437D02*
D03*
X52443Y19557D02*
D03*
X19563D02*
D03*
X52443Y52437D02*
D03*
X59253Y35997D02*
D03*
X36003Y13137D02*
D03*
X12753Y35997D02*
D03*
X36003Y59247D02*
D03*
X797563Y52437D02*
D03*
X830443Y19557D02*
D03*
X797563D02*
D03*
X830443Y52437D02*
D03*
X837253Y35997D02*
D03*
X814003Y13137D02*
D03*
X790753Y35997D02*
D03*
X814003Y59247D02*
D03*
X19563Y830437D02*
D03*
X52443Y797557D02*
D03*
X19563D02*
D03*
X52443Y830437D02*
D03*
X59253Y813997D02*
D03*
X36003Y791137D02*
D03*
X12753Y813997D02*
D03*
X36003Y837247D02*
D03*
X797563Y830437D02*
D03*
X830443Y797557D02*
D03*
X797563D02*
D03*
X830443Y830437D02*
D03*
X837253Y813997D02*
D03*
X814003Y791137D02*
D03*
X790753Y813997D02*
D03*
X814003Y837247D02*
D03*
D103*
X36003Y35997D02*
D03*
X814003D02*
D03*
X36003Y813997D02*
D03*
X814003D02*
D03*
D104*
X836321Y843614D02*
D03*
X843620Y526780D02*
D03*
X6386Y35503D02*
D03*
X843620Y586779D02*
D03*
X6386Y645502D02*
D03*
Y425503D02*
D03*
Y405503D02*
D03*
X740856Y6379D02*
D03*
X250858D02*
D03*
X460857D02*
D03*
X660857D02*
D03*
X843620Y406780D02*
D03*
X316322Y843614D02*
D03*
X26323D02*
D03*
X730856Y6379D02*
D03*
X416322Y843614D02*
D03*
X6386Y335503D02*
D03*
X400857Y6379D02*
D03*
X843620Y306780D02*
D03*
X246322Y843614D02*
D03*
X496322D02*
D03*
X6386Y715502D02*
D03*
Y385503D02*
D03*
Y255503D02*
D03*
Y835502D02*
D03*
X843620Y156780D02*
D03*
X806321Y843614D02*
D03*
X430857Y6379D02*
D03*
X100858D02*
D03*
X736321Y843614D02*
D03*
X843620Y186780D02*
D03*
X66323Y843614D02*
D03*
X160858Y6379D02*
D03*
X6386Y545503D02*
D03*
X440857Y6379D02*
D03*
X280857D02*
D03*
X843620Y216780D02*
D03*
X396322Y843614D02*
D03*
X630857Y6379D02*
D03*
X366322Y843614D02*
D03*
X326322D02*
D03*
X6386Y305503D02*
D03*
X30858Y6379D02*
D03*
X390857D02*
D03*
X6386Y775502D02*
D03*
Y735502D02*
D03*
Y665502D02*
D03*
X470857Y6379D02*
D03*
X560857D02*
D03*
X843620Y616779D02*
D03*
X6386Y635502D02*
D03*
X126323Y843614D02*
D03*
X6386Y455503D02*
D03*
X96323Y843614D02*
D03*
X843620Y176780D02*
D03*
X6386Y355503D02*
D03*
X843620Y786779D02*
D03*
X700857Y6379D02*
D03*
X600857D02*
D03*
X716321Y843614D02*
D03*
X586322D02*
D03*
X843620Y366780D02*
D03*
Y556779D02*
D03*
X556322Y843614D02*
D03*
X610857Y6379D02*
D03*
X356322Y843614D02*
D03*
X843620Y86780D02*
D03*
X6386Y525503D02*
D03*
X670857Y6379D02*
D03*
X6386Y815502D02*
D03*
X843620Y276780D02*
D03*
Y66780D02*
D03*
X686321Y843614D02*
D03*
X20858Y6379D02*
D03*
X230858D02*
D03*
X6386Y595502D02*
D03*
X650857Y6379D02*
D03*
X843620Y566779D02*
D03*
X606322Y843614D02*
D03*
X780856Y6379D02*
D03*
X526322Y843614D02*
D03*
X210858Y6379D02*
D03*
X450857D02*
D03*
X6386Y795502D02*
D03*
X150858Y6379D02*
D03*
X843620Y476780D02*
D03*
X216322Y843614D02*
D03*
X816321D02*
D03*
X6386Y465503D02*
D03*
X260857Y6379D02*
D03*
X843620Y16781D02*
D03*
X6386Y535503D02*
D03*
X843620Y426780D02*
D03*
X6386Y625502D02*
D03*
X380857Y6379D02*
D03*
X590857D02*
D03*
X12233Y843614D02*
D03*
X843620Y416780D02*
D03*
Y686779D02*
D03*
X506322Y843614D02*
D03*
X6386Y165503D02*
D03*
X843620Y316780D02*
D03*
X386322Y843614D02*
D03*
X6386Y435503D02*
D03*
X770856Y6379D02*
D03*
X320857D02*
D03*
X843620Y726779D02*
D03*
Y266780D02*
D03*
X540857Y6379D02*
D03*
X536322Y843614D02*
D03*
X170858Y6379D02*
D03*
X830856D02*
D03*
X843620Y706779D02*
D03*
X6386Y225503D02*
D03*
X240858Y6379D02*
D03*
X843620Y806779D02*
D03*
X6386Y125503D02*
D03*
X843620Y146780D02*
D03*
Y126780D02*
D03*
Y206780D02*
D03*
X6386Y825502D02*
D03*
Y565503D02*
D03*
X156323Y843614D02*
D03*
X136323D02*
D03*
X790856Y6379D02*
D03*
X86323Y843614D02*
D03*
X6386Y765502D02*
D03*
X290857Y6379D02*
D03*
X6386Y185503D02*
D03*
Y275503D02*
D03*
X436322Y843614D02*
D03*
X576322D02*
D03*
X820856Y6379D02*
D03*
X286322Y843614D02*
D03*
X843620Y356780D02*
D03*
X550857Y6379D02*
D03*
X843620Y576779D02*
D03*
X746321Y843614D02*
D03*
X546322D02*
D03*
X843620Y196780D02*
D03*
X370857Y6379D02*
D03*
X426322Y843614D02*
D03*
X6386Y785502D02*
D03*
Y745502D02*
D03*
X676322Y843614D02*
D03*
X306322D02*
D03*
X276322D02*
D03*
X186322D02*
D03*
X106323D02*
D03*
X6386Y575502D02*
D03*
X843620Y646779D02*
D03*
Y776779D02*
D03*
X330857Y6379D02*
D03*
X843620Y226780D02*
D03*
Y346780D02*
D03*
Y746779D02*
D03*
X616322Y843614D02*
D03*
X376322D02*
D03*
X796321D02*
D03*
X346322D02*
D03*
X176323D02*
D03*
X70858Y6379D02*
D03*
X6386Y615502D02*
D03*
X266322Y843614D02*
D03*
X340857Y6379D02*
D03*
X843620Y246780D02*
D03*
Y736779D02*
D03*
X110858Y6379D02*
D03*
X6386Y95503D02*
D03*
X843620Y436780D02*
D03*
X656322Y843614D02*
D03*
X480857Y6379D02*
D03*
X843620Y456780D02*
D03*
X296322Y843614D02*
D03*
X760856Y6379D02*
D03*
X510857D02*
D03*
X843620Y626779D02*
D03*
Y756779D02*
D03*
X80858Y6379D02*
D03*
X696321Y843614D02*
D03*
X46323D02*
D03*
X6386Y175503D02*
D03*
X350857Y6379D02*
D03*
X843620Y466780D02*
D03*
X776321Y843614D02*
D03*
X420857Y6379D02*
D03*
X843620Y336780D02*
D03*
X6386Y485503D02*
D03*
X843620Y166780D02*
D03*
X6386Y85503D02*
D03*
X336322Y843614D02*
D03*
X6386Y695502D02*
D03*
Y755502D02*
D03*
X486322Y843614D02*
D03*
X6386Y705502D02*
D03*
X200858Y6379D02*
D03*
X500857D02*
D03*
X6386Y585502D02*
D03*
X50858Y6379D02*
D03*
X620857D02*
D03*
X843620Y296780D02*
D03*
Y116780D02*
D03*
Y796779D02*
D03*
Y506780D02*
D03*
X726321Y843614D02*
D03*
X456322D02*
D03*
X843620Y816779D02*
D03*
Y596779D02*
D03*
X786321Y843614D02*
D03*
X636322D02*
D03*
X6386Y45504D02*
D03*
X466322Y843614D02*
D03*
X843620Y46780D02*
D03*
X490857Y6379D02*
D03*
X6386Y265503D02*
D03*
Y15504D02*
D03*
X843620Y516780D02*
D03*
X566322Y843614D02*
D03*
X166323D02*
D03*
X6386Y605502D02*
D03*
X180858Y6379D02*
D03*
X6386Y155503D02*
D03*
Y105503D02*
D03*
X843620Y36780D02*
D03*
X236322Y843614D02*
D03*
X6386Y395503D02*
D03*
Y725502D02*
D03*
Y515503D02*
D03*
Y805502D02*
D03*
Y75503D02*
D03*
X646322Y843614D02*
D03*
X6386Y135503D02*
D03*
Y145503D02*
D03*
X640857Y6379D02*
D03*
X843620Y26781D02*
D03*
X360857Y6379D02*
D03*
X6386Y445503D02*
D03*
X843620Y106780D02*
D03*
X406322Y843614D02*
D03*
X256322D02*
D03*
X6386Y365503D02*
D03*
X190858Y6379D02*
D03*
X666322Y843614D02*
D03*
X6386Y295503D02*
D03*
X843620Y396780D02*
D03*
X6386Y345503D02*
D03*
X843620Y536779D02*
D03*
X60858Y6379D02*
D03*
X843620Y666779D02*
D03*
X570857Y6379D02*
D03*
X766321Y843614D02*
D03*
X56323D02*
D03*
X6386Y505503D02*
D03*
X530857Y6379D02*
D03*
X6386Y65504D02*
D03*
X270857Y6379D02*
D03*
X196322Y843614D02*
D03*
X76323D02*
D03*
X843620Y256780D02*
D03*
X6386Y495503D02*
D03*
X843620Y286780D02*
D03*
Y326780D02*
D03*
Y376780D02*
D03*
Y446780D02*
D03*
X626322Y843614D02*
D03*
X300857Y6379D02*
D03*
X6386Y55504D02*
D03*
X690857Y6379D02*
D03*
X843620Y56780D02*
D03*
Y546779D02*
D03*
Y606779D02*
D03*
X520857Y6379D02*
D03*
X750856D02*
D03*
X840824Y7179D02*
D03*
X843620Y826779D02*
D03*
X6386Y315503D02*
D03*
X800856Y6379D02*
D03*
X706321Y843614D02*
D03*
X40858Y6379D02*
D03*
X446322Y843614D02*
D03*
X843620Y696779D02*
D03*
X410857Y6379D02*
D03*
X206322Y843614D02*
D03*
X10860Y6560D02*
D03*
X843620Y656779D02*
D03*
Y716779D02*
D03*
X680857Y6379D02*
D03*
X6386Y555503D02*
D03*
X580857Y6379D02*
D03*
X843620Y676779D02*
D03*
X826321Y843614D02*
D03*
X843620Y76780D02*
D03*
Y836779D02*
D03*
X36323Y843614D02*
D03*
X843620Y136780D02*
D03*
X6386Y285503D02*
D03*
X146323Y843614D02*
D03*
X6386Y685502D02*
D03*
X226322Y843614D02*
D03*
X310857Y6379D02*
D03*
X843620Y96780D02*
D03*
Y766779D02*
D03*
X476322Y843614D02*
D03*
X810856Y6379D02*
D03*
X843620Y636779D02*
D03*
X120858Y6379D02*
D03*
X116323Y843614D02*
D03*
X756321D02*
D03*
X6386Y325503D02*
D03*
X90858Y6379D02*
D03*
X6386Y25503D02*
D03*
X220858Y6379D02*
D03*
X843620Y386780D02*
D03*
X516322Y843614D02*
D03*
X140858Y6379D02*
D03*
X6386Y655502D02*
D03*
Y115503D02*
D03*
Y375503D02*
D03*
Y215503D02*
D03*
Y475503D02*
D03*
X843620Y236780D02*
D03*
X596322Y843614D02*
D03*
X6386Y245503D02*
D03*
Y235503D02*
D03*
Y415503D02*
D03*
Y675502D02*
D03*
Y205503D02*
D03*
Y195503D02*
D03*
X130858Y6379D02*
D03*
X710856D02*
D03*
X720856D02*
D03*
X843620Y486780D02*
D03*
Y496780D02*
D03*
M02*
