G04*
G04 #@! TF.GenerationSoftware,Altium Limited,Altium Designer,24.1.2 (44)*
G04*
G04 Layer_Color=128*
%FSLAX44Y44*%
%MOMM*%
G71*
G04*
G04 #@! TF.SameCoordinates,9C78AE07-0A78-4655-BEE4-92392129F010*
G04*
G04*
G04 #@! TF.FilePolarity,Positive*
G04*
G01*
G75*
%ADD20C,0.1270*%
D20*
X757603Y113797D02*
X767803D01*
X762703Y108697D02*
Y118897D01*
X732203Y113797D02*
X742403D01*
X737303Y108697D02*
Y118897D01*
X757603Y139197D02*
X767803D01*
X762703Y134097D02*
Y144297D01*
X732203Y139197D02*
X742403D01*
X737303Y134097D02*
Y144297D01*
X757603Y164597D02*
X767803D01*
X762703Y159497D02*
Y169697D01*
X732203Y164597D02*
X742403D01*
X737303Y159497D02*
Y169697D01*
X732203Y189997D02*
X742403D01*
X737303Y184897D02*
Y195097D01*
X732203Y215397D02*
X742403D01*
X737303Y210297D02*
Y220497D01*
X757603Y240797D02*
X767803D01*
X762703Y235697D02*
Y245897D01*
X732203Y240797D02*
X742403D01*
X737303Y235697D02*
Y245897D01*
X757603Y266197D02*
X767803D01*
X762703Y261097D02*
Y271297D01*
X732203Y266197D02*
X742403D01*
X737303Y261097D02*
Y271297D01*
X757603Y189997D02*
X767803D01*
X762703Y184897D02*
Y195097D01*
X757603Y215397D02*
X767803D01*
X762703Y210297D02*
Y220497D01*
X219253Y151497D02*
X221253D01*
X220253Y150497D02*
Y152497D01*
X206253Y151497D02*
X208253D01*
X207253Y150497D02*
Y152497D01*
X219253Y164497D02*
X221253D01*
X220253Y163497D02*
Y165497D01*
X206253Y164497D02*
X208253D01*
X207253Y163497D02*
Y165497D01*
X219253Y177497D02*
X221253D01*
X220253Y176497D02*
Y178497D01*
X206253Y177497D02*
X208253D01*
X207253Y176497D02*
Y178497D01*
X797503Y813997D02*
X830503D01*
X814003Y797497D02*
Y830497D01*
X811503Y837247D02*
X816503D01*
X814003Y834747D02*
Y839747D01*
X788253Y813997D02*
X793253D01*
X790753Y811497D02*
Y816497D01*
X811503Y791137D02*
X816503D01*
X814003Y788637D02*
Y793637D01*
X834753Y813997D02*
X839753D01*
X837253Y811497D02*
Y816497D01*
X827943Y830437D02*
X832943D01*
X830443Y827937D02*
Y832937D01*
X795063Y797557D02*
X800063D01*
X797563Y795057D02*
Y800057D01*
X827943Y797557D02*
X832943D01*
X830443Y795057D02*
Y800057D01*
X795063Y830437D02*
X800063D01*
X797563Y827937D02*
Y832937D01*
X729103Y642165D02*
X740103D01*
X734603Y636665D02*
Y647665D01*
X729103Y667565D02*
X740103D01*
X734603Y662065D02*
Y673065D01*
X729103Y692965D02*
X740103D01*
X734603Y687465D02*
Y698465D01*
X729103Y718365D02*
X740103D01*
X734603Y712865D02*
Y723865D01*
X729103Y743765D02*
X740103D01*
X734603Y738265D02*
Y749265D01*
X729103Y544597D02*
X740103D01*
X734603Y539097D02*
Y550097D01*
X729103Y569997D02*
X740103D01*
X734603Y564497D02*
Y575497D01*
X729103Y595397D02*
X740103D01*
X734603Y589897D02*
Y600897D01*
X472753Y739997D02*
X482253D01*
X477503Y735247D02*
Y744747D01*
X657753Y739997D02*
X667253D01*
X662503Y735247D02*
Y744747D01*
X472753Y692497D02*
X482253D01*
X477503Y687747D02*
Y697247D01*
X657753Y692497D02*
X667253D01*
X662503Y687747D02*
Y697247D01*
X347753Y692497D02*
X357253D01*
X352503Y687747D02*
Y697247D01*
X162753Y692497D02*
X172253D01*
X167503Y687747D02*
Y697247D01*
X347753Y739997D02*
X357253D01*
X352503Y735247D02*
Y744747D01*
X162753Y739997D02*
X172253D01*
X167503Y735247D02*
Y744747D01*
X602753Y36197D02*
X612253D01*
X607503Y31447D02*
Y40947D01*
X237753Y83797D02*
X247253D01*
X242503Y79047D02*
Y88547D01*
X602753Y83797D02*
X612253D01*
X607503Y79047D02*
Y88547D01*
X237753Y36197D02*
X247253D01*
X242503Y31447D02*
Y40947D01*
X17063Y52437D02*
X22063D01*
X19563Y49937D02*
Y54937D01*
X49943Y19557D02*
X54943D01*
X52443Y17057D02*
Y22057D01*
X17063Y19557D02*
X22063D01*
X19563Y17057D02*
Y22057D01*
X49943Y52437D02*
X54943D01*
X52443Y49937D02*
Y54937D01*
X56753Y35997D02*
X61753D01*
X59253Y33497D02*
Y38497D01*
X33503Y13137D02*
X38503D01*
X36003Y10637D02*
Y15637D01*
X10253Y35997D02*
X15253D01*
X12753Y33497D02*
Y38497D01*
X33503Y59247D02*
X38503D01*
X36003Y56747D02*
Y61747D01*
X19503Y35997D02*
X52503D01*
X36003Y19497D02*
Y52497D01*
X795063Y52437D02*
X800063D01*
X797563Y49937D02*
Y54937D01*
X827943Y19557D02*
X832943D01*
X830443Y17057D02*
Y22057D01*
X795063Y19557D02*
X800063D01*
X797563Y17057D02*
Y22057D01*
X827943Y52437D02*
X832943D01*
X830443Y49937D02*
Y54937D01*
X834753Y35997D02*
X839753D01*
X837253Y33497D02*
Y38497D01*
X811503Y13137D02*
X816503D01*
X814003Y10637D02*
Y15637D01*
X788253Y35997D02*
X793253D01*
X790753Y33497D02*
Y38497D01*
X811503Y59247D02*
X816503D01*
X814003Y56747D02*
Y61747D01*
X797503Y35997D02*
X830503D01*
X814003Y19497D02*
Y52497D01*
X17063Y830437D02*
X22063D01*
X19563Y827937D02*
Y832937D01*
X49943Y797557D02*
X54943D01*
X52443Y795057D02*
Y800057D01*
X17063Y797557D02*
X22063D01*
X19563Y795057D02*
Y800057D01*
X49943Y830437D02*
X54943D01*
X52443Y827937D02*
Y832937D01*
X56753Y813997D02*
X61753D01*
X59253Y811497D02*
Y816497D01*
X33503Y791137D02*
X38503D01*
X36003Y788637D02*
Y793637D01*
X10253Y813997D02*
X15253D01*
X12753Y811497D02*
Y816497D01*
X33503Y837247D02*
X38503D01*
X36003Y834747D02*
Y839747D01*
X19503Y813997D02*
X52503D01*
X36003Y797497D02*
Y830497D01*
X589227Y417639D02*
X591227D01*
X590227Y416639D02*
Y418639D01*
X255635Y289921D02*
X257635D01*
X256635Y288921D02*
Y290921D01*
X49415Y392407D02*
X51415D01*
X50415Y391407D02*
Y393406D01*
X45149Y477633D02*
X47148D01*
X46149Y476633D02*
Y478633D01*
X49415Y421633D02*
X51415D01*
X50415Y420633D02*
Y422633D01*
X49415Y336407D02*
X51415D01*
X50415Y335406D02*
Y337407D01*
X191281Y205748D02*
X193281D01*
X192281Y204748D02*
Y206748D01*
X191281Y216151D02*
X193281D01*
X192281Y215151D02*
Y217151D01*
X226286Y315782D02*
X228286D01*
X227286Y314782D02*
Y316782D01*
X186286Y315782D02*
X188286D01*
X187286Y314782D02*
Y316782D01*
X826286Y475782D02*
X828286D01*
X827286Y474782D02*
Y476782D01*
X106286Y635782D02*
X108286D01*
X107286Y634782D02*
Y636782D01*
X409096Y627623D02*
X411096D01*
X410096Y626623D02*
Y628623D01*
X726286Y515782D02*
X728286D01*
X727286Y514782D02*
Y516782D01*
X841125Y8881D02*
X843125D01*
X842125Y7881D02*
Y9881D01*
X832882Y6347D02*
X834882D01*
X833882Y5347D02*
Y7347D01*
X821198Y6858D02*
X823198D01*
X822198Y5858D02*
Y7858D01*
X5021Y795118D02*
X7021D01*
X6021Y794118D02*
Y796118D01*
X748271Y234831D02*
X750271D01*
X749271Y233831D02*
Y235831D01*
X446040Y193548D02*
X448040D01*
X447040Y192548D02*
Y194548D01*
X552215Y157042D02*
X554215D01*
X553215Y156042D02*
Y158042D01*
X486132Y109872D02*
X488132D01*
X487132Y108872D02*
Y110872D01*
X405908Y110744D02*
X407908D01*
X406908Y109744D02*
Y111744D01*
X794220Y844373D02*
X796220D01*
X795220Y843373D02*
Y845373D01*
X805283Y844220D02*
X807283D01*
X806283Y843220D02*
Y845220D01*
X843819Y795831D02*
X845819D01*
X844819Y794831D02*
Y796831D01*
X843804Y806704D02*
X845804D01*
X844804Y805704D02*
Y807704D01*
X842620Y496780D02*
X844620D01*
X843620Y495779D02*
Y497780D01*
X842620Y486780D02*
X844620D01*
X843620Y485779D02*
Y487780D01*
X719856Y6379D02*
X721857D01*
X720856Y5379D02*
Y7379D01*
X709856Y6379D02*
X711857D01*
X710856Y5379D02*
Y7379D01*
X129858Y6379D02*
X131858D01*
X130858Y5379D02*
Y7379D01*
X5386Y195503D02*
X7386D01*
X6386Y194503D02*
Y196503D01*
X5386Y205503D02*
X7386D01*
X6386Y204503D02*
Y206503D01*
X5386Y675502D02*
X7386D01*
X6386Y674502D02*
Y676502D01*
X5386Y415503D02*
X7386D01*
X6386Y414503D02*
Y416503D01*
X5386Y235503D02*
X7386D01*
X6386Y234503D02*
Y236503D01*
X5386Y245503D02*
X7386D01*
X6386Y244503D02*
Y246503D01*
X595322Y843614D02*
X597322D01*
X596322Y842614D02*
Y844614D01*
X842620Y236780D02*
X844620D01*
X843620Y235780D02*
Y237780D01*
X5386Y475503D02*
X7386D01*
X6386Y474503D02*
Y476503D01*
X5386Y215503D02*
X7386D01*
X6386Y214503D02*
Y216503D01*
X5386Y375503D02*
X7386D01*
X6386Y374503D02*
Y376503D01*
X5386Y115503D02*
X7386D01*
X6386Y114503D02*
Y116503D01*
X5386Y655502D02*
X7386D01*
X6386Y654502D02*
Y656502D01*
X139858Y6379D02*
X141858D01*
X140858Y5379D02*
Y7379D01*
X515322Y843614D02*
X517322D01*
X516322Y842614D02*
Y844614D01*
X842620Y386780D02*
X844620D01*
X843620Y385780D02*
Y387780D01*
X219858Y6379D02*
X221857D01*
X220858Y5379D02*
Y7379D01*
X5386Y25503D02*
X7386D01*
X6386Y24504D02*
Y26504D01*
X89858Y6379D02*
X91858D01*
X90858Y5379D02*
Y7379D01*
X5386Y325503D02*
X7386D01*
X6386Y324503D02*
Y326503D01*
X755321Y843614D02*
X757321D01*
X756321Y842614D02*
Y844614D01*
X115323Y843614D02*
X117323D01*
X116323Y842614D02*
Y844614D01*
X119858Y6379D02*
X121858D01*
X120858Y5379D02*
Y7379D01*
X842620Y636779D02*
X844620D01*
X843620Y635779D02*
Y637779D01*
X809856Y6379D02*
X811856D01*
X810856Y5379D02*
Y7379D01*
X475322Y843614D02*
X477322D01*
X476322Y842614D02*
Y844614D01*
X842620Y766779D02*
X844620D01*
X843620Y765779D02*
Y767779D01*
X842620Y96780D02*
X844620D01*
X843620Y95780D02*
Y97780D01*
X309857Y6379D02*
X311857D01*
X310857Y5379D02*
Y7379D01*
X225322Y843614D02*
X227323D01*
X226322Y842614D02*
Y844614D01*
X5386Y685502D02*
X7386D01*
X6386Y684502D02*
Y686502D01*
X145323Y843614D02*
X147323D01*
X146323Y842614D02*
Y844614D01*
X5386Y285503D02*
X7386D01*
X6386Y284503D02*
Y286503D01*
X842620Y136780D02*
X844620D01*
X843620Y135780D02*
Y137780D01*
X35323Y843614D02*
X37323D01*
X36323Y842614D02*
Y844614D01*
X842620Y836779D02*
X844620D01*
X843620Y835779D02*
Y837779D01*
X842620Y76780D02*
X844620D01*
X843620Y75780D02*
Y77780D01*
X825321Y843614D02*
X827321D01*
X826321Y842614D02*
Y844614D01*
X842620Y676779D02*
X844620D01*
X843620Y675779D02*
Y677779D01*
X579857Y6379D02*
X581857D01*
X580857Y5379D02*
Y7379D01*
X5386Y555503D02*
X7386D01*
X6386Y554502D02*
Y556502D01*
X679857Y6379D02*
X681857D01*
X680857Y5379D02*
Y7379D01*
X842620Y716779D02*
X844620D01*
X843620Y715779D02*
Y717779D01*
X842620Y656779D02*
X844620D01*
X843620Y655779D02*
Y657779D01*
X9860Y6560D02*
X11860D01*
X10860Y5560D02*
Y7560D01*
X205322Y843614D02*
X207323D01*
X206322Y842614D02*
Y844614D01*
X409857Y6379D02*
X411857D01*
X410857Y5379D02*
Y7379D01*
X842620Y696779D02*
X844620D01*
X843620Y695779D02*
Y697779D01*
X445322Y843614D02*
X447322D01*
X446322Y842614D02*
Y844614D01*
X39858Y6379D02*
X41858D01*
X40858Y5379D02*
Y7379D01*
X705322Y843614D02*
X707321D01*
X706321Y842614D02*
Y844614D01*
X799856Y6379D02*
X801856D01*
X800856Y5379D02*
Y7379D01*
X5386Y315503D02*
X7386D01*
X6386Y314503D02*
Y316503D01*
X842620Y826779D02*
X844620D01*
X843620Y825779D02*
Y827779D01*
X749856Y6379D02*
X751857D01*
X750856Y5379D02*
Y7379D01*
X519857Y6379D02*
X521857D01*
X520857Y5379D02*
Y7379D01*
X842620Y606779D02*
X844620D01*
X843620Y605779D02*
Y607779D01*
X842620Y546779D02*
X844620D01*
X843620Y545779D02*
Y547779D01*
X842620Y56780D02*
X844620D01*
X843620Y55780D02*
Y57780D01*
X689857Y6379D02*
X691857D01*
X690857Y5379D02*
Y7379D01*
X5386Y55504D02*
X7386D01*
X6386Y54503D02*
Y56504D01*
X299857Y6379D02*
X301857D01*
X300857Y5379D02*
Y7379D01*
X625322Y843614D02*
X627322D01*
X626322Y842614D02*
Y844614D01*
X842620Y446780D02*
X844620D01*
X843620Y445780D02*
Y447780D01*
X842620Y376780D02*
X844620D01*
X843620Y375780D02*
Y377780D01*
X842620Y326780D02*
X844620D01*
X843620Y325780D02*
Y327780D01*
X842620Y286780D02*
X844620D01*
X843620Y285780D02*
Y287780D01*
X5386Y495503D02*
X7386D01*
X6386Y494503D02*
Y496503D01*
X842620Y256780D02*
X844620D01*
X843620Y255780D02*
Y257780D01*
X75323Y843614D02*
X77323D01*
X76323Y842614D02*
Y844614D01*
X195322Y843614D02*
X197323D01*
X196322Y842614D02*
Y844614D01*
X269857Y6379D02*
X271857D01*
X270857Y5379D02*
Y7379D01*
X5386Y65504D02*
X7386D01*
X6386Y64503D02*
Y66503D01*
X529857Y6379D02*
X531857D01*
X530857Y5379D02*
Y7379D01*
X5386Y505503D02*
X7386D01*
X6386Y504503D02*
Y506503D01*
X55323Y843614D02*
X57323D01*
X56323Y842614D02*
Y844614D01*
X765321Y843614D02*
X767321D01*
X766321Y842614D02*
Y844614D01*
X569857Y6379D02*
X571857D01*
X570857Y5379D02*
Y7379D01*
X842620Y666779D02*
X844620D01*
X843620Y665779D02*
Y667779D01*
X59858Y6379D02*
X61858D01*
X60858Y5379D02*
Y7379D01*
X842620Y536779D02*
X844620D01*
X843620Y535779D02*
Y537779D01*
X5386Y345503D02*
X7386D01*
X6386Y344503D02*
Y346503D01*
X842620Y396780D02*
X844620D01*
X843620Y395780D02*
Y397780D01*
X5386Y295503D02*
X7386D01*
X6386Y294503D02*
Y296503D01*
X665322Y843614D02*
X667322D01*
X666322Y842614D02*
Y844614D01*
X189858Y6379D02*
X191858D01*
X190858Y5379D02*
Y7379D01*
X5386Y365503D02*
X7386D01*
X6386Y364503D02*
Y366503D01*
X255322Y843614D02*
X257322D01*
X256322Y842614D02*
Y844614D01*
X405322Y843614D02*
X407322D01*
X406322Y842614D02*
Y844614D01*
X842620Y106780D02*
X844620D01*
X843620Y105780D02*
Y107780D01*
X5386Y445503D02*
X7386D01*
X6386Y444503D02*
Y446503D01*
X359857Y6379D02*
X361857D01*
X360857Y5379D02*
Y7379D01*
X842620Y26781D02*
X844620D01*
X843620Y25780D02*
Y27780D01*
X639857Y6379D02*
X641857D01*
X640857Y5379D02*
Y7379D01*
X5386Y145503D02*
X7386D01*
X6386Y144503D02*
Y146503D01*
X5386Y135503D02*
X7386D01*
X6386Y134503D02*
Y136503D01*
X645322Y843614D02*
X647322D01*
X646322Y842614D02*
Y844614D01*
X5386Y75503D02*
X7386D01*
X6386Y74503D02*
Y76503D01*
X5386Y805502D02*
X7386D01*
X6386Y804502D02*
Y806502D01*
X5386Y515503D02*
X7386D01*
X6386Y514503D02*
Y516502D01*
X5386Y725502D02*
X7386D01*
X6386Y724502D02*
Y726502D01*
X5386Y395503D02*
X7386D01*
X6386Y394503D02*
Y396503D01*
X235322Y843614D02*
X237322D01*
X236322Y842614D02*
Y844614D01*
X842620Y36780D02*
X844620D01*
X843620Y35780D02*
Y37780D01*
X5386Y105503D02*
X7386D01*
X6386Y104503D02*
Y106503D01*
X5386Y155503D02*
X7386D01*
X6386Y154503D02*
Y156503D01*
X179858Y6379D02*
X181858D01*
X180858Y5379D02*
Y7379D01*
X5386Y605502D02*
X7386D01*
X6386Y604502D02*
Y606502D01*
X165323Y843614D02*
X167323D01*
X166323Y842614D02*
Y844614D01*
X565322Y843614D02*
X567322D01*
X566322Y842614D02*
Y844614D01*
X842620Y516780D02*
X844620D01*
X843620Y515779D02*
Y517780D01*
X5386Y15504D02*
X7386D01*
X6386Y14504D02*
Y16503D01*
X5386Y265503D02*
X7386D01*
X6386Y264503D02*
Y266503D01*
X489857Y6379D02*
X491857D01*
X490857Y5379D02*
Y7379D01*
X842620Y46780D02*
X844620D01*
X843620Y45780D02*
Y47780D01*
X465322Y843614D02*
X467322D01*
X466322Y842614D02*
Y844614D01*
X5386Y45504D02*
X7386D01*
X6386Y44503D02*
Y46504D01*
X635322Y843614D02*
X637322D01*
X636322Y842614D02*
Y844614D01*
X785321Y843614D02*
X787321D01*
X786321Y842614D02*
Y844614D01*
X842620Y596779D02*
X844620D01*
X843620Y595779D02*
Y597779D01*
X842620Y816779D02*
X844620D01*
X843620Y815779D02*
Y817779D01*
X455322Y843614D02*
X457322D01*
X456322Y842614D02*
Y844614D01*
X725322Y843614D02*
X727321D01*
X726321Y842614D02*
Y844614D01*
X842620Y506780D02*
X844620D01*
X843620Y505779D02*
Y507780D01*
X842620Y116780D02*
X844620D01*
X843620Y115780D02*
Y117780D01*
X842620Y296780D02*
X844620D01*
X843620Y295780D02*
Y297780D01*
X619857Y6379D02*
X621857D01*
X620857Y5379D02*
Y7379D01*
X49858Y6379D02*
X51858D01*
X50858Y5379D02*
Y7379D01*
X5386Y585502D02*
X7386D01*
X6386Y584502D02*
Y586502D01*
X499857Y6379D02*
X501857D01*
X500857Y5379D02*
Y7379D01*
X199858Y6379D02*
X201858D01*
X200858Y5379D02*
Y7379D01*
X5386Y705502D02*
X7386D01*
X6386Y704502D02*
Y706502D01*
X485322Y843614D02*
X487322D01*
X486322Y842614D02*
Y844614D01*
X5386Y755502D02*
X7386D01*
X6386Y754502D02*
Y756502D01*
X5386Y695502D02*
X7386D01*
X6386Y694502D02*
Y696502D01*
X335322Y843614D02*
X337322D01*
X336322Y842614D02*
Y844614D01*
X5386Y85503D02*
X7386D01*
X6386Y84503D02*
Y86503D01*
X842620Y166780D02*
X844620D01*
X843620Y165780D02*
Y167780D01*
X5386Y485503D02*
X7386D01*
X6386Y484503D02*
Y486503D01*
X842620Y336780D02*
X844620D01*
X843620Y335780D02*
Y337780D01*
X419857Y6379D02*
X421857D01*
X420857Y5379D02*
Y7379D01*
X775321Y843614D02*
X777321D01*
X776321Y842614D02*
Y844614D01*
X842620Y466780D02*
X844620D01*
X843620Y465780D02*
Y467780D01*
X349857Y6379D02*
X351857D01*
X350857Y5379D02*
Y7379D01*
X5386Y175503D02*
X7386D01*
X6386Y174503D02*
Y176503D01*
X45323Y843614D02*
X47323D01*
X46323Y842614D02*
Y844614D01*
X695322Y843614D02*
X697321D01*
X696321Y842614D02*
Y844614D01*
X79858Y6379D02*
X81858D01*
X80858Y5379D02*
Y7379D01*
X842620Y756779D02*
X844620D01*
X843620Y755779D02*
Y757779D01*
X842620Y626779D02*
X844620D01*
X843620Y625779D02*
Y627779D01*
X509857Y6379D02*
X511857D01*
X510857Y5379D02*
Y7379D01*
X759856Y6379D02*
X761856D01*
X760856Y5379D02*
Y7379D01*
X295322Y843614D02*
X297322D01*
X296322Y842614D02*
Y844614D01*
X842620Y456780D02*
X844620D01*
X843620Y455780D02*
Y457780D01*
X479857Y6379D02*
X481857D01*
X480857Y5379D02*
Y7379D01*
X655322Y843614D02*
X657322D01*
X656322Y842614D02*
Y844614D01*
X842620Y436780D02*
X844620D01*
X843620Y435780D02*
Y437780D01*
X5386Y95503D02*
X7386D01*
X6386Y94503D02*
Y96503D01*
X109858Y6379D02*
X111858D01*
X110858Y5379D02*
Y7379D01*
X842620Y736779D02*
X844620D01*
X843620Y735779D02*
Y737779D01*
X842620Y246780D02*
X844620D01*
X843620Y245780D02*
Y247780D01*
X339857Y6379D02*
X341857D01*
X340857Y5379D02*
Y7379D01*
X265322Y843614D02*
X267322D01*
X266322Y842614D02*
Y844614D01*
X5386Y615502D02*
X7386D01*
X6386Y614502D02*
Y616502D01*
X69858Y6379D02*
X71858D01*
X70858Y5379D02*
Y7379D01*
X175323Y843614D02*
X177323D01*
X176323Y842614D02*
Y844614D01*
X345322Y843614D02*
X347322D01*
X346322Y842614D02*
Y844614D01*
X375322Y843614D02*
X377322D01*
X376322Y842614D02*
Y844614D01*
X615322Y843614D02*
X617322D01*
X616322Y842614D02*
Y844614D01*
X842620Y746779D02*
X844620D01*
X843620Y745779D02*
Y747779D01*
X842620Y346780D02*
X844620D01*
X843620Y345780D02*
Y347780D01*
X842620Y226780D02*
X844620D01*
X843620Y225780D02*
Y227780D01*
X329857Y6379D02*
X331857D01*
X330857Y5379D02*
Y7379D01*
X842620Y776779D02*
X844620D01*
X843620Y775779D02*
Y777779D01*
X842620Y646779D02*
X844620D01*
X843620Y645779D02*
Y647779D01*
X5386Y575502D02*
X7386D01*
X6386Y574502D02*
Y576502D01*
X105323Y843614D02*
X107323D01*
X106323Y842614D02*
Y844614D01*
X185322Y843614D02*
X187323D01*
X186322Y842614D02*
Y844614D01*
X275322Y843614D02*
X277322D01*
X276322Y842614D02*
Y844614D01*
X305322Y843614D02*
X307322D01*
X306322Y842614D02*
Y844614D01*
X675322Y843614D02*
X677322D01*
X676322Y842614D02*
Y844614D01*
X5386Y745502D02*
X7386D01*
X6386Y744502D02*
Y746502D01*
X5386Y785502D02*
X7386D01*
X6386Y784502D02*
Y786502D01*
X425322Y843614D02*
X427322D01*
X426322Y842614D02*
Y844614D01*
X369857Y6379D02*
X371857D01*
X370857Y5379D02*
Y7379D01*
X842620Y196780D02*
X844620D01*
X843620Y195780D02*
Y197780D01*
X545322Y843614D02*
X547322D01*
X546322Y842614D02*
Y844614D01*
X745321Y843614D02*
X747321D01*
X746321Y842614D02*
Y844614D01*
X842620Y576779D02*
X844620D01*
X843620Y575779D02*
Y577779D01*
X549857Y6379D02*
X551857D01*
X550857Y5379D02*
Y7379D01*
X842620Y356780D02*
X844620D01*
X843620Y355780D02*
Y357780D01*
X285322Y843614D02*
X287322D01*
X286322Y842614D02*
Y844614D01*
X575322Y843614D02*
X577322D01*
X576322Y842614D02*
Y844614D01*
X435322Y843614D02*
X437322D01*
X436322Y842614D02*
Y844614D01*
X5386Y275503D02*
X7386D01*
X6386Y274503D02*
Y276503D01*
X5386Y185503D02*
X7386D01*
X6386Y184503D02*
Y186503D01*
X289857Y6379D02*
X291857D01*
X290857Y5379D02*
Y7379D01*
X5386Y765502D02*
X7386D01*
X6386Y764502D02*
Y766502D01*
X85323Y843614D02*
X87323D01*
X86323Y842614D02*
Y844614D01*
X789856Y6379D02*
X791856D01*
X790856Y5379D02*
Y7379D01*
X135323Y843614D02*
X137323D01*
X136323Y842614D02*
Y844614D01*
X155323Y843614D02*
X157323D01*
X156323Y842614D02*
Y844614D01*
X5386Y565503D02*
X7386D01*
X6386Y564502D02*
Y566502D01*
X5386Y825502D02*
X7386D01*
X6386Y824502D02*
Y826502D01*
X842620Y206780D02*
X844620D01*
X843620Y205780D02*
Y207780D01*
X842620Y126780D02*
X844620D01*
X843620Y125780D02*
Y127780D01*
X842620Y146780D02*
X844620D01*
X843620Y145780D02*
Y147780D01*
X5386Y125503D02*
X7386D01*
X6386Y124503D02*
Y126503D01*
X239858Y6379D02*
X241857D01*
X240858Y5379D02*
Y7379D01*
X5386Y225503D02*
X7386D01*
X6386Y224503D02*
Y226503D01*
X842620Y706779D02*
X844620D01*
X843620Y705779D02*
Y707779D01*
X169858Y6379D02*
X171858D01*
X170858Y5379D02*
Y7379D01*
X535322Y843614D02*
X537322D01*
X536322Y842614D02*
Y844614D01*
X539857Y6379D02*
X541857D01*
X540857Y5379D02*
Y7379D01*
X842620Y266780D02*
X844620D01*
X843620Y265780D02*
Y267780D01*
X842620Y726779D02*
X844620D01*
X843620Y725779D02*
Y727779D01*
X319857Y6379D02*
X321857D01*
X320857Y5379D02*
Y7379D01*
X769856Y6379D02*
X771856D01*
X770856Y5379D02*
Y7379D01*
X5386Y435503D02*
X7386D01*
X6386Y434503D02*
Y436503D01*
X385322Y843614D02*
X387322D01*
X386322Y842614D02*
Y844614D01*
X842620Y316780D02*
X844620D01*
X843620Y315780D02*
Y317780D01*
X5386Y165503D02*
X7386D01*
X6386Y164503D02*
Y166503D01*
X505322Y843614D02*
X507322D01*
X506322Y842614D02*
Y844614D01*
X842620Y686779D02*
X844620D01*
X843620Y685779D02*
Y687779D01*
X842620Y416780D02*
X844620D01*
X843620Y415780D02*
Y417780D01*
X11233Y843614D02*
X13233D01*
X12233Y842614D02*
Y844614D01*
X589857Y6379D02*
X591857D01*
X590857Y5379D02*
Y7379D01*
X379857Y6379D02*
X381857D01*
X380857Y5379D02*
Y7379D01*
X5386Y625502D02*
X7386D01*
X6386Y624502D02*
Y626502D01*
X842620Y426780D02*
X844620D01*
X843620Y425780D02*
Y427780D01*
X5386Y535503D02*
X7386D01*
X6386Y534502D02*
Y536502D01*
X842620Y16781D02*
X844620D01*
X843620Y15781D02*
Y17780D01*
X259857Y6379D02*
X261857D01*
X260857Y5379D02*
Y7379D01*
X5386Y465503D02*
X7386D01*
X6386Y464503D02*
Y466503D01*
X815321Y843614D02*
X817321D01*
X816321Y842614D02*
Y844614D01*
X215322Y843614D02*
X217323D01*
X216322Y842614D02*
Y844614D01*
X842620Y476780D02*
X844620D01*
X843620Y475780D02*
Y477780D01*
X149858Y6379D02*
X151858D01*
X150858Y5379D02*
Y7379D01*
X449857Y6379D02*
X451857D01*
X450857Y5379D02*
Y7379D01*
X209858Y6379D02*
X211857D01*
X210858Y5379D02*
Y7379D01*
X525322Y843614D02*
X527322D01*
X526322Y842614D02*
Y844614D01*
X779856Y6379D02*
X781856D01*
X780856Y5379D02*
Y7379D01*
X605322Y843614D02*
X607322D01*
X606322Y842614D02*
Y844614D01*
X842620Y566779D02*
X844620D01*
X843620Y565779D02*
Y567779D01*
X649857Y6379D02*
X651857D01*
X650857Y5379D02*
Y7379D01*
X5386Y595502D02*
X7386D01*
X6386Y594502D02*
Y596502D01*
X229858Y6379D02*
X231857D01*
X230858Y5379D02*
Y7379D01*
X19858Y6379D02*
X21858D01*
X20858Y5379D02*
Y7379D01*
X685322Y843614D02*
X687321D01*
X686321Y842614D02*
Y844614D01*
X842620Y66780D02*
X844620D01*
X843620Y65780D02*
Y67780D01*
X842620Y276780D02*
X844620D01*
X843620Y275780D02*
Y277780D01*
X5386Y815502D02*
X7386D01*
X6386Y814502D02*
Y816502D01*
X669857Y6379D02*
X671857D01*
X670857Y5379D02*
Y7379D01*
X5386Y525503D02*
X7386D01*
X6386Y524502D02*
Y526502D01*
X842620Y86780D02*
X844620D01*
X843620Y85780D02*
Y87780D01*
X355322Y843614D02*
X357322D01*
X356322Y842614D02*
Y844614D01*
X609857Y6379D02*
X611857D01*
X610857Y5379D02*
Y7379D01*
X555322Y843614D02*
X557322D01*
X556322Y842614D02*
Y844614D01*
X842620Y556779D02*
X844620D01*
X843620Y555779D02*
Y557779D01*
X842620Y366780D02*
X844620D01*
X843620Y365780D02*
Y367780D01*
X585322Y843614D02*
X587322D01*
X586322Y842614D02*
Y844614D01*
X715322Y843614D02*
X717321D01*
X716321Y842614D02*
Y844614D01*
X599857Y6379D02*
X601857D01*
X600857Y5379D02*
Y7379D01*
X699857Y6379D02*
X701857D01*
X700857Y5379D02*
Y7379D01*
X842620Y786779D02*
X844620D01*
X843620Y785779D02*
Y787779D01*
X5386Y355503D02*
X7386D01*
X6386Y354503D02*
Y356503D01*
X842620Y176780D02*
X844620D01*
X843620Y175780D02*
Y177780D01*
X95323Y843614D02*
X97323D01*
X96323Y842614D02*
Y844614D01*
X5386Y455503D02*
X7386D01*
X6386Y454503D02*
Y456503D01*
X125323Y843614D02*
X127323D01*
X126323Y842614D02*
Y844614D01*
X5386Y635502D02*
X7386D01*
X6386Y634502D02*
Y636502D01*
X842620Y616779D02*
X844620D01*
X843620Y615779D02*
Y617779D01*
X559857Y6379D02*
X561857D01*
X560857Y5379D02*
Y7379D01*
X469857Y6379D02*
X471857D01*
X470857Y5379D02*
Y7379D01*
X5386Y665502D02*
X7386D01*
X6386Y664502D02*
Y666502D01*
X5386Y735502D02*
X7386D01*
X6386Y734502D02*
Y736502D01*
X5386Y775502D02*
X7386D01*
X6386Y774502D02*
Y776502D01*
X389857Y6379D02*
X391857D01*
X390857Y5379D02*
Y7379D01*
X29858Y6379D02*
X31858D01*
X30858Y5379D02*
Y7379D01*
X5386Y305503D02*
X7386D01*
X6386Y304503D02*
Y306503D01*
X325322Y843614D02*
X327322D01*
X326322Y842614D02*
Y844614D01*
X365322Y843614D02*
X367322D01*
X366322Y842614D02*
Y844614D01*
X629857Y6379D02*
X631857D01*
X630857Y5379D02*
Y7379D01*
X395322Y843614D02*
X397322D01*
X396322Y842614D02*
Y844614D01*
X842620Y216780D02*
X844620D01*
X843620Y215780D02*
Y217780D01*
X279857Y6379D02*
X281857D01*
X280857Y5379D02*
Y7379D01*
X439857Y6379D02*
X441857D01*
X440857Y5379D02*
Y7379D01*
X5386Y545503D02*
X7386D01*
X6386Y544502D02*
Y546502D01*
X159858Y6379D02*
X161858D01*
X160858Y5379D02*
Y7379D01*
X65323Y843614D02*
X67323D01*
X66323Y842614D02*
Y844614D01*
X842620Y186780D02*
X844620D01*
X843620Y185780D02*
Y187780D01*
X735321Y843614D02*
X737321D01*
X736321Y842614D02*
Y844614D01*
X99858Y6379D02*
X101858D01*
X100858Y5379D02*
Y7379D01*
X429857Y6379D02*
X431857D01*
X430857Y5379D02*
Y7379D01*
X842620Y156780D02*
X844620D01*
X843620Y155780D02*
Y157780D01*
X5386Y835502D02*
X7386D01*
X6386Y834502D02*
Y836502D01*
X5386Y255503D02*
X7386D01*
X6386Y254503D02*
Y256503D01*
X5386Y385503D02*
X7386D01*
X6386Y384503D02*
Y386503D01*
X5386Y715502D02*
X7386D01*
X6386Y714502D02*
Y716502D01*
X495322Y843614D02*
X497322D01*
X496322Y842614D02*
Y844614D01*
X245322Y843614D02*
X247322D01*
X246322Y842614D02*
Y844614D01*
X842620Y306780D02*
X844620D01*
X843620Y305780D02*
Y307780D01*
X399857Y6379D02*
X401857D01*
X400857Y5379D02*
Y7379D01*
X5386Y335503D02*
X7386D01*
X6386Y334503D02*
Y336503D01*
X415322Y843614D02*
X417322D01*
X416322Y842614D02*
Y844614D01*
X729856Y6379D02*
X731857D01*
X730856Y5379D02*
Y7379D01*
X25323Y843614D02*
X27323D01*
X26323Y842614D02*
Y844614D01*
X315322Y843614D02*
X317322D01*
X316322Y842614D02*
Y844614D01*
X842620Y406780D02*
X844620D01*
X843620Y405780D02*
Y407780D01*
X659857Y6379D02*
X661857D01*
X660857Y5379D02*
Y7379D01*
X459857Y6379D02*
X461857D01*
X460857Y5379D02*
Y7379D01*
X249858Y6379D02*
X251857D01*
X250858Y5379D02*
Y7379D01*
X739856Y6379D02*
X741857D01*
X740856Y5379D02*
Y7379D01*
X5386Y405503D02*
X7386D01*
X6386Y404503D02*
Y406503D01*
X5386Y425503D02*
X7386D01*
X6386Y424503D02*
Y426503D01*
X5386Y645502D02*
X7386D01*
X6386Y644502D02*
Y646502D01*
X842620Y586779D02*
X844620D01*
X843620Y585779D02*
Y587779D01*
X5386Y35503D02*
X7386D01*
X6386Y34504D02*
Y36504D01*
X842620Y526780D02*
X844620D01*
X843620Y525779D02*
Y527780D01*
X835321Y843614D02*
X837321D01*
X836321Y842614D02*
Y844614D01*
X806286Y755782D02*
X808286D01*
X807286Y754782D02*
Y756782D01*
X826286Y715782D02*
X828286D01*
X827286Y714782D02*
Y716782D01*
X826286Y635782D02*
X828286D01*
X827286Y634782D02*
Y636782D01*
X826286Y555782D02*
X828286D01*
X827286Y554782D02*
Y556782D01*
X826286Y395782D02*
X828286D01*
X827286Y394782D02*
Y396782D01*
X826286Y315782D02*
X828286D01*
X827286Y314782D02*
Y316782D01*
X806286Y115782D02*
X808286D01*
X807286Y114782D02*
Y116782D01*
X826286Y75782D02*
X828286D01*
X827286Y74782D02*
Y76782D01*
X766286Y755782D02*
X768286D01*
X767286Y754782D02*
Y756782D01*
X786286Y715782D02*
X788286D01*
X787286Y714782D02*
Y716782D01*
X766286Y675782D02*
X768286D01*
X767286Y674782D02*
Y676782D01*
X786286Y635782D02*
X788286D01*
X787286Y634782D02*
Y636782D01*
X766286Y595782D02*
X768286D01*
X767286Y594782D02*
Y596782D01*
X786286Y555782D02*
X788286D01*
X787286Y554782D02*
Y556782D01*
X766286Y515782D02*
X768286D01*
X767286Y514782D02*
Y516782D01*
X786286Y475782D02*
X788286D01*
X787286Y474782D02*
Y476782D01*
X766286Y435782D02*
X768286D01*
X767286Y434782D02*
Y436782D01*
X786286Y395782D02*
X788286D01*
X787286Y394782D02*
Y396782D01*
X766286Y355782D02*
X768286D01*
X767286Y354782D02*
Y356782D01*
X766286Y35782D02*
X768286D01*
X767286Y34782D02*
Y36782D01*
X726286Y755782D02*
X728286D01*
X727286Y754782D02*
Y756782D01*
X746286Y715782D02*
X748286D01*
X747286Y714782D02*
Y716782D01*
X746286Y635782D02*
X748286D01*
X747286Y634782D02*
Y636782D01*
X746286Y475782D02*
X748286D01*
X747286Y474782D02*
Y476782D01*
X746286Y395782D02*
X748286D01*
X747286Y394782D02*
Y396782D01*
X726286Y35782D02*
X728286D01*
X727286Y34782D02*
Y36782D01*
X706286Y795782D02*
X708286D01*
X707286Y794782D02*
Y796782D01*
X686286Y755782D02*
X688286D01*
X687286Y754782D02*
Y756782D01*
X706286Y715782D02*
X708286D01*
X707286Y714782D02*
Y716782D01*
X706286Y555782D02*
X708286D01*
X707286Y554782D02*
Y556782D01*
X706286Y75782D02*
X708286D01*
X707286Y74782D02*
Y76782D01*
X686286Y35782D02*
X688286D01*
X687286Y34782D02*
Y36782D01*
X666286Y795782D02*
X668286D01*
X667286Y794782D02*
Y796782D01*
X646286Y755782D02*
X648286D01*
X647286Y754782D02*
Y756782D01*
X646286Y35782D02*
X648286D01*
X647286Y34782D02*
Y36782D01*
X626286Y795782D02*
X628286D01*
X627286Y794782D02*
Y796782D01*
X606286Y755782D02*
X608286D01*
X607286Y754782D02*
Y756782D01*
X626286Y715782D02*
X628286D01*
X627286Y714782D02*
Y716782D01*
X586286Y795782D02*
X588286D01*
X587286Y794782D02*
Y796782D01*
X566286Y755782D02*
X568286D01*
X567286Y754782D02*
Y756782D01*
X586286Y715782D02*
X588286D01*
X587286Y714782D02*
Y716782D01*
X546286Y795782D02*
X548286D01*
X547286Y794782D02*
Y796782D01*
X526286Y755782D02*
X528286D01*
X527286Y754782D02*
Y756782D01*
X546286Y715782D02*
X548286D01*
X547286Y714782D02*
Y716782D01*
X506286Y795782D02*
X508286D01*
X507286Y794782D02*
Y796782D01*
X486286Y755782D02*
X488286D01*
X487286Y754782D02*
Y756782D01*
X506286Y715782D02*
X508286D01*
X507286Y714782D02*
Y716782D01*
X486286Y675782D02*
X488286D01*
X487286Y674782D02*
Y676782D01*
X466286Y795782D02*
X468286D01*
X467286Y794782D02*
Y796782D01*
X466286Y315782D02*
X468286D01*
X467286Y314782D02*
Y316782D01*
X426286Y795782D02*
X428286D01*
X427286Y794782D02*
Y796782D01*
X426286Y475782D02*
X428286D01*
X427286Y474782D02*
Y476782D01*
X386286Y795782D02*
X388286D01*
X387286Y794782D02*
Y796782D01*
X366286Y755782D02*
X368286D01*
X367286Y754782D02*
Y756782D01*
X386286Y715782D02*
X388286D01*
X387286Y714782D02*
Y716782D01*
X366286Y675782D02*
X368286D01*
X367286Y674782D02*
Y676782D01*
X346286Y795782D02*
X348286D01*
X347286Y794782D02*
Y796782D01*
X326286Y755782D02*
X328286D01*
X327286Y754782D02*
Y756782D01*
X346286Y715782D02*
X348286D01*
X347286Y714782D02*
Y716782D01*
X306286Y795782D02*
X308286D01*
X307286Y794782D02*
Y796782D01*
X286286Y755782D02*
X288286D01*
X287286Y754782D02*
Y756782D01*
X306286Y715782D02*
X308286D01*
X307286Y714782D02*
Y716782D01*
X286286Y595782D02*
X288286D01*
X287286Y594782D02*
Y596782D01*
X266286Y795782D02*
X268286D01*
X267286Y794782D02*
Y796782D01*
X246286Y755782D02*
X248286D01*
X247286Y754782D02*
Y756782D01*
X266286Y715782D02*
X268286D01*
X267286Y714782D02*
Y716782D01*
X226286Y795782D02*
X228286D01*
X227286Y794782D02*
Y796782D01*
X206286Y115782D02*
X208286D01*
X207286Y114782D02*
Y116782D01*
X226286Y75782D02*
X228286D01*
X227286Y74782D02*
Y76782D01*
X166286Y755782D02*
X168286D01*
X167286Y754782D02*
Y756782D01*
X166286Y355782D02*
X168286D01*
X167286Y354782D02*
Y356782D01*
X166286Y115782D02*
X168286D01*
X167286Y114782D02*
Y116782D01*
X186286Y75782D02*
X188286D01*
X187286Y74782D02*
Y76782D01*
X86286Y595782D02*
X88286D01*
X87286Y594782D02*
Y596782D01*
X46286Y435782D02*
X48286D01*
X47286Y434782D02*
Y436782D01*
X46286Y355782D02*
X48286D01*
X47286Y354782D02*
Y356782D01*
X507923Y268393D02*
X509923D01*
X508923Y267393D02*
Y269393D01*
X62132Y538082D02*
X64132D01*
X63132Y537082D02*
Y539082D01*
X106876Y563391D02*
X108876D01*
X107876Y562391D02*
Y564391D01*
X189529Y533385D02*
X191530D01*
X190529Y532385D02*
Y534385D01*
X136872Y489714D02*
X138872D01*
X137872Y488714D02*
Y490714D01*
X291371Y546793D02*
X293371D01*
X292371Y545793D02*
Y547793D01*
X295103Y538251D02*
X297103D01*
X296103Y537251D02*
Y539251D01*
X605449Y331746D02*
X607449D01*
X606450Y330746D02*
Y332747D01*
X379286Y250757D02*
X381286D01*
X380286Y249757D02*
Y251757D01*
X395494Y298319D02*
X397495D01*
X396494Y297319D02*
Y299319D01*
X364050Y255959D02*
X366050D01*
X365050Y254959D02*
Y256959D01*
X561650Y345912D02*
X563650D01*
X562650Y344912D02*
Y346912D01*
X495635Y466769D02*
X497635D01*
X496635Y465769D02*
Y467769D01*
X465169Y409815D02*
X467169D01*
X466169Y408815D02*
Y410815D01*
X498281Y304669D02*
X500281D01*
X499281Y303669D02*
Y305669D01*
X507398Y328642D02*
X509398D01*
X508398Y327642D02*
Y329642D01*
X338604Y447284D02*
X340604D01*
X339604Y446284D02*
Y448284D01*
X315245Y388556D02*
X317245D01*
X316245Y387556D02*
Y389556D01*
X379559Y298575D02*
X381559D01*
X380559Y297575D02*
Y299575D01*
X609870Y663194D02*
X611870D01*
X610870Y662194D02*
Y664194D01*
X588534Y663194D02*
X590534D01*
X589534Y662194D02*
Y664194D01*
X548458Y663194D02*
X550458D01*
X549458Y662194D02*
Y664194D01*
X529352Y663194D02*
X531352D01*
X530352Y662194D02*
Y664194D01*
X783860Y463310D02*
X785860D01*
X784860Y462310D02*
Y464310D01*
X783860Y423327D02*
X785860D01*
X784860Y422327D02*
Y424327D01*
X783860Y383342D02*
X785860D01*
X784860Y382342D02*
Y384342D01*
X783860Y342550D02*
X785860D01*
X784860Y341550D02*
Y343550D01*
X782844Y264414D02*
X784844D01*
X783844Y263414D02*
Y265414D01*
X245985Y410881D02*
X247985D01*
X246985Y409881D02*
Y411881D01*
X688305Y631903D02*
X690305D01*
X689305Y630903D02*
Y632903D01*
X493538Y206756D02*
X495538D01*
X494538Y205756D02*
Y207756D01*
X388344Y209296D02*
X390344D01*
X389343Y208296D02*
Y210296D01*
X438420Y204470D02*
X440420D01*
X439420Y203470D02*
Y205470D01*
X426228Y215646D02*
X428228D01*
X427228Y214646D02*
Y216646D01*
X445532Y114471D02*
X447532D01*
X446532Y113471D02*
Y115471D01*
X429528Y114419D02*
X431528D01*
X430528Y113419D02*
Y115419D01*
X569164Y424792D02*
X571164D01*
X570164Y423792D02*
Y425792D01*
X523890Y513284D02*
X525890D01*
X524889Y512285D02*
Y514285D01*
X649812Y488635D02*
X651812D01*
X650812Y487635D02*
Y489636D01*
X648732Y601218D02*
X650732D01*
X649732Y600218D02*
Y602218D01*
X245888Y718336D02*
X247888D01*
X246888Y717336D02*
Y719336D01*
X245888Y698500D02*
X247888D01*
X246888Y697500D02*
Y699500D01*
X283005Y451223D02*
X285005D01*
X284005Y450223D02*
Y452223D01*
X214521Y445285D02*
X216521D01*
X215521Y444285D02*
Y446285D01*
X205970Y453176D02*
X207970D01*
X206970Y452176D02*
Y454176D01*
X395994Y479769D02*
X397994D01*
X396994Y478769D02*
Y480769D01*
X400113Y245733D02*
X402113D01*
X401113Y244733D02*
Y246733D01*
X388344Y243545D02*
X390344D01*
X389343Y242545D02*
Y244545D01*
X190552Y164507D02*
X192552D01*
X191552Y163507D02*
Y165507D01*
X167614Y153436D02*
X169614D01*
X168614Y152436D02*
Y154436D01*
X131340Y173748D02*
X133340D01*
X132339Y172749D02*
Y174748D01*
X378391Y468893D02*
X380391D01*
X379391Y467893D02*
Y469893D01*
X205879Y436123D02*
X207879D01*
X206879Y435123D02*
Y437123D01*
X222838Y453176D02*
X224838D01*
X223838Y452176D02*
Y454176D01*
X222838Y436123D02*
X224838D01*
X223838Y435123D02*
Y437123D01*
X429590Y466519D02*
X431590D01*
X430591Y465519D02*
Y467519D01*
X430038Y454660D02*
X432038D01*
X431038Y453660D02*
Y455660D01*
X415306Y454660D02*
X417306D01*
X416306Y453660D02*
Y455660D01*
X420034Y491168D02*
X422034D01*
X421034Y490168D02*
Y492168D01*
X410390Y478508D02*
X412390D01*
X411390Y477508D02*
Y479508D01*
X404400Y491091D02*
X406400D01*
X405400Y490091D02*
Y492091D01*
X469956Y497615D02*
X471956D01*
X470956Y496615D02*
Y498615D01*
X436356Y538337D02*
X438356D01*
X437356Y537337D02*
Y539337D01*
X320325Y538301D02*
X322325D01*
X321325Y537301D02*
Y539301D01*
X97130Y538365D02*
X99130D01*
X98130Y537365D02*
Y539365D01*
X88872Y538365D02*
X90872D01*
X89873Y537365D02*
Y539365D01*
X213354Y538420D02*
X215354D01*
X214354Y537420D02*
Y539420D01*
X204294Y538433D02*
X206294D01*
X205294Y537433D02*
Y539433D01*
X398511Y660458D02*
X400511D01*
X399511Y659458D02*
Y661458D01*
X400066Y735934D02*
X402066D01*
X401066Y734934D02*
Y736934D01*
X411242Y783082D02*
X413242D01*
X412242Y782082D02*
Y784082D01*
X455414Y772918D02*
X457414D01*
X456414Y771918D02*
Y773918D01*
X454933Y656016D02*
X456933D01*
X455933Y655016D02*
Y657016D01*
X455414Y730564D02*
X457414D01*
X456414Y729565D02*
Y731564D01*
X443500Y698370D02*
X445500D01*
X444500Y697370D02*
Y699370D01*
X402243Y698696D02*
X404243D01*
X403243Y697696D02*
Y699696D01*
X585232Y541528D02*
X587232D01*
X586232Y540528D02*
Y542528D01*
X585232Y567436D02*
X587232D01*
X586232Y566436D02*
Y568436D01*
X454933Y616907D02*
X456933D01*
X455933Y615907D02*
Y617907D01*
X443500Y627623D02*
X445500D01*
X444500Y626623D02*
Y628623D01*
X425720Y627623D02*
X427720D01*
X426720Y626623D02*
Y628623D01*
X489872Y620397D02*
X491872D01*
X490872Y619397D02*
Y621397D01*
X489872Y602597D02*
X491872D01*
X490872Y601596D02*
Y603596D01*
X467828Y574413D02*
X469828D01*
X468828Y573413D02*
Y575413D01*
X337648Y580755D02*
X339648D01*
X338648Y579754D02*
Y581754D01*
X392929Y580255D02*
X394929D01*
X393929Y579254D02*
Y581255D01*
X361312Y580255D02*
X363312D01*
X362312Y579254D02*
Y581255D01*
X345812Y611883D02*
X347812D01*
X346812Y610883D02*
Y612883D01*
X245541Y580558D02*
X247541D01*
X246541Y579558D02*
Y581558D01*
X260495Y580837D02*
X262495D01*
X261495Y579837D02*
Y581837D01*
X276966Y580837D02*
X278966D01*
X277966Y579837D02*
Y581837D01*
X277310Y596262D02*
X279310D01*
X278310Y595262D02*
Y597262D01*
X260495Y611883D02*
X262495D01*
X261495Y610883D02*
Y612883D01*
X325310Y611883D02*
X327310D01*
X326310Y610883D02*
Y612883D01*
X277310Y611177D02*
X279310D01*
X278310Y610177D02*
Y612177D01*
X260495Y596262D02*
X262495D01*
X261495Y595262D02*
Y597262D01*
X162015Y574716D02*
X164015D01*
X163015Y573716D02*
Y575716D01*
X168320Y583555D02*
X170320D01*
X169320Y582555D02*
Y584555D01*
X141778Y576255D02*
X143778D01*
X142779Y575255D02*
Y577254D01*
X129749Y580258D02*
X131749D01*
X130749Y579258D02*
Y581258D01*
X60684Y580258D02*
X62684D01*
X61684Y579258D02*
Y581258D01*
X45149Y571516D02*
X47148D01*
X46149Y570516D02*
Y572516D01*
X45013Y537147D02*
X47013D01*
X46013Y536147D02*
Y538147D01*
X167131Y338002D02*
X169131D01*
X168131Y337002D02*
Y339002D01*
X126533Y340746D02*
X128533D01*
X127533Y339745D02*
Y341745D01*
X48530Y309626D02*
X50530D01*
X49530Y308626D02*
Y310626D01*
X47003Y269497D02*
X49003D01*
X48003Y268497D02*
Y270497D01*
X282010Y160758D02*
X284010D01*
X283010Y159759D02*
Y161758D01*
X263873Y160722D02*
X265873D01*
X264873Y159722D02*
Y161722D01*
X219253Y118497D02*
X221253D01*
X220253Y117497D02*
Y119497D01*
X206103Y130556D02*
X208103D01*
X207103Y129556D02*
Y131556D01*
X740680Y354743D02*
X742680D01*
X741680Y353743D02*
Y355743D01*
X749914Y342550D02*
X751915D01*
X750915Y341550D02*
Y343550D01*
X764556Y299212D02*
X766556D01*
X765556Y298212D02*
Y300212D01*
X744236Y303784D02*
X746236D01*
X745236Y302784D02*
Y304784D01*
X762524Y455497D02*
X764524D01*
X763524Y454497D02*
Y456497D01*
X745252Y455497D02*
X747252D01*
X746252Y454497D02*
Y456497D01*
X792242Y499872D02*
X794242D01*
X793242Y498872D02*
Y500872D01*
X579003Y651497D02*
X581003D01*
X580003Y650497D02*
Y652497D01*
X471622Y172737D02*
X473622D01*
X472622Y171737D02*
Y173737D01*
X522614Y178559D02*
X524614D01*
X523614Y177559D02*
Y179559D01*
X556707Y330489D02*
X558707D01*
X557707Y329489D02*
Y331489D01*
X523317Y338364D02*
X525317D01*
X524318Y337364D02*
Y339364D01*
X53544Y521539D02*
X55544D01*
X54544Y520539D02*
Y522539D01*
X454432Y144997D02*
X456432D01*
X455432Y143997D02*
Y145997D01*
X454422Y173228D02*
X456422D01*
X455422Y172228D02*
Y174228D01*
X137483Y472556D02*
X139483D01*
X138483Y471556D02*
Y473556D01*
X131399Y353358D02*
X133399D01*
X132399Y352358D02*
Y354358D01*
X539003Y651497D02*
X541003D01*
X540003Y650497D02*
Y652497D01*
X151825Y581997D02*
X153825D01*
X152825Y580997D02*
Y582997D01*
X308295Y339801D02*
X310295D01*
X309295Y338801D02*
Y340801D01*
X392929Y529706D02*
X394929D01*
X393929Y528706D02*
Y530706D01*
X131383Y404771D02*
X133383D01*
X132383Y403771D02*
Y405771D01*
X558890Y299704D02*
X560890D01*
X559890Y298704D02*
Y300704D01*
X522864Y266629D02*
X524864D01*
X523864Y265629D02*
Y267629D01*
X474133Y275897D02*
X476133D01*
X475133Y274897D02*
Y276897D01*
X494300Y144780D02*
X496300D01*
X495300Y143780D02*
Y145780D01*
X444787Y228563D02*
X446787D01*
X445787Y227563D02*
Y229562D01*
X92472Y318770D02*
X94472D01*
X93472Y317770D02*
Y319770D01*
X100478Y189203D02*
X102478D01*
X101478Y188203D02*
Y190203D01*
X89723Y189203D02*
X91723D01*
X90723Y188203D02*
Y190203D01*
X221504Y411977D02*
X223504D01*
X222504Y410977D02*
Y412977D01*
X192401Y508378D02*
X194401D01*
X193401Y507378D02*
Y509378D01*
X314181Y507552D02*
X316181D01*
X315181Y506552D02*
Y508552D01*
X179610Y538303D02*
X181610D01*
X180610Y537303D02*
Y539303D01*
X235261Y465756D02*
X237261D01*
X236261Y464756D02*
Y466756D01*
X222838Y477803D02*
X224838D01*
X223838Y476803D02*
Y478803D01*
X243585Y443164D02*
X245585D01*
X244585Y442164D02*
Y444164D01*
X210764Y476057D02*
X212764D01*
X211764Y475057D02*
Y477057D01*
X194517Y465219D02*
X196517D01*
X195517Y464219D02*
Y466219D01*
X264180Y457552D02*
X266180D01*
X265180Y456552D02*
Y458552D01*
X183658Y443037D02*
X185658D01*
X184658Y442037D02*
Y444037D01*
X141797Y438833D02*
X143797D01*
X142797Y437833D02*
Y439833D01*
X162162Y453085D02*
X164162D01*
X163162Y452085D02*
Y454085D01*
X247401Y297182D02*
X249401D01*
X248401Y296182D02*
Y298182D01*
X565805Y471146D02*
X567805D01*
X566805Y470146D02*
Y472146D01*
X460390Y239800D02*
X462390D01*
X461390Y238800D02*
Y240800D01*
X486934Y248158D02*
X488934D01*
X487934Y247158D02*
Y249158D01*
X787457Y444150D02*
X789457D01*
X788457Y443150D02*
Y445150D01*
X787470Y284308D02*
X789470D01*
X788470Y283308D02*
Y285308D01*
X788568Y250062D02*
X790567D01*
X789567Y249062D02*
Y251062D01*
X804942Y332486D02*
X806942D01*
X805942Y331486D02*
Y333486D01*
X79383Y495992D02*
X81383D01*
X80383Y494992D02*
Y496992D01*
X71023Y434499D02*
X73023D01*
X72023Y433499D02*
Y435499D01*
X79566Y380353D02*
X81566D01*
X80566Y379353D02*
Y381353D01*
X79929Y464055D02*
X81929D01*
X80929Y463055D02*
Y465055D01*
X204648Y721272D02*
X206648D01*
X205648Y720272D02*
Y722272D01*
X804356Y229032D02*
X806356D01*
X805356Y228032D02*
Y230032D01*
X803888Y211885D02*
X805888D01*
X804888Y210885D02*
Y212885D01*
X750564Y328898D02*
X752564D01*
X751564Y327897D02*
Y329897D01*
X722030Y328898D02*
X724031D01*
X723030Y327897D02*
Y329897D01*
X736297Y328898D02*
X738297D01*
X737297Y327897D02*
Y329897D01*
X484003Y35997D02*
X486003D01*
X485003Y34997D02*
Y36997D01*
X204648Y672843D02*
X206648D01*
X205648Y671843D02*
Y673843D01*
X204648Y697057D02*
X206648D01*
X205648Y696058D02*
Y698057D01*
X204648Y684950D02*
X206648D01*
X205648Y683950D02*
Y685950D01*
X204648Y709165D02*
X206648D01*
X205648Y708165D02*
Y710165D01*
X82823Y736040D02*
X84823D01*
X83823Y735040D02*
Y737040D01*
X72282Y728617D02*
X74282D01*
X73282Y727617D02*
Y729617D01*
X82823Y750307D02*
X84823D01*
X83823Y749307D02*
Y751307D01*
X93363Y742832D02*
X95363D01*
X94363Y741832D02*
Y743832D01*
X72282Y742884D02*
X74282D01*
X73282Y741884D02*
Y743884D01*
X93363Y771418D02*
X95363D01*
X94363Y770418D02*
Y772418D01*
X72282Y771418D02*
X74282D01*
X73282Y770418D02*
Y772418D01*
X72282Y757151D02*
X74282D01*
X73282Y756151D02*
Y758151D01*
X93363Y757098D02*
X95363D01*
X94363Y756098D02*
Y758098D01*
X82823Y764574D02*
X84823D01*
X83823Y763574D02*
Y765574D01*
X130804Y772689D02*
X132804D01*
X131804Y771689D02*
Y773689D01*
X131015Y758528D02*
X133015D01*
X132015Y757528D02*
Y759528D01*
X138174Y765951D02*
X140174D01*
X139174Y764951D02*
Y766951D01*
X145439Y758475D02*
X147439D01*
X146439Y757475D02*
Y759475D01*
X145650Y772795D02*
X147650D01*
X146650Y771795D02*
Y773795D01*
X520632Y320284D02*
X522632D01*
X521632Y319284D02*
Y321284D01*
X432593Y228637D02*
X434593D01*
X433592Y227637D02*
Y229637D01*
X468141Y215135D02*
X470141D01*
X469141Y214135D02*
Y216135D01*
X479317Y211579D02*
X481317D01*
X480317Y210579D02*
Y212579D01*
X430390Y297564D02*
X432390D01*
X431390Y296564D02*
Y298564D01*
X435141Y309788D02*
X437141D01*
X436141Y308788D02*
Y310788D01*
X787579Y363475D02*
X789579D01*
X788579Y362475D02*
Y364475D01*
X787542Y403425D02*
X789542D01*
X788542Y402425D02*
Y404425D01*
X685449Y381759D02*
X687449D01*
X686449Y380759D02*
Y382759D01*
X691050Y371802D02*
X693050D01*
X692050Y370802D02*
Y372802D01*
X680683Y415269D02*
X682683D01*
X681683Y414269D02*
Y416269D01*
X652545Y424939D02*
X654545D01*
X653545Y423939D02*
Y425939D01*
X679044Y398375D02*
X681044D01*
X680044Y397375D02*
Y399375D01*
X670754Y406699D02*
X672754D01*
X671754Y405699D02*
Y407699D01*
X674197Y365665D02*
X676197D01*
X675197Y364665D02*
Y366665D01*
X659115Y352762D02*
X661115D01*
X660115Y351762D02*
Y353762D01*
X506973Y362756D02*
X508973D01*
X507973Y361756D02*
Y363756D01*
X506973Y339721D02*
X508973D01*
X507973Y338721D02*
Y340721D01*
X507740Y348926D02*
X509740D01*
X508740Y347926D02*
Y349926D01*
X677282Y189784D02*
X679282D01*
X678282Y188784D02*
Y190784D01*
X662165Y175333D02*
X664165D01*
X663165Y174333D02*
Y176333D01*
X675520Y175032D02*
X677520D01*
X676520Y174032D02*
Y176032D01*
X813336Y179846D02*
X815336D01*
X814336Y178846D02*
Y180846D01*
X813327Y157731D02*
X815327D01*
X814327Y156731D02*
Y158731D01*
X384676Y266263D02*
X386676D01*
X385676Y265263D02*
Y267263D01*
X395390Y271411D02*
X397390D01*
X396390Y270410D02*
Y272411D01*
X141692Y137804D02*
X143692D01*
X142692Y136804D02*
Y138804D01*
X141692Y74078D02*
X143692D01*
X142692Y73078D02*
Y75078D01*
X141692Y155584D02*
X143692D01*
X142692Y154584D02*
Y156584D01*
X141692Y119711D02*
X143692D01*
X142692Y118710D02*
Y120710D01*
X141692Y89289D02*
X143692D01*
X142692Y88289D02*
Y90289D01*
X141692Y58867D02*
X143692D01*
X142692Y57867D02*
Y59867D01*
X141692Y43656D02*
X143692D01*
X142692Y42656D02*
Y44656D01*
X141692Y28445D02*
X143692D01*
X142692Y27445D02*
Y29445D01*
X34817Y755901D02*
X36817D01*
X35817Y754901D02*
Y756901D01*
X34817Y740810D02*
X36817D01*
X35817Y739810D02*
Y741810D01*
X34817Y725720D02*
X36817D01*
X35817Y724720D02*
Y726720D01*
X34817Y710630D02*
X36817D01*
X35817Y709630D02*
Y711630D01*
X34817Y604997D02*
X36817D01*
X35817Y603997D02*
Y605997D01*
X34817Y620087D02*
X36817D01*
X35817Y619087D02*
Y621087D01*
X34817Y635178D02*
X36817D01*
X35817Y634178D02*
Y636178D01*
X34817Y650268D02*
X36817D01*
X35817Y649268D02*
Y651268D01*
X34817Y665358D02*
X36817D01*
X35817Y664358D02*
Y666358D01*
X34817Y680449D02*
X36817D01*
X35817Y679449D02*
Y681449D01*
X34817Y695539D02*
X36817D01*
X35817Y694539D02*
Y696539D01*
X138633Y649709D02*
X140633D01*
X139633Y648709D02*
Y650709D01*
X139779Y687774D02*
X141779D01*
X140779Y686774D02*
Y688774D01*
X139779Y668196D02*
X141779D01*
X140779Y667196D02*
Y669196D01*
X139655Y725413D02*
X141655D01*
X140655Y724413D02*
Y726413D01*
X138999Y744997D02*
X140999D01*
X139999Y743997D02*
Y745997D01*
X584151Y72228D02*
X586151D01*
X585151Y71228D02*
Y73228D01*
X374472Y261121D02*
X376472D01*
X375472Y260121D02*
Y262121D01*
X685910Y263916D02*
X687910D01*
X686910Y262916D02*
Y264916D01*
X328556Y256489D02*
X330556D01*
X329556Y255489D02*
Y257489D01*
X345564Y298151D02*
X347565D01*
X346564Y297150D02*
Y299151D01*
X335214Y23355D02*
X337214D01*
X336214Y22355D02*
Y24355D01*
X354307Y23355D02*
X356307D01*
X355307Y22355D02*
Y24355D01*
X373399Y23355D02*
X375399D01*
X374399Y22355D02*
Y24355D01*
X335214Y40506D02*
X337214D01*
X336214Y39506D02*
Y41506D01*
X354307Y40506D02*
X356307D01*
X355307Y39506D02*
Y41506D01*
X373399Y40506D02*
X375399D01*
X374399Y39506D02*
Y41506D01*
X344760Y31930D02*
X346760D01*
X345760Y30931D02*
Y32931D01*
X363853Y31930D02*
X365853D01*
X364853Y30931D02*
Y32931D01*
X335214Y57656D02*
X337214D01*
X336214Y56656D02*
Y58656D01*
X354307Y57656D02*
X356307D01*
X355307Y56656D02*
Y58656D01*
X373399Y57656D02*
X375399D01*
X374399Y56656D02*
Y58656D01*
X344760Y49081D02*
X346760D01*
X345760Y48081D02*
Y50081D01*
X363853Y49081D02*
X365853D01*
X364853Y48081D02*
Y50081D01*
X344760Y66232D02*
X346760D01*
X345760Y65232D02*
Y67232D01*
X363853Y66232D02*
X365853D01*
X364853Y65232D02*
Y67232D01*
X72515Y76003D02*
X74515D01*
X73515Y75003D02*
Y77003D01*
X101153Y84579D02*
X103153D01*
X102153Y83579D02*
Y85579D01*
X82061Y84579D02*
X84061D01*
X83061Y83579D02*
Y85579D01*
X82061Y67428D02*
X84061D01*
X83061Y66428D02*
Y68428D01*
X91607Y76003D02*
X93607D01*
X92607Y75003D02*
Y77003D01*
X82061Y50278D02*
X84061D01*
X83061Y49278D02*
Y51278D01*
X91607Y58853D02*
X93607D01*
X92607Y57853D02*
Y59853D01*
X72515Y58853D02*
X74515D01*
X73515Y57853D02*
Y59853D01*
X101153Y33127D02*
X103153D01*
X102153Y32127D02*
Y34127D01*
X82061Y33127D02*
X84061D01*
X83061Y32127D02*
Y34127D01*
X91607Y41702D02*
X93607D01*
X92607Y40702D02*
Y42702D01*
X72515Y41702D02*
X74515D01*
X73515Y40702D02*
Y42702D01*
X335214Y74807D02*
X337214D01*
X336214Y73807D02*
Y75807D01*
X354307Y74807D02*
X356307D01*
X355307Y73807D02*
Y75807D01*
X373399Y74807D02*
X375399D01*
X374399Y73807D02*
Y75807D01*
X335214Y91958D02*
X337214D01*
X336214Y90957D02*
Y92957D01*
X354307Y91958D02*
X356307D01*
X355307Y90957D02*
Y92957D01*
X373399Y91958D02*
X375399D01*
X374399Y90957D02*
Y92957D01*
X344760Y83382D02*
X346760D01*
X345760Y82382D02*
Y84382D01*
X363853Y83382D02*
X365853D01*
X364853Y82382D02*
Y84382D01*
X363853Y99771D02*
X365853D01*
X364853Y98771D02*
Y100771D01*
X344760Y99771D02*
X346760D01*
X345760Y98771D02*
Y100771D01*
X373399Y109870D02*
X375399D01*
X374399Y108870D02*
Y110870D01*
X363853Y117683D02*
X365853D01*
X364853Y116683D02*
Y118683D01*
X354307Y109870D02*
X356307D01*
X355307Y108870D02*
Y110870D01*
X335214Y109870D02*
X337214D01*
X336214Y108870D02*
Y110870D01*
X344760Y117683D02*
X346760D01*
X345760Y116683D02*
Y118683D01*
X67793Y631225D02*
X69793D01*
X68793Y630225D02*
Y632225D01*
X67793Y614098D02*
X69793D01*
X68793Y613098D02*
Y615098D01*
X76344Y639788D02*
X78344D01*
X77344Y638788D02*
Y640788D01*
X76344Y622662D02*
X78344D01*
X77344Y621662D02*
Y623662D01*
X84895Y631225D02*
X86896D01*
X85896Y630225D02*
Y632225D01*
X84895Y648352D02*
X86896D01*
X85896Y647352D02*
Y649352D01*
X143257Y241402D02*
X145257D01*
X144257Y240403D02*
Y242402D01*
X159886Y241634D02*
X161886D01*
X160886Y240634D02*
Y242634D01*
X252089Y227581D02*
X254089D01*
X253089Y226581D02*
Y228581D01*
X273188Y227581D02*
X275188D01*
X274188Y226581D02*
Y228581D01*
X230991Y227581D02*
X232990D01*
X231991Y226581D02*
Y228581D01*
X262638Y227581D02*
X264638D01*
X263638Y226581D02*
Y228581D01*
X241540Y227581D02*
X243540D01*
X242540Y226581D02*
Y228581D01*
X283737Y227581D02*
X285737D01*
X284737Y226581D02*
Y228581D01*
X152287Y299592D02*
X154287D01*
X153287Y298592D02*
Y300592D01*
X152287Y308950D02*
X154287D01*
X153287Y307950D02*
Y309950D01*
X203244Y233976D02*
X205244D01*
X204244Y232976D02*
Y234976D01*
X480268Y638265D02*
X482268D01*
X481268Y637265D02*
Y639264D01*
X447936Y395743D02*
X449936D01*
X448936Y394743D02*
Y396743D01*
X442190Y380313D02*
X444190D01*
X443190Y379313D02*
Y381313D01*
X435750Y389348D02*
X437750D01*
X436750Y388348D02*
Y390348D01*
X429911Y378552D02*
X431912D01*
X430911Y377552D02*
Y379552D01*
X475085Y654952D02*
X477085D01*
X476085Y653952D02*
Y655952D01*
X469038Y672046D02*
X471038D01*
X470038Y671046D02*
Y673046D01*
X463049Y687544D02*
X465049D01*
X464049Y686544D02*
Y688544D01*
X655776Y150648D02*
X657776D01*
X656776Y149648D02*
Y151648D01*
X668958Y144790D02*
X670958D01*
X669958Y143790D02*
Y145790D01*
X630347Y620677D02*
X632347D01*
X631347Y619677D02*
Y621677D01*
X630257Y470777D02*
X632257D01*
X631257Y469777D02*
Y471777D01*
X649243Y620773D02*
X651243D01*
X650243Y619773D02*
Y621773D01*
X613190Y472217D02*
X615190D01*
X614190Y471217D02*
Y473217D01*
X498887Y404901D02*
X500887D01*
X499887Y403901D02*
Y405901D01*
X538872Y621030D02*
X540872D01*
X539872Y620029D02*
Y622029D01*
X631389Y488622D02*
X633389D01*
X632389Y487622D02*
Y489622D01*
X389297Y405122D02*
X391297D01*
X390297Y404122D02*
Y406122D01*
X369704Y400078D02*
X371704D01*
X370704Y399078D02*
Y401078D01*
X392005Y395841D02*
X394005D01*
X393005Y394841D02*
Y396841D01*
X469956Y546862D02*
X471956D01*
X470956Y545862D02*
Y547862D01*
X480705Y546862D02*
X482705D01*
X481705Y545862D02*
Y547862D01*
X491455Y546862D02*
X493455D01*
X492454Y545862D02*
Y547862D01*
X354092Y546862D02*
X356092D01*
X355092Y545862D02*
Y547862D01*
X364641Y546862D02*
X366641D01*
X365641Y545862D02*
Y547862D01*
X375190Y546862D02*
X377190D01*
X376190Y545862D02*
Y547862D01*
X385740Y546862D02*
X387740D01*
X386740Y545862D02*
Y547862D01*
X396289Y546862D02*
X398289D01*
X397289Y545862D02*
Y547862D01*
X406838Y546862D02*
X408838D01*
X407838Y545862D02*
Y547862D01*
X238060Y546862D02*
X240061D01*
X239060Y545862D02*
Y547862D01*
X248610Y546862D02*
X250610D01*
X249610Y545862D02*
Y547862D01*
X259159Y546862D02*
X261159D01*
X260159Y545862D02*
Y547862D01*
X269708Y546862D02*
X271708D01*
X270708Y545862D02*
Y547862D01*
X280258Y546862D02*
X282258D01*
X281258Y545862D02*
Y547862D01*
X174776Y546862D02*
X176776D01*
X175776Y545862D02*
Y547862D01*
X164226Y546862D02*
X166226D01*
X165226Y545862D02*
Y547862D01*
X153677Y546862D02*
X155677D01*
X154677Y545862D02*
Y547862D01*
X143128Y546862D02*
X145128D01*
X144128Y545862D02*
Y547862D01*
X132578Y546862D02*
X134579D01*
X133579Y545862D02*
Y547862D01*
X122029Y546862D02*
X124029D01*
X123029Y545862D02*
Y547862D01*
X349179Y519594D02*
X351179D01*
X350179Y518594D02*
Y520594D01*
X233157Y519356D02*
X235157D01*
X234157Y518356D02*
Y520356D01*
X66527Y546862D02*
X68527D01*
X67527Y545862D02*
Y547862D01*
X45029Y546862D02*
X47028D01*
X46028Y545862D02*
Y547862D01*
X667023Y291167D02*
X669023D01*
X668023Y290167D02*
Y292167D01*
X524254Y433321D02*
X526254D01*
X525254Y432321D02*
Y434321D01*
X35892Y104953D02*
X37892D01*
X36892Y103953D02*
Y105953D01*
X35624Y141300D02*
X37624D01*
X36624Y140300D02*
Y142300D01*
X35624Y122952D02*
X37624D01*
X36624Y121952D02*
Y123952D01*
X56940Y158602D02*
X58940D01*
X57940Y157602D02*
Y159602D01*
X57131Y172615D02*
X59131D01*
X58131Y171615D02*
Y173615D01*
X40829Y172613D02*
X42829D01*
X41829Y171613D02*
Y173613D01*
X40638Y158600D02*
X42638D01*
X41638Y157600D02*
Y159600D01*
X40160Y203216D02*
X42160D01*
X41160Y202216D02*
Y204216D01*
X39968Y189203D02*
X41968D01*
X40968Y188203D02*
Y190203D01*
X129012Y213922D02*
X131012D01*
X130012Y212922D02*
Y214922D01*
X114999Y214114D02*
X116999D01*
X115999Y213114D02*
Y215114D01*
X159675Y221297D02*
X161675D01*
X160675Y220297D02*
Y222297D01*
X141881Y216151D02*
X143881D01*
X142881Y215151D02*
Y217151D01*
X599786Y651424D02*
X601786D01*
X600786Y650424D02*
Y652424D01*
X584115Y510236D02*
X586115D01*
X585115Y509236D02*
Y511236D01*
X584114Y526092D02*
X586114D01*
X585113Y525092D02*
Y527092D01*
X584605Y582662D02*
X586605D01*
X585605Y581662D02*
Y583662D01*
X584105Y597852D02*
X586105D01*
X585105Y596852D02*
Y598852D01*
X521714Y596046D02*
X523714D01*
X522714Y595046D02*
Y597046D01*
X521658Y554017D02*
X523658D01*
X522658Y553018D02*
Y555018D01*
X647936Y554920D02*
X649936D01*
X648936Y553920D02*
Y555920D01*
X522614Y218698D02*
X524614D01*
X523614Y217698D02*
Y219698D01*
X566206Y144810D02*
X568206D01*
X567206Y143809D02*
Y145809D01*
X556190Y116611D02*
X558190D01*
X557190Y115611D02*
Y117611D01*
X566519Y178559D02*
X568519D01*
X567519Y177559D02*
Y179559D01*
X552215Y202181D02*
X554215D01*
X553215Y201181D02*
Y203181D01*
X75180Y340850D02*
X77179D01*
X76179Y339850D02*
Y341850D01*
X61233Y359407D02*
X63233D01*
X62233Y358407D02*
Y360407D01*
X61124Y444163D02*
X63124D01*
X62124Y443163D02*
Y445163D01*
X329503Y650954D02*
X331503D01*
X330503Y649954D02*
Y651954D01*
X288728Y652000D02*
X290728D01*
X289728Y651000D02*
Y653000D01*
X209062Y653869D02*
X211062D01*
X210062Y652869D02*
Y654870D01*
X249193Y652523D02*
X251193D01*
X250193Y651523D02*
Y653523D01*
X652901Y469643D02*
X654901D01*
X653901Y468643D02*
Y470643D01*
X255511Y313158D02*
X257511D01*
X256511Y312158D02*
Y314158D01*
X237704Y256283D02*
X239704D01*
X238704Y255283D02*
Y257283D01*
X355471Y265102D02*
X357471D01*
X356471Y264102D02*
Y266102D01*
X290909Y256283D02*
X292909D01*
X291909Y255283D02*
Y257283D01*
X309391Y256283D02*
X311391D01*
X310391Y255283D02*
Y257283D01*
X227857Y340865D02*
X229857D01*
X228857Y339865D02*
Y341865D01*
X230651Y378457D02*
X232651D01*
X231651Y377457D02*
Y379457D01*
X201187Y377601D02*
X203187D01*
X202187Y376601D02*
Y378601D01*
X254651Y405166D02*
X256651D01*
X255651Y404166D02*
Y406166D01*
X228604Y359447D02*
X230604D01*
X229604Y358447D02*
Y360447D01*
X343935Y410609D02*
X345935D01*
X344935Y409609D02*
Y411609D01*
X338516Y417347D02*
X340516D01*
X339516Y416347D02*
Y418347D01*
X274006Y400030D02*
X276006D01*
X275006Y399030D02*
Y401030D01*
X263396Y394814D02*
X265396D01*
X264396Y393814D02*
Y395814D01*
X359740Y394873D02*
X361740D01*
X360740Y393873D02*
Y395873D01*
X355493Y423074D02*
X357492D01*
X356493Y422074D02*
Y424074D01*
X312348Y382203D02*
X314348D01*
X313348Y381203D02*
Y383203D01*
X114349Y556491D02*
X116349D01*
X115349Y555491D02*
Y557491D01*
X73826Y555354D02*
X75826D01*
X74826Y554354D02*
Y556353D01*
X462325Y556610D02*
X464325D01*
X463325Y555610D02*
Y557610D01*
X345839Y556331D02*
X347839D01*
X346838Y555331D02*
Y557331D01*
X229891Y555715D02*
X231891D01*
X230891Y554715D02*
Y556715D01*
X189858Y555354D02*
X191858D01*
X190858Y554354D02*
Y556353D01*
X421920Y555354D02*
X423920D01*
X422920Y554354D02*
Y556353D01*
X305889Y555354D02*
X307889D01*
X306889Y554354D02*
Y556353D01*
X694342Y481032D02*
X696342D01*
X695342Y480032D02*
Y482032D01*
X693585Y508027D02*
X695585D01*
X694585Y507027D02*
Y509027D01*
X402387Y537937D02*
X404387D01*
X403387Y536937D02*
Y538937D01*
X285769Y537715D02*
X287769D01*
X286769Y536715D02*
Y538715D01*
X273447Y537263D02*
X275447D01*
X274447Y536263D02*
Y538263D01*
X169724Y537505D02*
X171724D01*
X170724Y536505D02*
Y538505D01*
X157585Y537505D02*
X159585D01*
X158585Y536505D02*
Y538505D01*
X456026Y410415D02*
X458026D01*
X457025Y409416D02*
Y411415D01*
X460750Y423360D02*
X462750D01*
X461750Y422360D02*
Y424360D01*
X484232Y461413D02*
X486232D01*
X485232Y460413D02*
Y462413D01*
X487057Y440941D02*
X489057D01*
X488057Y439941D02*
Y441941D01*
X426444Y329880D02*
X428444D01*
X427444Y328880D02*
Y330880D01*
X354088Y321815D02*
X356088D01*
X355088Y320815D02*
Y322815D01*
X371532Y321815D02*
X373532D01*
X372532Y320815D02*
Y322815D01*
X388975Y321815D02*
X390975D01*
X389975Y320815D02*
Y322815D01*
X406419Y321815D02*
X408419D01*
X407419Y320815D02*
Y322815D01*
X308341Y370140D02*
X310341D01*
X309341Y369140D02*
Y371140D01*
X415111Y345703D02*
X417111D01*
X416111Y344703D02*
Y346703D01*
X397957Y345775D02*
X399957D01*
X398956Y344775D02*
Y346775D01*
X380046Y345703D02*
X382046D01*
X381046Y344703D02*
Y346703D01*
X363152Y346539D02*
X365152D01*
X364152Y345539D02*
Y347539D01*
X507511Y409001D02*
X509511D01*
X508511Y408001D02*
Y410001D01*
X529399Y287874D02*
X531399D01*
X530399Y286874D02*
Y288874D01*
X527831Y471647D02*
X529831D01*
X528831Y470647D02*
Y472647D01*
X546119Y471611D02*
X548119D01*
X547119Y470611D02*
Y472611D01*
X527831Y461515D02*
X529831D01*
X528831Y460515D02*
Y462515D01*
X519003Y651497D02*
X521003D01*
X520003Y650497D02*
Y652497D01*
X491455Y513284D02*
X493455D01*
X492454Y512285D02*
Y514285D01*
X518941Y677161D02*
X520941D01*
X519941Y676161D02*
Y678161D01*
X568725Y639569D02*
X570725D01*
X569725Y638569D02*
Y640569D01*
X648750Y639061D02*
X650750D01*
X649750Y638061D02*
Y640061D01*
X599459Y676399D02*
X601459D01*
X600459Y675399D02*
Y677399D01*
X454933Y565909D02*
X456933D01*
X455933Y564909D02*
Y566909D01*
X464844Y518596D02*
X466844D01*
X465844Y517596D02*
Y519596D01*
X116750Y518596D02*
X118750D01*
X117750Y517596D02*
Y519596D01*
X338855Y565401D02*
X340855D01*
X339855Y564401D02*
Y566401D01*
X223031Y566163D02*
X225031D01*
X224031Y565163D02*
Y567163D01*
X145279Y513317D02*
X147278D01*
X146278Y512317D02*
Y514317D01*
X261710Y513692D02*
X263710D01*
X262710Y512692D02*
Y514692D01*
X377841Y513317D02*
X379841D01*
X378841Y512317D02*
Y514317D01*
X680485Y304543D02*
X682485D01*
X681485Y303543D02*
Y305543D01*
X679626Y203438D02*
X681626D01*
X680626Y202438D02*
Y204438D01*
X522141Y254128D02*
X524141D01*
X523141Y253128D02*
Y255128D01*
X255326Y435878D02*
X257325D01*
X256325Y434878D02*
Y436878D01*
X273863Y435878D02*
X275863D01*
X274863Y434878D02*
Y436878D01*
X292400Y435878D02*
X294400D01*
X293400Y434878D02*
Y436878D01*
X273863Y479015D02*
X275863D01*
X274863Y478015D02*
Y480015D01*
X255326Y479015D02*
X257325D01*
X256325Y478015D02*
Y480015D01*
X292400Y479015D02*
X294400D01*
X293400Y478015D02*
Y480015D01*
X310915Y479041D02*
X312915D01*
X311915Y478041D02*
Y480041D01*
X187627Y262556D02*
X189627D01*
X188627Y261556D02*
Y263556D01*
X92003Y262560D02*
X94003D01*
X93003Y261560D02*
Y263559D01*
X92003Y287017D02*
X94003D01*
X93003Y286017D02*
Y288017D01*
X92003Y275951D02*
X94003D01*
X93003Y274951D02*
Y276951D01*
X503447Y320545D02*
X505447D01*
X504447Y319545D02*
Y321545D01*
X659891Y252518D02*
X661891D01*
X660891Y251518D02*
Y253517D01*
X659700Y266554D02*
X661700D01*
X660700Y265554D02*
Y267554D01*
X686299Y318005D02*
X688299D01*
X687299Y317005D02*
Y319005D01*
X686045Y339341D02*
X688045D01*
X687045Y338341D02*
Y340341D01*
X685537Y360599D02*
X687537D01*
X686537Y359599D02*
Y361599D01*
X659891Y240546D02*
X661891D01*
X660891Y239546D02*
Y241546D01*
X659890Y227467D02*
X661890D01*
X660890Y226467D02*
Y228468D01*
X495573Y315211D02*
X497573D01*
X496573Y314211D02*
Y316211D01*
X504209Y310131D02*
X506209D01*
X505209Y309131D02*
Y311131D01*
X524180Y84004D02*
X526180D01*
X525180Y83004D02*
Y85004D01*
X503955Y84325D02*
X505955D01*
X504955Y83325D02*
Y85325D01*
X478236Y441034D02*
X480236D01*
X479236Y440034D02*
Y442034D01*
X485074Y429722D02*
X487074D01*
X486074Y428722D02*
Y430722D01*
X70631Y685797D02*
X72631D01*
X71631Y684797D02*
Y686797D01*
X79295Y368512D02*
X81295D01*
X80295Y367512D02*
Y369512D01*
X157386Y413829D02*
X159386D01*
X158386Y412830D02*
Y414829D01*
X156833Y395999D02*
X158833D01*
X157833Y394999D02*
Y396999D01*
X148643Y351511D02*
X150643D01*
X149643Y350511D02*
Y352511D01*
X154881Y357871D02*
X156881D01*
X155881Y356871D02*
Y358871D01*
X79251Y453573D02*
X81251D01*
X80251Y452573D02*
Y454573D01*
X109959Y403235D02*
X111959D01*
X110959Y402235D02*
Y404235D01*
X282721Y462785D02*
X284721D01*
X283721Y461785D02*
Y463785D01*
X455467Y495722D02*
X457467D01*
X456467Y494722D02*
Y496722D01*
X413767Y538255D02*
X415767D01*
X414767Y537255D02*
Y539255D01*
X421338Y533385D02*
X423338D01*
X422338Y532385D02*
Y534385D01*
X73244Y533385D02*
X75244D01*
X74244Y532385D02*
Y534385D01*
X305307Y533385D02*
X307307D01*
X306307Y532385D02*
Y534385D01*
X92076Y516235D02*
X94076D01*
X93076Y515235D02*
Y517235D01*
X114496Y509267D02*
X116496D01*
X115496Y508267D02*
Y510267D01*
X101987Y513739D02*
X103987D01*
X102987Y512739D02*
Y514739D01*
X208107Y516235D02*
X210107D01*
X209107Y515235D02*
Y517235D01*
X230527Y509267D02*
X232527D01*
X231527Y508267D02*
Y510267D01*
X218018Y513739D02*
X220018D01*
X219018Y512739D02*
Y514739D01*
X445191Y507438D02*
X447191D01*
X446191Y506438D02*
Y508438D01*
X450556Y514849D02*
X452556D01*
X451556Y513849D02*
Y515849D01*
X439999Y499936D02*
X441999D01*
X440999Y498936D02*
Y500936D01*
X334050Y513739D02*
X336050D01*
X335050Y512739D02*
Y514739D01*
X346558Y509267D02*
X348558D01*
X347558Y508267D02*
Y510267D01*
X324138Y515981D02*
X326138D01*
X325138Y514981D02*
Y516981D01*
X440170Y531834D02*
X442170D01*
X441170Y530834D02*
Y532834D01*
X449669Y531834D02*
X451670D01*
X450670Y530834D02*
Y532834D01*
X324138Y531834D02*
X326138D01*
X325138Y530834D02*
Y532834D01*
X333638Y531834D02*
X335638D01*
X334638Y530834D02*
Y532834D01*
X208107Y531834D02*
X210107D01*
X209107Y530834D02*
Y532834D01*
X217607Y531834D02*
X219607D01*
X218607Y530834D02*
Y532834D01*
X310598Y435878D02*
X312598D01*
X311598Y434878D02*
Y436878D01*
X101576Y531834D02*
X103576D01*
X102576Y530834D02*
Y532834D01*
X92076Y531834D02*
X94076D01*
X93076Y530834D02*
Y532834D01*
X362534Y296945D02*
X364534D01*
X363534Y295944D02*
Y297945D01*
X415111Y296997D02*
X417111D01*
X416111Y295997D02*
Y297997D01*
X309699Y320047D02*
X311700D01*
X310700Y319047D02*
Y321047D01*
X264350Y445074D02*
X266350D01*
X265350Y444074D02*
Y446074D01*
M02*
