G04*
G04 #@! TF.GenerationSoftware,Altium Limited,Altium Designer,24.1.2 (44)*
G04*
G04 Layer_Physical_Order=4*
G04 Layer_Color=16711680*
%FSLAX44Y44*%
%MOMM*%
G71*
G04*
G04 #@! TF.SameCoordinates,3CF5218A-9FD7-4805-B715-A3E35C90ED60*
G04*
G04*
G04 #@! TF.FilePolarity,Positive*
G04*
G01*
G75*
%ADD10C,0.2540*%
%ADD12C,0.3810*%
%ADD23C,0.5000*%
%ADD26C,1.2300*%
%ADD42R,0.7000X0.8000*%
%ADD45R,0.8000X0.7000*%
%ADD57R,0.9500X0.9000*%
%ADD60O,0.6000X1.8000*%
%ADD122C,1.0000*%
%ADD131C,1.0000*%
%ADD134R,2.9617X2.9437*%
%ADD143R,1.3700X1.3700*%
%ADD144C,1.3700*%
%ADD145C,0.3000*%
%ADD146C,6.0000*%
%ADD147R,1.6000X1.6000*%
%ADD148C,1.6000*%
%ADD149C,1.4580*%
%ADD150C,0.4000*%
%ADD151C,0.4500*%
%ADD155C,0.3200*%
%ADD156R,0.9000X0.6000*%
%ADD157R,1.3000X1.1500*%
%ADD158R,1.1000X1.0000*%
%ADD159R,1.2700X1.6510*%
G04:AMPARAMS|DCode=160|XSize=0.2746mm|YSize=0.8048mm|CornerRadius=0.1373mm|HoleSize=0mm|Usage=FLASHONLY|Rotation=0.000|XOffset=0mm|YOffset=0mm|HoleType=Round|Shape=RoundedRectangle|*
%AMROUNDEDRECTD160*
21,1,0.2746,0.5302,0,0,0.0*
21,1,0.0000,0.8048,0,0,0.0*
1,1,0.2746,0.0000,-0.2651*
1,1,0.2746,0.0000,-0.2651*
1,1,0.2746,0.0000,0.2651*
1,1,0.2746,0.0000,0.2651*
%
%ADD160ROUNDEDRECTD160*%
G04:AMPARAMS|DCode=161|XSize=0.2746mm|YSize=0.8048mm|CornerRadius=0.1373mm|HoleSize=0mm|Usage=FLASHONLY|Rotation=270.000|XOffset=0mm|YOffset=0mm|HoleType=Round|Shape=RoundedRectangle|*
%AMROUNDEDRECTD161*
21,1,0.2746,0.5302,0,0,270.0*
21,1,0.0000,0.8048,0,0,270.0*
1,1,0.2746,-0.2651,0.0000*
1,1,0.2746,-0.2651,0.0000*
1,1,0.2746,0.2651,0.0000*
1,1,0.2746,0.2651,0.0000*
%
%ADD161ROUNDEDRECTD161*%
%ADD162R,2.5000X2.5000*%
%ADD163R,1.0000X3.2000*%
%ADD164R,2.7178X3.4036*%
%ADD165O,1.8000X0.6000*%
%ADD166R,1.3046X1.5208*%
%ADD167R,4.2901X4.3860*%
%ADD168R,1.2272X1.9424*%
G36*
X789069Y835651D02*
X789531Y834381D01*
X786822Y830653D01*
X784551Y826196D01*
X783006Y821439D01*
X782223Y816498D01*
Y811496D01*
X783006Y806555D01*
X784551Y801797D01*
X786822Y797340D01*
X789763Y793294D01*
X793300Y789756D01*
X797347Y786816D01*
X801804Y784545D01*
X806561Y782999D01*
X811502Y782217D01*
X816504D01*
X821445Y782999D01*
X826202Y784545D01*
X830659Y786816D01*
X834387Y789525D01*
X835657Y789063D01*
X835657Y60931D01*
X834387Y60469D01*
X830659Y63177D01*
X826202Y65448D01*
X821445Y66994D01*
X816504Y67777D01*
X811502D01*
X806561Y66994D01*
X801804Y65448D01*
X797347Y63177D01*
X793300Y60237D01*
X789763Y56700D01*
X786822Y52653D01*
X784551Y48196D01*
X783006Y43439D01*
X782223Y38498D01*
Y33496D01*
X783006Y28555D01*
X784551Y23798D01*
X786822Y19340D01*
X789526Y15619D01*
X789059Y14349D01*
X317288Y14349D01*
X316802Y15522D01*
X316953Y15672D01*
X317627Y16681D01*
X317721Y17155D01*
X318223Y18217D01*
X331126D01*
X331934Y17960D01*
X332383Y17196D01*
X332390Y17165D01*
X332783Y16576D01*
X333372Y16183D01*
X334066Y16044D01*
X376967D01*
X377661Y16183D01*
X378250Y16576D01*
X378644Y17165D01*
X378782Y17859D01*
Y18217D01*
X391783D01*
Y32887D01*
X398223D01*
Y18217D01*
X411783D01*
Y32887D01*
X418223D01*
Y18217D01*
X431783D01*
Y32887D01*
X438223D01*
Y18217D01*
X451783D01*
Y32887D01*
X458223D01*
Y18217D01*
X471783D01*
Y53777D01*
X458223D01*
Y39107D01*
X451783D01*
Y53777D01*
X438223D01*
Y39107D01*
X431783D01*
Y53777D01*
X418223D01*
Y39107D01*
X411783D01*
Y53777D01*
X398223D01*
Y39107D01*
X391783D01*
Y53777D01*
X378782D01*
Y61719D01*
X378644Y62413D01*
X378250Y63002D01*
X377661Y63396D01*
X376967Y63534D01*
X334066D01*
X333372Y63396D01*
X333111Y63222D01*
X332017Y63638D01*
X331842Y63784D01*
Y79499D01*
X331783Y79943D01*
Y97379D01*
X335354Y100950D01*
X342120D01*
X343310Y101187D01*
X344319Y101861D01*
X344929Y102471D01*
X350393D01*
X351003Y101861D01*
X352011Y101187D01*
X353201Y100950D01*
X359312D01*
X360502Y101187D01*
X361511Y101861D01*
X362121Y102471D01*
X369499D01*
X370109Y101861D01*
X371118Y101187D01*
X372308Y100950D01*
X378223D01*
Y66217D01*
X391783D01*
Y80887D01*
X398223D01*
Y66217D01*
X411783D01*
Y80887D01*
X418223D01*
Y66217D01*
X431783D01*
Y80887D01*
X438223D01*
Y66217D01*
X451783D01*
Y80887D01*
X458223D01*
Y66217D01*
X471783D01*
Y101777D01*
X472894Y102161D01*
X473345D01*
X478163Y97343D01*
Y87727D01*
X478223Y87426D01*
Y66217D01*
X481893D01*
Y61175D01*
X482130Y59985D01*
X482804Y58976D01*
X486342Y55438D01*
X486927Y55047D01*
X486542Y53777D01*
X478223D01*
Y18217D01*
X491783D01*
Y53257D01*
X491783Y53777D01*
X492742Y54527D01*
X497264D01*
X498223Y53777D01*
X498223Y53257D01*
Y18217D01*
X511783D01*
Y53257D01*
X511783Y53777D01*
X512742Y54527D01*
X517264D01*
X518223Y53777D01*
X518223Y53257D01*
Y18217D01*
X531783D01*
Y53257D01*
X531783Y53777D01*
X532742Y54527D01*
X537264D01*
X538223Y53777D01*
X538223Y53257D01*
Y18217D01*
X551783D01*
Y53257D01*
X551783Y53777D01*
X552742Y54527D01*
X557264D01*
X558223Y53777D01*
X558223Y53257D01*
Y18217D01*
X571783D01*
Y53257D01*
X571783Y53777D01*
X572742Y54527D01*
X578164D01*
Y35997D01*
X578223Y35552D01*
Y18217D01*
X591783D01*
Y35552D01*
X591842Y35997D01*
Y72228D01*
X591783Y72672D01*
Y101777D01*
X578355D01*
Y105572D01*
X581488Y108705D01*
X688133D01*
X689324Y108942D01*
X690332Y109616D01*
X718789Y138072D01*
X719463Y139081D01*
X719699Y140271D01*
Y325087D01*
X720889Y325693D01*
X722279Y325117D01*
X723782D01*
X725172Y325693D01*
X726235Y326756D01*
X726811Y328146D01*
Y329649D01*
X726235Y331039D01*
X725172Y332102D01*
X723782Y332677D01*
X722279D01*
X720889Y332102D01*
X719699Y332708D01*
Y350340D01*
X719463Y351530D01*
X718789Y352539D01*
X697606Y373721D01*
X696597Y374395D01*
X695407Y374632D01*
X694566D01*
X694192Y375006D01*
X692802Y375582D01*
X691298D01*
X689909Y375006D01*
X688846Y373943D01*
X688270Y372554D01*
Y371050D01*
X688618Y370211D01*
X687906Y368941D01*
X677168D01*
X676434Y369244D01*
X676013Y370619D01*
X684043Y378649D01*
X684213D01*
X684308Y378554D01*
X685697Y377979D01*
X687201D01*
X688590Y378554D01*
X689654Y379618D01*
X690229Y381007D01*
Y382511D01*
X689654Y383900D01*
X688590Y384964D01*
X687201Y385539D01*
X685697D01*
X684308Y384964D01*
X684213Y384869D01*
X682755D01*
X681565Y384632D01*
X680556Y383958D01*
X669696Y373097D01*
X668522Y373583D01*
Y382664D01*
X680453Y394595D01*
X680796D01*
X682185Y395170D01*
X683248Y396233D01*
X683824Y397623D01*
Y399127D01*
X683248Y400516D01*
X682185Y401579D01*
X680796Y402155D01*
X679292D01*
X677903Y401579D01*
X676839Y400516D01*
X676316Y399253D01*
X663214Y386151D01*
X662540Y385142D01*
X662303Y383952D01*
Y357322D01*
X661033Y356474D01*
X660867Y356542D01*
X659363D01*
X659130Y356446D01*
X657860Y357294D01*
Y403617D01*
X572196D01*
X572118Y342827D01*
X553992D01*
X540827Y355993D01*
X539818Y356667D01*
X538628Y356903D01*
X522912D01*
X522386Y358173D01*
X573087Y408875D01*
X667189D01*
X668038Y407605D01*
X667974Y407451D01*
Y405947D01*
X668549Y404558D01*
X669613Y403494D01*
X671002Y402919D01*
X672506D01*
X673895Y403494D01*
X674959Y404558D01*
X675534Y405947D01*
Y407451D01*
X675470Y407605D01*
X676319Y408875D01*
X678004D01*
X679194Y409112D01*
X680203Y409786D01*
X681906Y411489D01*
X682435D01*
X683824Y412064D01*
X684888Y413128D01*
X685463Y414517D01*
Y416021D01*
X684888Y417410D01*
X683824Y418473D01*
X682435Y419049D01*
X680931D01*
X679542Y418473D01*
X678479Y417410D01*
X678088Y416466D01*
X676716Y415095D01*
X594640D01*
X593791Y416365D01*
X594007Y416887D01*
Y418391D01*
X593432Y419780D01*
X592653Y420559D01*
X593054Y421829D01*
X651309D01*
X651404Y421734D01*
X652793Y421159D01*
X654297D01*
X655686Y421734D01*
X656750Y422798D01*
X657325Y424187D01*
Y425691D01*
X656750Y427080D01*
X655686Y428143D01*
X654297Y428719D01*
X652793D01*
X651404Y428143D01*
X651309Y428049D01*
X579040D01*
X577850Y427812D01*
X576841Y427138D01*
X515569Y365866D01*
X510209D01*
X510114Y365960D01*
X508725Y366536D01*
X507221D01*
X505832Y365960D01*
X504768Y364897D01*
X504193Y363508D01*
Y362004D01*
X504768Y360615D01*
X505832Y359551D01*
X507221Y358976D01*
X508725D01*
X510114Y359551D01*
X510209Y359646D01*
X513403D01*
X513889Y358473D01*
X508122Y352706D01*
X507988D01*
X506599Y352130D01*
X505536Y351067D01*
X504960Y349678D01*
Y348174D01*
X505536Y346785D01*
X506599Y345721D01*
X507434Y345376D01*
X507635Y344655D01*
X507221Y343501D01*
X505832Y342925D01*
X504768Y341862D01*
X504193Y340473D01*
Y338969D01*
X504768Y337580D01*
X505832Y336516D01*
X507221Y335941D01*
X508725D01*
X510114Y336516D01*
X511178Y337580D01*
X511753Y338969D01*
Y339103D01*
X523334Y350684D01*
X537340D01*
X550505Y337519D01*
X551514Y336845D01*
X552704Y336608D01*
X552704Y336608D01*
X656660D01*
X657850Y336845D01*
X658859Y337519D01*
X665864Y344524D01*
X667037Y344038D01*
Y342790D01*
X648773Y324526D01*
X535111D01*
X528616Y331020D01*
X527607Y331694D01*
X526418Y331931D01*
X510336D01*
X509150Y332422D01*
X507646D01*
X506257Y331847D01*
X505194Y330783D01*
X504618Y329394D01*
Y327890D01*
X505194Y326501D01*
X506257Y325438D01*
X507646Y324862D01*
X509150D01*
X510540Y325438D01*
X510813Y325712D01*
X525129D01*
X531250Y319591D01*
X530724Y318321D01*
X526053D01*
X525347Y319377D01*
X525412Y319532D01*
Y321036D01*
X524837Y322425D01*
X523773Y323489D01*
X522384Y324064D01*
X520880D01*
X519577Y323524D01*
X506813D01*
X506588Y323749D01*
X505199Y324325D01*
X503695D01*
X502306Y323749D01*
X501242Y322686D01*
X500667Y321297D01*
Y319793D01*
X500751Y319591D01*
X500011Y318484D01*
X498723Y318407D01*
X498714Y318415D01*
X497325Y318991D01*
X495821D01*
X494432Y318415D01*
X493368Y317352D01*
X492793Y315963D01*
Y314459D01*
X493368Y313070D01*
X494432Y312006D01*
X495821Y311431D01*
X497325D01*
X498714Y312006D01*
X498809Y312101D01*
X500568D01*
X500954Y311801D01*
X501006Y311744D01*
X501429Y310883D01*
Y310592D01*
X501337Y310131D01*
X501429Y309670D01*
Y309379D01*
X501496Y309217D01*
X501314Y308871D01*
X501068Y308610D01*
X500515Y308249D01*
X500033Y308449D01*
X498529D01*
X497139Y307873D01*
X496076Y306810D01*
X495501Y305421D01*
Y303917D01*
X496076Y302528D01*
X497139Y301464D01*
X498529Y300889D01*
X500033D01*
X501422Y301464D01*
X501601Y301644D01*
X554520D01*
X555006Y300471D01*
X534287Y279752D01*
X491778D01*
X485383Y286147D01*
X478890Y292640D01*
Y387179D01*
X495062Y403351D01*
X496560Y403053D01*
X496682Y402760D01*
X497745Y401697D01*
X498862Y401234D01*
X505134Y394962D01*
X506143Y394288D01*
X507333Y394051D01*
X512044D01*
Y387733D01*
X522604D01*
Y399293D01*
X516361D01*
X516293Y399360D01*
X515285Y400034D01*
X514095Y400271D01*
X508621D01*
X503667Y405225D01*
Y405653D01*
X503091Y407042D01*
X502028Y408106D01*
X501734Y408227D01*
X501436Y409725D01*
X510789Y419078D01*
X512059Y418904D01*
Y418710D01*
X522619D01*
Y424470D01*
X523405Y425647D01*
X523541Y426329D01*
X526789Y429577D01*
X528059Y429051D01*
Y418710D01*
X529582D01*
Y414781D01*
X528059D01*
Y403221D01*
X538619D01*
Y414781D01*
X537096D01*
Y418710D01*
X538619D01*
Y430270D01*
X529344D01*
X529079Y430542D01*
X528607Y431540D01*
X529034Y432569D01*
Y434073D01*
X528939Y434302D01*
X529644Y435358D01*
X752210D01*
X784762Y402806D01*
Y402673D01*
X785338Y401284D01*
X786401Y400221D01*
X787790Y399645D01*
X789294D01*
X789863Y399265D01*
Y396644D01*
X804423D01*
Y410204D01*
X789863D01*
Y408297D01*
X788593Y407771D01*
X756739Y439624D01*
X757265Y440894D01*
X786439D01*
X787705Y440370D01*
X789209D01*
X789863Y439933D01*
Y436628D01*
X804423D01*
Y450188D01*
X789863D01*
Y448367D01*
X789209Y447930D01*
X787705D01*
X786316Y447354D01*
X786075Y447114D01*
X555602D01*
X555217Y448384D01*
X555309Y448445D01*
X570086Y463223D01*
X570087Y463223D01*
X571096Y463897D01*
X574054Y466855D01*
X574728Y467864D01*
X574728Y467864D01*
X578311Y471447D01*
X578985Y472456D01*
X579222Y473646D01*
Y474355D01*
X579655Y475446D01*
X582325D01*
Y468157D01*
X582562Y466967D01*
X583236Y465958D01*
X595974Y453220D01*
X596983Y452546D01*
X598173Y452309D01*
X665287D01*
X666478Y452546D01*
X667486Y453220D01*
X682297Y468030D01*
X682971Y469039D01*
X683208Y470229D01*
Y638924D01*
X682971Y640114D01*
X682297Y641123D01*
X644822Y678598D01*
X643813Y679272D01*
X642623Y679509D01*
X602695D01*
X602600Y679603D01*
X601211Y680179D01*
X599707D01*
X598318Y679603D01*
X597254Y678540D01*
X596679Y677151D01*
Y675647D01*
X597254Y674258D01*
X598318Y673194D01*
X599707Y672619D01*
X601211D01*
X602600Y673194D01*
X602695Y673289D01*
X641335D01*
X676988Y637636D01*
Y635472D01*
X676805Y635400D01*
X675718Y635261D01*
X675195Y636043D01*
X657616Y653623D01*
X656607Y654297D01*
X655417Y654533D01*
X603022D01*
X602927Y654628D01*
X601538Y655204D01*
X600034D01*
X598645Y654628D01*
X597581Y653565D01*
X597006Y652176D01*
Y650672D01*
X597581Y649282D01*
X598645Y648219D01*
X600034Y647644D01*
X601538D01*
X602927Y648219D01*
X603022Y648314D01*
X654129D01*
X669886Y632556D01*
Y478626D01*
X664013Y472753D01*
X656137D01*
X656042Y472847D01*
X654653Y473423D01*
X653149D01*
X651760Y472847D01*
X650696Y471784D01*
X650121Y470395D01*
Y468891D01*
X650696Y467502D01*
X651760Y466438D01*
X653149Y465863D01*
X654653D01*
X656042Y466438D01*
X656137Y466533D01*
X665301D01*
X666491Y466770D01*
X667500Y467444D01*
X675195Y475139D01*
X675718Y475922D01*
X676805Y475782D01*
X676988Y475710D01*
Y471517D01*
X663999Y458529D01*
X625263D01*
Y475446D01*
X627934D01*
Y485512D01*
X630153D01*
X630248Y485418D01*
X631637Y484842D01*
X633141D01*
X633463Y484976D01*
X634733Y484127D01*
Y478575D01*
X630716Y474557D01*
X630505D01*
X629116Y473982D01*
X628052Y472919D01*
X627477Y471529D01*
Y470025D01*
X628052Y468636D01*
X629116Y467573D01*
X630505Y466997D01*
X632009D01*
X633398Y467573D01*
X634461Y468636D01*
X635037Y470025D01*
Y470083D01*
X640398Y475444D01*
X646293D01*
Y486004D01*
X636771D01*
X635922Y487274D01*
X636169Y487870D01*
Y489374D01*
X635838Y490174D01*
X636572Y491444D01*
X646293D01*
Y502004D01*
X640907D01*
Y516336D01*
X641561Y516773D01*
X642617Y518354D01*
X642988Y520219D01*
Y532219D01*
X642617Y534084D01*
X641561Y535665D01*
X639980Y536722D01*
X638115Y537093D01*
X636250Y536722D01*
X634669Y535665D01*
X633612Y534084D01*
X633241Y532219D01*
Y520219D01*
X633612Y518354D01*
X634185Y517496D01*
X633507Y516226D01*
X630023D01*
X629344Y517496D01*
X629917Y518354D01*
X630288Y520219D01*
Y532219D01*
X629917Y534084D01*
X628861Y535665D01*
X627280Y536722D01*
X625415Y537093D01*
X623550Y536722D01*
X621968Y535665D01*
X620912Y534084D01*
X620541Y532219D01*
Y520219D01*
X620912Y518354D01*
X621968Y516773D01*
X622305Y516548D01*
Y514604D01*
X622542Y513414D01*
X623216Y512405D01*
X624704Y510917D01*
X625713Y510243D01*
X626903Y510006D01*
X634687D01*
Y500331D01*
X634733Y500100D01*
Y493117D01*
X633463Y492269D01*
X633141Y492402D01*
X631637D01*
X630248Y491827D01*
X630153Y491732D01*
X627934D01*
Y502006D01*
X616374D01*
X615825Y503048D01*
Y516548D01*
X616161Y516773D01*
X617217Y518354D01*
X617588Y520219D01*
Y532219D01*
X617217Y534084D01*
X616161Y535665D01*
X614580Y536722D01*
X612715Y537093D01*
X610850Y536722D01*
X609268Y535665D01*
X608212Y534084D01*
X607841Y532219D01*
Y520219D01*
X608212Y518354D01*
X609268Y516773D01*
X609605Y516548D01*
Y501755D01*
X598914D01*
Y491732D01*
X580032D01*
X578842Y491495D01*
X577833Y490821D01*
X573913Y486901D01*
X573604Y486438D01*
X572464Y486006D01*
X572464Y486006D01*
X572464Y486006D01*
X560904D01*
Y478952D01*
X557892Y475941D01*
X557858Y475890D01*
X551673Y469704D01*
X549245D01*
X549075Y469671D01*
X545163D01*
X544994Y469704D01*
X533261D01*
X532555Y470760D01*
X532611Y470895D01*
Y472399D01*
X532036Y473788D01*
X531941Y473883D01*
Y475444D01*
X536646D01*
Y486004D01*
X525086D01*
Y475444D01*
X525721D01*
Y473883D01*
X525626Y473788D01*
X525051Y472399D01*
Y470895D01*
X525107Y470760D01*
X524401Y469704D01*
X520854D01*
X516383Y474175D01*
X516909Y475446D01*
X517385D01*
Y486006D01*
X505826D01*
X505635Y487197D01*
Y523046D01*
X505827Y524237D01*
X506905Y524237D01*
X517387D01*
Y534797D01*
X515364D01*
Y541279D01*
X517387D01*
Y551839D01*
X505827Y551839D01*
X505635Y553030D01*
Y556088D01*
X505827Y557279D01*
X506905Y557279D01*
X517387D01*
Y558802D01*
X518870D01*
X518900Y558771D01*
Y554824D01*
X518878Y554769D01*
Y553266D01*
X518900Y553210D01*
Y528451D01*
X519187Y527013D01*
X520001Y525794D01*
X522233Y523562D01*
X523452Y522748D01*
X524889Y522462D01*
X529101D01*
Y520219D01*
X529472Y518354D01*
X530528Y516773D01*
X532110Y515716D01*
X533975Y515345D01*
X535840Y515716D01*
X537421Y516773D01*
X538477Y518354D01*
X538848Y520219D01*
Y532219D01*
X538477Y534084D01*
X537421Y535665D01*
X535840Y536722D01*
X533975Y537093D01*
X532110Y536722D01*
X530528Y535665D01*
X529472Y534084D01*
X529101Y532219D01*
Y529976D01*
X526446D01*
X526415Y530007D01*
Y550260D01*
X645107D01*
Y548668D01*
X645393Y547230D01*
X646207Y546011D01*
X648439Y543779D01*
X649658Y542965D01*
X651096Y542679D01*
X653993D01*
Y541156D01*
X655727D01*
Y534735D01*
X653993D01*
Y524175D01*
X665553D01*
Y534735D01*
X663241D01*
Y541156D01*
X665553D01*
Y551716D01*
X653993D01*
Y550193D01*
X652652D01*
X652621Y550224D01*
Y553940D01*
X652716Y554168D01*
Y555672D01*
X652693Y555727D01*
Y580487D01*
X652407Y581925D01*
X651592Y583144D01*
X649361Y585376D01*
X648142Y586190D01*
X646704Y586476D01*
X642988D01*
Y588719D01*
X642617Y590584D01*
X641561Y592165D01*
X639980Y593222D01*
X638115Y593593D01*
X636250Y593222D01*
X634669Y592165D01*
X633612Y590584D01*
X633241Y588719D01*
Y576719D01*
X633612Y574854D01*
X634669Y573273D01*
X636250Y572216D01*
X638115Y571845D01*
X639980Y572216D01*
X641561Y573273D01*
X642617Y574854D01*
X642988Y576719D01*
Y578962D01*
X645148D01*
X645179Y578931D01*
Y557775D01*
X526415D01*
Y560327D01*
X526129Y561765D01*
X525314Y562984D01*
X523083Y565216D01*
X521864Y566030D01*
X520426Y566316D01*
X517387D01*
Y567839D01*
X515364D01*
Y574321D01*
X517387D01*
Y584881D01*
X505827Y584881D01*
X505635Y586072D01*
Y589130D01*
X505827Y590321D01*
X506905Y590321D01*
X517387D01*
Y600881D01*
X515364D01*
Y607117D01*
X517387D01*
Y617677D01*
X505827Y617677D01*
X505635Y618868D01*
Y632731D01*
X520621Y647717D01*
X520755D01*
X522144Y648292D01*
X523208Y649356D01*
X523783Y650745D01*
Y652249D01*
X523208Y653638D01*
X522144Y654701D01*
X520755Y655277D01*
X519251D01*
X517862Y654701D01*
X516799Y653638D01*
X516223Y652249D01*
Y652115D01*
X502350Y638242D01*
X501177Y638728D01*
Y653999D01*
X520559Y673381D01*
X520693D01*
X522082Y673956D01*
X523146Y675020D01*
X523721Y676409D01*
Y677913D01*
X523146Y679302D01*
X522082Y680365D01*
X520693Y680941D01*
X519189D01*
X517800Y680365D01*
X516736Y679302D01*
X516161Y677913D01*
Y677779D01*
X495868Y657486D01*
X495194Y656477D01*
X494957Y655287D01*
Y551292D01*
X493687Y550443D01*
X493206Y550642D01*
X491703D01*
X490313Y550067D01*
X489250Y549003D01*
X488675Y547614D01*
Y546110D01*
X489250Y544721D01*
X490313Y543658D01*
X491703Y543082D01*
X493206D01*
X493687Y543281D01*
X494957Y542433D01*
Y521323D01*
X493687Y520797D01*
X472463Y542020D01*
X472761Y543518D01*
X473098Y543658D01*
X474161Y544721D01*
X474736Y546110D01*
Y547614D01*
X474161Y549003D01*
X473098Y550067D01*
X471708Y550642D01*
X470205D01*
X468815Y550067D01*
X467752Y549003D01*
X467613Y548667D01*
X466115Y548369D01*
X459043Y555441D01*
Y563673D01*
X459138Y563768D01*
X459713Y565157D01*
Y566661D01*
X459138Y568050D01*
X458074Y569113D01*
X456685Y569689D01*
X455181D01*
X453792Y569113D01*
X452729Y568050D01*
X452153Y566661D01*
Y565157D01*
X452729Y563768D01*
X452823Y563673D01*
Y555682D01*
X451553Y555156D01*
X440009Y566701D01*
Y608627D01*
X439772Y609817D01*
X439098Y610826D01*
X439098Y610826D01*
X381768Y668156D01*
X380759Y668830D01*
X379569Y669066D01*
X209013D01*
X208487Y670336D01*
X208852Y670702D01*
X209428Y672091D01*
Y673595D01*
X208852Y674984D01*
X207789Y676047D01*
X206400Y676623D01*
X204896D01*
X203507Y676047D01*
X202443Y674984D01*
X201868Y673595D01*
Y672091D01*
X202443Y670702D01*
X202808Y670336D01*
X202282Y669066D01*
X177599D01*
X163911Y682755D01*
X164568Y683893D01*
X166309Y683427D01*
X168697D01*
X171004Y684045D01*
X173072Y685239D01*
X174761Y686928D01*
X175955Y688996D01*
X176573Y691303D01*
Y693691D01*
X175955Y695998D01*
X174761Y698066D01*
X173072Y699755D01*
X171004Y700949D01*
X168697Y701567D01*
X166309D01*
X164002Y700949D01*
X161934Y699755D01*
X160245Y698066D01*
X159051Y695998D01*
X158433Y693691D01*
Y691303D01*
X158899Y689562D01*
X157761Y688904D01*
X155498Y691167D01*
Y732801D01*
X155498Y732802D01*
X155262Y733991D01*
X154587Y735000D01*
X154587Y735000D01*
X143737Y745851D01*
X143204Y747138D01*
X142141Y748201D01*
X140751Y748777D01*
X139248D01*
X137858Y748201D01*
X136795Y747138D01*
X136219Y745749D01*
Y744245D01*
X136795Y742856D01*
X137858Y741792D01*
X139248Y741217D01*
X139575D01*
X149279Y731513D01*
Y689879D01*
X149515Y688689D01*
X150190Y687680D01*
X173003Y664867D01*
X172477Y663597D01*
X149776D01*
X144559Y668813D01*
Y668948D01*
X143984Y670337D01*
X142921Y671400D01*
X141531Y671976D01*
X140027D01*
X138638Y671400D01*
X137575Y670337D01*
X136999Y668948D01*
Y667444D01*
X137575Y666054D01*
X138638Y664991D01*
X140027Y664416D01*
X140161D01*
X146289Y658288D01*
X147298Y657614D01*
X148488Y657377D01*
X206428D01*
X206954Y656107D01*
X206858Y656011D01*
X206282Y654621D01*
Y653118D01*
X206858Y651728D01*
X206952Y651634D01*
Y648510D01*
X199597Y641155D01*
X186037D01*
X184847Y640918D01*
X183838Y640244D01*
X176334Y632740D01*
X175660Y631731D01*
X175424Y630541D01*
Y604243D01*
X169345Y598165D01*
X95951D01*
X95951Y598165D01*
X94761Y597928D01*
X93752Y597254D01*
X84418Y587920D01*
X83744Y586911D01*
X83507Y585721D01*
Y582522D01*
X57007Y556022D01*
X56333Y555013D01*
X56097Y553823D01*
Y542373D01*
X56333Y541183D01*
X57007Y540174D01*
X59352Y537829D01*
Y537330D01*
X59928Y535941D01*
X60991Y534878D01*
X61426Y534698D01*
X61724Y533200D01*
X53843Y525319D01*
X53792D01*
X52403Y524744D01*
X51340Y523680D01*
X50764Y522291D01*
Y520787D01*
X51340Y519398D01*
X52403Y518335D01*
X53792Y517759D01*
X55296D01*
X56686Y518335D01*
X57749Y519398D01*
X58324Y520787D01*
Y521005D01*
X69342Y532023D01*
X70840Y531725D01*
X71040Y531244D01*
X72103Y530180D01*
X73492Y529605D01*
X74996D01*
X76385Y530180D01*
X77449Y531244D01*
X78024Y532633D01*
Y534137D01*
X77449Y535526D01*
X76385Y536589D01*
X75904Y536789D01*
X75606Y538287D01*
X104225Y566906D01*
X104250Y566907D01*
X104687Y566007D01*
X104683Y565544D01*
X104671Y565532D01*
X104096Y564143D01*
Y562639D01*
X104671Y561250D01*
X104700Y561221D01*
Y536421D01*
X103665Y535605D01*
X103458Y535560D01*
X103328Y535614D01*
X101824D01*
X100435Y535039D01*
X99371Y533976D01*
X98796Y532586D01*
Y531151D01*
X98424Y530800D01*
X97780Y530310D01*
X96856Y531083D01*
Y532586D01*
X96280Y533976D01*
X95217Y535039D01*
X93828Y535614D01*
X92324D01*
X90935Y535039D01*
X89871Y533976D01*
X89296Y532586D01*
Y531082D01*
X89372Y530898D01*
X88524Y529628D01*
X85678D01*
X84488Y529391D01*
X83479Y528717D01*
X71528Y516767D01*
X70854Y515758D01*
X70618Y514568D01*
Y494647D01*
X70854Y493457D01*
X71528Y492448D01*
X136481Y427495D01*
X136478Y427479D01*
X136966Y425028D01*
X138354Y422951D01*
X140431Y421563D01*
X142881Y421076D01*
X145331Y421563D01*
X147409Y422951D01*
X148356Y424369D01*
X192153D01*
Y417757D01*
X190874D01*
Y406197D01*
X201434D01*
Y417757D01*
X198372D01*
Y430125D01*
X199236Y430297D01*
X200279Y430994D01*
X200976Y432037D01*
X201221Y433267D01*
X200976Y434497D01*
X200775Y434798D01*
X200373Y435767D01*
X200775Y436736D01*
X200976Y437037D01*
X201221Y438267D01*
X200976Y439497D01*
X200775Y439798D01*
X200373Y440767D01*
X200775Y441736D01*
X200976Y442037D01*
X201221Y443267D01*
X200976Y444497D01*
X200775Y444798D01*
X200373Y445767D01*
X200775Y446736D01*
X200976Y447037D01*
X201221Y448267D01*
X200976Y449497D01*
X200775Y449798D01*
X200373Y450767D01*
X200775Y451736D01*
X200976Y452037D01*
X201221Y453267D01*
X200976Y454497D01*
X200775Y454798D01*
X200373Y455767D01*
X200775Y456736D01*
X200976Y457037D01*
X201221Y458267D01*
X200976Y459497D01*
X200279Y460540D01*
X199236Y461237D01*
X198006Y461482D01*
X192704D01*
X192176Y461377D01*
X142606D01*
X141659Y462794D01*
X139581Y464183D01*
X137131Y464670D01*
X134681Y464183D01*
X132604Y462794D01*
X131656Y461377D01*
X127397D01*
X82996Y505777D01*
Y511747D01*
X88026Y516777D01*
X89296Y516251D01*
Y515483D01*
X89871Y514094D01*
X90935Y513030D01*
X92084Y512554D01*
X111111Y493528D01*
X112120Y492854D01*
X113310Y492617D01*
X133770D01*
X134457Y491347D01*
X134092Y490466D01*
Y488962D01*
X134668Y487573D01*
X135731Y486510D01*
X137120Y485934D01*
X138624D01*
X140013Y486510D01*
X140108Y486604D01*
X195090D01*
X203604Y478090D01*
Y468557D01*
X203666Y468244D01*
Y467452D01*
X203664Y467442D01*
Y462140D01*
X203909Y460910D01*
X204606Y459867D01*
X205649Y459170D01*
X206879Y458925D01*
X208109Y459170D01*
X208410Y459371D01*
X209379Y459773D01*
X210348Y459371D01*
X210649Y459170D01*
X211879Y458925D01*
X213109Y459170D01*
X213410Y459371D01*
X214379Y459773D01*
X215348Y459371D01*
X215649Y459170D01*
X216879Y458925D01*
X218109Y459170D01*
X218410Y459371D01*
X219379Y459773D01*
X220348Y459371D01*
X220649Y459170D01*
X221879Y458925D01*
X223109Y459170D01*
X223410Y459371D01*
X224379Y459773D01*
X225348Y459371D01*
X225649Y459170D01*
X226392Y459022D01*
X227141Y458528D01*
X227634Y457780D01*
X227782Y457037D01*
X227983Y456736D01*
X228385Y455767D01*
X227983Y454798D01*
X227782Y454497D01*
X227537Y453267D01*
X227782Y452037D01*
X227983Y451736D01*
X228385Y450767D01*
X227983Y449798D01*
X227782Y449497D01*
X227537Y448267D01*
X227782Y447037D01*
X227983Y446736D01*
X228385Y445767D01*
X227983Y444798D01*
X227782Y444497D01*
X227537Y443267D01*
X227782Y442037D01*
X227983Y441736D01*
X228385Y440767D01*
X227983Y439798D01*
X227782Y439497D01*
X227537Y438267D01*
X227782Y437037D01*
X227983Y436736D01*
X228385Y435767D01*
X227983Y434798D01*
X227782Y434497D01*
X227634Y433753D01*
X227141Y433005D01*
X226392Y432512D01*
X225649Y432364D01*
X225348Y432163D01*
X224379Y431761D01*
X223410Y432163D01*
X223109Y432364D01*
X221879Y432609D01*
X220649Y432364D01*
X220348Y432163D01*
X219379Y431761D01*
X218410Y432163D01*
X218109Y432364D01*
X216879Y432609D01*
X215649Y432364D01*
X215348Y432163D01*
X214379Y431761D01*
X213410Y432163D01*
X213109Y432364D01*
X211879Y432609D01*
X210649Y432364D01*
X210348Y432163D01*
X209379Y431761D01*
X208410Y432163D01*
X208109Y432364D01*
X206879Y432609D01*
X205649Y432364D01*
X204606Y431667D01*
X203909Y430624D01*
X203664Y429394D01*
Y424092D01*
X203909Y422862D01*
X204606Y421819D01*
X205649Y421122D01*
X206879Y420877D01*
X208109Y421122D01*
X208410Y421323D01*
X209379Y421725D01*
X210348Y421323D01*
X210649Y421122D01*
X211879Y420877D01*
X213109Y421122D01*
X213410Y421323D01*
X214379Y421725D01*
X215348Y421323D01*
X215649Y421122D01*
X216879Y420877D01*
X218109Y421122D01*
X218410Y421323D01*
X219379Y421725D01*
X220348Y421323D01*
X220649Y421122D01*
X221879Y420877D01*
X223109Y421122D01*
X223410Y421323D01*
X224379Y421725D01*
X225348Y421323D01*
X225649Y421122D01*
X226879Y420877D01*
X228109Y421122D01*
X229152Y421819D01*
X229849Y422862D01*
X230094Y424092D01*
Y428888D01*
X230514Y429632D01*
X231258Y430052D01*
X236054D01*
X237284Y430297D01*
X238327Y430994D01*
X239024Y432037D01*
X239269Y433267D01*
X239024Y434497D01*
X238823Y434798D01*
X238421Y435767D01*
X238823Y436736D01*
X239024Y437037D01*
X239269Y438267D01*
X239024Y439497D01*
X238823Y439798D01*
X238421Y440767D01*
X238823Y441736D01*
X239024Y442037D01*
X239106Y442449D01*
X239550Y442584D01*
X240805Y442412D01*
X241380Y441023D01*
X241475Y440928D01*
Y420339D01*
X220305Y399169D01*
X219631Y398160D01*
X219394Y396970D01*
Y337095D01*
X219631Y335905D01*
X220305Y334896D01*
X229740Y325461D01*
X230749Y324787D01*
X231939Y324550D01*
X308375D01*
X308628Y323280D01*
X308558Y323251D01*
X307495Y322188D01*
X306919Y320799D01*
Y319295D01*
X305961Y318562D01*
X304919D01*
Y316915D01*
X297942D01*
Y318562D01*
X286382D01*
Y316915D01*
X281705D01*
Y317813D01*
X269145D01*
X269145Y309246D01*
Y309243D01*
Y309243D01*
X269145Y308923D01*
X268629Y308709D01*
X267875Y308397D01*
X260582Y315690D01*
X259363Y316505D01*
X257925Y316791D01*
X257780Y316762D01*
X257602Y316797D01*
X257263Y316938D01*
X256896D01*
X256387Y317039D01*
X244736D01*
Y318562D01*
X233176D01*
Y308002D01*
X244736D01*
Y309524D01*
X255404D01*
X255759Y309378D01*
X256267D01*
X269145Y296500D01*
Y292253D01*
X271541D01*
Y286382D01*
X269392D01*
Y275822D01*
X280952D01*
Y286382D01*
X279056D01*
Y292253D01*
X281705D01*
Y301814D01*
X274459D01*
X269289Y306984D01*
X269815Y308253D01*
X270135Y308253D01*
X270135Y308253D01*
X270138Y308253D01*
X281705D01*
Y309400D01*
X286382D01*
Y308002D01*
X297942D01*
Y309400D01*
X304919D01*
Y308002D01*
X316479D01*
Y318562D01*
X315438D01*
X314480Y319295D01*
Y320799D01*
X313904Y322188D01*
X312841Y323251D01*
X312771Y323280D01*
X313024Y324550D01*
X322317D01*
X325909Y320959D01*
Y318277D01*
X323081D01*
Y307717D01*
X334641D01*
Y318277D01*
X332128D01*
Y322247D01*
X331891Y323437D01*
X331217Y324446D01*
X325804Y329859D01*
X324795Y330533D01*
X323605Y330770D01*
X233227D01*
X225614Y338383D01*
Y356296D01*
X226884Y356822D01*
X227463Y356243D01*
X228853Y355667D01*
X230356D01*
X231746Y356243D01*
X231840Y356338D01*
X356611D01*
X357801Y356574D01*
X358810Y357248D01*
X393623Y392061D01*
X393757D01*
X395146Y392637D01*
X396209Y393700D01*
X396785Y395089D01*
Y396593D01*
X396209Y397983D01*
X395146Y399046D01*
X393757Y399621D01*
X392253D01*
X390864Y399046D01*
X389800Y397983D01*
X389225Y396593D01*
Y396459D01*
X355323Y362557D01*
X306651D01*
X306343Y363700D01*
X306343Y363827D01*
Y366347D01*
X309304D01*
X309372Y366360D01*
X310092D01*
X311482Y366936D01*
X311576Y367030D01*
X316968D01*
X318158Y367267D01*
X319167Y367941D01*
X320655Y369429D01*
X321329Y370438D01*
X321566Y371628D01*
Y385950D01*
X321329Y387140D01*
X320655Y388149D01*
X320025Y388778D01*
Y389308D01*
X319494Y390591D01*
X319686Y391132D01*
X320082Y391861D01*
X358406D01*
X358599Y391669D01*
X359988Y391093D01*
X361492D01*
X362881Y391669D01*
X363944Y392732D01*
X364520Y394121D01*
Y395625D01*
X364411Y395888D01*
X365116Y396944D01*
X368492D01*
X368563Y396873D01*
X369953Y396298D01*
X371456D01*
X372846Y396873D01*
X373909Y397937D01*
X374484Y399326D01*
Y400830D01*
X374414Y401000D01*
X375119Y402056D01*
X388017D01*
X388156Y401917D01*
X389546Y401342D01*
X391049D01*
X392439Y401917D01*
X393502Y402980D01*
X394077Y404370D01*
Y405874D01*
X393502Y407263D01*
X392439Y408326D01*
X391049Y408902D01*
X389546D01*
X388156Y408326D01*
X388106Y408276D01*
X349435D01*
X348586Y409546D01*
X348715Y409857D01*
Y411361D01*
X348140Y412750D01*
X348065Y412824D01*
Y434699D01*
X348065Y434699D01*
X347828Y435889D01*
X347154Y436898D01*
X341300Y442752D01*
X341548Y443998D01*
X341745Y444080D01*
X342808Y445143D01*
X343384Y446533D01*
Y448036D01*
X342808Y449426D01*
X341745Y450489D01*
X340355Y451064D01*
X338852D01*
X337462Y450489D01*
X336399Y449426D01*
X336317Y449228D01*
X335072Y448980D01*
X319068Y464984D01*
X318060Y465658D01*
X317379Y465793D01*
Y475850D01*
X315787D01*
X315627Y476101D01*
X315211Y477121D01*
X315695Y478289D01*
Y479793D01*
X315412Y480476D01*
X316215Y481746D01*
X414721D01*
X415911Y481983D01*
X416920Y482657D01*
X421651Y487388D01*
X421786D01*
X423175Y487964D01*
X424238Y489027D01*
X424814Y490416D01*
Y491920D01*
X424238Y493310D01*
X423175Y494373D01*
X421786Y494948D01*
X420282D01*
X418893Y494373D01*
X417829Y493310D01*
X417254Y491920D01*
Y491786D01*
X413433Y487966D01*
X301789D01*
X301262Y489235D01*
X315799Y503772D01*
X315933D01*
X317322Y504347D01*
X318385Y505411D01*
X318961Y506800D01*
Y508304D01*
X318385Y509693D01*
X317322Y510756D01*
X315933Y511332D01*
X314429D01*
X313040Y510756D01*
X311976Y509693D01*
X311401Y508304D01*
Y508170D01*
X296807Y493576D01*
X284142D01*
X283656Y494749D01*
X302031Y513125D01*
X322649D01*
X322997Y512776D01*
X324386Y512201D01*
X324775D01*
X345812Y491164D01*
X345812Y491163D01*
X346821Y490489D01*
X348011Y490253D01*
X390753D01*
X391943Y490489D01*
X392952Y491163D01*
X414913Y513125D01*
X423413D01*
X437219Y499319D01*
Y499184D01*
X437794Y497795D01*
X438858Y496732D01*
X440247Y496156D01*
X441751D01*
X443140Y496732D01*
X443235Y496827D01*
X450965D01*
X452687Y495104D01*
Y494970D01*
X453262Y493581D01*
X454326Y492518D01*
X455715Y491942D01*
X457219D01*
X458608Y492518D01*
X458662Y492572D01*
X459932Y492046D01*
Y490746D01*
X438815Y469629D01*
X432826D01*
X432732Y469724D01*
X431342Y470299D01*
X429839D01*
X428449Y469724D01*
X427386Y468660D01*
X426810Y467271D01*
Y465767D01*
X427386Y464378D01*
X428449Y463315D01*
X429839Y462739D01*
X431342D01*
X432732Y463315D01*
X432826Y463409D01*
X440103D01*
X441293Y463646D01*
X442302Y464320D01*
X465241Y487259D01*
X465241Y487259D01*
X465915Y488268D01*
X466152Y489458D01*
X466152Y489458D01*
Y508508D01*
X465915Y509698D01*
X465241Y510707D01*
X461708Y514240D01*
Y532002D01*
X461471Y533192D01*
X460797Y534201D01*
X429142Y565856D01*
Y600421D01*
X428905Y601612D01*
X428231Y602621D01*
X369275Y661577D01*
X369801Y662847D01*
X378281D01*
X433789Y607338D01*
Y565413D01*
X434026Y564223D01*
X434700Y563214D01*
X473532Y524382D01*
Y491899D01*
X439402Y457770D01*
X433274D01*
X433179Y457864D01*
X431790Y458440D01*
X430286D01*
X428897Y457864D01*
X427834Y456801D01*
X427258Y455412D01*
Y453908D01*
X427834Y452519D01*
X428897Y451455D01*
X430286Y450880D01*
X431790D01*
X433179Y451455D01*
X433274Y451550D01*
X440690D01*
X441880Y451787D01*
X442889Y452461D01*
X478840Y488412D01*
X479514Y489421D01*
X479751Y490611D01*
Y524141D01*
X481021Y524667D01*
X489345Y516343D01*
Y515521D01*
X489250Y515426D01*
X488675Y514036D01*
Y512533D01*
X489250Y511143D01*
X490313Y510080D01*
X491703Y509505D01*
X493206D01*
X493687Y509704D01*
X494957Y508855D01*
Y472634D01*
X495194Y471444D01*
X495256Y471352D01*
X494887Y470136D01*
X494493Y469973D01*
X493430Y468910D01*
X492855Y467520D01*
Y467386D01*
X489641Y464173D01*
X489576Y464075D01*
X489405Y463997D01*
X487995Y463996D01*
X487373Y464618D01*
X485984Y465193D01*
X484480D01*
X483091Y464618D01*
X482028Y463554D01*
X481452Y462165D01*
Y462031D01*
X377570Y358149D01*
X373556D01*
X372366Y357912D01*
X371357Y357238D01*
X365216Y351097D01*
X358054D01*
Y340537D01*
X369614D01*
Y346699D01*
X374380Y351465D01*
X375498Y350787D01*
Y340537D01*
X387058D01*
Y346699D01*
X387207Y346848D01*
X387881Y347857D01*
X388117Y349047D01*
Y353154D01*
X394617Y359654D01*
X395275Y359479D01*
X395847Y359088D01*
Y351097D01*
X392941D01*
Y340537D01*
X404501D01*
Y351097D01*
X402066D01*
Y358038D01*
X431897Y387869D01*
X433395Y387571D01*
X433545Y387207D01*
X434609Y386144D01*
X435998Y385568D01*
X437502D01*
X438891Y386144D01*
X439954Y387207D01*
X440530Y388597D01*
Y390100D01*
X439954Y391490D01*
X438891Y392553D01*
X438528Y392704D01*
X438230Y394202D01*
X443759Y399731D01*
X445783D01*
X446309Y398461D01*
X445731Y397884D01*
X445156Y396495D01*
Y394991D01*
X445731Y393601D01*
X446795Y392538D01*
X448184Y391963D01*
X449688D01*
X451077Y392538D01*
X452141Y393601D01*
X452716Y394991D01*
Y396495D01*
X452141Y397884D01*
X451563Y398461D01*
X452089Y399731D01*
X464232D01*
X464718Y398558D01*
X457798Y391638D01*
X457124Y390629D01*
X456887Y389439D01*
Y334879D01*
X435576Y313568D01*
X435389D01*
X434000Y312993D01*
X432936Y311929D01*
X432361Y310540D01*
Y309036D01*
X432936Y307647D01*
X434000Y306584D01*
X434260Y306476D01*
X434558Y304978D01*
X430924Y301344D01*
X430639D01*
X429249Y300768D01*
X428186Y299705D01*
X427610Y298316D01*
Y296812D01*
X428186Y295422D01*
X429249Y294359D01*
X430639Y293784D01*
X432142D01*
X433531Y294359D01*
X434595Y295422D01*
X435158Y296781D01*
X466768Y328391D01*
X467442Y329400D01*
X467679Y330590D01*
Y384711D01*
X470202Y387235D01*
X471375Y386749D01*
Y291084D01*
X471661Y289646D01*
X472476Y288427D01*
X477413Y283490D01*
X473046Y279124D01*
X472991Y279101D01*
X471928Y278038D01*
X471353Y276649D01*
Y275145D01*
X471928Y273756D01*
X472991Y272692D01*
X474381Y272117D01*
X475885D01*
X477274Y272692D01*
X478337Y273756D01*
X478360Y273811D01*
X482726Y278177D01*
X487565Y273338D01*
X488784Y272524D01*
X490222Y272238D01*
X505625D01*
X506151Y270968D01*
X505718Y270535D01*
X505143Y269145D01*
Y267642D01*
X505718Y266252D01*
X506782Y265189D01*
X508171Y264613D01*
X508281D01*
X519361Y253534D01*
Y253376D01*
X519936Y251987D01*
X521000Y250923D01*
X522389Y250348D01*
X523893D01*
X525282Y250923D01*
X526345Y251987D01*
X526921Y253376D01*
Y254880D01*
X526345Y256269D01*
X525282Y257332D01*
X523893Y257908D01*
X523783D01*
X512703Y268988D01*
Y269145D01*
X512127Y270535D01*
X511694Y270968D01*
X512220Y272238D01*
X532086D01*
Y270422D01*
X523900D01*
X523832Y270409D01*
X523112D01*
X521723Y269833D01*
X520659Y268770D01*
X520084Y267381D01*
Y265877D01*
X520659Y264487D01*
X521723Y263424D01*
X523112Y262849D01*
X524616D01*
X524759Y262908D01*
X532086D01*
Y241201D01*
X520957Y230072D01*
X520143Y228853D01*
X519857Y227416D01*
Y219505D01*
X519834Y219450D01*
Y217946D01*
X520409Y216556D01*
X521473Y215493D01*
X522862Y214918D01*
X524366D01*
X525755Y215493D01*
X526819Y216556D01*
X527394Y217946D01*
Y219450D01*
X527371Y219505D01*
Y225859D01*
X538500Y236988D01*
X539315Y238207D01*
X539601Y239645D01*
Y266629D01*
Y274438D01*
X561399Y296237D01*
X562032Y296499D01*
X563095Y297562D01*
X563670Y298952D01*
Y300455D01*
X563615Y300588D01*
X564321Y301644D01*
X660586D01*
X661776Y301881D01*
X662785Y302555D01*
X675125Y314895D01*
X685063D01*
X685158Y314800D01*
X686547Y314225D01*
X688051D01*
X689440Y314800D01*
X690503Y315864D01*
X691079Y317253D01*
Y318757D01*
X690503Y320146D01*
X689440Y321209D01*
X688051Y321785D01*
X686547D01*
X685158Y321209D01*
X685063Y321115D01*
X674819D01*
X674293Y322385D01*
X687469Y335561D01*
X687797D01*
X689186Y336136D01*
X690249Y337200D01*
X690825Y338589D01*
Y340093D01*
X690249Y341482D01*
X689186Y342545D01*
X688068Y343009D01*
X687557Y344294D01*
X688736Y345473D01*
X689410Y346482D01*
X689647Y347672D01*
Y358363D01*
X689742Y358458D01*
X690317Y359847D01*
Y361351D01*
X690187Y361665D01*
X690892Y362721D01*
X692312D01*
X708072Y346962D01*
Y261473D01*
X707578Y261160D01*
X706802Y260990D01*
X694916Y272875D01*
X693907Y273549D01*
X692718Y273786D01*
X666671D01*
Y274688D01*
X655111D01*
Y264128D01*
X657780D01*
X658559Y263350D01*
X659948Y262774D01*
X661452D01*
X662841Y263350D01*
X663620Y264128D01*
X666671D01*
Y267567D01*
X683419D01*
X683945Y266297D01*
X683706Y266058D01*
X683130Y264668D01*
Y263165D01*
X683706Y261775D01*
X684769Y260712D01*
X686159Y260136D01*
X687662D01*
X689052Y260712D01*
X690115Y261775D01*
X690690Y263165D01*
Y264668D01*
X690115Y266058D01*
X690055Y266118D01*
X690518Y267301D01*
X691575Y267421D01*
X701690Y257306D01*
Y247752D01*
X700935Y247377D01*
X700420Y247306D01*
X693009Y254716D01*
X692000Y255390D01*
X690810Y255627D01*
X666671D01*
Y258688D01*
X655111D01*
Y248128D01*
X666671D01*
Y249408D01*
X689522D01*
X695235Y243695D01*
Y235656D01*
X693965Y235183D01*
X686403Y242745D01*
X685394Y243419D01*
X684204Y243656D01*
X666670D01*
Y244558D01*
X655110D01*
Y233998D01*
X666670D01*
Y237437D01*
X682916D01*
X688991Y231362D01*
Y219317D01*
X687721Y218791D01*
X681925Y224587D01*
X680917Y225261D01*
X679726Y225497D01*
X666670D01*
Y228558D01*
X664530D01*
X664094Y229609D01*
X663031Y230672D01*
X661642Y231248D01*
X660138D01*
X658749Y230672D01*
X657685Y229609D01*
X657250Y228558D01*
X655110D01*
Y217998D01*
X666670D01*
Y219278D01*
X678438D01*
X682991Y214725D01*
Y207924D01*
X681721Y207076D01*
X681378Y207218D01*
X679874D01*
X678485Y206642D01*
X677421Y205579D01*
X676846Y204190D01*
Y204056D01*
X669675Y196885D01*
X650760D01*
X650063Y197866D01*
X650063Y198155D01*
Y297659D01*
X577224D01*
X577096Y198155D01*
X577096Y197866D01*
X576399Y196885D01*
X531575D01*
X454748Y273712D01*
X453739Y274386D01*
X452549Y274623D01*
X398513D01*
X397142Y275191D01*
X395639D01*
X394249Y274615D01*
X393186Y273552D01*
X392610Y272162D01*
Y270659D01*
X392723Y270388D01*
X392017Y269332D01*
X387953D01*
X387817Y269467D01*
X386428Y270043D01*
X384924D01*
X383535Y269467D01*
X382471Y268404D01*
X381896Y267015D01*
Y265511D01*
X381968Y265338D01*
X381119Y264068D01*
X377871D01*
X377613Y264326D01*
X376224Y264901D01*
X374720D01*
X373331Y264326D01*
X372267Y263263D01*
X371692Y261873D01*
Y260369D01*
X372267Y258980D01*
X373331Y257917D01*
X374720Y257341D01*
X376224D01*
X377449Y257849D01*
X447543D01*
X521896Y183496D01*
X522065Y183383D01*
X521924Y181950D01*
X521473Y181763D01*
X520409Y180700D01*
X520387Y180645D01*
X516236Y176494D01*
X473429D01*
X473374Y176517D01*
X471870D01*
X470481Y175942D01*
X469417Y174878D01*
X468842Y173489D01*
Y171985D01*
X469417Y170596D01*
X470481Y169533D01*
X471870Y168957D01*
X473374D01*
X473429Y168980D01*
X517792D01*
X519230Y169266D01*
X520449Y170080D01*
X525700Y175331D01*
X525755Y175354D01*
X526819Y176418D01*
X527394Y177807D01*
Y179311D01*
X526819Y180700D01*
X526203Y181315D01*
X526730Y182585D01*
X595946D01*
X596843Y181686D01*
X596792Y142174D01*
X571575D01*
X570732Y143444D01*
X570986Y144058D01*
Y145561D01*
X570410Y146951D01*
X569347Y148014D01*
X567958Y148589D01*
X566454D01*
X566363Y148552D01*
X496071D01*
X496052Y148560D01*
X494548D01*
X493159Y147985D01*
X492095Y146921D01*
X491520Y145532D01*
Y144028D01*
X491762Y143444D01*
X490914Y142174D01*
X459613D01*
X458880Y143444D01*
X459212Y144245D01*
Y145749D01*
X458636Y147138D01*
X457573Y148201D01*
X456183Y148777D01*
X454680D01*
X454625Y148754D01*
X170507D01*
X170254Y150024D01*
X170756Y150232D01*
X171819Y151295D01*
X172394Y152684D01*
Y154188D01*
X171819Y155577D01*
X170756Y156641D01*
X169366Y157216D01*
X167862D01*
X166473Y156641D01*
X165410Y155577D01*
X164834Y154188D01*
Y152684D01*
X165410Y151295D01*
X166473Y150232D01*
X166975Y150024D01*
X166722Y148754D01*
X156156D01*
X146706Y158205D01*
X145487Y159019D01*
X144049Y159305D01*
X143587D01*
X143444Y159364D01*
X141940D01*
X141885Y159341D01*
X110211D01*
X41390Y228163D01*
Y276391D01*
X114599Y349600D01*
X131592D01*
X131647Y349578D01*
X133151D01*
X134540Y350153D01*
X135604Y351216D01*
X136179Y352606D01*
Y354109D01*
X136140Y354203D01*
Y403964D01*
X136163Y404019D01*
Y405523D01*
X135588Y406912D01*
X134524Y407976D01*
X133135Y408551D01*
X131631D01*
X130242Y407976D01*
X129178Y406912D01*
X128603Y405523D01*
Y404019D01*
X128626Y403964D01*
Y357115D01*
X113042D01*
X111605Y356829D01*
X110386Y356014D01*
X34976Y280604D01*
X34161Y279385D01*
X33875Y277948D01*
Y226607D01*
X34161Y225169D01*
X34976Y223950D01*
X105998Y152928D01*
X107217Y152113D01*
X108655Y151827D01*
X141885D01*
X141940Y151804D01*
X142479D01*
X151943Y142340D01*
X153162Y141526D01*
X154600Y141240D01*
X297241D01*
X297727Y140066D01*
X262804Y105144D01*
X262130Y104135D01*
X261893Y102945D01*
Y101777D01*
X258223D01*
Y66217D01*
X271783D01*
Y101777D01*
X269892D01*
X269406Y102950D01*
X302410Y135954D01*
X307362D01*
X307848Y134781D01*
X282538Y109471D01*
X281864Y108462D01*
X281627Y107272D01*
Y101777D01*
X278223D01*
Y66217D01*
X291783D01*
X292223Y65129D01*
Y58614D01*
X287385Y53777D01*
X278223D01*
Y19493D01*
X271783D01*
Y53777D01*
X258223D01*
Y18217D01*
X265076D01*
Y17871D01*
X265313Y16681D01*
X265987Y15672D01*
X266137Y15522D01*
X265651Y14349D01*
X60947Y14349D01*
X60480Y15619D01*
X63184Y19340D01*
X65455Y23798D01*
X67000Y28555D01*
X67783Y33496D01*
Y38498D01*
X67000Y43439D01*
X65455Y48196D01*
X63184Y52653D01*
X60244Y56700D01*
X56706Y60237D01*
X52659Y63177D01*
X48202Y65448D01*
X43445Y66994D01*
X38504Y67777D01*
X33502D01*
X28561Y66994D01*
X23804Y65448D01*
X19347Y63177D01*
X15625Y60473D01*
X14355Y60941D01*
X14355Y789053D01*
X15625Y789520D01*
X19347Y786816D01*
X23804Y784545D01*
X28561Y782999D01*
X33502Y782217D01*
X38504D01*
X43445Y782999D01*
X48202Y784545D01*
X52659Y786816D01*
X56706Y789756D01*
X60244Y793294D01*
X63184Y797340D01*
X65455Y801797D01*
X67000Y806555D01*
X67783Y811496D01*
Y816498D01*
X67000Y821439D01*
X65455Y826196D01*
X63184Y830653D01*
X60475Y834381D01*
X60937Y835651D01*
X789069Y835651D01*
D02*
G37*
G36*
X167614Y556899D02*
Y551339D01*
X166344Y550491D01*
X165978Y550642D01*
X164475D01*
X163085Y550067D01*
X162022Y549003D01*
X161446Y547614D01*
Y546110D01*
X162022Y544721D01*
X163085Y543658D01*
X164475Y543082D01*
X165978D01*
X166344Y543234D01*
X167614Y542385D01*
Y539741D01*
X167519Y539646D01*
X166944Y538257D01*
Y536753D01*
X167519Y535364D01*
X168583Y534300D01*
X169972Y533725D01*
X170106D01*
X172999Y530832D01*
X174008Y530158D01*
X175198Y529921D01*
X177447D01*
X177833Y528651D01*
X177787Y528620D01*
X158130Y508964D01*
X148931D01*
X148618Y509667D01*
X148541Y510234D01*
X149483Y511176D01*
X150059Y512565D01*
Y514069D01*
X149483Y515458D01*
X148420Y516521D01*
X147030Y517097D01*
X145527D01*
X144137Y516521D01*
X144043Y516427D01*
X131607D01*
X110919Y537115D01*
Y561088D01*
X111080Y561250D01*
X111656Y562639D01*
Y564143D01*
X111080Y565532D01*
X110120Y566493D01*
X110174Y566968D01*
X110509Y567762D01*
X156751D01*
X167614Y556899D01*
D02*
G37*
G36*
X248969Y656107D02*
X248052Y655727D01*
X246989Y654664D01*
X246413Y653275D01*
Y651771D01*
X246989Y650382D01*
X247083Y650287D01*
Y639587D01*
X242659Y635163D01*
X241985Y634154D01*
X241749Y632964D01*
Y602756D01*
X238364Y599372D01*
X208156D01*
X206966Y599135D01*
X205957Y598461D01*
X199988Y592492D01*
X199314Y591483D01*
X199077Y590293D01*
Y560718D01*
X180442Y542083D01*
X179858D01*
X178469Y541507D01*
X177405Y540444D01*
X176830Y539055D01*
Y537593D01*
X176710Y537481D01*
X175723Y536903D01*
X174504Y538123D01*
Y538257D01*
X173929Y539646D01*
X173834Y539741D01*
Y542432D01*
X174890Y543138D01*
X175024Y543082D01*
X176528D01*
X177917Y543658D01*
X178980Y544721D01*
X179556Y546110D01*
Y547614D01*
X178980Y549003D01*
X177917Y550067D01*
X176528Y550642D01*
X175024D01*
X174890Y550587D01*
X173834Y551292D01*
Y558187D01*
X173834Y558187D01*
X173597Y559377D01*
X172923Y560386D01*
X160238Y573071D01*
X159229Y573745D01*
X158039Y573982D01*
X155934D01*
Y579761D01*
X156029Y579856D01*
X156605Y581245D01*
Y582749D01*
X156029Y584138D01*
X154966Y585202D01*
X153577Y585777D01*
X152073D01*
X150683Y585202D01*
X149620Y584138D01*
X149045Y582749D01*
Y581245D01*
X149620Y579856D01*
X149715Y579761D01*
Y573982D01*
X103794D01*
X103794Y573982D01*
X102604Y573745D01*
X101595Y573071D01*
X68015Y539491D01*
X66517Y539789D01*
X66337Y540224D01*
X65274Y541287D01*
X64277Y541700D01*
X62316Y543661D01*
Y552535D01*
X88816Y579035D01*
X89490Y580044D01*
X89727Y581234D01*
Y584433D01*
X97239Y591945D01*
X170634D01*
X171824Y592182D01*
X172833Y592856D01*
X180732Y600756D01*
X181406Y601765D01*
X181643Y602955D01*
Y629253D01*
X187325Y634935D01*
X200885D01*
X202075Y635172D01*
X203084Y635846D01*
X212261Y645023D01*
X212935Y646032D01*
X213172Y647222D01*
Y651634D01*
X213267Y651728D01*
X213842Y653118D01*
Y654621D01*
X213267Y656011D01*
X213170Y656107D01*
X213696Y657377D01*
X248716D01*
X248969Y656107D01*
D02*
G37*
G36*
X422923Y599133D02*
Y564568D01*
X423159Y563378D01*
X423833Y562369D01*
X449419Y536783D01*
X449122Y535285D01*
X448528Y535039D01*
X447465Y533976D01*
X446889Y532586D01*
Y531082D01*
X447465Y529693D01*
X448528Y528630D01*
X449918Y528054D01*
X451421D01*
X452811Y528630D01*
X453874Y529693D01*
X455274Y529755D01*
X455488Y529637D01*
Y518059D01*
X454218Y517533D01*
X453698Y518054D01*
X452308Y518629D01*
X452174D01*
X443479Y527325D01*
X443348Y528343D01*
X443590Y528909D01*
X444374Y529693D01*
X444950Y531082D01*
Y532586D01*
X444374Y533976D01*
X443311Y535039D01*
X441922Y535614D01*
X440418D01*
X439029Y535039D01*
X437965Y533976D01*
X437390Y532586D01*
Y531082D01*
X437878Y529903D01*
X437366Y528633D01*
X424062D01*
X423809Y529903D01*
X424479Y530180D01*
X425543Y531244D01*
X426118Y532633D01*
Y534137D01*
X425543Y535526D01*
X424479Y536589D01*
X423090Y537165D01*
X421586D01*
X420197Y536589D01*
X419134Y535526D01*
X418558Y534137D01*
Y532633D01*
X419134Y531244D01*
X420197Y530180D01*
X420867Y529903D01*
X420615Y528633D01*
X406115D01*
X404925Y528396D01*
X403916Y527722D01*
X383339Y507145D01*
X354079D01*
X351338Y509885D01*
Y510019D01*
X350763Y511409D01*
X349700Y512472D01*
X348310Y513047D01*
X348176D01*
X334439Y526784D01*
X334965Y528054D01*
X335390D01*
X336779Y528630D01*
X337843Y529693D01*
X338418Y531082D01*
Y532586D01*
X337843Y533976D01*
X336779Y535039D01*
X335390Y535614D01*
X333886D01*
X332497Y535039D01*
X331434Y533976D01*
X330858Y532586D01*
Y531383D01*
X330176Y530490D01*
X329859Y530215D01*
X328918Y531083D01*
Y532586D01*
X328343Y533976D01*
X327280Y535039D01*
X325890Y535614D01*
X324386D01*
X322997Y535039D01*
X321934Y533976D01*
X321358Y532586D01*
Y531082D01*
X321475Y530801D01*
X320626Y529531D01*
X309595D01*
X309069Y530801D01*
X309511Y531244D01*
X310087Y532633D01*
Y534137D01*
X309511Y535526D01*
X308448Y536589D01*
X308240Y536675D01*
X307992Y537921D01*
X334902Y564830D01*
X336204Y564337D01*
X336651Y563260D01*
X336745Y563165D01*
Y541452D01*
X336982Y540262D01*
X337656Y539254D01*
X365792Y511118D01*
X366801Y510444D01*
X367991Y510207D01*
X367991Y510207D01*
X376605D01*
X376700Y510112D01*
X378089Y509537D01*
X379593D01*
X380982Y510112D01*
X382046Y511176D01*
X382621Y512565D01*
Y514069D01*
X382046Y515458D01*
X380982Y516521D01*
X379593Y517097D01*
X378089D01*
X376700Y516521D01*
X376605Y516427D01*
X369279D01*
X342965Y542741D01*
Y563165D01*
X343060Y563260D01*
X343635Y564649D01*
Y566153D01*
X344242Y567061D01*
X370101D01*
X385392Y551770D01*
X385094Y550272D01*
X384599Y550067D01*
X383535Y549003D01*
X382960Y547614D01*
Y546110D01*
X383535Y544721D01*
X384599Y543658D01*
X385988Y543082D01*
X387492D01*
X387691Y543165D01*
X388747Y542459D01*
Y541497D01*
X388984Y540307D01*
X389658Y539298D01*
X393218Y535738D01*
X394227Y535064D01*
X395417Y534827D01*
X401151D01*
X401246Y534733D01*
X402635Y534157D01*
X404139D01*
X405528Y534733D01*
X406592Y535796D01*
X407167Y537185D01*
Y538689D01*
X406592Y540078D01*
X405528Y541142D01*
X404139Y541717D01*
X402635D01*
X401246Y541142D01*
X401151Y541047D01*
X396705D01*
X395696Y542056D01*
X396415Y543133D01*
X396537Y543082D01*
X398041D01*
X399430Y543658D01*
X400494Y544721D01*
X401069Y546110D01*
Y547614D01*
X400494Y549003D01*
X399430Y550067D01*
X398588Y550415D01*
X398338Y550519D01*
X398590Y551789D01*
X398768Y551789D01*
X406537D01*
X406790Y550519D01*
X405697Y550067D01*
X404634Y549003D01*
X404058Y547614D01*
Y546110D01*
X404634Y544721D01*
X405697Y543658D01*
X407086Y543082D01*
X408590D01*
X409980Y543658D01*
X410387Y544065D01*
X411657Y543539D01*
Y540491D01*
X411562Y540396D01*
X410987Y539007D01*
Y537503D01*
X411562Y536114D01*
X412625Y535050D01*
X414015Y534475D01*
X415518D01*
X416908Y535050D01*
X417971Y536114D01*
X418547Y537503D01*
Y539007D01*
X417971Y540396D01*
X417876Y540491D01*
Y551158D01*
X417640Y552349D01*
X416965Y553357D01*
X413225Y557098D01*
X412216Y557772D01*
X411026Y558009D01*
X399411D01*
X381422Y575998D01*
Y631338D01*
X381185Y632528D01*
X380511Y633537D01*
X360895Y653153D01*
X359886Y653827D01*
X358696Y654063D01*
X332739D01*
X332644Y654158D01*
X331255Y654734D01*
X329751D01*
X328362Y654158D01*
X327299Y653095D01*
X326723Y651706D01*
Y650202D01*
X327299Y648813D01*
X328362Y647749D01*
X329751Y647174D01*
X331255D01*
X332644Y647749D01*
X332739Y647844D01*
X357408D01*
X375202Y630050D01*
Y574710D01*
X375439Y573520D01*
X376113Y572511D01*
X395923Y552700D01*
X396932Y552026D01*
X397327Y551948D01*
X397504Y551912D01*
X397379Y550642D01*
X397117Y550642D01*
X396537D01*
X396110Y550465D01*
X394730Y550893D01*
X394056Y551902D01*
X373587Y572370D01*
X372579Y573044D01*
X371389Y573281D01*
X343202D01*
X343137Y573324D01*
X341947Y573561D01*
X336124D01*
X334934Y573324D01*
X333926Y572650D01*
X306211Y544935D01*
X304941Y545461D01*
Y549713D01*
X304949Y549753D01*
X304949Y549753D01*
Y639889D01*
X304712Y641079D01*
X304038Y642088D01*
X293508Y652618D01*
Y652752D01*
X292933Y654141D01*
X291869Y655204D01*
X290480Y655780D01*
X288976D01*
X287587Y655204D01*
X286524Y654141D01*
X285948Y652752D01*
Y651248D01*
X286524Y649859D01*
X287587Y648795D01*
X288976Y648220D01*
X289110D01*
X298729Y638601D01*
Y549784D01*
X298721Y549745D01*
Y545267D01*
X295485Y542031D01*
X295351D01*
X293962Y541455D01*
X292898Y540392D01*
X292384Y539150D01*
X292089Y538905D01*
X291053Y538474D01*
X290397Y538833D01*
X289974Y539856D01*
X289879Y539951D01*
Y542359D01*
X291149Y543207D01*
X291619Y543013D01*
X293123D01*
X294512Y543588D01*
X295576Y544651D01*
X296151Y546041D01*
Y547545D01*
X295576Y548934D01*
X294512Y549997D01*
X293123Y550573D01*
X291619D01*
X291149Y550378D01*
X289879Y551226D01*
Y561009D01*
X289879Y561009D01*
X289642Y562199D01*
X288968Y563208D01*
X288968Y563208D01*
X278653Y573522D01*
X277644Y574197D01*
X276454Y574433D01*
X221116D01*
X219925Y574197D01*
X218917Y573522D01*
X206470Y561076D01*
X205297Y561562D01*
Y589005D01*
X209444Y593152D01*
X239652D01*
X240842Y593389D01*
X241851Y594063D01*
X247057Y599269D01*
X247057Y599269D01*
X247731Y600278D01*
X247968Y601468D01*
X247968Y601468D01*
Y631676D01*
X252392Y636100D01*
X253066Y637109D01*
X253303Y638299D01*
Y650287D01*
X253398Y650382D01*
X253973Y651771D01*
Y653275D01*
X253398Y654664D01*
X252334Y655727D01*
X251417Y656107D01*
X251670Y657377D01*
X364679D01*
X422923Y599133D01*
D02*
G37*
G36*
X283659Y559721D02*
Y551334D01*
X282389Y550485D01*
X282010Y550642D01*
X280506D01*
X279116Y550067D01*
X278053Y549003D01*
X277478Y547614D01*
Y546110D01*
X278053Y544721D01*
X279116Y543658D01*
X280506Y543082D01*
X282010D01*
X282389Y543240D01*
X283659Y542391D01*
Y539951D01*
X283564Y539856D01*
X282989Y538467D01*
Y536963D01*
X283564Y535574D01*
X284628Y534510D01*
X286017Y533935D01*
X286151D01*
X290450Y529636D01*
X291459Y528961D01*
X292213Y528811D01*
X292652Y527769D01*
X292652Y527455D01*
X273617Y508419D01*
X236773D01*
X235307Y509885D01*
Y510019D01*
X234732Y511409D01*
X233668Y512472D01*
X232279Y513047D01*
X232145D01*
X218408Y526784D01*
X218934Y528054D01*
X219359D01*
X220748Y528630D01*
X221812Y529693D01*
X222387Y531082D01*
Y532586D01*
X221812Y533976D01*
X220748Y535039D01*
X219359Y535614D01*
X217855D01*
X216466Y535039D01*
X215402Y533976D01*
X214827Y532586D01*
Y531383D01*
X214144Y530490D01*
X213828Y530215D01*
X212887Y531083D01*
Y532586D01*
X212312Y533976D01*
X211248Y535039D01*
X209859Y535614D01*
X208355D01*
X206966Y535039D01*
X205903Y533976D01*
X205327Y532586D01*
Y531082D01*
X205444Y530801D01*
X204595Y529531D01*
X193818D01*
X193292Y530801D01*
X193734Y531244D01*
X194310Y532633D01*
Y534137D01*
X193734Y535526D01*
X192671Y536589D01*
X192389Y536706D01*
X192141Y537952D01*
X219089Y564899D01*
X220587Y564601D01*
X220826Y564022D01*
X220921Y563927D01*
Y540001D01*
X221158Y538811D01*
X221832Y537802D01*
X248141Y511493D01*
X249150Y510819D01*
X250340Y510582D01*
X260474D01*
X260569Y510487D01*
X261958Y509912D01*
X263462D01*
X264851Y510487D01*
X265914Y511550D01*
X266490Y512940D01*
Y514444D01*
X265914Y515833D01*
X264851Y516896D01*
X263462Y517472D01*
X261958D01*
X260569Y516896D01*
X260474Y516801D01*
X251628D01*
X227141Y541289D01*
Y563927D01*
X227236Y564022D01*
X227811Y565411D01*
Y566915D01*
X227710Y567158D01*
X228416Y568214D01*
X275166D01*
X283659Y559721D01*
D02*
G37*
G36*
X128120Y511118D02*
X129129Y510444D01*
X130185Y510234D01*
X130060Y508964D01*
X120197D01*
X119276Y509885D01*
Y510019D01*
X118700Y511409D01*
X117637Y512472D01*
X116248Y513047D01*
X116114D01*
X102377Y526784D01*
X102903Y528054D01*
X103328D01*
X104717Y528630D01*
X105780Y529693D01*
X106356Y531082D01*
Y531086D01*
X107626Y531612D01*
X128120Y511118D01*
D02*
G37*
G36*
X271376Y480476D02*
X271083Y479767D01*
Y478264D01*
X271557Y477119D01*
X271157Y476165D01*
X270933Y475849D01*
X268745D01*
Y465289D01*
X279292D01*
X280141Y464019D01*
X279941Y463537D01*
Y462033D01*
X280516Y460644D01*
X281580Y459580D01*
X282969Y459005D01*
X284473D01*
X285862Y459580D01*
X285957Y459675D01*
X315581D01*
X325936Y449320D01*
X325311Y448150D01*
X325141Y448184D01*
X267586D01*
X267491Y448278D01*
X266101Y448854D01*
X264598D01*
X263208Y448278D01*
X262145Y447215D01*
X261570Y445826D01*
Y444322D01*
X262145Y442933D01*
X263208Y441869D01*
X264598Y441294D01*
X266101D01*
X267491Y441869D01*
X267586Y441964D01*
X323853D01*
X336575Y429242D01*
Y419751D01*
X336312Y419488D01*
X335736Y418098D01*
Y416595D01*
X336312Y415205D01*
X337375Y414142D01*
X338764Y413567D01*
X340268D01*
X340575Y413694D01*
X341709Y412954D01*
X341730Y412750D01*
X341155Y411361D01*
Y409857D01*
X341284Y409546D01*
X340435Y408276D01*
X257887D01*
X257792Y408371D01*
X256403Y408946D01*
X254899D01*
X253510Y408371D01*
X252446Y407307D01*
X251871Y405918D01*
Y404414D01*
X252446Y403025D01*
X253510Y401961D01*
X254899Y401386D01*
X256403D01*
X257792Y401961D01*
X257887Y402056D01*
X270611D01*
X271316Y401000D01*
X271226Y400782D01*
Y399278D01*
X271284Y399137D01*
X270579Y398080D01*
X266388D01*
X265148Y398594D01*
X263644D01*
X262255Y398019D01*
X261192Y396955D01*
X260616Y395566D01*
Y394062D01*
X261192Y392673D01*
X262255Y391610D01*
X263644Y391034D01*
X265148D01*
X266537Y391610D01*
X266789Y391861D01*
X278559D01*
X279783Y391752D01*
X279783Y390591D01*
Y380192D01*
X281954D01*
Y375260D01*
X279783D01*
Y363827D01*
X279783Y363700D01*
X279476Y362557D01*
X231840D01*
X231746Y362652D01*
X230356Y363227D01*
X228853D01*
X227463Y362652D01*
X226884Y362072D01*
X225614Y362598D01*
Y395682D01*
X246784Y416852D01*
X247458Y417861D01*
X247695Y419051D01*
Y440928D01*
X247789Y441023D01*
X248365Y442412D01*
Y443916D01*
X247789Y445305D01*
X246726Y446368D01*
X245337Y446944D01*
X245203D01*
X243147Y449000D01*
X243565Y450378D01*
X243646Y450394D01*
X244655Y451068D01*
X246784Y453197D01*
X247458Y454206D01*
X247695Y455396D01*
Y477843D01*
X250966Y481114D01*
X251740Y481036D01*
X252546Y479767D01*
Y478264D01*
X253020Y477119D01*
X252619Y476165D01*
X252396Y475849D01*
X250208D01*
Y465289D01*
X261768D01*
Y475849D01*
X260255D01*
X260032Y476165D01*
X259631Y477119D01*
X260106Y478264D01*
Y479767D01*
X259812Y480476D01*
X260600Y481746D01*
X270588D01*
X271376Y480476D01*
D02*
G37*
G36*
X572243Y474175D02*
X569656Y471588D01*
X568982Y470579D01*
X568982Y470579D01*
X567372Y468969D01*
X567371Y468969D01*
X566362Y468295D01*
X551822Y453754D01*
X536303D01*
X535817Y454927D01*
X538904Y458014D01*
X539578Y459023D01*
X539815Y460213D01*
Y463485D01*
X544857D01*
X545027Y463451D01*
X549211D01*
X549381Y463485D01*
X552961D01*
X554151Y463722D01*
X555160Y464396D01*
X555232Y464503D01*
X555339Y464575D01*
X562290Y471526D01*
X562324Y471577D01*
X566193Y475446D01*
X571717D01*
X572243Y474175D01*
D02*
G37*
G36*
X616374Y475446D02*
X619044D01*
Y458529D01*
X599461D01*
X588544Y469445D01*
Y475446D01*
X591215D01*
Y485512D01*
X616374D01*
Y475446D01*
D02*
G37*
G36*
X312805Y391132D02*
X312997Y390591D01*
X312465Y389308D01*
Y387804D01*
X313041Y386414D01*
X314104Y385351D01*
X315048Y384960D01*
X315346Y384662D01*
Y373250D01*
X311576D01*
X311482Y373345D01*
X310092Y373920D01*
X308589D01*
X308446Y373861D01*
X306343D01*
Y375260D01*
X295783D01*
Y363827D01*
X295783Y363700D01*
X295476Y362557D01*
X290651D01*
X290343Y363700D01*
X290343Y363827D01*
Y375260D01*
X288173D01*
Y380192D01*
X290343D01*
X290343Y391752D01*
X291568Y391861D01*
X312409D01*
X312805Y391132D01*
D02*
G37*
G36*
X569417Y118809D02*
X562804Y112196D01*
X562130Y111187D01*
X561893Y109997D01*
Y101777D01*
X558223D01*
Y66950D01*
X553320D01*
X551843Y68427D01*
Y80267D01*
X551843Y80267D01*
X551783Y80567D01*
Y101777D01*
X538223D01*
Y66217D01*
X545807D01*
X545860Y65949D01*
X546534Y64940D01*
X549458Y62017D01*
X548932Y60746D01*
X489829D01*
X488113Y62463D01*
Y66217D01*
X491783D01*
Y101777D01*
X482525D01*
X476832Y107470D01*
X475823Y108144D01*
X474633Y108380D01*
X380966D01*
X379776Y108144D01*
X378767Y107470D01*
X378767Y107470D01*
X378468Y107170D01*
X373596D01*
X372986Y107780D01*
X371977Y108454D01*
X370787Y108691D01*
X360833D01*
X359643Y108454D01*
X358634Y107780D01*
X358024Y107170D01*
X354490D01*
X353880Y107780D01*
X352871Y108454D01*
X351681Y108691D01*
X343641D01*
X342451Y108454D01*
X341442Y107780D01*
X340832Y107170D01*
X334066D01*
X332876Y106933D01*
X331867Y106259D01*
X327385Y101777D01*
X318223D01*
X317864Y102898D01*
Y106872D01*
X331070Y120079D01*
X568891D01*
X569417Y118809D01*
D02*
G37*
%LPC*%
G36*
X147402Y776575D02*
X145898D01*
X144509Y775999D01*
X143445Y774936D01*
X142870Y773547D01*
Y772043D01*
X143445Y770653D01*
X144509Y769590D01*
X145898Y769015D01*
X147402D01*
X148791Y769590D01*
X149854Y770653D01*
X150430Y772043D01*
Y773547D01*
X149854Y774936D01*
X148791Y775999D01*
X147402Y776575D01*
D02*
G37*
G36*
X132556Y776469D02*
X131052D01*
X129663Y775894D01*
X128600Y774830D01*
X128024Y773441D01*
Y771937D01*
X128600Y770548D01*
X129663Y769485D01*
X131052Y768909D01*
X132556D01*
X133945Y769485D01*
X135009Y770548D01*
X135584Y771937D01*
Y773441D01*
X135009Y774830D01*
X133945Y775894D01*
X132556Y776469D01*
D02*
G37*
G36*
X95115Y775198D02*
X93611D01*
X92222Y774622D01*
X91159Y773559D01*
X90583Y772170D01*
Y770666D01*
X91159Y769277D01*
X92222Y768213D01*
X93611Y767638D01*
X95115D01*
X96504Y768213D01*
X97568Y769277D01*
X98143Y770666D01*
Y772170D01*
X97568Y773559D01*
X96504Y774622D01*
X95115Y775198D01*
D02*
G37*
G36*
X74034D02*
X72530D01*
X71141Y774622D01*
X70078Y773559D01*
X69502Y772170D01*
Y770666D01*
X70078Y769277D01*
X71141Y768213D01*
X72530Y767638D01*
X74034D01*
X75423Y768213D01*
X76487Y769277D01*
X77062Y770666D01*
Y772170D01*
X76487Y773559D01*
X75423Y774622D01*
X74034Y775198D01*
D02*
G37*
G36*
X139926Y769731D02*
X138422D01*
X137033Y769155D01*
X135970Y768092D01*
X135394Y766703D01*
Y765199D01*
X135970Y763810D01*
X137033Y762746D01*
X138422Y762171D01*
X139926D01*
X141315Y762746D01*
X142379Y763810D01*
X142954Y765199D01*
Y766703D01*
X142379Y768092D01*
X141315Y769155D01*
X139926Y769731D01*
D02*
G37*
G36*
X84574Y768354D02*
X83071D01*
X81681Y767778D01*
X80618Y766715D01*
X80043Y765326D01*
Y763822D01*
X80618Y762433D01*
X81681Y761369D01*
X83071Y760794D01*
X84574D01*
X85964Y761369D01*
X87027Y762433D01*
X87603Y763822D01*
Y765326D01*
X87027Y766715D01*
X85964Y767778D01*
X84574Y768354D01*
D02*
G37*
G36*
X132767Y762308D02*
X131263D01*
X129874Y761732D01*
X128810Y760669D01*
X128235Y759280D01*
Y757776D01*
X128810Y756387D01*
X129874Y755323D01*
X131263Y754748D01*
X132767D01*
X134156Y755323D01*
X135219Y756387D01*
X135795Y757776D01*
Y759280D01*
X135219Y760669D01*
X134156Y761732D01*
X132767Y762308D01*
D02*
G37*
G36*
X147191Y762255D02*
X145687D01*
X144298Y761680D01*
X143235Y760617D01*
X142659Y759227D01*
Y757723D01*
X143235Y756334D01*
X144298Y755271D01*
X145687Y754695D01*
X147191D01*
X148581Y755271D01*
X149644Y756334D01*
X150219Y757723D01*
Y759227D01*
X149644Y760617D01*
X148581Y761680D01*
X147191Y762255D01*
D02*
G37*
G36*
X74034Y760931D02*
X72530D01*
X71141Y760356D01*
X70078Y759292D01*
X69502Y757903D01*
Y756399D01*
X70078Y755010D01*
X71141Y753946D01*
X72530Y753371D01*
X74034D01*
X75423Y753946D01*
X76487Y755010D01*
X77062Y756399D01*
Y757903D01*
X76487Y759292D01*
X75423Y760356D01*
X74034Y760931D01*
D02*
G37*
G36*
X95115Y760878D02*
X93611D01*
X92222Y760303D01*
X91159Y759240D01*
X90583Y757850D01*
Y756347D01*
X91159Y754957D01*
X92222Y753894D01*
X93611Y753318D01*
X95115D01*
X96504Y753894D01*
X97568Y754957D01*
X98143Y756347D01*
Y757850D01*
X97568Y759240D01*
X96504Y760303D01*
X95115Y760878D01*
D02*
G37*
G36*
X84574Y754087D02*
X83071D01*
X81681Y753512D01*
X80618Y752448D01*
X80043Y751059D01*
Y749555D01*
X80618Y748166D01*
X81681Y747103D01*
X83071Y746527D01*
X84574D01*
X85964Y747103D01*
X87027Y748166D01*
X87603Y749555D01*
Y751059D01*
X87027Y752448D01*
X85964Y753512D01*
X84574Y754087D01*
D02*
G37*
G36*
X74034Y746664D02*
X72530D01*
X71141Y746089D01*
X70078Y745025D01*
X69502Y743636D01*
Y742132D01*
X70078Y740743D01*
X71141Y739680D01*
X72530Y739104D01*
X74034D01*
X75423Y739680D01*
X76487Y740743D01*
X77062Y742132D01*
Y743636D01*
X76487Y745025D01*
X75423Y746089D01*
X74034Y746664D01*
D02*
G37*
G36*
X95115Y746612D02*
X93611D01*
X92222Y746036D01*
X91159Y744973D01*
X90583Y743584D01*
Y742080D01*
X91159Y740690D01*
X92222Y739627D01*
X93611Y739052D01*
X95115D01*
X96504Y739627D01*
X97568Y740690D01*
X98143Y742080D01*
Y743584D01*
X97568Y744973D01*
X96504Y746036D01*
X95115Y746612D01*
D02*
G37*
G36*
X735891Y753545D02*
X733316D01*
X730828Y752879D01*
X728598Y751591D01*
X726777Y749771D01*
X725490Y747540D01*
X724823Y745053D01*
Y742478D01*
X725490Y739990D01*
X726777Y737760D01*
X728598Y735939D01*
X730828Y734652D01*
X733316Y733985D01*
X735891D01*
X738378Y734652D01*
X740608Y735939D01*
X742429Y737760D01*
X743717Y739990D01*
X744383Y742478D01*
Y745053D01*
X743717Y747540D01*
X742429Y749771D01*
X740608Y751591D01*
X738378Y752879D01*
X735891Y753545D01*
D02*
G37*
G36*
X84574Y739820D02*
X83071D01*
X81681Y739245D01*
X80618Y738182D01*
X80043Y736792D01*
Y735288D01*
X80618Y733899D01*
X81681Y732836D01*
X83071Y732260D01*
X84574D01*
X85964Y732836D01*
X87027Y733899D01*
X87603Y735288D01*
Y736792D01*
X87027Y738182D01*
X85964Y739245D01*
X84574Y739820D01*
D02*
G37*
G36*
X663697Y749067D02*
X661309D01*
X659002Y748449D01*
X656934Y747255D01*
X655245Y745566D01*
X654051Y743498D01*
X653433Y741191D01*
Y738803D01*
X654051Y736496D01*
X655245Y734428D01*
X656934Y732739D01*
X659002Y731545D01*
X661309Y730927D01*
X663697D01*
X666004Y731545D01*
X668072Y732739D01*
X669761Y734428D01*
X670955Y736496D01*
X671573Y738803D01*
Y741191D01*
X670955Y743498D01*
X669761Y745566D01*
X668072Y747255D01*
X666004Y748449D01*
X663697Y749067D01*
D02*
G37*
G36*
X478697D02*
X476309D01*
X474002Y748449D01*
X471934Y747255D01*
X470245Y745566D01*
X469051Y743498D01*
X468433Y741191D01*
Y738803D01*
X469051Y736496D01*
X470245Y734428D01*
X471934Y732739D01*
X474002Y731545D01*
X476309Y730927D01*
X478697D01*
X481004Y731545D01*
X483072Y732739D01*
X484761Y734428D01*
X485955Y736496D01*
X486573Y738803D01*
Y741191D01*
X485955Y743498D01*
X484761Y745566D01*
X483072Y747255D01*
X481004Y748449D01*
X478697Y749067D01*
D02*
G37*
G36*
X353697Y749067D02*
X351309D01*
X349002Y748449D01*
X346934Y747255D01*
X345245Y745566D01*
X344051Y743498D01*
X343433Y741191D01*
Y738803D01*
X344051Y736496D01*
X345245Y734428D01*
X346934Y732739D01*
X349002Y731545D01*
X351309Y730927D01*
X353697D01*
X356004Y731545D01*
X358072Y732739D01*
X359761Y734428D01*
X360955Y736496D01*
X361573Y738803D01*
Y741191D01*
X360955Y743498D01*
X359761Y745566D01*
X358072Y747255D01*
X356004Y748449D01*
X353697Y749067D01*
D02*
G37*
G36*
X168697D02*
X166309D01*
X164002Y748449D01*
X161934Y747255D01*
X160245Y745566D01*
X159051Y743498D01*
X158433Y741191D01*
Y738803D01*
X159051Y736496D01*
X160245Y734428D01*
X161934Y732739D01*
X164002Y731545D01*
X166309Y730927D01*
X168697D01*
X171004Y731545D01*
X173072Y732739D01*
X174761Y734428D01*
X175955Y736496D01*
X176573Y738803D01*
Y741191D01*
X175955Y743498D01*
X174761Y745566D01*
X173072Y747255D01*
X171004Y748449D01*
X168697Y749067D01*
D02*
G37*
G36*
X74034Y732398D02*
X72530D01*
X71141Y731822D01*
X70078Y730759D01*
X69502Y729369D01*
Y727866D01*
X70078Y726476D01*
X71141Y725413D01*
X72530Y724837D01*
X74034D01*
X75423Y725413D01*
X76487Y726476D01*
X77062Y727866D01*
Y729369D01*
X76487Y730759D01*
X75423Y731822D01*
X74034Y732398D01*
D02*
G37*
G36*
X141407Y729193D02*
X139903D01*
X138514Y728618D01*
X137451Y727554D01*
X136875Y726165D01*
Y724661D01*
X137451Y723272D01*
X138514Y722209D01*
X139903Y721633D01*
X141407D01*
X142797Y722209D01*
X143860Y723272D01*
X144435Y724661D01*
Y726165D01*
X143860Y727554D01*
X142797Y728618D01*
X141407Y729193D01*
D02*
G37*
G36*
X206400Y725052D02*
X204896D01*
X203507Y724477D01*
X202443Y723413D01*
X201868Y722024D01*
Y720520D01*
X202443Y719131D01*
X203507Y718068D01*
X204896Y717492D01*
X205670D01*
X205735Y717479D01*
X217485D01*
Y712556D01*
X228045D01*
Y724116D01*
X222493D01*
X221608Y724708D01*
X220170Y724994D01*
X206541D01*
X206400Y725052D01*
D02*
G37*
G36*
Y712945D02*
X204896D01*
X203507Y712369D01*
X202443Y711306D01*
X201868Y709917D01*
Y708413D01*
X202443Y707024D01*
X203507Y705960D01*
X204896Y705385D01*
X206400D01*
X207789Y705960D01*
X208852Y707024D01*
X209428Y708413D01*
Y709917D01*
X208852Y711306D01*
X207789Y712369D01*
X206400Y712945D01*
D02*
G37*
G36*
X228045Y704297D02*
X217485D01*
Y700964D01*
X205849D01*
X205211Y700837D01*
X204896D01*
X204605Y700717D01*
X204411Y700678D01*
X204247Y700569D01*
X203507Y700262D01*
X202443Y699199D01*
X201868Y697809D01*
Y696306D01*
X202443Y694916D01*
X203507Y693853D01*
X204896Y693278D01*
X206400D01*
X206816Y693450D01*
X217485D01*
Y692738D01*
X228045D01*
Y704297D01*
D02*
G37*
G36*
X464801Y691324D02*
X463297D01*
X461908Y690748D01*
X460844Y689685D01*
X460269Y688296D01*
Y686792D01*
X460844Y685403D01*
X461908Y684339D01*
X463297Y683764D01*
X464801D01*
X466190Y684339D01*
X467253Y685403D01*
X467829Y686792D01*
Y688296D01*
X467253Y689685D01*
X466190Y690748D01*
X464801Y691324D01*
D02*
G37*
G36*
X663697Y701567D02*
X661309D01*
X659002Y700949D01*
X656934Y699755D01*
X655245Y698066D01*
X654051Y695998D01*
X653433Y693691D01*
Y691303D01*
X654051Y688996D01*
X655245Y686928D01*
X656934Y685239D01*
X659002Y684045D01*
X661309Y683427D01*
X663697D01*
X666004Y684045D01*
X668072Y685239D01*
X669761Y686928D01*
X670955Y688996D01*
X671573Y691303D01*
Y693691D01*
X670955Y695998D01*
X669761Y698066D01*
X668072Y699755D01*
X666004Y700949D01*
X663697Y701567D01*
D02*
G37*
G36*
X478697D02*
X476309D01*
X474002Y700949D01*
X471934Y699755D01*
X470245Y698066D01*
X469051Y695998D01*
X468433Y693691D01*
Y691303D01*
X469051Y688996D01*
X470245Y686928D01*
X471934Y685239D01*
X474002Y684045D01*
X476309Y683427D01*
X478697D01*
X481004Y684045D01*
X483072Y685239D01*
X484761Y686928D01*
X485955Y688996D01*
X486573Y691303D01*
Y693691D01*
X485955Y695998D01*
X484761Y698066D01*
X483072Y699755D01*
X481004Y700949D01*
X478697Y701567D01*
D02*
G37*
G36*
X353697Y701567D02*
X351309D01*
X349002Y700949D01*
X346934Y699755D01*
X345245Y698066D01*
X344051Y695998D01*
X343433Y693691D01*
Y691303D01*
X344051Y688996D01*
X345245Y686928D01*
X346934Y685239D01*
X349002Y684045D01*
X351309Y683427D01*
X353697D01*
X356004Y684045D01*
X358072Y685239D01*
X359761Y686928D01*
X360955Y688996D01*
X361573Y691303D01*
Y693691D01*
X360955Y695998D01*
X359761Y698066D01*
X358072Y699755D01*
X356004Y700949D01*
X353697Y701567D01*
D02*
G37*
G36*
X735891Y702745D02*
X733316D01*
X730828Y702079D01*
X728598Y700791D01*
X726777Y698970D01*
X725490Y696740D01*
X724823Y694253D01*
Y691678D01*
X725490Y689191D01*
X726777Y686960D01*
X728598Y685139D01*
X730828Y683852D01*
X733316Y683185D01*
X735891D01*
X738378Y683852D01*
X740608Y685139D01*
X742429Y686960D01*
X743717Y689191D01*
X744383Y691678D01*
Y694253D01*
X743717Y696740D01*
X742429Y698970D01*
X740608Y700791D01*
X738378Y702079D01*
X735891Y702745D01*
D02*
G37*
G36*
X206400Y688730D02*
X204896D01*
X203507Y688155D01*
X202443Y687091D01*
X201868Y685702D01*
Y684198D01*
X202443Y682809D01*
X203507Y681746D01*
X204896Y681170D01*
X206400D01*
X207789Y681746D01*
X208852Y682809D01*
X209428Y684198D01*
Y685702D01*
X208852Y687091D01*
X207789Y688155D01*
X206400Y688730D01*
D02*
G37*
G36*
X470790Y675826D02*
X469286D01*
X467897Y675250D01*
X466833Y674187D01*
X466258Y672798D01*
Y671294D01*
X466833Y669905D01*
X467897Y668841D01*
X469286Y668266D01*
X470790D01*
X472179Y668841D01*
X473242Y669905D01*
X473818Y671294D01*
Y672798D01*
X473242Y674187D01*
X472179Y675250D01*
X470790Y675826D01*
D02*
G37*
G36*
X735891Y677345D02*
X733316D01*
X730828Y676679D01*
X728598Y675391D01*
X726777Y673570D01*
X725490Y671340D01*
X724823Y668853D01*
Y666278D01*
X725490Y663791D01*
X726777Y661560D01*
X728598Y659740D01*
X730828Y658452D01*
X733316Y657785D01*
X735891D01*
X738378Y658452D01*
X740608Y659740D01*
X742429Y661560D01*
X743717Y663791D01*
X744383Y666278D01*
Y668853D01*
X743717Y671340D01*
X742429Y673570D01*
X740608Y675391D01*
X738378Y676679D01*
X735891Y677345D01*
D02*
G37*
G36*
X476837Y658732D02*
X475333D01*
X473944Y658157D01*
X472881Y657093D01*
X472305Y655704D01*
Y654200D01*
X472881Y652811D01*
X473944Y651748D01*
X475333Y651172D01*
X476837D01*
X478227Y651748D01*
X479290Y652811D01*
X479865Y654200D01*
Y655704D01*
X479290Y657093D01*
X478227Y658157D01*
X476837Y658732D01*
D02*
G37*
G36*
X580755Y655277D02*
X579251D01*
X577862Y654701D01*
X576799Y653638D01*
X576223Y652249D01*
Y650745D01*
X576799Y649356D01*
X577862Y648292D01*
X579251Y647717D01*
X580755D01*
X582144Y648292D01*
X583208Y649356D01*
X583783Y650745D01*
Y652249D01*
X583208Y653638D01*
X582144Y654701D01*
X580755Y655277D01*
D02*
G37*
G36*
X540755D02*
X539251D01*
X537862Y654701D01*
X536799Y653638D01*
X536223Y652249D01*
Y650745D01*
X536799Y649356D01*
X537862Y648292D01*
X539251Y647717D01*
X540755D01*
X542144Y648292D01*
X543208Y649356D01*
X543783Y650745D01*
Y652249D01*
X543208Y653638D01*
X542144Y654701D01*
X540755Y655277D01*
D02*
G37*
G36*
X86647Y652132D02*
X85144D01*
X83754Y651556D01*
X82691Y650493D01*
X82115Y649104D01*
Y647600D01*
X82691Y646210D01*
X83754Y645147D01*
X85144Y644572D01*
X86647D01*
X88037Y645147D01*
X89100Y646210D01*
X89676Y647600D01*
Y649104D01*
X89100Y650493D01*
X88037Y651556D01*
X86647Y652132D01*
D02*
G37*
G36*
X78096Y643568D02*
X76592D01*
X75203Y642993D01*
X74139Y641930D01*
X73564Y640540D01*
Y639036D01*
X74139Y637647D01*
X75203Y636584D01*
X76592Y636008D01*
X78096D01*
X79485Y636584D01*
X80549Y637647D01*
X81124Y639036D01*
Y640540D01*
X80549Y641930D01*
X79485Y642993D01*
X78096Y643568D01*
D02*
G37*
G36*
X482020Y642045D02*
X480516D01*
X479127Y641469D01*
X478064Y640406D01*
X477488Y639016D01*
Y637513D01*
X478064Y636123D01*
X479127Y635060D01*
X480516Y634484D01*
X482020D01*
X483409Y635060D01*
X484473Y636123D01*
X485048Y637513D01*
Y639016D01*
X484473Y640406D01*
X483409Y641469D01*
X482020Y642045D01*
D02*
G37*
G36*
X744383Y651945D02*
X724823D01*
Y632385D01*
X744383D01*
Y651945D01*
D02*
G37*
G36*
X86647Y635005D02*
X85144D01*
X83754Y634430D01*
X82691Y633366D01*
X82115Y631977D01*
Y630473D01*
X82691Y629084D01*
X83754Y628021D01*
X85144Y627445D01*
X86647D01*
X88037Y628021D01*
X89100Y629084D01*
X89676Y630473D01*
Y631977D01*
X89100Y633366D01*
X88037Y634430D01*
X86647Y635005D01*
D02*
G37*
G36*
X69545D02*
X68041D01*
X66652Y634430D01*
X65588Y633366D01*
X65013Y631977D01*
Y630473D01*
X65588Y629084D01*
X66652Y628021D01*
X68041Y627445D01*
X69545D01*
X70934Y628021D01*
X71997Y629084D01*
X72573Y630473D01*
Y631977D01*
X71997Y633366D01*
X70934Y634430D01*
X69545Y635005D01*
D02*
G37*
G36*
X650502Y642841D02*
X648998D01*
X647609Y642265D01*
X647514Y642171D01*
X608088D01*
X606898Y641934D01*
X605890Y641260D01*
X602688Y638058D01*
X602014Y637049D01*
X601777Y635859D01*
Y633926D01*
X598915D01*
Y623366D01*
X610475D01*
Y633926D01*
X609293D01*
X608805Y635054D01*
X609526Y635951D01*
X647514D01*
X647609Y635856D01*
X648998Y635281D01*
X650502D01*
X651891Y635856D01*
X651986Y635951D01*
X653585D01*
X654393Y634955D01*
X653994Y633926D01*
X653994D01*
X653994Y624370D01*
Y624351D01*
Y624351D01*
X653994Y624164D01*
X653931Y624138D01*
X652724Y623638D01*
X652384Y623977D01*
X650995Y624553D01*
X650775D01*
X646293Y629035D01*
Y633928D01*
X634733D01*
Y624433D01*
X633488Y623882D01*
X632099Y624457D01*
X630595D01*
X629206Y623882D01*
X628142Y622819D01*
X627567Y621429D01*
Y619925D01*
X627980Y618928D01*
X627447Y617883D01*
X627228Y617677D01*
X627005Y617677D01*
X627005Y617677D01*
X626967Y617677D01*
X616375D01*
Y614488D01*
X610475D01*
Y617926D01*
X598915D01*
Y610497D01*
X597816Y609398D01*
X597142Y608389D01*
X596905Y607199D01*
Y592390D01*
X596568Y592165D01*
X595512Y590584D01*
X595141Y588719D01*
Y576719D01*
X595512Y574854D01*
X596568Y573273D01*
X598150Y572216D01*
X600015Y571845D01*
X601880Y572216D01*
X603461Y573273D01*
X604517Y574854D01*
X604888Y576719D01*
Y588719D01*
X604517Y590584D01*
X603461Y592165D01*
X603125Y592390D01*
Y605910D01*
X604580Y607366D01*
X610475D01*
Y608268D01*
X616375D01*
Y607117D01*
X627935D01*
Y616690D01*
X627935Y616948D01*
X628399Y617140D01*
X629205Y617474D01*
X629206Y617473D01*
X630595Y616897D01*
X632099D01*
X633488Y617473D01*
X634733Y616922D01*
Y610875D01*
X624912Y601054D01*
X615377D01*
X615377Y601054D01*
X614187Y600817D01*
X613178Y600143D01*
X613178Y600143D01*
X610516Y597481D01*
X609842Y596472D01*
X609605Y595282D01*
Y592390D01*
X609268Y592165D01*
X608212Y590584D01*
X607841Y588719D01*
Y576719D01*
X608212Y574854D01*
X609268Y573273D01*
X610850Y572216D01*
X612715Y571845D01*
X614580Y572216D01*
X616161Y573273D01*
X617217Y574854D01*
X617588Y576719D01*
Y588719D01*
X617217Y590584D01*
X616161Y592165D01*
X615825Y592390D01*
Y593994D01*
X616665Y594835D01*
X622305D01*
Y592390D01*
X621968Y592165D01*
X620912Y590584D01*
X620541Y588719D01*
Y576719D01*
X620912Y574854D01*
X621968Y573273D01*
X623550Y572216D01*
X625415Y571845D01*
X627280Y572216D01*
X628861Y573273D01*
X629917Y574854D01*
X630288Y576719D01*
Y588719D01*
X629917Y590584D01*
X628861Y592165D01*
X628525Y592390D01*
Y595870D01*
X640022Y607368D01*
X646293D01*
Y616731D01*
X646293Y617086D01*
X647400Y617974D01*
X647731Y617939D01*
X648102Y617568D01*
X649491Y616993D01*
X650995D01*
X652384Y617568D01*
X653448Y618632D01*
X654023Y620021D01*
Y621525D01*
X653743Y622200D01*
X654635Y623366D01*
X654856Y623366D01*
X654856Y623366D01*
X654934Y623366D01*
X665554D01*
Y633926D01*
X661331D01*
Y635859D01*
X661094Y637049D01*
X660420Y638058D01*
X657218Y641260D01*
X656209Y641934D01*
X655019Y642171D01*
X651986D01*
X651891Y642265D01*
X650502Y642841D01*
D02*
G37*
G36*
X570477Y643349D02*
X568973D01*
X567731Y642834D01*
X553324D01*
X552134Y642598D01*
X551125Y641924D01*
X547259Y638058D01*
X546585Y637049D01*
X546349Y635859D01*
Y633926D01*
X543446D01*
Y624598D01*
X542176Y624072D01*
X542013Y624234D01*
X541046Y624635D01*
X536646Y629035D01*
Y633928D01*
X525086D01*
Y623368D01*
X533517D01*
X536092Y620793D01*
Y620278D01*
X536539Y619198D01*
X536115Y618253D01*
X535832Y617928D01*
X535781Y617928D01*
Y617928D01*
X535713Y617928D01*
X525086D01*
Y607368D01*
X530865D01*
Y599240D01*
Y592390D01*
X530528Y592165D01*
X529472Y590584D01*
X529101Y588719D01*
Y576719D01*
X529472Y574854D01*
X530528Y573273D01*
X532110Y572216D01*
X533975Y571845D01*
X535840Y572216D01*
X537421Y573273D01*
X538477Y574854D01*
X538848Y576719D01*
Y588719D01*
X538477Y590584D01*
X537421Y592165D01*
X537085Y592390D01*
Y596130D01*
X543565D01*
Y592390D01*
X543228Y592165D01*
X542172Y590584D01*
X541801Y588719D01*
Y576719D01*
X542172Y574854D01*
X543228Y573273D01*
X544810Y572216D01*
X546675Y571845D01*
X548540Y572216D01*
X550121Y573273D01*
X551177Y574854D01*
X551548Y576719D01*
Y588719D01*
X551177Y590584D01*
X550121Y592165D01*
X549785Y592390D01*
Y597752D01*
X549548Y598942D01*
X548874Y599951D01*
X547386Y601439D01*
X546377Y602113D01*
X545187Y602350D01*
X537085D01*
Y609027D01*
X536848Y610217D01*
X536646Y610519D01*
X536646Y616995D01*
Y617022D01*
D01*
X536646Y617114D01*
X537165Y617454D01*
X537916Y617748D01*
X539120Y617249D01*
X540624D01*
X542013Y617825D01*
X542219Y618030D01*
X542294Y617995D01*
X542294Y617995D01*
X543446Y617461D01*
X543446Y616849D01*
Y607366D01*
X555006D01*
Y607366D01*
X556265Y607340D01*
Y592390D01*
X555928Y592165D01*
X554872Y590584D01*
X554501Y588719D01*
Y576719D01*
X554872Y574854D01*
X555928Y573273D01*
X557510Y572216D01*
X559375Y571845D01*
X561240Y572216D01*
X562821Y573273D01*
X563877Y574854D01*
X564248Y576719D01*
Y588719D01*
X563877Y590584D01*
X562821Y592165D01*
X562485Y592390D01*
Y607117D01*
X572465D01*
Y617677D01*
X560905D01*
Y615706D01*
X559659Y615450D01*
X559375Y615507D01*
X555006D01*
Y617926D01*
X544612D01*
X543911Y617926D01*
X543549Y618344D01*
X543154Y619076D01*
X543652Y620278D01*
Y621781D01*
X543522Y622096D01*
X544370Y623366D01*
X555006D01*
Y633926D01*
X553719D01*
X553193Y635196D01*
X554612Y636615D01*
X567333D01*
X567584Y636364D01*
X568973Y635789D01*
X570477D01*
X571866Y636364D01*
X571999Y636497D01*
X582682D01*
X582835Y636344D01*
Y633926D01*
X580165D01*
Y623366D01*
X591725D01*
Y633926D01*
X589054D01*
Y637632D01*
X588818Y638822D01*
X588144Y639831D01*
X586169Y641806D01*
X585160Y642480D01*
X583970Y642717D01*
X571923D01*
X571866Y642773D01*
X570477Y643349D01*
D02*
G37*
G36*
X78096Y626442D02*
X76592D01*
X75203Y625866D01*
X74139Y624803D01*
X73564Y623414D01*
Y621910D01*
X74139Y620521D01*
X75203Y619457D01*
X76592Y618882D01*
X78096D01*
X79485Y619457D01*
X80549Y620521D01*
X81124Y621910D01*
Y623414D01*
X80549Y624803D01*
X79485Y625866D01*
X78096Y626442D01*
D02*
G37*
G36*
X69545Y617878D02*
X68041D01*
X66652Y617303D01*
X65588Y616240D01*
X65013Y614850D01*
Y613346D01*
X65588Y611957D01*
X66652Y610894D01*
X68041Y610318D01*
X69545D01*
X70934Y610894D01*
X71997Y611957D01*
X72573Y613346D01*
Y614850D01*
X71997Y616240D01*
X70934Y617303D01*
X69545Y617878D01*
D02*
G37*
G36*
X735891Y579777D02*
X733316D01*
X730828Y579110D01*
X728598Y577823D01*
X726777Y576002D01*
X725490Y573772D01*
X724823Y571284D01*
Y568709D01*
X725490Y566222D01*
X726777Y563992D01*
X728598Y562171D01*
X730828Y560883D01*
X733316Y560217D01*
X735891D01*
X738378Y560883D01*
X740608Y562171D01*
X742429Y563992D01*
X743717Y566222D01*
X744383Y568709D01*
Y571284D01*
X743717Y573772D01*
X742429Y576002D01*
X740608Y577823D01*
X738378Y579110D01*
X735891Y579777D01*
D02*
G37*
G36*
X665553Y584696D02*
X653993D01*
Y574136D01*
X656016D01*
Y567716D01*
X653993D01*
Y557156D01*
X665553D01*
Y567716D01*
X663530D01*
Y574136D01*
X665553D01*
Y584696D01*
D02*
G37*
G36*
X482457Y550642D02*
X480953D01*
X479564Y550067D01*
X478501Y549003D01*
X477925Y547614D01*
Y546110D01*
X478501Y544721D01*
X479564Y543658D01*
X480953Y543082D01*
X482457D01*
X483847Y543658D01*
X484910Y544721D01*
X485485Y546110D01*
Y547614D01*
X484910Y549003D01*
X483847Y550067D01*
X482457Y550642D01*
D02*
G37*
G36*
X46780D02*
X45277D01*
X43887Y550067D01*
X42824Y549003D01*
X42249Y547614D01*
Y546110D01*
X42824Y544721D01*
X43887Y543658D01*
X45277Y543082D01*
X46780D01*
X48170Y543658D01*
X49233Y544721D01*
X49809Y546110D01*
Y547614D01*
X49233Y549003D01*
X48170Y550067D01*
X46780Y550642D01*
D02*
G37*
G36*
X744383Y554377D02*
X724823D01*
Y534817D01*
X744383D01*
Y554377D01*
D02*
G37*
G36*
X559375Y537093D02*
X557510Y536722D01*
X555928Y535665D01*
X554872Y534084D01*
X554501Y532219D01*
Y520219D01*
X554872Y518354D01*
X555574Y517303D01*
X554924Y516033D01*
X551126D01*
X550475Y517303D01*
X551177Y518354D01*
X551548Y520219D01*
Y532219D01*
X551177Y534084D01*
X550121Y535665D01*
X548540Y536722D01*
X546675Y537093D01*
X544810Y536722D01*
X543228Y535665D01*
X542172Y534084D01*
X541801Y532219D01*
Y520219D01*
X542172Y518354D01*
X543228Y516773D01*
X543565Y516548D01*
Y514211D01*
X531357Y502004D01*
X525086D01*
Y491444D01*
X536646D01*
Y498497D01*
X547963Y509813D01*
X557887D01*
X559077Y510050D01*
X560086Y510724D01*
X561574Y512212D01*
X562248Y513221D01*
X562485Y514411D01*
Y516548D01*
X562821Y516773D01*
X563877Y518354D01*
X564248Y520219D01*
Y532219D01*
X563877Y534084D01*
X562821Y535665D01*
X561240Y536722D01*
X559375Y537093D01*
D02*
G37*
G36*
X695337Y511807D02*
X693833D01*
X692443Y511231D01*
X691380Y510168D01*
X690805Y508779D01*
Y507275D01*
X691380Y505886D01*
X692443Y504822D01*
X693833Y504247D01*
X695337D01*
X696726Y504822D01*
X697789Y505886D01*
X698365Y507275D01*
Y508779D01*
X697789Y510168D01*
X696726Y511231D01*
X695337Y511807D01*
D02*
G37*
G36*
X572075Y537093D02*
X570210Y536722D01*
X568629Y535665D01*
X567572Y534084D01*
X567201Y532219D01*
Y520219D01*
X567572Y518354D01*
X568629Y516773D01*
X568965Y516548D01*
Y512651D01*
X564486Y508172D01*
X563812Y507163D01*
X563576Y505973D01*
Y502006D01*
X560904D01*
Y500328D01*
X555005D01*
Y501755D01*
X543445D01*
Y491195D01*
X555005D01*
Y494108D01*
X560904D01*
Y491446D01*
X572464D01*
Y502006D01*
X569795D01*
Y504685D01*
X574274Y509164D01*
X574948Y510173D01*
X575185Y511362D01*
Y516548D01*
X575521Y516773D01*
X576577Y518354D01*
X576948Y520219D01*
Y532219D01*
X576577Y534084D01*
X575521Y535665D01*
X573940Y536722D01*
X572075Y537093D01*
D02*
G37*
G36*
X665553Y518735D02*
X653993D01*
Y508175D01*
X656016D01*
Y501755D01*
X653993D01*
Y491195D01*
X665553D01*
Y501755D01*
X663530D01*
Y508175D01*
X665553D01*
Y518735D01*
D02*
G37*
G36*
X139235Y476336D02*
X137731D01*
X136342Y475760D01*
X135279Y474697D01*
X134703Y473308D01*
Y471804D01*
X135279Y470415D01*
X136342Y469351D01*
X137731Y468776D01*
X139235D01*
X140624Y469351D01*
X141688Y470415D01*
X142263Y471804D01*
Y473308D01*
X141688Y474697D01*
X140624Y475760D01*
X139235Y476336D01*
D02*
G37*
G36*
X380143Y472673D02*
X378639D01*
X377250Y472097D01*
X376186Y471034D01*
X375611Y469645D01*
Y468141D01*
X376186Y466751D01*
X377250Y465688D01*
X378639Y465113D01*
X380143D01*
X381532Y465688D01*
X382595Y466751D01*
X383171Y468141D01*
Y469645D01*
X382595Y471034D01*
X381532Y472097D01*
X380143Y472673D01*
D02*
G37*
G36*
X84403Y474915D02*
X73843D01*
Y463355D01*
X77149D01*
Y463303D01*
X77725Y461914D01*
X78788Y460850D01*
X80177Y460275D01*
X81681D01*
X83070Y460850D01*
X84134Y461914D01*
X84709Y463303D01*
Y464807D01*
X84650Y464949D01*
Y468632D01*
X84403Y469874D01*
Y474915D01*
D02*
G37*
G36*
X417058Y458440D02*
X415554D01*
X414165Y457864D01*
X413102Y456801D01*
X412526Y455412D01*
Y453908D01*
X413102Y452519D01*
X414165Y451455D01*
X415554Y450880D01*
X417058D01*
X418447Y451455D01*
X419510Y452519D01*
X420086Y453908D01*
Y455412D01*
X419510Y456801D01*
X418447Y457864D01*
X417058Y458440D01*
D02*
G37*
G36*
X81003Y457353D02*
X79499D01*
X78110Y456777D01*
X77047Y455714D01*
X76940Y455457D01*
X73703D01*
Y443897D01*
X84263D01*
Y455457D01*
X83562D01*
X83456Y455714D01*
X82392Y456777D01*
X81003Y457353D01*
D02*
G37*
G36*
X68403Y474915D02*
X57843D01*
Y463355D01*
X58335D01*
Y455457D01*
X57703D01*
Y443897D01*
X58344D01*
Y443411D01*
X58919Y442022D01*
X59983Y440959D01*
X61372Y440383D01*
X62876D01*
X64265Y440959D01*
X65328Y442022D01*
X65904Y443411D01*
Y443897D01*
X68263D01*
Y455457D01*
X65850D01*
Y463355D01*
X68403D01*
Y474915D01*
D02*
G37*
G36*
X818991Y469090D02*
X808431D01*
Y457530D01*
X811492D01*
Y450188D01*
X806863D01*
Y436628D01*
X821423D01*
Y450188D01*
X817712D01*
Y457530D01*
X818991D01*
Y469090D01*
D02*
G37*
G36*
X217434Y417757D02*
X206874D01*
Y406197D01*
X217434D01*
Y408867D01*
X220268D01*
X220363Y408772D01*
X221752Y408197D01*
X223256D01*
X224645Y408772D01*
X225709Y409836D01*
X226284Y411225D01*
Y412729D01*
X225709Y414118D01*
X224645Y415181D01*
X223256Y415757D01*
X221752D01*
X220363Y415181D01*
X220268Y415087D01*
X217434D01*
Y417757D01*
D02*
G37*
G36*
X159138Y417609D02*
X157634D01*
X156245Y417034D01*
X155181Y415971D01*
X154606Y414581D01*
Y413078D01*
X155181Y411688D01*
X156245Y410625D01*
X157634Y410050D01*
X157768D01*
X160378Y407440D01*
Y400411D01*
X159108Y399562D01*
X158585Y399779D01*
X157081D01*
X155692Y399203D01*
X154628Y398140D01*
X154053Y396751D01*
Y396617D01*
X147444Y390008D01*
X146770Y388999D01*
X146533Y387809D01*
Y353747D01*
X146439Y353652D01*
X145863Y352263D01*
Y350759D01*
X146439Y349370D01*
X147502Y348306D01*
X148891Y347731D01*
X150395D01*
X151784Y348306D01*
X152848Y349370D01*
X153423Y350759D01*
Y352263D01*
X152848Y353652D01*
X153788Y354447D01*
X154023Y354549D01*
X155129Y354091D01*
X156633D01*
X158022Y354666D01*
X159086Y355730D01*
X159661Y357119D01*
Y358623D01*
X159086Y360012D01*
X158991Y360107D01*
Y384089D01*
X165686Y390784D01*
X166360Y391793D01*
X166597Y392983D01*
Y408728D01*
X166360Y409918D01*
X165686Y410927D01*
X162166Y414447D01*
Y414581D01*
X161590Y415971D01*
X160527Y417034D01*
X159138Y417609D01*
D02*
G37*
G36*
X818991Y429106D02*
X808431D01*
Y417546D01*
X811492D01*
Y410204D01*
X806863D01*
Y396644D01*
X821423D01*
Y410204D01*
X817712D01*
Y417546D01*
X818991D01*
Y429106D01*
D02*
G37*
G36*
X84173Y392003D02*
X73613D01*
Y380443D01*
X76773D01*
Y380389D01*
X76786Y380321D01*
Y379601D01*
X77362Y378212D01*
X78425Y377148D01*
X79814Y376573D01*
X81318D01*
X82708Y377148D01*
X83771Y378212D01*
X84346Y379601D01*
Y381105D01*
X84287Y381248D01*
Y385853D01*
X84173Y386427D01*
Y392003D01*
D02*
G37*
G36*
X443942Y384093D02*
X442439D01*
X441049Y383518D01*
X439986Y382454D01*
X439410Y381065D01*
Y379561D01*
X439986Y378172D01*
X441049Y377108D01*
X442439Y376533D01*
X443942D01*
X445332Y377108D01*
X446395Y378172D01*
X446970Y379561D01*
Y381065D01*
X446395Y382454D01*
X445332Y383518D01*
X443942Y384093D01*
D02*
G37*
G36*
X431663Y382332D02*
X430160D01*
X428770Y381757D01*
X427707Y380694D01*
X427132Y379304D01*
Y377800D01*
X427707Y376411D01*
X428770Y375348D01*
X430160Y374772D01*
X431663D01*
X433053Y375348D01*
X434116Y376411D01*
X434692Y377800D01*
Y379304D01*
X434116Y380694D01*
X433053Y381757D01*
X431663Y382332D01*
D02*
G37*
G36*
X84173Y372545D02*
X73613D01*
Y360985D01*
X84173D01*
Y372545D01*
D02*
G37*
G36*
X818991Y389122D02*
X808431D01*
Y377562D01*
X811492D01*
Y370254D01*
X806900D01*
Y356694D01*
X821460D01*
Y370254D01*
X817712D01*
Y377562D01*
X818991D01*
Y389122D01*
D02*
G37*
G36*
X804460Y370254D02*
X789900D01*
Y367635D01*
X789331Y367255D01*
X787827D01*
X786438Y366679D01*
X785375Y365616D01*
X784799Y364227D01*
Y362723D01*
X785375Y361334D01*
X786438Y360270D01*
X787827Y359695D01*
X789331D01*
X789900Y359314D01*
Y356694D01*
X804460D01*
Y370254D01*
D02*
G37*
G36*
X68173Y392003D02*
X57613D01*
Y380443D01*
X58245D01*
Y372545D01*
X57613D01*
Y360985D01*
X58335D01*
Y359599D01*
X58453Y359007D01*
Y358655D01*
X58588Y358330D01*
X58621Y358161D01*
X58717Y358018D01*
X59029Y357266D01*
X60092Y356202D01*
X61481Y355627D01*
X62985D01*
X64374Y356202D01*
X65438Y357266D01*
X66013Y358655D01*
Y360159D01*
X67045Y360985D01*
X68173D01*
Y372545D01*
X65759D01*
Y380443D01*
X68173D01*
Y392003D01*
D02*
G37*
G36*
X421945Y351097D02*
X410385D01*
Y340537D01*
X421945D01*
Y351097D01*
D02*
G37*
G36*
X310047Y343581D02*
X308543D01*
X307154Y343005D01*
X306090Y341942D01*
X305515Y340553D01*
Y339049D01*
X306090Y337660D01*
X307154Y336596D01*
X308543Y336021D01*
X310047D01*
X311436Y336596D01*
X312499Y337660D01*
X313075Y339049D01*
Y340553D01*
X312499Y341942D01*
X311436Y343005D01*
X310047Y343581D01*
D02*
G37*
G36*
X818991Y349138D02*
X808431D01*
Y337578D01*
X811492D01*
Y331002D01*
X810473Y330692D01*
X809715Y331718D01*
X809722Y331734D01*
Y333238D01*
X809146Y334627D01*
X808083Y335690D01*
X806694Y336266D01*
X805190D01*
X803801Y335690D01*
X802738Y334627D01*
X802162Y333238D01*
Y332375D01*
X800023Y330236D01*
X789863D01*
Y316676D01*
X804423D01*
Y325841D01*
X805690Y327107D01*
X806863Y326621D01*
Y316676D01*
X821423D01*
Y330236D01*
X817712D01*
Y337578D01*
X818991D01*
Y349138D01*
D02*
G37*
G36*
X525069Y342144D02*
X523566D01*
X522176Y341569D01*
X521113Y340505D01*
X520537Y339116D01*
Y337612D01*
X521113Y336223D01*
X522176Y335160D01*
X523566Y334584D01*
X525069D01*
X525125Y334607D01*
X536428D01*
X543203Y327832D01*
X544422Y327018D01*
X545860Y326732D01*
X556900D01*
X556955Y326709D01*
X558459D01*
X559848Y327285D01*
X560912Y328348D01*
X561487Y329737D01*
Y331241D01*
X560912Y332630D01*
X559848Y333694D01*
X558459Y334269D01*
X556955D01*
X556900Y334246D01*
X547416D01*
X540641Y341021D01*
X539422Y341836D01*
X537985Y342122D01*
X525125D01*
X525069Y342144D01*
D02*
G37*
G36*
X752316Y332677D02*
X750812D01*
X749423Y332102D01*
X748359Y331039D01*
X747784Y329649D01*
Y328146D01*
X748359Y326756D01*
X749423Y325693D01*
X750812Y325117D01*
X752316D01*
X753705Y325693D01*
X754769Y326756D01*
X755344Y328146D01*
Y329649D01*
X754769Y331039D01*
X753705Y332102D01*
X752316Y332677D01*
D02*
G37*
G36*
X738049D02*
X736545D01*
X735156Y332102D01*
X734093Y331039D01*
X733517Y329649D01*
Y328146D01*
X734093Y326756D01*
X735156Y325693D01*
X736545Y325117D01*
X738049D01*
X739438Y325693D01*
X740502Y326756D01*
X741077Y328146D01*
Y329649D01*
X740502Y331039D01*
X739438Y332102D01*
X738049Y332677D01*
D02*
G37*
G36*
X682237Y308323D02*
X680733D01*
X679344Y307747D01*
X678280Y306684D01*
X677705Y305295D01*
Y303791D01*
X678280Y302402D01*
X679344Y301338D01*
X680733Y300763D01*
X682237D01*
X683626Y301338D01*
X684690Y302402D01*
X685265Y303791D01*
Y305295D01*
X684690Y306684D01*
X683626Y307747D01*
X682237Y308323D01*
D02*
G37*
G36*
X352170Y302562D02*
X340610D01*
Y299216D01*
X334641D01*
Y302277D01*
X323081D01*
Y291717D01*
X334641D01*
Y292996D01*
X340610D01*
Y292002D01*
X352170D01*
Y302562D01*
D02*
G37*
G36*
X176404Y310857D02*
Y292569D01*
X191263D01*
Y310857D01*
X176404D01*
D02*
G37*
G36*
X152881Y315529D02*
X140881D01*
X140746Y315502D01*
X133353D01*
X132659Y315364D01*
X132070Y314970D01*
X110626Y293527D01*
X109723D01*
Y292034D01*
X109683Y291831D01*
Y280223D01*
X109683Y280223D01*
X109683Y280223D01*
X109723Y280020D01*
Y278467D01*
X111204D01*
X111498Y278409D01*
X111498Y278409D01*
X111498Y278409D01*
X122871Y278412D01*
X123398Y277143D01*
X110226Y263971D01*
X109832Y263382D01*
X109694Y262687D01*
Y224878D01*
X109670Y224758D01*
X109808Y224063D01*
X110202Y223475D01*
X110791Y223081D01*
X111485Y222943D01*
X127849D01*
X127939Y222961D01*
X129643D01*
Y224652D01*
X129664Y224758D01*
Y234910D01*
X165865D01*
X166560Y235048D01*
X167148Y235441D01*
X167542Y236030D01*
X167680Y236725D01*
Y255267D01*
X167542Y255961D01*
X167148Y256550D01*
X166560Y256944D01*
X165865Y257082D01*
X126283D01*
Y262527D01*
X126229D01*
Y264155D01*
X134857Y272783D01*
X136077Y272207D01*
X136378Y270690D01*
X137435Y269109D01*
X139016Y268052D01*
X140881Y267681D01*
X143124D01*
Y264788D01*
X143410Y263350D01*
X144224Y262131D01*
X146456Y259900D01*
X147675Y259085D01*
X149113Y258799D01*
X172120D01*
X174322Y256598D01*
Y247277D01*
X172687D01*
Y236717D01*
X184247D01*
Y238604D01*
X189580D01*
Y236555D01*
X199846D01*
X200695Y235285D01*
X200464Y234728D01*
Y233224D01*
X200812Y232385D01*
X200123Y231156D01*
X200068Y231115D01*
X189580D01*
Y220555D01*
X201140D01*
Y220810D01*
X207373D01*
Y220555D01*
X218933D01*
Y231115D01*
X208421D01*
X208366Y231156D01*
X207677Y232385D01*
X208024Y233224D01*
Y234728D01*
X207449Y236117D01*
X206385Y237181D01*
X204996Y237756D01*
X203492D01*
X202410Y237308D01*
X201468Y237730D01*
X201140Y238013D01*
Y247115D01*
X189580D01*
Y246119D01*
X184247D01*
Y247277D01*
X181836D01*
Y258154D01*
X181550Y259592D01*
X180736Y260811D01*
X176334Y265213D01*
X175115Y266027D01*
X173677Y266313D01*
X150669D01*
X150638Y266344D01*
Y267681D01*
X152881D01*
X154746Y268052D01*
X156327Y269109D01*
X157384Y270690D01*
X157755Y272555D01*
X157384Y274420D01*
X156327Y276001D01*
X154746Y277058D01*
X152881Y277429D01*
X141298D01*
X140695Y278622D01*
X142455Y280381D01*
X152881D01*
X154746Y280752D01*
X156327Y281809D01*
X157384Y283390D01*
X157755Y285255D01*
X157384Y287120D01*
X156327Y288701D01*
X154746Y289758D01*
X152881Y290129D01*
X140881D01*
X140296Y290012D01*
X138649D01*
X138123Y291282D01*
X139896Y293056D01*
X155959D01*
X156653Y293194D01*
X157242Y293587D01*
X157636Y294176D01*
X157735Y294677D01*
X159005Y294552D01*
Y292569D01*
X173864D01*
Y310857D01*
X159044D01*
X159005Y310857D01*
X157774Y310950D01*
Y313687D01*
X157636Y314381D01*
X157242Y314970D01*
X156653Y315364D01*
X155959Y315502D01*
X153017D01*
X152881Y315529D01*
D02*
G37*
G36*
X421945Y302562D02*
X410385D01*
Y292002D01*
X421945D01*
Y302562D01*
D02*
G37*
G36*
X404501D02*
X392941D01*
Y299618D01*
X392715Y299071D01*
Y297567D01*
X392941Y297020D01*
Y292002D01*
X404501D01*
Y302562D01*
D02*
G37*
G36*
X387058D02*
X375498D01*
Y292002D01*
X387058D01*
Y302562D01*
D02*
G37*
G36*
X369614D02*
X358054D01*
Y292002D01*
X365107D01*
X365296Y291719D01*
X366305Y291045D01*
X367495Y290808D01*
X368685Y291045D01*
X369694Y291719D01*
X370368Y292728D01*
X370605Y293918D01*
Y294052D01*
X370368Y295242D01*
X369694Y296251D01*
X369614Y296331D01*
Y302562D01*
D02*
G37*
G36*
X668775Y294947D02*
X667271D01*
X665882Y294371D01*
X664818Y293308D01*
X664243Y291919D01*
Y290415D01*
X664818Y289026D01*
X665882Y287962D01*
X667271Y287387D01*
X668775D01*
X670164Y287962D01*
X671228Y289026D01*
X671803Y290415D01*
Y291919D01*
X671228Y293308D01*
X670164Y294371D01*
X668775Y294947D01*
D02*
G37*
G36*
X209381Y290129D02*
X197381D01*
X195516Y289758D01*
X193935Y288701D01*
X192878Y287120D01*
X192763Y286539D01*
X191389Y286143D01*
X191263Y286276D01*
Y290029D01*
X176404D01*
Y271741D01*
X190776D01*
X190776Y271741D01*
X191263Y271740D01*
X191358Y271823D01*
X192747Y271349D01*
X192878Y270690D01*
X193935Y269109D01*
X195516Y268052D01*
X197381Y267681D01*
X209381D01*
X211246Y268052D01*
X212827Y269109D01*
X213047Y269438D01*
X214317Y269053D01*
Y267572D01*
X212241Y265496D01*
X191033D01*
X190768Y265761D01*
X189379Y266336D01*
X187875D01*
X186486Y265761D01*
X185422Y264697D01*
X184847Y263308D01*
Y261804D01*
X185422Y260415D01*
X186486Y259352D01*
X187875Y258776D01*
X189379D01*
X190586Y259276D01*
X213529D01*
X214719Y259513D01*
X215728Y260187D01*
X219626Y264085D01*
X220300Y265094D01*
X220537Y266284D01*
Y281826D01*
X220300Y283016D01*
X219626Y284025D01*
X216197Y287454D01*
X215188Y288128D01*
X213998Y288365D01*
X213052D01*
X212827Y288701D01*
X211246Y289758D01*
X209381Y290129D01*
D02*
G37*
G36*
X352170Y286382D02*
X340610D01*
Y284212D01*
X335541D01*
Y286382D01*
X323981D01*
Y275822D01*
X335541D01*
Y277992D01*
X340610D01*
Y275822D01*
X352170D01*
Y286382D01*
D02*
G37*
G36*
X818991Y308802D02*
X808431D01*
Y297242D01*
X811492D01*
Y291260D01*
X806900D01*
Y277700D01*
X821460D01*
Y291260D01*
X817712D01*
Y297242D01*
X818991D01*
Y308802D01*
D02*
G37*
G36*
X804460Y291260D02*
X789900D01*
Y288541D01*
X789221Y288088D01*
X787718D01*
X786328Y287512D01*
X785265Y286449D01*
X784690Y285060D01*
Y283556D01*
X785265Y282166D01*
X786328Y281103D01*
X787718Y280528D01*
X789221D01*
X789900Y280074D01*
Y277700D01*
X804460D01*
Y291260D01*
D02*
G37*
G36*
X316479Y302562D02*
X304919D01*
Y292002D01*
X306816D01*
Y286382D01*
X304667D01*
Y275822D01*
X316227D01*
Y286382D01*
X314330D01*
Y292002D01*
X316479D01*
Y302562D01*
D02*
G37*
G36*
X297942D02*
X286382D01*
Y292002D01*
X288279D01*
Y286382D01*
X286129D01*
Y275822D01*
X297689D01*
Y286382D01*
X295793D01*
Y292002D01*
X297942D01*
Y302562D01*
D02*
G37*
G36*
X244736D02*
X233176D01*
Y292002D01*
X235073D01*
Y286382D01*
X232924D01*
Y275822D01*
X244484D01*
Y286382D01*
X242587D01*
Y292002D01*
X244736D01*
Y302562D01*
D02*
G37*
G36*
X173864Y290029D02*
X159005D01*
Y271741D01*
X173864D01*
Y290029D01*
D02*
G37*
G36*
X94224Y322550D02*
X92720D01*
X91331Y321974D01*
X90267Y320911D01*
X90245Y320856D01*
X58052Y288664D01*
X57238Y287445D01*
X56952Y286007D01*
Y219038D01*
X57238Y217600D01*
X58052Y216381D01*
X87851Y186583D01*
X87873Y186568D01*
X87887Y186546D01*
X88330Y186250D01*
X88582Y185998D01*
X88911Y185862D01*
X89106Y185732D01*
X89336Y185686D01*
X89971Y185423D01*
X91475D01*
X91530Y185446D01*
X100671D01*
X100726Y185423D01*
X102230D01*
X103619Y185998D01*
X104683Y187062D01*
X105258Y188451D01*
Y189955D01*
X104683Y191344D01*
X103619Y192407D01*
X102230Y192983D01*
X100726D01*
X100671Y192960D01*
X92100D01*
X64466Y220594D01*
Y284265D01*
X65322Y284949D01*
X66473Y284448D01*
X66473Y284262D01*
Y272717D01*
X79533D01*
Y275240D01*
X85230D01*
Y272539D01*
X85368Y271844D01*
X85761Y271255D01*
X86350Y270862D01*
X87045Y270724D01*
X99317D01*
X100012Y270862D01*
X100600Y271255D01*
X100994Y271844D01*
X101132Y272539D01*
Y278467D01*
X101283D01*
Y293527D01*
X100181D01*
X100012Y293640D01*
X99317Y293778D01*
X87045D01*
X86350Y293640D01*
X86181Y293527D01*
X84723D01*
Y282754D01*
X79533D01*
Y285277D01*
X67517D01*
X67088Y285277D01*
X66562Y286547D01*
X95558Y315543D01*
X95613Y315565D01*
X96677Y316629D01*
X97252Y318018D01*
Y319522D01*
X96677Y320911D01*
X95613Y321974D01*
X94224Y322550D01*
D02*
G37*
G36*
X280952Y270382D02*
X269392D01*
Y268859D01*
X262415D01*
Y270382D01*
X250855D01*
Y259822D01*
X262415D01*
Y261345D01*
X269392D01*
Y259822D01*
X280952D01*
Y270382D01*
D02*
G37*
G36*
X763839Y274827D02*
X761567D01*
X759372Y274239D01*
X757404Y273103D01*
X755797Y271496D01*
X754661Y269528D01*
X754073Y267333D01*
Y265061D01*
X754661Y262866D01*
X755797Y260898D01*
X757404Y259291D01*
X759372Y258155D01*
X761567Y257567D01*
X763839D01*
X766034Y258155D01*
X768002Y259291D01*
X769609Y260898D01*
X770745Y262866D01*
X771333Y265061D01*
Y267333D01*
X770745Y269528D01*
X769609Y271496D01*
X768002Y273103D01*
X766034Y274239D01*
X763839Y274827D01*
D02*
G37*
G36*
X738439D02*
X736167D01*
X733972Y274239D01*
X732004Y273103D01*
X730397Y271496D01*
X729261Y269528D01*
X728673Y267333D01*
Y265061D01*
X729261Y262866D01*
X730397Y260898D01*
X732004Y259291D01*
X733972Y258155D01*
X736167Y257567D01*
X738439D01*
X740634Y258155D01*
X742602Y259291D01*
X744209Y260898D01*
X745345Y262866D01*
X745933Y265061D01*
Y267333D01*
X745345Y269528D01*
X744209Y271496D01*
X742602Y273103D01*
X740634Y274239D01*
X738439Y274827D01*
D02*
G37*
G36*
X381038Y254537D02*
X379534D01*
X378145Y253961D01*
X377082Y252898D01*
X376506Y251509D01*
Y250005D01*
X377082Y248616D01*
X378145Y247552D01*
X379534Y246977D01*
X381038D01*
X382427Y247552D01*
X383491Y248616D01*
X384066Y250005D01*
Y251509D01*
X383491Y252898D01*
X382427Y253961D01*
X381038Y254537D01*
D02*
G37*
G36*
X401865Y249513D02*
X400361D01*
X398971Y248937D01*
X397908Y247874D01*
X397333Y246485D01*
Y244981D01*
X397908Y243592D01*
X398971Y242528D01*
X400361Y241953D01*
X401865D01*
X403254Y242528D01*
X404317Y243592D01*
X404893Y244981D01*
Y246485D01*
X404317Y247874D01*
X403254Y248937D01*
X401865Y249513D01*
D02*
G37*
G36*
X390095Y247325D02*
X388592D01*
X387202Y246749D01*
X386139Y245686D01*
X385564Y244297D01*
Y242793D01*
X386139Y241404D01*
X387202Y240340D01*
X388592Y239765D01*
X390095D01*
X391485Y240340D01*
X392548Y241404D01*
X393124Y242793D01*
Y244297D01*
X392548Y245686D01*
X391485Y246749D01*
X390095Y247325D01*
D02*
G37*
G36*
X818991Y269170D02*
X808431D01*
Y257610D01*
X811492D01*
Y250413D01*
X806627D01*
Y236853D01*
X821187D01*
Y250413D01*
X817712D01*
Y257610D01*
X818991D01*
Y269170D01*
D02*
G37*
G36*
X790319Y253842D02*
X788816D01*
X787426Y253267D01*
X786363Y252204D01*
X785788Y250814D01*
Y249310D01*
X786363Y247921D01*
X787426Y246858D01*
X788816Y246282D01*
X789360D01*
X789627Y246015D01*
Y236853D01*
X804187D01*
Y250413D01*
X794025D01*
X793152Y251287D01*
X792772Y252204D01*
X791709Y253267D01*
X790319Y253842D01*
D02*
G37*
G36*
X763839Y249427D02*
X761567D01*
X759372Y248839D01*
X757404Y247703D01*
X755797Y246096D01*
X754661Y244128D01*
X754073Y241933D01*
Y239661D01*
X754661Y237466D01*
X755797Y235498D01*
X757404Y233891D01*
X759372Y232755D01*
X761567Y232167D01*
X763839D01*
X766034Y232755D01*
X768002Y233891D01*
X769609Y235498D01*
X770745Y237466D01*
X771333Y239661D01*
Y241933D01*
X770745Y244128D01*
X769609Y246096D01*
X768002Y247703D01*
X766034Y248839D01*
X763839Y249427D01*
D02*
G37*
G36*
X738439D02*
X736167D01*
X733972Y248839D01*
X732004Y247703D01*
X730397Y246096D01*
X729261Y244128D01*
X728673Y241933D01*
Y239661D01*
X729261Y237466D01*
X730397Y235498D01*
X732004Y233891D01*
X733972Y232755D01*
X736167Y232167D01*
X738439D01*
X740634Y232755D01*
X742602Y233891D01*
X744209Y235498D01*
X745345Y237466D01*
X745933Y239661D01*
Y241933D01*
X745345Y244128D01*
X744209Y246096D01*
X742602Y247703D01*
X740634Y248839D01*
X738439Y249427D01*
D02*
G37*
G36*
X806108Y232812D02*
X804604D01*
X803215Y232236D01*
X802152Y231173D01*
X801576Y229784D01*
Y228280D01*
X802152Y226891D01*
X803215Y225827D01*
X804604Y225252D01*
X806108D01*
X807497Y225827D01*
X808561Y226891D01*
X809136Y228280D01*
Y229784D01*
X808561Y231173D01*
X807497Y232236D01*
X806108Y232812D01*
D02*
G37*
G36*
X434344Y232417D02*
X432841D01*
X431451Y231842D01*
X430388Y230778D01*
X429813Y229389D01*
Y227885D01*
X430388Y226496D01*
X431451Y225432D01*
X432841Y224857D01*
X434344D01*
X435734Y225432D01*
X436797Y226496D01*
X437373Y227885D01*
Y229389D01*
X436797Y230778D01*
X435734Y231842D01*
X434344Y232417D01*
D02*
G37*
G36*
X446539Y232342D02*
X445035D01*
X443646Y231767D01*
X442582Y230704D01*
X442007Y229314D01*
Y227811D01*
X442582Y226421D01*
X443646Y225358D01*
X445035Y224783D01*
X446539D01*
X447928Y225358D01*
X448992Y226421D01*
X449567Y227811D01*
Y229314D01*
X448992Y230704D01*
X447928Y231767D01*
X446539Y232342D01*
D02*
G37*
G36*
X285489Y231361D02*
X283985D01*
X282596Y230785D01*
X281532Y229722D01*
X280957Y228333D01*
Y226829D01*
X281532Y225440D01*
X282596Y224376D01*
X283985Y223801D01*
X285489D01*
X286878Y224376D01*
X287942Y225440D01*
X288517Y226829D01*
Y228333D01*
X287942Y229722D01*
X286878Y230785D01*
X285489Y231361D01*
D02*
G37*
G36*
X274940D02*
X273436D01*
X272047Y230785D01*
X270983Y229722D01*
X270408Y228333D01*
Y226829D01*
X270983Y225440D01*
X272047Y224376D01*
X273436Y223801D01*
X274940D01*
X276329Y224376D01*
X277392Y225440D01*
X277968Y226829D01*
Y228333D01*
X277392Y229722D01*
X276329Y230785D01*
X274940Y231361D01*
D02*
G37*
G36*
X264390D02*
X262887D01*
X261497Y230785D01*
X260434Y229722D01*
X259858Y228333D01*
Y226829D01*
X260434Y225440D01*
X261497Y224376D01*
X262887Y223801D01*
X264390D01*
X265780Y224376D01*
X266843Y225440D01*
X267418Y226829D01*
Y228333D01*
X266843Y229722D01*
X265780Y230785D01*
X264390Y231361D01*
D02*
G37*
G36*
X253841D02*
X252337D01*
X250948Y230785D01*
X249885Y229722D01*
X249309Y228333D01*
Y226829D01*
X249885Y225440D01*
X250948Y224376D01*
X252337Y223801D01*
X253841D01*
X255230Y224376D01*
X256294Y225440D01*
X256869Y226829D01*
Y228333D01*
X256294Y229722D01*
X255230Y230785D01*
X253841Y231361D01*
D02*
G37*
G36*
X243292D02*
X241788D01*
X240399Y230785D01*
X239335Y229722D01*
X238760Y228333D01*
Y226829D01*
X239335Y225440D01*
X240399Y224376D01*
X241788Y223801D01*
X243292D01*
X244681Y224376D01*
X245744Y225440D01*
X246320Y226829D01*
Y228333D01*
X245744Y229722D01*
X244681Y230785D01*
X243292Y231361D01*
D02*
G37*
G36*
X232742D02*
X231239D01*
X229849Y230785D01*
X228786Y229722D01*
X228211Y228333D01*
Y226829D01*
X228786Y225440D01*
X229849Y224376D01*
X231239Y223801D01*
X232742D01*
X234132Y224376D01*
X235195Y225440D01*
X235770Y226829D01*
Y228333D01*
X235195Y229722D01*
X234132Y230785D01*
X232742Y231361D01*
D02*
G37*
G36*
X99628Y266343D02*
X86582D01*
X86270Y266280D01*
X75529D01*
X75512Y266277D01*
X66473D01*
Y253717D01*
X79533D01*
Y258766D01*
X84723D01*
Y247467D01*
X87197D01*
Y243031D01*
X80363D01*
Y222961D01*
X96623D01*
Y243031D01*
X94712D01*
Y247467D01*
X101283D01*
Y248592D01*
X101305Y248625D01*
X101443Y249320D01*
Y264528D01*
X101305Y265222D01*
X100911Y265811D01*
X100323Y266204D01*
X99628Y266343D01*
D02*
G37*
G36*
X469893Y218915D02*
X468389D01*
X467000Y218339D01*
X465937Y217276D01*
X465361Y215887D01*
Y214383D01*
X465937Y212994D01*
X467000Y211930D01*
X468389Y211355D01*
X469893D01*
X471282Y211930D01*
X472346Y212994D01*
X472921Y214383D01*
Y215887D01*
X472346Y217276D01*
X471282Y218339D01*
X469893Y218915D01*
D02*
G37*
G36*
X805640Y215665D02*
X804137D01*
X802747Y215089D01*
X801684Y214026D01*
X801108Y212637D01*
Y211133D01*
X801684Y209744D01*
X802747Y208680D01*
X804137Y208105D01*
X805640D01*
X807030Y208680D01*
X808093Y209744D01*
X808668Y211133D01*
Y212637D01*
X808093Y214026D01*
X807030Y215089D01*
X805640Y215665D01*
D02*
G37*
G36*
X481069Y215359D02*
X479565D01*
X478176Y214783D01*
X477113Y213720D01*
X476537Y212331D01*
Y210827D01*
X477113Y209438D01*
X478176Y208374D01*
X479565Y207799D01*
X481069D01*
X482458Y208374D01*
X483522Y209438D01*
X484097Y210827D01*
Y212331D01*
X483522Y213720D01*
X482458Y214783D01*
X481069Y215359D01*
D02*
G37*
G36*
X763839Y224027D02*
X761567D01*
X759372Y223439D01*
X757404Y222303D01*
X755797Y220696D01*
X754661Y218728D01*
X754073Y216533D01*
Y214261D01*
X754661Y212066D01*
X755797Y210098D01*
X757404Y208491D01*
X759372Y207355D01*
X761567Y206767D01*
X763839D01*
X766034Y207355D01*
X768002Y208491D01*
X769609Y210098D01*
X770745Y212066D01*
X771333Y214261D01*
Y216533D01*
X770745Y218728D01*
X769609Y220696D01*
X768002Y222303D01*
X766034Y223439D01*
X763839Y224027D01*
D02*
G37*
G36*
X738439D02*
X736167D01*
X733972Y223439D01*
X732004Y222303D01*
X730397Y220696D01*
X729261Y218728D01*
X728673Y216533D01*
Y214261D01*
X729261Y212066D01*
X730397Y210098D01*
X732004Y208491D01*
X733972Y207355D01*
X736167Y206767D01*
X738439D01*
X740634Y207355D01*
X742602Y208491D01*
X744209Y210098D01*
X745345Y212066D01*
X745933Y214261D01*
Y216533D01*
X745345Y218728D01*
X744209Y220696D01*
X742602Y222303D01*
X740634Y223439D01*
X738439Y224027D01*
D02*
G37*
G36*
X763839Y198627D02*
X761567D01*
X759372Y198039D01*
X757404Y196903D01*
X755797Y195296D01*
X754661Y193328D01*
X754073Y191133D01*
Y188861D01*
X754661Y186666D01*
X755797Y184698D01*
X757404Y183091D01*
X759372Y181955D01*
X761567Y181367D01*
X763839D01*
X766034Y181955D01*
X768002Y183091D01*
X769609Y184698D01*
X770745Y186666D01*
X771333Y188861D01*
Y191133D01*
X770745Y193328D01*
X769609Y195296D01*
X768002Y196903D01*
X766034Y198039D01*
X763839Y198627D01*
D02*
G37*
G36*
X738439D02*
X736167D01*
X733972Y198039D01*
X732004Y196903D01*
X730397Y195296D01*
X729261Y193328D01*
X728673Y191133D01*
Y188861D01*
X729261Y186666D01*
X730397Y184698D01*
X732004Y183091D01*
X733972Y181955D01*
X736167Y181367D01*
X738439D01*
X740634Y181955D01*
X742602Y183091D01*
X744209Y184698D01*
X745345Y186666D01*
X745933Y188861D01*
Y191133D01*
X745345Y193328D01*
X744209Y195296D01*
X742602Y196903D01*
X740634Y198039D01*
X738439Y198627D01*
D02*
G37*
G36*
X815088Y183626D02*
X813585D01*
X812195Y183050D01*
X811132Y181987D01*
X810556Y180598D01*
Y179094D01*
X811132Y177705D01*
X812195Y176641D01*
X813585Y176066D01*
X815088D01*
X816478Y176641D01*
X817541Y177705D01*
X818116Y179094D01*
Y180598D01*
X817541Y181987D01*
X816478Y183050D01*
X815088Y183626D01*
D02*
G37*
G36*
X133091Y177529D02*
X131588D01*
X130198Y176953D01*
X129135Y175890D01*
X128560Y174500D01*
Y172997D01*
X129135Y171607D01*
X130198Y170544D01*
X131588Y169968D01*
X133091D01*
X134481Y170544D01*
X135544Y171607D01*
X136119Y172997D01*
Y174500D01*
X135544Y175890D01*
X134481Y176953D01*
X133091Y177529D01*
D02*
G37*
G36*
X352170Y270382D02*
X340610D01*
Y259822D01*
X346513D01*
X346829Y259350D01*
X435608Y170571D01*
X436827Y169757D01*
X438264Y169471D01*
X454615D01*
X454670Y169448D01*
X456174D01*
X457563Y170023D01*
X458627Y171087D01*
X459202Y172476D01*
Y173980D01*
X458627Y175369D01*
X457563Y176432D01*
X456174Y177008D01*
X454670D01*
X454615Y176985D01*
X439821D01*
X365800Y251005D01*
X366241Y252361D01*
X367191Y252754D01*
X368255Y253818D01*
X368830Y255207D01*
Y256711D01*
X368255Y258100D01*
X367191Y259163D01*
X365802Y259739D01*
X364298D01*
X362909Y259163D01*
X361845Y258100D01*
X361452Y257150D01*
X360097Y256709D01*
X356754Y260052D01*
X357223Y261322D01*
X358612Y261897D01*
X359676Y262961D01*
X360251Y264350D01*
Y265854D01*
X359676Y267243D01*
X358612Y268307D01*
X357223Y268882D01*
X355719D01*
X355664Y268859D01*
X352170D01*
Y270382D01*
D02*
G37*
G36*
X192304Y168287D02*
X190800D01*
X189411Y167712D01*
X188347Y166649D01*
X187772Y165259D01*
Y163755D01*
X188347Y162366D01*
X189411Y161303D01*
X190800Y160727D01*
X192304D01*
X193693Y161303D01*
X194757Y162366D01*
X195332Y163755D01*
Y165259D01*
X194757Y166649D01*
X193693Y167712D01*
X192304Y168287D01*
D02*
G37*
G36*
X763839Y173227D02*
X761567D01*
X759372Y172639D01*
X757404Y171503D01*
X755797Y169896D01*
X754661Y167928D01*
X754073Y165733D01*
Y163461D01*
X754661Y161266D01*
X755797Y159298D01*
X757404Y157691D01*
X759372Y156555D01*
X761567Y155967D01*
X763839D01*
X766034Y156555D01*
X768002Y157691D01*
X769609Y159298D01*
X770745Y161266D01*
X771333Y163461D01*
Y165733D01*
X770745Y167928D01*
X769609Y169896D01*
X768002Y171503D01*
X766034Y172639D01*
X763839Y173227D01*
D02*
G37*
G36*
X738439D02*
X736167D01*
X733972Y172639D01*
X732004Y171503D01*
X730397Y169896D01*
X729261Y167928D01*
X728673Y165733D01*
Y163461D01*
X729261Y161266D01*
X730397Y159298D01*
X732004Y157691D01*
X733972Y156555D01*
X736167Y155967D01*
X738439D01*
X740634Y156555D01*
X742602Y157691D01*
X744209Y159298D01*
X745345Y161266D01*
X745933Y163461D01*
Y165733D01*
X745345Y167928D01*
X744209Y169896D01*
X742602Y171503D01*
X740634Y172639D01*
X738439Y173227D01*
D02*
G37*
G36*
X815079Y161511D02*
X813575D01*
X812186Y160935D01*
X811123Y159872D01*
X810547Y158483D01*
Y156979D01*
X811123Y155590D01*
X812186Y154526D01*
X813575Y153951D01*
X815079D01*
X816468Y154526D01*
X817532Y155590D01*
X818107Y156979D01*
Y158483D01*
X817532Y159872D01*
X816468Y160935D01*
X815079Y161511D01*
D02*
G37*
G36*
X143444Y141584D02*
X141940D01*
X140551Y141009D01*
X139488Y139945D01*
X138912Y138556D01*
Y137052D01*
X139488Y135663D01*
X140551Y134600D01*
X141940Y134024D01*
X143444D01*
X144833Y134600D01*
X145897Y135663D01*
X146472Y137052D01*
Y138556D01*
X145897Y139945D01*
X144833Y141009D01*
X143444Y141584D01*
D02*
G37*
G36*
X738439Y147827D02*
X736167D01*
X733972Y147239D01*
X732004Y146103D01*
X730397Y144496D01*
X729261Y142528D01*
X728673Y140333D01*
Y138061D01*
X729261Y135866D01*
X730397Y133898D01*
X732004Y132291D01*
X733972Y131155D01*
X736167Y130567D01*
X738439D01*
X740634Y131155D01*
X742602Y132291D01*
X744209Y133898D01*
X745345Y135866D01*
X745933Y138061D01*
Y140333D01*
X745345Y142528D01*
X744209Y144496D01*
X742602Y146103D01*
X740634Y147239D01*
X738439Y147827D01*
D02*
G37*
G36*
Y122427D02*
X736167D01*
X733972Y121839D01*
X732004Y120703D01*
X730397Y119096D01*
X729261Y117128D01*
X728673Y114933D01*
Y112661D01*
X729261Y110466D01*
X730397Y108498D01*
X732004Y106891D01*
X733972Y105755D01*
X736167Y105167D01*
X738439D01*
X740634Y105755D01*
X742602Y106891D01*
X744209Y108498D01*
X745345Y110466D01*
X745933Y112661D01*
Y114933D01*
X745345Y117128D01*
X744209Y119096D01*
X742602Y120703D01*
X740634Y121839D01*
X738439Y122427D01*
D02*
G37*
G36*
X102905Y88359D02*
X101402D01*
X100012Y87783D01*
X98949Y86720D01*
X98373Y85331D01*
Y83827D01*
X98949Y82438D01*
X100012Y81374D01*
X101402Y80799D01*
X102905D01*
X104295Y81374D01*
X105358Y82438D01*
X105933Y83827D01*
Y85331D01*
X105358Y86720D01*
X104295Y87783D01*
X102905Y88359D01*
D02*
G37*
G36*
X83813D02*
X82309D01*
X80920Y87783D01*
X79857Y86720D01*
X79281Y85331D01*
Y83827D01*
X79857Y82438D01*
X80920Y81374D01*
X82309Y80799D01*
X83813D01*
X85202Y81374D01*
X86266Y82438D01*
X86841Y83827D01*
Y85331D01*
X86266Y86720D01*
X85202Y87783D01*
X83813Y88359D01*
D02*
G37*
G36*
X608697Y92867D02*
X606309D01*
X604002Y92249D01*
X601934Y91055D01*
X600245Y89366D01*
X599051Y87298D01*
X598433Y84991D01*
Y82603D01*
X599051Y80296D01*
X600245Y78228D01*
X601934Y76539D01*
X604002Y75345D01*
X606309Y74727D01*
X608697D01*
X611004Y75345D01*
X613072Y76539D01*
X614761Y78228D01*
X615955Y80296D01*
X616573Y82603D01*
Y84991D01*
X615955Y87298D01*
X614761Y89366D01*
X613072Y91055D01*
X611004Y92249D01*
X608697Y92867D01*
D02*
G37*
G36*
X243697D02*
X241309D01*
X239002Y92249D01*
X236934Y91055D01*
X235245Y89366D01*
X234051Y87298D01*
X233433Y84991D01*
Y82603D01*
X234051Y80296D01*
X235245Y78228D01*
X236934Y76539D01*
X239002Y75345D01*
X241309Y74727D01*
X243697D01*
X246004Y75345D01*
X248072Y76539D01*
X249761Y78228D01*
X250955Y80296D01*
X251573Y82603D01*
Y84991D01*
X250955Y87298D01*
X249761Y89366D01*
X248072Y91055D01*
X246004Y92249D01*
X243697Y92867D01*
D02*
G37*
G36*
X93359Y79784D02*
X91855D01*
X90466Y79208D01*
X89403Y78145D01*
X88827Y76755D01*
Y75252D01*
X89403Y73862D01*
X90466Y72799D01*
X91855Y72224D01*
X93359D01*
X94748Y72799D01*
X95812Y73862D01*
X96387Y75252D01*
Y76755D01*
X95812Y78145D01*
X94748Y79208D01*
X93359Y79784D01*
D02*
G37*
G36*
X74267D02*
X72763D01*
X71374Y79208D01*
X70310Y78145D01*
X69735Y76755D01*
Y75252D01*
X70310Y73862D01*
X71374Y72799D01*
X72763Y72224D01*
X74267D01*
X75656Y72799D01*
X76719Y73862D01*
X77295Y75252D01*
Y76755D01*
X76719Y78145D01*
X75656Y79208D01*
X74267Y79784D01*
D02*
G37*
G36*
X83813Y71208D02*
X82309D01*
X80920Y70633D01*
X79857Y69569D01*
X79281Y68180D01*
Y66676D01*
X79857Y65287D01*
X80920Y64224D01*
X82309Y63648D01*
X83813D01*
X85202Y64224D01*
X86266Y65287D01*
X86841Y66676D01*
Y68180D01*
X86266Y69569D01*
X85202Y70633D01*
X83813Y71208D01*
D02*
G37*
G36*
X93359Y62633D02*
X91855D01*
X90466Y62057D01*
X89403Y60994D01*
X88827Y59605D01*
Y58101D01*
X89403Y56712D01*
X90466Y55648D01*
X91855Y55073D01*
X93359D01*
X94748Y55648D01*
X95812Y56712D01*
X96387Y58101D01*
Y59605D01*
X95812Y60994D01*
X94748Y62057D01*
X93359Y62633D01*
D02*
G37*
G36*
X74267D02*
X72763D01*
X71374Y62057D01*
X70310Y60994D01*
X69735Y59605D01*
Y58101D01*
X70310Y56712D01*
X71374Y55648D01*
X72763Y55073D01*
X74267D01*
X75656Y55648D01*
X76719Y56712D01*
X77295Y58101D01*
Y59605D01*
X76719Y60994D01*
X75656Y62057D01*
X74267Y62633D01*
D02*
G37*
G36*
X83813Y54058D02*
X82309D01*
X80920Y53482D01*
X79857Y52419D01*
X79281Y51030D01*
Y49526D01*
X79857Y48137D01*
X80920Y47073D01*
X82309Y46498D01*
X83813D01*
X85202Y47073D01*
X86266Y48137D01*
X86841Y49526D01*
Y51030D01*
X86266Y52419D01*
X85202Y53482D01*
X83813Y54058D01*
D02*
G37*
G36*
X93359Y45482D02*
X91855D01*
X90466Y44907D01*
X89403Y43843D01*
X88827Y42454D01*
Y40950D01*
X89403Y39561D01*
X90466Y38498D01*
X91855Y37922D01*
X93359D01*
X94748Y38498D01*
X95812Y39561D01*
X96387Y40950D01*
Y42454D01*
X95812Y43843D01*
X94748Y44907D01*
X93359Y45482D01*
D02*
G37*
G36*
X74267D02*
X72763D01*
X71374Y44907D01*
X70310Y43843D01*
X69735Y42454D01*
Y40950D01*
X70310Y39561D01*
X71374Y38498D01*
X72763Y37922D01*
X74267D01*
X75656Y38498D01*
X76719Y39561D01*
X77295Y40950D01*
Y42454D01*
X76719Y43843D01*
X75656Y44907D01*
X74267Y45482D01*
D02*
G37*
G36*
X102905Y36907D02*
X101402D01*
X100012Y36332D01*
X98949Y35268D01*
X98373Y33879D01*
Y32375D01*
X98949Y30986D01*
X100012Y29922D01*
X101402Y29347D01*
X102905D01*
X104295Y29922D01*
X105358Y30986D01*
X105933Y32375D01*
Y33879D01*
X105358Y35268D01*
X104295Y36332D01*
X102905Y36907D01*
D02*
G37*
G36*
X83813D02*
X82309D01*
X80920Y36332D01*
X79857Y35268D01*
X79281Y33879D01*
Y32375D01*
X79857Y30986D01*
X80920Y29922D01*
X82309Y29347D01*
X83813D01*
X85202Y29922D01*
X86266Y30986D01*
X86841Y32375D01*
Y33879D01*
X86266Y35268D01*
X85202Y36332D01*
X83813Y36907D01*
D02*
G37*
G36*
X608697Y45267D02*
X606309D01*
X604002Y44649D01*
X601934Y43455D01*
X600245Y41766D01*
X599051Y39698D01*
X598433Y37391D01*
Y35003D01*
X599051Y32696D01*
X600245Y30628D01*
X601934Y28939D01*
X604002Y27745D01*
X606309Y27127D01*
X608697D01*
X611004Y27745D01*
X613072Y28939D01*
X614761Y30628D01*
X615955Y32696D01*
X616573Y35003D01*
Y37391D01*
X615955Y39698D01*
X614761Y41766D01*
X613072Y43455D01*
X611004Y44649D01*
X608697Y45267D01*
D02*
G37*
G36*
X243697D02*
X241309D01*
X239002Y44649D01*
X236934Y43455D01*
X235245Y41766D01*
X234051Y39698D01*
X233433Y37391D01*
Y35003D01*
X234051Y32696D01*
X235245Y30628D01*
X236934Y28939D01*
X239002Y27745D01*
X241309Y27127D01*
X243697D01*
X246004Y27745D01*
X248072Y28939D01*
X249761Y30628D01*
X250955Y32696D01*
X251573Y35003D01*
Y37391D01*
X250955Y39698D01*
X249761Y41766D01*
X248072Y43455D01*
X246004Y44649D01*
X243697Y45267D01*
D02*
G37*
%LPD*%
G36*
X155959Y294870D02*
X139144D01*
X124502Y280228D01*
X111498Y280223D01*
Y291831D01*
X133353Y313687D01*
X155959D01*
Y294870D01*
D02*
G37*
G36*
X151578Y288197D02*
Y282257D01*
X151607Y282228D01*
X141735D01*
X124414Y264907D01*
X124414Y255267D01*
X165865D01*
Y236725D01*
X127849D01*
Y224758D01*
X111485D01*
X111509Y224782D01*
Y262687D01*
X137019Y288197D01*
X151578Y288197D01*
D02*
G37*
%LPC*%
G36*
X155429Y550642D02*
X153925D01*
X152536Y550067D01*
X151473Y549003D01*
X150897Y547614D01*
Y546110D01*
X151473Y544721D01*
X152536Y543658D01*
X153925Y543082D01*
X155429D01*
X156818Y543658D01*
X157882Y544721D01*
X158457Y546110D01*
Y547614D01*
X157882Y549003D01*
X156818Y550067D01*
X155429Y550642D01*
D02*
G37*
G36*
X144880D02*
X143376D01*
X141987Y550067D01*
X140923Y549003D01*
X140348Y547614D01*
Y546110D01*
X140923Y544721D01*
X141987Y543658D01*
X143376Y543082D01*
X144880D01*
X146269Y543658D01*
X147332Y544721D01*
X147908Y546110D01*
Y547614D01*
X147332Y549003D01*
X146269Y550067D01*
X144880Y550642D01*
D02*
G37*
G36*
X134330D02*
X132827D01*
X131437Y550067D01*
X130374Y549003D01*
X129798Y547614D01*
Y546110D01*
X130374Y544721D01*
X131437Y543658D01*
X132827Y543082D01*
X134330D01*
X135720Y543658D01*
X136783Y544721D01*
X137359Y546110D01*
Y547614D01*
X136783Y549003D01*
X135720Y550067D01*
X134330Y550642D01*
D02*
G37*
G36*
X123781D02*
X122277D01*
X120888Y550067D01*
X119825Y549003D01*
X119249Y547614D01*
Y546110D01*
X119825Y544721D01*
X120888Y543658D01*
X122277Y543082D01*
X123781D01*
X125170Y543658D01*
X126234Y544721D01*
X126809Y546110D01*
Y547614D01*
X126234Y549003D01*
X125170Y550067D01*
X123781Y550642D01*
D02*
G37*
G36*
X68278D02*
X66775D01*
X65385Y550067D01*
X64322Y549003D01*
X63747Y547614D01*
Y546110D01*
X64322Y544721D01*
X65385Y543658D01*
X66775Y543082D01*
X68278D01*
X69668Y543658D01*
X70731Y544721D01*
X71307Y546110D01*
Y547614D01*
X70731Y549003D01*
X69668Y550067D01*
X68278Y550642D01*
D02*
G37*
G36*
X376942D02*
X375438D01*
X374049Y550067D01*
X372986Y549003D01*
X372410Y547614D01*
Y546110D01*
X372986Y544721D01*
X374049Y543658D01*
X375438Y543082D01*
X376942D01*
X378332Y543658D01*
X379395Y544721D01*
X379970Y546110D01*
Y547614D01*
X379395Y549003D01*
X378332Y550067D01*
X376942Y550642D01*
D02*
G37*
G36*
X366393D02*
X364889D01*
X363500Y550067D01*
X362436Y549003D01*
X361861Y547614D01*
Y546110D01*
X362436Y544721D01*
X363500Y543658D01*
X364889Y543082D01*
X366393D01*
X367782Y543658D01*
X368846Y544721D01*
X369421Y546110D01*
Y547614D01*
X368846Y549003D01*
X367782Y550067D01*
X366393Y550642D01*
D02*
G37*
G36*
X355844D02*
X354340D01*
X352951Y550067D01*
X351887Y549003D01*
X351312Y547614D01*
Y546110D01*
X351887Y544721D01*
X352951Y543658D01*
X354340Y543082D01*
X355844D01*
X357233Y543658D01*
X358296Y544721D01*
X358872Y546110D01*
Y547614D01*
X358296Y549003D01*
X357233Y550067D01*
X355844Y550642D01*
D02*
G37*
G36*
X271460D02*
X269956D01*
X268567Y550067D01*
X267504Y549003D01*
X266928Y547614D01*
Y546110D01*
X267504Y544721D01*
X268567Y543658D01*
X269956Y543082D01*
X271460D01*
X272850Y543658D01*
X273913Y544721D01*
X274488Y546110D01*
Y547614D01*
X273913Y549003D01*
X272850Y550067D01*
X271460Y550642D01*
D02*
G37*
G36*
X260911D02*
X259407D01*
X258018Y550067D01*
X256954Y549003D01*
X256379Y547614D01*
Y546110D01*
X256954Y544721D01*
X258018Y543658D01*
X259407Y543082D01*
X260911D01*
X262300Y543658D01*
X263364Y544721D01*
X263939Y546110D01*
Y547614D01*
X263364Y549003D01*
X262300Y550067D01*
X260911Y550642D01*
D02*
G37*
G36*
X250362D02*
X248858D01*
X247469Y550067D01*
X246405Y549003D01*
X245830Y547614D01*
Y546110D01*
X246405Y544721D01*
X247469Y543658D01*
X248858Y543082D01*
X250362D01*
X251751Y543658D01*
X252814Y544721D01*
X253390Y546110D01*
Y547614D01*
X252814Y549003D01*
X251751Y550067D01*
X250362Y550642D01*
D02*
G37*
G36*
X239812D02*
X238309D01*
X236919Y550067D01*
X235856Y549003D01*
X235280Y547614D01*
Y546110D01*
X235856Y544721D01*
X236919Y543658D01*
X238309Y543082D01*
X239812D01*
X241202Y543658D01*
X242265Y544721D01*
X242840Y546110D01*
Y547614D01*
X242265Y549003D01*
X241202Y550067D01*
X239812Y550642D01*
D02*
G37*
G36*
X317379Y440514D02*
X305819D01*
Y429954D01*
X317379D01*
Y440514D01*
D02*
G37*
G36*
X298842D02*
X287282D01*
Y429954D01*
X298842D01*
Y440514D01*
D02*
G37*
G36*
X280305Y440512D02*
X268745D01*
Y429952D01*
X280305D01*
Y440512D01*
D02*
G37*
G36*
X261768D02*
X250208D01*
Y429952D01*
X261768D01*
Y440512D01*
D02*
G37*
G36*
X531783Y101777D02*
X518223D01*
Y66217D01*
X531783D01*
Y101777D01*
D02*
G37*
G36*
X511783D02*
X498223D01*
Y66217D01*
X511783D01*
Y101777D01*
D02*
G37*
%LPD*%
D10*
X188790Y438267D02*
X195355D01*
X174880Y435383D02*
X185906D01*
X188790Y438267D01*
X171162Y437664D02*
Y438164D01*
Y437664D02*
X173392Y435434D01*
X174829D01*
X174880Y435383D01*
X301122Y139064D02*
X674420D01*
X686101Y150745D01*
X265003Y102945D02*
X301122Y139064D01*
X140779Y668196D02*
X148488Y660487D01*
X365967D02*
X426032Y600421D01*
X148488Y660487D02*
X365967D01*
X176311Y665957D02*
X379569D01*
X436899Y608627D01*
Y565413D02*
Y608627D01*
X498067Y655287D02*
X519941Y677161D01*
X498067Y472634D02*
Y655287D01*
Y472634D02*
X514867Y455834D01*
X508923Y268370D02*
X523141Y254151D01*
Y254128D02*
Y254151D01*
X508923Y268370D02*
Y268393D01*
X206776Y464910D02*
Y468495D01*
X206714Y468557D02*
Y479378D01*
X196378Y489714D02*
X206714Y479378D01*
Y468557D02*
X206776Y468495D01*
X126109Y458267D02*
X195355D01*
X79886Y504489D02*
Y513036D01*
Y504489D02*
X126109Y458267D01*
X80383Y495992D02*
X129454Y446921D01*
X165251D01*
X166597Y448267D01*
X195355D01*
X103794Y570872D02*
X152146D01*
X54544Y521623D02*
X103794Y570872D01*
X59206Y542373D02*
X63132Y538447D01*
Y538082D02*
Y538447D01*
X59206Y542373D02*
Y553823D01*
X86617Y581234D01*
Y585721D01*
X107809Y563324D02*
X107876Y563391D01*
X107809Y535826D02*
Y563324D01*
Y535826D02*
X130319Y513317D01*
X180610Y538303D02*
X181005D01*
X181735Y539033D01*
X181790D01*
X202187Y559430D02*
Y590293D01*
X181790Y539033D02*
X202187Y559430D01*
X221116Y571324D02*
X276454D01*
X175198Y533031D02*
X182823D01*
X221116Y571324D01*
X137872Y489714D02*
X196378D01*
X301839Y549753D02*
Y639889D01*
X289728Y652000D02*
X301839Y639889D01*
X301831Y549745D02*
X301839Y549753D01*
X296103Y538251D02*
X301831Y543979D01*
Y549745D01*
X341947Y570451D02*
X342227Y570171D01*
X292649Y531834D02*
X297508D01*
X336124Y570451D01*
X341947D01*
X342227Y570171D02*
X371389D01*
X665413Y348470D02*
Y383952D01*
X656660Y339718D02*
X665413Y348470D01*
X552704Y339718D02*
X656660D01*
X532326Y455834D02*
X536705Y460213D01*
X514867Y455834D02*
X532326D01*
X571855Y469389D02*
X576112Y473646D01*
X568561Y466096D02*
X568897D01*
X466537Y402841D02*
X514341Y450644D01*
X553110D01*
X568561Y466096D01*
X568897D02*
X571855Y469054D01*
Y469389D01*
X519566Y466595D02*
X544994D01*
X553140Y466774D02*
X560091Y473725D01*
X545027Y466561D02*
X549211D01*
X536705Y460213D02*
Y466341D01*
X549245Y466595D02*
X552961D01*
X544994D02*
X545027Y466561D01*
X549211D02*
X549245Y466595D01*
X512648Y473513D02*
X519566Y466595D01*
X438226Y407661D02*
X438622D01*
X491840Y460879D01*
X385008Y354443D02*
X438226Y407661D01*
X491840Y461973D02*
X496635Y466769D01*
X491840Y460879D02*
Y461973D01*
X486074Y429721D02*
Y429722D01*
X466169Y409815D02*
Y409816D01*
X486074Y429721D01*
X660586Y304754D02*
X673837Y318005D01*
X499365Y304754D02*
X660586D01*
X499281Y304669D02*
X499365Y304754D01*
X508398Y328642D02*
X508577Y328821D01*
X526418D01*
X316870Y462785D02*
X344955Y434699D01*
X283721Y462785D02*
X316870D01*
X344955Y410629D02*
Y434699D01*
X672996Y477338D02*
Y633844D01*
X653901Y469643D02*
X665301D01*
X672996Y477338D01*
X502525Y475164D02*
Y634019D01*
X516175Y461515D02*
X528831D01*
X502525Y475164D02*
X516175Y461515D01*
X385008Y349047D02*
Y354443D01*
X381664Y345703D02*
X385008Y349047D01*
X318456Y371628D02*
Y385950D01*
X316245Y388161D02*
Y388556D01*
Y388161D02*
X318456Y385950D01*
X585003Y72228D02*
X585151D01*
X584234D02*
X585003D01*
X314754Y17871D02*
Y108160D01*
X269674Y16383D02*
X313266D01*
X268186Y17871D02*
Y32814D01*
X265003Y35997D02*
X268186Y32814D01*
Y17871D02*
X269674Y16383D01*
X313266D02*
X314754Y17871D01*
X526418Y328821D02*
X533822Y321417D01*
X650062D02*
X670147Y341502D01*
X533822Y321417D02*
X650062D01*
X293062Y453680D02*
X311600D01*
X286857D02*
X293062D01*
X284005Y451223D02*
X284400D01*
X286857Y453680D01*
X440103Y466519D02*
X463042Y489458D01*
X430591Y466519D02*
X440103D01*
X426032Y564568D02*
X458598Y532002D01*
Y512952D02*
X463042Y508508D01*
X458598Y512952D02*
Y532002D01*
X426032Y564568D02*
Y600421D01*
X463042Y489458D02*
Y508508D01*
X476641Y490611D02*
Y525671D01*
X436899Y565413D02*
X476641Y525671D01*
X440690Y454660D02*
X476641Y490611D01*
X152388Y689879D02*
X176311Y665957D01*
X152388Y689879D02*
Y732802D01*
X140573Y744617D02*
X152388Y732802D01*
X431038Y454660D02*
X440690D01*
X492454Y513284D02*
Y517632D01*
X455933Y554153D02*
Y565909D01*
Y554153D02*
X492454Y517632D01*
X250310Y484856D02*
X414721D01*
X421034Y491168D01*
X665413Y383952D02*
X679835Y398375D01*
X670147Y341502D02*
Y369151D01*
X538628Y353794D02*
X552704Y339718D01*
X522046Y353794D02*
X538628D01*
X507973Y339721D02*
X522046Y353794D01*
X524975Y432625D02*
Y433041D01*
X525254Y433321D01*
X152146Y570872D02*
X158039D01*
X152146D02*
X152825Y571551D01*
Y581997D01*
X349785Y499003D02*
X388519D01*
X335050Y513739D02*
X349785Y499003D01*
X388519D02*
X410975Y521459D01*
X390753Y493362D02*
X413625Y516235D01*
X348011Y493362D02*
X390753D01*
X325138Y516235D02*
X348011Y493362D01*
X103122Y513739D02*
X116083Y500778D01*
X161341D02*
X182844Y522281D01*
X116083Y500778D02*
X161341D01*
X159418Y505854D02*
X179986Y526422D01*
X98245Y526518D02*
X118909Y505854D01*
X159418D01*
X182844Y522281D02*
X210460D01*
X113310Y495727D02*
X164161D01*
X186622Y518188D02*
X206889D01*
X164161Y495727D02*
X186622Y518188D01*
X297680Y521251D02*
X327521D01*
X335033Y513739D01*
X277103Y500673D02*
X297680Y521251D01*
X300743Y516235D02*
X325138D01*
X279686Y495178D02*
X300743Y516235D01*
X230164Y495178D02*
X279686D01*
X209107Y516235D02*
X230164Y495178D01*
X232219Y500673D02*
X277103D01*
X219153Y513739D02*
X232219Y500673D01*
X235485Y505309D02*
X274905D01*
X296017Y526422D01*
X214373D02*
X235485Y505309D01*
X244585Y479131D02*
X250310Y484856D01*
X391857Y541497D02*
X395417Y537937D01*
X391857Y541497D02*
Y549703D01*
X371389Y570171D02*
X391857Y549703D01*
X395417Y537937D02*
X403387D01*
X286769Y537715D02*
X292649Y531834D01*
X276454Y571324D02*
X286769Y561009D01*
X170724Y537505D02*
Y558187D01*
X158039Y570872D02*
X170724Y558187D01*
X286769Y537715D02*
Y561009D01*
X170724Y537505D02*
X175198Y533031D01*
X213423Y411977D02*
X222504D01*
X213422Y411976D02*
X213423Y411977D01*
X231939Y327660D02*
X323605D01*
X222504Y337095D02*
Y396970D01*
Y337095D02*
X231939Y327660D01*
X244585Y419051D02*
Y443164D01*
X222504Y396970D02*
X244585Y419051D01*
X323605Y327660D02*
X329018Y322247D01*
Y314421D02*
Y322247D01*
X216898Y464809D02*
Y484881D01*
X193401Y508378D02*
X216898Y484881D01*
X242456Y453267D02*
X244585Y455396D01*
Y479131D01*
X233403Y453267D02*
X242456D01*
X245913Y490466D02*
X298095D01*
X315181Y507552D01*
X226879Y471432D02*
X245913Y490466D01*
X236157Y465652D02*
X236261Y465756D01*
X236157Y458370D02*
Y465652D01*
X233403Y458267D02*
X236054D01*
X236157Y458370D01*
X223838Y477408D02*
Y477803D01*
X221879Y475449D02*
X223838Y477408D01*
X221879Y464791D02*
Y475449D01*
X233506Y448164D02*
X239585D01*
X233403Y448267D02*
X233506Y448164D01*
X239585D02*
X244585Y443164D01*
X226879Y464791D02*
Y471432D01*
X211764Y476057D02*
X211821Y475999D01*
Y464848D02*
X211879Y464791D01*
X211821Y464848D02*
Y475999D01*
X216879Y464791D02*
X216898Y464809D01*
X195252Y443164D02*
X195355Y443267D01*
X184785Y443164D02*
X195252D01*
X184658Y443037D02*
X184785Y443164D01*
X73727Y494647D02*
X140896Y427479D01*
X73727Y494647D02*
Y514568D01*
X153226Y438833D02*
X153894Y438165D01*
X142797Y438833D02*
X153226D01*
X163253Y453176D02*
X195264D01*
X163162Y453085D02*
X163253Y453176D01*
X195264D02*
X195355Y453267D01*
X524095Y185695D02*
X665858D01*
X448831Y260958D02*
X524095Y185695D01*
X375563Y260958D02*
X448831D01*
X386987Y266222D02*
X450274D01*
X526761Y189735D02*
X678233D01*
X450274Y266222D02*
X526761Y189735D01*
X530287Y193775D02*
X670963D01*
X452549Y271513D02*
X530287Y193775D01*
X396390Y271513D02*
X452549D01*
X813906Y243634D02*
X814602Y244331D01*
Y263390D01*
Y284904D02*
Y303022D01*
X814179Y284481D02*
X814602Y284904D01*
Y323918D02*
Y343358D01*
X814142Y323457D02*
X814602Y323918D01*
Y363898D02*
Y383342D01*
X814179Y363475D02*
X814602Y363898D01*
Y403885D02*
Y423326D01*
X814142Y403425D02*
X814602Y403885D01*
Y443869D02*
Y463310D01*
X814142Y443409D02*
X814602Y443869D01*
X514562Y444004D02*
X788311D01*
X788457Y444150D02*
X796402D01*
X788311Y444004D02*
X788457Y444150D01*
X796402D02*
X797142Y443409D01*
X797006Y284308D02*
X797179Y284481D01*
X788470Y284308D02*
X797006D01*
X790258Y249783D02*
X796406Y243634D01*
X789567Y250062D02*
X789847Y249783D01*
X796406Y243634D02*
X796906D01*
X789847Y249783D02*
X790258D01*
X797142Y323457D02*
X797642D01*
X805663Y331478D02*
Y332207D01*
X797642Y323457D02*
X805663Y331478D01*
Y332207D02*
X805942Y332486D01*
X459997Y389439D02*
X514562Y444004D01*
X459997Y333591D02*
Y389439D01*
X436194Y309788D02*
X459997Y333591D01*
X788540Y403425D02*
X797142D01*
X753498Y438468D02*
X788540Y403425D01*
X517037Y438468D02*
X753498D01*
X464569Y385999D02*
X517037Y438468D01*
X464569Y330590D02*
Y385999D01*
X431542Y297564D02*
X464569Y330590D01*
X788579Y363475D02*
X797179D01*
X195263Y411977D02*
Y427479D01*
X140896D02*
X195263D01*
Y433175D01*
X85678Y526518D02*
X98245D01*
X73727Y514568D02*
X85678Y526518D01*
X79886Y513036D02*
X88950Y522099D01*
X93076Y515960D02*
Y516235D01*
X88950Y522099D02*
X94866D01*
X195263Y433175D02*
X195355Y433267D01*
X94866Y522099D02*
X102987Y513979D01*
Y513739D02*
Y513979D01*
X504447Y320545D02*
X504577Y320415D01*
X521502D01*
X521632Y320284D01*
X442471Y402841D02*
X466537D01*
X670147Y369151D02*
X682755Y381759D01*
X686449D01*
X692050Y371802D02*
X692330Y371522D01*
X695407D01*
X716590Y350340D01*
X571799Y411985D02*
X678004D01*
X508740Y348926D02*
X571799Y411985D01*
X678004D02*
X681288Y415269D01*
X681683D01*
X516857Y362756D02*
X579040Y424939D01*
X507973Y362756D02*
X516857D01*
X579040Y424939D02*
X653545D01*
X679835Y398375D02*
X680044D01*
X675197Y365665D02*
X675363Y365831D01*
X693601D01*
X711182Y348250D01*
X678233Y189735D02*
X678282Y189784D01*
X663165Y164895D02*
Y175333D01*
X669958Y145044D02*
Y158102D01*
X663165Y164895D02*
X669958Y158102D01*
X665858Y185695D02*
X676520Y175032D01*
X386946Y266263D02*
X386987Y266222D01*
X548733Y67139D02*
Y80267D01*
X545003Y83997D02*
X548733Y80267D01*
Y67139D02*
X552032Y63840D01*
X571084D01*
X575245Y68001D01*
X372308Y104060D02*
X379756D01*
X380966Y105271D01*
X370787Y105581D02*
X372308Y104060D01*
X380966Y105271D02*
X474633D01*
X481273Y87727D02*
Y98727D01*
X474633Y105271D02*
X481177Y98727D01*
X481273D01*
Y87727D02*
X485003Y83997D01*
X581273Y57637D02*
X581273Y57637D01*
Y69267D01*
X488541Y57637D02*
X581273D01*
X581273Y69267D02*
X584234Y72228D01*
X445003Y35997D02*
X465003D01*
X405003D02*
X445003D01*
X385003D02*
X405003D01*
X445003Y83997D02*
X465003D01*
X405003D02*
X445003D01*
X385003D02*
X405003D01*
X345215Y296106D02*
X346390Y297282D01*
X328861Y296106D02*
X345215D01*
X346390Y297282D02*
Y297976D01*
X346564Y298151D01*
X360833Y105581D02*
X370787D01*
X353201Y104060D02*
X359312D01*
X360833Y105581D01*
X351681D02*
X353201Y104060D01*
X343641Y105581D02*
X351681D01*
X342120Y104060D02*
X343641Y105581D01*
X334066Y104060D02*
X342120D01*
X325003Y94997D02*
X334066Y104060D01*
X325003Y81997D02*
Y94997D01*
X485003Y61175D02*
X488541Y57637D01*
X485003Y61175D02*
Y83997D01*
X311951Y134486D02*
X678134D01*
X284737Y107272D02*
X311951Y134486D01*
X284737Y84263D02*
X285003Y83997D01*
X284737Y84263D02*
Y107272D01*
X265003Y83997D02*
Y102945D01*
X329782Y123188D02*
X683767D01*
X572284Y117278D02*
X685339D01*
X565003Y83997D02*
Y109997D01*
X572284Y117278D01*
X320828Y128608D02*
X680276D01*
X580200Y111815D02*
X688133D01*
X716590Y140271D02*
Y350340D01*
X688133Y111815D02*
X716590Y140271D01*
X575245Y106860D02*
X580200Y111815D01*
X575245Y68001D02*
Y106860D01*
X314754Y108160D02*
X329782Y123188D01*
X285003Y35997D02*
Y46997D01*
X295332Y57326D01*
Y103113D01*
X320828Y128608D01*
X660891Y252518D02*
X690810D01*
X698345Y244983D01*
Y146677D02*
Y244983D01*
X680276Y128608D02*
X698345Y146677D01*
X683767Y123188D02*
X704800Y144221D01*
Y258594D01*
X692718Y270676D02*
X704800Y258594D01*
X660892Y270676D02*
X692718D01*
X711182Y143121D02*
Y348250D01*
X685339Y117278D02*
X711182Y143121D01*
X660890Y222388D02*
X679726D01*
X686101Y216013D01*
Y150745D02*
Y216013D01*
X660891Y240546D02*
X684204D01*
X692101Y232650D01*
Y148452D02*
Y232650D01*
X678134Y134486D02*
X692101Y148452D01*
X204244Y224578D02*
Y233976D01*
Y224578D02*
X204255Y224567D01*
X640514Y629916D02*
X641014D01*
X650157Y620773D01*
X650243D01*
X631257Y470777D02*
X631334D01*
X640012Y479456D01*
X640512D01*
X499887Y404607D02*
Y404901D01*
Y404607D02*
X507333Y397161D01*
X530867Y629916D02*
X531367D01*
X539872Y621411D01*
Y621030D02*
Y621411D01*
X622154Y455419D02*
X665287D01*
X598173D02*
X622154D01*
X622154Y455419D02*
X622154Y455419D01*
X622154Y455419D02*
Y479835D01*
X576112Y484702D02*
X580032Y488622D01*
X632389D01*
X576112Y473646D02*
Y484702D01*
X390253Y405166D02*
X390297Y405122D01*
X255651Y405166D02*
X390253D01*
X275006Y400030D02*
X275030Y400054D01*
X370681D01*
X370704Y400078D01*
X229604Y359447D02*
X356611D01*
X393005Y395841D01*
X378312Y574710D02*
X398122Y554899D01*
X411026D02*
X414767Y551158D01*
X398122Y554899D02*
X411026D01*
X414767Y538255D02*
Y551158D01*
X670963Y193775D02*
X680626Y203438D01*
X381046Y345703D02*
X381664D01*
X655417Y651424D02*
X672996Y633844D01*
X600786Y651424D02*
X655417D01*
X658221Y631090D02*
X659774Y629537D01*
X658221Y631090D02*
Y635859D01*
X655019Y639061D02*
X658221Y635859D01*
X608088Y639061D02*
X655019D01*
X604887Y635859D02*
X608088Y639061D01*
X604695Y629537D02*
X604887Y629728D01*
Y635859D01*
X553324Y639725D02*
X569569D01*
X549226Y629537D02*
X549458Y629770D01*
Y635859D02*
X553324Y639725D01*
X549458Y629770D02*
Y635859D01*
X569763Y639607D02*
X583970D01*
X585945Y629537D02*
Y637632D01*
X583970Y639607D02*
X585945Y637632D01*
X606213Y497994D02*
X622155D01*
X612538Y498798D02*
X612715Y498975D01*
Y526219D01*
X604694Y496475D02*
X606213Y497994D01*
X637797Y513116D02*
Y525901D01*
Y500331D02*
Y513116D01*
X626903D02*
X637797D01*
X625415Y514604D02*
Y526219D01*
Y514604D02*
X626903Y513116D01*
X637797Y525901D02*
X638115Y526219D01*
X637797Y500331D02*
X640513Y497615D01*
X358696Y650954D02*
X378312Y631338D01*
X330503Y650954D02*
X358696D01*
X378312Y574710D02*
Y631338D01*
X95951Y595055D02*
X170634D01*
X178533Y602955D02*
Y630541D01*
X170634Y595055D02*
X178533Y602955D01*
X86617Y585721D02*
X95951Y595055D01*
X244858Y632964D02*
X250193Y638299D01*
X202187Y590293D02*
X208156Y596262D01*
X239652D02*
X244858Y601468D01*
X208156Y596262D02*
X239652D01*
X244858Y601468D02*
Y632964D01*
X210062Y647222D02*
Y653869D01*
X200885Y638045D02*
X210062Y647222D01*
X186037Y638045D02*
X200885D01*
X178533Y630541D02*
X186037Y638045D01*
X250193Y638299D02*
Y652523D01*
X93076Y515960D02*
X113310Y495727D01*
X642623Y676399D02*
X680098Y638924D01*
X665287Y455419D02*
X680098Y470229D01*
Y638924D01*
X585435Y468157D02*
X598173Y455419D01*
X398956Y359326D02*
X442471Y402841D01*
X398956Y345775D02*
Y359326D01*
X344935Y410609D02*
X344955Y410629D01*
X339685Y417515D02*
Y430530D01*
X339516Y417347D02*
X339685Y417515D01*
X264396Y395068D02*
X264494Y394971D01*
X360642D01*
X360740Y394873D01*
X325141Y445074D02*
X339685Y430530D01*
X316968Y370140D02*
X318456Y371628D01*
X309341Y370140D02*
X316968D01*
X457025Y410415D02*
X457279D01*
X487804Y440941D01*
X488057D01*
X461750Y423454D02*
X479236Y440940D01*
X461750Y423360D02*
Y423454D01*
X479236Y440940D02*
Y441034D01*
X363834Y345817D02*
X364334D01*
X378858Y355039D02*
X485232Y461413D01*
X364334Y345817D02*
X373556Y355039D01*
X378858D01*
X398956Y345775D02*
X399179D01*
X310700Y313282D02*
Y317982D01*
X517324Y393513D02*
Y393931D01*
X507333Y397161D02*
X514095D01*
X517324Y393931D01*
X508511Y409001D02*
X517339D01*
X585435Y468157D02*
Y479835D01*
X585161Y479561D02*
X585435Y479835D01*
X621136Y611378D02*
X622155Y612397D01*
X604694Y611378D02*
X621136D01*
X600015Y607199D02*
X604194Y611378D01*
X604694D01*
X600015Y582719D02*
Y607199D01*
X559375Y514411D02*
Y526219D01*
X531366Y497615D02*
X546675Y512923D01*
X557887D02*
X559375Y514411D01*
X546675Y512923D02*
X557887D01*
X546675D02*
Y526219D01*
X530866Y497615D02*
X531366D01*
X549968Y497218D02*
X565910D01*
X549225Y496475D02*
X549968Y497218D01*
X565910D02*
X566685Y497994D01*
Y505973D02*
X572075Y511362D01*
X566685Y497994D02*
Y505973D01*
X572075Y511362D02*
Y526219D01*
X528831Y471647D02*
Y477422D01*
X530865Y479456D01*
X511605Y479835D02*
X512648Y478792D01*
Y473513D02*
Y478792D01*
X560091Y473742D02*
X566184Y479835D01*
X566684D01*
X560091Y473725D02*
Y473742D01*
X502525Y634019D02*
X520003Y651497D01*
X600459Y676399D02*
X642623D01*
X511607Y595601D02*
X511607Y595601D01*
X612715Y595282D02*
X615377Y597944D01*
X626201D01*
X612715Y582719D02*
Y595282D01*
X625415Y597158D02*
X640013Y611757D01*
X640513D01*
X625415Y582719D02*
Y597158D01*
X533975Y599240D02*
Y609027D01*
Y599240D02*
X545187D01*
X546675Y582719D02*
Y597752D01*
X533975Y582719D02*
Y599240D01*
X545187D02*
X546675Y597752D01*
X531245Y611757D02*
X533975Y609027D01*
X530866Y611757D02*
X531245D01*
X550243Y612397D02*
X559375D01*
Y582719D02*
Y611619D01*
X560153Y612397D02*
X566685D01*
X559375Y611619D02*
X560153Y612397D01*
X549225Y611378D02*
X550243Y612397D01*
X367991Y513317D02*
X378841D01*
X339855Y541452D02*
Y565401D01*
Y541452D02*
X367991Y513317D01*
X224031Y540001D02*
X250340Y513692D01*
X224031Y540001D02*
Y566163D01*
X250340Y513692D02*
X262710D01*
X130319Y513317D02*
X146278D01*
X406115Y525523D02*
X440883D01*
X384627Y504035D02*
X406115Y525523D01*
X352791Y504035D02*
X384627D01*
X410975Y521459D02*
X433948D01*
X413625Y516235D02*
X424701D01*
X256325Y472127D02*
Y479015D01*
X311915Y472153D02*
Y479041D01*
X274863Y472127D02*
Y479015D01*
X274548Y471813D02*
X274863Y472127D01*
X293400Y472177D02*
Y479015D01*
X311601Y471838D02*
X311915Y472153D01*
X256011Y471813D02*
X256325Y472127D01*
X293061Y471838D02*
X293400Y472177D01*
X188627Y262556D02*
X188797Y262386D01*
X213529D01*
X217427Y266284D01*
X213998Y285255D02*
X217427Y281826D01*
X203381Y285255D02*
X213998D01*
X217427Y266284D02*
Y281826D01*
X285063Y369480D02*
Y385972D01*
X497335Y315211D02*
X654076D01*
X504447Y310131D02*
X657641D01*
X673837Y318005D02*
X687299D01*
X657641Y310131D02*
X686851Y339341D01*
X660700Y270484D02*
X660892Y270676D01*
X660700Y266554D02*
Y270484D01*
X654076Y315211D02*
X686537Y347672D01*
X660890Y222388D02*
Y227467D01*
X686537Y347672D02*
Y360599D01*
X80251Y366764D02*
Y368469D01*
X80295Y368512D01*
X163487Y392983D02*
Y408728D01*
X158386Y413829D02*
X163487Y408728D01*
X155881Y385377D02*
X163487Y392983D01*
X155881Y357871D02*
Y385377D01*
X149643Y351511D02*
Y387809D01*
X157833Y395999D01*
X80251Y452870D02*
Y453573D01*
X265350Y445074D02*
X325141D01*
X440999Y499936D02*
X452253D01*
X456467Y495722D01*
X424701Y516235D02*
X440999Y499936D01*
X347558Y509267D02*
X352791Y504035D01*
X208842Y516235D02*
X209107D01*
X206889Y518188D02*
X208842Y516235D01*
X219001Y513739D02*
X219018D01*
X210460Y522281D02*
X219001Y513739D01*
X179986Y526422D02*
X214373D01*
X330404D02*
X347558Y509267D01*
X296017Y526422D02*
X330404D01*
X433948Y521459D02*
X446191Y509216D01*
X440883Y525523D02*
X451556Y514849D01*
Y514849D02*
Y514849D01*
X335033Y513739D02*
X335050D01*
X311598Y435878D02*
X311601Y435880D01*
Y436502D01*
X364265Y297282D02*
X367495Y294052D01*
X363834Y297282D02*
X364265D01*
X367495Y293918D02*
Y294052D01*
X329761Y281102D02*
X346390D01*
D12*
X256635D02*
Y289921D01*
Y265102D02*
X275172D01*
X90649Y256331D02*
Y262523D01*
X92967D01*
X75529D02*
X90649D01*
X92967D02*
X93003Y262560D01*
X346890Y265102D02*
X349485Y262507D01*
Y262007D02*
Y262507D01*
X346390Y265102D02*
X346890D01*
X349485Y262007D02*
X438264Y173228D01*
X455422D01*
X524606Y513517D02*
X524838Y513284D01*
X524889D01*
X238765Y718336D02*
X246888D01*
X238774Y698509D02*
X246879D01*
X246888Y698500D01*
X238765Y698518D02*
X238774Y698509D01*
X142692Y155584D02*
X142729Y155548D01*
X144049D01*
X154600Y144997D02*
X455432D01*
X144049Y155548D02*
X154600Y144997D01*
X108655Y155584D02*
X142692D01*
X472622Y172737D02*
X517792D01*
X523614Y178559D01*
X537985Y338364D02*
X545860Y330489D01*
X557707D01*
X524318Y338364D02*
X537985D01*
X475133Y291084D02*
X482726Y283490D01*
X475133Y275897D02*
X482726Y283490D01*
X490222Y275995D01*
X475133Y291084D02*
Y388735D01*
X490222Y275995D02*
X535843D01*
X515560Y422958D02*
X517215Y424614D01*
X517339Y424490D02*
X519934Y427085D01*
X475133Y388735D02*
X509356Y422958D01*
X515560D01*
X519934Y427085D02*
Y428036D01*
X525219Y433321D01*
X346890Y265102D02*
X356471D01*
X346390D02*
X346890D01*
X37632Y277948D02*
X113042Y353358D01*
X37632Y226607D02*
Y277948D01*
X113042Y353358D02*
X132399D01*
X37632Y226607D02*
X108655Y155584D01*
X132383Y353373D02*
X132399Y353358D01*
X132383Y353373D02*
Y404771D01*
X535843Y266629D02*
Y275995D01*
Y239645D02*
Y266629D01*
X523900Y266665D02*
X535807D01*
X535843Y266629D01*
X523614Y227416D02*
X535843Y239645D01*
Y275995D02*
X559516Y299667D01*
X523614Y218698D02*
Y227416D01*
X559516Y299667D02*
X559803D01*
X523864Y266629D02*
X523900Y266665D01*
X62002Y366855D02*
X62092Y366765D01*
X62108Y444179D02*
Y452855D01*
X62092Y359599D02*
Y366765D01*
X495300Y144780D02*
X495315Y144795D01*
X567191D02*
X567206Y144810D01*
X495315Y144795D02*
X567191D01*
X60709Y219038D02*
Y286007D01*
X90635Y189203D02*
Y189239D01*
X90544Y189203D02*
X101478D01*
X60709Y219038D02*
X90508Y189239D01*
X90635D01*
X60709Y286007D02*
X93472Y318770D01*
X255987Y453301D02*
X258082Y455396D01*
X262972D01*
X265128Y457552D01*
X265180D01*
X80893Y464091D02*
Y468632D01*
X80391Y469134D02*
X80893Y468632D01*
Y464091D02*
X80929Y464055D01*
X62002Y366855D02*
Y386223D01*
X80530Y380389D02*
Y385853D01*
X80161Y386222D02*
X80530Y385853D01*
Y380389D02*
X80566Y380353D01*
X62092Y468995D02*
X62232Y469135D01*
X62092Y452871D02*
Y468995D01*
Y452871D02*
X62108Y452855D01*
X205735Y697094D02*
X205849Y697207D01*
X221455D01*
X222765Y698518D01*
Y718336D02*
Y718642D01*
X205735Y721236D02*
X220170D01*
X222765Y718642D01*
X329556Y256489D02*
Y256540D01*
X329718Y256702D01*
Y265059D01*
X329761Y265102D01*
X325003Y79499D02*
Y81997D01*
X204255Y224567D02*
X213151D01*
X195359D02*
X204255D01*
X533339Y409001D02*
X533339Y409001D01*
X533339Y409001D02*
Y424490D01*
X160674Y225997D02*
X160674Y225996D01*
Y221298D02*
Y225996D01*
Y221298D02*
X160675Y221297D01*
X142881Y216151D02*
Y225997D01*
X173677Y262556D02*
X178079Y258154D01*
Y242385D02*
Y258154D01*
X149113Y262556D02*
X173677D01*
X146881Y264788D02*
X149113Y262556D01*
X146881Y264788D02*
Y272555D01*
X522658Y554017D02*
Y560327D01*
Y528451D02*
Y554017D01*
X647982D02*
X648884Y554920D01*
X648936D01*
X522658Y554017D02*
X647982D01*
X511607Y562559D02*
X520426D01*
X522658Y560327D01*
X524889Y526219D02*
X533975D01*
X522658Y528451D02*
X524889Y526219D01*
X648936Y554920D02*
Y580487D01*
X638115Y582719D02*
X646704D01*
X648936Y580487D01*
X648864Y548668D02*
Y554797D01*
Y548668D02*
X651096Y546436D01*
X659773D01*
X659484Y529744D02*
Y546147D01*
Y529744D02*
X659773Y529455D01*
X659484Y546147D02*
X659773Y546436D01*
X511607Y562559D02*
Y579601D01*
X62092Y359599D02*
X62233Y359458D01*
Y359407D02*
Y359458D01*
X62108Y444179D02*
X62124Y444163D01*
X659773Y513455D02*
X659773Y513455D01*
X659773Y496475D02*
Y513455D01*
X275172Y281102D02*
X275299Y281228D01*
Y296907D02*
X275425Y297034D01*
X275299Y281228D02*
Y296907D01*
X257925Y313034D02*
X273925Y297034D01*
X275425D01*
X238957Y313282D02*
X256387D01*
X238704Y256283D02*
Y265102D01*
X291909Y256283D02*
Y265102D01*
X310419Y256311D02*
Y265074D01*
X310391Y256283D02*
X310419Y256311D01*
Y265074D02*
X310447Y265102D01*
X309734Y385972D02*
X313312Y382394D01*
Y382239D02*
X313348Y382203D01*
X313312Y382239D02*
Y382394D01*
X407383Y321851D02*
X407419Y321815D01*
X398721Y329817D02*
X399221D01*
X275549Y313158D02*
X310575D01*
X310700Y317982D02*
Y320047D01*
X301063Y385972D02*
X309734D01*
X309304Y370104D02*
X309341Y370140D01*
X301063Y369480D02*
X301688Y370104D01*
X309304D01*
X547155Y471647D02*
Y478405D01*
X547119Y471611D02*
X547155Y471647D01*
Y478405D02*
X549225Y480475D01*
X511607Y612397D02*
X511607Y612397D01*
X511607Y595601D02*
Y612397D01*
Y529517D02*
Y546559D01*
X659773Y562436D02*
Y579416D01*
X178079Y242385D02*
X178467Y241997D01*
X73003Y259997D02*
X75529Y262523D01*
X90649Y256331D02*
X93003Y253977D01*
X178467Y241997D02*
X178832Y242361D01*
X194995D01*
X195360Y242726D01*
X93003Y278997D02*
Y287017D01*
X73003Y278997D02*
X93003D01*
X90954Y235458D02*
Y252928D01*
X88493Y232996D02*
X90954Y235458D01*
Y252928D02*
X92003Y253977D01*
X93003D01*
X292036Y281228D02*
Y297155D01*
X292162Y297282D01*
X238704Y281102D02*
X238830D01*
Y297155D01*
X238957Y297282D01*
X310447Y281102D02*
X310573D01*
Y297155D01*
X310700Y297282D01*
X291909Y281102D02*
X292036Y281228D01*
X310575Y313158D02*
X310700Y313282D01*
X275425Y313034D02*
X275549Y313158D01*
D23*
X144881Y427479D02*
G03*
X144881Y427479I-2000J0D01*
G01*
X139131Y458267D02*
G03*
X139131Y458267I-2000J0D01*
G01*
X151573Y450042D02*
G03*
X151573Y450042I-2000J0D01*
G01*
D26*
X12006Y843650D02*
G03*
X6356Y838012I0J-5650D01*
G01*
X6356Y12000D02*
G03*
X11994Y6350I5650J0D01*
G01*
X838006Y6350D02*
G03*
X843656Y11988I0J5650D01*
G01*
X843656Y838000D02*
G03*
X838024Y843650I-5650J0D01*
G01*
X843656Y12000D02*
X843656Y837975D01*
X12024Y843650D02*
X838006Y843650D01*
X12006Y6350D02*
X837981Y6350D01*
X6356Y12025D02*
X6356Y838000D01*
D42*
X222765Y698518D02*
D03*
X238765D02*
D03*
X222765Y718336D02*
D03*
X238765D02*
D03*
X517324Y393513D02*
D03*
X533325D02*
D03*
X285063Y385972D02*
D03*
X301063D02*
D03*
Y369480D02*
D03*
X285063D02*
D03*
X533339Y409001D02*
D03*
X517339D02*
D03*
X517339Y424490D02*
D03*
X533339D02*
D03*
X212154Y411977D02*
D03*
X196154D02*
D03*
X78893Y386223D02*
D03*
X62893D02*
D03*
X79123Y469135D02*
D03*
X63123D02*
D03*
X78893Y366765D02*
D03*
X62893D02*
D03*
X78983Y449677D02*
D03*
X62983D02*
D03*
X797711Y423326D02*
D03*
X813711D02*
D03*
X797711Y463310D02*
D03*
X813711D02*
D03*
X155162Y438164D02*
D03*
X171162D02*
D03*
X797711Y343358D02*
D03*
X813711D02*
D03*
X797711Y263390D02*
D03*
X813711D02*
D03*
X797711Y383342D02*
D03*
X813711D02*
D03*
X797711Y303022D02*
D03*
X813711D02*
D03*
D45*
X256635Y265102D02*
D03*
Y281102D02*
D03*
X416165Y297282D02*
D03*
Y313282D02*
D03*
X398721Y297282D02*
D03*
Y313282D02*
D03*
X622155Y612397D02*
D03*
Y628397D02*
D03*
X604694Y496475D02*
D03*
Y480475D02*
D03*
X238704Y281102D02*
D03*
Y265102D02*
D03*
X238957Y313282D02*
D03*
Y297282D02*
D03*
X310447Y281102D02*
D03*
Y265102D02*
D03*
X310700Y313282D02*
D03*
Y297282D02*
D03*
X291909Y281102D02*
D03*
Y265102D02*
D03*
X292162Y313282D02*
D03*
Y297282D02*
D03*
X275172Y281102D02*
D03*
Y265102D02*
D03*
X329761Y281102D02*
D03*
Y265102D02*
D03*
X346390D02*
D03*
Y281102D02*
D03*
X381278Y297282D02*
D03*
Y313282D02*
D03*
X363834Y297282D02*
D03*
Y313282D02*
D03*
X566685Y612397D02*
D03*
Y628397D02*
D03*
X549225Y496475D02*
D03*
Y480475D02*
D03*
X416165Y345817D02*
D03*
Y329817D02*
D03*
X398721Y345817D02*
D03*
Y329817D02*
D03*
X381278Y345817D02*
D03*
Y329817D02*
D03*
X363834Y345817D02*
D03*
Y329817D02*
D03*
X659773Y579416D02*
D03*
Y595416D02*
D03*
X659773Y496475D02*
D03*
Y480475D02*
D03*
X659773Y529455D02*
D03*
Y513455D02*
D03*
Y546436D02*
D03*
Y562436D02*
D03*
X511607Y612397D02*
D03*
Y628397D02*
D03*
X511607Y579601D02*
D03*
Y595601D02*
D03*
Y529517D02*
D03*
Y513517D02*
D03*
Y562559D02*
D03*
Y546559D02*
D03*
X178467Y241997D02*
D03*
Y225997D02*
D03*
X346390Y297282D02*
D03*
Y313282D02*
D03*
X142881Y241997D02*
D03*
Y225997D02*
D03*
X160674Y241997D02*
D03*
Y225997D02*
D03*
X640513Y628648D02*
D03*
Y612648D02*
D03*
Y480724D02*
D03*
Y496724D02*
D03*
X604695Y612646D02*
D03*
Y628646D02*
D03*
X622154Y496726D02*
D03*
Y480726D02*
D03*
X585435Y496726D02*
D03*
Y480726D02*
D03*
X659774Y612646D02*
D03*
Y628646D02*
D03*
X530866Y628648D02*
D03*
Y612648D02*
D03*
Y480724D02*
D03*
Y496724D02*
D03*
X311600Y470570D02*
D03*
Y454571D02*
D03*
X274525Y454569D02*
D03*
Y470569D02*
D03*
X311600Y435234D02*
D03*
Y419234D02*
D03*
X274525Y419232D02*
D03*
Y435232D02*
D03*
X328861Y312997D02*
D03*
Y296997D02*
D03*
X293062Y470570D02*
D03*
Y454571D02*
D03*
X255988Y454569D02*
D03*
Y470569D02*
D03*
X293062Y435234D02*
D03*
Y419234D02*
D03*
X255988Y419232D02*
D03*
Y435232D02*
D03*
X660890Y239278D02*
D03*
Y223278D02*
D03*
X660891Y269408D02*
D03*
Y253408D02*
D03*
X549226Y612646D02*
D03*
Y628646D02*
D03*
X566684Y496726D02*
D03*
Y480726D02*
D03*
X585945Y612646D02*
D03*
Y628646D02*
D03*
X511605Y496726D02*
D03*
Y480726D02*
D03*
X213153Y225835D02*
D03*
Y241835D02*
D03*
X195360Y225835D02*
D03*
Y241835D02*
D03*
D57*
X73003Y259997D02*
D03*
Y278997D02*
D03*
X48003Y269497D02*
D03*
D60*
X572075Y526219D02*
D03*
X559375D02*
D03*
X546675D02*
D03*
X533975D02*
D03*
X572075Y582719D02*
D03*
X559375D02*
D03*
X546675D02*
D03*
X533975D02*
D03*
X600015Y582719D02*
D03*
X612715D02*
D03*
X625415D02*
D03*
X638115D02*
D03*
X600015Y526219D02*
D03*
X612715D02*
D03*
X625415D02*
D03*
X638115D02*
D03*
D122*
X814003Y837247D02*
D03*
X790753Y813997D02*
D03*
X814003Y791137D02*
D03*
X837253Y813997D02*
D03*
X830443Y830437D02*
D03*
X797563Y797557D02*
D03*
X830443D02*
D03*
X797563Y830437D02*
D03*
X19563Y52437D02*
D03*
X52443Y19557D02*
D03*
X19563D02*
D03*
X52443Y52437D02*
D03*
X59253Y35997D02*
D03*
X36003Y13137D02*
D03*
X12753Y35997D02*
D03*
X36003Y59247D02*
D03*
X797563Y52437D02*
D03*
X830443Y19557D02*
D03*
X797563D02*
D03*
X830443Y52437D02*
D03*
X837253Y35997D02*
D03*
X814003Y13137D02*
D03*
X790753Y35997D02*
D03*
X814003Y59247D02*
D03*
X19563Y830437D02*
D03*
X52443Y797557D02*
D03*
X19563D02*
D03*
X52443Y830437D02*
D03*
X59253Y813997D02*
D03*
X36003Y791137D02*
D03*
X12753Y813997D02*
D03*
X36003Y837247D02*
D03*
D131*
X585003Y35997D02*
Y72228D01*
X325003Y37997D02*
Y79499D01*
D134*
X22459Y830016D02*
D03*
X827952Y827918D02*
D03*
X832074Y21279D02*
D03*
X21194D02*
D03*
D143*
X762703Y113797D02*
D03*
D144*
X737303D02*
D03*
X762703Y139197D02*
D03*
X737303D02*
D03*
X762703Y164597D02*
D03*
X737303D02*
D03*
Y189997D02*
D03*
Y215397D02*
D03*
X762703Y240797D02*
D03*
X737303D02*
D03*
X762703Y266197D02*
D03*
X737303D02*
D03*
X762703Y189997D02*
D03*
Y215397D02*
D03*
D145*
X220253Y151497D02*
D03*
X207253D02*
D03*
X220253Y164497D02*
D03*
X207253D02*
D03*
X220253Y177497D02*
D03*
X207253D02*
D03*
D146*
X814003Y813997D02*
D03*
X36003Y35997D02*
D03*
X814003D02*
D03*
X36003Y813997D02*
D03*
D147*
X734603Y642165D02*
D03*
Y544597D02*
D03*
D148*
Y667565D02*
D03*
Y692965D02*
D03*
Y718365D02*
D03*
Y743765D02*
D03*
Y569997D02*
D03*
Y595397D02*
D03*
D149*
X477503Y739997D02*
D03*
X662503D02*
D03*
X477503Y692497D02*
D03*
X662503D02*
D03*
X352503Y692497D02*
D03*
X167503D02*
D03*
X352503Y739997D02*
D03*
X167503D02*
D03*
X607503Y36197D02*
D03*
X242503Y83797D02*
D03*
X607503D02*
D03*
X242503Y36197D02*
D03*
D150*
X590227Y417639D02*
D03*
X256635Y289921D02*
D03*
X50415Y392407D02*
D03*
X46149Y477633D02*
D03*
X50415Y421633D02*
D03*
Y336407D02*
D03*
X192281Y205748D02*
D03*
Y216151D02*
D03*
X410096Y627623D02*
D03*
X842125Y8881D02*
D03*
X833882Y6347D02*
D03*
X822198Y6858D02*
D03*
X6021Y795118D02*
D03*
X795220Y844373D02*
D03*
X806283Y844220D02*
D03*
X844819Y795831D02*
D03*
X844804Y806704D02*
D03*
X843620Y496780D02*
D03*
Y486780D02*
D03*
X720856Y6379D02*
D03*
X710856D02*
D03*
X130858D02*
D03*
X6386Y195503D02*
D03*
Y205503D02*
D03*
Y675502D02*
D03*
Y415503D02*
D03*
Y235503D02*
D03*
Y245503D02*
D03*
X596322Y843614D02*
D03*
X843620Y236780D02*
D03*
X6386Y475503D02*
D03*
Y215503D02*
D03*
Y375503D02*
D03*
Y115503D02*
D03*
Y655502D02*
D03*
X140858Y6379D02*
D03*
X516322Y843614D02*
D03*
X843620Y386780D02*
D03*
X220858Y6379D02*
D03*
X6386Y25503D02*
D03*
X90858Y6379D02*
D03*
X6386Y325503D02*
D03*
X756321Y843614D02*
D03*
X116323D02*
D03*
X120858Y6379D02*
D03*
X843620Y636779D02*
D03*
X810856Y6379D02*
D03*
X476322Y843614D02*
D03*
X843620Y766779D02*
D03*
Y96780D02*
D03*
X310857Y6379D02*
D03*
X226322Y843614D02*
D03*
X6386Y685502D02*
D03*
X146323Y843614D02*
D03*
X6386Y285503D02*
D03*
X843620Y136780D02*
D03*
X36323Y843614D02*
D03*
X843620Y836779D02*
D03*
Y76780D02*
D03*
X826321Y843614D02*
D03*
X843620Y676779D02*
D03*
X580857Y6379D02*
D03*
X6386Y555503D02*
D03*
X680857Y6379D02*
D03*
X843620Y716779D02*
D03*
Y656779D02*
D03*
X10860Y6560D02*
D03*
X206322Y843614D02*
D03*
X410857Y6379D02*
D03*
X843620Y696779D02*
D03*
X446322Y843614D02*
D03*
X40858Y6379D02*
D03*
X706321Y843614D02*
D03*
X800856Y6379D02*
D03*
X6386Y315503D02*
D03*
X843620Y826779D02*
D03*
X750856Y6379D02*
D03*
X520857D02*
D03*
X843620Y606779D02*
D03*
Y546779D02*
D03*
Y56780D02*
D03*
X690857Y6379D02*
D03*
X6386Y55504D02*
D03*
X300857Y6379D02*
D03*
X626322Y843614D02*
D03*
X843620Y446780D02*
D03*
Y376780D02*
D03*
Y326780D02*
D03*
Y286780D02*
D03*
X6386Y495503D02*
D03*
X843620Y256780D02*
D03*
X76323Y843614D02*
D03*
X196322D02*
D03*
X270857Y6379D02*
D03*
X6386Y65504D02*
D03*
X530857Y6379D02*
D03*
X6386Y505503D02*
D03*
X56323Y843614D02*
D03*
X766321D02*
D03*
X570857Y6379D02*
D03*
X843620Y666779D02*
D03*
X60858Y6379D02*
D03*
X843620Y536779D02*
D03*
X6386Y345503D02*
D03*
X843620Y396780D02*
D03*
X6386Y295503D02*
D03*
X666322Y843614D02*
D03*
X190858Y6379D02*
D03*
X6386Y365503D02*
D03*
X256322Y843614D02*
D03*
X406322D02*
D03*
X843620Y106780D02*
D03*
X6386Y445503D02*
D03*
X360857Y6379D02*
D03*
X843620Y26781D02*
D03*
X640857Y6379D02*
D03*
X6386Y145503D02*
D03*
Y135503D02*
D03*
X646322Y843614D02*
D03*
X6386Y75503D02*
D03*
Y805502D02*
D03*
Y515503D02*
D03*
Y725502D02*
D03*
Y395503D02*
D03*
X236322Y843614D02*
D03*
X843620Y36780D02*
D03*
X6386Y105503D02*
D03*
Y155503D02*
D03*
X180858Y6379D02*
D03*
X6386Y605502D02*
D03*
X166323Y843614D02*
D03*
X566322D02*
D03*
X843620Y516780D02*
D03*
X6386Y15504D02*
D03*
Y265503D02*
D03*
X490857Y6379D02*
D03*
X843620Y46780D02*
D03*
X466322Y843614D02*
D03*
X6386Y45504D02*
D03*
X636322Y843614D02*
D03*
X786321D02*
D03*
X843620Y596779D02*
D03*
Y816779D02*
D03*
X456322Y843614D02*
D03*
X726321D02*
D03*
X843620Y506780D02*
D03*
Y116780D02*
D03*
Y296780D02*
D03*
X620857Y6379D02*
D03*
X50858D02*
D03*
X6386Y585502D02*
D03*
X500857Y6379D02*
D03*
X200858D02*
D03*
X6386Y705502D02*
D03*
X486322Y843614D02*
D03*
X6386Y755502D02*
D03*
Y695502D02*
D03*
X336322Y843614D02*
D03*
X6386Y85503D02*
D03*
X843620Y166780D02*
D03*
X6386Y485503D02*
D03*
X843620Y336780D02*
D03*
X420857Y6379D02*
D03*
X776321Y843614D02*
D03*
X843620Y466780D02*
D03*
X350857Y6379D02*
D03*
X6386Y175503D02*
D03*
X46323Y843614D02*
D03*
X696321D02*
D03*
X80858Y6379D02*
D03*
X843620Y756779D02*
D03*
Y626779D02*
D03*
X510857Y6379D02*
D03*
X760856D02*
D03*
X296322Y843614D02*
D03*
X843620Y456780D02*
D03*
X480857Y6379D02*
D03*
X656322Y843614D02*
D03*
X843620Y436780D02*
D03*
X6386Y95503D02*
D03*
X110858Y6379D02*
D03*
X843620Y736779D02*
D03*
Y246780D02*
D03*
X340857Y6379D02*
D03*
X266322Y843614D02*
D03*
X6386Y615502D02*
D03*
X70858Y6379D02*
D03*
X176323Y843614D02*
D03*
X346322D02*
D03*
X376322D02*
D03*
X616322D02*
D03*
X843620Y746779D02*
D03*
Y346780D02*
D03*
Y226780D02*
D03*
X330857Y6379D02*
D03*
X843620Y776779D02*
D03*
Y646779D02*
D03*
X6386Y575502D02*
D03*
X106323Y843614D02*
D03*
X186322D02*
D03*
X276322D02*
D03*
X306322D02*
D03*
X676322D02*
D03*
X6386Y745502D02*
D03*
Y785502D02*
D03*
X426322Y843614D02*
D03*
X370857Y6379D02*
D03*
X843620Y196780D02*
D03*
X546322Y843614D02*
D03*
X746321D02*
D03*
X843620Y576779D02*
D03*
X550857Y6379D02*
D03*
X843620Y356780D02*
D03*
X286322Y843614D02*
D03*
X576322D02*
D03*
X436322D02*
D03*
X6386Y275503D02*
D03*
Y185503D02*
D03*
X290857Y6379D02*
D03*
X6386Y765502D02*
D03*
X86323Y843614D02*
D03*
X790856Y6379D02*
D03*
X136323Y843614D02*
D03*
X156323D02*
D03*
X6386Y565503D02*
D03*
Y825502D02*
D03*
X843620Y206780D02*
D03*
Y126780D02*
D03*
Y146780D02*
D03*
X6386Y125503D02*
D03*
X240858Y6379D02*
D03*
X6386Y225503D02*
D03*
X843620Y706779D02*
D03*
X170858Y6379D02*
D03*
X536322Y843614D02*
D03*
X540857Y6379D02*
D03*
X843620Y266780D02*
D03*
Y726779D02*
D03*
X320857Y6379D02*
D03*
X770856D02*
D03*
X6386Y435503D02*
D03*
X386322Y843614D02*
D03*
X843620Y316780D02*
D03*
X6386Y165503D02*
D03*
X506322Y843614D02*
D03*
X843620Y686779D02*
D03*
Y416780D02*
D03*
X12233Y843614D02*
D03*
X590857Y6379D02*
D03*
X380857D02*
D03*
X6386Y625502D02*
D03*
X843620Y426780D02*
D03*
X6386Y535503D02*
D03*
X843620Y16781D02*
D03*
X260857Y6379D02*
D03*
X6386Y465503D02*
D03*
X816321Y843614D02*
D03*
X216322D02*
D03*
X843620Y476780D02*
D03*
X150858Y6379D02*
D03*
X450857D02*
D03*
X210858D02*
D03*
X526322Y843614D02*
D03*
X780856Y6379D02*
D03*
X606322Y843614D02*
D03*
X843620Y566779D02*
D03*
X650857Y6379D02*
D03*
X6386Y595502D02*
D03*
X230858Y6379D02*
D03*
X20858D02*
D03*
X686321Y843614D02*
D03*
X843620Y66780D02*
D03*
Y276780D02*
D03*
X6386Y815502D02*
D03*
X670857Y6379D02*
D03*
X6386Y525503D02*
D03*
X843620Y86780D02*
D03*
X356322Y843614D02*
D03*
X610857Y6379D02*
D03*
X556322Y843614D02*
D03*
X843620Y556779D02*
D03*
Y366780D02*
D03*
X586322Y843614D02*
D03*
X716321D02*
D03*
X600857Y6379D02*
D03*
X700857D02*
D03*
X843620Y786779D02*
D03*
X6386Y355503D02*
D03*
X843620Y176780D02*
D03*
X96323Y843614D02*
D03*
X6386Y455503D02*
D03*
X126323Y843614D02*
D03*
X6386Y635502D02*
D03*
X843620Y616779D02*
D03*
X560857Y6379D02*
D03*
X470857D02*
D03*
X6386Y665502D02*
D03*
Y735502D02*
D03*
Y775502D02*
D03*
X390857Y6379D02*
D03*
X30858D02*
D03*
X6386Y305503D02*
D03*
X326322Y843614D02*
D03*
X366322D02*
D03*
X630857Y6379D02*
D03*
X396322Y843614D02*
D03*
X843620Y216780D02*
D03*
X280857Y6379D02*
D03*
X440857D02*
D03*
X6386Y545503D02*
D03*
X160858Y6379D02*
D03*
X66323Y843614D02*
D03*
X843620Y186780D02*
D03*
X736321Y843614D02*
D03*
X100858Y6379D02*
D03*
X430857D02*
D03*
X843620Y156780D02*
D03*
X6386Y835502D02*
D03*
Y255503D02*
D03*
Y385503D02*
D03*
Y715502D02*
D03*
X496322Y843614D02*
D03*
X246322D02*
D03*
X843620Y306780D02*
D03*
X400857Y6379D02*
D03*
X6386Y335503D02*
D03*
X416322Y843614D02*
D03*
X730856Y6379D02*
D03*
X26323Y843614D02*
D03*
X316322D02*
D03*
X843620Y406780D02*
D03*
X660857Y6379D02*
D03*
X460857D02*
D03*
X250858D02*
D03*
X740856D02*
D03*
X6386Y405503D02*
D03*
Y425503D02*
D03*
Y645502D02*
D03*
X843620Y586779D02*
D03*
X6386Y35503D02*
D03*
X843620Y526780D02*
D03*
X836321Y843614D02*
D03*
X508923Y268393D02*
D03*
X63132Y538082D02*
D03*
X107876Y563391D02*
D03*
X190529Y533385D02*
D03*
X137872Y489714D02*
D03*
X292371Y546793D02*
D03*
X296103Y538251D02*
D03*
X606450Y331746D02*
D03*
X380286Y250757D02*
D03*
X396494Y298319D02*
D03*
X365050Y255959D02*
D03*
X562650Y345912D02*
D03*
X496635Y466769D02*
D03*
X466169Y409815D02*
D03*
X499281Y304669D02*
D03*
X508398Y328642D02*
D03*
X339604Y447284D02*
D03*
X316245Y388556D02*
D03*
X380559Y298575D02*
D03*
X610870Y663194D02*
D03*
X589534D02*
D03*
X549458D02*
D03*
X530352D02*
D03*
X784860Y463310D02*
D03*
Y423327D02*
D03*
Y383342D02*
D03*
Y342550D02*
D03*
X783844Y264414D02*
D03*
X246985Y410881D02*
D03*
X689305Y631903D02*
D03*
X494538Y206756D02*
D03*
X389343Y209296D02*
D03*
X439420Y204470D02*
D03*
X427228Y215646D02*
D03*
X446532Y114471D02*
D03*
X430528Y114419D02*
D03*
X570164Y424792D02*
D03*
X524889Y513284D02*
D03*
X650812Y488635D02*
D03*
X649732Y601218D02*
D03*
X246888Y718336D02*
D03*
Y698500D02*
D03*
X284005Y451223D02*
D03*
X215521Y445285D02*
D03*
X206970Y453176D02*
D03*
X396994Y479769D02*
D03*
X401113Y245733D02*
D03*
X389343Y243545D02*
D03*
X191552Y164507D02*
D03*
X168614Y153436D02*
D03*
X132339Y173748D02*
D03*
X379391Y468893D02*
D03*
X206879Y436123D02*
D03*
X223838Y453176D02*
D03*
Y436123D02*
D03*
X430591Y466519D02*
D03*
X431038Y454660D02*
D03*
X416306D02*
D03*
X421034Y491168D02*
D03*
X411390Y478508D02*
D03*
X405400Y491091D02*
D03*
X470956Y497615D02*
D03*
X437356Y538337D02*
D03*
X321325Y538301D02*
D03*
X98130Y538365D02*
D03*
X89873D02*
D03*
X214354Y538420D02*
D03*
X205294Y538433D02*
D03*
X399511Y660458D02*
D03*
X401066Y735934D02*
D03*
X412242Y783082D02*
D03*
X456414Y772918D02*
D03*
X455933Y656016D02*
D03*
X456414Y730564D02*
D03*
X444500Y698370D02*
D03*
X403243Y698696D02*
D03*
X586232Y541528D02*
D03*
Y567436D02*
D03*
X455933Y616907D02*
D03*
X444500Y627623D02*
D03*
X426720D02*
D03*
X490872Y620397D02*
D03*
Y602597D02*
D03*
X468828Y574413D02*
D03*
X338648Y580755D02*
D03*
X393929Y580255D02*
D03*
X362312D02*
D03*
X346812Y611883D02*
D03*
X246541Y580558D02*
D03*
X261495Y580837D02*
D03*
X277966D02*
D03*
X278310Y596262D02*
D03*
X261495Y611883D02*
D03*
X326310D02*
D03*
X278310Y611177D02*
D03*
X261495Y596262D02*
D03*
X163015Y574716D02*
D03*
X169320Y583555D02*
D03*
X142779Y576255D02*
D03*
X130749Y580258D02*
D03*
X61684D02*
D03*
X46149Y571516D02*
D03*
X46013Y537147D02*
D03*
X168131Y338002D02*
D03*
X127533Y340746D02*
D03*
X49530Y309626D02*
D03*
X48003Y269497D02*
D03*
X283010Y160758D02*
D03*
X264873Y160722D02*
D03*
X220253Y118497D02*
D03*
X207103Y130556D02*
D03*
X741680Y354743D02*
D03*
X750915Y342550D02*
D03*
X765556Y299212D02*
D03*
X745236Y303784D02*
D03*
X763524Y455497D02*
D03*
X746252D02*
D03*
X793242Y499872D02*
D03*
X580003Y651497D02*
D03*
X472622Y172737D02*
D03*
X523614Y178559D02*
D03*
X557707Y330489D02*
D03*
X524318Y338364D02*
D03*
X54544Y521539D02*
D03*
X455432Y144997D02*
D03*
X455422Y173228D02*
D03*
X138483Y472556D02*
D03*
X132399Y353358D02*
D03*
X540003Y651497D02*
D03*
X152825Y581997D02*
D03*
X309295Y339801D02*
D03*
X393929Y529706D02*
D03*
X132383Y404771D02*
D03*
X559890Y299704D02*
D03*
X523864Y266629D02*
D03*
X475133Y275897D02*
D03*
X495300Y144780D02*
D03*
X445787Y228563D02*
D03*
X93472Y318770D02*
D03*
X101478Y189203D02*
D03*
X90723D02*
D03*
X222504Y411977D02*
D03*
X193401Y508378D02*
D03*
X315181Y507552D02*
D03*
X180610Y538303D02*
D03*
X236261Y465756D02*
D03*
X223838Y477803D02*
D03*
X244585Y443164D02*
D03*
X211764Y476057D02*
D03*
X195517Y465219D02*
D03*
X265180Y457552D02*
D03*
X184658Y443037D02*
D03*
X142797Y438833D02*
D03*
X163162Y453085D02*
D03*
X248401Y297182D02*
D03*
X566805Y471146D02*
D03*
X461390Y239800D02*
D03*
X487934Y248158D02*
D03*
X788457Y444150D02*
D03*
X788470Y284308D02*
D03*
X789567Y250062D02*
D03*
X805942Y332486D02*
D03*
X80383Y495992D02*
D03*
X72023Y434499D02*
D03*
X80566Y380353D02*
D03*
X80929Y464055D02*
D03*
X205648Y721272D02*
D03*
X805356Y229032D02*
D03*
X804888Y211885D02*
D03*
X751564Y328898D02*
D03*
X723030D02*
D03*
X737297D02*
D03*
X485003Y35997D02*
D03*
X205648Y672843D02*
D03*
Y697057D02*
D03*
Y684950D02*
D03*
Y709165D02*
D03*
X83823Y736040D02*
D03*
X73282Y728617D02*
D03*
X83823Y750307D02*
D03*
X94363Y742832D02*
D03*
X73282Y742884D02*
D03*
X94363Y771418D02*
D03*
X73282D02*
D03*
Y757151D02*
D03*
X94363Y757098D02*
D03*
X83823Y764574D02*
D03*
X131804Y772689D02*
D03*
X132015Y758528D02*
D03*
X139174Y765951D02*
D03*
X146439Y758475D02*
D03*
X146650Y772795D02*
D03*
X521632Y320284D02*
D03*
X433592Y228637D02*
D03*
X469141Y215135D02*
D03*
X480317Y211579D02*
D03*
X431390Y297564D02*
D03*
X436141Y309788D02*
D03*
X788579Y363475D02*
D03*
X788542Y403425D02*
D03*
X686449Y381759D02*
D03*
X692050Y371802D02*
D03*
X681683Y415269D02*
D03*
X653545Y424939D02*
D03*
X680044Y398375D02*
D03*
X671754Y406699D02*
D03*
X675197Y365665D02*
D03*
X660115Y352762D02*
D03*
X507973Y362756D02*
D03*
Y339721D02*
D03*
X508740Y348926D02*
D03*
X678282Y189784D02*
D03*
X663165Y175333D02*
D03*
X676520Y175032D02*
D03*
X814336Y179846D02*
D03*
X814327Y157731D02*
D03*
X385676Y266263D02*
D03*
X396390Y271411D02*
D03*
X142692Y137804D02*
D03*
Y74078D02*
D03*
Y155584D02*
D03*
Y119711D02*
D03*
Y89289D02*
D03*
Y58867D02*
D03*
Y43656D02*
D03*
Y28445D02*
D03*
X35817Y755901D02*
D03*
Y740810D02*
D03*
Y725720D02*
D03*
Y710630D02*
D03*
Y604997D02*
D03*
Y620087D02*
D03*
Y635178D02*
D03*
Y650268D02*
D03*
Y665358D02*
D03*
Y680449D02*
D03*
Y695539D02*
D03*
X139633Y649709D02*
D03*
X140779Y687774D02*
D03*
Y668196D02*
D03*
X140655Y725413D02*
D03*
X139999Y744997D02*
D03*
X585151Y72228D02*
D03*
X375472Y261121D02*
D03*
X686910Y263916D02*
D03*
X329556Y256489D02*
D03*
X346564Y298151D02*
D03*
X336214Y23355D02*
D03*
X355307D02*
D03*
X374399D02*
D03*
X336214Y40506D02*
D03*
X355307D02*
D03*
X374399D02*
D03*
X345760Y31930D02*
D03*
X364853D02*
D03*
X336214Y57656D02*
D03*
X355307D02*
D03*
X374399D02*
D03*
X345760Y49081D02*
D03*
X364853D02*
D03*
X345760Y66232D02*
D03*
X364853D02*
D03*
X73515Y76003D02*
D03*
X102153Y84579D02*
D03*
X83061D02*
D03*
Y67428D02*
D03*
X92607Y76003D02*
D03*
X83061Y50278D02*
D03*
X92607Y58853D02*
D03*
X73515D02*
D03*
X102153Y33127D02*
D03*
X83061D02*
D03*
X92607Y41702D02*
D03*
X73515D02*
D03*
X336214Y74807D02*
D03*
X355307D02*
D03*
X374399D02*
D03*
X336214Y91958D02*
D03*
X355307D02*
D03*
X374399D02*
D03*
X345760Y83382D02*
D03*
X364853D02*
D03*
Y99771D02*
D03*
X345760D02*
D03*
X374399Y109870D02*
D03*
X364853Y117683D02*
D03*
X355307Y109870D02*
D03*
X336214D02*
D03*
X345760Y117683D02*
D03*
X68793Y631225D02*
D03*
Y614098D02*
D03*
X77344Y639788D02*
D03*
Y622662D02*
D03*
X85896Y631225D02*
D03*
Y648352D02*
D03*
X144257Y241402D02*
D03*
X160886Y241634D02*
D03*
X253089Y227581D02*
D03*
X274188D02*
D03*
X231991D02*
D03*
X263638D02*
D03*
X242540D02*
D03*
X284737D02*
D03*
X153287Y299592D02*
D03*
Y308950D02*
D03*
X204244Y233976D02*
D03*
X481268Y638265D02*
D03*
X448936Y395743D02*
D03*
X443190Y380313D02*
D03*
X436750Y389348D02*
D03*
X430911Y378552D02*
D03*
X476085Y654952D02*
D03*
X470038Y672046D02*
D03*
X464049Y687544D02*
D03*
X656776Y150648D02*
D03*
X669958Y144790D02*
D03*
X631347Y620677D02*
D03*
X631257Y470777D02*
D03*
X650243Y620773D02*
D03*
X614190Y472217D02*
D03*
X499887Y404901D02*
D03*
X539872Y621030D02*
D03*
X632389Y488622D02*
D03*
X390297Y405122D02*
D03*
X370704Y400078D02*
D03*
X393005Y395841D02*
D03*
X470956Y546862D02*
D03*
X481705D02*
D03*
X492454D02*
D03*
X355092D02*
D03*
X365641D02*
D03*
X376190D02*
D03*
X386740D02*
D03*
X397289D02*
D03*
X407838D02*
D03*
X239060D02*
D03*
X249610D02*
D03*
X260159D02*
D03*
X270708D02*
D03*
X281258D02*
D03*
X175776D02*
D03*
X165226D02*
D03*
X154677D02*
D03*
X144128D02*
D03*
X133579D02*
D03*
X123029D02*
D03*
X350179Y519594D02*
D03*
X234157Y519356D02*
D03*
X67527Y546862D02*
D03*
X46028D02*
D03*
X668023Y291167D02*
D03*
X525254Y433321D02*
D03*
X36892Y104953D02*
D03*
X36624Y141300D02*
D03*
Y122952D02*
D03*
X57940Y158602D02*
D03*
X58131Y172615D02*
D03*
X41829Y172613D02*
D03*
X41638Y158600D02*
D03*
X41160Y203216D02*
D03*
X40968Y189203D02*
D03*
X130012Y213922D02*
D03*
X115999Y214114D02*
D03*
X160675Y221297D02*
D03*
X142881Y216151D02*
D03*
X600786Y651424D02*
D03*
X585115Y510236D02*
D03*
X585113Y526092D02*
D03*
X585605Y582662D02*
D03*
X585105Y597852D02*
D03*
X522714Y596046D02*
D03*
X522658Y554017D02*
D03*
X648936Y554920D02*
D03*
X523614Y218698D02*
D03*
X567206Y144810D02*
D03*
X557190Y116611D02*
D03*
X567519Y178559D02*
D03*
X553215Y202181D02*
D03*
X76179Y340850D02*
D03*
X62233Y359407D02*
D03*
X62124Y444163D02*
D03*
X330503Y650954D02*
D03*
X289728Y652000D02*
D03*
X210062Y653869D02*
D03*
X250193Y652523D02*
D03*
X653901Y469643D02*
D03*
X256511Y313158D02*
D03*
X238704Y256283D02*
D03*
X356471Y265102D02*
D03*
X291909Y256283D02*
D03*
X310391D02*
D03*
X228857Y340865D02*
D03*
X231651Y378457D02*
D03*
X202187Y377601D02*
D03*
X255651Y405166D02*
D03*
X229604Y359447D02*
D03*
X344935Y410609D02*
D03*
X339516Y417347D02*
D03*
X275006Y400030D02*
D03*
X264396Y394814D02*
D03*
X360740Y394873D02*
D03*
X356493Y423074D02*
D03*
X313348Y382203D02*
D03*
X115349Y556491D02*
D03*
X74826Y555354D02*
D03*
X463325Y556610D02*
D03*
X346838Y556331D02*
D03*
X230891Y555715D02*
D03*
X190858Y555354D02*
D03*
X422920D02*
D03*
X306889D02*
D03*
X695342Y481032D02*
D03*
X694585Y508027D02*
D03*
X403387Y537937D02*
D03*
X286769Y537715D02*
D03*
X274447Y537263D02*
D03*
X170724Y537505D02*
D03*
X158585D02*
D03*
X457025Y410415D02*
D03*
X461750Y423360D02*
D03*
X485232Y461413D02*
D03*
X488057Y440941D02*
D03*
X427444Y329880D02*
D03*
X355088Y321815D02*
D03*
X372532D02*
D03*
X389975D02*
D03*
X407419D02*
D03*
X309341Y370140D02*
D03*
X416111Y345703D02*
D03*
X398956Y345775D02*
D03*
X381046Y345703D02*
D03*
X364152Y346539D02*
D03*
X508511Y409001D02*
D03*
X530399Y287874D02*
D03*
X528831Y471647D02*
D03*
X547119Y471611D02*
D03*
X528831Y461515D02*
D03*
X520003Y651497D02*
D03*
X492454Y513284D02*
D03*
X519941Y677161D02*
D03*
X569725Y639569D02*
D03*
X649750Y639061D02*
D03*
X600459Y676399D02*
D03*
X455933Y565909D02*
D03*
X465844Y518596D02*
D03*
X117750D02*
D03*
X339855Y565401D02*
D03*
X224031Y566163D02*
D03*
X146278Y513317D02*
D03*
X262710Y513692D02*
D03*
X378841Y513317D02*
D03*
X681485Y304543D02*
D03*
X680626Y203438D02*
D03*
X523141Y254128D02*
D03*
X256325Y435878D02*
D03*
X274863D02*
D03*
X293400D02*
D03*
X274863Y479015D02*
D03*
X256325D02*
D03*
X293400D02*
D03*
X311915Y479041D02*
D03*
X188627Y262556D02*
D03*
X93003Y262560D02*
D03*
Y287017D02*
D03*
Y275951D02*
D03*
X504447Y320545D02*
D03*
X660891Y252518D02*
D03*
X660700Y266554D02*
D03*
X687299Y318005D02*
D03*
X687045Y339341D02*
D03*
X686537Y360599D02*
D03*
X660891Y240546D02*
D03*
X660890Y227467D02*
D03*
X496573Y315211D02*
D03*
X505209Y310131D02*
D03*
X525180Y84004D02*
D03*
X504955Y84325D02*
D03*
X479236Y441034D02*
D03*
X486074Y429722D02*
D03*
X71631Y685797D02*
D03*
X80295Y368512D02*
D03*
X158386Y413829D02*
D03*
X157833Y395999D02*
D03*
X149643Y351511D02*
D03*
X155881Y357871D02*
D03*
X80251Y453573D02*
D03*
X110959Y403235D02*
D03*
X283721Y462785D02*
D03*
X456467Y495722D02*
D03*
X414767Y538255D02*
D03*
X422338Y533385D02*
D03*
X74244D02*
D03*
X306307D02*
D03*
X93076Y516235D02*
D03*
X115496Y509267D02*
D03*
X102987Y513739D02*
D03*
X209107Y516235D02*
D03*
X231527Y509267D02*
D03*
X219018Y513739D02*
D03*
X446191Y507438D02*
D03*
X451556Y514849D02*
D03*
X440999Y499936D02*
D03*
X335050Y513739D02*
D03*
X347558Y509267D02*
D03*
X325138Y515981D02*
D03*
X441170Y531834D02*
D03*
X450670D02*
D03*
X325138D02*
D03*
X334638D02*
D03*
X209107D02*
D03*
X218607D02*
D03*
X311598Y435878D02*
D03*
X102576Y531834D02*
D03*
X93076D02*
D03*
X363534Y296945D02*
D03*
X416111Y296997D02*
D03*
X310700Y320047D02*
D03*
X265350Y445074D02*
D03*
D151*
X227286Y315782D02*
D03*
X187286D02*
D03*
X827286Y475782D02*
D03*
X107286Y635782D02*
D03*
X727286Y515782D02*
D03*
X749271Y234831D02*
D03*
X447040Y193548D02*
D03*
X553215Y157042D02*
D03*
X487132Y109872D02*
D03*
X406908Y110744D02*
D03*
X807286Y755782D02*
D03*
X827286Y715782D02*
D03*
Y635782D02*
D03*
Y555782D02*
D03*
Y395782D02*
D03*
Y315782D02*
D03*
X807286Y115782D02*
D03*
X827286Y75782D02*
D03*
X767286Y755782D02*
D03*
X787286Y715782D02*
D03*
X767286Y675782D02*
D03*
X787286Y635782D02*
D03*
X767286Y595782D02*
D03*
X787286Y555782D02*
D03*
X767286Y515782D02*
D03*
X787286Y475782D02*
D03*
X767286Y435782D02*
D03*
X787286Y395782D02*
D03*
X767286Y355782D02*
D03*
Y35782D02*
D03*
X727286Y755782D02*
D03*
X747286Y715782D02*
D03*
Y635782D02*
D03*
Y475782D02*
D03*
Y395782D02*
D03*
X727286Y35782D02*
D03*
X707286Y795782D02*
D03*
X687286Y755782D02*
D03*
X707286Y715782D02*
D03*
Y555782D02*
D03*
Y75782D02*
D03*
X687286Y35782D02*
D03*
X667286Y795782D02*
D03*
X647286Y755782D02*
D03*
Y35782D02*
D03*
X627286Y795782D02*
D03*
X607286Y755782D02*
D03*
X627286Y715782D02*
D03*
X587286Y795782D02*
D03*
X567286Y755782D02*
D03*
X587286Y715782D02*
D03*
X547286Y795782D02*
D03*
X527286Y755782D02*
D03*
X547286Y715782D02*
D03*
X507286Y795782D02*
D03*
X487286Y755782D02*
D03*
X507286Y715782D02*
D03*
X487286Y675782D02*
D03*
X467286Y795782D02*
D03*
Y315782D02*
D03*
X427286Y795782D02*
D03*
Y475782D02*
D03*
X387286Y795782D02*
D03*
X367286Y755782D02*
D03*
X387286Y715782D02*
D03*
X367286Y675782D02*
D03*
X347286Y795782D02*
D03*
X327286Y755782D02*
D03*
X347286Y715782D02*
D03*
X307286Y795782D02*
D03*
X287286Y755782D02*
D03*
X307286Y715782D02*
D03*
X287286Y595782D02*
D03*
X267286Y795782D02*
D03*
X247286Y755782D02*
D03*
X267286Y715782D02*
D03*
X227286Y795782D02*
D03*
X207286Y115782D02*
D03*
X227286Y75782D02*
D03*
X167286Y755782D02*
D03*
Y355782D02*
D03*
Y115782D02*
D03*
X187286Y75782D02*
D03*
X87286Y595782D02*
D03*
X47286Y435782D02*
D03*
Y355782D02*
D03*
D155*
X182186Y441939D02*
G03*
X182186Y441939I-1500J0D01*
G01*
D156*
X275425Y313034D02*
D03*
Y297034D02*
D03*
D157*
X93003Y254997D02*
D03*
Y285997D02*
D03*
X118003Y254997D02*
D03*
Y285997D02*
D03*
D158*
X797143Y403424D02*
D03*
X814143D02*
D03*
X797143Y443408D02*
D03*
X814143D02*
D03*
X797180Y284480D02*
D03*
X814180D02*
D03*
X796907Y243633D02*
D03*
X813907D02*
D03*
X797143Y323456D02*
D03*
X814143D02*
D03*
X797180Y363474D02*
D03*
X814180D02*
D03*
D159*
X121513Y232996D02*
D03*
X88493D02*
D03*
D160*
X201879Y464791D02*
D03*
X206879D02*
D03*
X211879D02*
D03*
X216879D02*
D03*
X221879D02*
D03*
X226879D02*
D03*
Y426743D02*
D03*
X221879D02*
D03*
X216879D02*
D03*
X211879D02*
D03*
X206879D02*
D03*
X201879D02*
D03*
D161*
X233403Y458267D02*
D03*
Y453267D02*
D03*
Y448267D02*
D03*
Y443267D02*
D03*
Y438267D02*
D03*
Y433267D02*
D03*
X195355D02*
D03*
Y438267D02*
D03*
Y443267D02*
D03*
Y448267D02*
D03*
Y453267D02*
D03*
Y458267D02*
D03*
D162*
X214379Y445767D02*
D03*
D163*
X585003Y35997D02*
D03*
Y83997D02*
D03*
X565003Y35997D02*
D03*
Y83997D02*
D03*
X545003Y35997D02*
D03*
Y83997D02*
D03*
X525003Y35997D02*
D03*
Y83997D02*
D03*
X505003Y35997D02*
D03*
Y83997D02*
D03*
X485003Y35997D02*
D03*
Y83997D02*
D03*
X465003Y35997D02*
D03*
Y83997D02*
D03*
X445003Y35997D02*
D03*
Y83997D02*
D03*
X425003Y35997D02*
D03*
Y83997D02*
D03*
X405003Y35997D02*
D03*
Y83997D02*
D03*
X385003Y35997D02*
D03*
Y83997D02*
D03*
X365003Y35997D02*
D03*
Y83997D02*
D03*
X345003Y35997D02*
D03*
Y83997D02*
D03*
X325003Y35997D02*
D03*
Y83997D02*
D03*
X305003Y35997D02*
D03*
Y83997D02*
D03*
X285003Y35997D02*
D03*
Y83997D02*
D03*
X265003Y35997D02*
D03*
Y83997D02*
D03*
D164*
X175134Y291299D02*
D03*
D165*
X146881Y272555D02*
D03*
Y285255D02*
D03*
Y297955D02*
D03*
Y310655D02*
D03*
X203381Y272555D02*
D03*
Y285255D02*
D03*
Y297955D02*
D03*
Y310655D02*
D03*
D166*
X93105Y256924D02*
D03*
D167*
X355517Y39789D02*
D03*
D168*
X93181Y282251D02*
D03*
M02*
