G04*
G04 #@! TF.GenerationSoftware,Altium Limited,Altium Designer,24.1.2 (44)*
G04*
G04 Layer_Color=65535*
%FSLAX44Y44*%
%MOMM*%
G71*
G04*
G04 #@! TF.SameCoordinates,9C78AE07-0A78-4655-BEE4-92392129F010*
G04*
G04*
G04 #@! TF.FilePolarity,Positive*
G04*
G01*
G75*
%ADD10C,0.2540*%
%ADD11C,0.1000*%
%ADD12C,0.3810*%
%ADD13C,0.2000*%
%ADD14C,0.2520*%
%ADD15C,0.1540*%
%ADD16C,0.2500*%
%ADD17C,0.6000*%
%ADD18C,0.5080*%
%ADD19C,0.3000*%
%ADD20C,0.1270*%
%ADD21C,0.1524*%
%ADD22C,0.1500*%
%ADD23C,0.5000*%
%ADD24C,0.1200*%
%ADD25R,2.5400X1.2700*%
G36*
X368295Y274030D02*
X364485D01*
Y271490D01*
X368295D01*
Y274030D01*
D02*
G37*
G36*
X320381Y326944D02*
X317841D01*
Y323134D01*
X320381D01*
Y326944D01*
D02*
G37*
G36*
X320381Y376944D02*
X317841D01*
Y373134D01*
X320381D01*
Y376944D01*
D02*
G37*
G36*
X348295Y446048D02*
X344485D01*
Y448588D01*
X348295D01*
Y446048D01*
D02*
G37*
G36*
X398295Y446048D02*
X394485D01*
Y448588D01*
X398295D01*
Y446048D01*
D02*
G37*
G36*
X418295Y274030D02*
X414485D01*
Y271490D01*
X418295D01*
Y274030D01*
D02*
G37*
G36*
X468295D02*
X464485D01*
Y271490D01*
X468295D01*
Y274030D01*
D02*
G37*
G36*
X492399Y346944D02*
X494939D01*
Y343134D01*
X492399D01*
Y346944D01*
D02*
G37*
G36*
Y396944D02*
X494939D01*
Y393134D01*
X492399D01*
Y396944D01*
D02*
G37*
G36*
X448295Y446048D02*
X444485D01*
Y448588D01*
X448295D01*
Y446048D01*
D02*
G37*
D10*
X227387Y522356D02*
G03*
X227387Y522356I-1256J0D01*
G01*
X343418D02*
G03*
X343418Y522356I-1256J0D01*
G01*
X459449D02*
G03*
X459449Y522356I-1256J0D01*
G01*
X111355D02*
G03*
X111355Y522356I-1256J0D01*
G01*
X781395Y112990D02*
G03*
X781395Y112990I-1270J0D01*
G01*
X567769Y300217D02*
G03*
X567769Y300217I-1250J0D01*
G01*
X100862Y668636D02*
X100894D01*
X100742Y115907D02*
X100774D01*
X798197Y481455D02*
Y492885D01*
Y507109D02*
Y518539D01*
X741809D02*
X798197D01*
X741809Y481455D02*
X798197D01*
X757303Y493647D02*
X782703D01*
X757303D02*
Y506347D01*
X782703D01*
Y493647D02*
Y506347D01*
X741809Y481455D02*
Y492885D01*
Y507109D02*
Y518539D01*
X299228Y219802D02*
X312141D01*
X299228Y141495D02*
Y219802D01*
Y141495D02*
X312141D01*
X357861Y141267D02*
X371029D01*
Y219802D01*
X357861D02*
X371029D01*
D11*
X124928Y344935D02*
G03*
X123428Y346435I-1500J0D01*
G01*
Y333735D02*
G03*
X124928Y335235I0J1500D01*
G01*
X98488Y346435D02*
G03*
X96988Y344935I0J-1500D01*
G01*
Y335235D02*
G03*
X98488Y333735I1500J0D01*
G01*
X96990Y352521D02*
G03*
X98490Y351021I1500J0D01*
G01*
Y363721D02*
G03*
X96990Y362221I0J-1500D01*
G01*
X123430Y351021D02*
G03*
X124930Y352521I0J1500D01*
G01*
Y362221D02*
G03*
X123430Y363721I-1500J0D01*
G01*
X124928Y426741D02*
G03*
X123428Y428241I-1500J0D01*
G01*
Y415541D02*
G03*
X124928Y417041I0J1500D01*
G01*
X98488Y428241D02*
G03*
X96988Y426741I0J-1500D01*
G01*
Y417041D02*
G03*
X98488Y415541I1500J0D01*
G01*
X96990Y434329D02*
G03*
X98490Y432829I1500J0D01*
G01*
Y445529D02*
G03*
X96990Y444029I0J-1500D01*
G01*
X123430Y432829D02*
G03*
X124930Y434329I0J1500D01*
G01*
Y444029D02*
G03*
X123430Y445529I-1500J0D01*
G01*
X227312Y347246D02*
G03*
X227312Y345125I1061J-1061D01*
G01*
X236293Y354105D02*
G03*
X234171Y354105I-1061J-1061D01*
G01*
X244948Y327489D02*
G03*
X247069Y327489I1061J1061D01*
G01*
X253928Y334348D02*
G03*
X253928Y336470I-1061J1061D01*
G01*
X689363Y486317D02*
G03*
X690863Y484817I1500J0D01*
G01*
Y497517D02*
G03*
X689363Y496017I0J-1500D01*
G01*
X715803Y484817D02*
G03*
X717303Y486317I0J1500D01*
G01*
Y496017D02*
G03*
X715803Y497517I-1500J0D01*
G01*
X250019Y391304D02*
G03*
X247897Y391304I-1061J-1061D01*
G01*
X256878Y382324D02*
G03*
X256878Y384445I-1061J1061D01*
G01*
X230262Y373669D02*
G03*
X230262Y371548I1061J-1061D01*
G01*
X237121Y364689D02*
G03*
X239242Y364689I1061J1061D01*
G01*
X466240Y241893D02*
G03*
X467740Y243393I0J1500D01*
G01*
X455040D02*
G03*
X456540Y241893I1500J0D01*
G01*
X467740Y268333D02*
G03*
X466240Y269833I-1500J0D01*
G01*
X456540D02*
G03*
X455040Y268333I0J-1500D01*
G01*
X351606Y449107D02*
G03*
X353106Y450607I0J1500D01*
G01*
X340406D02*
G03*
X341906Y449107I1500J0D01*
G01*
X353106Y475547D02*
G03*
X351606Y477047I-1500J0D01*
G01*
X341906D02*
G03*
X340406Y475547I0J-1500D01*
G01*
X324750Y477043D02*
G03*
X323250Y475543I0J-1500D01*
G01*
X335950D02*
G03*
X334450Y477043I-1500J0D01*
G01*
X323250Y450603D02*
G03*
X324750Y449103I1500J0D01*
G01*
X334450D02*
G03*
X335950Y450603I0J1500D01*
G01*
X306639Y329221D02*
G03*
X305139Y330721I-1500J0D01*
G01*
Y318021D02*
G03*
X306639Y319521I0J1500D01*
G01*
X280199Y330721D02*
G03*
X278699Y329221I0J-1500D01*
G01*
Y319521D02*
G03*
X280199Y318021I1500J0D01*
G01*
X278700Y333830D02*
G03*
X280200Y332330I1500J0D01*
G01*
Y345030D02*
G03*
X278700Y343530I0J-1500D01*
G01*
X305140Y332330D02*
G03*
X306640Y333830I0J1500D01*
G01*
Y343530D02*
G03*
X305140Y345030I-1500J0D01*
G01*
X309866Y384292D02*
G03*
X309866Y386413I-1061J1061D01*
G01*
X300886Y377433D02*
G03*
X303007Y377433I1061J1061D01*
G01*
X292230Y404048D02*
G03*
X290109Y404048I-1061J-1061D01*
G01*
X283250Y397189D02*
G03*
X283250Y395068I1061J-1061D01*
G01*
X273125Y387258D02*
G03*
X273125Y385137I1061J-1061D01*
G01*
X282105Y394117D02*
G03*
X279983Y394117I-1061J-1061D01*
G01*
X290760Y367502D02*
G03*
X292881Y367502I1061J1061D01*
G01*
X299740Y374361D02*
G03*
X299740Y376482I-1061J1061D01*
G01*
X384781Y616733D02*
G03*
X383281Y618233I-1500J0D01*
G01*
Y605533D02*
G03*
X384781Y607033I0J1500D01*
G01*
X358341Y618233D02*
G03*
X356841Y616733I0J-1500D01*
G01*
Y607033D02*
G03*
X358341Y605533I1500J0D01*
G01*
X251464Y616733D02*
G03*
X249964Y618233I-1500J0D01*
G01*
Y605533D02*
G03*
X251464Y607033I0J1500D01*
G01*
X225024Y618233D02*
G03*
X223524Y616733I0J-1500D01*
G01*
Y607033D02*
G03*
X225024Y605533I1500J0D01*
G01*
X400781Y631973D02*
G03*
X399281Y633473I-1500J0D01*
G01*
Y620773D02*
G03*
X400781Y622273I0J1500D01*
G01*
X374341Y633473D02*
G03*
X372841Y631973I0J-1500D01*
G01*
Y622273D02*
G03*
X374341Y620773I1500J0D01*
G01*
X267464Y631973D02*
G03*
X265964Y633473I-1500J0D01*
G01*
Y620773D02*
G03*
X267464Y622273I0J1500D01*
G01*
X241024Y633473D02*
G03*
X239524Y631973I0J-1500D01*
G01*
Y622273D02*
G03*
X241024Y620773I1500J0D01*
G01*
X404127Y575405D02*
G03*
X405627Y573904I1500J0D01*
G01*
Y586604D02*
G03*
X404127Y585104I0J-1500D01*
G01*
X430567Y573904D02*
G03*
X432067Y575405I0J1500D01*
G01*
Y585104D02*
G03*
X430567Y586604I-1500J0D01*
G01*
X172064Y575405D02*
G03*
X173564Y573904I1500J0D01*
G01*
Y586604D02*
G03*
X172064Y585104I0J-1500D01*
G01*
X198504Y573904D02*
G03*
X200004Y575405I0J1500D01*
G01*
Y585104D02*
G03*
X198504Y586604I-1500J0D01*
G01*
X340843Y622269D02*
G03*
X342343Y620769I1500J0D01*
G01*
Y633469D02*
G03*
X340843Y631969I0J-1500D01*
G01*
X367283Y620769D02*
G03*
X368783Y622269I0J1500D01*
G01*
Y631969D02*
G03*
X367283Y633469I-1500J0D01*
G01*
X207526Y622273D02*
G03*
X209026Y620773I1500J0D01*
G01*
Y633473D02*
G03*
X207526Y631973I0J-1500D01*
G01*
X233966Y620773D02*
G03*
X235466Y622273I0J1500D01*
G01*
Y631973D02*
G03*
X233966Y633473I-1500J0D01*
G01*
X484053Y507348D02*
G03*
X485553Y508848I0J1500D01*
G01*
X472853D02*
G03*
X474353Y507348I1500J0D01*
G01*
X485553Y533788D02*
G03*
X484053Y535288I-1500J0D01*
G01*
X474353D02*
G03*
X472853Y533788I0J-1500D01*
G01*
X251991Y507348D02*
G03*
X253491Y508848I0J1500D01*
G01*
X240791D02*
G03*
X242290Y507348I1500J0D01*
G01*
X253491Y533788D02*
G03*
X251991Y535288I-1500J0D01*
G01*
X242290D02*
G03*
X240791Y533788I0J-1500D01*
G01*
X499722Y507348D02*
G03*
X501222Y508848I0J1500D01*
G01*
X488522D02*
G03*
X490022Y507348I1500J0D01*
G01*
X501222Y533788D02*
G03*
X499722Y535288I-1500J0D01*
G01*
X490022D02*
G03*
X488522Y533788I0J-1500D01*
G01*
X267660Y507348D02*
G03*
X269160Y508848I0J1500D01*
G01*
X256460D02*
G03*
X257960Y507348I1500J0D01*
G01*
X269160Y533788D02*
G03*
X267660Y535288I-1500J0D01*
G01*
X257960D02*
G03*
X256460Y533788I0J-1500D01*
G01*
X241931Y569086D02*
G03*
X240431Y567585I0J-1500D01*
G01*
X253130D02*
G03*
X251630Y569086I-1500J0D01*
G01*
X240431Y542645D02*
G03*
X241931Y541146I1500J0D01*
G01*
X251630D02*
G03*
X253130Y542645I0J1500D01*
G01*
X172865Y569086D02*
G03*
X171365Y567585I0J-1500D01*
G01*
X184065D02*
G03*
X182565Y569086I-1500J0D01*
G01*
X171365Y542645D02*
G03*
X172865Y541146I1500J0D01*
G01*
X182565D02*
G03*
X184065Y542645I0J1500D01*
G01*
X389392Y535286D02*
G03*
X387892Y533786I0J-1500D01*
G01*
X400592D02*
G03*
X399092Y535286I-1500J0D01*
G01*
X387892Y508846D02*
G03*
X389392Y507346I1500J0D01*
G01*
X399092D02*
G03*
X400592Y508846I0J1500D01*
G01*
X414628Y507348D02*
G03*
X416128Y508848I0J1500D01*
G01*
X403428D02*
G03*
X404928Y507348I1500J0D01*
G01*
X416128Y533788D02*
G03*
X414628Y535288I-1500J0D01*
G01*
X404928D02*
G03*
X403428Y533788I0J-1500D01*
G01*
X157330Y535286D02*
G03*
X155830Y533786I0J-1500D01*
G01*
X168530D02*
G03*
X167030Y535286I-1500J0D01*
G01*
X155830Y508846D02*
G03*
X157330Y507346I1500J0D01*
G01*
X167030D02*
G03*
X168530Y508846I0J1500D01*
G01*
X182565Y507348D02*
G03*
X184065Y508848I0J1500D01*
G01*
X171365D02*
G03*
X172865Y507348I1500J0D01*
G01*
X184065Y533788D02*
G03*
X182565Y535288I-1500J0D01*
G01*
X172865D02*
G03*
X171365Y533788I0J-1500D01*
G01*
X257960Y569086D02*
G03*
X256460Y567585I0J-1500D01*
G01*
X269160D02*
G03*
X267660Y569086I-1500J0D01*
G01*
X256460Y542645D02*
G03*
X257960Y541146I1500J0D01*
G01*
X267660D02*
G03*
X269160Y542645I0J1500D01*
G01*
X157210Y569086D02*
G03*
X155710Y567585I0J-1500D01*
G01*
X168410D02*
G03*
X166910Y569086I-1500J0D01*
G01*
X155710Y542645D02*
G03*
X157210Y541146I1500J0D01*
G01*
X166910D02*
G03*
X168410Y542645I0J1500D01*
G01*
X357962Y569086D02*
G03*
X356462Y567585I0J-1500D01*
G01*
X369162D02*
G03*
X367662Y569086I-1500J0D01*
G01*
X356462Y542645D02*
G03*
X357962Y541146I1500J0D01*
G01*
X367662D02*
G03*
X369162Y542645I0J1500D01*
G01*
X288896Y569086D02*
G03*
X287396Y567585I0J-1500D01*
G01*
X300096D02*
G03*
X298596Y569086I-1500J0D01*
G01*
X287396Y542645D02*
G03*
X288896Y541146I1500J0D01*
G01*
X298596D02*
G03*
X300096Y542645I0J1500D01*
G01*
X373991Y569086D02*
G03*
X372491Y567585I0J-1500D01*
G01*
X385191D02*
G03*
X383691Y569086I-1500J0D01*
G01*
X372491Y542645D02*
G03*
X373991Y541146I1500J0D01*
G01*
X383691D02*
G03*
X385191Y542645I0J1500D01*
G01*
X273241Y569086D02*
G03*
X271741Y567585I0J-1500D01*
G01*
X284441D02*
G03*
X282941Y569086I-1500J0D01*
G01*
X271741Y542645D02*
G03*
X273241Y541146I1500J0D01*
G01*
X282941D02*
G03*
X284441Y542645I0J1500D01*
G01*
X184002Y617495D02*
G03*
X182502Y618995I-1500J0D01*
G01*
Y606295D02*
G03*
X184002Y607795I0J1500D01*
G01*
X157563Y618995D02*
G03*
X156062Y617495I0J-1500D01*
G01*
Y607795D02*
G03*
X157563Y606295I1500J0D01*
G01*
X316279Y616733D02*
G03*
X314779Y618233I-1500J0D01*
G01*
Y605533D02*
G03*
X316279Y607033I0J1500D01*
G01*
X289839Y618233D02*
G03*
X288339Y616733I0J-1500D01*
G01*
Y607033D02*
G03*
X289839Y605533I1500J0D01*
G01*
X332279Y631969D02*
G03*
X330779Y633469I-1500J0D01*
G01*
Y620769D02*
G03*
X332279Y622269I0J1500D01*
G01*
X305839Y633469D02*
G03*
X304339Y631969I0J-1500D01*
G01*
Y622269D02*
G03*
X305839Y620769I1500J0D01*
G01*
X200002Y631973D02*
G03*
X198503Y633473I-1500J0D01*
G01*
Y620773D02*
G03*
X200002Y622273I0J1500D01*
G01*
X173563Y633473D02*
G03*
X172062Y631973I0J-1500D01*
G01*
Y622273D02*
G03*
X173563Y620773I1500J0D01*
G01*
X288095Y575405D02*
G03*
X289595Y573904I1500J0D01*
G01*
Y586604D02*
G03*
X288095Y585104I0J-1500D01*
G01*
X314535Y573904D02*
G03*
X316035Y575405I0J1500D01*
G01*
Y585104D02*
G03*
X314535Y586604I-1500J0D01*
G01*
X56033Y575405D02*
G03*
X57533Y573904I1500J0D01*
G01*
Y586604D02*
G03*
X56033Y585104I0J-1500D01*
G01*
X82473Y573904D02*
G03*
X83973Y575405I0J1500D01*
G01*
Y585104D02*
G03*
X82473Y586604I-1500J0D01*
G01*
X272341Y622273D02*
G03*
X273841Y620773I1500J0D01*
G01*
Y633473D02*
G03*
X272341Y631973I0J-1500D01*
G01*
X298780Y620773D02*
G03*
X300280Y622273I0J1500D01*
G01*
Y631973D02*
G03*
X298780Y633473I-1500J0D01*
G01*
X140064Y622273D02*
G03*
X141564Y620773I1500J0D01*
G01*
Y633473D02*
G03*
X140064Y631973I0J-1500D01*
G01*
X166504Y620773D02*
G03*
X168004Y622273I0J1500D01*
G01*
Y631973D02*
G03*
X166504Y633473I-1500J0D01*
G01*
X368022Y507348D02*
G03*
X369522Y508848I0J1500D01*
G01*
X356822D02*
G03*
X358322Y507348I1500J0D01*
G01*
X369522Y533788D02*
G03*
X368022Y535288I-1500J0D01*
G01*
X358322D02*
G03*
X356822Y533788I0J-1500D01*
G01*
X135959Y507348D02*
G03*
X137459Y508848I0J1500D01*
G01*
X124759D02*
G03*
X126259Y507348I1500J0D01*
G01*
X137459Y533788D02*
G03*
X135959Y535288I-1500J0D01*
G01*
X126259D02*
G03*
X124759Y533788I0J-1500D01*
G01*
X383691Y507348D02*
G03*
X385191Y508848I0J1500D01*
G01*
X372491D02*
G03*
X373991Y507348I1500J0D01*
G01*
X385191Y533788D02*
G03*
X383691Y535288I-1500J0D01*
G01*
X373991D02*
G03*
X372491Y533788I0J-1500D01*
G01*
X151629Y507348D02*
G03*
X153128Y508848I0J1500D01*
G01*
X140428D02*
G03*
X141929Y507348I1500J0D01*
G01*
X153128Y533788D02*
G03*
X151629Y535288I-1500J0D01*
G01*
X141929D02*
G03*
X140428Y533788I0J-1500D01*
G01*
X473993Y569086D02*
G03*
X472493Y567585I0J-1500D01*
G01*
X485193D02*
G03*
X483693Y569086I-1500J0D01*
G01*
X472493Y542645D02*
G03*
X473993Y541146I1500J0D01*
G01*
X483693D02*
G03*
X485193Y542645I0J1500D01*
G01*
X125899Y569086D02*
G03*
X124399Y567585I0J-1500D01*
G01*
X137099D02*
G03*
X135599Y569086I-1500J0D01*
G01*
X124399Y542645D02*
G03*
X125899Y541146I1500J0D01*
G01*
X135599D02*
G03*
X137099Y542645I0J1500D01*
G01*
X273361Y535286D02*
G03*
X271861Y533786I0J-1500D01*
G01*
X284561D02*
G03*
X283061Y535286I-1500J0D01*
G01*
X271861Y508846D02*
G03*
X273361Y507346I1500J0D01*
G01*
X283061D02*
G03*
X284561Y508846I0J1500D01*
G01*
X298596Y507348D02*
G03*
X300096Y508848I0J1500D01*
G01*
X287396D02*
G03*
X288896Y507348I1500J0D01*
G01*
X300096Y533788D02*
G03*
X298596Y535288I-1500J0D01*
G01*
X288896D02*
G03*
X287396Y533788I0J-1500D01*
G01*
X41298Y535286D02*
G03*
X39799Y533786I0J-1500D01*
G01*
X52498D02*
G03*
X50999Y535286I-1500J0D01*
G01*
X39799Y508846D02*
G03*
X41298Y507346I1500J0D01*
G01*
X50999D02*
G03*
X52498Y508846I0J1500D01*
G01*
X66534Y507348D02*
G03*
X68034Y508848I0J1500D01*
G01*
X55334D02*
G03*
X56834Y507348I1500J0D01*
G01*
X68034Y533788D02*
G03*
X66534Y535288I-1500J0D01*
G01*
X56834D02*
G03*
X55334Y533788I0J-1500D01*
G01*
X404928Y569086D02*
G03*
X403428Y567585I0J-1500D01*
G01*
X416128D02*
G03*
X414628Y569086I-1500J0D01*
G01*
X403428Y542645D02*
G03*
X404928Y541146I1500J0D01*
G01*
X414628D02*
G03*
X416128Y542645I0J1500D01*
G01*
X56834Y569086D02*
G03*
X55334Y567585I0J-1500D01*
G01*
X68034D02*
G03*
X66534Y569086I-1500J0D01*
G01*
X55334Y542645D02*
G03*
X56834Y541146I1500J0D01*
G01*
X66534D02*
G03*
X68034Y542645I0J1500D01*
G01*
X490022Y569086D02*
G03*
X488522Y567585I0J-1500D01*
G01*
X501222D02*
G03*
X499722Y569086I-1500J0D01*
G01*
X488522Y542645D02*
G03*
X490022Y541146I1500J0D01*
G01*
X499722D02*
G03*
X501222Y542645I0J1500D01*
G01*
X141929Y569086D02*
G03*
X140428Y567585I0J-1500D01*
G01*
X153128D02*
G03*
X151629Y569086I-1500J0D01*
G01*
X140428Y542645D02*
G03*
X141929Y541146I1500J0D01*
G01*
X151629D02*
G03*
X153128Y542645I0J1500D01*
G01*
X389272Y569086D02*
G03*
X387772Y567585I0J-1500D01*
G01*
X400472D02*
G03*
X398972Y569086I-1500J0D01*
G01*
X387772Y542645D02*
G03*
X389272Y541146I1500J0D01*
G01*
X398972D02*
G03*
X400472Y542645I0J1500D01*
G01*
X41178Y569086D02*
G03*
X39678Y567585I0J-1500D01*
G01*
X52379D02*
G03*
X50879Y569086I-1500J0D01*
G01*
X39678Y542645D02*
G03*
X41178Y541146I1500J0D01*
G01*
X50879D02*
G03*
X52379Y542645I0J1500D01*
G01*
X551166Y120108D02*
G03*
X552666Y118608I1500J0D01*
G01*
Y131308D02*
G03*
X551166Y129808I0J-1500D01*
G01*
X577606Y118608D02*
G03*
X579106Y120108I0J1500D01*
G01*
Y129808D02*
G03*
X577606Y131308I-1500J0D01*
G01*
X583548Y120764D02*
G03*
X585048Y119264I1500J0D01*
G01*
Y131964D02*
G03*
X583548Y130464I0J-1500D01*
G01*
X609988Y119264D02*
G03*
X611488Y120764I0J1500D01*
G01*
Y130464D02*
G03*
X609988Y131964I-1500J0D01*
G01*
X579459Y429856D02*
G03*
X577959Y431356I-1500J0D01*
G01*
Y418656D02*
G03*
X579459Y420156I0J1500D01*
G01*
X553019Y431356D02*
G03*
X551519Y429856I0J-1500D01*
G01*
Y420156D02*
G03*
X553019Y418656I1500J0D01*
G01*
X547223Y429856D02*
G03*
X545723Y431356I-1500J0D01*
G01*
Y418656D02*
G03*
X547223Y420156I0J1500D01*
G01*
X520783Y431356D02*
G03*
X519283Y429856I0J-1500D01*
G01*
Y420156D02*
G03*
X520783Y418656I1500J0D01*
G01*
X611999Y322352D02*
G03*
X610499Y323852I-1500J0D01*
G01*
Y311152D02*
G03*
X611999Y312652I0J1500D01*
G01*
X585559Y323852D02*
G03*
X584059Y322352I0J-1500D01*
G01*
Y312652D02*
G03*
X585559Y311152I1500J0D01*
G01*
X580377Y322352D02*
G03*
X578877Y323852I-1500J0D01*
G01*
Y311152D02*
G03*
X580377Y312652I0J1500D01*
G01*
X553937Y323852D02*
G03*
X552437Y322352I0J-1500D01*
G01*
Y312652D02*
G03*
X553937Y311152I1500J0D01*
G01*
X676512Y322352D02*
G03*
X675012Y323852I-1500J0D01*
G01*
Y311152D02*
G03*
X676512Y312652I0J1500D01*
G01*
X650072Y323852D02*
G03*
X648572Y322352I0J-1500D01*
G01*
Y312652D02*
G03*
X650072Y311152I1500J0D01*
G01*
X644637Y322352D02*
G03*
X643137Y323852I-1500J0D01*
G01*
Y311152D02*
G03*
X644637Y312652I0J1500D01*
G01*
X618196Y323852D02*
G03*
X616697Y322352I0J-1500D01*
G01*
Y312652D02*
G03*
X618196Y311152I1500J0D01*
G01*
X584334Y420156D02*
G03*
X585834Y418656I1500J0D01*
G01*
Y431356D02*
G03*
X584334Y429856I0J-1500D01*
G01*
X610774Y418656D02*
G03*
X612274Y420156I0J1500D01*
G01*
Y429856D02*
G03*
X610774Y431356I-1500J0D01*
G01*
X617147Y420156D02*
G03*
X618647Y418656I1500J0D01*
G01*
Y431356D02*
G03*
X617147Y429856I0J-1500D01*
G01*
X643587Y418656D02*
G03*
X645087Y420156I0J1500D01*
G01*
Y429856D02*
G03*
X643587Y431356I-1500J0D01*
G01*
X676250Y130464D02*
G03*
X674750Y131964I-1500J0D01*
G01*
Y119264D02*
G03*
X676250Y120764I0J1500D01*
G01*
X649810Y131964D02*
G03*
X648310Y130464I0J-1500D01*
G01*
Y120764D02*
G03*
X649810Y119264I1500J0D01*
G01*
X643868Y130464D02*
G03*
X642368Y131964I-1500J0D01*
G01*
Y119264D02*
G03*
X643868Y120764I0J1500D01*
G01*
X617428Y131964D02*
G03*
X615928Y130464I0J-1500D01*
G01*
Y120764D02*
G03*
X617428Y119264I1500J0D01*
G01*
X599564Y634436D02*
G03*
X598064Y632936I0J-1500D01*
G01*
X610764D02*
G03*
X609264Y634436I-1500J0D01*
G01*
X598064Y607996D02*
G03*
X599564Y606496I1500J0D01*
G01*
X609264D02*
G03*
X610764Y607996I0J1500D01*
G01*
X628127Y474852D02*
G03*
X629627Y476352I0J1500D01*
G01*
X616927D02*
G03*
X618427Y474852I1500J0D01*
G01*
X629627Y501292D02*
G03*
X628127Y502792I-1500J0D01*
G01*
X618427D02*
G03*
X616927Y501292I0J-1500D01*
G01*
X544338Y634436D02*
G03*
X542838Y632936I0J-1500D01*
G01*
X555538D02*
G03*
X554038Y634436I-1500J0D01*
G01*
X542838Y607996D02*
G03*
X544338Y606496I1500J0D01*
G01*
X554038D02*
G03*
X555538Y607996I0J1500D01*
G01*
X572233Y474852D02*
G03*
X573733Y476352I0J1500D01*
G01*
X561033D02*
G03*
X562533Y474852I1500J0D01*
G01*
X573733Y501292D02*
G03*
X572233Y502792I-1500J0D01*
G01*
X562533D02*
G03*
X561033Y501292I0J-1500D01*
G01*
X664489Y507348D02*
G03*
X665989Y508848I0J1500D01*
G01*
X653289D02*
G03*
X654789Y507348I1500J0D01*
G01*
X665989Y533788D02*
G03*
X664489Y535288I-1500J0D01*
G01*
X654789D02*
G03*
X653289Y533788I0J-1500D01*
G01*
X654789Y634436D02*
G03*
X653289Y632936I0J-1500D01*
G01*
X665989D02*
G03*
X664489Y634436I-1500J0D01*
G01*
X653289Y607996D02*
G03*
X654789Y606496I1500J0D01*
G01*
X664489D02*
G03*
X665989Y607996I0J1500D01*
G01*
X654789Y602070D02*
G03*
X653289Y600570I0J-1500D01*
G01*
X665989D02*
G03*
X664489Y602070I-1500J0D01*
G01*
X653289Y575630D02*
G03*
X654789Y574130I1500J0D01*
G01*
X664489D02*
G03*
X665989Y575630I0J1500D01*
G01*
X664489Y541315D02*
G03*
X665989Y542815I0J1500D01*
G01*
X653289D02*
G03*
X654789Y541315I1500J0D01*
G01*
X665989Y567755D02*
G03*
X664489Y569255I-1500J0D01*
G01*
X654789D02*
G03*
X653289Y567755I0J-1500D01*
G01*
X516339Y474852D02*
G03*
X517840Y476352I0J1500D01*
G01*
X505140D02*
G03*
X506640Y474852I1500J0D01*
G01*
X517840Y501292D02*
G03*
X516339Y502792I-1500J0D01*
G01*
X506640D02*
G03*
X505140Y501292I0J-1500D01*
G01*
X516323Y507348D02*
G03*
X517823Y508848I0J1500D01*
G01*
X505123D02*
G03*
X506623Y507348I1500J0D01*
G01*
X517823Y533788D02*
G03*
X516323Y535288I-1500J0D01*
G01*
X506623D02*
G03*
X505123Y533788I0J-1500D01*
G01*
X506623Y602070D02*
G03*
X505123Y600570I0J-1500D01*
G01*
X517823D02*
G03*
X516323Y602070I-1500J0D01*
G01*
X505123Y575630D02*
G03*
X506623Y574130I1500J0D01*
G01*
X516323D02*
G03*
X517823Y575630I0J1500D01*
G01*
X506623Y569254D02*
G03*
X505123Y567754I0J-1500D01*
G01*
X517823D02*
G03*
X516323Y569254I-1500J0D01*
G01*
X505123Y542814D02*
G03*
X506623Y541314I1500J0D01*
G01*
X516323D02*
G03*
X517823Y542814I0J1500D01*
G01*
X709739Y302446D02*
G03*
X708239Y303946I-1500J0D01*
G01*
Y291246D02*
G03*
X709739Y292746I0J1500D01*
G01*
X683299Y303946D02*
G03*
X681799Y302446I0J-1500D01*
G01*
Y292746D02*
G03*
X683299Y291246I1500J0D01*
G01*
X709739Y259676D02*
G03*
X708239Y261176I-1500J0D01*
G01*
Y248476D02*
G03*
X709739Y249976I0J1500D01*
G01*
X683299Y261176D02*
G03*
X681799Y259676I0J-1500D01*
G01*
Y249976D02*
G03*
X683299Y248476I1500J0D01*
G01*
X109153Y263966D02*
G03*
X107653Y262466I0J-1500D01*
G01*
X120353D02*
G03*
X118853Y263966I-1500J0D01*
G01*
X107653Y237526D02*
G03*
X109153Y236026I1500J0D01*
G01*
X118853D02*
G03*
X120353Y237526I0J1500D01*
G01*
X127109Y263966D02*
G03*
X125609Y262466I0J-1500D01*
G01*
X138309D02*
G03*
X136809Y263966I-1500J0D01*
G01*
X125609Y237526D02*
G03*
X127109Y236026I1500J0D01*
G01*
X136809D02*
G03*
X138309Y237526I0J1500D01*
G01*
X287860Y164028D02*
G03*
X289360Y165528I0J1500D01*
G01*
X276660D02*
G03*
X278160Y164028I1500J0D01*
G01*
X289360Y190468D02*
G03*
X287860Y191968I-1500J0D01*
G01*
X278160D02*
G03*
X276660Y190468I0J-1500D01*
G01*
X440675Y120108D02*
G03*
X442175Y118608I1500J0D01*
G01*
Y131308D02*
G03*
X440675Y129808I0J-1500D01*
G01*
X467115Y118608D02*
G03*
X468615Y120108I0J1500D01*
G01*
Y129808D02*
G03*
X467115Y131308I-1500J0D01*
G01*
X472699Y120108D02*
G03*
X474199Y118608I1500J0D01*
G01*
Y131308D02*
G03*
X472699Y129808I0J-1500D01*
G01*
X499139Y118608D02*
G03*
X500639Y120108I0J1500D01*
G01*
Y129808D02*
G03*
X499139Y131308I-1500J0D01*
G01*
X287860Y199778D02*
G03*
X289360Y201278I0J1500D01*
G01*
X276660D02*
G03*
X278160Y199778I1500J0D01*
G01*
X289360Y226218D02*
G03*
X287860Y227718I-1500J0D01*
G01*
X278160D02*
G03*
X276660Y226218I0J-1500D01*
G01*
X287678Y153597D02*
G03*
X286178Y155097I-1500J0D01*
G01*
Y142397D02*
G03*
X287678Y143897I0J1500D01*
G01*
X261238Y155097D02*
G03*
X259738Y153597I0J-1500D01*
G01*
Y143897D02*
G03*
X261238Y142397I1500J0D01*
G01*
X155565Y227717D02*
G03*
X154065Y226217I0J-1500D01*
G01*
X166765D02*
G03*
X165265Y227717I-1500J0D01*
G01*
X154065Y201277D02*
G03*
X155565Y199777I1500J0D01*
G01*
X165265D02*
G03*
X166765Y201277I0J1500D01*
G01*
X436588Y129808D02*
G03*
X435088Y131308I-1500J0D01*
G01*
Y118608D02*
G03*
X436588Y120108I0J1500D01*
G01*
X410148Y131308D02*
G03*
X408648Y129808I0J-1500D01*
G01*
Y120108D02*
G03*
X410148Y118608I1500J0D01*
G01*
X404564Y129808D02*
G03*
X403064Y131308I-1500J0D01*
G01*
Y118608D02*
G03*
X404564Y120108I0J1500D01*
G01*
X378124Y131308D02*
G03*
X376624Y129808I0J-1500D01*
G01*
Y120108D02*
G03*
X378124Y118608I1500J0D01*
G01*
X155403Y191966D02*
G03*
X153903Y190466I0J-1500D01*
G01*
X166603D02*
G03*
X165103Y191966I-1500J0D01*
G01*
X153903Y165526D02*
G03*
X155403Y164026I1500J0D01*
G01*
X165103D02*
G03*
X166603Y165526I0J1500D01*
G01*
X40014Y688479D02*
G03*
X41514Y686979I1500J0D01*
G01*
Y699679D02*
G03*
X40014Y698179I0J-1500D01*
G01*
X66454Y686979D02*
G03*
X67954Y688479I0J1500D01*
G01*
Y698179D02*
G03*
X66454Y699679I-1500J0D01*
G01*
X39893Y135750D02*
G03*
X41393Y134250I1500J0D01*
G01*
Y146950D02*
G03*
X39893Y145450I0J-1500D01*
G01*
X66333Y134250D02*
G03*
X67833Y135750I0J1500D01*
G01*
Y145450D02*
G03*
X66333Y146950I-1500J0D01*
G01*
X40014Y655147D02*
G03*
X41514Y653647I1500J0D01*
G01*
Y666347D02*
G03*
X40014Y664847I0J-1500D01*
G01*
X66454Y653647D02*
G03*
X67954Y655147I0J1500D01*
G01*
Y664847D02*
G03*
X66454Y666347I-1500J0D01*
G01*
X40034Y100147D02*
G03*
X41534Y98647I1500J0D01*
G01*
Y111347D02*
G03*
X40034Y109847I0J-1500D01*
G01*
X66474Y98647D02*
G03*
X67974Y100147I0J1500D01*
G01*
Y109847D02*
G03*
X66474Y111347I-1500J0D01*
G01*
X482672Y242149D02*
G03*
X484172Y243649I0J1500D01*
G01*
X471472D02*
G03*
X472972Y242149I1500J0D01*
G01*
X484172Y268589D02*
G03*
X482672Y270089I-1500J0D01*
G01*
X472972D02*
G03*
X471472Y268589I0J-1500D01*
G01*
X198955Y476941D02*
G03*
X197455Y478441I-1500J0D01*
G01*
Y465741D02*
G03*
X198955Y467241I0J1500D01*
G01*
X172515Y478441D02*
G03*
X171015Y476941I0J-1500D01*
G01*
Y467241D02*
G03*
X172515Y465741I1500J0D01*
G01*
X163045Y400665D02*
G03*
X161545Y402165I-1500J0D01*
G01*
Y389465D02*
G03*
X163045Y390965I0J1500D01*
G01*
X136605Y402165D02*
G03*
X135105Y400665I0J-1500D01*
G01*
Y390965D02*
G03*
X136605Y389465I1500J0D01*
G01*
X198863Y382451D02*
G03*
X197363Y383951I-1500J0D01*
G01*
Y371251D02*
G03*
X198863Y372751I0J1500D01*
G01*
X172423Y383951D02*
G03*
X170923Y382451I0J-1500D01*
G01*
Y372751D02*
G03*
X172423Y371251I1500J0D01*
G01*
X163045Y418659D02*
G03*
X161545Y420159I-1500J0D01*
G01*
Y407459D02*
G03*
X163045Y408959I0J1500D01*
G01*
X136605Y420159D02*
G03*
X135105Y418659I0J-1500D01*
G01*
Y408959D02*
G03*
X136605Y407459I1500J0D01*
G01*
X170907Y354582D02*
G03*
X172407Y353082I1500J0D01*
G01*
Y365782D02*
G03*
X170907Y364282I0J-1500D01*
G01*
X197347Y353082D02*
G03*
X198847Y354582I0J1500D01*
G01*
Y364282D02*
G03*
X197347Y365782I-1500J0D01*
G01*
X170923Y449147D02*
G03*
X172423Y447647I1500J0D01*
G01*
Y460347D02*
G03*
X170923Y458847I0J-1500D01*
G01*
X197363Y447647D02*
G03*
X198863Y449147I0J1500D01*
G01*
Y458847D02*
G03*
X197363Y460347I-1500J0D01*
G01*
X171013Y408959D02*
G03*
X172513Y407459I1500J0D01*
G01*
Y420159D02*
G03*
X171013Y418659I0J-1500D01*
G01*
X197453Y407459D02*
G03*
X198953Y408959I0J1500D01*
G01*
Y418659D02*
G03*
X197453Y420159I-1500J0D01*
G01*
X171013Y390728D02*
G03*
X172513Y389229I1500J0D01*
G01*
Y401928D02*
G03*
X171013Y400429I0J-1500D01*
G01*
X197453Y389229D02*
G03*
X198953Y390728I0J1500D01*
G01*
Y400429D02*
G03*
X197453Y401928I-1500J0D01*
G01*
X306749Y307159D02*
G03*
X305250Y305659I0J-1500D01*
G01*
X317950D02*
G03*
X316450Y307159I-1500J0D01*
G01*
X305250Y280719D02*
G03*
X306749Y279219I1500J0D01*
G01*
X316450D02*
G03*
X317950Y280719I0J1500D01*
G01*
X288212Y307159D02*
G03*
X286712Y305659I0J-1500D01*
G01*
X299412D02*
G03*
X297912Y307159I-1500J0D01*
G01*
X286712Y280719D02*
G03*
X288212Y279219I1500J0D01*
G01*
X297912D02*
G03*
X299412Y280719I0J1500D01*
G01*
X269675Y307159D02*
G03*
X268175Y305659I0J-1500D01*
G01*
X280875D02*
G03*
X279375Y307159I-1500J0D01*
G01*
X268175Y280719D02*
G03*
X269675Y279219I1500J0D01*
G01*
X279375D02*
G03*
X280875Y280719I0J1500D01*
G01*
X717473Y521400D02*
G03*
X715973Y522900I-1500J0D01*
G01*
Y510200D02*
G03*
X717473Y511700I0J1500D01*
G01*
X691033Y522900D02*
G03*
X689533Y521400I0J-1500D01*
G01*
Y511700D02*
G03*
X691033Y510200I1500J0D01*
G01*
X195777Y307159D02*
G03*
X194277Y305659I0J-1500D01*
G01*
X206977D02*
G03*
X205477Y307159I-1500J0D01*
G01*
X194277Y280719D02*
G03*
X195777Y279219I1500J0D01*
G01*
X205477D02*
G03*
X206977Y280719I0J1500D01*
G01*
X214600Y307159D02*
G03*
X213100Y305659I0J-1500D01*
G01*
X225800D02*
G03*
X224300Y307159I-1500J0D01*
G01*
X213100Y280719D02*
G03*
X214600Y279219I1500J0D01*
G01*
X224300D02*
G03*
X225800Y280719I0J1500D01*
G01*
X392000Y477134D02*
G03*
X390499Y475634I0J-1500D01*
G01*
X403200D02*
G03*
X401700Y477134I-1500J0D01*
G01*
X390499Y450694D02*
G03*
X392000Y449194I1500J0D01*
G01*
X401700D02*
G03*
X403200Y450694I0J1500D01*
G01*
X384570Y449192D02*
G03*
X386070Y450692I0J1500D01*
G01*
X373370D02*
G03*
X374870Y449192I1500J0D01*
G01*
X386070Y475632D02*
G03*
X384570Y477132I-1500J0D01*
G01*
X374870D02*
G03*
X373370Y475632I0J-1500D01*
G01*
X717299Y600247D02*
G03*
X715799Y601747I-1500J0D01*
G01*
Y589047D02*
G03*
X717299Y590547I0J1500D01*
G01*
X690859Y601747D02*
G03*
X689359Y600247I0J-1500D01*
G01*
Y590547D02*
G03*
X690859Y589047I1500J0D01*
G01*
X717299Y683281D02*
G03*
X715799Y684781I-1500J0D01*
G01*
Y672081D02*
G03*
X717299Y673581I0J1500D01*
G01*
X690859Y684781D02*
G03*
X689359Y683281I0J-1500D01*
G01*
Y673581D02*
G03*
X690859Y672081I1500J0D01*
G01*
X717299Y708224D02*
G03*
X715799Y709724I-1500J0D01*
G01*
Y697024D02*
G03*
X717299Y698524I0J1500D01*
G01*
X690859Y709724D02*
G03*
X689359Y708224I0J-1500D01*
G01*
Y698524D02*
G03*
X690859Y697024I1500J0D01*
G01*
X717299Y547682D02*
G03*
X715799Y549182I-1500J0D01*
G01*
Y536482D02*
G03*
X717299Y537982I0J1500D01*
G01*
X690859Y549182D02*
G03*
X689359Y547682I0J-1500D01*
G01*
Y537982D02*
G03*
X690859Y536482I1500J0D01*
G01*
X717299Y573964D02*
G03*
X715799Y575464I-1500J0D01*
G01*
Y562764D02*
G03*
X717299Y564264I0J1500D01*
G01*
X690859Y575464D02*
G03*
X689359Y573964I0J-1500D01*
G01*
Y564264D02*
G03*
X690859Y562764I1500J0D01*
G01*
X421639Y656246D02*
G03*
X423139Y654746I1500J0D01*
G01*
Y667446D02*
G03*
X421639Y665946I0J-1500D01*
G01*
X448079Y654746D02*
G03*
X449579Y656246I0J1500D01*
G01*
Y665946D02*
G03*
X448079Y667446I-1500J0D01*
G01*
X421639Y637609D02*
G03*
X423139Y636109I1500J0D01*
G01*
Y648809D02*
G03*
X421639Y647309I0J-1500D01*
G01*
X448079Y636109D02*
G03*
X449579Y637609I0J1500D01*
G01*
Y647309D02*
G03*
X448079Y648809I-1500J0D01*
G01*
X421639Y693520D02*
G03*
X423139Y692020I1500J0D01*
G01*
Y704720D02*
G03*
X421639Y703220I0J-1500D01*
G01*
X448079Y692020D02*
G03*
X449579Y693520I0J1500D01*
G01*
Y703220D02*
G03*
X448079Y704720I-1500J0D01*
G01*
X421639Y674883D02*
G03*
X423139Y673383I1500J0D01*
G01*
Y686083D02*
G03*
X421639Y684583I0J-1500D01*
G01*
X448079Y673383D02*
G03*
X449579Y674883I0J1500D01*
G01*
Y684583D02*
G03*
X448079Y686083I-1500J0D01*
G01*
X421639Y730795D02*
G03*
X423139Y729295I1500J0D01*
G01*
Y741994D02*
G03*
X421639Y740495I0J-1500D01*
G01*
X448079Y729295D02*
G03*
X449579Y730795I0J1500D01*
G01*
Y740495D02*
G03*
X448079Y741994I-1500J0D01*
G01*
X421639Y712157D02*
G03*
X423139Y710657I1500J0D01*
G01*
Y723357D02*
G03*
X421639Y721857I0J-1500D01*
G01*
X448079Y710657D02*
G03*
X449579Y712157I0J1500D01*
G01*
Y721857D02*
G03*
X448079Y723357I-1500J0D01*
G01*
X421639Y768069D02*
G03*
X423139Y766569I1500J0D01*
G01*
Y779269D02*
G03*
X421639Y777769I0J-1500D01*
G01*
X448079Y766569D02*
G03*
X449579Y768069I0J1500D01*
G01*
Y777769D02*
G03*
X448079Y779269I-1500J0D01*
G01*
X421639Y749432D02*
G03*
X423139Y747932I1500J0D01*
G01*
Y760632D02*
G03*
X421639Y759132I0J-1500D01*
G01*
X448079Y747932D02*
G03*
X449579Y749432I0J1500D01*
G01*
Y759132D02*
G03*
X448079Y760632I-1500J0D01*
G01*
X306749Y476544D02*
G03*
X305250Y475044I0J-1500D01*
G01*
X317950D02*
G03*
X316450Y476544I-1500J0D01*
G01*
X305250Y450104D02*
G03*
X306749Y448604I1500J0D01*
G01*
X316450D02*
G03*
X317950Y450104I0J1500D01*
G01*
X306749Y440580D02*
G03*
X305250Y439080I0J-1500D01*
G01*
X317950D02*
G03*
X316450Y440580I-1500J0D01*
G01*
X305250Y414140D02*
G03*
X306749Y412640I1500J0D01*
G01*
X316450D02*
G03*
X317950Y414140I0J1500D01*
G01*
X269675Y476540D02*
G03*
X268175Y475041I0J-1500D01*
G01*
X280875D02*
G03*
X279375Y476540I-1500J0D01*
G01*
X268175Y450101D02*
G03*
X269675Y448601I1500J0D01*
G01*
X279375D02*
G03*
X280875Y450101I0J1500D01*
G01*
X269675Y440580D02*
G03*
X268175Y439080I0J-1500D01*
G01*
X280875D02*
G03*
X279375Y440580I-1500J0D01*
G01*
X268175Y414140D02*
G03*
X269675Y412640I1500J0D01*
G01*
X279375D02*
G03*
X280875Y414140I0J1500D01*
G01*
X288212Y476540D02*
G03*
X286712Y475041I0J-1500D01*
G01*
X299412D02*
G03*
X297912Y476540I-1500J0D01*
G01*
X286712Y450101D02*
G03*
X288212Y448601I1500J0D01*
G01*
X297912D02*
G03*
X299412Y450101I0J1500D01*
G01*
X288212Y440580D02*
G03*
X286712Y439080I0J-1500D01*
G01*
X299412D02*
G03*
X297912Y440580I-1500J0D01*
G01*
X286712Y414140D02*
G03*
X288212Y412640I1500J0D01*
G01*
X297912D02*
G03*
X299412Y414140I0J1500D01*
G01*
X251138Y441204D02*
G03*
X249638Y439704I0J-1500D01*
G01*
X262338D02*
G03*
X260838Y441204I-1500J0D01*
G01*
X249638Y414764D02*
G03*
X251138Y413264I1500J0D01*
G01*
X260838D02*
G03*
X262338Y414764I0J1500D01*
G01*
X251138Y476540D02*
G03*
X249638Y475041I0J-1500D01*
G01*
X262338D02*
G03*
X260838Y476540I-1500J0D01*
G01*
X249638Y450101D02*
G03*
X251138Y448601I1500J0D01*
G01*
X260838D02*
G03*
X262338Y450101I0J1500D01*
G01*
X519033Y355294D02*
G03*
X520533Y353794I1500J0D01*
G01*
Y366494D02*
G03*
X519033Y364994I0J-1500D01*
G01*
X545473Y353794D02*
G03*
X546973Y355294I0J1500D01*
G01*
Y364994D02*
G03*
X545473Y366494I-1500J0D01*
G01*
X519033Y333973D02*
G03*
X520533Y332473I1500J0D01*
G01*
Y345173D02*
G03*
X519033Y343673I0J-1500D01*
G01*
X545473Y332473D02*
G03*
X546973Y333973I0J1500D01*
G01*
Y343673D02*
G03*
X545473Y345173I-1500J0D01*
G01*
X519033Y227369D02*
G03*
X520533Y225868I1500J0D01*
G01*
Y238568D02*
G03*
X519033Y237069I0J-1500D01*
G01*
X545473Y225868D02*
G03*
X546973Y227369I0J1500D01*
G01*
Y237069D02*
G03*
X545473Y238568I-1500J0D01*
G01*
X519033Y206048D02*
G03*
X520533Y204548I1500J0D01*
G01*
Y217248D02*
G03*
X519033Y215748I0J-1500D01*
G01*
X545473Y204548D02*
G03*
X546973Y206048I0J1500D01*
G01*
Y215748D02*
G03*
X545473Y217248I-1500J0D01*
G01*
X519033Y163406D02*
G03*
X520533Y161906I1500J0D01*
G01*
Y174606D02*
G03*
X519033Y173106I0J-1500D01*
G01*
X545473Y161906D02*
G03*
X546973Y163406I0J1500D01*
G01*
Y173106D02*
G03*
X545473Y174606I-1500J0D01*
G01*
X519033Y142085D02*
G03*
X520533Y140585I1500J0D01*
G01*
Y153285D02*
G03*
X519033Y151785I0J-1500D01*
G01*
X545473Y140585D02*
G03*
X546973Y142085I0J1500D01*
G01*
Y151785D02*
G03*
X545473Y153285I-1500J0D01*
G01*
X519033Y184727D02*
G03*
X520533Y183227I1500J0D01*
G01*
Y195927D02*
G03*
X519033Y194427I0J-1500D01*
G01*
X545473Y183227D02*
G03*
X546973Y184727I0J1500D01*
G01*
Y194427D02*
G03*
X545473Y195927I-1500J0D01*
G01*
X518525Y248689D02*
G03*
X520025Y247189I1500J0D01*
G01*
Y259889D02*
G03*
X518525Y258389I0J-1500D01*
G01*
X544965Y247189D02*
G03*
X546465Y248689I0J1500D01*
G01*
Y258389D02*
G03*
X544965Y259889I-1500J0D01*
G01*
X519033Y312652D02*
G03*
X520533Y311152I1500J0D01*
G01*
Y323852D02*
G03*
X519033Y322352I0J-1500D01*
G01*
X545473Y311152D02*
G03*
X546973Y312652I0J1500D01*
G01*
Y322352D02*
G03*
X545473Y323852I-1500J0D01*
G01*
X519033Y120109D02*
G03*
X520533Y118609I1500J0D01*
G01*
Y131309D02*
G03*
X519033Y129809I0J-1500D01*
G01*
X545473Y118609D02*
G03*
X546973Y120109I0J1500D01*
G01*
Y129809D02*
G03*
X545473Y131309I-1500J0D01*
G01*
X519033Y291331D02*
G03*
X520533Y289831I1500J0D01*
G01*
Y302531D02*
G03*
X519033Y301031I0J-1500D01*
G01*
X545473Y289831D02*
G03*
X546973Y291331I0J1500D01*
G01*
Y301031D02*
G03*
X545473Y302531I-1500J0D01*
G01*
X519033Y376614D02*
G03*
X520533Y375115I1500J0D01*
G01*
Y387814D02*
G03*
X519033Y386315I0J-1500D01*
G01*
X545473Y375115D02*
G03*
X546973Y376614I0J1500D01*
G01*
Y386315D02*
G03*
X545473Y387814I-1500J0D01*
G01*
X519033Y397935D02*
G03*
X520533Y396435I1500J0D01*
G01*
Y409135D02*
G03*
X519033Y407635I0J-1500D01*
G01*
X545473Y396435D02*
G03*
X546973Y397935I0J1500D01*
G01*
Y407635D02*
G03*
X545473Y409135I-1500J0D01*
G01*
X518525Y270010D02*
G03*
X520025Y268510I1500J0D01*
G01*
Y281210D02*
G03*
X518525Y279710I0J-1500D01*
G01*
X544965Y268510D02*
G03*
X546465Y270010I0J1500D01*
G01*
Y279710D02*
G03*
X544965Y281210I-1500J0D01*
G01*
X680942Y120765D02*
G03*
X682442Y119265I1500J0D01*
G01*
Y131965D02*
G03*
X680942Y130465I0J-1500D01*
G01*
X707382Y119265D02*
G03*
X708882Y120765I0J1500D01*
G01*
Y130465D02*
G03*
X707382Y131965I-1500J0D01*
G01*
X680942Y142150D02*
G03*
X682442Y140650I1500J0D01*
G01*
Y153350D02*
G03*
X680942Y151850I0J-1500D01*
G01*
X707382Y140650D02*
G03*
X708882Y142150I0J1500D01*
G01*
Y151850D02*
G03*
X707382Y153350I-1500J0D01*
G01*
X635988Y634688D02*
G03*
X634488Y633187I0J-1500D01*
G01*
X647188D02*
G03*
X645688Y634688I-1500J0D01*
G01*
X634488Y608247D02*
G03*
X635988Y606748I1500J0D01*
G01*
X645688D02*
G03*
X647188Y608247I0J1500D01*
G01*
X645859Y475619D02*
G03*
X647359Y477119I0J1500D01*
G01*
X634659D02*
G03*
X636159Y475619I1500J0D01*
G01*
X647359Y502059D02*
G03*
X645859Y503559I-1500J0D01*
G01*
X636159D02*
G03*
X634659Y502059I0J-1500D01*
G01*
X626772Y606746D02*
G03*
X628272Y608246I0J1500D01*
G01*
X615572D02*
G03*
X617072Y606746I1500J0D01*
G01*
X628272Y633186D02*
G03*
X626772Y634686I-1500J0D01*
G01*
X617072D02*
G03*
X615572Y633186I0J-1500D01*
G01*
X598896Y503182D02*
G03*
X597396Y501682I0J-1500D01*
G01*
X610096D02*
G03*
X608596Y503182I-1500J0D01*
G01*
X597396Y476742D02*
G03*
X598896Y475242I1500J0D01*
G01*
X608596D02*
G03*
X610096Y476742I0J1500D01*
G01*
X589955Y606746D02*
G03*
X591455Y608246I0J1500D01*
G01*
X578755D02*
G03*
X580255Y606746I1500J0D01*
G01*
X591455Y633186D02*
G03*
X589955Y634686I-1500J0D01*
G01*
X580255D02*
G03*
X578755Y633186I0J-1500D01*
G01*
X654790Y503182D02*
G03*
X653290Y501682I0J-1500D01*
G01*
X665990D02*
G03*
X664490Y503182I-1500J0D01*
G01*
X653290Y476742D02*
G03*
X654790Y475242I1500J0D01*
G01*
X664490D02*
G03*
X665990Y476742I0J1500D01*
G01*
X525030Y634688D02*
G03*
X523530Y633187I0J-1500D01*
G01*
X536230D02*
G03*
X534730Y634688I-1500J0D01*
G01*
X523530Y608247D02*
G03*
X525030Y606748I1500J0D01*
G01*
X534730D02*
G03*
X536230Y608247I0J1500D01*
G01*
X534071Y475619D02*
G03*
X535571Y477119I0J1500D01*
G01*
X522871D02*
G03*
X524371Y475619I1500J0D01*
G01*
X535571Y502059D02*
G03*
X534071Y503559I-1500J0D01*
G01*
X524371D02*
G03*
X522871Y502059I0J-1500D01*
G01*
X571547Y606746D02*
G03*
X573047Y608246I0J1500D01*
G01*
X560347D02*
G03*
X561847Y606746I1500J0D01*
G01*
X573047Y633186D02*
G03*
X571547Y634686I-1500J0D01*
G01*
X561847D02*
G03*
X560347Y633186I0J-1500D01*
G01*
X543002Y503182D02*
G03*
X541502Y501682I0J-1500D01*
G01*
X554202D02*
G03*
X552702Y503182I-1500J0D01*
G01*
X541502Y476742D02*
G03*
X543002Y475242I1500J0D01*
G01*
X552702D02*
G03*
X554202Y476742I0J1500D01*
G01*
X516321Y606746D02*
G03*
X517822Y608246I0J1500D01*
G01*
X505121D02*
G03*
X506622Y606746I1500J0D01*
G01*
X517822Y633186D02*
G03*
X516321Y634686I-1500J0D01*
G01*
X506622D02*
G03*
X505121Y633186I0J-1500D01*
G01*
X580265Y503182D02*
G03*
X578765Y501682I0J-1500D01*
G01*
X591465D02*
G03*
X589965Y503182I-1500J0D01*
G01*
X578765Y476742D02*
G03*
X580265Y475242I1500J0D01*
G01*
X589965D02*
G03*
X591465Y476742I0J1500D01*
G01*
X791427Y217691D02*
G03*
X792927Y216191I1500J0D01*
G01*
Y228891D02*
G03*
X791427Y227391I0J-1500D01*
G01*
X817867Y216191D02*
G03*
X819367Y217691I0J1500D01*
G01*
Y227391D02*
G03*
X817867Y228891I-1500J0D01*
G01*
X791427Y196306D02*
G03*
X792927Y194806I1500J0D01*
G01*
Y207506D02*
G03*
X791427Y206006I0J-1500D01*
G01*
X817867Y194806D02*
G03*
X819367Y196306I0J1500D01*
G01*
Y206006D02*
G03*
X817867Y207506I-1500J0D01*
G01*
X791427Y174921D02*
G03*
X792927Y173421I1500J0D01*
G01*
Y186120D02*
G03*
X791427Y184620I0J-1500D01*
G01*
X817867Y173421D02*
G03*
X819367Y174921I0J1500D01*
G01*
Y184620D02*
G03*
X817867Y186120I-1500J0D01*
G01*
X791429Y153535D02*
G03*
X792929Y152036I1500J0D01*
G01*
Y164736D02*
G03*
X791429Y163235I0J-1500D01*
G01*
X817869Y152036D02*
G03*
X819369Y153535I0J1500D01*
G01*
Y163235D02*
G03*
X817869Y164736I-1500J0D01*
G01*
X649199Y420156D02*
G03*
X650699Y418656I1500J0D01*
G01*
Y431356D02*
G03*
X649199Y429856I0J-1500D01*
G01*
X675639Y418656D02*
G03*
X677139Y420156I0J1500D01*
G01*
Y429856D02*
G03*
X675639Y431356I-1500J0D01*
G01*
X682033Y420156D02*
G03*
X683533Y418656I1500J0D01*
G01*
Y431356D02*
G03*
X682033Y429856I0J-1500D01*
G01*
X708473Y418656D02*
G03*
X709973Y420156I0J1500D01*
G01*
Y429856D02*
G03*
X708473Y431356I-1500J0D01*
G01*
X137048Y749847D02*
G03*
X135548Y751347I-1500J0D01*
G01*
Y738647D02*
G03*
X137048Y740147I0J1500D01*
G01*
X110608Y751347D02*
G03*
X109108Y749847I0J-1500D01*
G01*
Y740147D02*
G03*
X110608Y738647I1500J0D01*
G01*
X136973Y178847D02*
G03*
X135473Y180347I-1500J0D01*
G01*
Y167647D02*
G03*
X136973Y169147I0J1500D01*
G01*
X110533Y180347D02*
G03*
X109033Y178847I0J-1500D01*
G01*
Y169147D02*
G03*
X110533Y167647I1500J0D01*
G01*
X682222Y398771D02*
G03*
X683722Y397271I1500J0D01*
G01*
Y409971D02*
G03*
X682222Y408471I0J-1500D01*
G01*
X708662Y397271D02*
G03*
X710162Y398771I0J1500D01*
G01*
Y408471D02*
G03*
X708662Y409971I-1500J0D01*
G01*
X682222Y377386D02*
G03*
X683722Y375886I1500J0D01*
G01*
Y388586D02*
G03*
X682222Y387086I0J-1500D01*
G01*
X708662Y375886D02*
G03*
X710162Y377386I0J1500D01*
G01*
Y387086D02*
G03*
X708662Y388586I-1500J0D01*
G01*
X109283Y720947D02*
G03*
X110783Y719447I1500J0D01*
G01*
Y732147D02*
G03*
X109283Y730647I0J-1500D01*
G01*
X135723Y719447D02*
G03*
X137223Y720947I0J1500D01*
G01*
Y730647D02*
G03*
X135723Y732147I-1500J0D01*
G01*
X109162Y151051D02*
G03*
X110662Y149551I1500J0D01*
G01*
Y162251D02*
G03*
X109162Y160751I0J-1500D01*
G01*
X135602Y149551D02*
G03*
X137102Y151051I0J1500D01*
G01*
Y160751D02*
G03*
X135602Y162251I-1500J0D01*
G01*
X682033Y334616D02*
G03*
X683533Y333116I1500J0D01*
G01*
Y345816D02*
G03*
X682033Y344316I0J-1500D01*
G01*
X708473Y333116D02*
G03*
X709973Y334616I0J1500D01*
G01*
Y344316D02*
G03*
X708473Y345816I-1500J0D01*
G01*
X40262Y671591D02*
G03*
X41762Y670091I1500J0D01*
G01*
Y682791D02*
G03*
X40262Y681291I0J-1500D01*
G01*
X66702Y670091D02*
G03*
X68202Y671591I0J1500D01*
G01*
Y681291D02*
G03*
X66702Y682791I-1500J0D01*
G01*
X41033Y118147D02*
G03*
X42533Y116647I1500J0D01*
G01*
Y129347D02*
G03*
X41033Y127847I0J-1500D01*
G01*
X67473Y116647D02*
G03*
X68973Y118147I0J1500D01*
G01*
Y127847D02*
G03*
X67473Y129347I-1500J0D01*
G01*
X682033Y356001D02*
G03*
X683533Y354501I1500J0D01*
G01*
Y367201D02*
G03*
X682033Y365701I0J-1500D01*
G01*
X708473Y354501D02*
G03*
X709973Y356001I0J1500D01*
G01*
Y365701D02*
G03*
X708473Y367201I-1500J0D01*
G01*
X682222Y313231D02*
G03*
X683722Y311731I1500J0D01*
G01*
Y324431D02*
G03*
X682222Y322931I0J-1500D01*
G01*
X708662Y311731D02*
G03*
X710162Y313231I0J1500D01*
G01*
Y322931D02*
G03*
X708662Y324431I-1500J0D01*
G01*
X682049Y270461D02*
G03*
X683549Y268961I1500J0D01*
G01*
Y281661D02*
G03*
X682049Y280161I0J-1500D01*
G01*
X708489Y268961D02*
G03*
X709989Y270461I0J1500D01*
G01*
Y280161D02*
G03*
X708489Y281661I-1500J0D01*
G01*
X682049Y227691D02*
G03*
X683549Y226191I1500J0D01*
G01*
Y238891D02*
G03*
X682049Y237391I0J-1500D01*
G01*
X708489Y226191D02*
G03*
X709989Y227691I0J1500D01*
G01*
Y237391D02*
G03*
X708489Y238891I-1500J0D01*
G01*
X682049Y206306D02*
G03*
X683549Y204806I1500J0D01*
G01*
Y217506D02*
G03*
X682049Y216006I0J-1500D01*
G01*
X708489Y204806D02*
G03*
X709989Y206306I0J1500D01*
G01*
Y216006D02*
G03*
X708489Y217506I-1500J0D01*
G01*
X682049Y184921D02*
G03*
X683549Y183421I1500J0D01*
G01*
Y196120D02*
G03*
X682049Y194620I0J-1500D01*
G01*
X708489Y183421D02*
G03*
X709989Y184921I0J1500D01*
G01*
Y194620D02*
G03*
X708489Y196120I-1500J0D01*
G01*
X682049Y163535D02*
G03*
X683549Y162036I1500J0D01*
G01*
Y174736D02*
G03*
X682049Y173235I0J-1500D01*
G01*
X708489Y162036D02*
G03*
X709989Y163535I0J1500D01*
G01*
Y173235D02*
G03*
X708489Y174736I-1500J0D01*
G01*
X270223Y163776D02*
G03*
X271723Y165276I0J1500D01*
G01*
X259023D02*
G03*
X260523Y163776I1500J0D01*
G01*
X271723Y190216D02*
G03*
X270223Y191716I-1500J0D01*
G01*
X260523D02*
G03*
X259023Y190216I0J-1500D01*
G01*
X137223Y692247D02*
G03*
X135723Y693747I-1500J0D01*
G01*
Y681047D02*
G03*
X137223Y682547I0J1500D01*
G01*
X110783Y693747D02*
G03*
X109283Y692247I0J-1500D01*
G01*
Y682547D02*
G03*
X110783Y681047I1500J0D01*
G01*
X109283Y701747D02*
G03*
X110783Y700247I1500J0D01*
G01*
Y712947D02*
G03*
X109283Y711447I0J-1500D01*
G01*
X135723Y700247D02*
G03*
X137223Y701747I0J1500D01*
G01*
Y711447D02*
G03*
X135723Y712947I-1500J0D01*
G01*
X137102Y124559D02*
G03*
X135602Y126059I-1500J0D01*
G01*
Y113359D02*
G03*
X137102Y114859I0J1500D01*
G01*
X110662Y126059D02*
G03*
X109162Y124559I0J-1500D01*
G01*
Y114859D02*
G03*
X110662Y113359I1500J0D01*
G01*
X109162Y132955D02*
G03*
X110662Y131455I1500J0D01*
G01*
Y144155D02*
G03*
X109162Y142655I0J-1500D01*
G01*
X135602Y131455D02*
G03*
X137102Y132955I0J1500D01*
G01*
Y142655D02*
G03*
X135602Y144155I-1500J0D01*
G01*
X136845Y653847D02*
G03*
X135345Y655347I-1500J0D01*
G01*
Y642647D02*
G03*
X136845Y644147I0J1500D01*
G01*
X110405Y655347D02*
G03*
X108905Y653847I0J-1500D01*
G01*
Y644147D02*
G03*
X110405Y642647I1500J0D01*
G01*
X270223Y200027D02*
G03*
X271723Y201527I0J1500D01*
G01*
X259023D02*
G03*
X260523Y200027I1500J0D01*
G01*
X271723Y226467D02*
G03*
X270223Y227967I-1500J0D01*
G01*
X260523D02*
G03*
X259023Y226467I0J-1500D01*
G01*
X136725Y88368D02*
G03*
X135225Y89868I-1500J0D01*
G01*
Y77168D02*
G03*
X136725Y78668I0J1500D01*
G01*
X110285Y89868D02*
G03*
X108785Y88368I0J-1500D01*
G01*
Y78668D02*
G03*
X110285Y77168I1500J0D01*
G01*
X109283Y663347D02*
G03*
X110783Y661847I1500J0D01*
G01*
Y674547D02*
G03*
X109283Y673047I0J-1500D01*
G01*
X135723Y661847D02*
G03*
X137223Y663347I0J1500D01*
G01*
Y673047D02*
G03*
X135723Y674547I-1500J0D01*
G01*
X183317Y200027D02*
G03*
X184817Y201527I0J1500D01*
G01*
X172117D02*
G03*
X173617Y200027I1500J0D01*
G01*
X184817Y226467D02*
G03*
X183317Y227967I-1500J0D01*
G01*
X173617D02*
G03*
X172117Y226467I0J-1500D01*
G01*
X109162Y96764D02*
G03*
X110662Y95264I1500J0D01*
G01*
Y107964D02*
G03*
X109162Y106464I0J-1500D01*
G01*
X135602Y95264D02*
G03*
X137102Y96764I0J1500D01*
G01*
Y106464D02*
G03*
X135602Y107964I-1500J0D01*
G01*
X75945Y667784D02*
X78204D01*
X75945D02*
Y670066D01*
X75980Y692537D02*
X78261D01*
X75980Y690278D02*
Y692537D01*
X101773Y690285D02*
Y692567D01*
X99514D02*
X101773D01*
X75824Y115055D02*
X78083D01*
X75824D02*
Y117337D01*
X75859Y139808D02*
X78141D01*
X75859Y137550D02*
Y139808D01*
X101653Y137556D02*
Y139838D01*
X99394D02*
X101653D01*
X434071Y558425D02*
Y602329D01*
X468615Y558425D02*
Y602329D01*
X434071D02*
X468615D01*
X434071Y558425D02*
X468615D01*
X202008D02*
Y602329D01*
X236553Y558425D02*
Y602329D01*
X202008D02*
X236553D01*
X202008Y558425D02*
X236553D01*
X318040D02*
Y602329D01*
X352584Y558425D02*
Y602329D01*
X318040D02*
X352584D01*
X318040Y558425D02*
X352584D01*
X85977D02*
Y602329D01*
X120521Y558425D02*
Y602329D01*
X85977D02*
X120521D01*
X85977Y558425D02*
X120521D01*
X124928Y335235D02*
Y344935D01*
X96988Y335235D02*
Y344935D01*
X98488Y333735D02*
X123428D01*
X98488Y346435D02*
X123428D01*
X96990Y352521D02*
Y362221D01*
X124930Y352521D02*
Y362221D01*
X98490Y363721D02*
X123430D01*
X98490Y351021D02*
X123430D01*
X124928Y417041D02*
Y426741D01*
X96988Y417041D02*
Y426741D01*
X98488Y415541D02*
X123428D01*
X98488Y428241D02*
X123428D01*
X96990Y434329D02*
Y444029D01*
X124930Y434329D02*
Y444029D01*
X98490Y445529D02*
X123430D01*
X98490Y432829D02*
X123430D01*
X227312Y347246D02*
X234171Y354105D01*
X247069Y327489D02*
X253928Y334348D01*
X236293Y354105D02*
X253928Y336470D01*
X227312Y345125D02*
X244948Y327489D01*
X689363Y486317D02*
Y496017D01*
X717303Y486317D02*
Y496017D01*
X690863Y497517D02*
X715803D01*
X690863Y484817D02*
X715803D01*
X250019Y391304D02*
X256878Y384445D01*
X230262Y371548D02*
X237121Y364689D01*
X239242D02*
X256878Y382324D01*
X230262Y373669D02*
X247897Y391304D01*
X456540Y241893D02*
X466240D01*
X456540Y269833D02*
X466240D01*
X455040Y243393D02*
Y268333D01*
X467740Y243393D02*
Y268333D01*
X341906Y449107D02*
X351606D01*
X341906Y477047D02*
X351606D01*
X340406Y450607D02*
Y475547D01*
X353106Y450607D02*
Y475547D01*
X324750Y477043D02*
X334450D01*
X324750Y449103D02*
X334450D01*
X335950Y450603D02*
Y475543D01*
X323250Y450603D02*
Y475543D01*
X306639Y319521D02*
Y329221D01*
X278699Y319521D02*
Y329221D01*
X280199Y318021D02*
X305139D01*
X280199Y330721D02*
X305139D01*
X278700Y333830D02*
Y343530D01*
X306640Y333830D02*
Y343530D01*
X280200Y345030D02*
X305140D01*
X280200Y332330D02*
X305140D01*
X303007Y377433D02*
X309866Y384292D01*
X283250Y397189D02*
X290109Y404048D01*
X283250Y395068D02*
X300886Y377433D01*
X292230Y404048D02*
X309866Y386413D01*
X273125Y387258D02*
X279983Y394117D01*
X292881Y367502D02*
X299740Y374361D01*
X282105Y394117D02*
X299740Y376482D01*
X273125Y385137D02*
X290760Y367502D01*
X384781Y607033D02*
Y616733D01*
X356841Y607033D02*
Y616733D01*
X358341Y605533D02*
X383281D01*
X358341Y618233D02*
X383281D01*
X251464Y607033D02*
Y616733D01*
X223524Y607033D02*
Y616733D01*
X225024Y605533D02*
X249964D01*
X225024Y618233D02*
X249964D01*
X400781Y622273D02*
Y631973D01*
X372841Y622273D02*
Y631973D01*
X374341Y620773D02*
X399281D01*
X374341Y633473D02*
X399281D01*
X267464Y622273D02*
Y631973D01*
X239524Y622273D02*
Y631973D01*
X241024Y620773D02*
X265964D01*
X241024Y633473D02*
X265964D01*
X404127Y575405D02*
Y585104D01*
X432067Y575405D02*
Y585104D01*
X405627Y586604D02*
X430567D01*
X405627Y573904D02*
X430567D01*
X172064Y575405D02*
Y585104D01*
X200004Y575405D02*
Y585104D01*
X173564Y586604D02*
X198504D01*
X173564Y573904D02*
X198504D01*
X340843Y622269D02*
Y631969D01*
X368783Y622269D02*
Y631969D01*
X342343Y633469D02*
X367283D01*
X342343Y620769D02*
X367283D01*
X207526Y622273D02*
Y631973D01*
X235466Y622273D02*
Y631973D01*
X209026Y633473D02*
X233966D01*
X209026Y620773D02*
X233966D01*
X474353Y507348D02*
X484053D01*
X474353Y535288D02*
X484053D01*
X472853Y508848D02*
Y533788D01*
X485553Y508848D02*
Y533788D01*
X242290Y507348D02*
X251991D01*
X242290Y535288D02*
X251991D01*
X240791Y508848D02*
Y533788D01*
X253491Y508848D02*
Y533788D01*
X490022Y507348D02*
X499722D01*
X490022Y535288D02*
X499722D01*
X488522Y508848D02*
Y533788D01*
X501222Y508848D02*
Y533788D01*
X257960Y507348D02*
X267660D01*
X257960Y535288D02*
X267660D01*
X256460Y508848D02*
Y533788D01*
X269160Y508848D02*
Y533788D01*
X241931Y569086D02*
X251630D01*
X241931Y541146D02*
X251630D01*
X253130Y542645D02*
Y567585D01*
X240431Y542645D02*
Y567585D01*
X172865Y569086D02*
X182565D01*
X172865Y541146D02*
X182565D01*
X184065Y542645D02*
Y567585D01*
X171365Y542645D02*
Y567585D01*
X389392Y535286D02*
X399092D01*
X389392Y507346D02*
X399092D01*
X400592Y508846D02*
Y533786D01*
X387892Y508846D02*
Y533786D01*
X404928Y507348D02*
X414628D01*
X404928Y535288D02*
X414628D01*
X403428Y508848D02*
Y533788D01*
X416128Y508848D02*
Y533788D01*
X157330Y535286D02*
X167030D01*
X157330Y507346D02*
X167030D01*
X168530Y508846D02*
Y533786D01*
X155830Y508846D02*
Y533786D01*
X172865Y507348D02*
X182565D01*
X172865Y535288D02*
X182565D01*
X171365Y508848D02*
Y533788D01*
X184065Y508848D02*
Y533788D01*
X257960Y569086D02*
X267660D01*
X257960Y541146D02*
X267660D01*
X269160Y542645D02*
Y567585D01*
X256460Y542645D02*
Y567585D01*
X157210Y569086D02*
X166910D01*
X157210Y541146D02*
X166910D01*
X168410Y542645D02*
Y567585D01*
X155710Y542645D02*
Y567585D01*
X357962Y569086D02*
X367662D01*
X357962Y541146D02*
X367662D01*
X369162Y542645D02*
Y567585D01*
X356462Y542645D02*
Y567585D01*
X288896Y569086D02*
X298596D01*
X288896Y541146D02*
X298596D01*
X300096Y542645D02*
Y567585D01*
X287396Y542645D02*
Y567585D01*
X373991Y569086D02*
X383691D01*
X373991Y541146D02*
X383691D01*
X385191Y542645D02*
Y567585D01*
X372491Y542645D02*
Y567585D01*
X273241Y569086D02*
X282941D01*
X273241Y541146D02*
X282941D01*
X284441Y542645D02*
Y567585D01*
X271741Y542645D02*
Y567585D01*
X184002Y607795D02*
Y617495D01*
X156062Y607795D02*
Y617495D01*
X157563Y606295D02*
X182502D01*
X157563Y618995D02*
X182502D01*
X316279Y607033D02*
Y616733D01*
X288339Y607033D02*
Y616733D01*
X289839Y605533D02*
X314779D01*
X289839Y618233D02*
X314779D01*
X332279Y622269D02*
Y631969D01*
X304339Y622269D02*
Y631969D01*
X305839Y620769D02*
X330779D01*
X305839Y633469D02*
X330779D01*
X200002Y622273D02*
Y631973D01*
X172062Y622273D02*
Y631973D01*
X173563Y620773D02*
X198503D01*
X173563Y633473D02*
X198503D01*
X288095Y575405D02*
Y585104D01*
X316035Y575405D02*
Y585104D01*
X289595Y586604D02*
X314535D01*
X289595Y573904D02*
X314535D01*
X56033Y575405D02*
Y585104D01*
X83973Y575405D02*
Y585104D01*
X57533Y586604D02*
X82473D01*
X57533Y573904D02*
X82473D01*
X272341Y622273D02*
Y631973D01*
X300280Y622273D02*
Y631973D01*
X273841Y633473D02*
X298780D01*
X273841Y620773D02*
X298780D01*
X140064Y622273D02*
Y631973D01*
X168004Y622273D02*
Y631973D01*
X141564Y633473D02*
X166504D01*
X141564Y620773D02*
X166504D01*
X358322Y507348D02*
X368022D01*
X358322Y535288D02*
X368022D01*
X356822Y508848D02*
Y533788D01*
X369522Y508848D02*
Y533788D01*
X126259Y507348D02*
X135959D01*
X126259Y535288D02*
X135959D01*
X124759Y508848D02*
Y533788D01*
X137459Y508848D02*
Y533788D01*
X373991Y507348D02*
X383691D01*
X373991Y535288D02*
X383691D01*
X372491Y508848D02*
Y533788D01*
X385191Y508848D02*
Y533788D01*
X141929Y507348D02*
X151629D01*
X141929Y535288D02*
X151629D01*
X140428Y508848D02*
Y533788D01*
X153128Y508848D02*
Y533788D01*
X473993Y569086D02*
X483693D01*
X473993Y541146D02*
X483693D01*
X485193Y542645D02*
Y567585D01*
X472493Y542645D02*
Y567585D01*
X125899Y569086D02*
X135599D01*
X125899Y541146D02*
X135599D01*
X137099Y542645D02*
Y567585D01*
X124399Y542645D02*
Y567585D01*
X273361Y535286D02*
X283061D01*
X273361Y507346D02*
X283061D01*
X284561Y508846D02*
Y533786D01*
X271861Y508846D02*
Y533786D01*
X288896Y507348D02*
X298596D01*
X288896Y535288D02*
X298596D01*
X287396Y508848D02*
Y533788D01*
X300096Y508848D02*
Y533788D01*
X41298Y535286D02*
X50999D01*
X41298Y507346D02*
X50999D01*
X52498Y508846D02*
Y533786D01*
X39799Y508846D02*
Y533786D01*
X56834Y507348D02*
X66534D01*
X56834Y535288D02*
X66534D01*
X55334Y508848D02*
Y533788D01*
X68034Y508848D02*
Y533788D01*
X404928Y569086D02*
X414628D01*
X404928Y541146D02*
X414628D01*
X416128Y542645D02*
Y567585D01*
X403428Y542645D02*
Y567585D01*
X56834Y569086D02*
X66534D01*
X56834Y541146D02*
X66534D01*
X68034Y542645D02*
Y567585D01*
X55334Y542645D02*
Y567585D01*
X490022Y569086D02*
X499722D01*
X490022Y541146D02*
X499722D01*
X501222Y542645D02*
Y567585D01*
X488522Y542645D02*
Y567585D01*
X141929Y569086D02*
X151629D01*
X141929Y541146D02*
X151629D01*
X153128Y542645D02*
Y567585D01*
X140428Y542645D02*
Y567585D01*
X389272Y569086D02*
X398972D01*
X389272Y541146D02*
X398972D01*
X400472Y542645D02*
Y567585D01*
X387772Y542645D02*
Y567585D01*
X41178Y569086D02*
X50879D01*
X41178Y541146D02*
X50879D01*
X52379Y542645D02*
Y567585D01*
X39678Y542645D02*
Y567585D01*
X551166Y120108D02*
Y129808D01*
X579106Y120108D02*
Y129808D01*
X552666Y131308D02*
X577606D01*
X552666Y118608D02*
X577606D01*
X583548Y120764D02*
Y130464D01*
X611488Y120764D02*
Y130464D01*
X585048Y131964D02*
X609988D01*
X585048Y119264D02*
X609988D01*
X579459Y420156D02*
Y429856D01*
X551519Y420156D02*
Y429856D01*
X553019Y418656D02*
X577959D01*
X553019Y431356D02*
X577959D01*
X547223Y420156D02*
Y429856D01*
X519283Y420156D02*
Y429856D01*
X520783Y418656D02*
X545723D01*
X520783Y431356D02*
X545723D01*
X611999Y312652D02*
Y322352D01*
X584059Y312652D02*
Y322352D01*
X585559Y311152D02*
X610499D01*
X585559Y323852D02*
X610499D01*
X580377Y312652D02*
Y322352D01*
X552437Y312652D02*
Y322352D01*
X553937Y311152D02*
X578877D01*
X553937Y323852D02*
X578877D01*
X676512Y312652D02*
Y322352D01*
X648572Y312652D02*
Y322352D01*
X650072Y311152D02*
X675012D01*
X650072Y323852D02*
X675012D01*
X644637Y312652D02*
Y322352D01*
X616697Y312652D02*
Y322352D01*
X618196Y311152D02*
X643137D01*
X618196Y323852D02*
X643137D01*
X584334Y420156D02*
Y429856D01*
X612274Y420156D02*
Y429856D01*
X585834Y431356D02*
X610774D01*
X585834Y418656D02*
X610774D01*
X617147Y420156D02*
Y429856D01*
X645087Y420156D02*
Y429856D01*
X618647Y431356D02*
X643587D01*
X618647Y418656D02*
X643587D01*
X676250Y120764D02*
Y130464D01*
X648310Y120764D02*
Y130464D01*
X649810Y119264D02*
X674750D01*
X649810Y131964D02*
X674750D01*
X643868Y120764D02*
Y130464D01*
X615928Y120764D02*
Y130464D01*
X617428Y119264D02*
X642368D01*
X617428Y131964D02*
X642368D01*
X599564Y634436D02*
X609264D01*
X599564Y606496D02*
X609264D01*
X610764Y607996D02*
Y632936D01*
X598064Y607996D02*
Y632936D01*
X618427Y474852D02*
X628127D01*
X618427Y502792D02*
X628127D01*
X616927Y476352D02*
Y501292D01*
X629627Y476352D02*
Y501292D01*
X544338Y634436D02*
X554038D01*
X544338Y606496D02*
X554038D01*
X555538Y607996D02*
Y632936D01*
X542838Y607996D02*
Y632936D01*
X562533Y474852D02*
X572233D01*
X562533Y502792D02*
X572233D01*
X561033Y476352D02*
Y501292D01*
X573733Y476352D02*
Y501292D01*
X654789Y507348D02*
X664489D01*
X654789Y535288D02*
X664489D01*
X653289Y508848D02*
Y533788D01*
X665989Y508848D02*
Y533788D01*
X654789Y634436D02*
X664489D01*
X654789Y606496D02*
X664489D01*
X665989Y607996D02*
Y632936D01*
X653289Y607996D02*
Y632936D01*
X654789Y602070D02*
X664489D01*
X654789Y574130D02*
X664489D01*
X665989Y575630D02*
Y600570D01*
X653289Y575630D02*
Y600570D01*
X654789Y541315D02*
X664489D01*
X654789Y569255D02*
X664489D01*
X653289Y542815D02*
Y567755D01*
X665989Y542815D02*
Y567755D01*
X506640Y474852D02*
X516339D01*
X506640Y502792D02*
X516339D01*
X505140Y476352D02*
Y501292D01*
X517840Y476352D02*
Y501292D01*
X506623Y507348D02*
X516323D01*
X506623Y535288D02*
X516323D01*
X505123Y508848D02*
Y533788D01*
X517823Y508848D02*
Y533788D01*
X506623Y602070D02*
X516323D01*
X506623Y574130D02*
X516323D01*
X517823Y575630D02*
Y600570D01*
X505123Y575630D02*
Y600570D01*
X506623Y569254D02*
X516323D01*
X506623Y541314D02*
X516323D01*
X517823Y542814D02*
Y567754D01*
X505123Y542814D02*
Y567754D01*
X709739Y292746D02*
Y302446D01*
X681799Y292746D02*
Y302446D01*
X683299Y291246D02*
X708239D01*
X683299Y303946D02*
X708239D01*
X709739Y249976D02*
Y259676D01*
X681799Y249976D02*
Y259676D01*
X683299Y248476D02*
X708239D01*
X683299Y261176D02*
X708239D01*
X109153Y263966D02*
X118853D01*
X109153Y236026D02*
X118853D01*
X120353Y237526D02*
Y262466D01*
X107653Y237526D02*
Y262466D01*
X127109Y263966D02*
X136809D01*
X127109Y236026D02*
X136809D01*
X138309Y237526D02*
Y262466D01*
X125609Y237526D02*
Y262466D01*
X278160Y164028D02*
X287860D01*
X278160Y191968D02*
X287860D01*
X276660Y165528D02*
Y190468D01*
X289360Y165528D02*
Y190468D01*
X440675Y120108D02*
Y129808D01*
X468615Y120108D02*
Y129808D01*
X442175Y131308D02*
X467115D01*
X442175Y118608D02*
X467115D01*
X472699Y120108D02*
Y129808D01*
X500639Y120108D02*
Y129808D01*
X474199Y131308D02*
X499139D01*
X474199Y118608D02*
X499139D01*
X278160Y199778D02*
X287860D01*
X278160Y227718D02*
X287860D01*
X276660Y201278D02*
Y226218D01*
X289360Y201278D02*
Y226218D01*
X287678Y143897D02*
Y153597D01*
X259738Y143897D02*
Y153597D01*
X261238Y142397D02*
X286178D01*
X261238Y155097D02*
X286178D01*
X155565Y227717D02*
X165265D01*
X155565Y199777D02*
X165265D01*
X166765Y201277D02*
Y226217D01*
X154065Y201277D02*
Y226217D01*
X436588Y120108D02*
Y129808D01*
X408648Y120108D02*
Y129808D01*
X410148Y118608D02*
X435088D01*
X410148Y131308D02*
X435088D01*
X404564Y120108D02*
Y129808D01*
X376624Y120108D02*
Y129808D01*
X378124Y118608D02*
X403064D01*
X378124Y131308D02*
X403064D01*
X155403Y191966D02*
X165103D01*
X155403Y164026D02*
X165103D01*
X166603Y165526D02*
Y190466D01*
X153903Y165526D02*
Y190466D01*
X40014Y688479D02*
Y698179D01*
X67954Y688479D02*
Y698179D01*
X41514Y699679D02*
X66454D01*
X41514Y686979D02*
X66454D01*
X39893Y135750D02*
Y145450D01*
X67833Y135750D02*
Y145450D01*
X41393Y146950D02*
X66333D01*
X41393Y134250D02*
X66333D01*
X40014Y655147D02*
Y664847D01*
X67954Y655147D02*
Y664847D01*
X41514Y666347D02*
X66454D01*
X41514Y653647D02*
X66454D01*
X40034Y100147D02*
Y109847D01*
X67974Y100147D02*
Y109847D01*
X41534Y111347D02*
X66474D01*
X41534Y98647D02*
X66474D01*
X472972Y242149D02*
X482672D01*
X472972Y270089D02*
X482672D01*
X471472Y243649D02*
Y268589D01*
X484172Y243649D02*
Y268589D01*
X172515Y465741D02*
X197455D01*
X172515Y478441D02*
X197455D01*
X198955Y467241D02*
Y476941D01*
X171015Y467241D02*
Y476941D01*
X136605Y389465D02*
X161545D01*
X136605Y402165D02*
X161545D01*
X163045Y390965D02*
Y400665D01*
X135105Y390965D02*
Y400665D01*
X172423Y371251D02*
X197363D01*
X172423Y383951D02*
X197363D01*
X198863Y372751D02*
Y382451D01*
X170923Y372751D02*
Y382451D01*
X136605Y407459D02*
X161545D01*
X136605Y420159D02*
X161545D01*
X163045Y408959D02*
Y418659D01*
X135105Y408959D02*
Y418659D01*
X172407Y365782D02*
X197347D01*
X172407Y353082D02*
X197347D01*
X170907Y354582D02*
Y364282D01*
X198847Y354582D02*
Y364282D01*
X172423Y460347D02*
X197363D01*
X172423Y447647D02*
X197363D01*
X170923Y449147D02*
Y458847D01*
X198863Y449147D02*
Y458847D01*
X172513Y420159D02*
X197453D01*
X172513Y407459D02*
X197453D01*
X171013Y408959D02*
Y418659D01*
X198953Y408959D02*
Y418659D01*
X172513Y401928D02*
X197453D01*
X172513Y389229D02*
X197453D01*
X171013Y390728D02*
Y400429D01*
X198953Y390728D02*
Y400429D01*
X317950Y280719D02*
Y305659D01*
X305250Y280719D02*
Y305659D01*
X306749Y307159D02*
X316450D01*
X306749Y279219D02*
X316450D01*
X299412Y280719D02*
Y305659D01*
X286712Y280719D02*
Y305659D01*
X288212Y307159D02*
X297912D01*
X288212Y279219D02*
X297912D01*
X280875Y280719D02*
Y305659D01*
X268175Y280719D02*
Y305659D01*
X269675Y307159D02*
X279375D01*
X269675Y279219D02*
X279375D01*
X691033Y510200D02*
X715973D01*
X691033Y522900D02*
X715973D01*
X717473Y511700D02*
Y521400D01*
X689533Y511700D02*
Y521400D01*
X206977Y280719D02*
Y305659D01*
X194277Y280719D02*
Y305659D01*
X195777Y307159D02*
X205477D01*
X195777Y279219D02*
X205477D01*
X225800Y280719D02*
Y305659D01*
X213100Y280719D02*
Y305659D01*
X214600Y307159D02*
X224300D01*
X214600Y279219D02*
X224300D01*
X403200Y450694D02*
Y475634D01*
X390499Y450694D02*
Y475634D01*
X392000Y477134D02*
X401700D01*
X392000Y449194D02*
X401700D01*
X373370Y450692D02*
Y475632D01*
X386070Y450692D02*
Y475632D01*
X374870Y449192D02*
X384570D01*
X374870Y477132D02*
X384570D01*
X690859Y589047D02*
X715799D01*
X690859Y601747D02*
X715799D01*
X717299Y590547D02*
Y600247D01*
X689359Y590547D02*
Y600247D01*
X690859Y672081D02*
X715799D01*
X690859Y684781D02*
X715799D01*
X717299Y673581D02*
Y683281D01*
X689359Y673581D02*
Y683281D01*
X690859Y697024D02*
X715799D01*
X690859Y709724D02*
X715799D01*
X717299Y698524D02*
Y708224D01*
X689359Y698524D02*
Y708224D01*
X690859Y536482D02*
X715799D01*
X690859Y549182D02*
X715799D01*
X717299Y537982D02*
Y547682D01*
X689359Y537982D02*
Y547682D01*
X690859Y562764D02*
X715799D01*
X690859Y575464D02*
X715799D01*
X717299Y564264D02*
Y573964D01*
X689359Y564264D02*
Y573964D01*
X423139Y667446D02*
X448079D01*
X423139Y654746D02*
X448079D01*
X421639Y656246D02*
Y665946D01*
X449579Y656246D02*
Y665946D01*
X423139Y648809D02*
X448079D01*
X423139Y636109D02*
X448079D01*
X421639Y637609D02*
Y647309D01*
X449579Y637609D02*
Y647309D01*
X423139Y704720D02*
X448079D01*
X423139Y692020D02*
X448079D01*
X421639Y693520D02*
Y703220D01*
X449579Y693520D02*
Y703220D01*
X423139Y686083D02*
X448079D01*
X423139Y673383D02*
X448079D01*
X421639Y674883D02*
Y684583D01*
X449579Y674883D02*
Y684583D01*
X423139Y741994D02*
X448079D01*
X423139Y729295D02*
X448079D01*
X421639Y730795D02*
Y740495D01*
X449579Y730795D02*
Y740495D01*
X423139Y723357D02*
X448079D01*
X423139Y710657D02*
X448079D01*
X421639Y712157D02*
Y721857D01*
X449579Y712157D02*
Y721857D01*
X423139Y779269D02*
X448079D01*
X423139Y766569D02*
X448079D01*
X421639Y768069D02*
Y777769D01*
X449579Y768069D02*
Y777769D01*
X423139Y760632D02*
X448079D01*
X423139Y747932D02*
X448079D01*
X421639Y749432D02*
Y759132D01*
X449579Y749432D02*
Y759132D01*
X317950Y450104D02*
Y475044D01*
X305250Y450104D02*
Y475044D01*
X306749Y476544D02*
X316450D01*
X306749Y448604D02*
X316450D01*
X317950Y414140D02*
Y439080D01*
X305250Y414140D02*
Y439080D01*
X306749Y440580D02*
X316450D01*
X306749Y412640D02*
X316450D01*
X280875Y450101D02*
Y475041D01*
X268175Y450101D02*
Y475041D01*
X269675Y476540D02*
X279375D01*
X269675Y448601D02*
X279375D01*
X280875Y414140D02*
Y439080D01*
X268175Y414140D02*
Y439080D01*
X269675Y440580D02*
X279375D01*
X269675Y412640D02*
X279375D01*
X299412Y450101D02*
Y475041D01*
X286712Y450101D02*
Y475041D01*
X288212Y476540D02*
X297912D01*
X288212Y448601D02*
X297912D01*
X299412Y414140D02*
Y439080D01*
X286712Y414140D02*
Y439080D01*
X288212Y440580D02*
X297912D01*
X288212Y412640D02*
X297912D01*
X262338Y414764D02*
Y439704D01*
X249638Y414764D02*
Y439704D01*
X251138Y441204D02*
X260838D01*
X251138Y413264D02*
X260838D01*
X262338Y450101D02*
Y475041D01*
X249638Y450101D02*
Y475041D01*
X251138Y476540D02*
X260838D01*
X251138Y448601D02*
X260838D01*
X520533Y366494D02*
X545473D01*
X520533Y353794D02*
X545473D01*
X519033Y355294D02*
Y364994D01*
X546973Y355294D02*
Y364994D01*
X520533Y345173D02*
X545473D01*
X520533Y332473D02*
X545473D01*
X519033Y333973D02*
Y343673D01*
X546973Y333973D02*
Y343673D01*
X520533Y238568D02*
X545473D01*
X520533Y225868D02*
X545473D01*
X519033Y227369D02*
Y237069D01*
X546973Y227369D02*
Y237069D01*
X520533Y217248D02*
X545473D01*
X520533Y204548D02*
X545473D01*
X519033Y206048D02*
Y215748D01*
X546973Y206048D02*
Y215748D01*
X520533Y174606D02*
X545473D01*
X520533Y161906D02*
X545473D01*
X519033Y163406D02*
Y173106D01*
X546973Y163406D02*
Y173106D01*
X520533Y153285D02*
X545473D01*
X520533Y140585D02*
X545473D01*
X519033Y142085D02*
Y151785D01*
X546973Y142085D02*
Y151785D01*
X520533Y195927D02*
X545473D01*
X520533Y183227D02*
X545473D01*
X519033Y184727D02*
Y194427D01*
X546973Y184727D02*
Y194427D01*
X520025Y259889D02*
X544965D01*
X520025Y247189D02*
X544965D01*
X518525Y248689D02*
Y258389D01*
X546465Y248689D02*
Y258389D01*
X520533Y323852D02*
X545473D01*
X520533Y311152D02*
X545473D01*
X519033Y312652D02*
Y322352D01*
X546973Y312652D02*
Y322352D01*
X520533Y131309D02*
X545473D01*
X520533Y118609D02*
X545473D01*
X519033Y120109D02*
Y129809D01*
X546973Y120109D02*
Y129809D01*
X520533Y302531D02*
X545473D01*
X520533Y289831D02*
X545473D01*
X519033Y291331D02*
Y301031D01*
X546973Y291331D02*
Y301031D01*
X520533Y387814D02*
X545473D01*
X520533Y375115D02*
X545473D01*
X519033Y376614D02*
Y386315D01*
X546973Y376614D02*
Y386315D01*
X520533Y409135D02*
X545473D01*
X520533Y396435D02*
X545473D01*
X519033Y397935D02*
Y407635D01*
X546973Y397935D02*
Y407635D01*
X520025Y281210D02*
X544965D01*
X520025Y268510D02*
X544965D01*
X518525Y270010D02*
Y279710D01*
X546465Y270010D02*
Y279710D01*
X682442Y131965D02*
X707382D01*
X682442Y119265D02*
X707382D01*
X680942Y120765D02*
Y130465D01*
X708882Y120765D02*
Y130465D01*
X682442Y153350D02*
X707382D01*
X682442Y140650D02*
X707382D01*
X680942Y142150D02*
Y151850D01*
X708882Y142150D02*
Y151850D01*
X647188Y608247D02*
Y633187D01*
X634488Y608247D02*
Y633187D01*
X635988Y634688D02*
X645688D01*
X635988Y606748D02*
X645688D01*
X634659Y477119D02*
Y502059D01*
X647359Y477119D02*
Y502059D01*
X636159Y475619D02*
X645859D01*
X636159Y503559D02*
X645859D01*
X615572Y608246D02*
Y633186D01*
X628272Y608246D02*
Y633186D01*
X617072Y606746D02*
X626772D01*
X617072Y634686D02*
X626772D01*
X610096Y476742D02*
Y501682D01*
X597396Y476742D02*
Y501682D01*
X598896Y503182D02*
X608596D01*
X598896Y475242D02*
X608596D01*
X578755Y608246D02*
Y633186D01*
X591455Y608246D02*
Y633186D01*
X580255Y606746D02*
X589955D01*
X580255Y634686D02*
X589955D01*
X665990Y476742D02*
Y501682D01*
X653290Y476742D02*
Y501682D01*
X654790Y503182D02*
X664490D01*
X654790Y475242D02*
X664490D01*
X536230Y608247D02*
Y633187D01*
X523530Y608247D02*
Y633187D01*
X525030Y634688D02*
X534730D01*
X525030Y606748D02*
X534730D01*
X522871Y477119D02*
Y502059D01*
X535571Y477119D02*
Y502059D01*
X524371Y475619D02*
X534071D01*
X524371Y503559D02*
X534071D01*
X560347Y608246D02*
Y633186D01*
X573047Y608246D02*
Y633186D01*
X561847Y606746D02*
X571547D01*
X561847Y634686D02*
X571547D01*
X554202Y476742D02*
Y501682D01*
X541502Y476742D02*
Y501682D01*
X543002Y503182D02*
X552702D01*
X543002Y475242D02*
X552702D01*
X505121Y608246D02*
Y633186D01*
X517822Y608246D02*
Y633186D01*
X506622Y606746D02*
X516321D01*
X506622Y634686D02*
X516321D01*
X591465Y476742D02*
Y501682D01*
X578765Y476742D02*
Y501682D01*
X580265Y503182D02*
X589965D01*
X580265Y475242D02*
X589965D01*
X792927Y228891D02*
X817867D01*
X792927Y216191D02*
X817867D01*
X791427Y217691D02*
Y227391D01*
X819367Y217691D02*
Y227391D01*
X792927Y207506D02*
X817867D01*
X792927Y194806D02*
X817867D01*
X791427Y196306D02*
Y206006D01*
X819367Y196306D02*
Y206006D01*
X792927Y186120D02*
X817867D01*
X792927Y173421D02*
X817867D01*
X791427Y174921D02*
Y184620D01*
X819367Y174921D02*
Y184620D01*
X792929Y164736D02*
X817869D01*
X792929Y152036D02*
X817869D01*
X791429Y153535D02*
Y163235D01*
X819369Y153535D02*
Y163235D01*
X650699Y431356D02*
X675639D01*
X650699Y418656D02*
X675639D01*
X649199Y420156D02*
Y429856D01*
X677139Y420156D02*
Y429856D01*
X683533Y431356D02*
X708473D01*
X683533Y418656D02*
X708473D01*
X682033Y420156D02*
Y429856D01*
X709973Y420156D02*
Y429856D01*
X110608Y738647D02*
X135548D01*
X110608Y751347D02*
X135548D01*
X137048Y740147D02*
Y749847D01*
X109108Y740147D02*
Y749847D01*
X110533Y167647D02*
X135473D01*
X110533Y180347D02*
X135473D01*
X136973Y169147D02*
Y178847D01*
X109033Y169147D02*
Y178847D01*
X683722Y409971D02*
X708662D01*
X683722Y397271D02*
X708662D01*
X682222Y398771D02*
Y408471D01*
X710162Y398771D02*
Y408471D01*
X683722Y388586D02*
X708662D01*
X683722Y375886D02*
X708662D01*
X682222Y377386D02*
Y387086D01*
X710162Y377386D02*
Y387086D01*
X110783Y732147D02*
X135723D01*
X110783Y719447D02*
X135723D01*
X109283Y720947D02*
Y730647D01*
X137223Y720947D02*
Y730647D01*
X110662Y162251D02*
X135602D01*
X110662Y149551D02*
X135602D01*
X109162Y151051D02*
Y160751D01*
X137102Y151051D02*
Y160751D01*
X683533Y345816D02*
X708473D01*
X683533Y333116D02*
X708473D01*
X682033Y334616D02*
Y344316D01*
X709973Y334616D02*
Y344316D01*
X41762Y682791D02*
X66702D01*
X41762Y670091D02*
X66702D01*
X40262Y671591D02*
Y681291D01*
X68202Y671591D02*
Y681291D01*
X42533Y129347D02*
X67473D01*
X42533Y116647D02*
X67473D01*
X41033Y118147D02*
Y127847D01*
X68973Y118147D02*
Y127847D01*
X683533Y367201D02*
X708473D01*
X683533Y354501D02*
X708473D01*
X682033Y356001D02*
Y365701D01*
X709973Y356001D02*
Y365701D01*
X683722Y324431D02*
X708662D01*
X683722Y311731D02*
X708662D01*
X682222Y313231D02*
Y322931D01*
X710162Y313231D02*
Y322931D01*
X683549Y281661D02*
X708489D01*
X683549Y268961D02*
X708489D01*
X682049Y270461D02*
Y280161D01*
X709989Y270461D02*
Y280161D01*
X683549Y238891D02*
X708489D01*
X683549Y226191D02*
X708489D01*
X682049Y227691D02*
Y237391D01*
X709989Y227691D02*
Y237391D01*
X683549Y217506D02*
X708489D01*
X683549Y204806D02*
X708489D01*
X682049Y206306D02*
Y216006D01*
X709989Y206306D02*
Y216006D01*
X683549Y196120D02*
X708489D01*
X683549Y183421D02*
X708489D01*
X682049Y184921D02*
Y194620D01*
X709989Y184921D02*
Y194620D01*
X683549Y174736D02*
X708489D01*
X683549Y162036D02*
X708489D01*
X682049Y163535D02*
Y173235D01*
X709989Y163535D02*
Y173235D01*
X259023Y165276D02*
Y190216D01*
X271723Y165276D02*
Y190216D01*
X260523Y163776D02*
X270223D01*
X260523Y191716D02*
X270223D01*
X110783Y681047D02*
X135723D01*
X110783Y693747D02*
X135723D01*
X137223Y682547D02*
Y692247D01*
X109283Y682547D02*
Y692247D01*
X110783Y712947D02*
X135723D01*
X110783Y700247D02*
X135723D01*
X109283Y701747D02*
Y711447D01*
X137223Y701747D02*
Y711447D01*
X110662Y113359D02*
X135602D01*
X110662Y126059D02*
X135602D01*
X137102Y114859D02*
Y124559D01*
X109162Y114859D02*
Y124559D01*
X110662Y144155D02*
X135602D01*
X110662Y131455D02*
X135602D01*
X109162Y132955D02*
Y142655D01*
X137102Y132955D02*
Y142655D01*
X110405Y642647D02*
X135345D01*
X110405Y655347D02*
X135345D01*
X136845Y644147D02*
Y653847D01*
X108905Y644147D02*
Y653847D01*
X259023Y201527D02*
Y226467D01*
X271723Y201527D02*
Y226467D01*
X260523Y200027D02*
X270223D01*
X260523Y227967D02*
X270223D01*
X110285Y77168D02*
X135225D01*
X110285Y89868D02*
X135225D01*
X136725Y78668D02*
Y88368D01*
X108785Y78668D02*
Y88368D01*
X110783Y674547D02*
X135723D01*
X110783Y661847D02*
X135723D01*
X109283Y663347D02*
Y673047D01*
X137223Y663347D02*
Y673047D01*
X172117Y201527D02*
Y226467D01*
X184817Y201527D02*
Y226467D01*
X173617Y200027D02*
X183317D01*
X173617Y227967D02*
X183317D01*
X110662Y107964D02*
X135602D01*
X110662Y95264D02*
X135602D01*
X109162Y96764D02*
Y106464D01*
X137102Y96764D02*
Y106464D01*
D12*
X82031Y422963D02*
G03*
X82031Y422963I-1778J0D01*
G01*
Y337737D02*
G03*
X82031Y337737I-1778J0D01*
G01*
X501781Y637497D02*
G03*
X501781Y637497I-1778J0D01*
G01*
X191781Y637497D02*
G03*
X191781Y637497I-1778J0D01*
G01*
X221326Y204341D02*
Y224512D01*
X64678Y739032D02*
Y759203D01*
X64558Y186303D02*
Y206474D01*
X480063Y181570D02*
X500234D01*
X379479D02*
X399650D01*
X113097Y206826D02*
X133268D01*
X64362Y629524D02*
Y649695D01*
X112664Y51821D02*
Y71992D01*
X77576Y179039D02*
X77660Y152122D01*
X77696Y731768D02*
X77781Y704851D01*
X268195Y136175D02*
X268279Y109258D01*
D13*
X255453Y151947D02*
G03*
X255453Y151947I-1000J0D01*
G01*
X616779Y138500D02*
G03*
X610683Y138500I-3048J0D01*
G01*
X725253Y98547D02*
X774753D01*
X725253Y281447D02*
X774753D01*
X725253Y98547D02*
Y281447D01*
X774753Y98547D02*
Y281447D01*
X131672Y46842D02*
X134172D01*
X113172D02*
X115672D01*
X113172Y22842D02*
X115672D01*
X125672D02*
X134172D01*
X47030Y150957D02*
X92730D01*
X47030Y180257D02*
X92730D01*
X386993Y660458D02*
Y664958D01*
Y638958D02*
Y643458D01*
Y638958D02*
X403243D01*
X386993Y664958D02*
X403243D01*
X386993Y697696D02*
Y702196D01*
Y676196D02*
Y680696D01*
Y676196D02*
X403243D01*
X386993Y702196D02*
X403243D01*
X386993Y734934D02*
Y739434D01*
Y713434D02*
Y717934D01*
Y713434D02*
X403243D01*
X386993Y739434D02*
X403243D01*
X386993Y776672D02*
X403243D01*
X386993Y750672D02*
X403243D01*
X386993D02*
Y755172D01*
Y772172D02*
Y776672D01*
X775003Y747999D02*
X829190D01*
X775257Y739532D02*
X829190D01*
X833423Y743765D01*
X829190Y747999D02*
X833423Y743765D01*
X775257Y722599D02*
X829190D01*
X775257Y714132D02*
X829190D01*
X775003Y697199D02*
X829190D01*
X775257Y688732D02*
X829190D01*
X833423Y692965D01*
X829190Y722599D02*
X833423Y718365D01*
X829190Y714132D02*
X833423Y718365D01*
X829190Y697199D02*
X833423Y692965D01*
X775257Y671799D02*
X829190D01*
X775257Y663332D02*
X829190D01*
X775003Y646399D02*
X829190D01*
X775257Y637932D02*
X829190D01*
X775003Y629465D02*
Y756465D01*
X749603D02*
X775003D01*
X749603Y629465D02*
X775003D01*
X749603D02*
Y756465D01*
X750026Y634122D02*
X754260Y629889D01*
X829190Y637932D02*
X833423Y642165D01*
X829190Y671799D02*
X833423Y667565D01*
X829190Y663332D02*
X833423Y667565D01*
X829190Y646399D02*
X833423Y642165D01*
X775003Y599630D02*
X829190D01*
X775257Y591164D02*
X829190D01*
X833423Y595397D01*
X829190Y599630D02*
X833423Y595397D01*
X775257Y574230D02*
X829190D01*
X775257Y565763D02*
X829190D01*
X775003Y548830D02*
X829190D01*
X775257Y540364D02*
X829190D01*
X775003Y531897D02*
Y608097D01*
X749603D02*
X775003D01*
X749603Y531897D02*
X775003D01*
X749603D02*
Y608097D01*
X750026Y536553D02*
X754260Y532320D01*
X829190Y540364D02*
X833423Y544597D01*
X829190Y574230D02*
X833423Y569997D01*
X829190Y565763D02*
X833423Y569997D01*
X829190Y548830D02*
X833423Y544597D01*
X42253Y599497D02*
X44753D01*
X60753D02*
X63253D01*
X60753Y623497D02*
X63253D01*
X42253D02*
X50753D01*
X47151Y732986D02*
X92850D01*
X47151Y703686D02*
X92850D01*
X168131Y348871D02*
Y367871D01*
X137131Y348871D02*
Y367871D01*
X168131D01*
X137131Y348871D02*
X168131D01*
X168131Y442525D02*
Y461525D01*
X137131Y442525D02*
Y461525D01*
X168131D01*
X137131Y442525D02*
X168131D01*
X593431Y537592D02*
Y571092D01*
X644431Y537592D02*
Y571092D01*
X593431Y537592D02*
X644431D01*
X593431Y571092D02*
X644431D01*
X578391Y537592D02*
Y571092D01*
X527391Y537592D02*
Y571092D01*
X578391D01*
X527391Y537592D02*
X578391D01*
X232349Y284315D02*
Y301333D01*
X262349Y284442D02*
Y301206D01*
X472987Y166835D02*
Y197835D01*
X406987Y166835D02*
Y197835D01*
X472987D01*
X406987Y166835D02*
X472987D01*
X237649Y108094D02*
X283349D01*
X237649Y137394D02*
X283349D01*
X593731Y138392D02*
X633731D01*
X593731Y188392D02*
X633731D01*
X689305Y657903D02*
X705555D01*
X689305Y631903D02*
X705555D01*
X689305D02*
Y636403D01*
Y653403D02*
Y657903D01*
Y750105D02*
X705555D01*
X689305Y724105D02*
X705555D01*
X689305D02*
Y728605D01*
Y745605D02*
Y750105D01*
X123959Y386985D02*
Y403235D01*
X97959Y386985D02*
Y403235D01*
X102459D01*
X119459D02*
X123959D01*
X119459Y485715D02*
X123959D01*
X97959D02*
X102459D01*
X97959Y469465D02*
Y485715D01*
X123959Y469465D02*
Y485715D01*
D14*
X328930Y438150D02*
G03*
X328930Y438150I-762J0D01*
G01*
D15*
X608435Y295849D02*
G03*
X618018Y295717I4802J680D01*
G01*
D16*
X136381Y337871D02*
G03*
X136381Y337871I-1250J0D01*
G01*
X136381Y431525D02*
G03*
X136381Y431525I-1250J0D01*
G01*
X648731Y582592D02*
G03*
X648731Y582592I-1250J0D01*
G01*
X525591Y526092D02*
G03*
X525591Y526092I-1250J0D01*
G01*
X268074Y336707D02*
G03*
X268074Y336707I-1250J0D01*
G01*
X406837Y152085D02*
G03*
X406837Y152085I-1250J0D01*
G01*
X640443Y136976D02*
G03*
X640443Y136976I-1250J0D01*
G01*
X549253Y390997D02*
G03*
X549253Y390997I-1250J0D01*
G01*
D17*
X637431Y561092D02*
G03*
X637431Y561092I-3000J0D01*
G01*
X540391Y547592D02*
G03*
X540391Y547592I-3000J0D01*
G01*
D18*
X96531Y290007D02*
G03*
X96531Y290007I-1778J0D01*
G01*
D19*
X259504Y295364D02*
G03*
X259504Y295364I-1632J0D01*
G01*
D20*
X108636Y206751D02*
G03*
X108636Y206751I-10080J0D01*
G01*
X132581Y767496D02*
G03*
X132581Y767496I-10080J0D01*
G01*
X183715Y469551D02*
X186255D01*
X183715Y474631D02*
X186255D01*
Y469551D02*
Y474631D01*
X183715Y469551D02*
Y474631D01*
X147805Y393275D02*
X150345D01*
X147805Y398355D02*
X150345D01*
Y393275D02*
Y398355D01*
X147805Y393275D02*
Y398355D01*
X183623Y375061D02*
X186163D01*
X183623Y380141D02*
X186163D01*
Y375061D02*
Y380141D01*
X183623Y375061D02*
Y380141D01*
X147805Y411269D02*
X150345D01*
X147805Y416349D02*
X150345D01*
Y411269D02*
Y416349D01*
X147805Y411269D02*
Y416349D01*
X183607Y361972D02*
X186147D01*
X183607Y356892D02*
X186147D01*
X183607D02*
Y361972D01*
X186147Y356892D02*
Y361972D01*
X183623Y456537D02*
X186163D01*
X183623Y451457D02*
X186163D01*
X183623D02*
Y456537D01*
X186163Y451457D02*
Y456537D01*
X183713Y416349D02*
X186253D01*
X183713Y411269D02*
X186253D01*
X183713D02*
Y416349D01*
X186253Y411269D02*
Y416349D01*
X183713Y398119D02*
X186253D01*
X183713Y393038D02*
X186253D01*
X183713D02*
Y398119D01*
X186253Y393038D02*
Y398119D01*
X314139Y291919D02*
Y294459D01*
X309060Y291919D02*
Y294459D01*
X314139D01*
X309060Y291919D02*
X314139D01*
X295602D02*
Y294459D01*
X290522Y291919D02*
Y294459D01*
X295602D01*
X290522Y291919D02*
X295602D01*
X277065D02*
Y294459D01*
X271985Y291919D02*
Y294459D01*
X277065D01*
X271985Y291919D02*
X277065D01*
X702233Y514010D02*
X704773D01*
X702233Y519090D02*
X704773D01*
Y514010D02*
Y519090D01*
X702233Y514010D02*
Y519090D01*
X203167Y291919D02*
Y294459D01*
X198087Y291919D02*
Y294459D01*
X203167D01*
X198087Y291919D02*
X203167D01*
X221990D02*
Y294459D01*
X216910Y291919D02*
Y294459D01*
X221990D01*
X216910Y291919D02*
X221990D01*
X399389Y461894D02*
Y464434D01*
X394310Y461894D02*
Y464434D01*
X399389D01*
X394310Y461894D02*
X399389D01*
X377180Y461892D02*
Y464432D01*
X382260Y461892D02*
Y464432D01*
X377180Y461892D02*
X382260D01*
X377180Y464432D02*
X382260D01*
X702059Y592857D02*
X704599D01*
X702059Y597937D02*
X704599D01*
Y592857D02*
Y597937D01*
X702059Y592857D02*
Y597937D01*
Y675891D02*
X704599D01*
X702059Y680971D02*
X704599D01*
Y675891D02*
Y680971D01*
X702059Y675891D02*
Y680971D01*
Y700834D02*
X704599D01*
X702059Y705914D02*
X704599D01*
Y700834D02*
Y705914D01*
X702059Y700834D02*
Y705914D01*
Y540292D02*
X704599D01*
X702059Y545372D02*
X704599D01*
Y540292D02*
Y545372D01*
X702059Y540292D02*
Y545372D01*
Y566574D02*
X704599D01*
X702059Y571654D02*
X704599D01*
Y566574D02*
Y571654D01*
X702059Y566574D02*
Y571654D01*
X434339Y663636D02*
X436879D01*
X434339Y658556D02*
X436879D01*
X434339D02*
Y663636D01*
X436879Y658556D02*
Y663636D01*
X434339Y644999D02*
X436879D01*
X434339Y639919D02*
X436879D01*
X434339D02*
Y644999D01*
X436879Y639919D02*
Y644999D01*
X434339Y700910D02*
X436879D01*
X434339Y695830D02*
X436879D01*
X434339D02*
Y700910D01*
X436879Y695830D02*
Y700910D01*
X434339Y682273D02*
X436879D01*
X434339Y677193D02*
X436879D01*
X434339D02*
Y682273D01*
X436879Y677193D02*
Y682273D01*
X434339Y738185D02*
X436879D01*
X434339Y733104D02*
X436879D01*
X434339D02*
Y738185D01*
X436879Y733104D02*
Y738185D01*
X434339Y719547D02*
X436879D01*
X434339Y714467D02*
X436879D01*
X434339D02*
Y719547D01*
X436879Y714467D02*
Y719547D01*
X434339Y775459D02*
X436879D01*
X434339Y770379D02*
X436879D01*
X434339D02*
Y775459D01*
X436879Y770379D02*
Y775459D01*
X434339Y756822D02*
X436879D01*
X434339Y751742D02*
X436879D01*
X434339D02*
Y756822D01*
X436879Y751742D02*
Y756822D01*
X314139Y461304D02*
Y463844D01*
X309060Y461304D02*
Y463844D01*
X314139D01*
X309060Y461304D02*
X314139D01*
Y425340D02*
Y427880D01*
X309060Y425340D02*
Y427880D01*
X314139D01*
X309060Y425340D02*
X314139D01*
X277065Y461301D02*
Y463840D01*
X271985Y461301D02*
Y463840D01*
X277065D01*
X271985Y461301D02*
X277065D01*
Y425340D02*
Y427880D01*
X271985Y425340D02*
Y427880D01*
X277065D01*
X271985Y425340D02*
X277065D01*
X295602Y461301D02*
Y463840D01*
X290522Y461301D02*
Y463840D01*
X295602D01*
X290522Y461301D02*
X295602D01*
Y425340D02*
Y427880D01*
X290522Y425340D02*
Y427880D01*
X295602D01*
X290522Y425340D02*
X295602D01*
X258528Y425964D02*
Y428504D01*
X253448Y425964D02*
Y428504D01*
X258528D01*
X253448Y425964D02*
X258528D01*
Y461301D02*
Y463840D01*
X253448Y461301D02*
Y463840D01*
X258528D01*
X253448Y461301D02*
X258528D01*
X531733Y362684D02*
X534273D01*
X531733Y357604D02*
X534273D01*
X531733D02*
Y362684D01*
X534273Y357604D02*
Y362684D01*
X531733Y341363D02*
X534273D01*
X531733Y336283D02*
X534273D01*
X531733D02*
Y341363D01*
X534273Y336283D02*
Y341363D01*
X531733Y234758D02*
X534273D01*
X531733Y229678D02*
X534273D01*
X531733D02*
Y234758D01*
X534273Y229678D02*
Y234758D01*
X531733Y213438D02*
X534273D01*
X531733Y208358D02*
X534273D01*
X531733D02*
Y213438D01*
X534273Y208358D02*
Y213438D01*
X531733Y170796D02*
X534273D01*
X531733Y165716D02*
X534273D01*
X531733D02*
Y170796D01*
X534273Y165716D02*
Y170796D01*
X531733Y149475D02*
X534273D01*
X531733Y144395D02*
X534273D01*
X531733D02*
Y149475D01*
X534273Y144395D02*
Y149475D01*
X531733Y192117D02*
X534273D01*
X531733Y187037D02*
X534273D01*
X531733D02*
Y192117D01*
X534273Y187037D02*
Y192117D01*
X531225Y256079D02*
X533765D01*
X531225Y250999D02*
X533765D01*
X531225D02*
Y256079D01*
X533765Y250999D02*
Y256079D01*
X531733Y320042D02*
X534273D01*
X531733Y314962D02*
X534273D01*
X531733D02*
Y320042D01*
X534273Y314962D02*
Y320042D01*
X531733Y127499D02*
X534273D01*
X531733Y122419D02*
X534273D01*
X531733D02*
Y127499D01*
X534273Y122419D02*
Y127499D01*
X531733Y298721D02*
X534273D01*
X531733Y293641D02*
X534273D01*
X531733D02*
Y298721D01*
X534273Y293641D02*
Y298721D01*
X531733Y384005D02*
X534273D01*
X531733Y378924D02*
X534273D01*
X531733D02*
Y384005D01*
X534273Y378924D02*
Y384005D01*
X531733Y405325D02*
X534273D01*
X531733Y400245D02*
X534273D01*
X531733D02*
Y405325D01*
X534273Y400245D02*
Y405325D01*
X531225Y277400D02*
X533765D01*
X531225Y272320D02*
X533765D01*
X531225D02*
Y277400D01*
X533765Y272320D02*
Y277400D01*
X693642Y128155D02*
X696182D01*
X693642Y123075D02*
X696182D01*
X693642D02*
Y128155D01*
X696182Y123075D02*
Y128155D01*
X693642Y149540D02*
X696182D01*
X693642Y144460D02*
X696182D01*
X693642D02*
Y149540D01*
X696182Y144460D02*
Y149540D01*
X643378Y619448D02*
Y621987D01*
X638298Y619448D02*
Y621987D01*
X643378D01*
X638298Y619448D02*
X643378D01*
X638469Y488319D02*
Y490859D01*
X643549Y488319D02*
Y490859D01*
X638469Y488319D02*
X643549D01*
X638469Y490859D02*
X643549D01*
X619382Y619446D02*
Y621986D01*
X624462Y619446D02*
Y621986D01*
X619382Y619446D02*
X624462D01*
X619382Y621986D02*
X624462D01*
X606286Y487942D02*
Y490482D01*
X601206Y487942D02*
Y490482D01*
X606286D01*
X601206Y487942D02*
X606286D01*
X582565Y619446D02*
Y621986D01*
X587645Y619446D02*
Y621986D01*
X582565Y619446D02*
X587645D01*
X582565Y621986D02*
X587645D01*
X662180Y487942D02*
Y490482D01*
X657100Y487942D02*
Y490482D01*
X662180D01*
X657100Y487942D02*
X662180D01*
X532420Y619448D02*
Y621987D01*
X527340Y619448D02*
Y621987D01*
X532420D01*
X527340Y619448D02*
X532420D01*
X526681Y488319D02*
Y490859D01*
X531761Y488319D02*
Y490859D01*
X526681Y488319D02*
X531761D01*
X526681Y490859D02*
X531761D01*
X564157Y619446D02*
Y621986D01*
X569237Y619446D02*
Y621986D01*
X564157Y619446D02*
X569237D01*
X564157Y621986D02*
X569237D01*
X550392Y487942D02*
Y490482D01*
X545312Y487942D02*
Y490482D01*
X550392D01*
X545312Y487942D02*
X550392D01*
X508932Y619446D02*
Y621986D01*
X514011Y619446D02*
Y621986D01*
X508932Y619446D02*
X514011D01*
X508932Y621986D02*
X514011D01*
X587655Y487942D02*
Y490482D01*
X582575Y487942D02*
Y490482D01*
X587655D01*
X582575Y487942D02*
X587655D01*
X804127Y225081D02*
X806667D01*
X804127Y220001D02*
X806667D01*
X804127D02*
Y225081D01*
X806667Y220001D02*
Y225081D01*
X804127Y203696D02*
X806667D01*
X804127Y198616D02*
X806667D01*
X804127D02*
Y203696D01*
X806667Y198616D02*
Y203696D01*
X804127Y182311D02*
X806667D01*
X804127Y177230D02*
X806667D01*
X804127D02*
Y182311D01*
X806667Y177230D02*
Y182311D01*
X804129Y160926D02*
X806669D01*
X804129Y155845D02*
X806669D01*
X804129D02*
Y160926D01*
X806669Y155845D02*
Y160926D01*
X661899Y427546D02*
X664439D01*
X661899Y422466D02*
X664439D01*
X661899D02*
Y427546D01*
X664439Y422466D02*
Y427546D01*
X694733Y427546D02*
X697273D01*
X694733Y422466D02*
X697273D01*
X694733D02*
Y427546D01*
X697273Y422466D02*
Y427546D01*
X121808Y742457D02*
X124348D01*
X121808Y747537D02*
X124348D01*
Y742457D02*
Y747537D01*
X121808Y742457D02*
Y747537D01*
X121733Y171457D02*
X124273D01*
X121733Y176537D02*
X124273D01*
Y171457D02*
Y176537D01*
X121733Y171457D02*
Y176537D01*
X694922Y406161D02*
X697462D01*
X694922Y401081D02*
X697462D01*
X694922D02*
Y406161D01*
X697462Y401081D02*
Y406161D01*
X694922Y384776D02*
X697462D01*
X694922Y379696D02*
X697462D01*
X694922D02*
Y384776D01*
X697462Y379696D02*
Y384776D01*
X121983Y728337D02*
X124523D01*
X121983Y723257D02*
X124523D01*
X121983D02*
Y728337D01*
X124523Y723257D02*
Y728337D01*
X121862Y158441D02*
X124402D01*
X121862Y153361D02*
X124402D01*
X121862D02*
Y158441D01*
X124402Y153361D02*
Y158441D01*
X694733Y342006D02*
X697273D01*
X694733Y336926D02*
X697273D01*
X694733D02*
Y342006D01*
X697273Y336926D02*
Y342006D01*
X52962Y678981D02*
X55502D01*
X52962Y673901D02*
X55502D01*
X52962D02*
Y678981D01*
X55502Y673901D02*
Y678981D01*
X53733Y125537D02*
X56273D01*
X53733Y120457D02*
X56273D01*
X53733D02*
Y125537D01*
X56273Y120457D02*
Y125537D01*
X694733Y363391D02*
X697273D01*
X694733Y358311D02*
X697273D01*
X694733D02*
Y363391D01*
X697273Y358311D02*
Y363391D01*
X694922Y320621D02*
X697462D01*
X694922Y315541D02*
X697462D01*
X694922D02*
Y320621D01*
X697462Y315541D02*
Y320621D01*
X694749Y277851D02*
X697289D01*
X694749Y272771D02*
X697289D01*
X694749D02*
Y277851D01*
X697289Y272771D02*
Y277851D01*
X694749Y235081D02*
X697289D01*
X694749Y230001D02*
X697289D01*
X694749D02*
Y235081D01*
X697289Y230001D02*
Y235081D01*
X694749Y213696D02*
X697289D01*
X694749Y208616D02*
X697289D01*
X694749D02*
Y213696D01*
X697289Y208616D02*
Y213696D01*
X694749Y192311D02*
X697289D01*
X694749Y187230D02*
X697289D01*
X694749D02*
Y192311D01*
X697289Y187230D02*
Y192311D01*
X694749Y170926D02*
X697289D01*
X694749Y165846D02*
X697289D01*
X694749D02*
Y170926D01*
X697289Y165846D02*
Y170926D01*
X262833Y176476D02*
Y179016D01*
X267913Y176476D02*
Y179016D01*
X262833Y176476D02*
X267913D01*
X262833Y179016D02*
X267913D01*
X121983Y684857D02*
X124523D01*
X121983Y689937D02*
X124523D01*
Y684857D02*
Y689937D01*
X121983Y684857D02*
Y689937D01*
Y709137D02*
X124523D01*
X121983Y704057D02*
X124523D01*
X121983D02*
Y709137D01*
X124523Y704057D02*
Y709137D01*
X121862Y117169D02*
X124402D01*
X121862Y122249D02*
X124402D01*
Y117169D02*
Y122249D01*
X121862Y117169D02*
Y122249D01*
Y140345D02*
X124402D01*
X121862Y135265D02*
X124402D01*
X121862D02*
Y140345D01*
X124402Y135265D02*
Y140345D01*
X121605Y646457D02*
X124145D01*
X121605Y651537D02*
X124145D01*
Y646457D02*
Y651537D01*
X121605Y646457D02*
Y651537D01*
X262833Y212727D02*
Y215267D01*
X267913Y212727D02*
Y215267D01*
X262833Y212727D02*
X267913D01*
X262833Y215267D02*
X267913D01*
X121485Y80978D02*
X124025D01*
X121485Y86058D02*
X124025D01*
Y80978D02*
Y86058D01*
X121485Y80978D02*
Y86058D01*
X121983Y670737D02*
X124523D01*
X121983Y665657D02*
X124523D01*
X121983D02*
Y670737D01*
X124523Y665657D02*
Y670737D01*
X175927Y212727D02*
Y215267D01*
X181007Y212727D02*
Y215267D01*
X175927Y212727D02*
X181007D01*
X175927Y215267D02*
X181007D01*
X121862Y104154D02*
X124402D01*
X121862Y99074D02*
X124402D01*
X121862D02*
Y104154D01*
X124402Y99074D02*
Y104154D01*
X194253Y145747D02*
X233253D01*
X194253Y196247D02*
X233253D01*
X773503Y461997D02*
X776003D01*
X773503Y297997D02*
X776003D01*
X724003Y461997D02*
X737003D01*
X724003Y297997D02*
X737003D01*
X776003D02*
Y461997D01*
X724003Y297997D02*
Y322797D01*
Y437197D02*
Y461997D01*
X670503Y702997D02*
Y729497D01*
X469503Y702997D02*
Y729497D01*
X488003Y693997D02*
X652003D01*
X178003Y693997D02*
X342003D01*
X159503Y702997D02*
Y729497D01*
X360503Y702997D02*
Y729497D01*
D21*
X195753Y522518D02*
X200038D01*
X195613Y554184D02*
X199899D01*
X223073Y554144D02*
X227359D01*
X311784Y522518D02*
X316069D01*
X311644Y554184D02*
X315930D01*
X339104Y554144D02*
X343390D01*
X427815Y522518D02*
X432101D01*
X427676Y554184D02*
X431961D01*
X455136Y554144D02*
X459421D01*
X79721Y522518D02*
X84007D01*
X79582Y554184D02*
X83868D01*
X107042Y554144D02*
X111327D01*
X73141Y418391D02*
Y428004D01*
X63268Y480875D02*
X73141D01*
X41645Y431437D02*
Y467828D01*
X63268Y418391D02*
X73141D01*
Y471262D02*
Y480875D01*
Y386036D02*
Y395648D01*
X63268Y333164D02*
X73141D01*
X41645Y346211D02*
Y382602D01*
X63268Y395648D02*
X73141D01*
Y333164D02*
Y342777D01*
X334127Y432302D02*
X341539D01*
X478653Y424890D02*
X478653Y432302D01*
X471242Y287776D02*
X478653D01*
X334127D02*
Y295187D01*
Y424890D02*
Y432302D01*
X471242D02*
X478653D01*
Y287776D02*
Y295187D01*
X334127Y287776D02*
X341539Y287776D01*
X40778Y307152D02*
X44227D01*
X81869Y232222D02*
X85228D01*
Y283328D02*
Y307152D01*
X40778Y232222D02*
X44227D01*
X40778D02*
Y307152D01*
X81869D02*
X85228D01*
Y232222D02*
Y256045D01*
D22*
X339243Y420446D02*
X346628Y427830D01*
X196588Y203182D02*
Y225672D01*
X241286Y203182D02*
Y225672D01*
X196588D02*
X241286D01*
X196588Y203182D02*
X241286D01*
X39941Y737873D02*
Y760363D01*
X84638Y737873D02*
Y760363D01*
X39941D02*
X84638D01*
X39941Y737873D02*
X84638D01*
X39820Y185144D02*
Y207634D01*
X84518Y185144D02*
Y207634D01*
X39820D02*
X84518D01*
X39820Y185144D02*
X84518D01*
X478904Y206307D02*
X501394D01*
X478904Y161610D02*
X501394D01*
Y206307D01*
X478904Y161610D02*
Y206307D01*
X378320D02*
X400810D01*
X378320Y161610D02*
X400810D01*
Y206307D01*
X378320Y161610D02*
Y206307D01*
X111938Y231564D02*
X134428D01*
X111938Y186866D02*
X134428D01*
Y231564D01*
X111938Y186866D02*
Y231564D01*
X39624Y628365D02*
Y650855D01*
X84322Y628365D02*
Y650855D01*
X39624D02*
X84322D01*
X39624Y628365D02*
X84322D01*
X137401Y50661D02*
Y73151D01*
X92704Y50661D02*
Y73151D01*
Y50661D02*
X137401D01*
X92704Y73151D02*
X137401D01*
X114820Y320844D02*
X165183D01*
Y317795D02*
Y320844D01*
X114820Y318323D02*
Y320844D01*
X114813Y268907D02*
X165175D01*
X114813D02*
Y271957D01*
X165175Y268907D02*
Y271429D01*
X577267Y342747D02*
Y401247D01*
Y342747D02*
X652739D01*
Y401247D01*
X577267D02*
X652739D01*
D23*
X712993Y329413D02*
X712993Y329413D01*
D24*
X594018Y196867D02*
X634018D01*
X594018Y296567D02*
X634018D01*
X624439Y466981D02*
X625105Y467647D01*
Y468980D01*
X624439Y469647D01*
X621773D01*
X621106Y468980D01*
Y467647D01*
X621773Y466981D01*
X625105Y462982D02*
Y465648D01*
X623106D01*
X623772Y464315D01*
Y463649D01*
X623106Y462982D01*
X621773D01*
X621106Y463649D01*
Y464981D01*
X621773Y465648D01*
X621106Y459650D02*
X625105D01*
X623106Y461649D01*
Y458983D01*
X30728Y393338D02*
X31395Y394005D01*
Y395338D01*
X30728Y396004D01*
X30062D01*
X29395Y395338D01*
Y394005D01*
X28729Y393338D01*
X28062D01*
X27396Y394005D01*
Y395338D01*
X28062Y396004D01*
X30728Y389340D02*
X31395Y390006D01*
Y391339D01*
X30728Y392006D01*
X28062D01*
X27396Y391339D01*
Y390006D01*
X28062Y389340D01*
X31395Y388007D02*
X27396D01*
Y385341D01*
X30728Y336683D02*
X31395Y337350D01*
Y338683D01*
X30728Y339349D01*
X28062D01*
X27396Y338683D01*
Y337350D01*
X28062Y336683D01*
X29395D01*
Y338016D01*
X27396Y335350D02*
X31395D01*
X27396Y332685D01*
X31395D01*
Y331352D02*
X27396D01*
Y329352D01*
X28062Y328686D01*
X30728D01*
X31395Y329352D01*
Y331352D01*
X30728Y374338D02*
X31395Y375005D01*
Y376338D01*
X30728Y377004D01*
X30062D01*
X29395Y376338D01*
Y375005D01*
X28729Y374338D01*
X28062D01*
X27396Y375005D01*
Y376338D01*
X28062Y377004D01*
X31395Y373006D02*
X27396D01*
Y371006D01*
X28062Y370340D01*
X30728D01*
X31395Y371006D01*
Y373006D01*
X27396Y369007D02*
X30062D01*
X31395Y367674D01*
X30062Y366341D01*
X27396D01*
X29395D01*
Y369007D01*
X31395Y358169D02*
X28729D01*
X27396Y356836D01*
X28729Y355503D01*
X31395D01*
X30728Y351505D02*
X31395Y352171D01*
Y353504D01*
X30728Y354170D01*
X28062D01*
X27396Y353504D01*
Y352171D01*
X28062Y351505D01*
X30728Y347506D02*
X31395Y348172D01*
Y349505D01*
X30728Y350172D01*
X28062D01*
X27396Y349505D01*
Y348172D01*
X28062Y347506D01*
X31275Y443437D02*
X28610D01*
X27277Y442104D01*
X28610Y440771D01*
X31275D01*
X30609Y436772D02*
X31275Y437439D01*
Y438771D01*
X30609Y439438D01*
X27943D01*
X27277Y438771D01*
Y437439D01*
X27943Y436772D01*
X30609Y432773D02*
X31275Y433440D01*
Y434773D01*
X30609Y435439D01*
X27943D01*
X27277Y434773D01*
Y433440D01*
X27943Y432773D01*
X30609Y459606D02*
X31275Y460272D01*
Y461605D01*
X30609Y462272D01*
X29943D01*
X29276Y461605D01*
Y460272D01*
X28610Y459606D01*
X27943D01*
X27277Y460272D01*
Y461605D01*
X27943Y462272D01*
X31275Y458273D02*
X27277D01*
Y456274D01*
X27943Y455607D01*
X30609D01*
X31275Y456274D01*
Y458273D01*
X27277Y454274D02*
X29943D01*
X31275Y452941D01*
X29943Y451609D01*
X27277D01*
X29276D01*
Y454274D01*
X30609Y421951D02*
X31275Y422617D01*
Y423950D01*
X30609Y424617D01*
X27943D01*
X27277Y423950D01*
Y422617D01*
X27943Y421951D01*
X29276D01*
Y423284D01*
X27277Y420618D02*
X31275D01*
X27277Y417952D01*
X31275D01*
Y416619D02*
X27277D01*
Y414620D01*
X27943Y413953D01*
X30609D01*
X31275Y414620D01*
Y416619D01*
X30609Y478606D02*
X31275Y479272D01*
Y480605D01*
X30609Y481272D01*
X29943D01*
X29276Y480605D01*
Y479272D01*
X28610Y478606D01*
X27943D01*
X27277Y479272D01*
Y480605D01*
X27943Y481272D01*
X30609Y474607D02*
X31275Y475274D01*
Y476606D01*
X30609Y477273D01*
X27943D01*
X27277Y476606D01*
Y475274D01*
X27943Y474607D01*
X31275Y473274D02*
X27277D01*
Y470608D01*
X795001Y761181D02*
Y758515D01*
X796334Y757182D01*
X797667Y758515D01*
Y761181D01*
X801666Y760515D02*
X800999Y761181D01*
X799666D01*
X799000Y760515D01*
Y757849D01*
X799666Y757182D01*
X800999D01*
X801666Y757849D01*
X805665Y760515D02*
X804998Y761181D01*
X803665D01*
X802999Y760515D01*
Y757849D01*
X803665Y757182D01*
X804998D01*
X805665Y757849D01*
X794764Y705905D02*
X794097Y706571D01*
X792764D01*
X792098Y705905D01*
Y705238D01*
X792764Y704572D01*
X794097D01*
X794764Y703905D01*
Y703239D01*
X794097Y702572D01*
X792764D01*
X792098Y703239D01*
X796096Y706571D02*
Y702572D01*
X797429Y703905D01*
X798762Y702572D01*
Y706571D01*
X800095D02*
Y702572D01*
X802095D01*
X802761Y703239D01*
Y705905D01*
X802095Y706571D01*
X800095D01*
X804094D02*
X805427D01*
X804760D01*
Y702572D01*
X804094D01*
X805427D01*
X809426Y706571D02*
X808093D01*
X807426Y705905D01*
Y703239D01*
X808093Y702572D01*
X809426D01*
X810092Y703239D01*
Y705905D01*
X809426Y706571D01*
X793764Y651518D02*
Y655517D01*
X796430Y651518D01*
Y655517D01*
X797763Y651518D02*
Y655517D01*
X799762D01*
X800428Y654851D01*
Y653518D01*
X799762Y652851D01*
X797763D01*
X799096D02*
X800428Y651518D01*
X804427Y654851D02*
X803761Y655517D01*
X802428D01*
X801761Y654851D01*
Y654184D01*
X802428Y653518D01*
X803761D01*
X804427Y652851D01*
Y652185D01*
X803761Y651518D01*
X802428D01*
X801761Y652185D01*
X805760Y655517D02*
X808426D01*
X807093D01*
Y651518D01*
X794430Y680759D02*
X793764Y681425D01*
X792431D01*
X791765Y680759D01*
Y680092D01*
X792431Y679426D01*
X793764D01*
X794430Y678759D01*
Y678093D01*
X793764Y677426D01*
X792431D01*
X791765Y678093D01*
X795763Y681425D02*
Y677426D01*
X797096Y678759D01*
X798429Y677426D01*
Y681425D01*
X802428Y680759D02*
X801761Y681425D01*
X800428D01*
X799762Y680759D01*
Y678093D01*
X800428Y677426D01*
X801761D01*
X802428Y678093D01*
X803761Y681425D02*
Y677426D01*
X806426D01*
X807759Y681425D02*
Y677426D01*
Y678759D01*
X810425Y681425D01*
X808426Y679426D01*
X810425Y677426D01*
X796397Y607607D02*
X795731Y608273D01*
X794398D01*
X793731Y607607D01*
Y604941D01*
X794398Y604274D01*
X795731D01*
X796397Y604941D01*
Y606274D01*
X795064D01*
X797730Y604274D02*
Y608273D01*
X800396Y604274D01*
Y608273D01*
X801729D02*
Y604274D01*
X803728D01*
X804395Y604941D01*
Y607607D01*
X803728Y608273D01*
X801729D01*
X797413Y731559D02*
X796747Y732225D01*
X795414D01*
X794747Y731559D01*
Y728893D01*
X795414Y728226D01*
X796747D01*
X797413Y728893D01*
Y730226D01*
X796080D01*
X798746Y728226D02*
Y732225D01*
X801412Y728226D01*
Y732225D01*
X802745D02*
Y728226D01*
X804744D01*
X805411Y728893D01*
Y731559D01*
X804744Y732225D01*
X802745D01*
X794461Y585413D02*
X797126D01*
X795794D01*
Y581414D01*
X798459Y585413D02*
X801125Y581414D01*
Y585413D02*
X798459Y581414D01*
X794715Y557030D02*
Y561029D01*
X796714D01*
X797380Y560363D01*
Y559030D01*
X796714Y558363D01*
X794715D01*
X796048D02*
X797380Y557030D01*
X798713Y561029D02*
X801379Y557030D01*
Y561029D02*
X798713Y557030D01*
X759667Y619981D02*
X758335D01*
X759001D01*
Y616649D01*
X758335Y615983D01*
X757668D01*
X757002Y616649D01*
X761000Y615983D02*
X762333D01*
X761667D01*
Y619981D01*
X761000Y619315D01*
X764333D02*
X764999Y619981D01*
X766332D01*
X766998Y619315D01*
Y616649D01*
X766332Y615983D01*
X764999D01*
X764333Y616649D01*
Y619315D01*
X44292Y322293D02*
X42959D01*
X43625D01*
Y318961D01*
X42959Y318295D01*
X42292D01*
X41626Y318961D01*
X48290Y318295D02*
X45624D01*
X48290Y320961D01*
Y321627D01*
X47624Y322293D01*
X46291D01*
X45624Y321627D01*
X44546Y406113D02*
X43213D01*
X43879D01*
Y402781D01*
X43213Y402115D01*
X42546D01*
X41880Y402781D01*
X45878D02*
X46545Y402115D01*
X47878D01*
X48544Y402781D01*
Y405447D01*
X47878Y406113D01*
X46545D01*
X45878Y405447D01*
Y404781D01*
X46545Y404114D01*
X48544D01*
X42768Y491965D02*
X41435D01*
X42101D01*
Y488633D01*
X41435Y487967D01*
X40768D01*
X40102Y488633D01*
X44100Y491299D02*
X44767Y491965D01*
X46100D01*
X46766Y491299D01*
Y490633D01*
X46100Y489966D01*
X46766Y489300D01*
Y488633D01*
X46100Y487967D01*
X44767D01*
X44100Y488633D01*
Y489300D01*
X44767Y489966D01*
X44100Y490633D01*
Y491299D01*
X44767Y489966D02*
X46100D01*
X561690Y771619D02*
X560357D01*
X561023D01*
Y768287D01*
X560357Y767621D01*
X559690D01*
X559024Y768287D01*
X563022Y771619D02*
X565688D01*
Y770953D01*
X563022Y768287D01*
Y767621D01*
X333630Y125443D02*
Y121445D01*
X336296D01*
X337629D02*
X338962D01*
X338295D01*
Y125443D01*
X337629Y124777D01*
X211044Y139393D02*
Y136061D01*
X211710Y135394D01*
X213043D01*
X213710Y136061D01*
Y139393D01*
X215042Y138727D02*
X215709Y139393D01*
X217042D01*
X217708Y138727D01*
Y138060D01*
X217042Y137394D01*
X216375D01*
X217042D01*
X217708Y136727D01*
Y136061D01*
X217042Y135394D01*
X215709D01*
X215042Y136061D01*
X800332Y276393D02*
Y280391D01*
X802332D01*
X802998Y279725D01*
Y278392D01*
X802332Y277726D01*
X800332D01*
X801665D02*
X802998Y276393D01*
X806330D02*
Y280391D01*
X804331Y278392D01*
X806997D01*
X808330Y279725D02*
X808996Y280391D01*
X810329D01*
X810995Y279725D01*
Y277059D01*
X810329Y276393D01*
X808996D01*
X808330Y277059D01*
Y279725D01*
X800332Y264452D02*
Y268451D01*
X802332D01*
X802998Y267784D01*
Y266451D01*
X802332Y265785D01*
X800332D01*
X801665D02*
X802998Y264452D01*
X804331Y267784D02*
X804997Y268451D01*
X806330D01*
X806997Y267784D01*
Y267118D01*
X806330Y266451D01*
X805664D01*
X806330D01*
X806997Y265785D01*
Y265118D01*
X806330Y264452D01*
X804997D01*
X804331Y265118D01*
X808330D02*
X808996Y264452D01*
X810329D01*
X810995Y265118D01*
Y267784D01*
X810329Y268451D01*
X808996D01*
X808330Y267784D01*
Y267118D01*
X808996Y266451D01*
X810995D01*
X800332Y252511D02*
Y256510D01*
X802332D01*
X802998Y255844D01*
Y254511D01*
X802332Y253844D01*
X800332D01*
X801665D02*
X802998Y252511D01*
X804331Y255844D02*
X804997Y256510D01*
X806330D01*
X806997Y255844D01*
Y255177D01*
X806330Y254511D01*
X805664D01*
X806330D01*
X806997Y253844D01*
Y253178D01*
X806330Y252511D01*
X804997D01*
X804331Y253178D01*
X808330Y255844D02*
X808996Y256510D01*
X810329D01*
X810995Y255844D01*
Y255177D01*
X810329Y254511D01*
X810995Y253844D01*
Y253178D01*
X810329Y252511D01*
X808996D01*
X808330Y253178D01*
Y253844D01*
X808996Y254511D01*
X808330Y255177D01*
Y255844D01*
X808996Y254511D02*
X810329D01*
X800332Y240571D02*
Y244569D01*
X802332D01*
X802998Y243903D01*
Y242570D01*
X802332Y241904D01*
X800332D01*
X801665D02*
X802998Y240571D01*
X804331Y243903D02*
X804997Y244569D01*
X806330D01*
X806997Y243903D01*
Y243237D01*
X806330Y242570D01*
X805664D01*
X806330D01*
X806997Y241904D01*
Y241237D01*
X806330Y240571D01*
X804997D01*
X804331Y241237D01*
X810995Y244569D02*
X808330D01*
Y242570D01*
X809662Y243237D01*
X810329D01*
X810995Y242570D01*
Y241237D01*
X810329Y240571D01*
X808996D01*
X808330Y241237D01*
X656936Y439423D02*
Y443422D01*
X658935D01*
X659602Y442755D01*
Y441422D01*
X658935Y440756D01*
X656936D01*
X658269D02*
X659602Y439423D01*
X660935Y442755D02*
X661601Y443422D01*
X662934D01*
X663601Y442755D01*
Y442089D01*
X662934Y441422D01*
X662268D01*
X662934D01*
X663601Y440756D01*
Y440089D01*
X662934Y439423D01*
X661601D01*
X660935Y440089D01*
X666933Y439423D02*
Y443422D01*
X664933Y441422D01*
X667599D01*
X689675Y439423D02*
Y443422D01*
X691674D01*
X692341Y442755D01*
Y441422D01*
X691674Y440756D01*
X689675D01*
X691008D02*
X692341Y439423D01*
X693673Y442755D02*
X694340Y443422D01*
X695673D01*
X696339Y442755D01*
Y442089D01*
X695673Y441422D01*
X695006D01*
X695673D01*
X696339Y440756D01*
Y440089D01*
X695673Y439423D01*
X694340D01*
X693673Y440089D01*
X700338Y439423D02*
X697672D01*
X700338Y442089D01*
Y442755D01*
X699671Y443422D01*
X698339D01*
X697672Y442755D01*
X253588Y770095D02*
X252255D01*
X252921D01*
Y766763D01*
X252255Y766097D01*
X251588D01*
X250922Y766763D01*
X254920Y769429D02*
X255587Y770095D01*
X256920D01*
X257586Y769429D01*
Y768763D01*
X256920Y768096D01*
X256253D01*
X256920D01*
X257586Y767430D01*
Y766763D01*
X256920Y766097D01*
X255587D01*
X254920Y766763D01*
X210790Y121887D02*
Y117889D01*
X212789D01*
X213456Y118555D01*
Y121221D01*
X212789Y121887D01*
X210790D01*
X214788Y121221D02*
X215455Y121887D01*
X216788D01*
X217454Y121221D01*
Y120555D01*
X216788Y119888D01*
X216121D01*
X216788D01*
X217454Y119222D01*
Y118555D01*
X216788Y117889D01*
X215455D01*
X214788Y118555D01*
X243160Y270477D02*
Y267145D01*
X243826Y266479D01*
X245159D01*
X245825Y267145D01*
Y270477D01*
X247158Y266479D02*
X248491D01*
X247825D01*
Y270477D01*
X247158Y269811D01*
X250491Y267145D02*
X251157Y266479D01*
X252490D01*
X253156Y267145D01*
Y269811D01*
X252490Y270477D01*
X251157D01*
X250491Y269811D01*
Y269144D01*
X251157Y268478D01*
X253156D01*
X168626Y327881D02*
Y323883D01*
X171292D01*
X175290D02*
X172624D01*
X175290Y326549D01*
Y327215D01*
X174624Y327881D01*
X173291D01*
X172624Y327215D01*
X801974Y382237D02*
X800641D01*
X801307D01*
Y378905D01*
X800641Y378239D01*
X799974D01*
X799308Y378905D01*
X805972Y382237D02*
X804639Y381571D01*
X803306Y380238D01*
Y378905D01*
X803973Y378239D01*
X805306D01*
X805972Y378905D01*
Y379572D01*
X805306Y380238D01*
X803306D01*
X790763Y114989D02*
X789430D01*
X790097D01*
Y111657D01*
X789430Y110990D01*
X788764D01*
X788097Y111657D01*
X794762Y114989D02*
X792096D01*
Y112990D01*
X793429Y113656D01*
X794095D01*
X794762Y112990D01*
Y111657D01*
X794095Y110990D01*
X792762D01*
X792096Y111657D01*
X150431Y252602D02*
X151097Y253268D01*
Y254601D01*
X150431Y255268D01*
X147765D01*
X147099Y254601D01*
Y253268D01*
X147765Y252602D01*
X150431Y251269D02*
X151097Y250602D01*
Y249270D01*
X150431Y248603D01*
X149764D01*
X149098Y249270D01*
Y249936D01*
Y249270D01*
X148432Y248603D01*
X147765D01*
X147099Y249270D01*
Y250602D01*
X147765Y251269D01*
X150431Y247270D02*
X151097Y246604D01*
Y245271D01*
X150431Y244604D01*
X147765D01*
X147099Y245271D01*
Y246604D01*
X147765Y247270D01*
X150431D01*
X162372Y252163D02*
X163038Y252829D01*
Y254162D01*
X162372Y254828D01*
X159706D01*
X159040Y254162D01*
Y252829D01*
X159706Y252163D01*
X159040Y248164D02*
Y250830D01*
X161705Y248164D01*
X162372D01*
X163038Y248830D01*
Y250163D01*
X162372Y250830D01*
X159706Y246831D02*
X159040Y246165D01*
Y244832D01*
X159706Y244165D01*
X162372D01*
X163038Y244832D01*
Y246165D01*
X162372Y246831D01*
X161705D01*
X161039Y246165D01*
Y244165D01*
X457382Y509719D02*
Y506386D01*
X458048Y505720D01*
X459381D01*
X460047Y506386D01*
Y509719D01*
X461380Y505720D02*
X462713D01*
X462047D01*
Y509719D01*
X461380Y509052D01*
X464713Y509719D02*
X467378D01*
Y509052D01*
X464713Y506386D01*
Y505720D01*
X218628Y506066D02*
Y502734D01*
X219294Y502067D01*
X220627D01*
X221294Y502734D01*
Y506066D01*
X222627Y502067D02*
X223960D01*
X223293D01*
Y506066D01*
X222627Y505400D01*
X228625Y506066D02*
X227292Y505400D01*
X225959Y504067D01*
Y502734D01*
X226625Y502067D01*
X227958D01*
X228625Y502734D01*
Y503400D01*
X227958Y504067D01*
X225959D01*
X333995Y507196D02*
Y503864D01*
X334662Y503197D01*
X335995D01*
X336661Y503864D01*
Y507196D01*
X337994Y503197D02*
X339327D01*
X338660D01*
Y507196D01*
X337994Y506530D01*
X343992Y507196D02*
X341326D01*
Y505197D01*
X342659Y505863D01*
X343326D01*
X343992Y505197D01*
Y503864D01*
X343326Y503197D01*
X341993D01*
X341326Y503864D01*
X75748Y508402D02*
Y505070D01*
X76415Y504404D01*
X77748D01*
X78414Y505070D01*
Y508402D01*
X79747Y504404D02*
X81080D01*
X80414D01*
Y508402D01*
X79747Y507736D01*
X85079Y504404D02*
Y508402D01*
X83079Y506403D01*
X85745D01*
X248382Y499059D02*
X249049Y499725D01*
Y501058D01*
X248382Y501725D01*
X245716D01*
X245050Y501058D01*
Y499725D01*
X245716Y499059D01*
X245050Y497726D02*
Y496393D01*
Y497060D01*
X249049D01*
X248382Y497726D01*
X245050Y494394D02*
Y493061D01*
Y493727D01*
X249049D01*
X248382Y494394D01*
Y491062D02*
X249049Y490395D01*
Y489062D01*
X248382Y488396D01*
X245716D01*
X245050Y489062D01*
Y490395D01*
X245716Y491062D01*
X248382D01*
X480538Y499059D02*
X481205Y499725D01*
Y501058D01*
X480538Y501725D01*
X477873D01*
X477206Y501058D01*
Y499725D01*
X477873Y499059D01*
X477206Y497726D02*
Y496393D01*
Y497060D01*
X481205D01*
X480538Y497726D01*
X477206Y494394D02*
Y493061D01*
Y493727D01*
X481205D01*
X480538Y494394D01*
X477206Y491062D02*
Y489729D01*
Y490395D01*
X481205D01*
X480538Y491062D01*
X496286Y499059D02*
X496953Y499725D01*
Y501058D01*
X496286Y501725D01*
X493620D01*
X492954Y501058D01*
Y499725D01*
X493620Y499059D01*
X492954Y497726D02*
Y496393D01*
Y497060D01*
X496953D01*
X496286Y497726D01*
Y494394D02*
X496953Y493727D01*
Y492394D01*
X496286Y491728D01*
X493620D01*
X492954Y492394D01*
Y493727D01*
X493620Y494394D01*
X496286D01*
X493620Y490395D02*
X492954Y489729D01*
Y488396D01*
X493620Y487729D01*
X496286D01*
X496953Y488396D01*
Y489729D01*
X496286Y490395D01*
X495620D01*
X494953Y489729D01*
Y487729D01*
X264130Y499059D02*
X264797Y499725D01*
Y501058D01*
X264130Y501725D01*
X261465D01*
X260798Y501058D01*
Y499725D01*
X261465Y499059D01*
X260798Y497726D02*
Y496393D01*
Y497060D01*
X264797D01*
X264130Y497726D01*
Y494394D02*
X264797Y493727D01*
Y492394D01*
X264130Y491728D01*
X261465D01*
X260798Y492394D01*
Y493727D01*
X261465Y494394D01*
X264130D01*
Y490395D02*
X264797Y489729D01*
Y488396D01*
X264130Y487729D01*
X263464D01*
X262797Y488396D01*
X262131Y487729D01*
X261465D01*
X260798Y488396D01*
Y489729D01*
X261465Y490395D01*
X262131D01*
X262797Y489729D01*
X263464Y490395D01*
X264130D01*
X262797Y489729D02*
Y488396D01*
X279624Y499059D02*
X280291Y499725D01*
Y501058D01*
X279624Y501725D01*
X276959D01*
X276292Y501058D01*
Y499725D01*
X276959Y499059D01*
X280291Y497726D02*
Y495060D01*
X279624D01*
X276959Y497726D01*
X276292D01*
X276959Y493727D02*
X276292Y493061D01*
Y491728D01*
X276959Y491062D01*
X279624D01*
X280291Y491728D01*
Y493061D01*
X279624Y493727D01*
X278958D01*
X278291Y493061D01*
Y491062D01*
X295118Y499059D02*
X295785Y499725D01*
Y501058D01*
X295118Y501725D01*
X292453D01*
X291786Y501058D01*
Y499725D01*
X292453Y499059D01*
X295785Y497726D02*
Y495060D01*
X295118D01*
X292453Y497726D01*
X291786D01*
X295118Y493727D02*
X295785Y493061D01*
Y491728D01*
X295118Y491062D01*
X294452D01*
X293785Y491728D01*
X293119Y491062D01*
X292453D01*
X291786Y491728D01*
Y493061D01*
X292453Y493727D01*
X293119D01*
X293785Y493061D01*
X294452Y493727D01*
X295118D01*
X293785Y493061D02*
Y491728D01*
X275402Y582064D02*
X274735Y582731D01*
X273403D01*
X272736Y582064D01*
Y579398D01*
X273403Y578732D01*
X274735D01*
X275402Y579398D01*
X276735Y582064D02*
X277401Y582731D01*
X278734D01*
X279401Y582064D01*
Y581398D01*
X278734Y580731D01*
X279401Y580065D01*
Y579398D01*
X278734Y578732D01*
X277401D01*
X276735Y579398D01*
Y580065D01*
X277401Y580731D01*
X276735Y581398D01*
Y582064D01*
X277401Y580731D02*
X278734D01*
X280733Y579398D02*
X281400Y578732D01*
X282733D01*
X283399Y579398D01*
Y582064D01*
X282733Y582731D01*
X281400D01*
X280733Y582064D01*
Y581398D01*
X281400Y580731D01*
X283399D01*
X43500Y582064D02*
X42833Y582731D01*
X41501D01*
X40834Y582064D01*
Y579398D01*
X41501Y578732D01*
X42833D01*
X43500Y579398D01*
X44833Y582064D02*
X45499Y582731D01*
X46832D01*
X47498Y582064D01*
Y581398D01*
X46832Y580731D01*
X47498Y580065D01*
Y579398D01*
X46832Y578732D01*
X45499D01*
X44833Y579398D01*
Y580065D01*
X45499Y580731D01*
X44833Y581398D01*
Y582064D01*
X45499Y580731D02*
X46832D01*
X48831Y582064D02*
X49498Y582731D01*
X50831D01*
X51497Y582064D01*
Y581398D01*
X50831Y580731D01*
X51497Y580065D01*
Y579398D01*
X50831Y578732D01*
X49498D01*
X48831Y579398D01*
Y580065D01*
X49498Y580731D01*
X48831Y581398D01*
Y582064D01*
X49498Y580731D02*
X50831D01*
X364460Y499059D02*
X365127Y499725D01*
Y501058D01*
X364460Y501725D01*
X361795D01*
X361128Y501058D01*
Y499725D01*
X361795Y499059D01*
X364460Y497726D02*
X365127Y497060D01*
Y495727D01*
X364460Y495060D01*
X363794D01*
X363127Y495727D01*
X362461Y495060D01*
X361795D01*
X361128Y495727D01*
Y497060D01*
X361795Y497726D01*
X362461D01*
X363127Y497060D01*
X363794Y497726D01*
X364460D01*
X363127Y497060D02*
Y495727D01*
X365127Y491062D02*
Y493727D01*
X363127D01*
X363794Y492394D01*
Y491728D01*
X363127Y491062D01*
X361795D01*
X361128Y491728D01*
Y493061D01*
X361795Y493727D01*
X132759Y499059D02*
X133426Y499725D01*
Y501058D01*
X132759Y501725D01*
X130093D01*
X129427Y501058D01*
Y499725D01*
X130093Y499059D01*
X132759Y497726D02*
X133426Y497060D01*
Y495727D01*
X132759Y495060D01*
X132093D01*
X131426Y495727D01*
X130760Y495060D01*
X130093D01*
X129427Y495727D01*
Y497060D01*
X130093Y497726D01*
X130760D01*
X131426Y497060D01*
X132093Y497726D01*
X132759D01*
X131426Y497060D02*
Y495727D01*
X129427Y491728D02*
X133426D01*
X131426Y493727D01*
Y491062D01*
X380208Y499059D02*
X380875Y499725D01*
Y501058D01*
X380208Y501725D01*
X377542D01*
X376876Y501058D01*
Y499725D01*
X377542Y499059D01*
X380208Y497726D02*
X380875Y497060D01*
Y495727D01*
X380208Y495060D01*
X379542D01*
X378875Y495727D01*
X378209Y495060D01*
X377542D01*
X376876Y495727D01*
Y497060D01*
X377542Y497726D01*
X378209D01*
X378875Y497060D01*
X379542Y497726D01*
X380208D01*
X378875Y497060D02*
Y495727D01*
X380208Y493727D02*
X380875Y493061D01*
Y491728D01*
X380208Y491062D01*
X379542D01*
X378875Y491728D01*
Y492394D01*
Y491728D01*
X378209Y491062D01*
X377542D01*
X376876Y491728D01*
Y493061D01*
X377542Y493727D01*
X148253Y499059D02*
X148919Y499725D01*
Y501058D01*
X148253Y501725D01*
X145587D01*
X144921Y501058D01*
Y499725D01*
X145587Y499059D01*
X148253Y497726D02*
X148919Y497060D01*
Y495727D01*
X148253Y495060D01*
X147587D01*
X146920Y495727D01*
X146254Y495060D01*
X145587D01*
X144921Y495727D01*
Y497060D01*
X145587Y497726D01*
X146254D01*
X146920Y497060D01*
X147587Y497726D01*
X148253D01*
X146920Y497060D02*
Y495727D01*
X144921Y491062D02*
Y493727D01*
X147587Y491062D01*
X148253D01*
X148919Y491728D01*
Y493061D01*
X148253Y493727D01*
X395702Y499059D02*
X396369Y499725D01*
Y501058D01*
X395702Y501725D01*
X393036D01*
X392370Y501058D01*
Y499725D01*
X393036Y499059D01*
X392370Y497726D02*
Y496393D01*
Y497060D01*
X396369D01*
X395702Y497726D01*
Y494394D02*
X396369Y493727D01*
Y492394D01*
X395702Y491728D01*
X393036D01*
X392370Y492394D01*
Y493727D01*
X393036Y494394D01*
X395702D01*
X396369Y487729D02*
Y490395D01*
X394369D01*
X395036Y489062D01*
Y488396D01*
X394369Y487729D01*
X393036D01*
X392370Y488396D01*
Y489729D01*
X393036Y490395D01*
X411196Y499059D02*
X411863Y499725D01*
Y501058D01*
X411196Y501725D01*
X408531D01*
X407864Y501058D01*
Y499725D01*
X408531Y499059D01*
X407864Y497726D02*
Y496393D01*
Y497060D01*
X411863D01*
X411196Y497726D01*
Y494394D02*
X411863Y493727D01*
Y492394D01*
X411196Y491728D01*
X408531D01*
X407864Y492394D01*
Y493727D01*
X408531Y494394D01*
X411196D01*
X407864Y488396D02*
X411863D01*
X409863Y490395D01*
Y487729D01*
X163747Y499059D02*
X164414Y499725D01*
Y501058D01*
X163747Y501725D01*
X161081D01*
X160415Y501058D01*
Y499725D01*
X161081Y499059D01*
X160415Y497726D02*
Y496393D01*
Y497060D01*
X164414D01*
X163747Y497726D01*
Y494394D02*
X164414Y493727D01*
Y492394D01*
X163747Y491728D01*
X161081D01*
X160415Y492394D01*
Y493727D01*
X161081Y494394D01*
X163747D01*
Y490395D02*
X164414Y489729D01*
Y488396D01*
X163747Y487729D01*
X163081D01*
X162414Y488396D01*
Y489062D01*
Y488396D01*
X161748Y487729D01*
X161081D01*
X160415Y488396D01*
Y489729D01*
X161081Y490395D01*
X179241Y499059D02*
X179907Y499725D01*
Y501058D01*
X179241Y501725D01*
X176575D01*
X175909Y501058D01*
Y499725D01*
X176575Y499059D01*
X175909Y497726D02*
Y496393D01*
Y497060D01*
X179907D01*
X179241Y497726D01*
Y494394D02*
X179907Y493727D01*
Y492394D01*
X179241Y491728D01*
X176575D01*
X175909Y492394D01*
Y493727D01*
X176575Y494394D01*
X179241D01*
X175909Y487729D02*
Y490395D01*
X178575Y487729D01*
X179241D01*
X179907Y488396D01*
Y489729D01*
X179241Y490395D01*
X373434Y651674D02*
Y654340D01*
X372768Y655006D01*
X371435D01*
X370769Y654340D01*
Y651674D01*
X371435Y651008D01*
X372768D01*
X372102Y652340D02*
X373434Y651008D01*
X372768D02*
X373434Y651674D01*
X376767Y651008D02*
Y655006D01*
X374767Y653007D01*
X377433D01*
X373434Y689012D02*
Y691678D01*
X372768Y692344D01*
X371435D01*
X370769Y691678D01*
Y689012D01*
X371435Y688345D01*
X372768D01*
X372102Y689678D02*
X373434Y688345D01*
X372768D02*
X373434Y689012D01*
X374767Y691678D02*
X375434Y692344D01*
X376767D01*
X377433Y691678D01*
Y691011D01*
X376767Y690345D01*
X376100D01*
X376767D01*
X377433Y689678D01*
Y689012D01*
X376767Y688345D01*
X375434D01*
X374767Y689012D01*
X373434Y726350D02*
Y729016D01*
X372768Y729682D01*
X371435D01*
X370769Y729016D01*
Y726350D01*
X371435Y725684D01*
X372768D01*
X372102Y727016D02*
X373434Y725684D01*
X372768D02*
X373434Y726350D01*
X377433Y725684D02*
X374767D01*
X377433Y728349D01*
Y729016D01*
X376767Y729682D01*
X375434D01*
X374767Y729016D01*
X374196Y763434D02*
Y766100D01*
X373530Y766766D01*
X372197D01*
X371531Y766100D01*
Y763434D01*
X372197Y762767D01*
X373530D01*
X372864Y764100D02*
X374196Y762767D01*
X373530D02*
X374196Y763434D01*
X375529Y762767D02*
X376862D01*
X376196D01*
Y766766D01*
X375529Y766100D01*
X240317Y432677D02*
X244315D01*
Y430678D01*
X243649Y430011D01*
X242316D01*
X241649Y430678D01*
Y432677D01*
Y431344D02*
X240317Y430011D01*
X243649Y428678D02*
X244315Y428012D01*
Y426679D01*
X243649Y426012D01*
X242982D01*
X242316Y426679D01*
X241649Y426012D01*
X240983D01*
X240317Y426679D01*
Y428012D01*
X240983Y428678D01*
X241649D01*
X242316Y428012D01*
X242982Y428678D01*
X243649D01*
X242316Y428012D02*
Y426679D01*
X244315Y424680D02*
Y422014D01*
X243649D01*
X240983Y424680D01*
X240317D01*
X762762Y768825D02*
X761429D01*
X762096D01*
Y765493D01*
X761429Y764827D01*
X760763D01*
X760096Y765493D01*
X764095Y764827D02*
X765428D01*
X764761D01*
Y768825D01*
X764095Y768159D01*
X582900Y529049D02*
Y525717D01*
X583566Y525051D01*
X584899D01*
X585566Y525717D01*
Y529049D01*
X586898Y525717D02*
X587565Y525051D01*
X588898D01*
X589564Y525717D01*
Y528383D01*
X588898Y529049D01*
X587565D01*
X586898Y528383D01*
Y527716D01*
X587565Y527050D01*
X589564D01*
X527752Y469183D02*
X531751D01*
Y467184D01*
X531084Y466517D01*
X529751D01*
X529085Y467184D01*
Y469183D01*
Y467850D02*
X527752Y466517D01*
Y463185D02*
X531751D01*
X529751Y465185D01*
Y462519D01*
X528419Y461186D02*
X527752Y460519D01*
Y459186D01*
X528419Y458520D01*
X531084D01*
X531751Y459186D01*
Y460519D01*
X531084Y461186D01*
X530418D01*
X529751Y460519D01*
Y458520D01*
X546294Y469183D02*
X550293D01*
Y467184D01*
X549626Y466517D01*
X548293D01*
X547627Y467184D01*
Y469183D01*
Y467850D02*
X546294Y466517D01*
Y463185D02*
X550293D01*
X548293Y465185D01*
Y462519D01*
X550293Y461186D02*
Y458520D01*
X549626D01*
X546960Y461186D01*
X546294D01*
X583632Y469183D02*
X587631D01*
Y467184D01*
X586964Y466517D01*
X585631D01*
X584965Y467184D01*
Y469183D01*
Y467850D02*
X583632Y466517D01*
Y463185D02*
X587631D01*
X585631Y465185D01*
Y462519D01*
X587631Y458520D02*
Y461186D01*
X585631D01*
X586298Y459853D01*
Y459186D01*
X585631Y458520D01*
X584299D01*
X583632Y459186D01*
Y460519D01*
X584299Y461186D01*
X569184Y466517D02*
X569851Y467184D01*
Y468517D01*
X569184Y469183D01*
X566519D01*
X565852Y468517D01*
Y467184D01*
X566519Y466517D01*
X569851Y462519D02*
Y465185D01*
X567851D01*
X568518Y463852D01*
Y463185D01*
X567851Y462519D01*
X566519D01*
X565852Y463185D01*
Y464518D01*
X566519Y465185D01*
X569184Y461186D02*
X569851Y460519D01*
Y459186D01*
X569184Y458520D01*
X566519D01*
X565852Y459186D01*
Y460519D01*
X566519Y461186D01*
X569184D01*
X291418Y357038D02*
X294084Y353040D01*
Y357038D02*
X291418Y353040D01*
X295417D02*
X296749D01*
X296083D01*
Y357038D01*
X295417Y356372D01*
X240317Y468496D02*
X244315D01*
Y466497D01*
X243649Y465830D01*
X242316D01*
X241649Y466497D01*
Y468496D01*
Y467163D02*
X240317Y465830D01*
X243649Y464497D02*
X244315Y463831D01*
Y462498D01*
X243649Y461832D01*
X242982D01*
X242316Y462498D01*
X241649Y461832D01*
X240983D01*
X240317Y462498D01*
Y463831D01*
X240983Y464497D01*
X241649D01*
X242316Y463831D01*
X242982Y464497D01*
X243649D01*
X242316Y463831D02*
Y462498D01*
X243649Y460499D02*
X244315Y459832D01*
Y458499D01*
X243649Y457833D01*
X242982D01*
X242316Y458499D01*
X241649Y457833D01*
X240983D01*
X240317Y458499D01*
Y459832D01*
X240983Y460499D01*
X241649D01*
X242316Y459832D01*
X242982Y460499D01*
X243649D01*
X242316Y459832D02*
Y458499D01*
X216558Y468496D02*
X220557D01*
Y466497D01*
X219890Y465830D01*
X218557D01*
X217891Y466497D01*
Y468496D01*
Y467163D02*
X216558Y465830D01*
X219890Y464497D02*
X220557Y463831D01*
Y462498D01*
X219890Y461832D01*
X219224D01*
X218557Y462498D01*
X217891Y461832D01*
X217224D01*
X216558Y462498D01*
Y463831D01*
X217224Y464497D01*
X217891D01*
X218557Y463831D01*
X219224Y464497D01*
X219890D01*
X218557Y463831D02*
Y462498D01*
X220557Y457833D02*
X219890Y459166D01*
X218557Y460499D01*
X217224D01*
X216558Y459832D01*
Y458499D01*
X217224Y457833D01*
X217891D01*
X218557Y458499D01*
Y460499D01*
X228437Y432677D02*
X232436D01*
Y430678D01*
X231769Y430011D01*
X230436D01*
X229770Y430678D01*
Y432677D01*
Y431344D02*
X228437Y430011D01*
X232436Y428678D02*
Y426012D01*
X231769D01*
X229104Y428678D01*
X228437D01*
X232436Y424680D02*
Y422014D01*
X231769D01*
X229104Y424680D01*
X228437D01*
X447723Y260194D02*
X448390Y260861D01*
Y262194D01*
X447723Y262860D01*
X445057D01*
X444391Y262194D01*
Y260861D01*
X445057Y260194D01*
X444391Y258861D02*
Y257528D01*
Y258195D01*
X448390D01*
X447723Y258861D01*
X444391Y253530D02*
X448390D01*
X446390Y255529D01*
Y252863D01*
X447723Y251530D02*
X448390Y250864D01*
Y249531D01*
X447723Y248865D01*
X447057D01*
X446390Y249531D01*
Y250198D01*
Y249531D01*
X445724Y248865D01*
X445057D01*
X444391Y249531D01*
Y250864D01*
X445057Y251530D01*
X228192Y334684D02*
Y335626D01*
X227249Y336569D01*
X226307D01*
X224422Y334684D01*
Y333741D01*
X225364Y332799D01*
X226307D01*
X226778Y331385D02*
X227721Y330443D01*
X227249Y330914D01*
X230077Y333741D01*
X229134D01*
X230548Y327615D02*
X233376Y330443D01*
X230548Y330443D01*
X232433Y328558D01*
X234318D02*
X235261D01*
X236203Y327615D01*
Y326673D01*
X235732Y326201D01*
X234789D01*
X234789Y325259D01*
X234318Y324788D01*
X233376D01*
X232433Y325730D01*
Y326673D01*
X232904Y327144D01*
X233847Y327144D01*
Y328086D01*
X234318Y328558D01*
X233847Y327144D02*
X234789Y326201D01*
X229896Y385693D02*
X228954D01*
X228011Y384751D01*
Y383808D01*
X229896Y381923D01*
X230839D01*
X231781Y382866D01*
Y383808D01*
X233195Y384279D02*
X234137Y385222D01*
X233666Y384751D01*
X230839Y387578D01*
Y386636D01*
X236965Y388049D02*
X234137Y390877D01*
X234137Y388049D01*
X236022Y389934D01*
X237436Y394176D02*
X236965Y392762D01*
Y390877D01*
X237907Y389934D01*
X238850D01*
X239792Y390877D01*
Y391819D01*
X239321Y392291D01*
X238379Y392291D01*
X236965Y390877D01*
X361128Y582477D02*
Y578478D01*
X363794D01*
X367793Y582477D02*
X366460Y581810D01*
X365127Y580477D01*
Y579144D01*
X365793Y578478D01*
X367126D01*
X367793Y579144D01*
Y579811D01*
X367126Y580477D01*
X365127D01*
X393337Y613981D02*
X392670Y614647D01*
X391337D01*
X390671Y613981D01*
Y611315D01*
X391337Y610649D01*
X392670D01*
X393337Y611315D01*
X394669Y610649D02*
X396002D01*
X395336D01*
Y614647D01*
X394669Y613981D01*
X400667Y610649D02*
X398002D01*
X400667Y613315D01*
Y613981D01*
X400001Y614647D01*
X398668D01*
X398002Y613981D01*
X402000Y610649D02*
X403333D01*
X402667D01*
Y614647D01*
X402000Y613981D01*
X260336Y613727D02*
X259670Y614393D01*
X258337D01*
X257670Y613727D01*
Y611061D01*
X258337Y610395D01*
X259670D01*
X260336Y611061D01*
X261669Y610395D02*
X263002D01*
X262335D01*
Y614393D01*
X261669Y613727D01*
X267667Y610395D02*
X265001D01*
X267667Y613060D01*
Y613727D01*
X267001Y614393D01*
X265668D01*
X265001Y613727D01*
X269000D02*
X269666Y614393D01*
X270999D01*
X271666Y613727D01*
Y611061D01*
X270999Y610395D01*
X269666D01*
X269000Y611061D01*
Y613727D01*
X191898Y613981D02*
X191232Y614647D01*
X189899D01*
X189232Y613981D01*
Y611315D01*
X189899Y610649D01*
X191232D01*
X191898Y611315D01*
X193231D02*
X193898Y610649D01*
X195231D01*
X195897Y611315D01*
Y613981D01*
X195231Y614647D01*
X193898D01*
X193231Y613981D01*
Y613315D01*
X193898Y612648D01*
X195897D01*
X199896Y614647D02*
X197230D01*
Y612648D01*
X198563Y613315D01*
X199229D01*
X199896Y612648D01*
Y611315D01*
X199229Y610649D01*
X197896D01*
X197230Y611315D01*
X322708Y613473D02*
X322042Y614139D01*
X320709D01*
X320042Y613473D01*
Y610807D01*
X320709Y610141D01*
X322042D01*
X322708Y610807D01*
X324041D02*
X324708Y610141D01*
X326040D01*
X326707Y610807D01*
Y613473D01*
X326040Y614139D01*
X324708D01*
X324041Y613473D01*
Y612807D01*
X324708Y612140D01*
X326707D01*
X328040Y613473D02*
X328706Y614139D01*
X330039D01*
X330706Y613473D01*
Y612807D01*
X330039Y612140D01*
X329373D01*
X330039D01*
X330706Y611474D01*
Y610807D01*
X330039Y610141D01*
X328706D01*
X328040Y610807D01*
X91664Y660621D02*
Y657289D01*
X92330Y656623D01*
X93663D01*
X94330Y657289D01*
Y660621D01*
X98328Y656623D02*
X95662D01*
X98328Y659288D01*
Y659955D01*
X97662Y660621D01*
X96329D01*
X95662Y659955D01*
X561214Y113855D02*
X560548Y114521D01*
X559215D01*
X558548Y113855D01*
Y111189D01*
X559215Y110523D01*
X560548D01*
X561214Y111189D01*
X565213Y114521D02*
X563880Y113855D01*
X562547Y112522D01*
Y111189D01*
X563214Y110523D01*
X564547D01*
X565213Y111189D01*
Y111856D01*
X564547Y112522D01*
X562547D01*
X566546Y111189D02*
X567212Y110523D01*
X568545D01*
X569212Y111189D01*
Y113855D01*
X568545Y114521D01*
X567212D01*
X566546Y113855D01*
Y113188D01*
X567212Y112522D01*
X569212D01*
X593472Y113855D02*
X592806Y114521D01*
X591473D01*
X590806Y113855D01*
Y111189D01*
X591473Y110523D01*
X592806D01*
X593472Y111189D01*
X597471Y114521D02*
X596138Y113855D01*
X594805Y112522D01*
Y111189D01*
X595472Y110523D01*
X596805D01*
X597471Y111189D01*
Y111856D01*
X596805Y112522D01*
X594805D01*
X598804Y113855D02*
X599470Y114521D01*
X600803D01*
X601470Y113855D01*
Y113188D01*
X600803Y112522D01*
X601470Y111856D01*
Y111189D01*
X600803Y110523D01*
X599470D01*
X598804Y111189D01*
Y111856D01*
X599470Y112522D01*
X598804Y113188D01*
Y113855D01*
X599470Y112522D02*
X600803D01*
X659115Y113855D02*
X658449Y114521D01*
X657116D01*
X656449Y113855D01*
Y111189D01*
X657116Y110523D01*
X658449D01*
X659115Y111189D01*
X663114Y114521D02*
X660448D01*
Y112522D01*
X661781Y113188D01*
X662448D01*
X663114Y112522D01*
Y111189D01*
X662448Y110523D01*
X661115D01*
X660448Y111189D01*
X664447D02*
X665113Y110523D01*
X666446D01*
X667113Y111189D01*
Y113855D01*
X666446Y114521D01*
X665113D01*
X664447Y113855D01*
Y113188D01*
X665113Y112522D01*
X667113D01*
X627162Y113855D02*
X626495Y114521D01*
X625162D01*
X624496Y113855D01*
Y111189D01*
X625162Y110523D01*
X626495D01*
X627162Y111189D01*
X631160Y114521D02*
X628494D01*
Y112522D01*
X629827Y113188D01*
X630494D01*
X631160Y112522D01*
Y111189D01*
X630494Y110523D01*
X629161D01*
X628494Y111189D01*
X632493Y113855D02*
X633160Y114521D01*
X634492D01*
X635159Y113855D01*
Y113188D01*
X634492Y112522D01*
X635159Y111856D01*
Y111189D01*
X634492Y110523D01*
X633160D01*
X632493Y111189D01*
Y111856D01*
X633160Y112522D01*
X632493Y113188D01*
Y113855D01*
X633160Y112522D02*
X634492D01*
X513304Y466517D02*
X513971Y467184D01*
Y468517D01*
X513304Y469183D01*
X510639D01*
X509972Y468517D01*
Y467184D01*
X510639Y466517D01*
X509972Y463185D02*
X513971D01*
X511971Y465185D01*
Y462519D01*
X513971Y458520D02*
Y461186D01*
X511971D01*
X512638Y459853D01*
Y459186D01*
X511971Y458520D01*
X510639D01*
X509972Y459186D01*
Y460519D01*
X510639Y461186D01*
X504855Y356845D02*
Y360843D01*
X506855D01*
X507521Y360177D01*
Y358844D01*
X506855Y358177D01*
X504855D01*
X506188D02*
X507521Y356845D01*
X508854Y360843D02*
X511520D01*
Y360177D01*
X508854Y357511D01*
Y356845D01*
X514852D02*
Y360843D01*
X512853Y358844D01*
X515518D01*
X504878Y229979D02*
Y233978D01*
X506878D01*
X507544Y233312D01*
Y231979D01*
X506878Y231312D01*
X504878D01*
X506211D02*
X507544Y229979D01*
X508877Y233978D02*
X511543D01*
Y233312D01*
X508877Y230646D01*
Y229979D01*
X515541D02*
X512876D01*
X515541Y232645D01*
Y233312D01*
X514875Y233978D01*
X513542D01*
X512876Y233312D01*
X508541Y172718D02*
X512539D01*
Y170718D01*
X511873Y170052D01*
X510540D01*
X509874Y170718D01*
Y172718D01*
Y171385D02*
X508541Y170052D01*
X512539Y168719D02*
Y166053D01*
X511873D01*
X509207Y168719D01*
X508541D01*
X511873Y164720D02*
X512539Y164054D01*
Y162721D01*
X511873Y162054D01*
X509207D01*
X508541Y162721D01*
Y164054D01*
X509207Y164720D01*
X511873D01*
X504771Y144128D02*
Y148126D01*
X506770D01*
X507436Y147460D01*
Y146127D01*
X506770Y145460D01*
X504771D01*
X506103D02*
X507436Y144128D01*
X511435Y148126D02*
X510102Y147460D01*
X508769Y146127D01*
Y144794D01*
X509436Y144128D01*
X510769D01*
X511435Y144794D01*
Y145460D01*
X510769Y146127D01*
X508769D01*
X512768Y144794D02*
X513434Y144128D01*
X514767D01*
X515434Y144794D01*
Y147460D01*
X514767Y148126D01*
X513434D01*
X512768Y147460D01*
Y146793D01*
X513434Y146127D01*
X515434D01*
X504347Y250419D02*
Y254417D01*
X506347D01*
X507013Y253751D01*
Y252418D01*
X506347Y251751D01*
X504347D01*
X505680D02*
X507013Y250419D01*
X511012Y254417D02*
X509679Y253751D01*
X508346Y252418D01*
Y251085D01*
X509012Y250419D01*
X510345D01*
X511012Y251085D01*
Y251751D01*
X510345Y252418D01*
X508346D01*
X512345Y254417D02*
X515010D01*
Y253751D01*
X512345Y251085D01*
Y250419D01*
X504855Y314427D02*
Y318425D01*
X506855D01*
X507521Y317759D01*
Y316426D01*
X506855Y315760D01*
X504855D01*
X506188D02*
X507521Y314427D01*
X511520Y318425D02*
X510187Y317759D01*
X508854Y316426D01*
Y315093D01*
X509520Y314427D01*
X510853D01*
X511520Y315093D01*
Y315760D01*
X510853Y316426D01*
X508854D01*
X515518Y318425D02*
X514185Y317759D01*
X512853Y316426D01*
Y315093D01*
X513519Y314427D01*
X514852D01*
X515518Y315093D01*
Y315760D01*
X514852Y316426D01*
X512853D01*
X504855Y293091D02*
Y297089D01*
X506855D01*
X507521Y296423D01*
Y295090D01*
X506855Y294424D01*
X504855D01*
X506188D02*
X507521Y293091D01*
X511520Y297089D02*
X510187Y296423D01*
X508854Y295090D01*
Y293757D01*
X509520Y293091D01*
X510853D01*
X511520Y293757D01*
Y294424D01*
X510853Y295090D01*
X508854D01*
X514852Y293091D02*
Y297089D01*
X512853Y295090D01*
X515518D01*
X504855Y378566D02*
Y382565D01*
X506855D01*
X507521Y381898D01*
Y380566D01*
X506855Y379899D01*
X504855D01*
X506188D02*
X507521Y378566D01*
X511520Y382565D02*
X510187Y381898D01*
X508854Y380566D01*
Y379233D01*
X509520Y378566D01*
X510853D01*
X511520Y379233D01*
Y379899D01*
X510853Y380566D01*
X508854D01*
X512853Y381898D02*
X513519Y382565D01*
X514852D01*
X515518Y381898D01*
Y381232D01*
X514852Y380566D01*
X514185D01*
X514852D01*
X515518Y379899D01*
Y379233D01*
X514852Y378566D01*
X513519D01*
X512853Y379233D01*
X504855Y399962D02*
Y403961D01*
X506855D01*
X507521Y403295D01*
Y401962D01*
X506855Y401295D01*
X504855D01*
X506188D02*
X507521Y399962D01*
X511520Y403961D02*
X510187Y403295D01*
X508854Y401962D01*
Y400629D01*
X509520Y399962D01*
X510853D01*
X511520Y400629D01*
Y401295D01*
X510853Y401962D01*
X508854D01*
X515518Y399962D02*
X512853D01*
X515518Y402628D01*
Y403295D01*
X514852Y403961D01*
X513519D01*
X512853Y403295D01*
X504347Y271659D02*
Y275658D01*
X506347D01*
X507013Y274991D01*
Y273658D01*
X506347Y272992D01*
X504347D01*
X505680D02*
X507013Y271659D01*
X511012Y275658D02*
X509679Y274991D01*
X508346Y273658D01*
Y272325D01*
X509012Y271659D01*
X510345D01*
X511012Y272325D01*
Y272992D01*
X510345Y273658D01*
X508346D01*
X512345Y271659D02*
X513677D01*
X513011D01*
Y275658D01*
X512345Y274991D01*
X216558Y432677D02*
X220557D01*
Y430678D01*
X219890Y430011D01*
X218557D01*
X217891Y430678D01*
Y432677D01*
Y431344D02*
X216558Y430011D01*
X219890Y428678D02*
X220557Y428012D01*
Y426679D01*
X219890Y426012D01*
X219224D01*
X218557Y426679D01*
X217891Y426012D01*
X217224D01*
X216558Y426679D01*
Y428012D01*
X217224Y428678D01*
X217891D01*
X218557Y428012D01*
X219224Y428678D01*
X219890D01*
X218557Y428012D02*
Y426679D01*
X220557Y422014D02*
Y424680D01*
X218557D01*
X219224Y423347D01*
Y422680D01*
X218557Y422014D01*
X217224D01*
X216558Y422680D01*
Y424013D01*
X217224Y424680D01*
X228437Y468496D02*
X232436D01*
Y466497D01*
X231769Y465830D01*
X230436D01*
X229770Y466497D01*
Y468496D01*
Y467163D02*
X228437Y465830D01*
X232436Y464497D02*
Y461832D01*
X231769D01*
X229104Y464497D01*
X228437D01*
X231769Y460499D02*
X232436Y459832D01*
Y458499D01*
X231769Y457833D01*
X231103D01*
X230436Y458499D01*
X229770Y457833D01*
X229104D01*
X228437Y458499D01*
Y459832D01*
X229104Y460499D01*
X229770D01*
X230436Y459832D01*
X231103Y460499D01*
X231769D01*
X230436Y459832D02*
Y458499D01*
X204678Y432677D02*
X208677D01*
Y430678D01*
X208011Y430011D01*
X206678D01*
X206011Y430678D01*
Y432677D01*
Y431344D02*
X204678Y430011D01*
X208677Y428678D02*
Y426012D01*
X208011D01*
X205345Y428678D01*
X204678D01*
X208677Y422014D02*
X208011Y423347D01*
X206678Y424680D01*
X205345D01*
X204678Y424013D01*
Y422680D01*
X205345Y422014D01*
X206011D01*
X206678Y422680D01*
Y424680D01*
X483936Y112672D02*
X483269Y113339D01*
X481936D01*
X481270Y112672D01*
Y110006D01*
X481936Y109340D01*
X483269D01*
X483936Y110006D01*
X485269Y109340D02*
X486602D01*
X485935D01*
Y113339D01*
X485269Y112672D01*
X491267Y113339D02*
X489934Y112672D01*
X488601Y111339D01*
Y110006D01*
X489267Y109340D01*
X490600D01*
X491267Y110006D01*
Y110673D01*
X490600Y111339D01*
X488601D01*
X388432Y112672D02*
X387765Y113339D01*
X386432D01*
X385766Y112672D01*
Y110006D01*
X386432Y109340D01*
X387765D01*
X388432Y110006D01*
X389765Y109340D02*
X391098D01*
X390431D01*
Y113339D01*
X389765Y112672D01*
X393097Y109340D02*
X394430D01*
X393763D01*
Y113339D01*
X393097Y112672D01*
X386762Y146996D02*
Y143664D01*
X387429Y142998D01*
X388761D01*
X389428Y143664D01*
Y146996D01*
X392760Y142998D02*
Y146996D01*
X390761Y144997D01*
X393427D01*
X556596Y406621D02*
Y403289D01*
X557262Y402623D01*
X558595D01*
X559261Y403289D01*
Y406621D01*
X560594Y402623D02*
X561927D01*
X561261D01*
Y406621D01*
X560594Y405955D01*
X563927D02*
X564593Y406621D01*
X565926D01*
X566592Y405955D01*
Y405289D01*
X565926Y404622D01*
X565260D01*
X565926D01*
X566592Y403956D01*
Y403289D01*
X565926Y402623D01*
X564593D01*
X563927Y403289D01*
X576916Y305783D02*
Y302451D01*
X577582Y301785D01*
X578915D01*
X579581Y302451D01*
Y305783D01*
X580914Y301785D02*
X582247D01*
X581581D01*
Y305783D01*
X580914Y305117D01*
X586912Y301785D02*
X584247D01*
X586912Y304450D01*
Y305117D01*
X586246Y305783D01*
X584913D01*
X584247Y305117D01*
X654798Y141953D02*
Y138621D01*
X655464Y137955D01*
X656797D01*
X657464Y138621D01*
Y141953D01*
X658797Y137955D02*
X660130D01*
X659463D01*
Y141953D01*
X658797Y141287D01*
X662129Y137955D02*
X663462D01*
X662795D01*
Y141953D01*
X662129Y141287D01*
X178215Y341851D02*
Y338519D01*
X178881Y337853D01*
X180214D01*
X180881Y338519D01*
Y341851D01*
X184879Y337853D02*
X182214D01*
X184879Y340518D01*
Y341185D01*
X184213Y341851D01*
X182880D01*
X182214Y341185D01*
X186212Y337853D02*
X187545D01*
X186879D01*
Y341851D01*
X186212Y341185D01*
X178056Y435323D02*
Y431991D01*
X178723Y431325D01*
X180056D01*
X180722Y431991D01*
Y435323D01*
X184721Y431325D02*
X182055D01*
X184721Y433991D01*
Y434657D01*
X184055Y435323D01*
X182722D01*
X182055Y434657D01*
X186054D02*
X186720Y435323D01*
X188053D01*
X188720Y434657D01*
Y431991D01*
X188053Y431325D01*
X186720D01*
X186054Y431991D01*
Y434657D01*
X580693Y584626D02*
Y581294D01*
X581359Y580628D01*
X582692D01*
X583359Y581294D01*
Y584626D01*
X584692Y580628D02*
X586024D01*
X585358D01*
Y584626D01*
X584692Y583960D01*
X588024D02*
X588690Y584626D01*
X590023D01*
X590690Y583960D01*
Y581294D01*
X590023Y580628D01*
X588690D01*
X588024Y581294D01*
Y583960D01*
X85983Y108693D02*
Y105361D01*
X86650Y104694D01*
X87983D01*
X88649Y105361D01*
Y108693D01*
X89982Y104694D02*
X91315D01*
X90648D01*
Y108693D01*
X89982Y108027D01*
X21784Y613973D02*
X24450D01*
X23117D01*
Y609974D01*
X25783Y613973D02*
Y611307D01*
X27116Y609974D01*
X28449Y611307D01*
Y613973D01*
X32447Y613306D02*
X31781Y613973D01*
X30448D01*
X29781Y613306D01*
Y612640D01*
X30448Y611973D01*
X31781D01*
X32447Y611307D01*
Y610640D01*
X31781Y609974D01*
X30448D01*
X29781Y610640D01*
X36446Y609974D02*
X33780D01*
X36446Y612640D01*
Y613306D01*
X35780Y613973D01*
X34446D01*
X33780Y613306D01*
X147260Y35781D02*
X149925D01*
X148592D01*
Y31783D01*
X151258Y35781D02*
Y33116D01*
X152591Y31783D01*
X153924Y33116D01*
Y35781D01*
X157923Y35115D02*
X157256Y35781D01*
X155923D01*
X155257Y35115D01*
Y34448D01*
X155923Y33782D01*
X157256D01*
X157923Y33116D01*
Y32449D01*
X157256Y31783D01*
X155923D01*
X155257Y32449D01*
X159256Y31783D02*
X160588D01*
X159922D01*
Y35781D01*
X159256Y35115D01*
X310229Y269152D02*
X314227D01*
Y267152D01*
X313561Y266486D01*
X312228D01*
X311562Y267152D01*
Y269152D01*
Y267819D02*
X310229Y266486D01*
Y265153D02*
Y263820D01*
Y264486D01*
X314227D01*
X313561Y265153D01*
X310229Y261821D02*
Y260488D01*
Y261154D01*
X314227D01*
X313561Y261821D01*
X314227Y255823D02*
X313561Y257155D01*
X312228Y258488D01*
X310895D01*
X310229Y257822D01*
Y256489D01*
X310895Y255823D01*
X311562D01*
X312228Y256489D01*
Y258488D01*
X291687Y269152D02*
X295685D01*
Y267152D01*
X295019Y266486D01*
X293686D01*
X293020Y267152D01*
Y269152D01*
Y267819D02*
X291687Y266486D01*
Y265153D02*
Y263820D01*
Y264486D01*
X295685D01*
X295019Y265153D01*
X291687Y261821D02*
Y260488D01*
Y261154D01*
X295685D01*
X295019Y261821D01*
X295685Y255823D02*
Y258488D01*
X293686D01*
X294352Y257155D01*
Y256489D01*
X293686Y255823D01*
X292353D01*
X291687Y256489D01*
Y257822D01*
X292353Y258488D01*
X273145Y269152D02*
X277143D01*
Y267152D01*
X276477Y266486D01*
X275144D01*
X274478Y267152D01*
Y269152D01*
Y267819D02*
X273145Y266486D01*
Y265153D02*
Y263820D01*
Y264487D01*
X277143D01*
X276477Y265153D01*
X273145Y261821D02*
Y260488D01*
Y261154D01*
X277143D01*
X276477Y261821D01*
X273145Y256489D02*
X277143D01*
X275144Y258488D01*
Y255823D01*
X197867Y268406D02*
X201865D01*
Y266406D01*
X201199Y265740D01*
X199866D01*
X199200Y266406D01*
Y268406D01*
Y267073D02*
X197867Y265740D01*
Y264407D02*
Y263074D01*
Y263741D01*
X201865D01*
X201199Y264407D01*
X197867Y261075D02*
Y259742D01*
Y260408D01*
X201865D01*
X201199Y261075D01*
X197867Y257743D02*
Y256410D01*
Y257076D01*
X201865D01*
X201199Y257743D01*
X216663Y269231D02*
X220661D01*
Y267231D01*
X219995Y266565D01*
X218662D01*
X217995Y267231D01*
Y269231D01*
Y267898D02*
X216663Y266565D01*
Y265232D02*
Y263899D01*
Y264566D01*
X220661D01*
X219995Y265232D01*
X216663Y261900D02*
Y260567D01*
Y261233D01*
X220661D01*
X219995Y261900D01*
Y258568D02*
X220661Y257901D01*
Y256568D01*
X219995Y255902D01*
X217329D01*
X216663Y256568D01*
Y257901D01*
X217329Y258568D01*
X219995D01*
X204678Y468496D02*
X208677D01*
Y466497D01*
X208011Y465830D01*
X206678D01*
X206011Y466497D01*
Y468496D01*
Y467163D02*
X204678Y465830D01*
X208677Y464497D02*
Y461832D01*
X208011D01*
X205345Y464497D01*
X204678D01*
X208677Y457833D02*
Y460499D01*
X206678D01*
X207344Y459166D01*
Y458499D01*
X206678Y457833D01*
X205345D01*
X204678Y458499D01*
Y459832D01*
X205345Y460499D01*
X504855Y335509D02*
Y339507D01*
X506855D01*
X507521Y338841D01*
Y337508D01*
X506855Y336842D01*
X504855D01*
X506188D02*
X507521Y335509D01*
X508854Y339507D02*
X511520D01*
Y338841D01*
X508854Y336175D01*
Y335509D01*
X512853Y338841D02*
X513519Y339507D01*
X514852D01*
X515518Y338841D01*
Y338174D01*
X514852Y337508D01*
X514185D01*
X514852D01*
X515518Y336842D01*
Y336175D01*
X514852Y335509D01*
X513519D01*
X512853Y336175D01*
X508795Y194308D02*
X512793D01*
Y192308D01*
X512127Y191642D01*
X510794D01*
X510128Y192308D01*
Y194308D01*
Y192975D02*
X508795Y191642D01*
X512793Y187643D02*
X512127Y188976D01*
X510794Y190309D01*
X509461D01*
X508795Y189642D01*
Y188309D01*
X509461Y187643D01*
X510128D01*
X510794Y188309D01*
Y190309D01*
X512127Y186310D02*
X512793Y185644D01*
Y184311D01*
X512127Y183644D01*
X511460D01*
X510794Y184311D01*
X510128Y183644D01*
X509461D01*
X508795Y184311D01*
Y185644D01*
X509461Y186310D01*
X510128D01*
X510794Y185644D01*
X511460Y186310D01*
X512127D01*
X510794Y185644D02*
Y184311D01*
X508287Y215993D02*
X512285D01*
Y213994D01*
X511619Y213327D01*
X510286D01*
X509620Y213994D01*
Y215993D01*
Y214660D02*
X508287Y213327D01*
X512285Y211994D02*
Y209329D01*
X511619D01*
X508953Y211994D01*
X508287D01*
Y207996D02*
Y206663D01*
Y207329D01*
X512285D01*
X511619Y207996D01*
X504771Y122029D02*
Y126028D01*
X506770D01*
X507436Y125362D01*
Y124029D01*
X506770Y123362D01*
X504771D01*
X506103D02*
X507436Y122029D01*
X511435Y126028D02*
X510102Y125362D01*
X508769Y124029D01*
Y122696D01*
X509436Y122029D01*
X510769D01*
X511435Y122696D01*
Y123362D01*
X510769Y124029D01*
X508769D01*
X515434Y126028D02*
X512768D01*
Y124029D01*
X514101Y124695D01*
X514767D01*
X515434Y124029D01*
Y122696D01*
X514767Y122029D01*
X513434D01*
X512768Y122696D01*
X638618Y469347D02*
X642617D01*
Y467347D01*
X641950Y466681D01*
X640617D01*
X639951Y467347D01*
Y469347D01*
Y468014D02*
X638618Y466681D01*
X642617Y462682D02*
Y465348D01*
X640617D01*
X641284Y464015D01*
Y463348D01*
X640617Y462682D01*
X639284D01*
X638618Y463348D01*
Y464681D01*
X639284Y465348D01*
X642617Y458683D02*
Y461349D01*
X640617D01*
X641284Y460016D01*
Y459350D01*
X640617Y458683D01*
X639284D01*
X638618Y459350D01*
Y460683D01*
X639284Y461349D01*
X601810Y469374D02*
X605809D01*
Y467374D01*
X605142Y466708D01*
X603809D01*
X603143Y467374D01*
Y469374D01*
Y468041D02*
X601810Y466708D01*
X605809Y462709D02*
Y465375D01*
X603809D01*
X604476Y464042D01*
Y463376D01*
X603809Y462709D01*
X602476D01*
X601810Y463376D01*
Y464709D01*
X602476Y465375D01*
X605142Y461376D02*
X605809Y460710D01*
Y459377D01*
X605142Y458710D01*
X604476D01*
X603809Y459377D01*
Y460043D01*
Y459377D01*
X603143Y458710D01*
X602476D01*
X601810Y459377D01*
Y460710D01*
X602476Y461376D01*
X657017Y468784D02*
X661016D01*
Y466785D01*
X660349Y466118D01*
X659016D01*
X658350Y466785D01*
Y468784D01*
Y467451D02*
X657017Y466118D01*
X661016Y462120D02*
Y464785D01*
X659016D01*
X659683Y463453D01*
Y462786D01*
X659016Y462120D01*
X657683D01*
X657017Y462786D01*
Y464119D01*
X657683Y464785D01*
X657017Y460787D02*
Y459454D01*
Y460120D01*
X661016D01*
X660349Y460787D01*
X21784Y674429D02*
Y678428D01*
X23783D01*
X24450Y677762D01*
Y676429D01*
X23783Y675762D01*
X21784D01*
X23117D02*
X24450Y674429D01*
X28449D02*
X25783D01*
X28449Y677095D01*
Y677762D01*
X27782Y678428D01*
X26449D01*
X25783Y677762D01*
X29781Y674429D02*
X31114D01*
X30448D01*
Y678428D01*
X29781Y677762D01*
X23308Y130930D02*
X27307D01*
Y128931D01*
X26640Y128264D01*
X25307D01*
X24641Y128931D01*
Y130930D01*
Y129597D02*
X23308Y128264D01*
Y124265D02*
Y126931D01*
X25974Y124265D01*
X26640D01*
X27307Y124932D01*
Y126265D01*
X26640Y126931D01*
Y122933D02*
X27307Y122266D01*
Y120933D01*
X26640Y120267D01*
X23974D01*
X23308Y120933D01*
Y122266D01*
X23974Y122933D01*
X26640D01*
X476032Y582213D02*
Y578215D01*
X478698D01*
X480030Y581547D02*
X480697Y582213D01*
X482030D01*
X482696Y581547D01*
Y580880D01*
X482030Y580214D01*
X482696Y579548D01*
Y578881D01*
X482030Y578215D01*
X480697D01*
X480030Y578881D01*
Y579548D01*
X480697Y580214D01*
X480030Y580880D01*
Y581547D01*
X480697Y580214D02*
X482030D01*
X245050Y582477D02*
Y578478D01*
X247716D01*
X249049Y582477D02*
X251714D01*
Y581810D01*
X249049Y579144D01*
Y578478D01*
X129226Y582477D02*
Y578478D01*
X131892D01*
X135891Y582477D02*
X133225D01*
Y580477D01*
X134558Y581144D01*
X135224D01*
X135891Y580477D01*
Y579144D01*
X135224Y578478D01*
X133891D01*
X133225Y579144D01*
X21784Y720907D02*
Y716908D01*
X23783D01*
X24450Y717574D01*
Y720240D01*
X23783Y720907D01*
X21784D01*
X28449Y716908D02*
X25783D01*
X28449Y719574D01*
Y720240D01*
X27782Y720907D01*
X26449D01*
X25783Y720240D01*
X23308Y170235D02*
Y166236D01*
X25307D01*
X25974Y166902D01*
Y169568D01*
X25307Y170235D01*
X23308D01*
X27307Y166236D02*
X28640D01*
X27973D01*
Y170235D01*
X27307Y169568D01*
X390210Y582064D02*
X389543Y582731D01*
X388210D01*
X387544Y582064D01*
Y579398D01*
X388210Y578732D01*
X389543D01*
X390210Y579398D01*
X391543Y578732D02*
X392876D01*
X392209D01*
Y582731D01*
X391543Y582064D01*
X394875Y578732D02*
X396208D01*
X395541D01*
Y582731D01*
X394875Y582064D01*
X400873Y582731D02*
X398207D01*
Y580731D01*
X399540Y581398D01*
X400207D01*
X400873Y580731D01*
Y579398D01*
X400207Y578732D01*
X398874D01*
X398207Y579398D01*
X157910Y582207D02*
X157244Y582873D01*
X155911D01*
X155244Y582207D01*
Y579541D01*
X155911Y578875D01*
X157244D01*
X157910Y579541D01*
X159243Y578875D02*
X160576D01*
X159909D01*
Y582873D01*
X159243Y582207D01*
X162575Y578875D02*
X163908D01*
X163242D01*
Y582873D01*
X162575Y582207D01*
X167907Y578875D02*
Y582873D01*
X165907Y580874D01*
X168573D01*
X562066Y442755D02*
X561399Y443422D01*
X560067D01*
X559400Y442755D01*
Y440089D01*
X560067Y439423D01*
X561399D01*
X562066Y440089D01*
X566065Y443422D02*
X564732Y442755D01*
X563399Y441422D01*
Y440089D01*
X564065Y439423D01*
X565398D01*
X566065Y440089D01*
Y440756D01*
X565398Y441422D01*
X563399D01*
X567397Y443422D02*
X570063D01*
Y442755D01*
X567397Y440089D01*
Y439423D01*
X529747Y442755D02*
X529081Y443422D01*
X527748D01*
X527081Y442755D01*
Y440089D01*
X527748Y439423D01*
X529081D01*
X529747Y440089D01*
X533746Y443422D02*
X532413Y442755D01*
X531080Y441422D01*
Y440089D01*
X531746Y439423D01*
X533079D01*
X533746Y440089D01*
Y440756D01*
X533079Y441422D01*
X531080D01*
X537744Y443422D02*
X536411Y442755D01*
X535079Y441422D01*
Y440089D01*
X535745Y439423D01*
X537078D01*
X537744Y440089D01*
Y440756D01*
X537078Y441422D01*
X535079D01*
X595877Y442755D02*
X595211Y443422D01*
X593878D01*
X593212Y442755D01*
Y440089D01*
X593878Y439423D01*
X595211D01*
X595877Y440089D01*
X599876Y443422D02*
X598543Y442755D01*
X597210Y441422D01*
Y440089D01*
X597877Y439423D01*
X599210D01*
X599876Y440089D01*
Y440756D01*
X599210Y441422D01*
X597210D01*
X601209Y439423D02*
X602542D01*
X601875D01*
Y443422D01*
X601209Y442755D01*
X627505D02*
X626839Y443422D01*
X625506D01*
X624840Y442755D01*
Y440089D01*
X625506Y439423D01*
X626839D01*
X627505Y440089D01*
X631504Y443422D02*
X630171Y442755D01*
X628838Y441422D01*
Y440089D01*
X629505Y439423D01*
X630838D01*
X631504Y440089D01*
Y440756D01*
X630838Y441422D01*
X628838D01*
X632837Y442755D02*
X633503Y443422D01*
X634836D01*
X635503Y442755D01*
Y440089D01*
X634836Y439423D01*
X633503D01*
X632837Y440089D01*
Y442755D01*
X24450Y750974D02*
X23783Y751641D01*
X22450D01*
X21784Y750974D01*
Y748308D01*
X22450Y747642D01*
X23783D01*
X24450Y748308D01*
X28449Y747642D02*
X25783D01*
X28449Y750308D01*
Y750974D01*
X27782Y751641D01*
X26449D01*
X25783Y750974D01*
X29781D02*
X30448Y751641D01*
X31781D01*
X32447Y750974D01*
Y748308D01*
X31781Y747642D01*
X30448D01*
X29781Y748308D01*
Y750974D01*
X25974Y200302D02*
X25307Y200969D01*
X23974D01*
X23308Y200302D01*
Y197636D01*
X23974Y196970D01*
X25307D01*
X25974Y197636D01*
X27307Y196970D02*
X28640D01*
X27973D01*
Y200969D01*
X27307Y200302D01*
X30639Y197636D02*
X31305Y196970D01*
X32638D01*
X33305Y197636D01*
Y200302D01*
X32638Y200969D01*
X31305D01*
X30639Y200302D01*
Y199636D01*
X31305Y198969D01*
X33305D01*
X487820Y154887D02*
X487153Y155553D01*
X485820D01*
X485154Y154887D01*
Y152221D01*
X485820Y151555D01*
X487153D01*
X487820Y152221D01*
X489153Y151555D02*
X490486D01*
X489819D01*
Y155553D01*
X489153Y154887D01*
X492485D02*
X493151Y155553D01*
X494484D01*
X495151Y154887D01*
Y154221D01*
X494484Y153554D01*
X495151Y152888D01*
Y152221D01*
X494484Y151555D01*
X493151D01*
X492485Y152221D01*
Y152888D01*
X493151Y153554D01*
X492485Y154221D01*
Y154887D01*
X493151Y153554D02*
X494484D01*
X451678Y112672D02*
X451011Y113339D01*
X449678D01*
X449012Y112672D01*
Y110006D01*
X449678Y109340D01*
X451011D01*
X451678Y110006D01*
X453011Y109340D02*
X454344D01*
X453677D01*
Y113339D01*
X453011Y112672D01*
X456343Y113339D02*
X459009D01*
Y112672D01*
X456343Y110006D01*
Y109340D01*
X419674Y112672D02*
X419007Y113339D01*
X417674D01*
X417008Y112672D01*
Y110006D01*
X417674Y109340D01*
X419007D01*
X419674Y110006D01*
X421007Y109340D02*
X422340D01*
X421673D01*
Y113339D01*
X421007Y112672D01*
X427005Y109340D02*
X424339D01*
X427005Y112006D01*
Y112672D01*
X426338Y113339D01*
X425005D01*
X424339Y112672D01*
X24450Y695094D02*
X23783Y695761D01*
X22450D01*
X21784Y695094D01*
Y692428D01*
X22450Y691762D01*
X23783D01*
X24450Y692428D01*
X25783Y695094D02*
X26449Y695761D01*
X27782D01*
X28449Y695094D01*
Y694428D01*
X27782Y693761D01*
X28449Y693095D01*
Y692428D01*
X27782Y691762D01*
X26449D01*
X25783Y692428D01*
Y693095D01*
X26449Y693761D01*
X25783Y694428D01*
Y695094D01*
X26449Y693761D02*
X27782D01*
X25974Y144422D02*
X25307Y145089D01*
X23974D01*
X23308Y144422D01*
Y141756D01*
X23974Y141090D01*
X25307D01*
X25974Y141756D01*
X27307Y145089D02*
X29973D01*
Y144422D01*
X27307Y141756D01*
Y141090D01*
X24450Y661820D02*
X23783Y662487D01*
X22450D01*
X21784Y661820D01*
Y659154D01*
X22450Y658488D01*
X23783D01*
X24450Y659154D01*
X28449Y662487D02*
X25783D01*
Y660487D01*
X27116Y661154D01*
X27782D01*
X28449Y660487D01*
Y659154D01*
X27782Y658488D01*
X26449D01*
X25783Y659154D01*
X25974Y108862D02*
X25307Y109529D01*
X23974D01*
X23308Y108862D01*
Y106196D01*
X23974Y105530D01*
X25307D01*
X25974Y106196D01*
X29306Y105530D02*
Y109529D01*
X27307Y107529D01*
X29973D01*
X388208Y217487D02*
X387541Y218153D01*
X386208D01*
X385542Y217487D01*
Y214821D01*
X386208Y214155D01*
X387541D01*
X388208Y214821D01*
X389540D02*
X390207Y214155D01*
X391540D01*
X392206Y214821D01*
Y217487D01*
X391540Y218153D01*
X390207D01*
X389540Y217487D01*
Y216821D01*
X390207Y216154D01*
X392206D01*
X493585Y257029D02*
X494251Y257695D01*
Y259028D01*
X493585Y259695D01*
X490919D01*
X490253Y259028D01*
Y257695D01*
X490919Y257029D01*
X493585Y255696D02*
X494251Y255030D01*
Y253697D01*
X493585Y253030D01*
X492919D01*
X492252Y253697D01*
Y254363D01*
Y253697D01*
X491586Y253030D01*
X490919D01*
X490253Y253697D01*
Y255030D01*
X490919Y255696D01*
X24450Y641500D02*
X23783Y642167D01*
X22450D01*
X21784Y641500D01*
Y638834D01*
X22450Y638168D01*
X23783D01*
X24450Y638834D01*
X28449Y638168D02*
X25783D01*
X28449Y640834D01*
Y641500D01*
X27782Y642167D01*
X26449D01*
X25783Y641500D01*
X154432Y64579D02*
X153766Y65245D01*
X152433D01*
X151766Y64579D01*
Y61913D01*
X152433Y61247D01*
X153766D01*
X154432Y61913D01*
X155765Y61247D02*
X157098D01*
X156431D01*
Y65245D01*
X155765Y64579D01*
X333584Y264635D02*
Y261303D01*
X334250Y260637D01*
X335583D01*
X336249Y261303D01*
Y264635D01*
X337582Y260637D02*
X338915D01*
X338249D01*
Y264635D01*
X337582Y263969D01*
X340915D02*
X341581Y264635D01*
X342914D01*
X343580Y263969D01*
Y263302D01*
X342914Y262636D01*
X343580Y261970D01*
Y261303D01*
X342914Y260637D01*
X341581D01*
X340915Y261303D01*
Y261970D01*
X341581Y262636D01*
X340915Y263302D01*
Y263969D01*
X341581Y262636D02*
X342914D01*
D25*
X769999Y499997D02*
D03*
M02*
