M48
;Layer_Color=9474304
;FILE_FORMAT=4:2
METRIC,TZ
;TYPE=PLATED
T01F00S00C0.20
T02F00S00C0.50
T03F00S00C0.70
T04F00S00C0.95
T05F00S00C1.10
T06F00S00C3.18
;TYPE=NON_PLATED
T07F00S00C0.95
T08F00S00C1.65
%
T01
X25Y100
X110
Y25
X210
Y100
X310
Y25
X409
Y100
X509Y25
X609
X709
X808
X908
X1008
X1108
X1207
X1307
X1407
X1507
X1606
X1706
X1806
X1906
X2005
X2105
X2205
X2305
X2404
X2504
X2604
X2704
X2803
X2903
X3003
X3103
X3202
X3302
X3402
X3502
X3601
X3701
X3801
X3901
X3800Y242
Y360
Y478
Y722
Y840
Y958
X3897Y909
X3899Y777
X3554Y722
X3451
X3303Y771
X3200Y722
X3000
Y840
Y958
X2901Y903
X2903Y771
X2800Y722
Y840
Y958
X2728Y1058
X2654Y1095
X2577Y1058
X2103Y986
X2195Y736
X2005Y739
X2103Y500
X2195Y251
X2005
X1593Y218
X1392Y223
X1193Y223
X992Y223
X990Y897
X1191
X1391
X1591
X1253Y1062
X1146Y1062
X1114Y1319
X906Y1323
X701Y1172
X739Y1062
X119Y1100
X25
Y1200
X119
Y1300
X25
Y1400
Y1500
Y1600
Y1700
Y1800
Y1900
Y2000
Y2100
Y2200
Y2300
Y2400
Y2500
Y2600
Y2700
Y2800
Y2900
Y3000
Y3100
Y3200
Y3300
Y3400
Y3500
Y3600
Y3700
Y3800
Y3900
X245Y3939
X570Y3791
X1067Y3804
Y3704
Y3904
Y3467
X1600
X1717
X1821Y3854
X2102Y3818
X2108Y3892
X2101Y3726
X2359Y3825
X2508Y3877
X2623Y3927
X2652Y3835
X2563Y3742
X2438Y3668
X2756Y3619
X2765Y3477
X2909Y3524
X3020
X3121Y3568
X3163Y3475
X3020Y3669
X2909Y3669
X2868Y3828
X3055Y3919
X3444Y3911
X3630Y3908
X3622Y3667
X3625Y3198
X3730Y3196
X3500Y3042
X3495Y2919
X3304Y2807
X3172Y2808
X3200Y2896
X3121Y2898
X3145Y2969
X3055Y2845
X3084Y2717
X3005Y2705
X2882Y2708
X2820Y2655
X2875Y2507
X2699Y2508
X2724Y2348
X2426Y2348
X2135Y2229
X2065Y2230
X1803Y2220
X1692Y2291
X1685Y1836
Y1535
X1802Y1438
X1883Y1686
X2139Y1686
X2224Y2002
Y2086
X2578Y2044
X3099Y2348
X3098Y2497
X3208
X3137Y2662
X3355Y2715
X3548Y2497
X3644Y2486
X3781Y2638
X3862Y2719
X3917Y2145
X3388Y2222
X3292Y2188
X3338Y1971
X3733Y1507
X3402Y1038
X3453Y963
X3554Y840
Y478
Y360
Y242
X3212Y227
X3112Y273
X3000Y242
Y360
Y478
X2901Y423
X2903Y291
X2800Y242
Y360
Y478
X3200
X3320Y414
X3213Y960
X2400Y372
X1461Y1319
X1074Y1512
X1130Y1869
X1170Y2102
X915Y2142
X1078Y2326
X1115Y2592
X1333Y2591
X1588Y2972
X1740
X2396Y3145
X2506Y3197
X2732Y3133
X2656Y3024
X2800Y2972
X2705Y2871
X2561Y2921
X2896Y3073
X3950Y3848
X828Y3072
X668Y2750
X246Y2698
Y3171
X592Y1857
X857Y1793
X119Y1000
X25
Y900
X119
Y800
X25
Y700
X119
X25Y600
Y500
Y400
X106Y399
Y299
X25Y300
Y200
X106Y199
X205
X305
X205Y299
X4000Y242
Y360
Y478
X4203Y493
Y376
X4200Y25
X4299
X4399
X4499
X4599
X4698
X4798
X4898
X4998
X5097
X5197
X5297
X5397
X5496
X5596
X5696
X5796
X5895
X5995
X6095
X6195
X6294
X6394
X6494
X6594
X6693
X6793
X6893
X6993
X7092
X7192
X7292
X7392
X7491
X7591
X7691
X7791
X7890
X7690Y142
X7590
X7490
X7390
X7290
X7190
X7090
X6990
X6890
X6794
X6694
X6594
X6494
X6394
X6294
X6194
X6095Y354
X6294
X6494
X6693
X6899Y352
X7621Y324
X7621Y829
X7751Y1359
X7758Y1481
X7729Y1603
X7537Y1420
X7263
X6795Y1368
X6803Y1515
X6398Y1476
X6204Y1484
X5997
X5798
Y1208
X5661Y1232
X5997Y1211
X6317Y1060
X6500Y975
X6732Y1092
X6753Y1990
Y2132
Y2275
Y2418
X6903
Y2275
Y2132
Y1990
X6265Y2058
X6267Y1919
X6309Y2157
X6299Y2434
Y2557
Y2673
X6139
Y2554
Y2434
X6264Y2962
X6262Y3072
X6337Y3194
X5983Y3326
Y3435
X5865Y3393
Y3501
X5735Y3470
Y3371
X5598
Y3470
X5590Y3661
Y3778
Y3895
X5726
Y3778
X5454
Y3661
X5443Y3350
X5443Y3236
X5306
X5306Y3350
X5159Y3354
X4905
X4808Y3371
Y3470
X4671
Y3371
X4554Y3421
X4424Y3422
Y3581
X4489Y3546
X4554Y3581
X4536Y3712
X4435
X4638
X4735Y3716
X4813Y2870
X4927Y2813
X5055Y2870
X5155
X5255
X5055Y3010
X4273Y3136
X4197Y3065
X4478Y2481
X4574Y2148
X4446Y2051
X4817Y2147
X4948Y2174
X5478Y2280
X5472Y1450
X5328Y1411
X5075Y1461
X4816Y1463
X4572
X4438Y1355
X4404Y951
X4298Y954
X4201Y922
X4000Y840
Y722
X4000Y25
X4100
X4594Y951
X4700Y944
X4805Y951
X4900Y948
X4995Y951
X5102
X5197Y838
X5495Y951
X4997Y1247
X5199Y360
X7047Y2556
X7470Y2553
X7467Y2762
X7472Y2338
X7604Y2189
X7364Y3101
X7363Y3317
X6869Y3102
Y2996
X6775Y2943
Y3049
X6888Y3940
X6074Y3948
X8153Y3900
Y3800
X8475
Y3900
Y3700
Y3600
Y3500
Y3400
Y3300
Y3200
Y3100
Y3000
Y2900
Y2800
Y2700
Y2600
Y2500
Y2400
Y2300
Y2200
Y2100
Y2000
Y1900
Y1800
Y1700
Y1600
Y1500
Y1400
Y1300
Y1200
Y1100
Y1000
Y900
Y800
Y700
Y600
Y500
Y400
X8394Y405
Y305
X8475Y300
Y200
X8394Y205
X8294
X8194
X8190Y105
Y25
X8289
Y105
X8389
Y31
X8475Y100
X8294Y305
X8090Y105
Y25
X7990
X8339Y900
Y1000
Y1100
Y1200
Y1300
Y1400
Y1500
Y1600
Y1700
Y1800
Y1900
Y2000
Y2100
Y2200
Y2300
Y2400
Y2500
Y2600
Y2700
Y2800
Y2900
Y3000
Y3100
Y3200
Y3300
Y3400
X8475Y4000
Y4100
Y4200
Y4300
Y4400
Y4500
Y4600
Y4700
Y4800
Y4900
Y5000
Y5100
Y5200
Y5300
Y5400
Y5500
Y5600
Y5700
Y5800
Y5900
Y6000
Y6100
Y6200
Y6300
Y6400
Y6500
Y6600
Y6700
Y6800
Y6900
Y7000
Y7100
Y7200
Y7300
Y7400
Y7500
Y7600
Y7700
Y7800
Y7900
X8197Y7266
X8098
Y7128
X8197
X8218Y6974
Y6836
X8214Y6689
X8226Y6545
X8214Y6435
X8197Y6338
X8098
Y6201
X8197
X8303Y6200
Y6100
Y6000
Y5900
Y5800
Y5700
Y5600
X8149Y5956
Y6086
X8034Y6020
X7958Y6082
Y5957
X8303Y6300
Y6400
X8153Y4600
Y4500
Y4400
Y4300
Y4200
Y4100
Y4000
X6888Y4220
X6788
X6688
X6588
X6488
X6210Y4389
X6029Y4403
X5942Y4410
X5847Y4415
X5748Y4410
X5551
X5353
X5255Y4415
X5156Y4410
X5058Y4415
X4958Y4410
X4859Y4415
X4761Y4409
X4657Y4383
X4564Y4409
X4479Y4386
X4238Y4234
X4187Y4174
X4107Y4176
X4058Y4126
X3978Y4129
X4001Y4025
X4082Y4025
X4119Y4082
X4187Y4080
X4130Y3972
X4051Y4486
X4212Y5194
X4339
X4338Y5517
X4491
X4542Y5603
X4406
X4262
X4338Y5695
X4491
X4685Y5598
X4627Y5475
X4698Y5390
X4681Y5291
X4659Y5133
X4742Y5045
X4751Y4729
X5148Y4740
X5151Y5055
X5148Y5194
X5056Y5144
X5004Y5194
X5142Y5519
X5294
X5345Y5606
X5209
X5066
X5142Y5697
X5294
X5489Y5601
X5504Y5395
X5654Y5295
X5817Y5194
X5851Y5144
X5946Y5194
X5942Y5057
X5942Y4740
X6205Y4644
X6803Y4644
X6890Y4646
X6810Y4472
X6751Y5194
X6624
X6495Y5382
X6400Y5385
X6324Y5295
X6293Y5604
X6148Y5608
X6012
X5869
X5945Y5522
X6097
Y5700
X5945
X5686Y5805
X5575Y5852
X5613Y5970
X5502Y5992
X5560Y6064
X5666
X5613Y6158
X5662Y6584
X5704Y7055
X5597Y7058
X5495Y7055
X5397Y7058
X5399Y6971
X5304Y7056
X5300Y7221
X5399Y7221
X5397Y7308
X5506Y7271
X5603Y7321
X5601Y7218
X5701Y7214
X5800Y7218
X5796Y7308
X5999Y7321
X5997Y7216
X6101Y7215
X6204Y7217
X6198Y7308
X6411Y7316
Y7217
X6500Y7213
X6599Y7244
X6596Y7312
X6504Y7055
X6397Y7033
X6295Y7055
X6105
X6000Y7030
X6002Y6943
X5894Y7055
X6694
X6456Y6580
X6417Y6164
X6364Y6070
X6470
X6417Y5975
X6305Y5998
X6377Y5854
X6489Y5802
X6750Y5697
X6903
X6953Y5606
X6817
X6674
X6750Y5519
X6903
X7069Y5475
X7106Y5388
X7133Y5289
X7097Y5602
X7183Y5852
X7294Y5807
X7223Y5970
X7111Y5993
X7170Y6064
X7276
X7223Y6159
X7488Y5987
X7856Y5965
Y6067
Y6168
Y6270
X7495Y6512
X7402Y6558
X7495Y6801
X7467Y7256
X7575
X7683
X7810
X7927
Y7121
X7810
Y6985
X7927
X7582Y5601
X7686Y5164
X5547Y5056
X5454Y5144
X5545Y4740
X5271Y4080
X4985
X4873Y5808
X4785Y5850
X4809Y5966
X4697Y5989
X4756Y6060
X4862
X4809Y6155
X4027Y6120
X4016Y6232
X4035Y6345
X4020Y7415
X4120
X4220
X4320
X4420
X4520
X4620
X3920
X3820
X3492Y6883
X3190Y6963
X2935Y6858
X2871
X2796Y6957
X2536Y6858
X2455
X2393Y6947
X2139Y6858
X2072
X1994Y6942
X2007Y7252
X2198Y7160
X2413Y7315
X2603Y7159
X3003Y7151
X3059Y6294
X3141Y6293
X3226Y6232
X3354
X3302Y6157
X3358Y6082
X3376Y6022
X3485Y5993
X3485Y6083
X3484Y6232
X3565Y6293
X3409Y6345
Y6408
X3324Y6345
X3244Y6346
X3043Y6163
X2953
X2950Y6068
X3045
X3075Y5910
Y5833
X3126Y5781
X3132Y5717
X2963Y5693
X2970Y5758
X3289Y5855
X3376
X3222Y5924
X2776Y5993
X2789Y6083
X2690Y6082
X2670Y6023
X2591Y6157
X2645Y6232
X2517
X2532Y6346
X2613Y6345
X2693
X2773
X2773Y6411
X2775Y6232
X2857Y6293
X2432Y6293
X2342Y6293
X2334Y6163
X2244
X2242Y6068
X2337
X2366Y5910
X2369Y5833
X2414Y5788
X2410Y5712
X2267Y5684
X2265Y5756
X2581Y5855
X2514Y5924
X2068Y5993
X2070Y6082
X1978Y6091
X1966Y6022
X1885Y6157
X1937Y6232
X1808
X1825Y6345
X1905Y6345
X1985
X2065
X2067Y6232
X2148Y6293
X2123Y6455
X1725Y6293
X1634Y6293
X1627Y6163
X1537
X1534Y6068
X1629
X1658Y5910
X1658Y5834
X1706Y5783
X1702Y5716
X1558Y5753
X1556Y5672
X1582Y5480
X1767Y5425
X1767Y5114
X1588Y4966
X1404Y5111
X1230Y4966
X1052Y5111
X1052Y5425
X573Y5410
X668Y5607
X689Y5866
Y5968
Y6070
Y6171
X587Y5984
Y5860
X521Y5923
X407Y5987
Y5857
X248Y5817
X248Y5652
X208Y5514
X25Y5500
Y5600
Y5700
Y5800
Y5900
Y6000
Y6100
Y6200
Y6300
Y6400
Y6500
Y6600
Y6700
Y6800
Y6900
Y7000
Y7100
Y7200
Y7300
Y7400
Y7500
Y7600
Y7700
Y7800
Y7900
X189Y7584
X360Y7141
X460
Y7003
X360
X339Y6838
X227
Y6726
X339
X331Y6566
X469Y6501
X447Y6242
X348
X331Y6312
X225Y6426
X348Y6105
X447
X761Y5803
X885Y5771
X1047Y5976
X1238Y6021
X1256Y6085
X1361Y6082
X1355Y5993
X1361Y6199
X1272
X1270Y6345
X1356
X1440Y6293
X1416Y6451
X1438Y6540
X1348
X1257Y6539
X1348Y6634
X1438
X1439Y6727
X1606Y6886
X1803Y7150
X1135Y6987
X1039Y6990
Y6845
X1135Y6843
X1043Y6554
Y6409
X1047Y6265
X644Y6776
X668Y5006
X828Y4691
X1052Y4648
X902Y4483
X1067Y4304
Y4204
Y4104
Y4004
X1472Y4003
X1588Y4081
X1493Y4177
X1856Y4123
X1981Y4242
X2125Y4227
X2413Y4166
X2563
X2699
X2845Y4160
X2960Y4139
X2845Y4335
X2703
X2558
X2407Y4320
X2364Y4427
X2693Y4486
X2680Y4598
X2756Y4597
X2806Y4683
X2886Y4683
X3254Y4651
X3500Y4577
X3392Y4454
X3122Y4438
X3647Y4711
X3900Y4626
X3951Y4768
X3797Y5114
X3466
X3465Y5428
X3631
X3657Y5697
X3657Y5761
X3732Y5827
X3791Y5828
X3784Y5910
X3849Y5915
X3851Y5979
X3931Y5924
X3905Y5689
X3965Y5687
X3927Y6232
X3946Y6345
X3850Y6293
X3752Y6163
X3662
X3659Y6068
X3754
X2852Y5420
X2739Y5416
X2453Y4956
X2327Y4953
X1947Y4964
X2016Y4722
X1410Y4648
X668Y4369
X398Y4317
X255Y4317
Y4488
X25Y4500
Y4600
Y4700
Y4800
Y4900
Y5000
Y5100
Y5200
Y5300
Y5400
X246Y4790
X25Y4400
Y4300
Y4200
Y4100
Y4000
X394Y4146
X546
X669Y3977
X2758Y3979
X3905Y4077
X1838Y5853
X1806Y5924
X1813Y8374
X1913
X2012
X2112
X2212
X2312
X2411
X2511
X2611
X2711
X2810
X2910
X3010
X3110
X3209
X3309
X3409
X3509
X3608
X3708
X3808
X3908
Y8473
X3808
X3708
X3608
X3509
X3409
X3309
X3209
X3110
X3010
X2910
X2810
X2711
X2611
X2511
X2411
X2312
X2212
X2112
X2012
X1913
X1813
X1713
Y8374
X1613
X1514
X1414
X1314
X1214
X1115
X1015
X915
X815
Y8473
X915
X1015
X1115
X1214
X1314
X1414
X1514
X1613
X716
X616
X516
X416
Y8399
X317
Y8473
X217
Y8399
X117
Y8473
X30Y8399
X25Y8300
X113
X212
X312
X212Y8200
X113
X25
Y8100
X113
X25Y8000
X4007Y8374
X4107
X4207
X4306
X4406
X4506
X4606
X4705
X4805
X4905
X5005
X5104
X5204
X5304
X5404
X5503
X5603
X5703
X5803
X5902
X6002
X6102
X6202
X6301
X6401
X6501
X6601
X6700
X6800
X6900
X7000
X7099
X7199
X7299
X7399
X7498
X7598
Y8473
X7498
X7399
X7299
X7199
X7099
X7000
X6900
X6800
X6700
X6601
X6501
X6401
X6301
X6202
X6102
X6002
X5902
X5803
X5703
X5603
X5503
X5404
X5304
X5204
X5104
X5005
X4905
X4805
X4705
X4606
X4506
X4406
X4306
X4207
X4107
X4007
X7698
X7798
X7897
X7997
X8097
Y8394
X8197
Y8473
X8296
Y8394
X8396
Y8468
X8479Y8399
X8475Y8300
X8401Y8294
X8301
X8201
X8301Y8194
X8401
X8475Y8200
Y8100
X8401Y8094
X8475Y8000
T02
X6610Y3825
Y3950
Y4075
T03
X338Y338
X271Y500
X338Y662
X500Y729
X662Y662
X729Y500
X662Y338
X500Y271
X7838Y338
X7771Y500
X7838Y662
X8000Y729
X8162Y662
X8229Y500
X8162Y338
X8000Y271
Y7771
X8162Y7838
X7838
X662
X500Y7771
X338Y7838
X271Y8000
X338Y8162
X500Y8229
X662Y8162
X729Y8000
X7771
X7838Y8162
X8000Y8229
X8162Y8162
X8229Y8000
T04
X5575Y600
Y1075
X7225
Y600
X6925Y7425
Y7900
X5075
Y7425
X3425
Y7900
X1575
Y7425
T05
X7412Y3737
Y3991
Y4245
Y4499
Y4753
T06
X500Y500
X8000
X500Y8000
X8000
T07
X1775Y362
Y838
X5425
Y362
X8130Y1127
Y1712
Y2233
Y3318
T08
X2548Y595
X3625
M30
