G04*
G04 #@! TF.GenerationSoftware,Altium Limited,Altium Designer,24.1.2 (44)*
G04*
G04 Layer_Color=8421504*
%FSLAX44Y44*%
%MOMM*%
G71*
G04*
G04 #@! TF.SameCoordinates,3CF5218A-9FD7-4805-B715-A3E35C90ED60*
G04*
G04*
G04 #@! TF.FilePolarity,Positive*
G04*
G01*
G75*
%ADD23C,0.5000*%
%ADD26C,1.2300*%
%ADD27R,0.7000X1.5000*%
%ADD28R,0.8000X1.5000*%
%ADD29R,1.5000X0.7000*%
%ADD30R,1.5000X0.8000*%
%ADD31R,0.2500X0.6500*%
%ADD32R,0.6500X0.3000*%
%ADD33R,0.6000X1.0000*%
%ADD34R,0.6500X0.2500*%
%ADD35R,0.6500X0.2286*%
%ADD36R,0.3000X2.4000*%
%ADD37R,0.6500X0.3000*%
%ADD38R,1.4000X1.8000*%
%ADD39R,1.8000X1.4000*%
%ADD40R,1.9050X1.2954*%
%ADD41R,1.5000X1.0000*%
%ADD42R,0.7000X0.8000*%
G04:AMPARAMS|DCode=43|XSize=0.8mm|YSize=0.7mm|CornerRadius=0mm|HoleSize=0mm|Usage=FLASHONLY|Rotation=45.000|XOffset=0mm|YOffset=0mm|HoleType=Round|Shape=Rectangle|*
%AMROTATEDRECTD43*
4,1,4,-0.0354,-0.5303,-0.5303,-0.0354,0.0354,0.5303,0.5303,0.0354,-0.0354,-0.5303,0.0*
%
%ADD43ROTATEDRECTD43*%

G04:AMPARAMS|DCode=44|XSize=0.8mm|YSize=0.7mm|CornerRadius=0mm|HoleSize=0mm|Usage=FLASHONLY|Rotation=315.000|XOffset=0mm|YOffset=0mm|HoleType=Round|Shape=Rectangle|*
%AMROTATEDRECTD44*
4,1,4,-0.5303,0.0354,-0.0354,0.5303,0.5303,-0.0354,0.0354,-0.5303,-0.5303,0.0354,0.0*
%
%ADD44ROTATEDRECTD44*%

%ADD45R,0.8000X0.7000*%
%ADD46R,1.5494X0.6604*%
G04:AMPARAMS|DCode=47|XSize=1.55mm|YSize=0.6mm|CornerRadius=0.03mm|HoleSize=0mm|Usage=FLASHONLY|Rotation=180.000|XOffset=0mm|YOffset=0mm|HoleType=Round|Shape=RoundedRectangle|*
%AMROUNDEDRECTD47*
21,1,1.5500,0.5400,0,0,180.0*
21,1,1.4900,0.6000,0,0,180.0*
1,1,0.0600,-0.7450,0.2700*
1,1,0.0600,0.7450,0.2700*
1,1,0.0600,0.7450,-0.2700*
1,1,0.0600,-0.7450,-0.2700*
%
%ADD47ROUNDEDRECTD47*%
%ADD48R,3.0000X2.1000*%
%ADD49R,1.6000X0.8000*%
%ADD50R,0.3300X1.3500*%
%ADD51R,1.3500X0.3300*%
G04:AMPARAMS|DCode=52|XSize=2.16mm|YSize=0.72mm|CornerRadius=0.18mm|HoleSize=0mm|Usage=FLASHONLY|Rotation=0.000|XOffset=0mm|YOffset=0mm|HoleType=Round|Shape=RoundedRectangle|*
%AMROUNDEDRECTD52*
21,1,2.1600,0.3600,0,0,0.0*
21,1,1.8000,0.7200,0,0,0.0*
1,1,0.3600,0.9000,-0.1800*
1,1,0.3600,-0.9000,-0.1800*
1,1,0.3600,-0.9000,0.1800*
1,1,0.3600,0.9000,0.1800*
%
%ADD52ROUNDEDRECTD52*%
%ADD53R,1.2000X0.8000*%
%ADD54R,2.0000X4.2000*%
%ADD55R,0.4500X0.3000*%
%ADD56R,1.8000X1.8000*%
%ADD57R,0.9500X0.9000*%
%ADD58R,1.0000X1.5000*%
%ADD59O,0.3500X1.4000*%
%ADD60O,0.6000X1.8000*%
%ADD61R,3.0988X2.2098*%
%ADD62R,1.7018X0.8128*%
G04:AMPARAMS|DCode=63|XSize=1.4mm|YSize=1.2mm|CornerRadius=0mm|HoleSize=0mm|Usage=FLASHONLY|Rotation=45.000|XOffset=0mm|YOffset=0mm|HoleType=Round|Shape=Rectangle|*
%AMROTATEDRECTD63*
4,1,4,-0.0707,-0.9192,-0.9192,-0.0707,0.0707,0.9192,0.9192,0.0707,-0.0707,-0.9192,0.0*
%
%ADD63ROTATEDRECTD63*%

G04:AMPARAMS|DCode=64|XSize=0.7mm|YSize=2.4mm|CornerRadius=0.049mm|HoleSize=0mm|Usage=FLASHONLY|Rotation=180.000|XOffset=0mm|YOffset=0mm|HoleType=Round|Shape=RoundedRectangle|*
%AMROUNDEDRECTD64*
21,1,0.7000,2.3020,0,0,180.0*
21,1,0.6020,2.4000,0,0,180.0*
1,1,0.0980,-0.3010,1.1510*
1,1,0.0980,0.3010,1.1510*
1,1,0.0980,0.3010,-1.1510*
1,1,0.0980,-0.3010,-1.1510*
%
%ADD64ROUNDEDRECTD64*%
G04:AMPARAMS|DCode=65|XSize=3.2mm|YSize=2.4mm|CornerRadius=0.048mm|HoleSize=0mm|Usage=FLASHONLY|Rotation=180.000|XOffset=0mm|YOffset=0mm|HoleType=Round|Shape=RoundedRectangle|*
%AMROUNDEDRECTD65*
21,1,3.2000,2.3040,0,0,180.0*
21,1,3.1040,2.4000,0,0,180.0*
1,1,0.0960,-1.5520,1.1520*
1,1,0.0960,1.5520,1.1520*
1,1,0.0960,1.5520,-1.1520*
1,1,0.0960,-1.5520,-1.1520*
%
%ADD65ROUNDEDRECTD65*%
%ADD66R,3.5000X2.9500*%
G04:AMPARAMS|DCode=67|XSize=1.96mm|YSize=0.57mm|CornerRadius=0.1397mm|HoleSize=0mm|Usage=FLASHONLY|Rotation=0.000|XOffset=0mm|YOffset=0mm|HoleType=Round|Shape=RoundedRectangle|*
%AMROUNDEDRECTD67*
21,1,1.9600,0.2907,0,0,0.0*
21,1,1.6807,0.5700,0,0,0.0*
1,1,0.2793,0.8404,-0.1454*
1,1,0.2793,-0.8404,-0.1454*
1,1,0.2793,-0.8404,0.1454*
1,1,0.2793,0.8404,0.1454*
%
%ADD67ROUNDEDRECTD67*%
%ADD68R,1.9539X0.5821*%
%ADD69R,0.9000X0.9500*%
G36*
X128663Y33447D02*
X128672Y33352D01*
Y27332D01*
X128663Y27236D01*
X128635Y27144D01*
X128590Y27060D01*
X128529Y26985D01*
X128454Y26924D01*
X128370Y26879D01*
X128278Y26851D01*
X128182Y26842D01*
X119162D01*
X119066Y26851D01*
X118975Y26879D01*
X118890Y26924D01*
X118816Y26985D01*
X118755Y27060D01*
X118709Y27144D01*
X118682Y27236D01*
X118672Y27332D01*
Y33352D01*
X118682Y33447D01*
X118709Y33539D01*
X118755Y33624D01*
X118816Y33698D01*
X118890Y33759D01*
X118975Y33805D01*
X119066Y33832D01*
X119162Y33842D01*
X128182D01*
X128278Y33832D01*
X128370Y33805D01*
X128454Y33759D01*
X128529Y33698D01*
X128590Y33624D01*
X128635Y33539D01*
X128663Y33447D01*
D02*
G37*
G36*
Y42447D02*
X128672Y42352D01*
Y36332D01*
X128663Y36236D01*
X128635Y36144D01*
X128590Y36060D01*
X128529Y35985D01*
X128454Y35924D01*
X128370Y35879D01*
X128278Y35851D01*
X128182Y35842D01*
X119162D01*
X119066Y35851D01*
X118975Y35879D01*
X118890Y35924D01*
X118816Y35985D01*
X118755Y36060D01*
X118709Y36144D01*
X118682Y36236D01*
X118672Y36332D01*
Y42352D01*
X118682Y42447D01*
X118709Y42539D01*
X118755Y42624D01*
X118816Y42698D01*
X118890Y42759D01*
X118975Y42804D01*
X119066Y42832D01*
X119162Y42842D01*
X128182D01*
X128278Y42832D01*
X128370Y42804D01*
X128454Y42759D01*
X128529Y42698D01*
X128590Y42624D01*
X128635Y42539D01*
X128663Y42447D01*
D02*
G37*
G36*
X200753Y186497D02*
X226753D01*
Y155497D01*
X200753D01*
Y186497D01*
D02*
G37*
G36*
X47762Y603891D02*
X47753Y603987D01*
Y610007D01*
X47762Y610102D01*
X47790Y610194D01*
X47836Y610279D01*
X47897Y610353D01*
X47971Y610414D01*
X48056Y610460D01*
X48147Y610487D01*
X48243Y610497D01*
X57263D01*
X57359Y610487D01*
X57451Y610460D01*
X57535Y610414D01*
X57610Y610353D01*
X57670Y610279D01*
X57716Y610194D01*
X57744Y610102D01*
X57753Y610007D01*
Y603987D01*
X57744Y603891D01*
X57716Y603799D01*
X57670Y603715D01*
X57610Y603640D01*
X57535Y603579D01*
X57451Y603534D01*
X57359Y603506D01*
X57263Y603497D01*
X48243D01*
X48147Y603506D01*
X48056Y603534D01*
X47971Y603579D01*
X47897Y603640D01*
X47836Y603715D01*
X47790Y603799D01*
X47762Y603891D01*
D02*
G37*
G36*
Y612891D02*
X47753Y612987D01*
Y619007D01*
X47762Y619102D01*
X47790Y619194D01*
X47836Y619279D01*
X47897Y619353D01*
X47971Y619414D01*
X48056Y619459D01*
X48147Y619487D01*
X48243Y619497D01*
X57263D01*
X57359Y619487D01*
X57451Y619459D01*
X57535Y619414D01*
X57610Y619353D01*
X57670Y619279D01*
X57716Y619194D01*
X57744Y619102D01*
X57753Y619007D01*
Y612987D01*
X57744Y612891D01*
X57716Y612799D01*
X57670Y612715D01*
X57610Y612640D01*
X57535Y612579D01*
X57451Y612534D01*
X57359Y612506D01*
X57263Y612497D01*
X48243D01*
X48147Y612506D01*
X48056Y612534D01*
X47971Y612579D01*
X47897Y612640D01*
X47836Y612715D01*
X47790Y612799D01*
X47762Y612891D01*
D02*
G37*
D23*
X431847Y503690D02*
G03*
X431847Y503690I-2000J0D01*
G01*
X101207Y501162D02*
G03*
X101207Y501162I-2000J0D01*
G01*
X212399Y505936D02*
G03*
X212399Y505936I-2000J0D01*
G01*
X327343Y507214D02*
G03*
X327343Y507214I-2000J0D01*
G01*
D26*
X843653Y837997D02*
G03*
X838020Y843646I-5650J0D01*
G01*
X838003Y6347D02*
G03*
X843653Y11984I0J5650D01*
G01*
X6353Y11997D02*
G03*
X11991Y6347I5650J0D01*
G01*
X12003Y843647D02*
G03*
X6353Y838009I0J-5650D01*
G01*
X843653Y11997D02*
X843653Y837971D01*
X12003Y6347D02*
X837978Y6347D01*
X12021Y843647D02*
X838003Y843646D01*
X6353Y12022D02*
X6353Y837997D01*
D27*
X114486Y765951D02*
D03*
D28*
X130485D02*
D03*
D29*
X98055Y197973D02*
D03*
D30*
Y213972D02*
D03*
D31*
X204120Y552437D02*
D03*
Y524237D02*
D03*
X209121D02*
D03*
X214121D02*
D03*
X219121D02*
D03*
X209121Y552437D02*
D03*
X214121D02*
D03*
X219121D02*
D03*
X320152D02*
D03*
Y524237D02*
D03*
X325152D02*
D03*
X330152D02*
D03*
X335152D02*
D03*
X325152Y552437D02*
D03*
X330152D02*
D03*
X335152D02*
D03*
X96142Y688897D02*
D03*
X81642D02*
D03*
X81642Y671397D02*
D03*
X96113D02*
D03*
X96021Y136168D02*
D03*
X81522D02*
D03*
X81522Y118668D02*
D03*
X95992D02*
D03*
X436183Y552437D02*
D03*
Y524237D02*
D03*
X441183D02*
D03*
X446183D02*
D03*
X451183D02*
D03*
X441183Y552437D02*
D03*
X446183D02*
D03*
X451183D02*
D03*
X88089D02*
D03*
Y524237D02*
D03*
X93089D02*
D03*
X98089D02*
D03*
X103089D02*
D03*
X93089Y552437D02*
D03*
X98089D02*
D03*
X103089D02*
D03*
D32*
X206871Y531834D02*
D03*
X216371D02*
D03*
X322902D02*
D03*
X332402D02*
D03*
X438933D02*
D03*
X448433D02*
D03*
X90839D02*
D03*
X100339D02*
D03*
D33*
X207120Y541337D02*
D03*
X216120D02*
D03*
X323152D02*
D03*
X332152D02*
D03*
X100089D02*
D03*
X439183D02*
D03*
X448183D02*
D03*
X91089D02*
D03*
X237849Y280824D02*
D03*
X256849D02*
D03*
X237849Y304824D02*
D03*
X247349D02*
D03*
X256849D02*
D03*
X247349Y280824D02*
D03*
D34*
X197370Y528337D02*
D03*
Y533337D02*
D03*
Y543337D02*
D03*
Y548337D02*
D03*
X225870D02*
D03*
Y543337D02*
D03*
Y538337D02*
D03*
Y533337D02*
D03*
Y528337D02*
D03*
X313402D02*
D03*
Y533337D02*
D03*
Y543337D02*
D03*
Y548337D02*
D03*
X341902D02*
D03*
Y543337D02*
D03*
Y538337D02*
D03*
Y533337D02*
D03*
Y528337D02*
D03*
X79642Y682395D02*
D03*
Y677904D02*
D03*
X98142Y682395D02*
D03*
X98112Y677904D02*
D03*
X79522Y129666D02*
D03*
Y125175D02*
D03*
X98021Y129666D02*
D03*
X97992Y125175D02*
D03*
X429433Y528337D02*
D03*
Y533337D02*
D03*
Y543337D02*
D03*
Y548337D02*
D03*
X457933D02*
D03*
Y543337D02*
D03*
Y538337D02*
D03*
Y533337D02*
D03*
Y528337D02*
D03*
X81339D02*
D03*
Y533337D02*
D03*
Y543337D02*
D03*
Y548337D02*
D03*
X109839D02*
D03*
Y543337D02*
D03*
Y538337D02*
D03*
Y533337D02*
D03*
Y528337D02*
D03*
D35*
X197370Y538337D02*
D03*
X313402D02*
D03*
X429433D02*
D03*
X81339D02*
D03*
D36*
X91383Y680147D02*
D03*
X86383Y680136D02*
D03*
X91263Y127418D02*
D03*
X86262Y127408D02*
D03*
D37*
X79642Y673147D02*
D03*
X98142Y687147D02*
D03*
X79642D02*
D03*
X98113Y673147D02*
D03*
X79522Y120418D02*
D03*
X98021Y134418D02*
D03*
X79522D02*
D03*
X97992Y120418D02*
D03*
D38*
X231983Y214248D02*
D03*
X205983D02*
D03*
X75336Y748939D02*
D03*
X49336D02*
D03*
X75215Y196210D02*
D03*
X49215D02*
D03*
X75019Y639431D02*
D03*
X49019D02*
D03*
X102007Y62085D02*
D03*
X128006D02*
D03*
D39*
X489971Y170912D02*
D03*
Y196912D02*
D03*
X389387Y170912D02*
D03*
Y196912D02*
D03*
X123005Y196169D02*
D03*
Y222169D02*
D03*
D40*
X50415Y477633D02*
D03*
Y421633D02*
D03*
Y392407D02*
D03*
Y336407D02*
D03*
D41*
X451658Y566527D02*
D03*
Y594990D02*
D03*
X219596Y566527D02*
D03*
Y594990D02*
D03*
X335627Y566527D02*
D03*
Y594990D02*
D03*
X103565Y566527D02*
D03*
Y594990D02*
D03*
D42*
X102959Y340085D02*
D03*
X118959D02*
D03*
Y357371D02*
D03*
X102959D02*
D03*
Y421891D02*
D03*
X118959D02*
D03*
X118959Y439179D02*
D03*
X102959D02*
D03*
X711332Y491167D02*
D03*
X695332D02*
D03*
X284670Y324371D02*
D03*
X300670D02*
D03*
Y338680D02*
D03*
X284670D02*
D03*
X362812Y611883D02*
D03*
X378812D02*
D03*
X229495D02*
D03*
X245495D02*
D03*
X378812Y627123D02*
D03*
X394812D02*
D03*
X245495D02*
D03*
X261495D02*
D03*
X426096Y580255D02*
D03*
X410096D02*
D03*
X194033D02*
D03*
X178033D02*
D03*
X362812Y627119D02*
D03*
X346812D02*
D03*
X229495Y627123D02*
D03*
X213495D02*
D03*
X162033Y612645D02*
D03*
X178033D02*
D03*
X294310Y611883D02*
D03*
X310310D02*
D03*
Y627119D02*
D03*
X326310D02*
D03*
X178033Y627123D02*
D03*
X194033D02*
D03*
X310065Y580255D02*
D03*
X294065D02*
D03*
X78002D02*
D03*
X62002D02*
D03*
X294310Y627123D02*
D03*
X278310D02*
D03*
X162033D02*
D03*
X146033D02*
D03*
X573136Y124958D02*
D03*
X557136D02*
D03*
X605517Y125614D02*
D03*
X589517D02*
D03*
X557490Y425006D02*
D03*
X573490D02*
D03*
X525254D02*
D03*
X541254D02*
D03*
X590029Y317502D02*
D03*
X606030D02*
D03*
X558408D02*
D03*
X574408D02*
D03*
X654543D02*
D03*
X670543D02*
D03*
X622667D02*
D03*
X638667D02*
D03*
X606303Y425006D02*
D03*
X590303D02*
D03*
X639116D02*
D03*
X623116D02*
D03*
X654281Y125614D02*
D03*
X670281D02*
D03*
X621899D02*
D03*
X637899D02*
D03*
X687770Y297596D02*
D03*
X703770D02*
D03*
X687770Y254826D02*
D03*
X703770D02*
D03*
X462644Y124958D02*
D03*
X446644D02*
D03*
X494669D02*
D03*
X478669D02*
D03*
X265709Y148747D02*
D03*
X281709D02*
D03*
X414619Y124958D02*
D03*
X430619D02*
D03*
X382594D02*
D03*
X398594D02*
D03*
X61983Y693329D02*
D03*
X45983D02*
D03*
X61863Y140600D02*
D03*
X45862D02*
D03*
X61983Y659997D02*
D03*
X45983D02*
D03*
X62003Y104997D02*
D03*
X46003D02*
D03*
X192985Y472091D02*
D03*
X176985D02*
D03*
X157075Y395815D02*
D03*
X141075D02*
D03*
X192893Y377601D02*
D03*
X176893D02*
D03*
X157075Y413809D02*
D03*
X141075D02*
D03*
X176877Y359432D02*
D03*
X192877D02*
D03*
X176893Y453997D02*
D03*
X192893D02*
D03*
X176983Y413809D02*
D03*
X192983D02*
D03*
X176983Y395578D02*
D03*
X192983D02*
D03*
X711503Y516550D02*
D03*
X695503D02*
D03*
X711329Y595397D02*
D03*
X695329D02*
D03*
X711329Y678431D02*
D03*
X695329D02*
D03*
X711329Y703374D02*
D03*
X695329D02*
D03*
X711329Y542832D02*
D03*
X695329D02*
D03*
X711329Y569114D02*
D03*
X695329D02*
D03*
X427609Y661096D02*
D03*
X443609D02*
D03*
X427609Y642459D02*
D03*
X443609D02*
D03*
X427609Y698370D02*
D03*
X443609D02*
D03*
X427609Y679733D02*
D03*
X443609D02*
D03*
X427609Y735645D02*
D03*
X443609D02*
D03*
X427609Y717007D02*
D03*
X443609D02*
D03*
X427609Y772919D02*
D03*
X443609D02*
D03*
X427609Y754282D02*
D03*
X443609D02*
D03*
X525003Y360144D02*
D03*
X541003D02*
D03*
X525003Y338823D02*
D03*
X541003D02*
D03*
X525003Y232218D02*
D03*
X541003D02*
D03*
X525003Y210898D02*
D03*
X541003D02*
D03*
X525003Y168256D02*
D03*
X541003D02*
D03*
X525003Y146935D02*
D03*
X541003D02*
D03*
X525003Y189577D02*
D03*
X541003D02*
D03*
X524495Y253539D02*
D03*
X540495D02*
D03*
X525003Y317502D02*
D03*
X541003D02*
D03*
X525003Y124959D02*
D03*
X541003D02*
D03*
X525003Y296181D02*
D03*
X541003D02*
D03*
X525003Y381465D02*
D03*
X541003D02*
D03*
X525003Y402785D02*
D03*
X541003D02*
D03*
X524495Y274860D02*
D03*
X540495D02*
D03*
X686912Y125615D02*
D03*
X702912D02*
D03*
X686912Y147000D02*
D03*
X702912D02*
D03*
X797397Y222541D02*
D03*
X813397D02*
D03*
X797397Y201156D02*
D03*
X813397D02*
D03*
X797397Y179771D02*
D03*
X813397D02*
D03*
X797399Y158385D02*
D03*
X813399D02*
D03*
X655169Y425006D02*
D03*
X671169D02*
D03*
X688003Y425006D02*
D03*
X704003D02*
D03*
X131078Y744997D02*
D03*
X115078D02*
D03*
X131003Y173997D02*
D03*
X115003D02*
D03*
X688192Y403621D02*
D03*
X704192D02*
D03*
X688192Y382236D02*
D03*
X704192D02*
D03*
X115253Y725797D02*
D03*
X131253D02*
D03*
X115132Y155901D02*
D03*
X131132D02*
D03*
X688003Y339466D02*
D03*
X704003D02*
D03*
X46232Y676441D02*
D03*
X62232D02*
D03*
X47003Y122997D02*
D03*
X63003D02*
D03*
X688003Y360851D02*
D03*
X704003D02*
D03*
X688192Y318081D02*
D03*
X704192D02*
D03*
X688019Y275311D02*
D03*
X704019D02*
D03*
X688019Y232541D02*
D03*
X704019D02*
D03*
X688019Y211156D02*
D03*
X704019D02*
D03*
X688019Y189771D02*
D03*
X704019D02*
D03*
X688019Y168386D02*
D03*
X704019D02*
D03*
X131253Y687397D02*
D03*
X115253D02*
D03*
X115253Y706597D02*
D03*
X131253D02*
D03*
X131132Y119709D02*
D03*
X115132D02*
D03*
X115132Y137805D02*
D03*
X131132D02*
D03*
X130876Y648997D02*
D03*
X114875D02*
D03*
X130755Y83518D02*
D03*
X114755D02*
D03*
X115253Y668197D02*
D03*
X131253D02*
D03*
X115132Y101614D02*
D03*
X131132D02*
D03*
D43*
X246276Y335141D02*
D03*
X234963Y346455D02*
D03*
X290902Y396397D02*
D03*
X302215Y385083D02*
D03*
X292089Y375153D02*
D03*
X280775Y386467D02*
D03*
D44*
X237914Y372340D02*
D03*
X249227Y383654D02*
D03*
D45*
X461390Y263862D02*
D03*
Y247862D02*
D03*
X346756Y471076D02*
D03*
Y455076D02*
D03*
X329600Y455074D02*
D03*
Y471074D02*
D03*
X479203Y529317D02*
D03*
Y513317D02*
D03*
X247141Y529317D02*
D03*
Y513317D02*
D03*
X494872Y529317D02*
D03*
Y513317D02*
D03*
X262810Y529317D02*
D03*
Y513317D02*
D03*
X246780Y547116D02*
D03*
Y563116D02*
D03*
X177715Y547116D02*
D03*
Y563116D02*
D03*
X394242Y513317D02*
D03*
Y529317D02*
D03*
X409778D02*
D03*
Y513317D02*
D03*
X162180D02*
D03*
Y529317D02*
D03*
X177715D02*
D03*
Y513317D02*
D03*
X262810Y547116D02*
D03*
Y563116D02*
D03*
X162060Y547116D02*
D03*
Y563116D02*
D03*
X362812Y547116D02*
D03*
Y563116D02*
D03*
X293746Y547116D02*
D03*
Y563116D02*
D03*
X378841Y547116D02*
D03*
Y563116D02*
D03*
X278091Y547116D02*
D03*
Y563116D02*
D03*
X363172Y529317D02*
D03*
Y513317D02*
D03*
X131109Y529317D02*
D03*
Y513317D02*
D03*
X378841Y529317D02*
D03*
Y513317D02*
D03*
X146778Y529317D02*
D03*
Y513317D02*
D03*
X478843Y547116D02*
D03*
Y563116D02*
D03*
X130749Y547116D02*
D03*
Y563116D02*
D03*
X278211Y513317D02*
D03*
Y529317D02*
D03*
X293746D02*
D03*
Y513317D02*
D03*
X46149D02*
D03*
Y529317D02*
D03*
X61684D02*
D03*
Y513317D02*
D03*
X409778Y547116D02*
D03*
Y563116D02*
D03*
X61684Y547116D02*
D03*
Y563116D02*
D03*
X494872Y547116D02*
D03*
Y563116D02*
D03*
X146778Y547116D02*
D03*
Y563116D02*
D03*
X394122Y547116D02*
D03*
Y563116D02*
D03*
X46028Y547116D02*
D03*
Y563116D02*
D03*
X604414Y612467D02*
D03*
Y628467D02*
D03*
X623277Y496821D02*
D03*
Y480821D02*
D03*
X549188Y612467D02*
D03*
Y628467D02*
D03*
X567383Y496821D02*
D03*
Y480821D02*
D03*
X659639Y529317D02*
D03*
Y513317D02*
D03*
X659639Y612467D02*
D03*
Y628467D02*
D03*
X659639Y580101D02*
D03*
Y596101D02*
D03*
Y563284D02*
D03*
Y547284D02*
D03*
X511489Y496821D02*
D03*
Y480821D02*
D03*
X511473Y529317D02*
D03*
Y513317D02*
D03*
Y580101D02*
D03*
Y596101D02*
D03*
Y547284D02*
D03*
Y563284D02*
D03*
X114003Y241997D02*
D03*
Y257997D02*
D03*
X131959Y241997D02*
D03*
Y257997D02*
D03*
X283010Y185997D02*
D03*
Y169997D02*
D03*
Y221748D02*
D03*
Y205748D02*
D03*
X160415D02*
D03*
Y221748D02*
D03*
X160253Y169997D02*
D03*
Y185997D02*
D03*
X477822Y264118D02*
D03*
Y248118D02*
D03*
X311600Y301189D02*
D03*
Y285189D02*
D03*
X293062Y301189D02*
D03*
Y285189D02*
D03*
X274525Y301189D02*
D03*
Y285189D02*
D03*
X200627Y301189D02*
D03*
Y285189D02*
D03*
X219450Y301189D02*
D03*
Y285189D02*
D03*
X396850Y471164D02*
D03*
Y455164D02*
D03*
X379720Y455162D02*
D03*
Y471162D02*
D03*
X311600Y470574D02*
D03*
Y454574D02*
D03*
Y434610D02*
D03*
Y418610D02*
D03*
X274525Y470570D02*
D03*
Y454571D02*
D03*
Y434610D02*
D03*
Y418610D02*
D03*
X293062Y470570D02*
D03*
Y454571D02*
D03*
Y434610D02*
D03*
Y418610D02*
D03*
X255988Y435234D02*
D03*
Y419234D02*
D03*
Y470570D02*
D03*
Y454571D02*
D03*
X640838Y628717D02*
D03*
Y612718D02*
D03*
X641009Y481589D02*
D03*
Y497589D02*
D03*
X621922Y612716D02*
D03*
Y628716D02*
D03*
X603746Y497212D02*
D03*
Y481212D02*
D03*
X585105Y612716D02*
D03*
Y628716D02*
D03*
X659640Y497212D02*
D03*
Y481212D02*
D03*
X529880Y628717D02*
D03*
Y612718D02*
D03*
X529221Y481589D02*
D03*
Y497589D02*
D03*
X566697Y612716D02*
D03*
Y628716D02*
D03*
X547852Y497212D02*
D03*
Y481212D02*
D03*
X511471Y612716D02*
D03*
Y628716D02*
D03*
X585115Y497212D02*
D03*
Y481212D02*
D03*
X265373Y169746D02*
D03*
Y185746D02*
D03*
Y205997D02*
D03*
Y221997D02*
D03*
X178467Y205997D02*
D03*
Y221997D02*
D03*
D46*
X76215Y434633D02*
D03*
Y444633D02*
D03*
Y454633D02*
D03*
Y464633D02*
D03*
Y379407D02*
D03*
Y369407D02*
D03*
Y359407D02*
D03*
Y349407D02*
D03*
D47*
X186753Y151947D02*
D03*
Y164647D02*
D03*
Y177347D02*
D03*
Y190047D02*
D03*
X240753D02*
D03*
Y177347D02*
D03*
Y164647D02*
D03*
Y151947D02*
D03*
D48*
X755003Y304497D02*
D03*
Y455497D02*
D03*
D49*
X726003Y429997D02*
D03*
Y417497D02*
D03*
Y404997D02*
D03*
Y392497D02*
D03*
Y379997D02*
D03*
Y367497D02*
D03*
Y354997D02*
D03*
Y342497D02*
D03*
Y329997D02*
D03*
D50*
X431390Y282539D02*
D03*
X436390D02*
D03*
X441390D02*
D03*
X446390D02*
D03*
X466390Y437539D02*
D03*
X461390D02*
D03*
X456390D02*
D03*
X411390Y282539D02*
D03*
X416390D02*
D03*
X421390D02*
D03*
X426390Y282539D02*
D03*
X451390Y282539D02*
D03*
X456390D02*
D03*
X461390D02*
D03*
X466390D02*
D03*
X361390Y437539D02*
D03*
X356390D02*
D03*
X351390D02*
D03*
X346390D02*
D03*
Y282539D02*
D03*
X351390D02*
D03*
X356390D02*
D03*
X361390Y282539D02*
D03*
X366390Y282539D02*
D03*
X371390D02*
D03*
X376390D02*
D03*
X381390D02*
D03*
X386390D02*
D03*
X391390Y282539D02*
D03*
X396390D02*
D03*
X401390Y282539D02*
D03*
X406390D02*
D03*
X451390Y437539D02*
D03*
X446390D02*
D03*
X441390D02*
D03*
X436390D02*
D03*
X431390D02*
D03*
X426390D02*
D03*
X421390D02*
D03*
X416390D02*
D03*
X411390D02*
D03*
X406390D02*
D03*
X401390D02*
D03*
X396390D02*
D03*
X391390D02*
D03*
X386390D02*
D03*
X381390D02*
D03*
X376390D02*
D03*
X371390D02*
D03*
X366390D02*
D03*
D51*
X483890Y340039D02*
D03*
X483890Y345039D02*
D03*
Y350039D02*
D03*
Y355039D02*
D03*
Y360039D02*
D03*
Y365039D02*
D03*
X483890Y370039D02*
D03*
Y375039D02*
D03*
X483890Y380039D02*
D03*
Y385039D02*
D03*
Y390039D02*
D03*
Y395039D02*
D03*
Y400039D02*
D03*
X483890Y405039D02*
D03*
X483890Y410039D02*
D03*
Y415039D02*
D03*
Y420039D02*
D03*
X328890D02*
D03*
Y415039D02*
D03*
Y410039D02*
D03*
Y405039D02*
D03*
Y400039D02*
D03*
Y395039D02*
D03*
Y390039D02*
D03*
Y385039D02*
D03*
Y380039D02*
D03*
Y375039D02*
D03*
Y370039D02*
D03*
Y365039D02*
D03*
Y360039D02*
D03*
Y355039D02*
D03*
Y350039D02*
D03*
Y345039D02*
D03*
Y340039D02*
D03*
X483890Y300039D02*
D03*
Y305039D02*
D03*
Y310039D02*
D03*
Y315039D02*
D03*
Y320039D02*
D03*
Y325039D02*
D03*
Y330039D02*
D03*
Y335039D02*
D03*
X328890Y335039D02*
D03*
Y330039D02*
D03*
Y325039D02*
D03*
Y320039D02*
D03*
Y315039D02*
D03*
Y310039D02*
D03*
Y305039D02*
D03*
Y300039D02*
D03*
D52*
X660519Y291167D02*
D03*
Y278467D02*
D03*
Y265767D02*
D03*
Y253067D02*
D03*
Y240367D02*
D03*
Y227667D02*
D03*
Y214967D02*
D03*
Y202267D02*
D03*
X567519D02*
D03*
Y214967D02*
D03*
Y227667D02*
D03*
Y240367D02*
D03*
Y253067D02*
D03*
Y265767D02*
D03*
Y278467D02*
D03*
Y291167D02*
D03*
D53*
X805003Y499997D02*
D03*
X735003D02*
D03*
D54*
X161703Y294997D02*
D03*
X118303D02*
D03*
D55*
X113922Y28342D02*
D03*
Y34842D02*
D03*
Y41342D02*
D03*
X133422D02*
D03*
Y34842D02*
D03*
Y28342D02*
D03*
X62503Y617997D02*
D03*
Y611497D02*
D03*
Y604997D02*
D03*
X43003D02*
D03*
Y611497D02*
D03*
Y617997D02*
D03*
D56*
X89884Y165607D02*
D03*
X49884D02*
D03*
X50005Y718336D02*
D03*
X90005D02*
D03*
X280503Y122744D02*
D03*
X240503D02*
D03*
D57*
X411993Y661458D02*
D03*
X386993Y651958D02*
D03*
X411993Y642458D02*
D03*
Y698696D02*
D03*
X386993Y689196D02*
D03*
X411993Y679696D02*
D03*
Y735934D02*
D03*
X386993Y726434D02*
D03*
X411993Y716934D02*
D03*
Y754172D02*
D03*
X386993Y763672D02*
D03*
X411993Y773172D02*
D03*
X714305Y654403D02*
D03*
Y635403D02*
D03*
X689305Y644903D02*
D03*
X714305Y746605D02*
D03*
Y727605D02*
D03*
X689305Y737105D02*
D03*
D58*
X640003Y676497D02*
D03*
Y651497D02*
D03*
X620003Y676497D02*
D03*
Y651497D02*
D03*
X600003Y676497D02*
D03*
Y651497D02*
D03*
X580003Y676497D02*
D03*
Y651497D02*
D03*
X560003Y676497D02*
D03*
Y651497D02*
D03*
X540003Y676497D02*
D03*
Y651497D02*
D03*
X520003Y676497D02*
D03*
Y651497D02*
D03*
X500003Y676497D02*
D03*
Y651497D02*
D03*
X190003Y651497D02*
D03*
Y676497D02*
D03*
X210003Y651497D02*
D03*
Y676497D02*
D03*
X230003Y651497D02*
D03*
Y676497D02*
D03*
X250003Y651497D02*
D03*
Y676497D02*
D03*
X270003Y651497D02*
D03*
Y676497D02*
D03*
X290003Y651497D02*
D03*
Y676497D02*
D03*
X310003Y651497D02*
D03*
Y676497D02*
D03*
X330003Y651497D02*
D03*
Y676497D02*
D03*
D59*
X162381Y378871D02*
D03*
X155881D02*
D03*
X149381D02*
D03*
X142881D02*
D03*
X162381Y337871D02*
D03*
X155881D02*
D03*
X149381D02*
D03*
X142881D02*
D03*
X162381Y472525D02*
D03*
X155881D02*
D03*
X149381D02*
D03*
X142881D02*
D03*
X162381Y431525D02*
D03*
X155881D02*
D03*
X149381D02*
D03*
X142881D02*
D03*
D60*
X637981Y582592D02*
D03*
X625281D02*
D03*
X612581D02*
D03*
X599881D02*
D03*
X637981Y526092D02*
D03*
X625281D02*
D03*
X612581D02*
D03*
X599881D02*
D03*
X533841Y526092D02*
D03*
X546541D02*
D03*
X559241D02*
D03*
X571941D02*
D03*
X533841Y582592D02*
D03*
X546541D02*
D03*
X559241D02*
D03*
X571941D02*
D03*
D61*
X63048Y237937D02*
D03*
Y301437D02*
D03*
D62*
X92048Y263437D02*
D03*
Y275937D02*
D03*
D63*
X259314Y346621D02*
D03*
X274871Y362177D02*
D03*
X263557Y373491D02*
D03*
X248001Y357934D02*
D03*
D64*
X414587Y152085D02*
D03*
X427287D02*
D03*
X439987D02*
D03*
X452687D02*
D03*
X465387D02*
D03*
D65*
X439987Y212585D02*
D03*
D66*
X335001Y152997D02*
D03*
Y207497D02*
D03*
D67*
X638431Y144342D02*
D03*
Y157042D02*
D03*
Y169742D02*
D03*
Y182442D02*
D03*
X589031D02*
D03*
Y169742D02*
D03*
Y157042D02*
D03*
Y144342D02*
D03*
D68*
X562498Y391047D02*
D03*
Y378347D02*
D03*
Y365647D02*
D03*
Y352947D02*
D03*
X667508D02*
D03*
Y365647D02*
D03*
Y378347D02*
D03*
Y391047D02*
D03*
D69*
X120459Y378235D02*
D03*
X101459D02*
D03*
X110959Y403235D02*
D03*
X120459Y460715D02*
D03*
X101459D02*
D03*
X110959Y485715D02*
D03*
M02*
