G04*
G04 #@! TF.GenerationSoftware,Altium Limited,Altium Designer,24.1.2 (44)*
G04*
G04 Layer_Color=8421504*
%FSLAX44Y44*%
%MOMM*%
G71*
G04*
G04 #@! TF.SameCoordinates,594C4E7E-5880-4872-9B90-1EBF5E6123A4*
G04*
G04*
G04 #@! TF.FilePolarity,Positive*
G04*
G01*
G75*
%ADD16C,0.5080*%
%ADD20C,0.3810*%
G04:AMPARAMS|DCode=31|XSize=1.96mm|YSize=0.57mm|CornerRadius=0.1397mm|HoleSize=0mm|Usage=FLASHONLY|Rotation=270.000|XOffset=0mm|YOffset=0mm|HoleType=Round|Shape=RoundedRectangle|*
%AMROUNDEDRECTD31*
21,1,1.9600,0.2907,0,0,270.0*
21,1,1.6807,0.5700,0,0,270.0*
1,1,0.2793,-0.1454,-0.8404*
1,1,0.2793,-0.1454,0.8404*
1,1,0.2793,0.1454,0.8404*
1,1,0.2793,0.1454,-0.8404*
%
%ADD31ROUNDEDRECTD31*%
%ADD32O,0.6000X1.8000*%
%ADD33R,1.8000X1.4000*%
%ADD34R,1.4000X1.8000*%
%ADD35R,1.8000X1.8000*%
%ADD36R,1.8000X1.8000*%
%ADD37R,1.0000X1.5000*%
%ADD38R,0.8000X0.9000*%
%ADD39O,1.4500X0.3500*%
%ADD40R,0.2500X0.6500*%
%ADD41R,0.6500X0.3000*%
%ADD42R,0.7000X1.0000*%
%ADD43R,0.6500X0.2500*%
%ADD44R,0.6500X0.2286*%
%ADD45R,1.1500X1.3000*%
%ADD46R,0.4500X0.6000*%
%ADD47R,0.5000X0.4500*%
%ADD48R,1.5494X0.6604*%
%ADD49R,0.9500X0.9000*%
%ADD50R,0.9000X0.8000*%
%ADD51R,0.6000X0.4500*%
%ADD52R,1.0000X1.1000*%
%ADD53R,1.8000X0.7000*%
%ADD54R,0.8128X1.0922*%
%ADD55R,0.9000X0.9500*%
G04:AMPARAMS|DCode=56|XSize=2.16mm|YSize=0.72mm|CornerRadius=0.18mm|HoleSize=0mm|Usage=FLASHONLY|Rotation=90.000|XOffset=0mm|YOffset=0mm|HoleType=Round|Shape=RoundedRectangle|*
%AMROUNDEDRECTD56*
21,1,2.1600,0.3600,0,0,90.0*
21,1,1.8000,0.7200,0,0,90.0*
1,1,0.3600,0.1800,0.9000*
1,1,0.3600,0.1800,-0.9000*
1,1,0.3600,-0.1800,-0.9000*
1,1,0.3600,-0.1800,0.9000*
%
%ADD56ROUNDEDRECTD56*%
G04:AMPARAMS|DCode=57|XSize=3.2mm|YSize=2.4mm|CornerRadius=0.048mm|HoleSize=0mm|Usage=FLASHONLY|Rotation=270.000|XOffset=0mm|YOffset=0mm|HoleType=Round|Shape=RoundedRectangle|*
%AMROUNDEDRECTD57*
21,1,3.2000,2.3040,0,0,270.0*
21,1,3.1040,2.4000,0,0,270.0*
1,1,0.0960,-1.1520,-1.5520*
1,1,0.0960,-1.1520,1.5520*
1,1,0.0960,1.1520,1.5520*
1,1,0.0960,1.1520,-1.5520*
%
%ADD57ROUNDEDRECTD57*%
G04:AMPARAMS|DCode=58|XSize=0.7mm|YSize=2.4mm|CornerRadius=0.049mm|HoleSize=0mm|Usage=FLASHONLY|Rotation=270.000|XOffset=0mm|YOffset=0mm|HoleType=Round|Shape=RoundedRectangle|*
%AMROUNDEDRECTD58*
21,1,0.7000,2.3020,0,0,270.0*
21,1,0.6020,2.4000,0,0,270.0*
1,1,0.0980,-1.1510,-0.3010*
1,1,0.0980,-1.1510,0.3010*
1,1,0.0980,1.1510,0.3010*
1,1,0.0980,1.1510,-0.3010*
%
%ADD58ROUNDEDRECTD58*%
%ADD59R,0.3000X0.4500*%
%ADD60R,0.6000X1.0000*%
%ADD61R,0.6000X0.9000*%
%ADD62R,2.4000X0.3000*%
%ADD63R,0.3000X0.6500*%
%ADD64R,0.3000X2.4000*%
%ADD65R,0.6500X0.3000*%
%ADD66R,0.4500X0.3000*%
%ADD67R,1.1000X1.0000*%
%ADD68R,0.8000X1.2000*%
%ADD69R,0.3300X1.3500*%
%ADD70R,1.3500X0.3300*%
G04:AMPARAMS|DCode=71|XSize=1.4mm|YSize=1.2mm|CornerRadius=0mm|HoleSize=0mm|Usage=FLASHONLY|Rotation=45.000|XOffset=0mm|YOffset=0mm|HoleType=Round|Shape=Rectangle|*
%AMROTATEDRECTD71*
4,1,4,-0.0707,-0.9192,-0.9192,-0.0707,0.0707,0.9192,0.9192,0.0707,-0.0707,-0.9192,0.0*
%
%ADD71ROTATEDRECTD71*%

G04:AMPARAMS|DCode=72|XSize=0.45mm|YSize=0.6mm|CornerRadius=0mm|HoleSize=0mm|Usage=FLASHONLY|Rotation=315.000|XOffset=0mm|YOffset=0mm|HoleType=Round|Shape=Rectangle|*
%AMROTATEDRECTD72*
4,1,4,-0.3712,-0.0530,0.0530,0.3712,0.3712,0.0530,-0.0530,-0.3712,-0.3712,-0.0530,0.0*
%
%ADD72ROTATEDRECTD72*%

G04:AMPARAMS|DCode=73|XSize=0.45mm|YSize=0.6mm|CornerRadius=0mm|HoleSize=0mm|Usage=FLASHONLY|Rotation=225.000|XOffset=0mm|YOffset=0mm|HoleType=Round|Shape=Rectangle|*
%AMROTATEDRECTD73*
4,1,4,-0.0530,0.3712,0.3712,-0.0530,0.0530,-0.3712,-0.3712,0.0530,-0.0530,0.3712,0.0*
%
%ADD73ROTATEDRECTD73*%

%ADD74R,1.5000X1.0000*%
%ADD75R,4.2000X2.0000*%
%ADD76R,1.6510X1.2700*%
%ADD77R,1.0000X1.0000*%
G36*
X803579Y610089D02*
X803671Y610061D01*
X803756Y610016D01*
X803830Y609955D01*
X803891Y609881D01*
X803936Y609796D01*
X803964Y609704D01*
X803974Y609609D01*
Y603589D01*
X803964Y603493D01*
X803936Y603401D01*
X803891Y603317D01*
X803830Y603242D01*
X803756Y603181D01*
X803671Y603136D01*
X803579Y603108D01*
X803484Y603099D01*
X794464D01*
X794368Y603108D01*
X794276Y603136D01*
X794191Y603181D01*
X794117Y603242D01*
X794056Y603317D01*
X794011Y603401D01*
X793983Y603493D01*
X793973Y603589D01*
Y609609D01*
X793983Y609704D01*
X794011Y609796D01*
X794056Y609881D01*
X794117Y609955D01*
X794191Y610016D01*
X794276Y610061D01*
X794368Y610089D01*
X794464Y610099D01*
X803484D01*
X803579Y610089D01*
D02*
G37*
G36*
Y601089D02*
X803671Y601062D01*
X803756Y601016D01*
X803830Y600955D01*
X803891Y600881D01*
X803936Y600796D01*
X803964Y600704D01*
X803974Y600609D01*
Y594589D01*
X803964Y594493D01*
X803936Y594401D01*
X803891Y594317D01*
X803830Y594242D01*
X803756Y594181D01*
X803671Y594136D01*
X803579Y594108D01*
X803484Y594099D01*
X794464D01*
X794368Y594108D01*
X794276Y594136D01*
X794191Y594181D01*
X794117Y594242D01*
X794056Y594317D01*
X794011Y594401D01*
X793983Y594493D01*
X793973Y594589D01*
Y600609D01*
X793983Y600704D01*
X794011Y600796D01*
X794056Y600881D01*
X794117Y600955D01*
X794191Y601016D01*
X794276Y601062D01*
X794368Y601089D01*
X794464Y601099D01*
X803484D01*
X803579Y601089D01*
D02*
G37*
G36*
X60132Y600176D02*
X60224Y600149D01*
X60309Y600103D01*
X60383Y600042D01*
X60444Y599968D01*
X60490Y599883D01*
X60518Y599791D01*
X60527Y599696D01*
Y593676D01*
X60518Y593580D01*
X60490Y593488D01*
X60444Y593404D01*
X60383Y593329D01*
X60309Y593268D01*
X60224Y593223D01*
X60132Y593195D01*
X60037Y593186D01*
X51017D01*
X50921Y593195D01*
X50829Y593223D01*
X50745Y593268D01*
X50670Y593329D01*
X50609Y593404D01*
X50564Y593488D01*
X50536Y593580D01*
X50527Y593676D01*
Y599696D01*
X50536Y599791D01*
X50564Y599883D01*
X50609Y599968D01*
X50670Y600042D01*
X50745Y600103D01*
X50829Y600149D01*
X50921Y600176D01*
X51017Y600186D01*
X60037D01*
X60132Y600176D01*
D02*
G37*
G36*
Y591176D02*
X60224Y591149D01*
X60309Y591103D01*
X60383Y591042D01*
X60444Y590968D01*
X60490Y590883D01*
X60518Y590792D01*
X60527Y590696D01*
Y584676D01*
X60518Y584580D01*
X60490Y584488D01*
X60444Y584404D01*
X60383Y584329D01*
X60309Y584268D01*
X60224Y584223D01*
X60132Y584195D01*
X60037Y584186D01*
X51017D01*
X50921Y584195D01*
X50829Y584223D01*
X50745Y584268D01*
X50670Y584329D01*
X50609Y584404D01*
X50564Y584488D01*
X50536Y584580D01*
X50527Y584676D01*
Y590696D01*
X50536Y590792D01*
X50564Y590883D01*
X50609Y590968D01*
X50670Y591042D01*
X50745Y591103D01*
X50829Y591149D01*
X50921Y591176D01*
X51017Y591186D01*
X60037D01*
X60132Y591176D01*
D02*
G37*
G36*
X456469Y362832D02*
X456561Y362804D01*
X456645Y362758D01*
X456720Y362697D01*
X456781Y362623D01*
X456826Y362539D01*
X456854Y362447D01*
X456863Y362351D01*
Y353331D01*
X456854Y353235D01*
X456826Y353144D01*
X456781Y353059D01*
X456720Y352985D01*
X456645Y352924D01*
X456561Y352878D01*
X456469Y352850D01*
X456373Y352841D01*
X450353D01*
X450258Y352850D01*
X450166Y352878D01*
X450081Y352924D01*
X450007Y352985D01*
X449946Y353059D01*
X449901Y353144D01*
X449873Y353235D01*
X449863Y353331D01*
Y362351D01*
X449873Y362447D01*
X449901Y362539D01*
X449946Y362623D01*
X450007Y362697D01*
X450081Y362758D01*
X450166Y362804D01*
X450258Y362832D01*
X450353Y362841D01*
X456373D01*
X456469Y362832D01*
D02*
G37*
G36*
X447469D02*
X447561Y362804D01*
X447645Y362758D01*
X447720Y362697D01*
X447781Y362623D01*
X447826Y362539D01*
X447854Y362447D01*
X447863Y362351D01*
Y353331D01*
X447854Y353235D01*
X447826Y353144D01*
X447781Y353059D01*
X447720Y352985D01*
X447645Y352924D01*
X447561Y352878D01*
X447469Y352850D01*
X447373Y352841D01*
X441353D01*
X441258Y352850D01*
X441166Y352878D01*
X441081Y352924D01*
X441007Y352985D01*
X440946Y353059D01*
X440900Y353144D01*
X440873Y353235D01*
X440863Y353331D01*
Y362351D01*
X440873Y362447D01*
X440900Y362539D01*
X440946Y362623D01*
X441007Y362697D01*
X441081Y362758D01*
X441166Y362804D01*
X441258Y362832D01*
X441353Y362841D01*
X447373D01*
X447469Y362832D01*
D02*
G37*
G36*
X811000Y336114D02*
X810950Y336094D01*
X810930Y336084D01*
X810900Y336074D01*
X810880Y336064D01*
X810860Y336054D01*
X810840Y336034D01*
X810810Y336024D01*
X810790Y336014D01*
X810770Y336004D01*
X810750Y335994D01*
X810720Y335984D01*
X810700Y335964D01*
X810680Y335954D01*
X810660Y335944D01*
X810640Y335934D01*
X810610Y335924D01*
X810590Y335904D01*
X810570Y335894D01*
X810550Y335884D01*
X810530Y335864D01*
X810510Y335854D01*
X810480Y335844D01*
X810460Y335834D01*
X810440Y335814D01*
X810420Y335804D01*
X810400Y335784D01*
X810380Y335774D01*
X810360Y335764D01*
X810340Y335744D01*
X810350Y335754D01*
X789000D01*
Y351754D01*
X811000D01*
Y336114D01*
D02*
G37*
G36*
X810350Y219254D02*
X810345D01*
X810360Y219244D01*
X810380Y219234D01*
X810400Y219224D01*
X810420Y219204D01*
X810440Y219194D01*
X810460Y219184D01*
X810480Y219164D01*
X810500Y219154D01*
X810530Y219144D01*
X810550Y219124D01*
X810570Y219114D01*
X810590Y219104D01*
X810610Y219094D01*
X810630Y219074D01*
X810660Y219064D01*
X810680Y219054D01*
X810700Y219044D01*
X810720Y219034D01*
X810740Y219014D01*
X810770Y219004D01*
X810790Y218994D01*
X810810Y218984D01*
X810830Y218974D01*
X810860Y218964D01*
X810880Y218944D01*
X810900Y218934D01*
X810920Y218924D01*
X810950Y218914D01*
X811000Y218894D01*
Y203254D01*
X789000D01*
Y219254D01*
X810345D01*
X810330Y219264D01*
X810350Y219254D01*
D02*
G37*
G36*
X811000Y175609D02*
X810950Y175589D01*
X810930Y175579D01*
X810900Y175569D01*
X810880Y175559D01*
X810860Y175549D01*
X810840Y175529D01*
X810810Y175519D01*
X810790Y175509D01*
X810770Y175499D01*
X810750Y175489D01*
X810720Y175479D01*
X810700Y175459D01*
X810680Y175449D01*
X810660Y175439D01*
X810640Y175429D01*
X810610Y175419D01*
X810590Y175399D01*
X810570Y175389D01*
X810550Y175379D01*
X810530Y175359D01*
X810510Y175349D01*
X810480Y175339D01*
X810460Y175329D01*
X810440Y175309D01*
X810420Y175299D01*
X810400Y175279D01*
X810380Y175269D01*
X810360Y175259D01*
X810340Y175239D01*
X810350Y175249D01*
X789000D01*
Y191249D01*
X811000D01*
Y175609D01*
D02*
G37*
G36*
X810360Y108739D02*
X810380Y108729D01*
X810400Y108719D01*
X810420Y108699D01*
X810440Y108689D01*
X810460Y108669D01*
X810480Y108659D01*
X810510Y108649D01*
X810530Y108639D01*
X810550Y108619D01*
X810570Y108609D01*
X810590Y108599D01*
X810610Y108579D01*
X810640Y108569D01*
X810660Y108559D01*
X810680Y108549D01*
X810700Y108539D01*
X810720Y108519D01*
X810750Y108509D01*
X810770Y108499D01*
X810790Y108489D01*
X810810Y108479D01*
X810840Y108469D01*
X810860Y108449D01*
X810880Y108439D01*
X810900Y108429D01*
X810930Y108419D01*
X810950Y108409D01*
X811000Y108389D01*
Y92749D01*
X789000D01*
Y108749D01*
X810350D01*
X810340Y108759D01*
X810360Y108739D01*
D02*
G37*
D16*
X2517Y12098D02*
G03*
X5386Y5173I9794J0D01*
G01*
D02*
G03*
X11795Y2518I6409J6409D01*
G01*
X838080D02*
G03*
X844685Y5254I0J9341D01*
G01*
D02*
G03*
X847542Y12153I-6899J6899D01*
G01*
Y837706D02*
G03*
X844550Y844930I-10216J0D01*
G01*
D02*
G03*
X838430Y847465I-6120J-6120D01*
G01*
X12537Y847459D02*
G03*
X4888Y844291I0J-10818D01*
G01*
D02*
G03*
X2517Y838567I5723J-5723D01*
G01*
X847542Y12153D02*
Y837706D01*
X847090Y12605D02*
Y23622D01*
X2517Y834390D02*
X2517Y12098D01*
X2545Y714060D02*
Y834362D01*
Y714060D02*
Y834362D01*
X11795Y2518D02*
X838080D01*
X11817Y2540D02*
X22098D01*
X12537Y847459D02*
X64411D01*
X64417Y847465D02*
X838430D01*
X847090Y12605D02*
X847542Y12153D01*
X847090Y12605D02*
X847542Y12153D01*
X11795Y2518D02*
X11817Y2540D01*
X2517Y834390D02*
X2545Y834362D01*
X2517Y834390D02*
X2545Y834362D01*
X64411Y847459D02*
X64417Y847465D01*
X2517Y834390D02*
Y838567D01*
D20*
X27811Y565187D02*
G03*
X27811Y565187I-3000J0D01*
G01*
X27590Y269772D02*
G03*
X27590Y269772I-3000J0D01*
G01*
X39406Y411625D02*
G03*
X42370Y414624I-36J3000D01*
G01*
D02*
G03*
X39406Y411625I-3000J0D01*
G01*
X28478Y431676D02*
G03*
X28478Y431676I-3000J0D01*
G01*
D31*
X406525Y155652D02*
D03*
X419225D02*
D03*
X431925D02*
D03*
X444624D02*
D03*
Y205052D02*
D03*
X431925D02*
D03*
X419225D02*
D03*
X406525D02*
D03*
X532839D02*
D03*
X520139D02*
D03*
X507439D02*
D03*
X494739D02*
D03*
Y155652D02*
D03*
X507439D02*
D03*
X520139D02*
D03*
X532839D02*
D03*
D32*
X662380Y532331D02*
D03*
X675080D02*
D03*
X687780D02*
D03*
X700480D02*
D03*
X662380Y588831D02*
D03*
X675080D02*
D03*
X687780D02*
D03*
X700480D02*
D03*
X581862Y532584D02*
D03*
X594562D02*
D03*
X607262D02*
D03*
X619962D02*
D03*
X581862Y589085D02*
D03*
X594562D02*
D03*
X607262D02*
D03*
X619962D02*
D03*
X501542Y532331D02*
D03*
X514242D02*
D03*
X526942D02*
D03*
X539642D02*
D03*
X501542Y588831D02*
D03*
X514242D02*
D03*
X526942D02*
D03*
X539642D02*
D03*
X421194Y532078D02*
D03*
X433894D02*
D03*
X446594D02*
D03*
X459294D02*
D03*
X421194Y588578D02*
D03*
X433894D02*
D03*
X446594D02*
D03*
X459294D02*
D03*
X38100Y469844D02*
D03*
X50800D02*
D03*
X63500D02*
D03*
X76200D02*
D03*
X38100Y526344D02*
D03*
X50800D02*
D03*
X63500D02*
D03*
X76200D02*
D03*
X76152Y364440D02*
D03*
X63452D02*
D03*
X50752D02*
D03*
X38052D02*
D03*
X76152Y307940D02*
D03*
X63452D02*
D03*
X50752D02*
D03*
X38052D02*
D03*
D33*
X566674Y368300D02*
D03*
Y342300D02*
D03*
X473834Y368205D02*
D03*
Y342205D02*
D03*
D34*
X788742Y719697D02*
D03*
X814742D02*
D03*
X66856Y707070D02*
D03*
X40856D02*
D03*
X664690Y302361D02*
D03*
X638690D02*
D03*
X664690Y198965D02*
D03*
X638690D02*
D03*
X788742Y626990D02*
D03*
X814742D02*
D03*
X65586Y617221D02*
D03*
X39586D02*
D03*
D35*
X537469Y370300D02*
D03*
Y330300D02*
D03*
D36*
X786742Y690491D02*
D03*
X826742D02*
D03*
X68816Y678053D02*
D03*
X28816D02*
D03*
D37*
X529997Y701498D02*
D03*
Y726498D02*
D03*
X549998Y701498D02*
D03*
Y726498D02*
D03*
X569998Y701498D02*
D03*
Y726498D02*
D03*
X589997Y701498D02*
D03*
Y726498D02*
D03*
X609998Y701498D02*
D03*
Y726498D02*
D03*
X629997Y701498D02*
D03*
Y726498D02*
D03*
X649998Y701498D02*
D03*
Y726498D02*
D03*
X669998Y701498D02*
D03*
Y726498D02*
D03*
X179998Y701498D02*
D03*
Y726498D02*
D03*
X199998Y701498D02*
D03*
Y726498D02*
D03*
X219998Y701498D02*
D03*
Y726498D02*
D03*
X239998Y701498D02*
D03*
Y726498D02*
D03*
X259998Y701498D02*
D03*
Y726498D02*
D03*
X279998Y701498D02*
D03*
Y726498D02*
D03*
X299998Y701498D02*
D03*
Y726498D02*
D03*
X319998Y701498D02*
D03*
Y726498D02*
D03*
X580002Y123502D02*
D03*
Y148502D02*
D03*
X600002Y123502D02*
D03*
Y148502D02*
D03*
X620002Y123502D02*
D03*
Y148502D02*
D03*
X640002Y123502D02*
D03*
Y148502D02*
D03*
X660002Y123502D02*
D03*
Y148502D02*
D03*
X680002Y123502D02*
D03*
Y148502D02*
D03*
X700002Y123502D02*
D03*
Y148502D02*
D03*
D38*
X195370Y121305D02*
D03*
X213529Y121307D02*
D03*
X160238Y104979D02*
D03*
X142079Y104977D02*
D03*
X160617Y229109D02*
D03*
X142458Y229108D02*
D03*
X160238Y168655D02*
D03*
X142079Y168653D02*
D03*
X160238Y183642D02*
D03*
X142079Y183641D02*
D03*
X160617Y153494D02*
D03*
X142458Y153493D02*
D03*
X213529Y213510D02*
D03*
X195370Y213509D02*
D03*
Y199031D02*
D03*
X213529Y199032D02*
D03*
X195370Y135529D02*
D03*
X213529Y135531D02*
D03*
X160238Y243214D02*
D03*
X142079Y243213D02*
D03*
X103778Y199659D02*
D03*
X85620Y199658D02*
D03*
X103644Y118964D02*
D03*
X85485Y118963D02*
D03*
X450720Y135383D02*
D03*
X432561Y135382D02*
D03*
X306118Y132837D02*
D03*
X324277Y132839D02*
D03*
X399926Y135381D02*
D03*
X418085Y135382D02*
D03*
X285923Y132839D02*
D03*
X267764Y132837D02*
D03*
X104676Y684271D02*
D03*
X86517Y684270D02*
D03*
X700083Y437963D02*
D03*
X718242Y437964D02*
D03*
X749927Y636741D02*
D03*
X768086Y636742D02*
D03*
X749548Y651203D02*
D03*
X767707Y651204D02*
D03*
X749927Y622278D02*
D03*
X768086Y622280D02*
D03*
X749927Y665667D02*
D03*
X768086Y665668D02*
D03*
X767707Y680130D02*
D03*
X749548Y680128D02*
D03*
Y607814D02*
D03*
X767707Y607816D02*
D03*
X813838Y657468D02*
D03*
X831996Y657469D02*
D03*
X638582Y370670D02*
D03*
X620423Y370669D02*
D03*
X700083Y370399D02*
D03*
X718242Y370400D02*
D03*
X620423Y420453D02*
D03*
X638582Y420454D02*
D03*
X674620Y447313D02*
D03*
X656461Y447311D02*
D03*
X655699Y464820D02*
D03*
X673858Y464821D02*
D03*
X718242Y420184D02*
D03*
X700083Y420183D02*
D03*
X86517Y698714D02*
D03*
X104676Y698715D02*
D03*
Y669827D02*
D03*
X86517Y669826D02*
D03*
Y597607D02*
D03*
X104676Y597608D02*
D03*
X86138Y655381D02*
D03*
X104297Y655382D02*
D03*
X22482Y642619D02*
D03*
X40641Y642620D02*
D03*
X104676Y626496D02*
D03*
X86517Y626494D02*
D03*
X104297Y612051D02*
D03*
X86138Y612049D02*
D03*
Y640937D02*
D03*
X104297Y640938D02*
D03*
D39*
X121671Y138553D02*
D03*
Y132053D02*
D03*
Y125553D02*
D03*
Y119053D02*
D03*
X180171Y138553D02*
D03*
Y132053D02*
D03*
Y125553D02*
D03*
Y119053D02*
D03*
X121806Y216708D02*
D03*
Y210208D02*
D03*
Y203708D02*
D03*
Y197208D02*
D03*
X180306Y216708D02*
D03*
Y210208D02*
D03*
Y203708D02*
D03*
Y197208D02*
D03*
D40*
X363158Y627413D02*
D03*
Y599213D02*
D03*
X368158D02*
D03*
X373158D02*
D03*
X378158D02*
D03*
X368158Y627413D02*
D03*
X373158D02*
D03*
X378158D02*
D03*
X221440Y627408D02*
D03*
Y599208D02*
D03*
X226440D02*
D03*
X231440D02*
D03*
X236440D02*
D03*
X226440Y627408D02*
D03*
X231440D02*
D03*
X236440D02*
D03*
X292296D02*
D03*
Y599208D02*
D03*
X297296D02*
D03*
X302296D02*
D03*
X307296D02*
D03*
X297296Y627408D02*
D03*
X302296D02*
D03*
X307296D02*
D03*
X150666D02*
D03*
Y599208D02*
D03*
X155666D02*
D03*
X160666D02*
D03*
X165666D02*
D03*
X155666Y627408D02*
D03*
X160666D02*
D03*
X165666D02*
D03*
X499709Y356378D02*
D03*
X504201D02*
D03*
X499709Y374877D02*
D03*
X504201Y374848D02*
D03*
X783911Y646230D02*
D03*
X798410D02*
D03*
X798410Y663730D02*
D03*
X783940D02*
D03*
X70567Y653858D02*
D03*
X56068D02*
D03*
X56068Y636358D02*
D03*
X70538D02*
D03*
D41*
X365909Y606810D02*
D03*
X375408D02*
D03*
X224191Y606806D02*
D03*
X233690D02*
D03*
X295046D02*
D03*
X304546D02*
D03*
X153416D02*
D03*
X162916D02*
D03*
D42*
X366158Y616313D02*
D03*
X375158D02*
D03*
X224440Y616308D02*
D03*
X233440D02*
D03*
X295296D02*
D03*
X304296D02*
D03*
X153666D02*
D03*
X162666D02*
D03*
D43*
X356408Y603313D02*
D03*
Y608313D02*
D03*
Y618313D02*
D03*
Y623313D02*
D03*
X384908D02*
D03*
Y618313D02*
D03*
Y613313D02*
D03*
Y608313D02*
D03*
Y603313D02*
D03*
X214690Y603308D02*
D03*
Y608308D02*
D03*
Y618308D02*
D03*
Y623308D02*
D03*
X243190D02*
D03*
Y618308D02*
D03*
Y613308D02*
D03*
Y608308D02*
D03*
Y603308D02*
D03*
X285546D02*
D03*
Y608308D02*
D03*
Y618308D02*
D03*
Y623308D02*
D03*
X314046D02*
D03*
Y618308D02*
D03*
Y613308D02*
D03*
Y608308D02*
D03*
Y603308D02*
D03*
X143916D02*
D03*
Y608308D02*
D03*
Y618308D02*
D03*
Y623308D02*
D03*
X172416D02*
D03*
Y618308D02*
D03*
Y613308D02*
D03*
Y608308D02*
D03*
Y603308D02*
D03*
X493207Y372877D02*
D03*
Y358378D02*
D03*
X510707Y358378D02*
D03*
Y372848D02*
D03*
X800411Y652732D02*
D03*
Y657223D02*
D03*
X781911Y652732D02*
D03*
X781941Y657223D02*
D03*
X54068Y647357D02*
D03*
Y642865D02*
D03*
X72567Y647357D02*
D03*
X72538Y642865D02*
D03*
D44*
X356408Y613313D02*
D03*
X214690Y613308D02*
D03*
X285546D02*
D03*
X143916D02*
D03*
D45*
X696020Y609350D02*
D03*
X665020D02*
D03*
X615500D02*
D03*
X584500D02*
D03*
X535180D02*
D03*
X504180D02*
D03*
X454840D02*
D03*
X423840D02*
D03*
D46*
X558974Y669037D02*
D03*
X548973D02*
D03*
X558974Y679197D02*
D03*
X548973D02*
D03*
X629292Y669290D02*
D03*
X639293D02*
D03*
X629292Y679451D02*
D03*
X639293D02*
D03*
X108378Y186945D02*
D03*
X98377D02*
D03*
X89074D02*
D03*
X79073D02*
D03*
X108243Y106250D02*
D03*
X98242D02*
D03*
X88939D02*
D03*
X78938D02*
D03*
X638620Y215711D02*
D03*
X648621D02*
D03*
X656480Y215712D02*
D03*
X666480D02*
D03*
X279956Y302259D02*
D03*
X269955D02*
D03*
X270431Y292099D02*
D03*
X260430D02*
D03*
X279480Y312419D02*
D03*
X289481D02*
D03*
X186261Y431801D02*
D03*
X196262D02*
D03*
X196263Y440689D02*
D03*
X186262D02*
D03*
X810870Y668897D02*
D03*
X820871D02*
D03*
X811378Y643497D02*
D03*
X821379D02*
D03*
X293529Y679451D02*
D03*
X303530D02*
D03*
X287115Y679448D02*
D03*
X277114D02*
D03*
X395050Y453897D02*
D03*
X405051D02*
D03*
X405050Y462663D02*
D03*
X395049D02*
D03*
Y471423D02*
D03*
X405050D02*
D03*
X203883Y370839D02*
D03*
X193882D02*
D03*
X193881Y379731D02*
D03*
X203882D02*
D03*
X177032Y346716D02*
D03*
X187033D02*
D03*
X160190Y355973D02*
D03*
X170191D02*
D03*
X177023D02*
D03*
X187024D02*
D03*
X203956Y388359D02*
D03*
X193955D02*
D03*
X177023Y379729D02*
D03*
X187024D02*
D03*
X304880Y688339D02*
D03*
X314881D02*
D03*
X234871D02*
D03*
X224870D02*
D03*
X347805Y639065D02*
D03*
X357806D02*
D03*
X212332D02*
D03*
X222332D02*
D03*
X184992Y688339D02*
D03*
X194993D02*
D03*
X275511D02*
D03*
X265510D02*
D03*
X263572Y679451D02*
D03*
X253571D02*
D03*
X165864Y688645D02*
D03*
X175865D02*
D03*
X666480Y319344D02*
D03*
X656480D02*
D03*
X334344Y688339D02*
D03*
X344345D02*
D03*
X235538Y679448D02*
D03*
X245539D02*
D03*
X213853Y679451D02*
D03*
X223854D02*
D03*
X207185Y679448D02*
D03*
X197184D02*
D03*
X283188Y639065D02*
D03*
X293188D02*
D03*
X151558D02*
D03*
X141557D02*
D03*
X719811Y679197D02*
D03*
X709810D02*
D03*
X719811Y669037D02*
D03*
X709810D02*
D03*
X478626Y678944D02*
D03*
X468625D02*
D03*
X478626Y668784D02*
D03*
X468625D02*
D03*
X648621Y319343D02*
D03*
X638620D02*
D03*
X43100Y656591D02*
D03*
X33099D02*
D03*
X43608Y631191D02*
D03*
X33607D02*
D03*
D47*
X723956Y222885D02*
D03*
X746756D02*
D03*
X723956Y244631D02*
D03*
X746756D02*
D03*
X723956Y266376D02*
D03*
X746756D02*
D03*
X723956Y288122D02*
D03*
X746756D02*
D03*
X723956Y309867D02*
D03*
X746756D02*
D03*
X723956Y331613D02*
D03*
X746756D02*
D03*
D48*
X59210Y197848D02*
D03*
Y207848D02*
D03*
Y227848D02*
D03*
Y217848D02*
D03*
X59075Y117153D02*
D03*
Y127153D02*
D03*
Y147153D02*
D03*
Y137153D02*
D03*
D49*
X107751Y223722D02*
D03*
X82751Y233222D02*
D03*
Y214222D02*
D03*
X107616Y143027D02*
D03*
X82616Y152527D02*
D03*
Y133527D02*
D03*
X615438Y394799D02*
D03*
X640438Y385299D02*
D03*
Y404299D02*
D03*
X720712Y404029D02*
D03*
Y385029D02*
D03*
X695712Y394529D02*
D03*
Y464887D02*
D03*
X720712Y455387D02*
D03*
Y474387D02*
D03*
D50*
X521408Y241170D02*
D03*
X521409Y223011D02*
D03*
X719892Y558168D02*
D03*
X719891Y576327D02*
D03*
X719890Y547494D02*
D03*
X719891Y529335D02*
D03*
X767206Y715305D02*
D03*
X767207Y697146D02*
D03*
X750049D02*
D03*
X750047Y715305D02*
D03*
X99041Y64700D02*
D03*
X99040Y82859D02*
D03*
X119075Y64700D02*
D03*
X119074Y82859D02*
D03*
X139110Y64700D02*
D03*
X139109Y82859D02*
D03*
X159143D02*
D03*
X159144Y64700D02*
D03*
X755251D02*
D03*
X755250Y82859D02*
D03*
X433155Y223011D02*
D03*
X433153Y241170D02*
D03*
X447802Y223011D02*
D03*
X447801Y241170D02*
D03*
X506169Y223011D02*
D03*
X506167Y241170D02*
D03*
X350568Y241049D02*
D03*
X350569Y222891D02*
D03*
X364538Y241049D02*
D03*
X364539Y222891D02*
D03*
X403860Y223011D02*
D03*
X403859Y241170D02*
D03*
X418507Y223011D02*
D03*
X418506Y241170D02*
D03*
X242619Y222891D02*
D03*
X242618Y241049D02*
D03*
X272426D02*
D03*
X272427Y222891D02*
D03*
X287068Y241049D02*
D03*
X287069Y222891D02*
D03*
X302308Y241049D02*
D03*
X302309Y222891D02*
D03*
X317278Y241049D02*
D03*
X317279Y222891D02*
D03*
X257858Y241049D02*
D03*
X257859Y222891D02*
D03*
X495555Y465048D02*
D03*
X495557Y446889D02*
D03*
X515291Y465048D02*
D03*
X515292Y446889D02*
D03*
X535027Y465048D02*
D03*
X535028Y446889D02*
D03*
X554763Y465048D02*
D03*
X554764Y446889D02*
D03*
X574498Y465048D02*
D03*
X574500Y446889D02*
D03*
X594234Y465048D02*
D03*
X594235Y446889D02*
D03*
X556033Y389081D02*
D03*
X556031Y407240D02*
D03*
X541569D02*
D03*
X541570Y389081D02*
D03*
X512645Y388702D02*
D03*
X512644Y406861D02*
D03*
X483720Y388702D02*
D03*
X483718Y406861D02*
D03*
X498180Y407240D02*
D03*
X498181Y389081D02*
D03*
X469257Y388702D02*
D03*
X469256Y406861D02*
D03*
X527106Y407240D02*
D03*
X527107Y389081D02*
D03*
X454792Y407240D02*
D03*
X454793Y389081D02*
D03*
X194628Y472185D02*
D03*
X194627Y490344D02*
D03*
X176734Y472185D02*
D03*
X176732Y490344D02*
D03*
X158838D02*
D03*
X158839Y472185D02*
D03*
X105157Y471806D02*
D03*
X105156Y489965D02*
D03*
X123049Y490344D02*
D03*
X123050Y472185D02*
D03*
X140946Y471806D02*
D03*
X140945Y489965D02*
D03*
X379729Y536572D02*
D03*
X379730Y518413D02*
D03*
X363134Y536572D02*
D03*
X363135Y518413D02*
D03*
X273813Y516764D02*
D03*
X273812Y534923D02*
D03*
X287781Y535302D02*
D03*
X287782Y517143D02*
D03*
X475821Y446889D02*
D03*
X475820Y465048D02*
D03*
X456085Y446889D02*
D03*
X456084Y465048D02*
D03*
X105157Y518034D02*
D03*
X105156Y536193D02*
D03*
X39601Y431676D02*
D03*
X39600Y449835D02*
D03*
X54609Y450214D02*
D03*
X54610Y432055D02*
D03*
X79049Y450214D02*
D03*
X79050Y432055D02*
D03*
X39551Y403878D02*
D03*
X39552Y385719D02*
D03*
X54563Y385088D02*
D03*
X54562Y403247D02*
D03*
X79002Y403499D02*
D03*
X79003Y385340D02*
D03*
X79002Y270151D02*
D03*
X79001Y288310D02*
D03*
X54562Y270151D02*
D03*
X54561Y288310D02*
D03*
X39552Y287931D02*
D03*
X39553Y269772D02*
D03*
X79051Y547244D02*
D03*
X79050Y565403D02*
D03*
X54611Y546992D02*
D03*
X54610Y565151D02*
D03*
X39600Y547623D02*
D03*
X39599Y565782D02*
D03*
X176734Y518413D02*
D03*
X176732Y536572D02*
D03*
X194627Y536318D02*
D03*
X194628Y518159D02*
D03*
X329945Y536572D02*
D03*
X329946Y518413D02*
D03*
X346539Y536572D02*
D03*
X346541Y518413D02*
D03*
X158774Y270781D02*
D03*
X158773Y288940D02*
D03*
X174014Y270781D02*
D03*
X174013Y288940D02*
D03*
X148825Y305991D02*
D03*
X148824Y324150D02*
D03*
X133120Y305991D02*
D03*
X133118Y324150D02*
D03*
X119142Y305991D02*
D03*
X119141Y324150D02*
D03*
X504447Y324792D02*
D03*
X504445Y342951D02*
D03*
X768351Y541610D02*
D03*
X768350Y559769D02*
D03*
X639374Y558421D02*
D03*
X639373Y576580D02*
D03*
X559053Y547494D02*
D03*
X559054Y529335D02*
D03*
Y576327D02*
D03*
X559055Y558168D02*
D03*
X478704Y547241D02*
D03*
X478706Y529082D02*
D03*
Y576073D02*
D03*
X478707Y557915D02*
D03*
X639373Y529588D02*
D03*
X639372Y547747D02*
D03*
X158039Y518413D02*
D03*
X158038Y536572D02*
D03*
X122784Y518413D02*
D03*
X122782Y536572D02*
D03*
X140412Y518034D02*
D03*
X140411Y536193D02*
D03*
D51*
X24643Y532050D02*
D03*
Y522050D02*
D03*
X24589Y340841D02*
D03*
Y350842D02*
D03*
Y321537D02*
D03*
Y331538D02*
D03*
X24637Y512746D02*
D03*
Y502746D02*
D03*
Y493442D02*
D03*
Y483441D02*
D03*
X24595Y360146D02*
D03*
Y370146D02*
D03*
X24591Y379450D02*
D03*
Y389451D02*
D03*
X457198Y160864D02*
D03*
Y150863D02*
D03*
X481628Y160864D02*
D03*
Y150863D02*
D03*
X457201Y199724D02*
D03*
Y209725D02*
D03*
X481631Y199724D02*
D03*
Y209725D02*
D03*
X547163Y150863D02*
D03*
Y160864D02*
D03*
X547160Y209725D02*
D03*
Y199724D02*
D03*
X334822Y124927D02*
D03*
Y134928D02*
D03*
X346503D02*
D03*
Y124927D02*
D03*
X328978Y237036D02*
D03*
Y227035D02*
D03*
X338886Y227036D02*
D03*
Y237036D02*
D03*
X391921Y209725D02*
D03*
Y199724D02*
D03*
X391924Y150863D02*
D03*
Y160864D02*
D03*
X487086Y585042D02*
D03*
Y595043D02*
D03*
X478452Y584963D02*
D03*
Y594963D02*
D03*
X567435Y595296D02*
D03*
Y585295D02*
D03*
X558800Y595217D02*
D03*
Y585216D02*
D03*
X647754Y585549D02*
D03*
Y595549D02*
D03*
X639119Y585469D02*
D03*
Y595470D02*
D03*
X550165Y585296D02*
D03*
Y595297D02*
D03*
X728272Y585295D02*
D03*
Y595296D02*
D03*
X719637Y585216D02*
D03*
Y595217D02*
D03*
X630485Y595550D02*
D03*
Y585549D02*
D03*
X711003Y595297D02*
D03*
Y585296D02*
D03*
X469817Y595043D02*
D03*
Y585043D02*
D03*
X722377Y707054D02*
D03*
Y717055D02*
D03*
X732539Y707054D02*
D03*
Y717055D02*
D03*
X339494Y602140D02*
D03*
Y592139D02*
D03*
X348127D02*
D03*
Y602140D02*
D03*
X66800Y441963D02*
D03*
Y451964D02*
D03*
X66755Y383590D02*
D03*
Y393591D02*
D03*
X66752Y290060D02*
D03*
Y280059D02*
D03*
X24639Y541354D02*
D03*
Y551355D02*
D03*
X66803Y555495D02*
D03*
Y545494D02*
D03*
X111310Y283791D02*
D03*
Y293792D02*
D03*
Y264292D02*
D03*
Y274292D02*
D03*
X515874Y345410D02*
D03*
Y335409D02*
D03*
X490474Y345410D02*
D03*
Y335409D02*
D03*
X768603Y530478D02*
D03*
Y520477D02*
D03*
X373127Y304414D02*
D03*
Y314414D02*
D03*
X364361D02*
D03*
Y304414D02*
D03*
X355599Y314414D02*
D03*
Y304414D02*
D03*
X242317Y304625D02*
D03*
Y314626D02*
D03*
X251205D02*
D03*
Y304625D02*
D03*
X195010Y346157D02*
D03*
Y356158D02*
D03*
X243585Y511730D02*
D03*
Y501729D02*
D03*
X234697D02*
D03*
Y511730D02*
D03*
X127001Y629333D02*
D03*
Y619332D02*
D03*
X251370Y629333D02*
D03*
Y619332D02*
D03*
X206412Y629333D02*
D03*
Y619332D02*
D03*
X260006D02*
D03*
Y629333D02*
D03*
X197776Y619332D02*
D03*
Y629333D02*
D03*
X180595D02*
D03*
Y619332D02*
D03*
X135637Y629333D02*
D03*
Y619332D02*
D03*
X189231Y629333D02*
D03*
Y619332D02*
D03*
X251367Y602136D02*
D03*
Y592135D02*
D03*
X393085Y602140D02*
D03*
Y592139D02*
D03*
X401721Y602140D02*
D03*
Y592139D02*
D03*
X260003Y602136D02*
D03*
Y592135D02*
D03*
X322225Y629333D02*
D03*
Y619332D02*
D03*
X277267Y629333D02*
D03*
Y619332D02*
D03*
X127001Y592135D02*
D03*
Y602136D02*
D03*
X135634D02*
D03*
Y592135D02*
D03*
X268631D02*
D03*
Y602136D02*
D03*
X277264D02*
D03*
Y592135D02*
D03*
X330862Y629333D02*
D03*
Y619332D02*
D03*
X268631Y629333D02*
D03*
Y619332D02*
D03*
X322223Y602136D02*
D03*
Y592135D02*
D03*
X180592D02*
D03*
Y602136D02*
D03*
X330858D02*
D03*
Y592135D02*
D03*
X189228D02*
D03*
Y602136D02*
D03*
X393088Y629337D02*
D03*
Y619336D02*
D03*
X348130D02*
D03*
Y629337D02*
D03*
X197776Y602136D02*
D03*
Y592135D02*
D03*
X206409D02*
D03*
Y602136D02*
D03*
X401724Y629337D02*
D03*
Y619336D02*
D03*
X339494D02*
D03*
Y629337D02*
D03*
D52*
X119132Y49415D02*
D03*
Y32415D02*
D03*
X139167Y49415D02*
D03*
Y32415D02*
D03*
X159201Y49415D02*
D03*
Y32415D02*
D03*
X755308D02*
D03*
Y49415D02*
D03*
X99097D02*
D03*
Y32415D02*
D03*
D53*
X773000Y160749D02*
D03*
Y148249D02*
D03*
Y135749D02*
D03*
Y123249D02*
D03*
Y233754D02*
D03*
Y246254D02*
D03*
Y258754D02*
D03*
Y271254D02*
D03*
Y283754D02*
D03*
Y296254D02*
D03*
Y308754D02*
D03*
Y321254D02*
D03*
D54*
X276925Y31978D02*
D03*
X289625D02*
D03*
X302325D02*
D03*
X315025D02*
D03*
X327725D02*
D03*
X340425D02*
D03*
X276925Y86978D02*
D03*
X289625D02*
D03*
X302325D02*
D03*
X315025D02*
D03*
X327725D02*
D03*
X340425D02*
D03*
D55*
X210000Y98606D02*
D03*
X200500Y73606D02*
D03*
X219500D02*
D03*
X440370Y95050D02*
D03*
X459370D02*
D03*
X449870Y70050D02*
D03*
X490000D02*
D03*
X499500Y95050D02*
D03*
X480500D02*
D03*
X210000Y50092D02*
D03*
X200500Y25092D02*
D03*
X219500D02*
D03*
X594216Y480534D02*
D03*
X584716Y505534D02*
D03*
X575216Y480534D02*
D03*
X535505D02*
D03*
X545005Y505534D02*
D03*
X554505Y480534D02*
D03*
X495795D02*
D03*
X505295Y505534D02*
D03*
X514795Y480534D02*
D03*
X456084Y479396D02*
D03*
X465584Y504396D02*
D03*
X475084Y479396D02*
D03*
D56*
X346705Y204406D02*
D03*
X334005D02*
D03*
X321305D02*
D03*
X308605D02*
D03*
X295905D02*
D03*
X283205D02*
D03*
X270505D02*
D03*
X257805D02*
D03*
Y155906D02*
D03*
X270505D02*
D03*
X283205D02*
D03*
X295905D02*
D03*
X308605D02*
D03*
X321305D02*
D03*
X334005D02*
D03*
X346705D02*
D03*
D57*
X622057Y255667D02*
D03*
D58*
X682557Y281067D02*
D03*
Y268367D02*
D03*
Y255667D02*
D03*
Y242967D02*
D03*
Y230267D02*
D03*
D59*
X442363Y367591D02*
D03*
X448863D02*
D03*
X455363D02*
D03*
Y348091D02*
D03*
X448863D02*
D03*
X442363D02*
D03*
D60*
X133620Y291042D02*
D03*
X124120Y267042D02*
D03*
X133620D02*
D03*
X143120D02*
D03*
X124120Y291042D02*
D03*
X143120D02*
D03*
D61*
X167578Y367946D02*
D03*
X183578D02*
D03*
D62*
X501957Y368119D02*
D03*
X501968Y363118D02*
D03*
D63*
X508957Y356378D02*
D03*
X494957Y374877D02*
D03*
Y356378D02*
D03*
X508957Y374848D02*
D03*
D64*
X788670Y654980D02*
D03*
X793670Y654990D02*
D03*
X65809Y645108D02*
D03*
X60808Y645098D02*
D03*
D65*
X800411Y661980D02*
D03*
X781911Y647980D02*
D03*
X800411D02*
D03*
X781940Y661980D02*
D03*
X54068Y638109D02*
D03*
X72567Y652109D02*
D03*
X54068D02*
D03*
X72538Y638109D02*
D03*
D66*
X789224Y595599D02*
D03*
Y602099D02*
D03*
Y608599D02*
D03*
X808724D02*
D03*
Y602099D02*
D03*
Y595599D02*
D03*
X45777Y598686D02*
D03*
Y592186D02*
D03*
Y585686D02*
D03*
X65277D02*
D03*
Y592186D02*
D03*
Y598686D02*
D03*
D67*
X637903Y447293D02*
D03*
X620903D02*
D03*
X637903Y464819D02*
D03*
X620903D02*
D03*
D68*
X799084Y507750D02*
D03*
Y577750D02*
D03*
D69*
X260483Y485169D02*
D03*
X265483D02*
D03*
X270483D02*
D03*
X275483D02*
D03*
X280483D02*
D03*
X285483D02*
D03*
X290483D02*
D03*
X295483D02*
D03*
X300483D02*
D03*
X305483D02*
D03*
X310483D02*
D03*
X315483D02*
D03*
X320483D02*
D03*
X325483D02*
D03*
X330483D02*
D03*
X335483D02*
D03*
X340483D02*
D03*
X345483D02*
D03*
X300483Y330169D02*
D03*
X295483D02*
D03*
X290483Y330169D02*
D03*
X285483D02*
D03*
X280483Y330169D02*
D03*
X275483D02*
D03*
X270483D02*
D03*
X265483D02*
D03*
X260483D02*
D03*
X255483Y330169D02*
D03*
X250483Y330169D02*
D03*
X245483D02*
D03*
X240483D02*
D03*
Y485169D02*
D03*
X245483D02*
D03*
X250483D02*
D03*
X255483D02*
D03*
X360483Y330169D02*
D03*
X355483D02*
D03*
X350483D02*
D03*
X345483D02*
D03*
X340483D02*
D03*
X335483D02*
D03*
X330483D02*
D03*
X325483D02*
D03*
X320483Y330169D02*
D03*
X315483Y330169D02*
D03*
X310483D02*
D03*
X305483D02*
D03*
X350483Y485169D02*
D03*
X355483D02*
D03*
X360483D02*
D03*
D70*
X222983Y347669D02*
D03*
Y352669D02*
D03*
Y357669D02*
D03*
Y362669D02*
D03*
Y367669D02*
D03*
Y372669D02*
D03*
Y377669D02*
D03*
Y382669D02*
D03*
X377983Y382669D02*
D03*
Y377669D02*
D03*
Y372669D02*
D03*
Y367669D02*
D03*
Y362669D02*
D03*
Y357669D02*
D03*
Y352669D02*
D03*
Y347669D02*
D03*
X222983Y387669D02*
D03*
Y392669D02*
D03*
Y397669D02*
D03*
Y402669D02*
D03*
Y407669D02*
D03*
Y412669D02*
D03*
Y417669D02*
D03*
Y422669D02*
D03*
Y427669D02*
D03*
Y432669D02*
D03*
Y437669D02*
D03*
Y442669D02*
D03*
Y447669D02*
D03*
Y452669D02*
D03*
Y457669D02*
D03*
Y462669D02*
D03*
Y467669D02*
D03*
X377983D02*
D03*
Y462669D02*
D03*
Y457669D02*
D03*
X377983Y452669D02*
D03*
X377983Y447669D02*
D03*
Y442669D02*
D03*
Y437669D02*
D03*
Y432669D02*
D03*
Y427669D02*
D03*
X377983Y422669D02*
D03*
Y417669D02*
D03*
X377983Y412669D02*
D03*
Y407669D02*
D03*
Y402669D02*
D03*
Y397669D02*
D03*
Y392669D02*
D03*
X377983Y387669D02*
D03*
D71*
X158777Y408089D02*
D03*
X174333Y423645D02*
D03*
X185647Y412331D02*
D03*
X170091Y396775D02*
D03*
D72*
X157968Y388895D02*
D03*
X150897Y395967D02*
D03*
D73*
X153437Y421914D02*
D03*
X160509Y428985D02*
D03*
D74*
X312380Y667901D02*
D03*
Y639439D02*
D03*
X383242Y667906D02*
D03*
Y639443D02*
D03*
X241524Y667901D02*
D03*
Y639439D02*
D03*
X170749Y667901D02*
D03*
Y639439D02*
D03*
D75*
X680521Y675496D02*
D03*
Y632096D02*
D03*
X600003Y675749D02*
D03*
Y632349D02*
D03*
X519684Y632096D02*
D03*
Y675496D02*
D03*
X439336Y631843D02*
D03*
Y675243D02*
D03*
D76*
X719892Y646176D02*
D03*
Y613156D02*
D03*
X639374Y613410D02*
D03*
Y646430D02*
D03*
X559055Y646176D02*
D03*
Y613156D02*
D03*
X478707Y645923D02*
D03*
Y612903D02*
D03*
D77*
X24718Y581847D02*
D03*
X25398Y448988D02*
D03*
X54483Y414798D02*
D03*
X12727Y269620D02*
D03*
M02*
