M48
;Layer_Color=9474304
;FILE_FORMAT=4:2
METRIC,TZ
;TYPE=PLATED
T01F00S00C0.20
T02F00S00C0.50
T03F00S00C0.95
T04F00S00C1.02
T05F00S00C1.10
T06F00S00C3.30
%
T01
X109Y66
X209Y64
X309
X409
X509
X609
X709
X809
X909
X1009
X1109
X1209
X1309
X1409
X1509
X1609
X1709
X1809
X1909
X2009
X2109
X2209
X2309
X2409
X2273Y758
X1873
X1427Y741
Y893
Y1197
Y1378
Y1556
X1686Y1534
X1916Y1645
X2073Y1645
Y1515
X2203
Y1645
Y1775
X2073
X1923Y2057
Y2162
X1607Y2213
X1429Y2162
X1300Y2139
X1160Y2141
X1015Y1892
X907
X581Y1726
X579Y1586
X416Y1586
X418Y1726
X410Y1892
X412Y2032
X64Y2055
Y1955
Y1855
Y1755
Y1655
Y1555
Y1455
Y1355
Y1255
Y1155
Y1055
Y955
Y855
Y755
Y655
Y555
Y455
Y355
Y255
Y155
X735Y417
Y589
Y760
X831Y846
Y674
Y503
Y331
X926Y417
Y589
Y760
X1022Y846
Y331
X1427Y284
Y437
Y589
X1673Y1158
X2073
X2071Y1306
X2203Y1185
X2320Y2276
X2425
X1323Y1737
X366Y1413
Y1230
X369Y1050
X64Y2155
Y2255
X2531Y2276
X2636
X2742
X2847
X2830Y1608
X2649Y1607
X3362Y1099
X3458Y1177
X3553Y1099
X3649Y1177
X3744Y1099
Y920
Y748
Y577
Y405
Y234
X3649Y319
Y491
Y662
Y834
Y998
X3553Y920
Y748
Y577
Y405
Y234
X3458Y319
Y491
Y662
Y834
Y998
X3362Y920
Y748
Y577
Y405
Y234
X3409Y64
X3509
X3609
X3709
X3809
X3909
X4009
X4109
X4209
X4309
X4409
X4509
X4609
X4709
X4809
X4909
X5009
X5109
X5209
X5309
X5409
X5509
X5609
X5709
X5809
X5909
X6009
X6109
X6209
X6309
X6409
X5852Y722
X5252Y840
X5050Y843
X4871Y1099
X4953Y1448
X4554Y1450
X4554Y1732
X4726Y1727
X4691Y2151
X4803Y2116
X4945Y2068
X5236Y2187
Y1786
X5675
X5672Y1448
X5532Y1570
X5572Y1166
X5532Y2022
X4470Y1935
X4394Y2045
X4272Y2156
X4336Y2286
X4458Y2286
X3893Y2093
X4069Y1107
X4305Y1144
X4465Y1145
X4850Y360
X3309Y64
X3209
X3109
X3009
X2909
X2809
X2709
X2609
X2509
X6509
X6609
X6709
X6809
X6909
X7009
X7109
X7209
X7309
X7409
X7509
X7609
X7709
X7809
X7909
X8009
X8109
X8222Y69
X8339Y63
X8421Y89
X8436Y168
Y268
Y368
Y468
Y568
Y668
Y768
Y868
Y968
Y1068
Y1168
Y1268
Y1368
Y1468
Y1568
Y1668
Y1768
Y1868
Y1968
Y2068
Y2168
Y2268
X8054Y2290
X8049Y2119
X8143Y1798
X8143Y1577
X8073Y1158
X8273Y758
X7673Y358
X7273
X6873
X6473
X7073Y758
X6700Y1448
X6568Y1506
X6632Y1753
X6765Y1750
X6783Y1898
X6806Y2034
X6609Y2275
X6609Y2405
Y2525
X6607Y2666
X6869Y2639
X6815Y3045
X6873Y3180
X6870Y3393
X6865Y3606
X6752Y3657
X6921Y3718
X6864Y3818
X6800Y3984
X6718Y4067
X6817Y4153
X6535Y4249
X6539Y4696
X6508Y4886
X6953Y4810
X6946Y5080
X7273Y5158
X7673
X7932Y4999
X7873Y4758
X7849Y4633
X7885Y4441
X7849Y4233
X7885Y4034
X7873Y3958
X7849Y3833
X7886Y3635
X7849Y3425
X7673Y3558
X7417Y3547
X7509Y3425
X7516Y3289
X7373
X7230
X7452Y3038
X7656Y2992
X7885Y2843
X7838Y2644
X7896Y2501
X7493Y2348
X8436Y2368
Y2468
Y2568
Y2668
Y2768
Y2868
Y2968
Y3068
Y3168
Y3268
Y3368
Y3468
Y3568
Y3668
Y3768
Y3868
Y3968
Y4068
Y4168
Y4268
Y4368
Y4468
Y4568
Y4668
Y4768
Y4868
Y4968
Y5068
Y5168
Y5268
Y5368
Y5468
Y5568
Y5668
Y5768
Y5868
Y5968
Y6068
Y6168
Y6268
X8273Y5558
X7873
X7673Y5958
X7073Y5558
X6489Y5549
X6497Y6012
X6502Y6208
X7473Y4758
X7463Y4555
X7635
X7673Y4358
X7473Y3958
X8273
Y4758
Y3158
X8059Y3325
X6601Y3528
X6680Y2912
X6064Y3317
X5577Y3305
X5626Y3459
X5243Y3384
X5080Y3397
X5087Y3489
X5080Y3628
X5084Y3286
X5044Y3205
X5052Y3101
X4993Y3047
X4966Y3152
X4673Y3158
X4361Y3098
X4314Y2976
X4161Y2970
X3965Y2983
X3806Y2986
X3635Y2969
X3466Y2982
X3551Y3218
X3725
X3900
X4074
X4274Y3299
X4161Y3457
X3990Y3458
X3810Y3457
X3642Y3465
X3607Y3949
X3707Y4001
X3903Y4051
X3930Y3958
X4367Y3893
X4432Y3803
X4309Y3786
X4489Y3957
X4570Y4104
X4662Y4098
X4618Y4234
X4861Y4297
X4881Y4409
X4792Y4410
X4852Y4614
X4966Y4668
X5288Y4716
Y4615
X5471Y4716
X5668Y4711
X6142Y4722
X6313Y4708
X6324Y4886
X5851Y5102
X5851Y5261
X5862Y5415
Y5674
X5856Y5827
X5851Y5979
X5227Y5960
X4909Y6026
Y6204
X4559Y6169
X4445Y6276
X4267
X4101
X3939Y5803
X3623
X3386Y5808
X3399Y5654
X3468Y5563
X3551Y5469
X3656
X3762
X3867
X3973
X4078
X4034Y5379
X4148Y5383
X4223Y5334
X4374Y5383
X4412Y5318
X4507
X4516Y5148
X4462Y5074
X4410Y4999
X4565Y4957
X4710Y4976
X4658Y5186
X4925Y5133
X5249
X5227Y5540
X4925Y5469
X4817
X4710
X4633Y5566
X4559Y5659
X4688Y5744
X4229Y5554
X3939Y5297
X3788Y5133
X3502Y5196
X3476Y5093
X3350Y5137
X3251Y5160
Y5318
X3346
X3213Y5383
X3063Y5334
X2961Y5383
X2868Y5377
X2744Y5373
X2707Y5469
X2602
X2496
X2813
X2924Y5468
X3069Y5554
X2780Y5808
X2783Y5963
X2873Y5958
X2783Y6112
X2615Y6119
Y5963
Y5808
X2465Y5806
X2627Y5137
X2563Y4790
X2749
X2934
X3119Y4790
X3152Y5076
X3116Y4359
X2934
X2749
X2563
X2653Y4451
X2652Y4576
X2837Y4628
X2840Y4512
X2446Y4432
X2470Y4109
X2557Y4052
X2644Y3948
X2750Y4000
X3162Y3886
X3133Y3822
X3093Y3701
X3093Y3398
X3107Y3200
X2565Y3132
X2566Y2899
X2484Y2972
X2919Y2563
X3104
X3296Y2565
X3565Y2651
X3651Y2560
X3755Y2611
X3803Y2508
X3893Y2435
X4011Y2457
X3964Y2714
X3857Y2663
X4751Y2759
X4879Y2482
X4614Y2398
X5231Y2541
X5239Y2666
X5089Y2684
X5304Y2879
X5216Y3203
X5599Y2997
X5702Y4248
X5902Y4176
X5253Y4333
X5085Y4090
X4999Y4049
X4310Y4547
X4306Y4665
X4273Y4758
X4114Y4785
X3970Y4798
X4054Y4911
X4210Y4912
X4163Y4547
X3794Y4689
X3396Y4473
X3395Y4173
X3449Y4106
X3565Y4231
X3468Y6119
X3263
X5399Y6210
X6313Y6207
X2240Y5662
X2309Y5557
X2391Y5469
X2342Y5194
X2315Y5093
X2190Y5137
X2091Y5162
Y5318
X2186
X2144Y5384
X2053Y5384
X1905Y5334
X1806Y5383
X1707Y5375
X1586
X1547Y5469
X1652
X1758
X1909Y5554
X1630Y5747
X1693Y5836
X1528Y5820
X1428Y5763
X1307Y5803
X1336Y5469
X1441
X1230
X1153Y5565
X1079Y5634
X981Y5384
X899
X931Y5318
X1026
X1030Y5137
X931Y5162
X1178Y5186
X1155Y5093
X1463Y5133
X1379Y4897
X1385Y4726
X1428Y4388
X1632Y4531
X1847Y4430
X2069Y4361
X2238
Y4532
X2155Y4453
X2070Y4532
X1955Y4652
X2118Y4761
X2238Y4778
X2363Y4658
X2225Y4120
X2317Y3785
X2296Y3594
X2289Y3409
X2273Y3158
X1873
X1533Y3089
Y2996
X1681Y3380
X1673Y3558
X1559Y3579
X1496Y3515
X1324Y3534
X1275Y3407
X762Y3408
X504Y3364
X473Y3558
X622Y3594
X803Y3685
X806Y3804
X504Y3924
Y4216
X473Y4358
X621Y4442
X720Y4345
X803Y4536
X809Y4641
X804Y4960
X742Y5334
X631Y5381
X675Y5469
X748Y5554
X460Y5469
X460Y5371
X545Y5215
X64Y5255
Y5155
Y5055
Y4955
Y4855
Y4755
Y4655
Y4555
Y4455
Y4355
Y4255
Y4155
Y4055
Y3955
Y3855
Y3755
Y3655
Y3555
Y3455
Y3355
Y3255
Y3155
Y3055
Y2955
Y2855
Y2755
Y2655
Y2555
Y2455
Y2355
X480Y2695
X495Y3096
X935Y3188
X930Y2870
Y2760
Y2626
X1443Y2414
X1609Y2416
X1886Y2626
X2042Y2340
X2387Y2563
X2022Y3776
X1578Y3960
X1584Y4138
X1324Y4048
X1110Y4032
X461Y4776
Y5715
X617Y5803
X688Y6141
X773Y6227
X873Y5958
X358Y6050
Y6201
X64Y6155
Y6055
Y5955
Y5855
Y5755
Y5655
Y5555
Y5455
Y5355
Y6255
X1934Y5084
X2101Y6539
X2056Y6728
Y6850
Y6971
Y7092
Y7213
X1407Y7254
X1400Y7450
X1464Y7585
X1320Y7585
X1318Y7727
X1392Y7660
X1466Y7728
X1673Y7558
X944Y7571
Y7428
X838Y7360
Y7503
Y7646
X944Y7714
X733
Y7572
Y7429
Y7286
X358Y7257
Y7408
Y7559
X64Y7555
Y7455
Y7355
Y7255
Y7155
Y7055
Y6955
Y6855
Y6755
Y6655
Y6555
Y6455
Y6355
X358Y6352
Y6503
Y6654
Y6804
Y6955
Y7106
X716Y6858
X859Y6484
X773Y6398
X688Y6312
X859
X1073Y6358
X1396Y6497
X1408Y6682
Y6878
X1363Y8436
X1463
X1563
X1663
X1763
X1863
X1963
X2063
X2163
X2263
X2363
X2273Y7958
X1263Y8436
X1163
X1063
X963
X863
X763
X663
X563
X463
X363
X263
X122
X64Y8355
Y8255
Y8155
Y8055
X60Y7951
X64Y7855
Y7755
Y7655
X2473Y7558
X2469Y7183
Y6985
X2673Y7158
X3073
X3473
X3873
X4032Y6987
X4011Y7359
X3673Y7558
X3273
X2873
X3073Y7958
X3473
X3873
X4122Y7831
X4273Y7958
X4673
X4564Y7729
Y7306
X4445Y6984
X4640Y6875
X4700Y6720
X4873Y6758
X4761Y6550
X4559Y6560
X4813Y6383
X5200Y6515
X5400
X5495Y6632
X5304
X5199Y6772
X5073Y7158
X5473
X5873
X6273
X6073Y7558
X5673
X5273
X4873
X5073Y7958
X5473
X5873
X6273
X6263Y8436
X6363
X6163
X6063
X5963
X5863
X5763
X5663
X5563
X5463
X5363
X5263
X5163
X5063
X4963
X4863
X4763
X4663
X4563
X4463
X4363
X4263
X4163
X4063
X3963
X3863
X3763
X3663
X3563
X3463
X3363
X3263
X3163
X3063
X2963
X2863
X2763
X2663
X2563
X2463
X2673Y7958
X2502Y6525
X2897Y6520
X3305Y6510
X3673Y6758
X3995Y6605
X5800Y6515
X6008Y6514
X6109Y6632
X5895
X6005Y6764
X5697Y6396
X6498Y6391
X6893Y6319
X7473Y6358
X7873
X8273
X8436Y6368
Y6468
Y6568
Y6668
Y6768
Y6868
Y6968
Y7068
Y7168
Y7268
Y7368
Y7468
Y7568
Y7668
Y7768
Y7868
X8448Y7958
X8448Y8067
X8436Y8168
Y8268
Y8368
X8363Y8436
X8263
X8163
X8063Y8442
X7952Y8444
X7863Y8436
X7763
X7663
X7563
X7463
X7363
X7263
X7163
X7063
X6963
X6863
X6763
X6663
X6563
X6463
X6673Y7958
X7073
X6873Y7558
X7273
X7673
X8073
X8273Y7158
X7873
X7473
X7073
X6473Y7558
X7673Y6758
T02
X196Y196
X360Y131
X524Y196
X593Y360
X524Y524
X360Y592
X196Y524
X128Y360
X7908
X7976Y524
X8140Y592
X8304Y524
X8373Y360
X8304Y196
X8140Y131
X7976Y196
X524Y7976
X360Y7911
X196Y7976
X128Y8140
X196Y8304
X360Y8372
X524Y8304
X593Y8140
X7908
X7976Y7976
X8140Y7911
X8304Y7976
X8373Y8140
X8304Y8304
X8140Y8372
X7976Y8304
T03
X2425Y362
Y838
X6075
Y362
X1675Y6925
Y7400
X3525
Y6925
X4775Y6925
Y7400
X6625
Y6925
T04
X7373Y1138
X7627
Y1392
X7373
Y1646
X7627
Y1900
X7373
Y2154
X7627
Y2408
X7373
Y2662
X7627
T05
X7346Y5446
Y5700
Y5954
Y6422
Y6676
Y6930
Y7184
Y7438
T06
X360Y360
X8140
X360Y8140
X8140
M30
